<svg width="242" height="111" viewBox="0 0 242 111" fill="none" xmlns="http://www.w3.org/2000/svg">
<mask id="path-1-outside-1_2003_16905" maskUnits="userSpaceOnUse" x="0.148438" y="0.0200195" width="242" height="111" fill="black">
<rect fill="white" x="0.148438" y="0.0200195" width="242" height="111"/>
<path d="M226.656 4.02002H15.3332C9.15605 4.02002 4.14844 9.02763 4.14844 15.2048V85.8788C4.14844 92.056 9.15605 97.0636 15.3332 97.0636H185.017L187.799 103.495C189.003 106.278 192.022 107.807 194.979 107.129C197.676 106.511 200.275 105.558 202.768 104.285C205.33 102.975 207.643 101.347 209.664 99.3851C210.417 98.654 211.114 97.8804 211.746 97.0636H226.656C232.833 97.0636 237.841 92.056 237.841 85.8788V15.2048C237.841 9.02763 232.833 4.02002 226.656 4.02002Z"/>
</mask>
<path d="M226.656 4.02002H15.3332C9.15605 4.02002 4.14844 9.02763 4.14844 15.2048V85.8788C4.14844 92.056 9.15605 97.0636 15.3332 97.0636H185.017L187.799 103.495C189.003 106.278 192.022 107.807 194.979 107.129C197.676 106.511 200.275 105.558 202.768 104.285C205.33 102.975 207.643 101.347 209.664 99.3851C210.417 98.654 211.114 97.8804 211.746 97.0636H226.656C232.833 97.0636 237.841 92.056 237.841 85.8788V15.2048C237.841 9.02763 232.833 4.02002 226.656 4.02002Z" fill="white"/>
<path d="M187.799 103.495L184.591 104.883L184.591 104.883L187.799 103.495ZM194.979 107.129L195.759 110.536L195.759 110.536L194.979 107.129ZM202.768 104.285L204.358 107.397L204.358 107.397L202.768 104.285ZM209.664 99.3851L212.098 101.893L212.098 101.893L209.664 99.3851ZM211.746 97.0636V93.5683C210.665 93.5683 209.644 94.0688 208.982 94.9238L211.746 97.0636ZM185.017 97.0636L188.225 95.6759C187.671 94.3965 186.41 93.5683 185.017 93.5683V97.0636ZM15.3332 7.51527H226.656V0.524768H15.3332V7.51527ZM234.346 15.2048V85.8788H241.336V15.2048H234.346ZM7.64369 85.8788V15.2048H0.653186V85.8788H7.64369ZM15.3332 93.5683C11.0864 93.5683 7.64369 90.1256 7.64369 85.8788H0.653186C0.653186 93.9864 7.22568 100.559 15.3332 100.559V93.5683ZM234.346 85.8788C234.346 90.1256 230.903 93.5683 226.656 93.5683V100.559C234.764 100.559 241.336 93.9864 241.336 85.8788H234.346ZM226.656 7.51527C230.903 7.51527 234.346 10.958 234.346 15.2048H241.336C241.336 7.09726 234.764 0.524768 226.656 0.524768V7.51527ZM15.3332 0.524768C7.22567 0.524768 0.653186 7.09725 0.653186 15.2048H7.64369C7.64369 10.958 11.0864 7.51527 15.3332 7.51527V0.524768ZM184.591 104.883C186.464 109.213 191.16 111.59 195.759 110.536L194.198 103.722C192.883 104.023 191.542 103.344 191.007 102.107L184.591 104.883ZM195.759 110.536C198.745 109.852 201.616 108.799 204.358 107.397L201.177 101.172C198.935 102.318 196.607 103.17 194.198 103.722L195.759 110.536ZM204.358 107.397C207.21 105.939 209.811 104.113 212.098 101.893L207.229 96.877C205.474 98.5807 203.45 100.01 201.177 101.173L204.358 107.397ZM212.098 101.893C212.962 101.054 213.77 100.158 214.51 99.2034L208.982 94.9238C208.457 95.6027 207.871 96.254 207.229 96.8772L212.098 101.893ZM226.656 93.5683H211.746V100.559H226.656V93.5683ZM185.017 93.5683H15.3332V100.559H185.017V93.5683ZM181.809 98.4513L184.591 104.883L191.007 102.107L188.225 95.6759L181.809 98.4513Z" fill="black" mask="url(#path-1-outside-1_2003_16905)"/>
<path fill-rule="evenodd" clip-rule="evenodd" d="M99.1 33.5061C96.4771 33.5061 94.1297 35.1329 93.2091 37.5884L75.8496 83.8795C75.1253 85.8117 75.3945 87.976 76.5696 89.6719C77.7447 91.3685 79.6769 92.38 81.7405 92.38H94.0619C96.7344 92.38 99.1146 90.6925 99.9989 88.171L101.722 83.2581H108.755L110.639 88.796C111.582 91.567 114.312 93.3223 117.224 93.0294L129.41 91.804C129.446 91.7998 129.483 91.7963 129.52 91.7921C130.328 92.1689 131.23 92.38 132.18 92.38H144.57C145.82 92.38 146.986 92.0151 147.965 91.3859C148.944 92.0151 150.11 92.38 151.361 92.38H157.624C158.658 92.38 159.665 92.1255 160.563 91.6516C160.979 91.8242 161.401 91.9822 161.829 92.1255C161.848 92.1318 161.868 92.1381 161.887 92.1444C163.907 92.7959 165.987 93.1287 168.107 93.1287C172.386 93.1287 176.435 92.322 180.063 90.48C181.686 89.667 183.157 88.6729 184.469 87.5097C184.106 87.9725 183.806 88.487 183.582 89.042C182.951 90.603 182.973 92.3513 183.641 93.8962L187.793 103.495C188.998 106.279 192.016 107.807 194.973 107.129C197.671 106.511 200.27 105.558 202.762 104.285C205.325 102.975 207.637 101.347 209.658 99.3852C211.762 97.3432 213.425 94.9693 214.475 92.2514L214.484 92.2276L228.968 55.3733C229.729 53.4366 229.483 51.2488 228.311 49.5292C227.139 47.8096 225.193 46.7807 223.112 46.7807H210.791C208.095 46.7807 205.7 48.4977 204.833 51.05L204.463 52.1403L203.679 49.8267C202.601 46.6485 199.219 44.8755 195.992 45.7974L184.555 49.065C183.989 49.2269 183.454 49.4656 182.963 49.7706C182.068 49.138 181.113 48.5751 180.098 48.0858C176.983 46.5837 173.598 45.8113 170.042 45.6539V38.0276C170.042 36.2931 169.326 34.6355 168.063 33.4466C166.799 32.2577 165.102 31.6429 163.371 31.7476L150.981 32.4964C150.106 32.5493 149.283 32.779 148.543 33.1497C147.324 32.1563 145.771 31.652 144.19 31.7476L131.8 32.4964C128.479 32.6971 125.888 35.4491 125.888 38.7764V60.0983L117.375 37.5731C116.45 35.1255 114.106 33.5061 111.489 33.5061H99.1ZM189.52 80.7198C189.31 81.1588 189.085 81.5908 188.845 82.0159C187.963 83.6069 186.913 85.0456 185.703 86.3192C186.1 86.0284 186.534 85.7831 186.995 85.5908C188.005 85.17 189.067 84.703 190.183 84.1885C190.209 84.1759 190.237 84.1634 190.264 84.1515C190.438 84.0739 190.606 83.9963 190.768 83.9194L189.52 80.7198Z" fill="white"/>
<path d="M99.1017 39.7975H111.491L128.782 85.544L116.597 86.7694L113.261 76.9666H97.2632L94.0636 86.0885H81.7422L99.1017 39.7975ZM109.721 67.2317L105.092 54.6378L100.668 67.2317H109.721Z" fill="black"/>
<path d="M144.57 86.0885H132.18V38.7764L144.57 38.0276V86.0885Z" fill="black"/>
<path d="M157.622 86.0885H151.359V38.7764L163.749 38.0276V52.7998C164.52 52.5276 165.315 52.3234 166.132 52.1872C166.948 52.0056 167.788 51.9149 168.65 51.9149C171.918 51.9149 174.822 52.5276 177.364 53.7529C179.905 54.9783 181.902 56.8617 183.354 59.4031C184.852 61.9446 185.601 65.1895 185.601 69.138C185.601 73.0408 184.852 76.3081 183.354 78.9407C181.902 81.5727 179.86 83.5468 177.228 84.8631C174.641 86.1794 171.6 86.8372 168.106 86.8372C166.653 86.8372 165.224 86.6107 163.817 86.1563C162.455 85.7027 161.094 84.9764 159.733 83.9781L157.622 86.0885ZM166.744 61.4454C165.837 61.4454 164.838 61.7858 163.749 62.4665V76.3536C164.974 76.989 166.154 77.3071 167.289 77.3071C168.831 77.3071 170.125 76.6031 171.169 75.1966C172.258 73.744 172.803 71.7475 172.803 69.2058C172.803 66.6647 172.281 64.7357 171.237 63.4195C170.193 62.1034 168.696 61.4454 166.744 61.4454Z" fill="black"/>
<path d="M197.854 86.2248L198.127 85.4762L186.281 55.1144L197.718 51.8468L204.457 71.7245L210.789 53.0722H223.11L208.61 89.969C207.929 91.739 206.817 93.3726 205.274 94.87C203.732 96.3681 201.939 97.6389 199.897 98.6826C197.854 99.7263 195.744 100.498 193.565 100.997L189.413 91.3985C190.502 90.9448 191.637 90.445 192.817 89.9005C194.042 89.3559 195.131 88.7659 196.084 88.1305C197.038 87.4957 197.628 86.8603 197.854 86.2248Z" fill="black"/>
<path d="M68.0953 84.4073C77.4897 84.4073 81.7651 63.6523 81.7651 55.7827C81.7651 49.6488 77.5233 45.9314 71.9468 45.9314C66.405 45.9314 61.9059 48.3091 61.85 51.2537C61.8499 59.0245 60.4791 84.4073 68.0953 84.4073Z" fill="white"/>
<path d="M33.8849 84.4073C24.4907 84.4073 20.2148 63.6523 20.2148 55.7827C20.2148 49.6488 24.4567 45.9314 30.0334 45.9314C35.5752 45.9314 40.0743 48.3091 40.1302 51.2537C40.1304 59.0245 41.5011 84.4073 33.8849 84.4073Z" fill="white"/>
<path d="M68.0953 84.4073C77.4897 84.4073 81.7651 63.6523 81.7651 55.7827C81.7651 49.6488 77.5233 45.9314 71.9468 45.9314C66.405 45.9314 61.9059 48.3091 61.85 51.2537C61.8499 59.0245 60.4791 84.4073 68.0953 84.4073Z" stroke="black" stroke-width="2.78434"/>
<path d="M33.8849 84.4073C24.4907 84.4073 20.2148 63.6523 20.2148 55.7827C20.2148 49.6488 24.4567 45.9314 30.0334 45.9314C35.5752 45.9314 40.0743 48.3091 40.1302 51.2537C40.1304 59.0245 41.5011 84.4073 33.8849 84.4073Z" stroke="black" stroke-width="2.78434"/>
<path d="M50.5291 59.5578C59.2403 59.5578 67.4005 57.18 74.3915 53.0371C74.59 52.9192 74.8039 52.934 74.9577 53.0204C75.0318 53.0621 75.0758 53.1121 75.0989 53.1538C75.1185 53.189 75.1381 53.2429 75.1283 53.3372C74.0461 64.05 68.2364 72.9051 60.4274 76.9813C57.8456 78.3284 56.0715 80.6688 54.5135 82.724C54.4854 82.761 54.4574 82.7981 54.4294 82.8351C53.1631 84.5045 52.0193 85.9983 50.6218 87.0993C49.2244 85.9983 48.0806 84.5045 46.8144 82.8351C46.7864 82.7981 46.7584 82.761 46.7303 82.724C45.1722 80.6688 43.398 78.3284 40.8162 76.9813C33.0362 72.9205 27.2409 64.1156 26.1276 53.4558C26.1179 53.3617 26.1369 53.3077 26.1562 53.2724C26.1792 53.2306 26.223 53.1805 26.2968 53.1384C26.4498 53.0515 26.6637 53.0358 26.863 53.1526C33.8101 57.2242 41.8992 59.5578 50.5291 59.5578Z" fill="#FFDF6F" stroke="black" stroke-width="2.78434"/>
<path d="M50.7131 61.3215C64.2453 61.3215 75.2153 57.6648 75.2153 53.1541C75.2153 48.6433 64.2453 44.9866 50.7131 44.9866C37.1809 44.9866 26.2109 48.6433 26.2109 53.1541C26.2109 57.6648 37.1809 61.3215 50.7131 61.3215Z" fill="black" stroke="black" stroke-width="2.78434"/>
<path d="M31.0352 66.8898C31.0352 66.8898 43.1208 70.9737 50.8968 70.9737C58.6728 70.9737 70.7584 66.8898 70.7584 66.8898" stroke="black" stroke-width="2.78434" stroke-linecap="round"/>
<path d="M22.125 18.2287C22.125 21.2886 24.6055 23.7691 27.6654 23.7691C30.7253 23.7691 33.2058 21.2886 33.2058 18.2287C33.2058 15.1688 30.7253 12.6883 27.6654 12.6883C24.6055 12.6883 22.125 15.1688 22.125 18.2287Z" fill="black"/>
<path d="M78.4522 18.2287C78.4522 21.2886 75.9712 23.7691 72.9115 23.7691C69.8516 23.7691 67.3711 21.2886 67.3711 18.2287C67.3711 15.1688 69.8516 12.6883 72.9115 12.6883C75.9712 12.6883 78.4522 15.1688 78.4522 18.2287Z" fill="black"/>
<path d="M73.9279 17.3977L63.5858 27.7397M26.7422 17.3977L37.0843 27.7397L26.7422 17.3977Z" stroke="black" stroke-width="2.7702"/>
<path d="M29.2379 51.2899C26.2519 49.8683 24.514 46.676 25.0961 43.4204C27.5947 29.4475 38.0074 18.9674 50.4733 18.9674C62.9693 18.9674 73.4026 29.4984 75.8682 43.522C76.4421 46.7835 74.6903 49.9743 71.6937 51.3844C65.2822 54.4015 58.1209 56.0881 50.5656 56.0881C42.9319 56.0881 35.7002 54.3663 29.2379 51.2899Z" fill="#FFDF6F" stroke="black" stroke-width="2.7702"/>
<path d="M34.5638 47.8159C32.1601 46.837 30.7343 44.2796 31.5672 41.8216C34.1357 34.2411 41.6283 28.7554 50.4712 28.7554C59.3141 28.7554 66.8067 34.2411 69.3752 41.8216C70.2081 44.2796 68.7823 46.837 66.3787 47.8159C61.4694 49.8153 56.099 50.917 50.4712 50.917C44.8434 50.917 39.473 49.8153 34.5638 47.8159Z" fill="black"/>
<path d="M61.4606 40.5749C61.4605 42.6148 59.3934 44.2685 56.8436 44.2685C54.2937 44.2685 52.2266 42.6148 52.2266 40.5749C52.2266 38.535 54.2937 36.8813 56.8436 36.8813C59.3934 36.8813 61.4606 38.535 61.4606 40.5749Z" fill="white"/>
<path d="M48.2457 40.5772C48.2457 42.6171 46.1786 44.2707 43.6287 44.2707C41.0788 44.2707 39.0117 42.6171 39.0117 40.5772C39.0117 38.5372 41.0788 36.8835 43.6287 36.8835C46.1786 36.8835 48.2457 38.5372 48.2457 40.5772Z" fill="white"/>
<path d="M97.7281 30.5425C98.9719 30.5425 100.067 30.2705 101.012 29.7263C101.958 29.1822 102.697 28.4113 103.228 27.4137C103.772 26.4161 104.044 25.2307 104.044 23.8574C104.044 22.6007 103.804 21.4865 103.325 20.5148C102.859 19.5302 102.159 18.7528 101.226 18.1828C100.306 17.6127 99.1662 17.3277 97.8059 17.3277H91.8203V30.5425H97.7281ZM97.631 20.1067C98.2269 20.1067 98.7257 20.2686 99.1273 20.5925C99.5419 20.9164 99.8529 21.3634 100.06 21.9335C100.28 22.4906 100.391 23.1319 100.391 23.8574C100.391 24.7254 100.261 25.4509 100.002 26.0339C99.7427 26.617 99.3929 27.051 98.9524 27.336C98.5249 27.621 98.0391 27.7635 97.4949 27.7635H95.3572V20.1067H97.631ZM112.036 30.8146C110.637 30.8146 109.426 30.5102 108.402 29.9012C107.379 29.2923 106.588 28.4696 106.031 27.4332C105.487 26.3967 105.215 25.2501 105.215 23.9934C105.215 22.6331 105.507 21.4347 106.09 20.3982C106.673 19.3488 107.476 18.5326 108.499 17.9496C109.536 17.3536 110.715 17.0556 112.036 17.0556C113.474 17.0556 114.699 17.3601 115.709 17.969C116.733 18.5779 117.517 19.3941 118.061 20.4176C118.605 21.4411 118.877 22.5877 118.877 23.8574C118.877 25.2177 118.585 26.4226 118.002 27.472C117.432 28.5214 116.629 29.3441 115.593 29.9401C114.569 30.5231 113.384 30.8146 112.036 30.8146ZM112.017 27.8607C112.626 27.8607 113.17 27.7117 113.649 27.4137C114.142 27.1158 114.53 26.6688 114.815 26.0728C115.1 25.4769 115.243 24.7384 115.243 23.8574C115.243 23.1189 115.113 22.4646 114.854 21.8946C114.608 21.3116 114.245 20.8517 113.766 20.5148C113.299 20.178 112.736 20.0095 112.075 20.0095C111.492 20.0095 110.954 20.178 110.462 20.5148C109.97 20.8387 109.575 21.2986 109.277 21.8946C108.992 22.4776 108.849 23.1707 108.849 23.974C108.849 24.7125 108.972 25.3797 109.218 25.9756C109.478 26.5587 109.84 27.0186 110.307 27.3554C110.786 27.6923 111.356 27.8607 112.017 27.8607ZM124.546 30.5425V23.5853L125.537 24.9457L129.618 30.5425H132.921V17.3277H129.385L129.443 24.4987L128.432 23.1578L124.293 17.3277H121.009V30.5425H124.546ZM142.666 25.1594H140.082L141.345 21.5642L142.666 25.1594ZM139.635 17.3277L134.679 30.5425H138.196L139.11 27.9384H143.677L144.629 30.7369L148.108 30.3871L143.171 17.3277H139.635ZM159.805 17.3277H148.495V20.1067H152.382V30.5425H155.919V20.1067H160.136L159.805 17.3277ZM171.565 30.5425L171.235 27.7635H165.424V25.2955H169.816L169.486 22.5165H165.424V20.1067H170.982L170.652 17.3277H161.888V30.5425H171.565ZM195.457 17.3277L191.667 30.5425H188.13L185.954 22.2444L183.913 30.5425H180.376L176.412 17.4832L179.89 17.1334L182.203 26.306L184.185 17.3277H187.703L189.957 26.306L191.939 17.3277H195.457ZM200.743 30.5425V17.3277H197.206V30.5425H200.743ZM213.798 17.3277H202.488V20.1067H206.375V30.5425H209.911V20.1067H214.129L213.798 17.3277ZM227.579 30.5425V17.3277H224.042V22.5942H219.417V17.2111L215.88 17.3277V30.5425H219.417V25.3732H224.042V30.5425H227.579Z" fill="black"/>
</svg>
