<svg width="241" height="112" viewBox="0 0 241 112" fill="none" xmlns="http://www.w3.org/2000/svg">
<mask id="path-1-outside-1_2003_16978" maskUnits="userSpaceOnUse" x="-0.191406" y="0.311157" width="242" height="111" fill="black">
<rect fill="white" x="-0.191406" y="0.311157" width="242" height="111"/>
<path d="M226.316 4.31116H14.9934C8.8162 4.31116 3.80859 9.31876 3.80859 15.496V86.1699C3.80859 92.3471 8.81621 97.3547 14.9934 97.3547H184.677L187.459 103.786C188.663 106.57 191.682 108.098 194.639 107.42C197.336 106.802 199.936 105.85 202.428 104.576C204.99 103.266 207.303 101.638 209.324 99.6763C210.077 98.9452 210.774 98.1715 211.406 97.3547H226.316C232.493 97.3547 237.501 92.3471 237.501 86.1699V15.496C237.501 9.31876 232.493 4.31116 226.316 4.31116Z"/>
</mask>
<path d="M226.316 4.31116H14.9934C8.8162 4.31116 3.80859 9.31876 3.80859 15.496V86.1699C3.80859 92.3471 8.81621 97.3547 14.9934 97.3547H184.677L187.459 103.786C188.663 106.57 191.682 108.098 194.639 107.42C197.336 106.802 199.936 105.85 202.428 104.576C204.99 103.266 207.303 101.638 209.324 99.6763C210.077 98.9452 210.774 98.1715 211.406 97.3547H226.316C232.493 97.3547 237.501 92.3471 237.501 86.1699V15.496C237.501 9.31876 232.493 4.31116 226.316 4.31116Z" fill="#F8C455"/>
<path d="M187.459 103.786L184.251 105.174L184.251 105.174L187.459 103.786ZM194.639 107.42L195.419 110.827L195.419 110.827L194.639 107.42ZM202.428 104.576L204.018 107.688L204.019 107.688L202.428 104.576ZM209.324 99.6763L211.758 102.184L211.758 102.184L209.324 99.6763ZM211.406 97.3547V93.8595C210.325 93.8595 209.304 94.3599 208.642 95.2149L211.406 97.3547ZM184.677 97.3547L187.885 95.967C187.331 94.6877 186.071 93.8595 184.677 93.8595V97.3547ZM14.9934 7.80641H226.316V0.815906H14.9934V7.80641ZM234.006 15.496V86.1699H240.996V15.496H234.006ZM7.30385 86.1699V15.496H0.313342V86.1699H7.30385ZM14.9934 93.8595C10.7466 93.8595 7.30385 90.4168 7.30385 86.1699H0.313342C0.313342 94.2775 6.88583 100.85 14.9934 100.85V93.8595ZM234.006 86.1699C234.006 90.4168 230.563 93.8595 226.316 93.8595V100.85C234.424 100.85 240.996 94.2775 240.996 86.1699H234.006ZM226.316 7.80641C230.563 7.80641 234.006 11.2491 234.006 15.496H240.996C240.996 7.38839 234.424 0.815906 226.316 0.815906V7.80641ZM14.9934 0.815906C6.88583 0.815906 0.313342 7.38839 0.313342 15.496H7.30385C7.30385 11.2491 10.7466 7.80641 14.9934 7.80641V0.815906ZM184.251 105.174C186.125 109.504 190.82 111.881 195.419 110.827L193.858 104.013C192.544 104.315 191.202 103.635 190.667 102.398L184.251 105.174ZM195.419 110.827C198.406 110.143 201.276 109.09 204.018 107.688L200.837 101.464C198.595 102.609 196.267 103.462 193.858 104.013L195.419 110.827ZM204.019 107.688C206.87 106.23 209.471 104.404 211.758 102.184L206.889 97.1682C205.134 98.8718 203.111 100.301 200.837 101.464L204.019 107.688ZM211.758 102.184C212.623 101.345 213.431 100.449 214.17 99.4946L208.642 95.2149C208.117 95.8938 207.531 96.5452 206.889 97.1684L211.758 102.184ZM226.316 93.8595H211.406V100.85H226.316V93.8595ZM184.677 93.8595H14.9934V100.85H184.677V93.8595ZM181.469 98.7425L184.251 105.174L190.667 102.398L187.885 95.967L181.469 98.7425Z" fill="black" mask="url(#path-1-outside-1_2003_16978)"/>
<path fill-rule="evenodd" clip-rule="evenodd" d="M98.7679 33.7973C96.1451 33.7973 93.7977 35.4241 92.877 37.8796L75.5175 84.1707C74.7933 86.1029 75.0624 88.2672 76.2375 89.9631C77.4126 91.6597 79.3448 92.6712 81.4084 92.6712H93.7299C96.4024 92.6712 98.7826 90.9837 99.6669 88.4622L101.39 83.5493H108.423L110.307 89.0872C111.25 91.8582 113.98 93.6135 116.892 93.3206L129.078 92.0952C129.114 92.091 129.151 92.0875 129.188 92.0833C129.996 92.4601 130.898 92.6712 131.848 92.6712H144.238C145.488 92.6712 146.654 92.3063 147.633 91.6771C148.612 92.3063 149.778 92.6712 151.029 92.6712H157.292C158.326 92.6712 159.333 92.4167 160.231 91.9428C160.646 92.1154 161.069 92.2734 161.497 92.4167C161.516 92.423 161.536 92.4293 161.555 92.4356C163.575 93.0871 165.655 93.4199 167.775 93.4199C172.054 93.4199 176.103 92.6132 179.731 90.7712C181.354 89.9582 182.825 88.9641 184.137 87.8009C183.774 88.2637 183.474 88.7782 183.25 89.3332C182.619 90.8942 182.641 92.6425 183.309 94.1874L187.461 103.786C188.666 106.57 191.684 108.098 194.641 107.42C197.339 106.802 199.938 105.85 202.43 104.576C204.993 103.266 207.305 101.638 209.326 99.6764C211.43 97.6344 213.093 95.2605 214.143 92.5426L214.152 92.5188L228.636 55.6645C229.397 53.7278 229.151 51.54 227.979 49.8204C226.807 48.1008 224.861 47.0719 222.78 47.0719H210.459C207.763 47.0719 205.367 48.7889 204.501 51.3412L204.131 52.4315L203.347 50.1179C202.269 46.9397 198.887 45.1667 195.66 46.0886L184.223 49.3562C183.657 49.5181 183.122 49.7568 182.631 50.0618C181.736 49.4292 180.781 48.8663 179.765 48.377C176.651 46.8749 173.266 46.1025 169.71 45.9451V38.3188C169.71 36.5843 168.994 34.9267 167.731 33.7378C166.467 32.5489 164.77 31.9341 163.039 32.0388L150.649 32.7876C149.774 32.8405 148.951 33.0702 148.211 33.4409C146.992 32.4475 145.439 31.9432 143.858 32.0388L131.468 32.7876C128.147 32.9883 125.556 35.7403 125.556 39.0676V60.3895L117.043 37.8643C116.118 35.4167 113.774 33.7973 111.157 33.7973H98.7679ZM189.188 81.011C188.978 81.45 188.753 81.882 188.513 82.3071C187.631 83.8981 186.581 85.3368 185.37 86.6104C185.768 86.3196 186.202 86.0743 186.663 85.882C187.673 85.4612 188.735 84.9942 189.851 84.4797C189.877 84.4671 189.905 84.4546 189.932 84.4427C190.106 84.3651 190.274 84.2875 190.436 84.2106L189.188 81.011Z" fill="#F8C455"/>
<path d="M98.7697 40.0887H111.159L128.45 85.8351L116.265 87.0606L112.929 77.2578H96.9312L93.7316 86.3797H81.4102L98.7697 40.0887ZM109.389 67.5228L104.76 54.929L100.336 67.5228H109.389Z" fill="black"/>
<path d="M144.238 86.3797H131.848V39.0676L144.238 38.3188V86.3797Z" fill="black"/>
<path d="M157.29 86.3797H151.027V39.0676L163.417 38.3188V53.091C164.188 52.8187 164.982 52.6145 165.8 52.4784C166.616 52.2968 167.456 52.2061 168.318 52.2061C171.586 52.2061 174.49 52.8187 177.032 54.0441C179.573 55.2695 181.57 57.1529 183.022 59.6943C184.52 62.2358 185.269 65.4807 185.269 69.4292C185.269 73.3319 184.52 76.5993 183.022 79.2319C181.57 81.8639 179.528 83.838 176.896 85.1543C174.309 86.4706 171.268 87.1284 167.774 87.1284C166.321 87.1284 164.892 86.9019 163.485 86.4475C162.123 85.9938 160.762 85.2675 159.401 84.2693L157.29 86.3797ZM166.412 61.7366C165.505 61.7366 164.506 62.077 163.417 62.7577V76.6447C164.642 77.2802 165.822 77.5983 166.957 77.5983C168.499 77.5983 169.793 76.8943 170.837 75.4878C171.926 74.0352 172.471 72.0387 172.471 69.497C172.471 66.9559 171.949 65.0269 170.905 63.7107C169.861 62.3946 168.364 61.7366 166.412 61.7366Z" fill="black"/>
<path d="M197.522 86.516L197.795 85.7673L185.949 55.4056L197.386 52.138L204.125 72.0156L210.457 53.3634H222.778L208.278 90.2601C207.597 92.0301 206.485 93.6638 204.942 95.1612C203.4 96.6593 201.607 97.9301 199.565 98.9738C197.522 100.017 195.412 100.789 193.233 101.288L189.081 91.6897C190.17 91.236 191.305 90.7362 192.485 90.1916C193.71 89.6471 194.799 89.0571 195.752 88.4216C196.706 87.7869 197.296 87.1515 197.522 86.516Z" fill="black"/>
<path d="M67.7632 84.6985C77.1577 84.6985 81.4331 63.9435 81.4331 56.0739C81.4331 49.94 77.1913 46.2226 71.6148 46.2226C66.0729 46.2226 61.5738 48.6003 61.518 51.5449C61.5179 59.3156 60.1471 84.6985 67.7632 84.6985Z" fill="white"/>
<path d="M33.5529 84.6985C24.1586 84.6985 19.8828 63.9435 19.8828 56.0739C19.8828 49.94 24.1247 46.2226 29.7013 46.2226C35.2432 46.2226 39.7423 48.6003 39.7982 51.5449C39.7983 59.3156 41.169 84.6985 33.5529 84.6985Z" fill="white"/>
<path d="M67.7632 84.6985C77.1577 84.6985 81.4331 63.9435 81.4331 56.0739C81.4331 49.94 77.1913 46.2226 71.6148 46.2226C66.0729 46.2226 61.5738 48.6003 61.518 51.5449C61.5179 59.3156 60.1471 84.6985 67.7632 84.6985Z" stroke="black" stroke-width="2.78434"/>
<path d="M33.5529 84.6985C24.1586 84.6985 19.8828 63.9435 19.8828 56.0739C19.8828 49.94 24.1247 46.2226 29.7013 46.2226C35.2432 46.2226 39.7423 48.6003 39.7982 51.5449C39.7983 59.3156 41.169 84.6985 33.5529 84.6985Z" stroke="black" stroke-width="2.78434"/>
<path d="M50.1971 59.849C58.9083 59.849 67.0685 57.4712 74.0594 53.3283C74.258 53.2104 74.4719 53.2252 74.6257 53.3116C74.6998 53.3533 74.7438 53.4033 74.7669 53.445C74.7865 53.4802 74.806 53.5341 74.7962 53.6284C73.7141 64.3412 67.9044 73.1963 60.0954 77.2725C57.5136 78.6195 55.7395 80.96 54.1815 83.0152C54.1534 83.0522 54.1253 83.0893 54.0974 83.1263C52.831 84.7957 51.6872 86.2895 50.2898 87.3905C48.8924 86.2895 47.7486 84.7957 46.4823 83.1263C46.4544 83.0893 46.4263 83.0522 46.3982 83.0152C44.8401 80.96 43.066 78.6195 40.4842 77.2725C32.7042 73.2117 26.9089 64.4068 25.7956 53.747C25.7858 53.6529 25.8049 53.5989 25.8242 53.5636C25.8471 53.5218 25.891 53.4716 25.9648 53.4296C26.1178 53.3427 26.3317 53.327 26.531 53.4438C33.4781 57.5154 41.5672 59.849 50.1971 59.849Z" fill="#FFDF6F" stroke="black" stroke-width="2.78434"/>
<path d="M50.3811 61.6126C63.9133 61.6126 74.8833 57.9559 74.8833 53.4452C74.8833 48.9345 63.9133 45.2778 50.3811 45.2778C36.8489 45.2778 25.8789 48.9345 25.8789 53.4452C25.8789 57.9559 36.8489 61.6126 50.3811 61.6126Z" fill="black" stroke="black" stroke-width="2.78434"/>
<path d="M30.7031 67.181C30.7031 67.181 42.7887 71.2648 50.5647 71.2648C58.3408 71.2648 70.4264 67.181 70.4264 67.181" stroke="black" stroke-width="2.78434" stroke-linecap="round"/>
<path d="M21.793 18.5198C21.793 21.5797 24.2735 24.0602 27.3334 24.0602C30.3932 24.0602 32.8738 21.5797 32.8738 18.5198C32.8738 15.4599 30.3932 12.9794 27.3334 12.9794C24.2735 12.9794 21.793 15.4599 21.793 18.5198Z" fill="black"/>
<path d="M78.1201 18.5198C78.1201 21.5797 75.6392 24.0602 72.5795 24.0602C69.5196 24.0602 67.0391 21.5797 67.0391 18.5198C67.0391 15.4599 69.5196 12.9794 72.5795 12.9794C75.6392 12.9794 78.1201 15.4599 78.1201 18.5198Z" fill="black"/>
<path d="M73.5958 17.6888L63.2537 28.0308M26.4102 17.6888L36.7523 28.0308L26.4102 17.6888Z" stroke="black" stroke-width="2.7702"/>
<path d="M28.9059 51.581C25.9198 50.1594 24.182 46.9671 24.7641 43.7115C27.2627 29.7386 37.6753 19.2585 50.1412 19.2585C62.6373 19.2585 73.0706 29.7895 75.5361 43.8131C76.11 47.0746 74.3582 50.2654 71.3617 51.6755C64.9502 54.6926 57.7888 56.3792 50.2336 56.3792C42.5999 56.3792 35.3682 54.6574 28.9059 51.581Z" fill="#FFDF6F" stroke="black" stroke-width="2.7702"/>
<path d="M34.2317 48.1071C31.8281 47.1282 30.4023 44.5708 31.2352 42.1128C33.8037 34.5323 41.2963 29.0466 50.1392 29.0466C58.9821 29.0466 66.4746 34.5323 69.0432 42.1128C69.8761 44.5708 68.4502 47.1282 66.0466 48.1071C61.1373 50.1066 55.7669 51.2082 50.1392 51.2082C44.5114 51.2082 39.141 50.1066 34.2317 48.1071Z" fill="black"/>
<path d="M61.1286 40.8661C61.1285 42.906 59.0614 44.5596 56.5116 44.5596C53.9616 44.5596 51.8945 42.906 51.8945 40.8661C51.8945 38.8262 53.9616 37.1725 56.5116 37.1725C59.0614 37.1725 61.1286 38.8262 61.1286 40.8661Z" fill="white"/>
<path d="M47.9137 40.8683C47.9137 42.9082 45.8466 44.5619 43.2967 44.5619C40.7468 44.5619 38.6797 42.9082 38.6797 40.8683C38.6797 38.8283 40.7468 37.1747 43.2967 37.1747C45.8466 37.1747 47.9137 38.8283 47.9137 40.8683Z" fill="white"/>
<path d="M95.0252 30.8337V26.9859H96.8908C97.6034 26.9859 98.29 26.8952 98.9508 26.7138C99.6245 26.5324 100.227 26.2539 100.758 25.8781C101.289 25.5024 101.71 25.0231 102.021 24.4401C102.332 23.857 102.488 23.1704 102.488 22.3801C102.488 21.3177 102.235 20.4367 101.73 19.7371C101.237 19.0246 100.577 18.4934 99.7476 18.1436C98.9313 17.7938 98.0309 17.6189 97.0463 17.6189H91.4883V30.8337H95.0252ZM96.9297 20.3979C97.3313 20.3979 97.6682 20.4821 97.9402 20.6505C98.2253 20.8189 98.4455 21.0521 98.601 21.3501C98.7564 21.6481 98.8342 21.9914 98.8342 22.3801C98.8342 22.7169 98.75 23.0279 98.5815 23.3129C98.4261 23.585 98.2058 23.8052 97.9208 23.9736C97.6487 24.1291 97.3313 24.2069 96.9686 24.2069H95.0252V20.3979H96.9297ZM111.058 25.4506H108.474L109.737 21.8554L111.058 25.4506ZM108.027 17.6189L103.071 30.8337H106.588L107.502 28.2296H112.069L113.021 31.028L116.5 30.6782L111.563 17.6189H108.027ZM124.622 30.8337V25.6644L129.208 17.6189H125.574L122.834 22.3801L120.269 17.3468L116.887 18.2796L121.085 25.6255V30.8337H124.622ZM152.917 17.6189L149.128 30.8337H145.591L143.414 22.5356L141.374 30.8337H137.837L133.873 17.7743L137.351 17.4245L139.664 26.5972L141.646 17.6189H145.163L147.418 26.5972L149.4 17.6189H152.917ZM158.203 30.8337V17.6189H154.666V30.8337H158.203ZM171.259 17.6189H159.948V20.3979H163.835V30.8337H167.372V20.3979H171.589L171.259 17.6189ZM185.04 30.8337V17.6189H181.503V22.8854H176.878V17.5023L173.341 17.6189V30.8337H176.878V25.6644H181.503V30.8337H185.04Z" fill="black"/>
</svg>
