<svg width="242" height="112" viewBox="0 0 242 112" fill="none" xmlns="http://www.w3.org/2000/svg">
<mask id="path-1-outside-1_2003_16807" maskUnits="userSpaceOnUse" x="0.148438" y="0.43779" width="242" height="111" fill="black">
<rect fill="white" x="0.148438" y="0.43779" width="242" height="111"/>
<path d="M226.656 4.43779H15.3332C9.15605 4.43779 4.14844 9.4454 4.14844 15.6226V86.2966C4.14844 92.4738 9.15605 97.4814 15.3332 97.4814H185.017L187.799 103.913C189.003 106.696 192.022 108.224 194.979 107.547C197.676 106.929 200.275 105.976 202.768 104.703C205.33 103.393 207.643 101.764 209.664 99.8029C210.417 99.0718 211.114 98.2981 211.746 97.4814H226.656C232.833 97.4814 237.841 92.4738 237.841 86.2966V15.6226C237.841 9.4454 232.833 4.43779 226.656 4.43779Z"/>
</mask>
<path d="M226.656 4.43779H15.3332C9.15605 4.43779 4.14844 9.4454 4.14844 15.6226V86.2966C4.14844 92.4738 9.15605 97.4814 15.3332 97.4814H185.017L187.799 103.913C189.003 106.696 192.022 108.224 194.979 107.547C197.676 106.929 200.275 105.976 202.768 104.703C205.33 103.393 207.643 101.764 209.664 99.8029C210.417 99.0718 211.114 98.2981 211.746 97.4814H226.656C232.833 97.4814 237.841 92.4738 237.841 86.2966V15.6226C237.841 9.4454 232.833 4.43779 226.656 4.43779Z" fill="white"/>
<path d="M187.799 103.913L184.591 105.3L184.591 105.301L187.799 103.913ZM194.979 107.547L195.759 110.954L195.759 110.954L194.979 107.547ZM202.768 104.703L204.358 107.815L204.358 107.815L202.768 104.703ZM209.664 99.8029L212.098 102.311L212.098 102.311L209.664 99.8029ZM211.746 97.4814V93.9861C210.665 93.9861 209.644 94.4866 208.982 95.3416L211.746 97.4814ZM185.017 97.4814L188.225 96.0936C187.671 94.8143 186.41 93.9861 185.017 93.9861V97.4814ZM15.3332 7.93304H226.656V0.942538H15.3332V7.93304ZM234.346 15.6226V86.2966H241.336V15.6226H234.346ZM7.64369 86.2966V15.6226H0.653186V86.2966H7.64369ZM15.3332 93.9861C11.0864 93.9861 7.64369 90.5434 7.64369 86.2966H0.653186C0.653186 94.4041 7.22568 100.977 15.3332 100.977V93.9861ZM234.346 86.2966C234.346 90.5434 230.903 93.9861 226.656 93.9861V100.977C234.764 100.977 241.336 94.4041 241.336 86.2966H234.346ZM226.656 7.93304C230.903 7.93304 234.346 11.3758 234.346 15.6226H241.336C241.336 7.51503 234.764 0.942538 226.656 0.942538V7.93304ZM15.3332 0.942538C7.22567 0.942538 0.653186 7.51502 0.653186 15.6226H7.64369C7.64369 11.3758 11.0864 7.93304 15.3332 7.93304V0.942538ZM184.591 105.301C186.464 109.631 191.16 112.008 195.759 110.954L194.198 104.14C192.883 104.441 191.542 103.762 191.007 102.525L184.591 105.301ZM195.759 110.954C198.745 110.27 201.616 109.216 204.358 107.815L201.177 101.59C198.935 102.736 196.607 103.588 194.198 104.14L195.759 110.954ZM204.358 107.815C207.21 106.357 209.811 104.53 212.098 102.311L207.229 97.2948C205.474 98.9985 203.45 100.428 201.177 101.59L204.358 107.815ZM212.098 102.311C212.962 101.472 213.77 100.576 214.51 99.6212L208.982 95.3416C208.457 96.0204 207.871 96.6718 207.229 97.295L212.098 102.311ZM226.656 93.9861H211.746V100.977H226.656V93.9861ZM185.017 93.9861H15.3332V100.977H185.017V93.9861ZM181.809 98.8691L184.591 105.3L191.007 102.525L188.225 96.0936L181.809 98.8691Z" fill="black" mask="url(#path-1-outside-1_2003_16807)"/>
<path fill-rule="evenodd" clip-rule="evenodd" d="M99.1 33.9238C96.4771 33.9238 94.1297 35.5506 93.2091 38.0062L75.8496 84.2973C75.1253 86.2295 75.3945 88.3937 76.5696 90.0896C77.7447 91.7862 79.6769 92.7977 81.7405 92.7977H94.0619C96.7344 92.7977 99.1146 91.1102 99.9989 88.5888L101.722 83.6758H108.755L110.639 89.2137C111.582 91.9847 114.312 93.7401 117.224 93.4472L129.41 92.2217C129.446 92.2175 129.483 92.214 129.52 92.2098C130.328 92.5866 131.23 92.7977 132.18 92.7977H144.57C145.82 92.7977 146.986 92.4328 147.965 91.8037C148.944 92.4328 150.11 92.7977 151.361 92.7977H157.624C158.658 92.7977 159.665 92.5433 160.563 92.0693C160.979 92.242 161.401 92.4 161.829 92.5433C161.848 92.5496 161.868 92.5559 161.887 92.5622C163.907 93.2137 165.987 93.5464 168.107 93.5464C172.386 93.5464 176.435 92.7397 180.063 90.8977C181.686 90.0847 183.157 89.0907 184.469 87.9275C184.106 88.3902 183.806 88.9047 183.582 89.4598C182.951 91.0208 182.973 92.7691 183.641 94.314L187.793 103.913C188.998 106.696 192.016 108.224 194.973 107.547C197.671 106.929 200.27 105.976 202.762 104.703C205.325 103.393 207.637 101.764 209.658 99.8029C211.762 97.761 213.425 95.387 214.475 92.6691L214.484 92.6453L228.968 55.7911C229.729 53.8544 229.483 51.6665 228.311 49.9469C227.139 48.2274 225.193 47.1984 223.112 47.1984H210.791C208.095 47.1984 205.7 48.9154 204.833 51.4678L204.463 52.558L203.679 50.2445C202.601 47.0662 199.219 45.2932 195.992 46.2152L184.555 49.4828C183.989 49.6446 183.454 49.8833 182.963 50.1883C182.068 49.5558 181.113 48.9929 180.098 48.5035C176.983 47.0015 173.598 46.229 170.042 46.0716V38.4453C170.042 36.7108 169.326 35.0533 168.063 33.8644C166.799 32.6754 165.102 32.0607 163.371 32.1653L150.981 32.9142C150.106 32.967 149.283 33.1968 148.543 33.5674C147.324 32.574 145.771 32.0698 144.19 32.1653L131.8 32.9142C128.479 33.1149 125.888 35.8669 125.888 39.1942V60.5161L117.375 37.9909C116.45 35.5433 114.106 33.9238 111.489 33.9238H99.1ZM189.52 81.1376C189.31 81.5766 189.085 82.0086 188.845 82.4336C187.963 84.0247 186.913 85.4633 185.703 86.737C186.1 86.4462 186.534 86.2008 186.995 86.0086C188.005 85.5877 189.067 85.1208 190.183 84.6063C190.209 84.5937 190.237 84.5811 190.264 84.5692C190.438 84.4916 190.606 84.414 190.768 84.3371L189.52 81.1376Z" fill="white"/>
<path d="M99.1017 40.2153H111.491L128.782 85.9617L116.597 87.1872L113.261 77.3844H97.2632L94.0636 86.5063H81.7422L99.1017 40.2153ZM109.721 67.6494L105.092 55.0556L100.668 67.6494H109.721Z" fill="black"/>
<path d="M144.57 86.5063H132.18V39.1942L144.57 38.4453V86.5063Z" fill="black"/>
<path d="M157.622 86.5063H151.359V39.1942L163.749 38.4453V53.2176C164.52 52.9453 165.315 52.7411 166.132 52.6049C166.948 52.4234 167.788 52.3327 168.65 52.3327C171.918 52.3327 174.822 52.9453 177.364 54.1707C179.905 55.396 181.902 57.2794 183.354 59.8209C184.852 62.3624 185.601 65.6073 185.601 69.5557C185.601 73.4585 184.852 76.7259 183.354 79.3585C181.902 81.9904 179.86 83.9645 177.228 85.2809C174.641 86.5972 171.6 87.255 168.106 87.255C166.653 87.255 165.224 87.0285 163.817 86.5741C162.455 86.1204 161.094 85.3941 159.733 84.3959L157.622 86.5063ZM166.744 61.8632C165.837 61.8632 164.838 62.2035 163.749 62.8843V76.7713C164.974 77.4068 166.154 77.7248 167.289 77.7248C168.831 77.7248 170.125 77.0209 171.169 75.6144C172.258 74.1618 172.803 72.1653 172.803 69.6235C172.803 67.0825 172.281 65.1535 171.237 63.8373C170.193 62.5212 168.696 61.8632 166.744 61.8632Z" fill="black"/>
<path d="M197.854 86.6426L198.127 85.8939L186.281 55.5321L197.718 52.2646L204.457 72.1422L210.789 53.4899H223.11L208.61 90.3867C207.929 92.1567 206.817 93.7904 205.274 95.2878C203.732 96.7858 201.939 98.0567 199.897 99.1004C197.854 100.144 195.744 100.916 193.565 101.415L189.413 91.8163C190.502 91.3626 191.637 90.8628 192.817 90.3182C194.042 89.7736 195.131 89.1836 196.084 88.5482C197.038 87.9135 197.628 87.278 197.854 86.6426Z" fill="black"/>
<path d="M68.0953 84.8251C77.4897 84.8251 81.7651 64.0701 81.7651 56.2004C81.7651 50.0665 77.5233 46.3491 71.9468 46.3491C66.405 46.3491 61.9059 48.7269 61.85 51.6714C61.8499 59.4422 60.4791 84.8251 68.0953 84.8251Z" fill="white"/>
<path d="M33.8849 84.8251C24.4907 84.8251 20.2148 64.0701 20.2148 56.2004C20.2148 50.0665 24.4567 46.3491 30.0334 46.3491C35.5752 46.3491 40.0743 48.7269 40.1302 51.6714C40.1304 59.4422 41.5011 84.8251 33.8849 84.8251Z" fill="white"/>
<path d="M68.0953 84.8251C77.4897 84.8251 81.7651 64.0701 81.7651 56.2004C81.7651 50.0665 77.5233 46.3491 71.9468 46.3491C66.405 46.3491 61.9059 48.7269 61.85 51.6714C61.8499 59.4422 60.4791 84.8251 68.0953 84.8251Z" stroke="black" stroke-width="2.78434"/>
<path d="M33.8849 84.8251C24.4907 84.8251 20.2148 64.0701 20.2148 56.2004C20.2148 50.0665 24.4567 46.3491 30.0334 46.3491C35.5752 46.3491 40.0743 48.7269 40.1302 51.6714C40.1304 59.4422 41.5011 84.8251 33.8849 84.8251Z" stroke="black" stroke-width="2.78434"/>
<path d="M50.5291 59.9756C59.2403 59.9756 67.4005 57.5978 74.3915 53.4549C74.59 53.337 74.8039 53.3517 74.9577 53.4381C75.0318 53.4799 75.0758 53.5299 75.0989 53.5716C75.1185 53.6068 75.1381 53.6607 75.1283 53.755C74.0461 64.4678 68.2364 73.3229 60.4274 77.3991C57.8456 78.7461 56.0715 81.0866 54.5135 83.1418C54.4854 83.1788 54.4574 83.2159 54.4294 83.2529C53.1631 84.9222 52.0193 86.4161 50.6218 87.5171C49.2244 86.4161 48.0806 84.9222 46.8144 83.2529C46.7864 83.2159 46.7584 83.1788 46.7303 83.1418C45.1722 81.0866 43.398 78.7461 40.8162 77.3991C33.0362 73.3383 27.2409 64.5334 26.1276 53.8736C26.1179 53.7795 26.1369 53.7255 26.1562 53.6901C26.1792 53.6483 26.223 53.5982 26.2968 53.5562C26.4498 53.4693 26.6637 53.4536 26.863 53.5704C33.8101 57.642 41.8992 59.9756 50.5291 59.9756Z" fill="#FFDF6F" stroke="black" stroke-width="2.78434"/>
<path d="M50.7131 61.7392C64.2453 61.7392 75.2153 58.0825 75.2153 53.5718C75.2153 49.061 64.2453 45.4044 50.7131 45.4044C37.1809 45.4044 26.2109 49.061 26.2109 53.5718C26.2109 58.0825 37.1809 61.7392 50.7131 61.7392Z" fill="black" stroke="black" stroke-width="2.78434"/>
<path d="M31.0352 67.3076C31.0352 67.3076 43.1208 71.3914 50.8968 71.3914C58.6728 71.3914 70.7584 67.3076 70.7584 67.3076" stroke="black" stroke-width="2.78434" stroke-linecap="round"/>
<path d="M22.125 18.6464C22.125 21.7063 24.6055 24.1868 27.6654 24.1868C30.7253 24.1868 33.2058 21.7063 33.2058 18.6464C33.2058 15.5865 30.7253 13.106 27.6654 13.106C24.6055 13.106 22.125 15.5865 22.125 18.6464Z" fill="black"/>
<path d="M78.4522 18.6464C78.4522 21.7063 75.9712 24.1868 72.9115 24.1868C69.8516 24.1868 67.3711 21.7063 67.3711 18.6464C67.3711 15.5865 69.8516 13.106 72.9115 13.106C75.9712 13.106 78.4522 15.5865 78.4522 18.6464Z" fill="black"/>
<path d="M73.9279 17.8154L63.5858 28.1574M26.7422 17.8154L37.0843 28.1574L26.7422 17.8154Z" stroke="black" stroke-width="2.7702"/>
<path d="M29.2379 51.7076C26.2519 50.286 24.514 47.0937 25.0961 43.8381C27.5947 29.8652 38.0074 19.3851 50.4733 19.3851C62.9693 19.3851 73.4026 29.9161 75.8682 43.9397C76.4421 47.2012 74.6903 50.392 71.6937 51.8021C65.2822 54.8192 58.1209 56.5058 50.5656 56.5058C42.9319 56.5058 35.7002 54.784 29.2379 51.7076Z" fill="#FFDF6F" stroke="black" stroke-width="2.7702"/>
<path d="M34.5638 48.2337C32.1601 47.2548 30.7343 44.6974 31.5672 42.2394C34.1357 34.6589 41.6283 29.1732 50.4712 29.1732C59.3141 29.1732 66.8067 34.6589 69.3752 42.2394C70.2081 44.6974 68.7823 47.2548 66.3787 48.2337C61.4694 50.2331 56.099 51.3348 50.4712 51.3348C44.8434 51.3348 39.473 50.2331 34.5638 48.2337Z" fill="black"/>
<path d="M61.4606 40.9927C61.4605 43.0326 59.3934 44.6862 56.8436 44.6862C54.2937 44.6862 52.2266 43.0326 52.2266 40.9927C52.2266 38.9528 54.2937 37.2991 56.8436 37.2991C59.3934 37.2991 61.4606 38.9528 61.4606 40.9927Z" fill="white"/>
<path d="M48.2457 40.9949C48.2457 43.0348 46.1786 44.6885 43.6287 44.6885C41.0788 44.6885 39.0117 43.0348 39.0117 40.9949C39.0117 38.9549 41.0788 37.3013 43.6287 37.3013C46.1786 37.3013 48.2457 38.9549 48.2457 40.9949Z" fill="white"/>
<path d="M95.3572 30.9603V27.1124H97.2229C97.9354 27.1124 98.6221 27.0217 99.2828 26.8404C99.9565 26.659 100.559 26.3804 101.09 26.0047C101.621 25.629 102.042 25.1496 102.353 24.5666C102.664 23.9836 102.82 23.297 102.82 22.5067C102.82 21.4443 102.567 20.5633 102.062 19.8637C101.57 19.1511 100.909 18.62 100.08 18.2701C99.2634 17.9203 98.363 17.7454 97.3783 17.7454H91.8203V30.9603H95.3572ZM97.2617 20.5244C97.6633 20.5244 98.0002 20.6087 98.2723 20.7771C98.5573 20.9455 98.7775 21.1787 98.933 21.4767C99.0885 21.7747 99.1662 22.118 99.1662 22.5067C99.1662 22.8435 99.082 23.1545 98.9136 23.4395C98.7581 23.7116 98.5379 23.9318 98.2528 24.1002C97.9808 24.2557 97.6633 24.3334 97.3006 24.3334H95.3572V20.5244H97.2617ZM110.613 31.2324C109.214 31.2324 108.002 30.9279 106.979 30.319C105.955 29.7101 105.165 28.8874 104.608 27.8509C104.064 26.8145 103.792 25.6679 103.792 24.4112C103.792 23.0508 104.083 21.8524 104.666 20.816C105.249 19.7665 106.052 18.9503 107.076 18.3673C108.112 17.7714 109.291 17.4734 110.613 17.4734C112.051 17.4734 113.275 17.7778 114.286 18.3868C115.309 18.9957 116.093 19.8119 116.637 20.8354C117.181 21.8589 117.454 23.0055 117.454 24.2751C117.454 25.6355 117.162 26.8404 116.579 27.8898C116.009 28.9392 115.206 29.7619 114.169 30.3578C113.146 30.9409 111.96 31.2324 110.613 31.2324ZM110.593 28.2785C111.202 28.2785 111.747 28.1295 112.226 27.8315C112.718 27.5335 113.107 27.0865 113.392 26.4906C113.677 25.8946 113.819 25.1561 113.819 24.2751C113.819 23.5367 113.69 22.8824 113.431 22.3123C113.185 21.7293 112.822 21.2694 112.342 20.9326C111.876 20.5957 111.313 20.4273 110.652 20.4273C110.069 20.4273 109.531 20.5957 109.039 20.9326C108.546 21.2564 108.151 21.7164 107.853 22.3123C107.568 22.8953 107.426 23.5885 107.426 24.3917C107.426 25.1302 107.549 25.7974 107.795 26.3934C108.054 26.9764 108.417 27.4363 108.883 27.7732C109.363 28.11 109.933 28.2785 110.593 28.2785ZM137.27 17.7454L133.48 30.9603H129.943L127.767 22.6621L125.726 30.9603H122.189L118.225 17.9009L121.704 17.5511L124.016 26.7238L125.998 17.7454H129.516L131.77 26.7238L133.752 17.7454H137.27ZM148.697 30.9603L148.366 28.1813H142.556V25.7132H146.948L146.617 22.9342H142.556V20.5244H148.114L147.783 17.7454H139.019V30.9603H148.697ZM156.075 20.5244C156.477 20.5244 156.813 20.5892 157.085 20.7188C157.37 20.8354 157.591 21.0232 157.746 21.2824C157.902 21.5415 157.979 21.8654 157.979 22.254C157.979 22.5909 157.895 22.8953 157.727 23.1674C157.571 23.4395 157.351 23.6533 157.066 23.8087C156.794 23.9512 156.477 24.0225 156.114 24.0225H154.17V20.5244H156.075ZM150.634 17.7454V30.9603H154.17V26.8015H155.356C155.55 26.8015 155.745 26.8015 155.939 26.8015C156.133 26.8015 156.328 26.8015 156.522 26.8015L158.66 30.9603H162.76L159.845 25.7521C160.376 25.3893 160.804 24.9164 161.128 24.3334C161.465 23.7504 161.633 23.0573 161.633 22.254C161.633 21.1917 161.38 20.3301 160.875 19.6694C160.383 19.0086 159.722 18.5228 158.893 18.2118C158.077 17.9009 157.176 17.7454 156.192 17.7454H150.634ZM174.184 30.9603L173.854 28.1813H168.043V25.7132H172.435L172.105 22.9342H168.043V20.5244H173.601L173.271 17.7454H164.507V30.9603H174.184ZM182.029 30.9603C183.273 30.9603 184.367 30.6882 185.313 30.1441C186.259 29.5999 186.997 28.8291 187.529 27.8315C188.073 26.8339 188.345 25.6484 188.345 24.2751C188.345 23.0184 188.105 21.9042 187.626 20.9326C187.159 19.9479 186.46 19.1706 185.527 18.6005C184.607 18.0305 183.467 17.7454 182.107 17.7454H176.121V30.9603H182.029ZM181.932 20.5244C182.528 20.5244 183.027 20.6864 183.428 21.0103C183.843 21.3342 184.154 21.7812 184.361 22.3512C184.581 22.9083 184.691 23.5496 184.691 24.2751C184.691 25.1432 184.562 25.8687 184.303 26.4517C184.044 27.0347 183.694 27.4687 183.253 27.7537C182.826 28.0388 182.34 28.1813 181.796 28.1813H179.658V20.5244H181.932ZM199.752 30.9603C200.465 30.9603 201.151 30.8955 201.812 30.766C202.486 30.6364 203.088 30.4226 203.619 30.1246C204.151 29.8267 204.572 29.425 204.883 28.9198C205.193 28.4015 205.349 27.7667 205.349 27.0153C205.349 26.3804 205.181 25.8039 204.844 25.2857C204.52 24.7545 204.099 24.3075 203.581 23.9448C203.878 23.6468 204.157 23.3035 204.416 22.9148C204.675 22.5261 204.805 22.0727 204.805 21.5544C204.805 20.6475 204.552 19.9155 204.047 19.3584C203.542 18.8013 202.874 18.3932 202.045 18.1341C201.229 17.875 200.335 17.7454 199.363 17.7454H194.758V30.9603H199.752ZM199.247 20.5244C199.648 20.5244 199.985 20.5698 200.257 20.6605C200.542 20.7512 200.763 20.8872 200.918 21.0686C201.074 21.237 201.151 21.4573 201.151 21.7293C201.151 21.9625 201.054 22.1569 200.86 22.3123C200.665 22.4549 200.413 22.565 200.102 22.6427C199.791 22.7204 199.454 22.7593 199.091 22.7593H198.295V20.5244H199.247ZM199.791 25.5383C200.387 25.5383 200.853 25.6614 201.19 25.9076C201.527 26.1537 201.695 26.497 201.695 26.9375C201.695 27.2096 201.611 27.4428 201.443 27.6371C201.287 27.8185 201.067 27.9546 200.782 28.0452C200.51 28.1359 200.193 28.1813 199.83 28.1813H198.295V25.5383H199.791ZM213.657 30.9603V25.791L218.244 17.7454H214.61L211.87 22.5067L209.304 17.4734L205.923 18.4062L210.121 25.7521V30.9603H213.657Z" fill="black"/>
</svg>
