<svg width="241" height="112" viewBox="0 0 241 112" fill="none" xmlns="http://www.w3.org/2000/svg">
<mask id="path-1-outside-1_2003_16831" maskUnits="userSpaceOnUse" x="-0.191406" y="0.43779" width="242" height="111" fill="black">
<rect fill="white" x="-0.191406" y="0.43779" width="242" height="111"/>
<path d="M226.316 4.43779H14.9934C8.8162 4.43779 3.80859 9.4454 3.80859 15.6226V86.2966C3.80859 92.4738 8.81621 97.4814 14.9934 97.4814H184.677L187.459 103.913C188.663 106.696 191.682 108.224 194.639 107.547C197.336 106.929 199.936 105.976 202.428 104.703C204.99 103.393 207.303 101.764 209.324 99.8029C210.077 99.0718 210.774 98.2981 211.406 97.4814H226.316C232.493 97.4814 237.501 92.4738 237.501 86.2966V15.6226C237.501 9.4454 232.493 4.43779 226.316 4.43779Z"/>
</mask>
<path d="M226.316 4.43779H14.9934C8.8162 4.43779 3.80859 9.4454 3.80859 15.6226V86.2966C3.80859 92.4738 8.81621 97.4814 14.9934 97.4814H184.677L187.459 103.913C188.663 106.696 191.682 108.224 194.639 107.547C197.336 106.929 199.936 105.976 202.428 104.703C204.99 103.393 207.303 101.764 209.324 99.8029C210.077 99.0718 210.774 98.2981 211.406 97.4814H226.316C232.493 97.4814 237.501 92.4738 237.501 86.2966V15.6226C237.501 9.4454 232.493 4.43779 226.316 4.43779Z" fill="#F8C455"/>
<path d="M187.459 103.913L184.251 105.3L184.251 105.301L187.459 103.913ZM194.639 107.547L195.419 110.954L195.419 110.954L194.639 107.547ZM202.428 104.703L204.018 107.815L204.019 107.815L202.428 104.703ZM209.324 99.8029L211.758 102.311L211.758 102.311L209.324 99.8029ZM211.406 97.4814V93.9861C210.325 93.9861 209.304 94.4866 208.642 95.3416L211.406 97.4814ZM184.677 97.4814L187.885 96.0936C187.331 94.8143 186.071 93.9861 184.677 93.9861V97.4814ZM14.9934 7.93304H226.316V0.942538H14.9934V7.93304ZM234.006 15.6226V86.2966H240.996V15.6226H234.006ZM7.30385 86.2966V15.6226H0.313342V86.2966H7.30385ZM14.9934 93.9861C10.7466 93.9861 7.30385 90.5434 7.30385 86.2966H0.313342C0.313342 94.4041 6.88583 100.977 14.9934 100.977V93.9861ZM234.006 86.2966C234.006 90.5434 230.563 93.9861 226.316 93.9861V100.977C234.424 100.977 240.996 94.4041 240.996 86.2966H234.006ZM226.316 7.93304C230.563 7.93304 234.006 11.3758 234.006 15.6226H240.996C240.996 7.51503 234.424 0.942538 226.316 0.942538V7.93304ZM14.9934 0.942538C6.88583 0.942538 0.313342 7.51502 0.313342 15.6226H7.30385C7.30385 11.3758 10.7466 7.93304 14.9934 7.93304V0.942538ZM184.251 105.301C186.125 109.631 190.82 112.008 195.419 110.954L193.858 104.14C192.544 104.441 191.202 103.762 190.667 102.525L184.251 105.301ZM195.419 110.954C198.406 110.27 201.276 109.216 204.018 107.815L200.837 101.59C198.595 102.736 196.267 103.588 193.858 104.14L195.419 110.954ZM204.019 107.815C206.87 106.357 209.471 104.53 211.758 102.311L206.889 97.2948C205.134 98.9985 203.111 100.428 200.837 101.59L204.019 107.815ZM211.758 102.311C212.623 101.472 213.431 100.576 214.17 99.6212L208.642 95.3416C208.117 96.0204 207.531 96.6718 206.889 97.295L211.758 102.311ZM226.316 93.9861H211.406V100.977H226.316V93.9861ZM184.677 93.9861H14.9934V100.977H184.677V93.9861ZM181.469 98.8691L184.251 105.3L190.667 102.525L187.885 96.0936L181.469 98.8691Z" fill="black" mask="url(#path-1-outside-1_2003_16831)"/>
<path fill-rule="evenodd" clip-rule="evenodd" d="M98.7679 33.9238C96.1451 33.9238 93.7977 35.5506 92.877 38.0062L75.5175 84.2973C74.7933 86.2295 75.0624 88.3937 76.2375 90.0896C77.4126 91.7862 79.3448 92.7977 81.4084 92.7977H93.7299C96.4024 92.7977 98.7826 91.1102 99.6669 88.5888L101.39 83.6758H108.423L110.307 89.2137C111.25 91.9847 113.98 93.7401 116.892 93.4472L129.078 92.2217C129.114 92.2175 129.151 92.214 129.188 92.2098C129.996 92.5866 130.898 92.7977 131.848 92.7977H144.238C145.488 92.7977 146.654 92.4328 147.633 91.8037C148.612 92.4328 149.778 92.7977 151.029 92.7977H157.292C158.326 92.7977 159.333 92.5433 160.231 92.0693C160.646 92.242 161.069 92.4 161.497 92.5433C161.516 92.5496 161.536 92.5559 161.555 92.5622C163.575 93.2137 165.655 93.5464 167.775 93.5464C172.054 93.5464 176.103 92.7397 179.731 90.8977C181.354 90.0847 182.825 89.0907 184.137 87.9275C183.774 88.3902 183.474 88.9047 183.25 89.4598C182.619 91.0208 182.641 92.7691 183.309 94.314L187.461 103.913C188.666 106.696 191.684 108.224 194.641 107.547C197.339 106.929 199.938 105.976 202.43 104.703C204.993 103.393 207.305 101.764 209.326 99.8029C211.43 97.761 213.093 95.387 214.143 92.6691L214.152 92.6453L228.636 55.7911C229.397 53.8544 229.151 51.6665 227.979 49.9469C226.807 48.2274 224.861 47.1984 222.78 47.1984H210.459C207.763 47.1984 205.367 48.9154 204.501 51.4678L204.131 52.558L203.347 50.2445C202.269 47.0662 198.887 45.2932 195.66 46.2152L184.223 49.4828C183.657 49.6446 183.122 49.8833 182.631 50.1883C181.736 49.5558 180.781 48.9929 179.765 48.5035C176.651 47.0015 173.266 46.229 169.71 46.0716V38.4453C169.71 36.7108 168.994 35.0533 167.731 33.8644C166.467 32.6754 164.77 32.0607 163.039 32.1653L150.649 32.9142C149.774 32.967 148.951 33.1968 148.211 33.5674C146.992 32.574 145.439 32.0698 143.858 32.1653L131.468 32.9142C128.147 33.1149 125.556 35.8669 125.556 39.1942V60.5161L117.043 37.9909C116.118 35.5433 113.774 33.9238 111.157 33.9238H98.7679ZM189.188 81.1376C188.978 81.5766 188.753 82.0086 188.513 82.4336C187.631 84.0247 186.581 85.4633 185.37 86.737C185.768 86.4462 186.202 86.2008 186.663 86.0086C187.673 85.5877 188.735 85.1208 189.851 84.6063C189.877 84.5937 189.905 84.5811 189.932 84.5692C190.106 84.4916 190.274 84.414 190.436 84.3371L189.188 81.1376Z" fill="#F8C455"/>
<path d="M98.7697 40.2153H111.159L128.45 85.9617L116.265 87.1872L112.929 77.3844H96.9312L93.7316 86.5063H81.4102L98.7697 40.2153ZM109.389 67.6494L104.76 55.0556L100.336 67.6494H109.389Z" fill="black"/>
<path d="M144.238 86.5063H131.848V39.1941L144.238 38.4453V86.5063Z" fill="black"/>
<path d="M157.29 86.5063H151.027V39.1941L163.417 38.4453V53.2176C164.188 52.9453 164.982 52.7411 165.8 52.6049C166.616 52.4234 167.456 52.3327 168.318 52.3327C171.586 52.3327 174.49 52.9453 177.032 54.1707C179.573 55.396 181.57 57.2794 183.022 59.8209C184.52 62.3624 185.269 65.6073 185.269 69.5557C185.269 73.4585 184.52 76.7259 183.022 79.3585C181.57 81.9904 179.528 83.9645 176.896 85.2809C174.309 86.5972 171.268 87.255 167.774 87.255C166.321 87.255 164.892 87.0285 163.485 86.5741C162.123 86.1204 160.762 85.3941 159.401 84.3959L157.29 86.5063ZM166.412 61.8632C165.505 61.8632 164.506 62.2035 163.417 62.8843V76.7713C164.642 77.4068 165.822 77.7248 166.957 77.7248C168.499 77.7248 169.793 77.0209 170.837 75.6144C171.926 74.1618 172.471 72.1653 172.471 69.6235C172.471 67.0825 171.949 65.1535 170.905 63.8373C169.861 62.5212 168.364 61.8632 166.412 61.8632Z" fill="black"/>
<path d="M197.522 86.6426L197.795 85.8939L185.949 55.5321L197.386 52.2646L204.125 72.1422L210.457 53.4899H222.778L208.278 90.3867C207.597 92.1567 206.485 93.7904 204.942 95.2878C203.4 96.7858 201.607 98.0567 199.565 99.1004C197.522 100.144 195.412 100.916 193.233 101.415L189.081 91.8163C190.17 91.3626 191.305 90.8628 192.485 90.3182C193.71 89.7736 194.799 89.1836 195.752 88.5482C196.706 87.9135 197.296 87.278 197.522 86.6426Z" fill="black"/>
<path d="M67.7632 84.8251C77.1577 84.8251 81.4331 64.0701 81.4331 56.2004C81.4331 50.0665 77.1913 46.3491 71.6148 46.3491C66.0729 46.3491 61.5738 48.7269 61.518 51.6714C61.5179 59.4422 60.1471 84.8251 67.7632 84.8251Z" fill="white"/>
<path d="M33.5529 84.8251C24.1586 84.8251 19.8828 64.0701 19.8828 56.2004C19.8828 50.0665 24.1247 46.3491 29.7013 46.3491C35.2432 46.3491 39.7423 48.7269 39.7982 51.6714C39.7983 59.4422 41.169 84.8251 33.5529 84.8251Z" fill="white"/>
<path d="M67.7632 84.8251C77.1577 84.8251 81.4331 64.0701 81.4331 56.2004C81.4331 50.0665 77.1913 46.3491 71.6148 46.3491C66.0729 46.3491 61.5738 48.7269 61.518 51.6714C61.5179 59.4422 60.1471 84.8251 67.7632 84.8251Z" stroke="black" stroke-width="2.78434"/>
<path d="M33.5529 84.8251C24.1586 84.8251 19.8828 64.0701 19.8828 56.2004C19.8828 50.0665 24.1247 46.3491 29.7013 46.3491C35.2432 46.3491 39.7423 48.7269 39.7982 51.6714C39.7983 59.4422 41.169 84.8251 33.5529 84.8251Z" stroke="black" stroke-width="2.78434"/>
<path d="M50.1971 59.9756C58.9083 59.9756 67.0685 57.5978 74.0594 53.4549C74.258 53.337 74.4719 53.3517 74.6257 53.4381C74.6998 53.4799 74.7438 53.5299 74.7669 53.5716C74.7865 53.6068 74.806 53.6607 74.7962 53.755C73.7141 64.4678 67.9044 73.3229 60.0954 77.3991C57.5136 78.7461 55.7395 81.0866 54.1815 83.1418C54.1534 83.1788 54.1253 83.2159 54.0974 83.2529C52.831 84.9222 51.6872 86.4161 50.2898 87.5171C48.8924 86.4161 47.7486 84.9222 46.4823 83.2529C46.4544 83.2159 46.4263 83.1788 46.3982 83.1418C44.8401 81.0866 43.066 78.7461 40.4842 77.3991C32.7042 73.3383 26.9089 64.5334 25.7956 53.8736C25.7858 53.7795 25.8049 53.7255 25.8242 53.6901C25.8471 53.6483 25.891 53.5982 25.9648 53.5562C26.1178 53.4693 26.3317 53.4536 26.531 53.5704C33.4781 57.642 41.5672 59.9756 50.1971 59.9756Z" fill="#FFDF6F" stroke="black" stroke-width="2.78434"/>
<path d="M50.3811 61.7392C63.9133 61.7392 74.8833 58.0825 74.8833 53.5718C74.8833 49.061 63.9133 45.4044 50.3811 45.4044C36.8489 45.4044 25.8789 49.061 25.8789 53.5718C25.8789 58.0825 36.8489 61.7392 50.3811 61.7392Z" fill="black" stroke="black" stroke-width="2.78434"/>
<path d="M30.7031 67.3076C30.7031 67.3076 42.7887 71.3914 50.5647 71.3914C58.3408 71.3914 70.4264 67.3076 70.4264 67.3076" stroke="black" stroke-width="2.78434" stroke-linecap="round"/>
<path d="M21.793 18.6464C21.793 21.7063 24.2735 24.1868 27.3334 24.1868C30.3932 24.1868 32.8738 21.7063 32.8738 18.6464C32.8738 15.5865 30.3932 13.106 27.3334 13.106C24.2735 13.106 21.793 15.5865 21.793 18.6464Z" fill="black"/>
<path d="M78.1201 18.6464C78.1201 21.7063 75.6392 24.1868 72.5795 24.1868C69.5196 24.1868 67.0391 21.7063 67.0391 18.6464C67.0391 15.5865 69.5196 13.106 72.5795 13.106C75.6392 13.106 78.1201 15.5865 78.1201 18.6464Z" fill="black"/>
<path d="M73.5958 17.8154L63.2537 28.1574M26.4102 17.8154L36.7523 28.1574L26.4102 17.8154Z" stroke="black" stroke-width="2.7702"/>
<path d="M28.9059 51.7076C25.9198 50.286 24.182 47.0937 24.7641 43.8381C27.2627 29.8652 37.6753 19.3851 50.1412 19.3851C62.6373 19.3851 73.0706 29.9161 75.5361 43.9397C76.11 47.2012 74.3582 50.392 71.3617 51.8021C64.9502 54.8192 57.7888 56.5058 50.2336 56.5058C42.5999 56.5058 35.3682 54.784 28.9059 51.7076Z" fill="#FFDF6F" stroke="black" stroke-width="2.7702"/>
<path d="M34.2317 48.2337C31.8281 47.2548 30.4023 44.6974 31.2352 42.2394C33.8037 34.6589 41.2963 29.1732 50.1392 29.1732C58.9821 29.1732 66.4746 34.6589 69.0432 42.2394C69.8761 44.6974 68.4502 47.2548 66.0466 48.2337C61.1373 50.2331 55.7669 51.3348 50.1392 51.3348C44.5114 51.3348 39.141 50.2331 34.2317 48.2337Z" fill="black"/>
<path d="M61.1286 40.9927C61.1285 43.0326 59.0614 44.6862 56.5116 44.6862C53.9616 44.6862 51.8945 43.0326 51.8945 40.9927C51.8945 38.9528 53.9616 37.2991 56.5116 37.2991C59.0614 37.2991 61.1286 38.9528 61.1286 40.9927Z" fill="white"/>
<path d="M47.9137 40.9949C47.9137 43.0348 45.8466 44.6885 43.2967 44.6885C40.7468 44.6885 38.6797 43.0348 38.6797 40.9949C38.6797 38.9549 40.7468 37.3013 43.2967 37.3013C45.8466 37.3013 47.9137 38.9549 47.9137 40.9949Z" fill="white"/>
<path d="M95.0252 30.9603V27.1124H96.8908C97.6034 27.1124 98.29 27.0217 98.9508 26.8404C99.6245 26.659 100.227 26.3804 100.758 26.0047C101.289 25.629 101.71 25.1496 102.021 24.5666C102.332 23.9836 102.488 23.297 102.488 22.5067C102.488 21.4443 102.235 20.5633 101.73 19.8637C101.237 19.1511 100.577 18.62 99.7476 18.2701C98.9313 17.9203 98.0309 17.7454 97.0463 17.7454H91.4883V30.9603H95.0252ZM96.9297 20.5244C97.3313 20.5244 97.6682 20.6087 97.9402 20.7771C98.2253 20.9455 98.4455 21.1787 98.601 21.4767C98.7564 21.7747 98.8342 22.118 98.8342 22.5067C98.8342 22.8435 98.75 23.1545 98.5815 23.4395C98.4261 23.7116 98.2058 23.9318 97.9208 24.1002C97.6487 24.2557 97.3313 24.3334 96.9686 24.3334H95.0252V20.5244H96.9297ZM110.281 31.2324C108.882 31.2324 107.67 30.9279 106.647 30.319C105.623 29.7101 104.833 28.8874 104.276 27.8509C103.732 26.8145 103.46 25.6679 103.46 24.4112C103.46 23.0508 103.751 21.8524 104.334 20.816C104.917 19.7665 105.72 18.9503 106.744 18.3673C107.78 17.7714 108.959 17.4734 110.281 17.4734C111.719 17.4734 112.943 17.7778 113.954 18.3868C114.977 18.9957 115.761 19.8119 116.305 20.8354C116.849 21.8589 117.122 23.0055 117.122 24.2751C117.122 25.6355 116.83 26.8404 116.247 27.8898C115.677 28.9392 114.874 29.7619 113.837 30.3578C112.814 30.9409 111.628 31.2324 110.281 31.2324ZM110.261 28.2785C110.87 28.2785 111.415 28.1295 111.894 27.8315C112.386 27.5335 112.775 27.0865 113.06 26.4906C113.345 25.8946 113.487 25.1561 113.487 24.2751C113.487 23.5367 113.358 22.8824 113.099 22.3123C112.853 21.7293 112.49 21.2694 112.01 20.9326C111.544 20.5957 110.98 20.4273 110.32 20.4273C109.737 20.4273 109.199 20.5957 108.707 20.9326C108.214 21.2564 107.819 21.7164 107.521 22.3123C107.236 22.8953 107.094 23.5885 107.094 24.3917C107.094 25.1302 107.217 25.7974 107.463 26.3934C107.722 26.9764 108.085 27.4363 108.551 27.7732C109.031 28.11 109.601 28.2785 110.261 28.2785ZM136.938 17.7454L133.148 30.9603H129.611L127.435 22.6621L125.394 30.9603H121.857L117.893 17.9009L121.372 17.5511L123.684 26.7238L125.666 17.7454H129.184L131.438 26.7238L133.42 17.7454H136.938ZM148.365 30.9603L148.034 28.1813H142.224V25.7132H146.616L146.285 22.9342H142.224V20.5244H147.782L147.451 17.7454H138.687V30.9603H148.365ZM155.743 20.5244C156.145 20.5244 156.481 20.5892 156.753 20.7188C157.038 20.8354 157.259 21.0232 157.414 21.2824C157.57 21.5415 157.647 21.8654 157.647 22.254C157.647 22.5909 157.563 22.8953 157.395 23.1674C157.239 23.4395 157.019 23.6533 156.734 23.8087C156.462 23.9512 156.145 24.0225 155.782 24.0225H153.838V20.5244H155.743ZM150.301 17.7454V30.9603H153.838V26.8015H155.024C155.218 26.8015 155.413 26.8015 155.607 26.8015C155.801 26.8015 155.996 26.8015 156.19 26.8015L158.328 30.9603H162.428L159.513 25.7521C160.044 25.3893 160.472 24.9164 160.796 24.3334C161.132 23.7504 161.301 23.0573 161.301 22.254C161.301 21.1917 161.048 20.3301 160.543 19.6694C160.051 19.0086 159.39 18.5228 158.561 18.2118C157.745 17.9009 156.844 17.7454 155.859 17.7454H150.301ZM173.852 30.9603L173.522 28.1813H167.711V25.7132H172.103L171.773 22.9342H167.711V20.5244H173.269L172.939 17.7454H164.174V30.9603H173.852ZM181.697 30.9603C182.941 30.9603 184.035 30.6882 184.981 30.1441C185.927 29.5999 186.665 28.8291 187.197 27.8315C187.741 26.8339 188.013 25.6484 188.013 24.2751C188.013 23.0184 187.773 21.9042 187.294 20.9326C186.827 19.9479 186.128 19.1706 185.195 18.6005C184.275 18.0305 183.135 17.7454 181.775 17.7454H175.789V30.9603H181.697ZM181.6 20.5244C182.196 20.5244 182.695 20.6864 183.096 21.0103C183.511 21.3342 183.822 21.7812 184.029 22.3512C184.249 22.9083 184.359 23.5496 184.359 24.2751C184.359 25.1432 184.23 25.8687 183.971 26.4517C183.712 27.0347 183.362 27.4687 182.921 27.7537C182.494 28.0388 182.008 28.1813 181.464 28.1813H179.326V20.5244H181.6ZM199.42 30.9603C200.133 30.9603 200.819 30.8955 201.48 30.766C202.154 30.6364 202.756 30.4226 203.287 30.1246C203.819 29.8267 204.24 29.425 204.551 28.9198C204.861 28.4015 205.017 27.7667 205.017 27.0153C205.017 26.3804 204.849 25.8039 204.512 25.2857C204.188 24.7545 203.767 24.3075 203.248 23.9448C203.546 23.6468 203.825 23.3035 204.084 22.9148C204.343 22.5261 204.473 22.0727 204.473 21.5544C204.473 20.6475 204.22 19.9155 203.715 19.3584C203.21 18.8013 202.542 18.3932 201.713 18.1341C200.897 17.875 200.003 17.7454 199.031 17.7454H194.426V30.9603H199.42ZM198.915 20.5244C199.316 20.5244 199.653 20.5698 199.925 20.6605C200.21 20.7512 200.431 20.8872 200.586 21.0686C200.742 21.237 200.819 21.4573 200.819 21.7293C200.819 21.9625 200.722 22.1569 200.528 22.3123C200.333 22.4549 200.081 22.565 199.77 22.6427C199.459 22.7204 199.122 22.7593 198.759 22.7593H197.963V20.5244H198.915ZM199.459 25.5383C200.055 25.5383 200.521 25.6614 200.858 25.9076C201.195 26.1537 201.363 26.497 201.363 26.9375C201.363 27.2096 201.279 27.4428 201.111 27.6371C200.955 27.8185 200.735 27.9546 200.45 28.0452C200.178 28.1359 199.861 28.1813 199.498 28.1813H197.963V25.5383H199.459ZM213.325 30.9603V25.791L217.912 17.7454H214.278L211.538 22.5067L208.972 17.4734L205.591 18.4062L209.788 25.7521V30.9603H213.325Z" fill="black"/>
</svg>
