<svg width="242" height="111" viewBox="0 0 242 111" fill="none" xmlns="http://www.w3.org/2000/svg">
<mask id="path-1-outside-1_2003_16856" maskUnits="userSpaceOnUse" x="0.148438" y="-0.271078" width="242" height="111" fill="black">
<rect fill="white" x="0.148438" y="-0.271078" width="242" height="111"/>
<path d="M226.656 3.72892H15.3332C9.15605 3.72892 4.14844 8.73653 4.14844 14.9137V85.5877C4.14844 91.7649 9.15605 96.7725 15.3332 96.7725H185.017L187.799 103.204C189.003 105.987 192.022 107.516 194.979 106.838C197.676 106.22 200.275 105.267 202.768 103.994C205.33 102.684 207.643 101.056 209.664 99.094C210.417 98.3629 211.114 97.5893 211.746 96.7725H226.656C232.833 96.7725 237.841 91.7649 237.841 85.5877V14.9137C237.841 8.73653 232.833 3.72892 226.656 3.72892Z"/>
</mask>
<path d="M226.656 3.72892H15.3332C9.15605 3.72892 4.14844 8.73653 4.14844 14.9137V85.5877C4.14844 91.7649 9.15605 96.7725 15.3332 96.7725H185.017L187.799 103.204C189.003 105.987 192.022 107.516 194.979 106.838C197.676 106.22 200.275 105.267 202.768 103.994C205.33 102.684 207.643 101.056 209.664 99.094C210.417 98.3629 211.114 97.5893 211.746 96.7725H226.656C232.833 96.7725 237.841 91.7649 237.841 85.5877V14.9137C237.841 8.73653 232.833 3.72892 226.656 3.72892Z" fill="white"/>
<path d="M187.799 103.204L184.591 104.592L184.591 104.592L187.799 103.204ZM194.979 106.838L195.759 110.245L195.759 110.245L194.979 106.838ZM202.768 103.994L204.358 107.106L204.358 107.106L202.768 103.994ZM209.664 99.094L212.098 101.602L212.098 101.602L209.664 99.094ZM211.746 96.7725V93.2772C210.665 93.2772 209.644 93.7777 208.982 94.6327L211.746 96.7725ZM185.017 96.7725L188.225 95.3848C187.671 94.1054 186.41 93.2772 185.017 93.2772V96.7725ZM15.3332 7.22417H226.656V0.23367H15.3332V7.22417ZM234.346 14.9137V85.5877H241.336V14.9137H234.346ZM7.64369 85.5877V14.9137H0.653186V85.5877H7.64369ZM15.3332 93.2772C11.0864 93.2772 7.64369 89.8345 7.64369 85.5877H0.653186C0.653186 93.6953 7.22568 100.268 15.3332 100.268V93.2772ZM234.346 85.5877C234.346 89.8345 230.903 93.2772 226.656 93.2772V100.268C234.764 100.268 241.336 93.6953 241.336 85.5877H234.346ZM226.656 7.22417C230.903 7.22417 234.346 10.6669 234.346 14.9137H241.336C241.336 6.80616 234.764 0.23367 226.656 0.23367V7.22417ZM15.3332 0.23367C7.22567 0.23367 0.653186 6.80615 0.653186 14.9137H7.64369C7.64369 10.6669 11.0864 7.22417 15.3332 7.22417V0.23367ZM184.591 104.592C186.464 108.922 191.16 111.299 195.759 110.245L194.198 103.431C192.883 103.732 191.542 103.053 191.007 101.816L184.591 104.592ZM195.759 110.245C198.745 109.561 201.616 108.507 204.358 107.106L201.177 100.881C198.935 102.027 196.607 102.879 194.198 103.431L195.759 110.245ZM204.358 107.106C207.21 105.648 209.811 103.822 212.098 101.602L207.229 96.5859C205.474 98.2896 203.45 99.7192 201.177 100.881L204.358 107.106ZM212.098 101.602C212.962 100.763 213.77 99.867 214.51 98.9123L208.982 94.6327C208.457 95.3116 207.871 95.9629 207.229 96.5861L212.098 101.602ZM226.656 93.2772H211.746V100.268H226.656V93.2772ZM185.017 93.2772H15.3332V100.268H185.017V93.2772ZM181.809 98.1602L184.591 104.592L191.007 101.816L188.225 95.3848L181.809 98.1602Z" fill="black" mask="url(#path-1-outside-1_2003_16856)"/>
<path fill-rule="evenodd" clip-rule="evenodd" d="M99.1 33.2149C96.4771 33.2149 94.1297 34.8417 93.2091 37.2973L75.8496 83.5884C75.1253 85.5206 75.3945 87.6848 76.5696 89.3807C77.7447 91.0773 79.6769 92.0888 81.7405 92.0888H94.0619C96.7344 92.0888 99.1146 90.4013 99.9989 87.8799L101.722 82.9669H108.755L110.639 88.5048C111.582 91.2758 114.312 93.0312 117.224 92.7383L129.41 91.5128C129.446 91.5086 129.483 91.5051 129.52 91.5009C130.328 91.8777 131.23 92.0888 132.18 92.0888H144.57C145.82 92.0888 146.986 91.7239 147.965 91.0948C148.944 91.7239 150.11 92.0888 151.361 92.0888H157.624C158.658 92.0888 159.665 91.8344 160.563 91.3604C160.979 91.5331 161.401 91.6911 161.829 91.8344C161.848 91.8407 161.868 91.847 161.887 91.8533C163.907 92.5048 165.987 92.8375 168.107 92.8375C172.386 92.8375 176.435 92.0308 180.063 90.1888C181.686 89.3758 183.157 88.3818 184.469 87.2186C184.106 87.6813 183.806 88.1958 183.582 88.7509C182.951 90.3119 182.973 92.0602 183.641 93.6051L187.793 103.204C188.998 105.987 192.016 107.515 194.973 106.838C197.671 106.22 200.27 105.267 202.762 103.994C205.325 102.684 207.637 101.056 209.658 99.094C211.762 97.0521 213.425 94.6781 214.475 91.9602L214.484 91.9364L228.968 55.0822C229.729 53.1455 229.483 50.9576 228.311 49.238C227.139 47.5184 225.193 46.4895 223.112 46.4895H210.791C208.095 46.4895 205.7 48.2065 204.833 50.7589L204.463 51.8491L203.679 49.5356C202.601 46.3573 199.219 44.5843 195.992 45.5063L184.555 48.7739C183.989 48.9357 183.454 49.1744 182.963 49.4794C182.068 48.8469 181.113 48.284 180.098 47.7946C176.983 46.2926 173.598 45.5201 170.042 45.3627V37.7364C170.042 36.0019 169.326 34.3444 168.063 33.1555C166.799 31.9665 165.102 31.3518 163.371 31.4564L150.981 32.2053C150.106 32.2581 149.283 32.4879 148.543 32.8585C147.324 31.8651 145.771 31.3609 144.19 31.4564L131.8 32.2053C128.479 32.406 125.888 35.158 125.888 38.4853V59.8072L117.375 37.282C116.45 34.8344 114.106 33.2149 111.489 33.2149H99.1ZM189.52 80.4287C189.31 80.8677 189.085 81.2997 188.845 81.7247C187.963 83.3158 186.913 84.7544 185.703 86.0281C186.1 85.7373 186.534 85.4919 186.995 85.2997C188.005 84.8788 189.067 84.4119 190.183 83.8974C190.209 83.8848 190.237 83.8722 190.264 83.8603C190.438 83.7827 190.606 83.7051 190.768 83.6282L189.52 80.4287Z" fill="white"/>
<path d="M99.1017 39.5063H111.491L128.782 85.2528L116.597 86.4783L113.261 76.6755H97.2632L94.0636 85.7974H81.7422L99.1017 39.5063ZM109.721 66.9405L105.092 54.3467L100.668 66.9405H109.721Z" fill="black"/>
<path d="M144.57 85.7974H132.18V38.4853L144.57 37.7364V85.7974Z" fill="black"/>
<path d="M157.622 85.7974H151.359V38.4853L163.749 37.7364V52.5087C164.52 52.2364 165.315 52.0322 166.132 51.8961C166.948 51.7145 167.788 51.6238 168.65 51.6238C171.918 51.6238 174.822 52.2364 177.364 53.4618C179.905 54.6872 181.902 56.5705 183.354 59.112C184.852 61.6535 185.601 64.8984 185.601 68.8468C185.601 72.7496 184.852 76.017 183.354 78.6496C181.902 81.2815 179.86 83.2557 177.228 84.572C174.641 85.8883 171.6 86.5461 168.106 86.5461C166.653 86.5461 165.224 86.3196 163.817 85.8652C162.455 85.4115 161.094 84.6852 159.733 83.687L157.622 85.7974ZM166.744 61.1543C165.837 61.1543 164.838 61.4946 163.749 62.1754V76.0624C164.974 76.6979 166.154 77.0159 167.289 77.0159C168.831 77.0159 170.125 76.312 171.169 74.9055C172.258 73.4529 172.803 71.4564 172.803 68.9146C172.803 66.3736 172.281 64.4446 171.237 63.1284C170.193 61.8123 168.696 61.1543 166.744 61.1543Z" fill="black"/>
<path d="M197.854 85.9337L198.127 85.185L186.281 54.8233L197.718 51.5557L204.457 71.4333L210.789 52.7811H223.11L208.61 89.6778C207.929 91.4478 206.817 93.0815 205.274 94.5789C203.732 96.0769 201.939 97.3478 199.897 98.3915C197.854 99.4352 195.744 100.207 193.565 100.706L189.413 91.1074C190.502 90.6537 191.637 90.1539 192.817 89.6093C194.042 89.0648 195.131 88.4748 196.084 87.8393C197.038 87.2046 197.628 86.5692 197.854 85.9337Z" fill="black"/>
<path d="M68.0953 84.1162C77.4897 84.1162 81.7651 63.3612 81.7651 55.4915C81.7651 49.3576 77.5233 45.6402 71.9468 45.6402C66.405 45.6402 61.9059 48.018 61.85 50.9625C61.8499 58.7333 60.4791 84.1162 68.0953 84.1162Z" fill="white"/>
<path d="M33.8849 84.1162C24.4907 84.1162 20.2148 63.3612 20.2148 55.4915C20.2148 49.3576 24.4567 45.6402 30.0334 45.6402C35.5752 45.6402 40.0743 48.018 40.1302 50.9625C40.1304 58.7333 41.5011 84.1162 33.8849 84.1162Z" fill="white"/>
<path d="M68.0953 84.1162C77.4897 84.1162 81.7651 63.3612 81.7651 55.4915C81.7651 49.3576 77.5233 45.6402 71.9468 45.6402C66.405 45.6402 61.9059 48.018 61.85 50.9625C61.8499 58.7333 60.4791 84.1162 68.0953 84.1162Z" stroke="black" stroke-width="2.78434"/>
<path d="M33.8849 84.1162C24.4907 84.1162 20.2148 63.3612 20.2148 55.4915C20.2148 49.3576 24.4567 45.6402 30.0334 45.6402C35.5752 45.6402 40.0743 48.018 40.1302 50.9625C40.1304 58.7333 41.5011 84.1162 33.8849 84.1162Z" stroke="black" stroke-width="2.78434"/>
<path d="M50.5291 59.2667C59.2403 59.2667 67.4005 56.8889 74.3915 52.746C74.59 52.6281 74.8039 52.6428 74.9577 52.7292C75.0318 52.771 75.0758 52.821 75.0989 52.8627C75.1185 52.8979 75.1381 52.9518 75.1283 53.0461C74.0461 63.7589 68.2364 72.614 60.4274 76.6902C57.8456 78.0372 56.0715 80.3777 54.5135 82.4329C54.4854 82.4699 54.4574 82.507 54.4294 82.544C53.1631 84.2133 52.0193 85.7072 50.6218 86.8082C49.2244 85.7072 48.0806 84.2133 46.8144 82.544C46.7864 82.507 46.7584 82.4699 46.7303 82.4329C45.1722 80.3777 43.398 78.0372 40.8162 76.6902C33.0362 72.6294 27.2409 63.8245 26.1276 53.1647C26.1179 53.0706 26.1369 53.0166 26.1562 52.9813C26.1792 52.9395 26.223 52.8893 26.2968 52.8473C26.4498 52.7604 26.6637 52.7447 26.863 52.8615C33.8101 56.9331 41.8992 59.2667 50.5291 59.2667Z" fill="#FFDF6F" stroke="black" stroke-width="2.78434"/>
<path d="M50.7131 61.0304C64.2453 61.0304 75.2153 57.3737 75.2153 52.8629C75.2153 48.3522 64.2453 44.6955 50.7131 44.6955C37.1809 44.6955 26.2109 48.3522 26.2109 52.8629C26.2109 57.3737 37.1809 61.0304 50.7131 61.0304Z" fill="black" stroke="black" stroke-width="2.78434"/>
<path d="M31.0352 66.5987C31.0352 66.5987 43.1208 70.6825 50.8968 70.6825C58.6728 70.6825 70.7584 66.5987 70.7584 66.5987" stroke="black" stroke-width="2.78434" stroke-linecap="round"/>
<path d="M22.125 17.9375C22.125 20.9974 24.6055 23.4779 27.6654 23.4779C30.7253 23.4779 33.2058 20.9974 33.2058 17.9375C33.2058 14.8776 30.7253 12.3971 27.6654 12.3971C24.6055 12.3971 22.125 14.8776 22.125 17.9375Z" fill="black"/>
<path d="M78.4522 17.9375C78.4522 20.9974 75.9712 23.4779 72.9115 23.4779C69.8516 23.4779 67.3711 20.9974 67.3711 17.9375C67.3711 14.8776 69.8516 12.3971 72.9115 12.3971C75.9712 12.3971 78.4522 14.8776 78.4522 17.9375Z" fill="black"/>
<path d="M73.9279 17.1065L63.5858 27.4485M26.7422 17.1065L37.0843 27.4485L26.7422 17.1065Z" stroke="black" stroke-width="2.7702"/>
<path d="M29.2379 50.9987C26.2519 49.5772 24.514 46.3848 25.0961 43.1293C27.5947 29.1563 38.0074 18.6762 50.4733 18.6762C62.9693 18.6762 73.4026 29.2072 75.8682 43.2308C76.4421 46.4923 74.6903 49.6831 71.6937 51.0932C65.2822 54.1104 58.1209 55.7969 50.5656 55.7969C42.9319 55.7969 35.7002 54.0751 29.2379 50.9987Z" fill="#FFDF6F" stroke="black" stroke-width="2.7702"/>
<path d="M34.5638 47.5248C32.1601 46.5459 30.7343 43.9885 31.5672 41.5305C34.1357 33.95 41.6283 28.4643 50.4712 28.4643C59.3141 28.4643 66.8067 33.95 69.3752 41.5305C70.2081 43.9885 68.7823 46.5459 66.3787 47.5248C61.4694 49.5242 56.099 50.6259 50.4712 50.6259C44.8434 50.6259 39.473 49.5242 34.5638 47.5248Z" fill="black"/>
<path d="M61.4606 40.2838C61.4605 42.3237 59.3934 43.9773 56.8436 43.9773C54.2937 43.9773 52.2266 42.3237 52.2266 40.2838C52.2266 38.2439 54.2937 36.5902 56.8436 36.5902C59.3934 36.5902 61.4606 38.2439 61.4606 40.2838Z" fill="white"/>
<path d="M48.2457 40.286C48.2457 42.3259 46.1786 43.9796 43.6287 43.9796C41.0788 43.9796 39.0117 42.3259 39.0117 40.286C39.0117 38.246 41.0788 36.5924 43.6287 36.5924C46.1786 36.5924 48.2457 38.246 48.2457 40.286Z" fill="white"/>
<path d="M90.81 31.3819C91.03 31.5139 91.2885 31.6349 91.5854 31.7449C91.8934 31.8549 92.2123 31.9539 92.5423 32.0418C92.8832 32.1188 93.2187 32.1793 93.5486 32.2233C93.8896 32.2673 94.203 32.2893 94.489 32.2893C95.4129 32.2893 96.2103 32.1463 96.8812 31.8604C97.5521 31.5744 98.0635 31.184 98.4154 30.689C98.7784 30.1831 98.9599 29.6167 98.9599 28.9898C98.9599 28.5279 98.8554 28.1154 98.6464 27.7525C98.4484 27.3785 98.1845 27.0376 97.8545 26.7296C97.5246 26.4217 97.1561 26.1412 96.7492 25.8882C96.3532 25.6353 95.9573 25.3933 95.5614 25.1623C95.2644 24.9864 94.9839 24.8379 94.72 24.7169C94.467 24.5849 94.258 24.453 94.0931 24.321C93.9391 24.189 93.8621 24.046 93.8621 23.892C93.8621 23.6831 93.9611 23.5016 94.1591 23.3476C94.357 23.1826 94.6265 23.1001 94.9674 23.1001C95.2204 23.1001 95.4514 23.1166 95.6603 23.1496C95.8693 23.1716 96.1003 23.2156 96.3532 23.2816C96.6172 23.3476 96.9471 23.4521 97.3431 23.5951L98.234 21.5659C97.794 21.2689 97.2716 21.0435 96.6667 20.8895C96.0728 20.7245 95.4954 20.642 94.9344 20.642C94.0876 20.642 93.3507 20.785 92.7238 21.0709C92.0969 21.3459 91.6129 21.7254 91.272 22.2093C90.942 22.6932 90.7716 23.2431 90.7606 23.859C90.7606 24.332 90.865 24.7609 91.074 25.1459C91.283 25.5198 91.5579 25.8552 91.8989 26.1522C92.2398 26.4492 92.6028 26.7186 92.9877 26.9606C93.3837 27.2025 93.7631 27.4335 94.1261 27.6535C94.412 27.8185 94.687 27.9779 94.9509 28.1319C95.2149 28.2749 95.4294 28.4179 95.5943 28.5609C95.7703 28.6928 95.8583 28.8248 95.8583 28.9568C95.8583 29.0888 95.8033 29.2263 95.6933 29.3692C95.5833 29.5012 95.4184 29.6112 95.1984 29.6992C94.9894 29.7872 94.7255 29.8312 94.4065 29.8312C94.1426 29.8312 93.8401 29.7982 93.4992 29.7322C93.1692 29.6552 92.8502 29.5617 92.5423 29.4517C92.2453 29.3417 91.9979 29.2318 91.7999 29.1218L90.81 31.3819ZM108.823 32.0748L108.543 29.7157H103.61V27.6205H107.339L107.058 25.2613H103.61V23.2156H108.328L108.048 20.8565H100.608V32.0748H108.823ZM113.47 32.0748V26.1687L114.311 27.3235L117.776 32.0748H120.58V20.8565H117.578L117.627 26.9441L116.77 25.8058L113.256 20.8565H110.467V32.0748H113.47ZM128.243 32.0748C129.298 32.0748 130.228 31.8439 131.031 31.3819C131.834 30.92 132.46 30.2656 132.911 29.4187C133.373 28.5718 133.604 27.5655 133.604 26.3997C133.604 25.3328 133.401 24.387 132.994 23.5621C132.598 22.7262 132.004 22.0663 131.212 21.5824C130.431 21.0984 129.463 20.8565 128.309 20.8565H123.227V32.0748H128.243ZM128.16 23.2156C128.666 23.2156 129.089 23.3531 129.43 23.6281C129.782 23.903 130.046 24.2825 130.222 24.7664C130.409 25.2393 130.503 25.7838 130.503 26.3997C130.503 27.1366 130.393 27.7525 130.173 28.2474C129.953 28.7423 129.656 29.1108 129.282 29.3527C128.919 29.5947 128.507 29.7157 128.045 29.7157H126.23V23.2156H128.16ZM138.273 31.3819C138.493 31.5139 138.751 31.6349 139.048 31.7449C139.356 31.8549 139.675 31.9539 140.005 32.0418C140.346 32.1188 140.681 32.1793 141.011 32.2233C141.352 32.2673 141.666 32.2893 141.952 32.2893C142.876 32.2893 143.673 32.1463 144.344 31.8604C145.015 31.5744 145.526 31.184 145.878 30.689C146.241 30.1831 146.423 29.6167 146.423 28.9898C146.423 28.5279 146.318 28.1154 146.109 27.7525C145.911 27.3785 145.647 27.0376 145.317 26.7296C144.987 26.4217 144.619 26.1412 144.212 25.8882C143.816 25.6353 143.42 25.3933 143.024 25.1623C142.727 24.9864 142.447 24.8379 142.183 24.7169C141.93 24.5849 141.721 24.453 141.556 24.321C141.402 24.189 141.325 24.046 141.325 23.892C141.325 23.6831 141.424 23.5016 141.622 23.3476C141.82 23.1826 142.089 23.1001 142.43 23.1001C142.683 23.1001 142.914 23.1166 143.123 23.1496C143.332 23.1716 143.563 23.2156 143.816 23.2816C144.08 23.3476 144.41 23.4521 144.806 23.5951L145.697 21.5659C145.257 21.2689 144.734 21.0435 144.129 20.8895C143.536 20.7245 142.958 20.642 142.397 20.642C141.55 20.642 140.813 20.785 140.187 21.0709C139.56 21.3459 139.076 21.7254 138.735 22.2093C138.405 22.6932 138.234 23.2431 138.223 23.859C138.223 24.332 138.328 24.7609 138.537 25.1459C138.746 25.5198 139.021 25.8552 139.362 26.1522C139.703 26.4492 140.066 26.7186 140.451 26.9606C140.846 27.2025 141.226 27.4335 141.589 27.6535C141.875 27.8185 142.15 27.9779 142.414 28.1319C142.678 28.2749 142.892 28.4179 143.057 28.5609C143.233 28.6928 143.321 28.8248 143.321 28.9568C143.321 29.0888 143.266 29.2263 143.156 29.3692C143.046 29.5012 142.881 29.6112 142.661 29.6992C142.452 29.7872 142.188 29.8312 141.869 29.8312C141.605 29.8312 141.303 29.7982 140.962 29.7322C140.632 29.6552 140.313 29.5617 140.005 29.4517C139.708 29.3417 139.461 29.2318 139.263 29.1218L138.273 31.3819ZM153.696 27.505H151.502L152.574 24.453L153.696 27.505ZM151.122 20.8565L146.915 32.0748H149.902L150.677 29.8642H154.554L155.362 32.2398L158.315 31.9429L154.125 20.8565H151.122ZM168.246 20.8565H158.644V23.2156H161.944V32.0748H164.946V23.2156H168.526L168.246 20.8565ZM169.238 31.3819C169.458 31.5139 169.716 31.6349 170.013 31.7449C170.321 31.8549 170.64 31.9539 170.97 32.0418C171.311 32.1188 171.647 32.1793 171.977 32.2233C172.318 32.2673 172.631 32.2893 172.917 32.2893C173.841 32.2893 174.638 32.1463 175.309 31.8604C175.98 31.5744 176.491 31.184 176.843 30.689C177.206 30.1831 177.388 29.6167 177.388 28.9898C177.388 28.5279 177.283 28.1154 177.074 27.7525C176.876 27.3785 176.612 27.0376 176.282 26.7296C175.953 26.4217 175.584 26.1412 175.177 25.8882C174.781 25.6353 174.385 25.3933 173.989 25.1623C173.692 24.9864 173.412 24.8379 173.148 24.7169C172.895 24.5849 172.686 24.453 172.521 24.321C172.367 24.189 172.29 24.046 172.29 23.892C172.29 23.6831 172.389 23.5016 172.587 23.3476C172.785 23.1826 173.054 23.1001 173.395 23.1001C173.648 23.1001 173.879 23.1166 174.088 23.1496C174.297 23.1716 174.528 23.2156 174.781 23.2816C175.045 23.3476 175.375 23.4521 175.771 23.5951L176.662 21.5659C176.222 21.2689 175.7 21.0435 175.095 20.8895C174.501 20.7245 173.923 20.642 173.362 20.642C172.516 20.642 171.779 20.785 171.152 21.0709C170.525 21.3459 170.041 21.7254 169.7 22.2093C169.37 22.6932 169.2 23.2431 169.189 23.859C169.189 24.332 169.293 24.7609 169.502 25.1459C169.711 25.5198 169.986 25.8552 170.327 26.1522C170.668 26.4492 171.031 26.7186 171.416 26.9606C171.812 27.2025 172.191 27.4335 172.554 27.6535C172.84 27.8185 173.115 27.9779 173.379 28.1319C173.643 28.2749 173.857 28.4179 174.022 28.5609C174.198 28.6928 174.286 28.8248 174.286 28.9568C174.286 29.0888 174.231 29.2263 174.121 29.3692C174.011 29.5012 173.846 29.6112 173.626 29.6992C173.417 29.7872 173.153 29.8312 172.834 29.8312C172.571 29.8312 172.268 29.7982 171.927 29.7322C171.597 29.6552 171.278 29.5617 170.97 29.4517C170.673 29.3417 170.426 29.2318 170.228 29.1218L169.238 31.3819ZM197.673 20.8565L194.456 32.0748H191.454L189.606 25.0304L187.874 32.0748H184.871L181.506 20.9885L184.459 20.6915L186.422 28.4784L188.105 20.8565H191.091L193.004 28.4784L194.687 20.8565H197.673ZM202.161 32.0748V20.8565H199.158V32.0748H202.161ZM213.244 20.8565H203.642V23.2156H206.942V32.0748H209.944V23.2156H213.524L213.244 20.8565ZM224.943 32.0748V20.8565H221.94V25.3273H218.014V20.7575L215.011 20.8565V32.0748H218.014V27.6865H221.94V32.0748H224.943Z" fill="black"/>
</svg>
