<svg width="242" height="111" viewBox="0 0 242 111" fill="none" xmlns="http://www.w3.org/2000/svg">
<g clip-path="url(#clip0_4174_21769)">
<mask id="mask0_4174_21769" style="mask-type:alpha" maskUnits="userSpaceOnUse" x="0" y="-1" width="243" height="112">
<path d="M242.148 -0.270996H0.148438V110.729H242.148V-0.270996Z" fill="white"/>
<path d="M226.656 3.729H15.3332C9.15605 3.729 4.14844 8.73661 4.14844 14.9138V85.5878C4.14844 91.765 9.15605 96.7726 15.3332 96.7726H185.017L187.799 103.204C189.003 105.987 192.022 107.516 194.979 106.838C197.676 106.22 200.275 105.267 202.768 103.994C205.33 102.684 207.643 101.056 209.664 99.0941C210.417 98.363 211.114 97.5894 211.746 96.7726H226.656C232.833 96.7726 237.841 91.765 237.841 85.5878V14.9138C237.841 8.73661 232.833 3.729 226.656 3.729Z" fill="black"/>
</mask>
<g mask="url(#mask0_4174_21769)">
<path d="M226.656 3.729H15.3332C9.15605 3.729 4.14844 8.73661 4.14844 14.9138V85.5878C4.14844 91.765 9.15605 96.7726 15.3332 96.7726H185.017L187.799 103.204C189.003 105.987 192.022 107.516 194.979 106.838C197.676 106.22 200.275 105.267 202.768 103.994C205.33 102.684 207.643 101.056 209.664 99.0941C210.417 98.363 211.114 97.5894 211.746 96.7726H226.656C232.833 96.7726 237.841 91.765 237.841 85.5878V14.9138C237.841 8.73661 232.833 3.729 226.656 3.729Z" fill="#F8C455"/>
<path d="M187.799 103.204L184.591 104.592L187.799 103.204ZM194.979 106.838L195.759 110.245L194.979 106.838ZM202.768 103.994L204.358 107.106L202.768 103.994ZM209.664 99.094L212.098 101.602L209.664 99.094ZM211.746 96.7725V93.2772C210.665 93.2772 209.644 93.7777 208.982 94.6327L211.746 96.7725ZM185.017 96.7725L188.225 95.3848C187.671 94.1054 186.41 93.2772 185.017 93.2772V96.7725ZM15.3331 7.22414H226.656V0.233643H15.3331V7.22414ZM234.346 14.9137V85.5877H241.336V14.9137H234.346ZM7.64358 85.5877V14.9137H0.653076V85.5877H7.64358ZM15.3331 93.2772C11.0863 93.2772 7.64358 89.8345 7.64358 85.5877H0.653076C0.653076 93.6953 7.22557 100.268 15.3331 100.268V93.2772ZM234.346 85.5877C234.346 89.8345 230.903 93.2772 226.656 93.2772V100.268C234.764 100.268 241.336 93.6953 241.336 85.5877H234.346ZM226.656 7.22414C230.903 7.22414 234.346 10.6669 234.346 14.9137H241.336C241.336 6.80613 234.764 0.233643 226.656 0.233643V7.22414ZM15.3331 0.233643C7.22556 0.233643 0.653076 6.80612 0.653076 14.9137H7.64358C7.64358 10.6669 11.0863 7.22414 15.3331 7.22414V0.233643ZM184.591 104.592C186.464 108.922 191.16 111.299 195.759 110.245L194.198 103.431C192.883 103.732 191.542 103.053 191.007 101.816L184.591 104.592ZM195.759 110.245C198.745 109.561 201.616 108.507 204.358 107.106L201.177 100.881C198.935 102.027 196.607 102.879 194.198 103.431L195.759 110.245ZM204.358 107.106C207.21 105.648 209.811 103.822 212.098 101.602L207.229 96.5859C205.474 98.2896 203.45 99.7192 201.177 100.881L204.358 107.106ZM212.098 101.602C212.962 100.763 213.77 99.867 214.51 98.9123L208.982 94.6327C208.457 95.3116 207.871 95.9629 207.229 96.5861L212.098 101.602ZM226.656 93.2772H211.746V100.268H226.656V93.2772ZM185.017 93.2772H15.3331V100.268H185.017V93.2772ZM181.809 98.1602L184.591 104.592L191.007 101.816L188.225 95.3848L181.809 98.1602Z" fill="black"/>
<path fill-rule="evenodd" clip-rule="evenodd" d="M99.1 33.2148C96.4771 33.2148 94.1297 34.8416 93.2091 37.2972L75.8496 83.5883C75.1253 85.5205 75.3945 87.6847 76.5696 89.3806C77.7447 91.0772 79.6769 92.0887 81.7405 92.0887H94.0619C96.7344 92.0887 99.1146 90.4012 99.9989 87.8798L101.722 82.9668H108.755L110.639 88.5047C111.582 91.2757 114.312 93.0311 117.224 92.7382L129.41 91.5127C129.446 91.5085 129.483 91.505 129.52 91.5008C130.328 91.8776 131.23 92.0887 132.18 92.0887H144.57C145.82 92.0887 146.986 91.7238 147.965 91.0947C148.944 91.7238 150.11 92.0887 151.361 92.0887H157.624C158.658 92.0887 159.665 91.8343 160.563 91.3603C160.979 91.533 161.401 91.691 161.829 91.8343C161.848 91.8406 161.868 91.8469 161.887 91.8532C163.907 92.5047 165.987 92.8374 168.107 92.8374C172.386 92.8374 176.435 92.0307 180.063 90.1887C181.686 89.3757 183.157 88.3817 184.469 87.2185C184.106 87.6812 183.806 88.1957 183.582 88.7508C182.951 90.3118 182.973 92.0601 183.641 93.605L187.793 103.204C188.998 105.987 192.016 107.515 194.973 106.838C197.671 106.22 200.27 105.267 202.762 103.994C205.325 102.684 207.637 101.056 209.658 99.0939C211.762 97.052 213.425 94.678 214.475 91.9601L214.484 91.9363L228.968 55.0821C229.729 53.1454 229.483 50.9575 228.311 49.2379C227.139 47.5183 225.193 46.4894 223.112 46.4894H210.791C208.095 46.4894 205.7 48.2064 204.833 50.7588L204.463 51.849L203.679 49.5355C202.601 46.3572 199.219 44.5842 195.992 45.5062L184.555 48.7738C183.989 48.9356 183.454 49.1743 182.963 49.4793C182.068 48.8468 181.113 48.2839 180.098 47.7945C176.983 46.2925 173.598 45.52 170.042 45.3626V37.7363C170.042 36.0018 169.326 34.3443 168.063 33.1554C166.799 31.9664 165.102 31.3517 163.371 31.4563L150.981 32.2052C150.106 32.258 149.283 32.4878 148.543 32.8584C147.324 31.865 145.771 31.3608 144.19 31.4563L131.8 32.2052C128.479 32.4059 125.888 35.1579 125.888 38.4852V59.8071L117.375 37.2819C116.45 34.8343 114.106 33.2148 111.489 33.2148H99.1ZM189.52 80.4286C189.31 80.8676 189.085 81.2996 188.845 81.7246C187.963 83.3157 186.913 84.7543 185.703 86.028C186.1 85.7372 186.534 85.4918 186.995 85.2996C188.005 84.8787 189.067 84.4118 190.183 83.8973C190.209 83.8847 190.237 83.8721 190.264 83.8602C190.438 83.7826 190.606 83.705 190.768 83.6281L189.52 80.4286Z" fill="#F8C455"/>
<path d="M99.1017 39.5063H111.491L128.782 85.2528L116.597 86.4783L113.261 76.6755H97.2632L94.0636 85.7974H81.7422L99.1017 39.5063ZM109.721 66.9405L105.092 54.3467L100.668 66.9405H109.721Z" fill="black"/>
<path d="M144.57 85.7973H132.18V38.4852L144.57 37.7363V85.7973Z" fill="black"/>
<path d="M157.622 85.7973H151.359V38.4852L163.749 37.7363V52.5086C164.52 52.2363 165.315 52.0321 166.132 51.896C166.948 51.7144 167.788 51.6237 168.65 51.6237C171.918 51.6237 174.822 52.2363 177.364 53.4617C179.905 54.6871 181.902 56.5704 183.354 59.1119C184.852 61.6534 185.601 64.8983 185.601 68.8467C185.601 72.7495 184.852 76.0169 183.354 78.6495C181.902 81.2814 179.86 83.2556 177.228 84.5719C174.641 85.8882 171.6 86.546 168.106 86.546C166.653 86.546 165.224 86.3195 163.817 85.8651C162.455 85.4114 161.094 84.6851 159.733 83.6869L157.622 85.7973ZM166.744 61.1542C165.837 61.1542 164.838 61.4945 163.749 62.1753V76.0623C164.974 76.6978 166.154 77.0158 167.289 77.0158C168.831 77.0158 170.125 76.3119 171.169 74.9054C172.258 73.4528 172.803 71.4563 172.803 68.9145C172.803 66.3735 172.281 64.4445 171.237 63.1283C170.193 61.8122 168.696 61.1542 166.744 61.1542Z" fill="black"/>
<path d="M197.854 85.9337L198.127 85.185L186.281 54.8233L197.718 51.5557L204.457 71.4333L210.789 52.7811H223.11L208.61 89.6778C207.929 91.4478 206.817 93.0815 205.274 94.5789C203.732 96.0769 201.939 97.3478 199.897 98.3915C197.854 99.4352 195.744 100.207 193.565 100.706L189.413 91.1074C190.502 90.6537 191.637 90.1539 192.817 89.6093C194.042 89.0648 195.131 88.4748 196.084 87.8393C197.038 87.2046 197.628 86.5692 197.854 85.9337Z" fill="black"/>
<path d="M68.0953 84.1161C77.4897 84.1161 81.7651 63.3611 81.7651 55.4914C81.7651 49.3575 77.5233 45.6401 71.9468 45.6401C66.405 45.6401 61.9059 48.0179 61.85 50.9624C61.8499 58.7332 60.4791 84.1161 68.0953 84.1161Z" fill="white"/>
<path d="M33.8849 84.1161C24.4907 84.1161 20.2148 63.3611 20.2148 55.4914C20.2148 49.3575 24.4567 45.6401 30.0334 45.6401C35.5752 45.6401 40.0743 48.0179 40.1302 50.9624C40.1304 58.7332 41.5011 84.1161 33.8849 84.1161Z" fill="white"/>
<path d="M68.0953 84.1161C77.4897 84.1161 81.7651 63.3611 81.7651 55.4914C81.7651 49.3575 77.5233 45.6401 71.9468 45.6401C66.405 45.6401 61.9059 48.0179 61.85 50.9624C61.8499 58.7332 60.4791 84.1161 68.0953 84.1161Z" stroke="black" stroke-width="2.78434"/>
<path d="M33.8849 84.1161C24.4907 84.1161 20.2148 63.3611 20.2148 55.4914C20.2148 49.3575 24.4567 45.6401 30.0334 45.6401C35.5752 45.6401 40.0743 48.0179 40.1302 50.9624C40.1304 58.7332 41.5011 84.1161 33.8849 84.1161Z" stroke="black" stroke-width="2.78434"/>
<path d="M50.5291 59.2666C59.2403 59.2666 67.4005 56.8888 74.3915 52.7459C74.59 52.628 74.8039 52.6427 74.9577 52.7291C75.0318 52.7709 75.0758 52.8209 75.0989 52.8626C75.1185 52.8978 75.1381 52.9517 75.1283 53.046C74.0461 63.7588 68.2364 72.6139 60.4274 76.6901C57.8456 78.0371 56.0715 80.3776 54.5135 82.4328C54.4854 82.4698 54.4574 82.5069 54.4294 82.5439C53.1631 84.2132 52.0193 85.7071 50.6218 86.8081C49.2244 85.7071 48.0806 84.2132 46.8144 82.5439C46.7864 82.5069 46.7584 82.4698 46.7303 82.4328C45.1722 80.3776 43.398 78.0371 40.8162 76.6901C33.0362 72.6293 27.2409 63.8244 26.1276 53.1646C26.1179 53.0705 26.1369 53.0165 26.1562 52.9812C26.1792 52.9394 26.223 52.8892 26.2968 52.8472C26.4498 52.7603 26.6637 52.7446 26.863 52.8614C33.8101 56.933 41.8992 59.2666 50.5291 59.2666Z" fill="#FFDF6F" stroke="black" stroke-width="2.78434"/>
<path d="M50.7131 61.0305C64.2453 61.0305 75.2153 57.3738 75.2153 52.863C75.2153 48.3523 64.2453 44.6956 50.7131 44.6956C37.1809 44.6956 26.2109 48.3523 26.2109 52.863C26.2109 57.3738 37.1809 61.0305 50.7131 61.0305Z" fill="black" stroke="black" stroke-width="2.78434"/>
<path d="M31.0352 66.5986C31.0352 66.5986 43.1208 70.6824 50.8968 70.6824C58.6728 70.6824 70.7584 66.5986 70.7584 66.5986" stroke="black" stroke-width="2.78434" stroke-linecap="round"/>
<path d="M22.125 17.9376C22.125 20.9975 24.6055 23.478 27.6654 23.478C30.7253 23.478 33.2058 20.9975 33.2058 17.9376C33.2058 14.8777 30.7253 12.3972 27.6654 12.3972C24.6055 12.3972 22.125 14.8777 22.125 17.9376Z" fill="black"/>
<path d="M78.4522 17.9376C78.4522 20.9975 75.9712 23.478 72.9115 23.478C69.8516 23.478 67.3711 20.9975 67.3711 17.9376C67.3711 14.8777 69.8516 12.3972 72.9115 12.3972C75.9712 12.3972 78.4522 14.8777 78.4522 17.9376Z" fill="black"/>
<path d="M73.9279 17.1064L63.5858 27.4484L73.9279 17.1064ZM26.7422 17.1064L37.0843 27.4484L26.7422 17.1064Z" stroke="black" stroke-width="2.7702"/>
<path d="M29.2379 50.9988C26.2519 49.5773 24.514 46.3849 25.0961 43.1294C27.5947 29.1564 38.0074 18.6763 50.4733 18.6763C62.9693 18.6763 73.4026 29.2073 75.8682 43.2309C76.4421 46.4924 74.6903 49.6832 71.6937 51.0933C65.2822 54.1105 58.1209 55.797 50.5656 55.797C42.9319 55.797 35.7002 54.0752 29.2379 50.9988Z" fill="#FFDF6F" stroke="black" stroke-width="2.7702"/>
<path d="M34.5638 47.5249C32.1601 46.546 30.7343 43.9886 31.5672 41.5306C34.1357 33.9501 41.6283 28.4644 50.4712 28.4644C59.3141 28.4644 66.8067 33.9501 69.3752 41.5306C70.2081 43.9886 68.7823 46.546 66.3787 47.5249C61.4694 49.5243 56.099 50.626 50.4712 50.626C44.8434 50.626 39.473 49.5243 34.5638 47.5249Z" fill="black"/>
<path d="M61.4606 40.2837C61.4605 42.3236 59.3934 43.9772 56.8436 43.9772C54.2937 43.9772 52.2266 42.3236 52.2266 40.2837C52.2266 38.2438 54.2937 36.5901 56.8436 36.5901C59.3934 36.5901 61.4606 38.2438 61.4606 40.2837Z" fill="white"/>
<path d="M48.2457 40.2859C48.2457 42.3258 46.1786 43.9795 43.6287 43.9795C41.0788 43.9795 39.0117 42.3258 39.0117 40.2859C39.0117 38.2459 41.0788 36.5923 43.6287 36.5923C46.1786 36.5923 48.2457 38.2459 48.2457 40.2859Z" fill="white"/>
<path d="M90.8099 31.382C91.0299 31.514 91.2884 31.635 91.5853 31.745C91.8933 31.855 92.2122 31.954 92.5422 32.0419C92.8831 32.1189 93.2186 32.1794 93.5485 32.2234C93.8895 32.2674 94.2029 32.2894 94.4889 32.2894C95.4128 32.2894 96.2102 32.1464 96.8811 31.8605C97.552 31.5745 98.0634 31.1841 98.4153 30.6891C98.7783 30.1832 98.9598 29.6168 98.9598 28.9899C98.9598 28.528 98.8553 28.1155 98.6463 27.7526C98.4483 27.3786 98.1844 27.0377 97.8544 26.7297C97.5245 26.4218 97.156 26.1413 96.7491 25.8883C96.3531 25.6354 95.9572 25.3934 95.5613 25.1624C95.2643 24.9865 94.9838 24.838 94.7199 24.717C94.4669 24.585 94.2579 24.4531 94.093 24.3211C93.939 24.1891 93.862 24.0461 93.862 23.8921C93.862 23.6832 93.961 23.5017 94.159 23.3477C94.3569 23.1827 94.6264 23.1002 94.9673 23.1002C95.2203 23.1002 95.4513 23.1167 95.6602 23.1497C95.8692 23.1717 96.1002 23.2157 96.3531 23.2817C96.6171 23.3477 96.947 23.4522 97.343 23.5952L98.2339 21.566C97.7939 21.269 97.2715 21.0436 96.6666 20.8896C96.0727 20.7246 95.4953 20.6421 94.9343 20.6421C94.0875 20.6421 93.3506 20.7851 92.7237 21.071C92.0968 21.346 91.6128 21.7255 91.2719 22.2094C90.9419 22.6933 90.7715 23.2432 90.7605 23.8591C90.7605 24.3321 90.8649 24.761 91.0739 25.146C91.2829 25.5199 91.5578 25.8553 91.8988 26.1523C92.2397 26.4493 92.6027 26.7187 92.9876 26.9607C93.3836 27.2026 93.763 27.4336 94.126 27.6536C94.4119 27.8186 94.6869 27.978 94.9508 28.132C95.2148 28.275 95.4293 28.418 95.5942 28.561C95.7702 28.6929 95.8582 28.8249 95.8582 28.9569C95.8582 29.0889 95.8032 29.2264 95.6932 29.3693C95.5832 29.5013 95.4183 29.6113 95.1983 29.6993C94.9893 29.7873 94.7254 29.8313 94.4064 29.8313C94.1425 29.8313 93.84 29.7983 93.4991 29.7323C93.1691 29.6553 92.8501 29.5618 92.5422 29.4518C92.2452 29.3418 91.9978 29.2319 91.7998 29.1219L90.8099 31.382ZM108.823 32.0749L108.543 29.7158H103.61V27.6206H107.339L107.058 25.2614H103.61V23.2157H108.328L108.048 20.8566H100.608V32.0749H108.823ZM113.47 32.0749V26.1688L114.311 27.3236L117.776 32.0749H120.58V20.8566H117.578L117.627 26.9442L116.77 25.8059L113.256 20.8566H110.467V32.0749H113.47ZM128.243 32.0749C129.298 32.0749 130.228 31.844 131.031 31.382C131.834 30.9201 132.46 30.2657 132.911 29.4188C133.373 28.5719 133.604 27.5656 133.604 26.3998C133.604 25.3329 133.401 24.3871 132.994 23.5622C132.598 22.7263 132.004 22.0664 131.212 21.5825C130.431 21.0985 129.463 20.8566 128.309 20.8566H123.227V32.0749H128.243ZM128.16 23.2157C128.666 23.2157 129.089 23.3532 129.43 23.6282C129.782 23.9031 130.046 24.2826 130.222 24.7665C130.409 25.2394 130.503 25.7839 130.503 26.3998C130.503 27.1367 130.393 27.7526 130.173 28.2475C129.953 28.7424 129.656 29.1109 129.282 29.3528C128.919 29.5948 128.507 29.7158 128.045 29.7158H126.23V23.2157H128.16ZM138.273 31.382C138.493 31.514 138.751 31.635 139.048 31.745C139.356 31.855 139.675 31.954 140.005 32.0419C140.346 32.1189 140.681 32.1794 141.011 32.2234C141.352 32.2674 141.666 32.2894 141.952 32.2894C142.876 32.2894 143.673 32.1464 144.344 31.8605C145.015 31.5745 145.526 31.1841 145.878 30.6891C146.241 30.1832 146.423 29.6168 146.423 28.9899C146.423 28.528 146.318 28.1155 146.109 27.7526C145.911 27.3786 145.647 27.0377 145.317 26.7297C144.987 26.4218 144.619 26.1413 144.212 25.8883C143.816 25.6354 143.42 25.3934 143.024 25.1624C142.727 24.9865 142.447 24.838 142.183 24.717C141.93 24.585 141.721 24.4531 141.556 24.3211C141.402 24.1891 141.325 24.0461 141.325 23.8921C141.325 23.6832 141.424 23.5017 141.622 23.3477C141.82 23.1827 142.089 23.1002 142.43 23.1002C142.683 23.1002 142.914 23.1167 143.123 23.1497C143.332 23.1717 143.563 23.2157 143.816 23.2817C144.08 23.3477 144.41 23.4522 144.806 23.5952L145.697 21.566C145.257 21.269 144.734 21.0436 144.129 20.8896C143.536 20.7246 142.958 20.6421 142.397 20.6421C141.55 20.6421 140.813 20.7851 140.187 21.071C139.56 21.346 139.076 21.7255 138.735 22.2094C138.405 22.6933 138.234 23.2432 138.223 23.8591C138.223 24.3321 138.328 24.761 138.537 25.146C138.746 25.5199 139.021 25.8553 139.362 26.1523C139.703 26.4493 140.066 26.7187 140.451 26.9607C140.846 27.2026 141.226 27.4336 141.589 27.6536C141.875 27.8186 142.15 27.978 142.414 28.132C142.678 28.275 142.892 28.418 143.057 28.561C143.233 28.6929 143.321 28.8249 143.321 28.9569C143.321 29.0889 143.266 29.2264 143.156 29.3693C143.046 29.5013 142.881 29.6113 142.661 29.6993C142.452 29.7873 142.188 29.8313 141.869 29.8313C141.605 29.8313 141.303 29.7983 140.962 29.7323C140.632 29.6553 140.313 29.5618 140.005 29.4518C139.708 29.3418 139.461 29.2319 139.263 29.1219L138.273 31.382ZM153.696 27.5051H151.502L152.574 24.4531L153.696 27.5051ZM151.122 20.8566L146.915 32.0749H149.902L150.677 29.8643H154.554L155.362 32.2399L158.315 31.943L154.125 20.8566H151.122ZM168.246 20.8566H158.644V23.2157H161.944V32.0749H164.946V23.2157H168.526L168.246 20.8566ZM169.238 31.382C169.458 31.514 169.716 31.635 170.013 31.745C170.321 31.855 170.64 31.954 170.97 32.0419C171.311 32.1189 171.647 32.1794 171.977 32.2234C172.318 32.2674 172.631 32.2894 172.917 32.2894C173.841 32.2894 174.638 32.1464 175.309 31.8605C175.98 31.5745 176.491 31.1841 176.843 30.6891C177.206 30.1832 177.388 29.6168 177.388 28.9899C177.388 28.528 177.283 28.1155 177.074 27.7526C176.876 27.3786 176.612 27.0377 176.282 26.7297C175.953 26.4218 175.584 26.1413 175.177 25.8883C174.781 25.6354 174.385 25.3934 173.989 25.1624C173.692 24.9865 173.412 24.838 173.148 24.717C172.895 24.585 172.686 24.4531 172.521 24.3211C172.367 24.1891 172.29 24.0461 172.29 23.8921C172.29 23.6832 172.389 23.5017 172.587 23.3477C172.785 23.1827 173.054 23.1002 173.395 23.1002C173.648 23.1002 173.879 23.1167 174.088 23.1497C174.297 23.1717 174.528 23.2157 174.781 23.2817C175.045 23.3477 175.375 23.4522 175.771 23.5952L176.662 21.566C176.222 21.269 175.7 21.0436 175.095 20.8896C174.501 20.7246 173.923 20.6421 173.362 20.6421C172.516 20.6421 171.779 20.7851 171.152 21.071C170.525 21.346 170.041 21.7255 169.7 22.2094C169.37 22.6933 169.2 23.2432 169.189 23.8591C169.189 24.3321 169.293 24.761 169.502 25.146C169.711 25.5199 169.986 25.8553 170.327 26.1523C170.668 26.4493 171.031 26.7187 171.416 26.9607C171.812 27.2026 172.191 27.4336 172.554 27.6536C172.84 27.8186 173.115 27.978 173.379 28.132C173.643 28.275 173.857 28.418 174.022 28.561C174.198 28.6929 174.286 28.8249 174.286 28.9569C174.286 29.0889 174.231 29.2264 174.121 29.3693C174.011 29.5013 173.846 29.6113 173.626 29.6993C173.417 29.7873 173.153 29.8313 172.834 29.8313C172.571 29.8313 172.268 29.7983 171.927 29.7323C171.597 29.6553 171.278 29.5618 170.97 29.4518C170.673 29.3418 170.426 29.2319 170.228 29.1219L169.238 31.382ZM197.673 20.8566L194.456 32.0749H191.454L189.606 25.0305L187.874 32.0749H184.871L181.506 20.9886L184.459 20.6916L186.422 28.4785L188.105 20.8566H191.091L193.004 28.4785L194.687 20.8566H197.673ZM202.161 32.0749V20.8566H199.158V32.0749H202.161ZM213.244 20.8566H203.642V23.2157H206.942V32.0749H209.944V23.2157H213.524L213.244 20.8566ZM224.943 32.0749V20.8566H221.94V25.3274H218.014V20.7576L215.011 20.8566V32.0749H218.014V27.6866H221.94V32.0749H224.943Z" fill="black"/>
</g>
</g>
<defs>
<clipPath id="clip0_4174_21769">
<rect width="242" height="111" fill="white"/>
</clipPath>
</defs>
</svg>
