<svg width="242" height="111" viewBox="0 0 242 111" fill="none" xmlns="http://www.w3.org/2000/svg">
<mask id="path-1-outside-1_2003_17003" maskUnits="userSpaceOnUse" x="0.148438" y="-0.397644" width="242" height="111" fill="black">
<rect fill="white" x="0.148438" y="-0.397644" width="242" height="111"/>
<path d="M226.656 3.60236H15.3332C9.15605 3.60236 4.14844 8.60996 4.14844 14.7872V85.4611C4.14844 91.6383 9.15605 96.6459 15.3332 96.6459H185.017L187.799 103.077C189.003 105.861 192.022 107.389 194.979 106.712C197.676 106.094 200.275 105.141 202.768 103.867C205.33 102.557 207.643 100.929 209.664 98.9675C210.417 98.2364 211.114 97.4627 211.746 96.6459H226.656C232.833 96.6459 237.841 91.6383 237.841 85.4611V14.7872C237.841 8.60996 232.833 3.60236 226.656 3.60236Z"/>
</mask>
<path d="M226.656 3.60236H15.3332C9.15605 3.60236 4.14844 8.60996 4.14844 14.7872V85.4611C4.14844 91.6383 9.15605 96.6459 15.3332 96.6459H185.017L187.799 103.077C189.003 105.861 192.022 107.389 194.979 106.712C197.676 106.094 200.275 105.141 202.768 103.867C205.33 102.557 207.643 100.929 209.664 98.9675C210.417 98.2364 211.114 97.4627 211.746 96.6459H226.656C232.833 96.6459 237.841 91.6383 237.841 85.4611V14.7872C237.841 8.60996 232.833 3.60236 226.656 3.60236Z" fill="white"/>
<path d="M187.799 103.077L184.591 104.465L184.591 104.465L187.799 103.077ZM194.979 106.712L195.759 110.119L195.759 110.119L194.979 106.712ZM202.768 103.867L204.358 106.979L204.358 106.979L202.768 103.867ZM209.664 98.9675L212.098 101.476L212.098 101.475L209.664 98.9675ZM211.746 96.6459V93.1507C210.665 93.1507 209.644 93.6511 208.982 94.5061L211.746 96.6459ZM185.017 96.6459L188.225 95.2582C187.671 93.9789 186.41 93.1507 185.017 93.1507V96.6459ZM15.3332 7.09761H226.656V0.107105H15.3332V7.09761ZM234.346 14.7872V85.4611H241.336V14.7872H234.346ZM7.64369 85.4611V14.7872H0.653186V85.4611H7.64369ZM15.3332 93.1507C11.0864 93.1507 7.64369 89.708 7.64369 85.4611H0.653186C0.653186 93.5687 7.22568 100.141 15.3332 100.141V93.1507ZM234.346 85.4611C234.346 89.708 230.903 93.1507 226.656 93.1507V100.141C234.764 100.141 241.336 93.5687 241.336 85.4611H234.346ZM226.656 7.09761C230.903 7.09761 234.346 10.5403 234.346 14.7872H241.336C241.336 6.67959 234.764 0.107105 226.656 0.107105V7.09761ZM15.3332 0.107105C7.22567 0.107105 0.653186 6.67959 0.653186 14.7872H7.64369C7.64369 10.5403 11.0864 7.09761 15.3332 7.09761V0.107105ZM184.591 104.465C186.464 108.795 191.16 111.172 195.759 110.119L194.198 103.305C192.883 103.606 191.542 102.926 191.007 101.689L184.591 104.465ZM195.759 110.119C198.745 109.434 201.616 108.381 204.358 106.979L201.177 100.755C198.935 101.901 196.607 102.753 194.198 103.305L195.759 110.119ZM204.358 106.979C207.21 105.522 209.811 103.695 212.098 101.476L207.229 96.4594C205.474 98.163 203.45 99.5926 201.177 100.755L204.358 106.979ZM212.098 101.475C212.962 100.636 213.77 99.7404 214.51 98.7857L208.982 94.5061C208.457 95.185 207.871 95.8364 207.229 96.4596L212.098 101.475ZM226.656 93.1507H211.746V100.141H226.656V93.1507ZM185.017 93.1507H15.3332V100.141H185.017V93.1507ZM181.809 98.0337L184.591 104.465L191.007 101.689L188.225 95.2582L181.809 98.0337Z" fill="black" mask="url(#path-1-outside-1_2003_17003)"/>
<path fill-rule="evenodd" clip-rule="evenodd" d="M99.1 33.0883C96.4771 33.0883 94.1297 34.7151 93.2091 37.1707L75.8496 83.4618C75.1253 85.394 75.3945 87.5582 76.5696 89.2541C77.7447 90.9507 79.6769 91.9622 81.7405 91.9622H94.0619C96.7344 91.9622 99.1146 90.2747 99.9989 87.7533L101.722 82.8403H108.755L110.639 88.3782C111.582 91.1492 114.312 92.9046 117.224 92.6117L129.41 91.3862C129.446 91.382 129.483 91.3785 129.52 91.3743C130.328 91.7511 131.23 91.9622 132.18 91.9622H144.57C145.82 91.9622 146.986 91.5973 147.965 90.9682C148.944 91.5973 150.11 91.9622 151.361 91.9622H157.624C158.658 91.9622 159.665 91.7078 160.563 91.2338C160.979 91.4065 161.401 91.5645 161.829 91.7078C161.848 91.7141 161.868 91.7204 161.887 91.7267C163.907 92.3782 165.987 92.7109 168.107 92.7109C172.386 92.7109 176.435 91.9042 180.063 90.0622C181.686 89.2492 183.157 88.2552 184.469 87.092C184.106 87.5547 183.806 88.0692 183.582 88.6243C182.951 90.1853 182.973 91.9336 183.641 93.4785L187.793 103.077C188.998 105.861 192.016 107.389 194.973 106.711C197.671 106.094 200.27 105.141 202.762 103.867C205.325 102.557 207.637 100.929 209.658 98.9674C211.762 96.9255 213.425 94.5515 214.475 91.8336L214.484 91.8098L228.968 54.9556C229.729 53.0188 229.483 50.831 228.311 49.1114C227.139 47.3918 225.193 46.3629 223.112 46.3629H210.791C208.095 46.3629 205.7 48.0799 204.833 50.6323L204.463 51.7225L203.679 49.409C202.601 46.2307 199.219 44.4577 195.992 45.3797L184.555 48.6473C183.989 48.8091 183.454 49.0478 182.963 49.3528C182.068 48.7202 181.113 48.1574 180.098 47.668C176.983 46.166 173.598 45.3935 170.042 45.2361V37.6098C170.042 35.8753 169.326 34.2178 168.063 33.0289C166.799 31.8399 165.102 31.2252 163.371 31.3298L150.981 32.0787C150.106 32.1315 149.283 32.3613 148.543 32.7319C147.324 31.7385 145.771 31.2343 144.19 31.3298L131.8 32.0787C128.479 32.2794 125.888 35.0314 125.888 38.3586V59.6806L117.375 37.1554C116.45 34.7078 114.106 33.0883 111.489 33.0883H99.1ZM189.52 80.3021C189.31 80.7411 189.085 81.1731 188.845 81.5981C187.963 83.1892 186.913 84.6278 185.703 85.9015C186.1 85.6107 186.534 85.3653 186.995 85.1731C188.005 84.7522 189.067 84.2853 190.183 83.7708C190.209 83.7582 190.237 83.7456 190.264 83.7337C190.438 83.6561 190.606 83.5785 190.768 83.5016L189.52 80.3021Z" fill="white"/>
<path d="M99.1017 39.3798H111.491L128.782 85.1263L116.597 86.3517L113.261 76.5489H97.2632L94.0636 85.6708H81.7422L99.1017 39.3798ZM109.721 66.8139L105.092 54.2201L100.668 66.8139H109.721Z" fill="black"/>
<path d="M144.57 85.6709H132.18V38.3587L144.57 37.6099V85.6709Z" fill="black"/>
<path d="M157.622 85.6709H151.359V38.3587L163.749 37.6099V52.3822C164.52 52.1099 165.315 51.9057 166.132 51.7695C166.948 51.588 167.788 51.4973 168.65 51.4973C171.918 51.4973 174.822 52.1099 177.364 53.3353C179.905 54.5606 181.902 56.444 183.354 58.9855C184.852 61.527 185.601 64.7719 185.601 68.7203C185.601 72.6231 184.852 75.8905 183.354 78.5231C181.902 81.155 179.86 83.1291 177.228 84.4455C174.641 85.7618 171.6 86.4196 168.106 86.4196C166.653 86.4196 165.224 86.1931 163.817 85.7387C162.455 85.285 161.094 84.5587 159.733 83.5605L157.622 85.6709ZM166.744 61.0278C165.837 61.0278 164.838 61.3681 163.749 62.0489V75.9359C164.974 76.5714 166.154 76.8894 167.289 76.8894C168.831 76.8894 170.125 76.1855 171.169 74.779C172.258 73.3264 172.803 71.3299 172.803 68.7881C172.803 66.2471 172.281 64.318 171.237 63.0019C170.193 61.6858 168.696 61.0278 166.744 61.0278Z" fill="black"/>
<path d="M197.854 85.8071L198.127 85.0585L186.281 54.6967L197.718 51.4291L204.457 71.3067L210.789 52.6545H223.11L208.61 89.5513C207.929 91.3212 206.817 92.9549 205.274 94.4523C203.732 95.9504 201.939 97.2212 199.897 98.2649C197.854 99.3086 195.744 100.08 193.565 100.579L189.413 90.9808C190.502 90.5271 191.637 90.0273 192.817 89.4827C194.042 88.9382 195.131 88.3482 196.084 87.7127C197.038 87.078 197.628 86.4426 197.854 85.8071Z" fill="black"/>
<path d="M68.0953 83.9897C77.4897 83.9897 81.7651 63.2347 81.7651 55.365C81.7651 49.2311 77.5233 45.5137 71.9468 45.5137C66.405 45.5137 61.9059 47.8915 61.85 50.836C61.8499 58.6068 60.4791 83.9897 68.0953 83.9897Z" fill="white"/>
<path d="M33.8849 83.9897C24.4907 83.9897 20.2148 63.2347 20.2148 55.365C20.2148 49.2311 24.4567 45.5137 30.0334 45.5137C35.5752 45.5137 40.0743 47.8915 40.1302 50.836C40.1304 58.6068 41.5011 83.9897 33.8849 83.9897Z" fill="white"/>
<path d="M68.0953 83.9897C77.4897 83.9897 81.7651 63.2347 81.7651 55.365C81.7651 49.2311 77.5233 45.5137 71.9468 45.5137C66.405 45.5137 61.9059 47.8915 61.85 50.836C61.8499 58.6068 60.4791 83.9897 68.0953 83.9897Z" stroke="black" stroke-width="2.78434"/>
<path d="M33.8849 83.9897C24.4907 83.9897 20.2148 63.2347 20.2148 55.365C20.2148 49.2311 24.4567 45.5137 30.0334 45.5137C35.5752 45.5137 40.0743 47.8915 40.1302 50.836C40.1304 58.6068 41.5011 83.9897 33.8849 83.9897Z" stroke="black" stroke-width="2.78434"/>
<path d="M50.5291 59.1401C59.2403 59.1401 67.4005 56.7623 74.3915 52.6194C74.59 52.5015 74.8039 52.5162 74.9577 52.6026C75.0318 52.6444 75.0758 52.6943 75.0989 52.7361C75.1185 52.7712 75.1381 52.8252 75.1283 52.9194C74.0461 63.6322 68.2364 72.4874 60.4274 76.5636C57.8456 77.9106 56.0715 80.251 54.5135 82.3063C54.4854 82.3433 54.4574 82.3804 54.4294 82.4174C53.1631 84.0867 52.0193 85.5806 50.6218 86.6816C49.2244 85.5806 48.0806 84.0867 46.8144 82.4174C46.7864 82.3804 46.7584 82.3433 46.7303 82.3063C45.1722 80.251 43.398 77.9106 40.8162 76.5636C33.0362 72.5028 27.2409 63.6979 26.1276 53.0381C26.1179 52.944 26.1369 52.8899 26.1562 52.8546C26.1792 52.8128 26.223 52.7627 26.2968 52.7207C26.4498 52.6337 26.6637 52.6181 26.863 52.7349C33.8101 56.8064 41.8992 59.1401 50.5291 59.1401Z" fill="#FFDF6F" stroke="black" stroke-width="2.78434"/>
<path d="M50.7131 60.9038C64.2453 60.9038 75.2153 57.2471 75.2153 52.7364C75.2153 48.2257 64.2453 44.569 50.7131 44.569C37.1809 44.569 26.2109 48.2257 26.2109 52.7364C26.2109 57.2471 37.1809 60.9038 50.7131 60.9038Z" fill="black" stroke="black" stroke-width="2.78434"/>
<path d="M31.0352 66.4722C31.0352 66.4722 43.1208 70.556 50.8968 70.556C58.6728 70.556 70.7584 66.4722 70.7584 66.4722" stroke="black" stroke-width="2.78434" stroke-linecap="round"/>
<path d="M22.125 17.811C22.125 20.8708 24.6055 23.3514 27.6654 23.3514C30.7253 23.3514 33.2058 20.8708 33.2058 17.811C33.2058 14.7511 30.7253 12.2706 27.6654 12.2706C24.6055 12.2706 22.125 14.7511 22.125 17.811Z" fill="black"/>
<path d="M78.4522 17.811C78.4522 20.8708 75.9712 23.3514 72.9115 23.3514C69.8516 23.3514 67.3711 20.8708 67.3711 17.811C67.3711 14.7511 69.8516 12.2706 72.9115 12.2706C75.9712 12.2706 78.4522 14.7511 78.4522 17.811Z" fill="black"/>
<path d="M73.9279 16.98L63.5858 27.322M26.7422 16.98L37.0843 27.322L26.7422 16.98Z" stroke="black" stroke-width="2.7702"/>
<path d="M29.2379 50.8722C26.2519 49.4506 24.514 46.2583 25.0961 43.0027C27.5947 29.0298 38.0074 18.5497 50.4733 18.5497C62.9693 18.5497 73.4026 29.0807 75.8682 43.1043C76.4421 46.3658 74.6903 49.5566 71.6937 50.9667C65.2822 53.9838 58.1209 55.6704 50.5656 55.6704C42.9319 55.6704 35.7002 53.9486 29.2379 50.8722Z" fill="#FFDF6F" stroke="black" stroke-width="2.7702"/>
<path d="M34.5638 47.3982C32.1601 46.4193 30.7343 43.8619 31.5672 41.4039C34.1357 33.8234 41.6283 28.3377 50.4712 28.3377C59.3141 28.3377 66.8067 33.8234 69.3752 41.4039C70.2081 43.8619 68.7823 46.4193 66.3787 47.3982C61.4694 49.3976 56.099 50.4993 50.4712 50.4993C44.8434 50.4993 39.473 49.3976 34.5638 47.3982Z" fill="black"/>
<path d="M61.4606 40.1572C61.4605 42.1971 59.3934 43.8508 56.8436 43.8508C54.2937 43.8508 52.2266 42.1971 52.2266 40.1572C52.2266 38.1173 54.2937 36.4637 56.8436 36.4637C59.3934 36.4637 61.4606 38.1173 61.4606 40.1572Z" fill="white"/>
<path d="M48.2457 40.1595C48.2457 42.1994 46.1786 43.853 43.6287 43.853C41.0788 43.853 39.0117 42.1994 39.0117 40.1595C39.0117 38.1195 41.0788 36.4658 43.6287 36.4658C46.1786 36.4658 48.2457 38.1195 48.2457 40.1595Z" fill="white"/>
<path d="M90.81 31.2554C91.03 31.3874 91.2885 31.5083 91.5854 31.6183C91.8934 31.7283 92.2123 31.8273 92.5423 31.9153C92.8832 31.9923 93.2187 32.0528 93.5486 32.0968C93.8896 32.1407 94.203 32.1627 94.489 32.1627C95.4129 32.1627 96.2103 32.0198 96.8812 31.7338C97.5521 31.4478 98.0635 31.0574 98.4154 30.5625C98.7784 30.0565 98.9599 29.4901 98.9599 28.8632C98.9599 28.4013 98.8554 27.9889 98.6464 27.6259C98.4484 27.252 98.1845 26.911 97.8545 26.6031C97.5246 26.2951 97.1561 26.0146 96.7492 25.7617C96.3532 25.5087 95.9573 25.2668 95.5614 25.0358C95.2644 24.8598 94.9839 24.7113 94.72 24.5903C94.467 24.4584 94.258 24.3264 94.0931 24.1944C93.9391 24.0624 93.8621 23.9194 93.8621 23.7655C93.8621 23.5565 93.9611 23.375 94.1591 23.221C94.357 23.0561 94.6265 22.9736 94.9674 22.9736C95.2204 22.9736 95.4514 22.9901 95.6603 23.0231C95.8693 23.0451 96.1003 23.0891 96.3532 23.1551C96.6172 23.221 96.9471 23.3255 97.3431 23.4685L98.234 21.4393C97.794 21.1424 97.2716 20.9169 96.6667 20.7629C96.0728 20.5979 95.4954 20.5154 94.9344 20.5154C94.0876 20.5154 93.3507 20.6584 92.7238 20.9444C92.0969 21.2193 91.6129 21.5988 91.272 22.0827C90.942 22.5666 90.7716 23.1166 90.7606 23.7325C90.7606 24.2054 90.865 24.6343 91.074 25.0193C91.283 25.3932 91.5579 25.7287 91.8989 26.0256C92.2398 26.3226 92.6028 26.5921 92.9877 26.834C93.3837 27.076 93.7631 27.307 94.1261 27.5269C94.412 27.6919 94.687 27.8514 94.9509 28.0053C95.2149 28.1483 95.4294 28.2913 95.5943 28.4343C95.7703 28.5663 95.8583 28.6982 95.8583 28.8302C95.8583 28.9622 95.8033 29.0997 95.6933 29.2427C95.5833 29.3746 95.4184 29.4846 95.1984 29.5726C94.9894 29.6606 94.7255 29.7046 94.4065 29.7046C94.1426 29.7046 93.8401 29.6716 93.4992 29.6056C93.1692 29.5286 92.8502 29.4351 92.5423 29.3252C92.2453 29.2152 91.9979 29.1052 91.7999 28.9952L90.81 31.2554ZM103.445 20.7299H100.443V27.6589C100.443 28.6268 100.652 29.4516 101.069 30.1335C101.498 30.8044 102.092 31.3159 102.851 31.6678C103.61 32.0088 104.484 32.1792 105.474 32.1792C106.475 32.1792 107.35 32.0088 108.097 31.6678C108.856 31.3159 109.445 30.8044 109.863 30.1335C110.292 29.4516 110.506 28.6268 110.506 27.6589V20.7299H107.504V27.5104C107.504 27.9724 107.416 28.3683 107.24 28.6982C107.064 29.0172 106.822 29.2592 106.514 29.4241C106.217 29.5891 105.87 29.6716 105.474 29.6716C105.078 29.6716 104.726 29.5891 104.418 29.4241C104.111 29.2592 103.869 29.0172 103.693 28.6982C103.528 28.3683 103.445 27.9724 103.445 27.5104V20.7299ZM115.983 31.9483V28.6818H117.567C118.172 28.6818 118.755 28.6048 119.316 28.4508C119.888 28.2968 120.399 28.0603 120.85 27.7414C121.301 27.4224 121.658 27.0155 121.922 26.5206C122.186 26.0256 122.318 25.4427 122.318 24.7718C122.318 23.87 122.104 23.1221 121.675 22.5282C121.257 21.9232 120.696 21.4723 119.992 21.1753C119.299 20.8784 118.535 20.7299 117.699 20.7299H112.981V31.9483H115.983ZM117.6 23.0891C117.941 23.0891 118.227 23.1606 118.458 23.3035C118.7 23.4465 118.887 23.6445 119.019 23.8975C119.151 24.1504 119.217 24.4419 119.217 24.7718C119.217 25.0578 119.145 25.3217 119.002 25.5637C118.87 25.7947 118.683 25.9816 118.441 26.1246C118.21 26.2566 117.941 26.3226 117.633 26.3226H115.983V23.0891H117.6ZM126.971 31.9483V28.6818H128.555C129.16 28.6818 129.743 28.6048 130.303 28.4508C130.875 28.2968 131.387 28.0603 131.838 27.7414C132.289 27.4224 132.646 27.0155 132.91 26.5206C133.174 26.0256 133.306 25.4427 133.306 24.7718C133.306 23.87 133.092 23.1221 132.663 22.5282C132.245 21.9232 131.684 21.4723 130.98 21.1753C130.287 20.8784 129.523 20.7299 128.687 20.7299H123.968V31.9483H126.971ZM128.588 23.0891C128.929 23.0891 129.215 23.1606 129.446 23.3035C129.688 23.4465 129.875 23.6445 130.007 23.8975C130.138 24.1504 130.204 24.4419 130.204 24.7718C130.204 25.0578 130.133 25.3217 129.99 25.5637C129.858 25.7947 129.671 25.9816 129.429 26.1246C129.198 26.2566 128.929 26.3226 128.621 26.3226H126.971V23.0891H128.588ZM139.922 32.1792C138.734 32.1792 137.706 31.9208 136.837 31.4039C135.968 30.8869 135.297 30.1885 134.824 29.3087C134.362 28.4288 134.131 27.4554 134.131 26.3886C134.131 25.2338 134.379 24.2164 134.874 23.3365C135.368 22.4457 136.05 21.7528 136.919 21.2578C137.799 20.7519 138.8 20.4989 139.922 20.4989C141.143 20.4989 142.182 20.7574 143.04 21.2743C143.909 21.7913 144.574 22.4842 145.036 23.353C145.498 24.2219 145.729 25.1953 145.729 26.2731C145.729 27.4279 145.481 28.4508 144.987 29.3417C144.503 30.2325 143.821 30.9309 142.941 31.4368C142.072 31.9318 141.066 32.1792 139.922 32.1792ZM139.905 29.6716C140.422 29.6716 140.884 29.5451 141.291 29.2922C141.709 29.0392 142.039 28.6598 142.281 28.1538C142.523 27.6479 142.644 27.021 142.644 26.2731C142.644 25.6462 142.534 25.0908 142.314 24.6068C142.105 24.1119 141.797 23.7215 141.39 23.4355C140.994 23.1496 140.516 23.0066 139.955 23.0066C139.46 23.0066 139.003 23.1496 138.586 23.4355C138.168 23.7105 137.832 24.1009 137.579 24.6068C137.337 25.1018 137.216 25.6902 137.216 26.3721C137.216 26.999 137.321 27.5654 137.53 28.0713C137.75 28.5663 138.058 28.9567 138.454 29.2427C138.86 29.5286 139.344 29.6716 139.905 29.6716ZM152.158 23.0891C152.499 23.0891 152.785 23.1441 153.016 23.254C153.258 23.353 153.445 23.5125 153.577 23.7325C153.709 23.9524 153.775 24.2274 153.775 24.5574C153.775 24.8433 153.703 25.1018 153.56 25.3327C153.428 25.5637 153.241 25.7452 152.999 25.8772C152.768 25.9981 152.499 26.0586 152.191 26.0586H150.541V23.0891H152.158ZM147.539 20.7299V31.9483H150.541V28.4178H151.548C151.713 28.4178 151.878 28.4178 152.043 28.4178C152.207 28.4178 152.372 28.4178 152.537 28.4178L154.352 31.9483H157.833L155.359 27.5269C155.809 27.219 156.172 26.8175 156.447 26.3226C156.733 25.8277 156.876 25.2393 156.876 24.5574C156.876 23.6555 156.662 22.9241 156.233 22.3632C155.815 21.8023 155.254 21.3898 154.55 21.1259C153.857 20.8619 153.093 20.7299 152.257 20.7299H147.539ZM167.763 20.7299H158.161V23.0891H161.46V31.9483H164.463V23.0891H168.043L167.763 20.7299ZM188.168 20.7299L184.951 31.9483H181.948L180.101 24.9038L178.368 31.9483H175.366L172 20.8619L174.953 20.5649L176.916 28.3518L178.599 20.7299H181.585L183.499 28.3518L185.182 20.7299H188.168ZM192.655 31.9483V20.7299H189.653V31.9483H192.655ZM203.738 20.7299H194.137V23.0891H197.436V31.9483H200.439V23.0891H204.019L203.738 20.7299ZM215.437 31.9483V20.7299H212.435V25.2008H208.508V20.6309L205.506 20.7299V31.9483H208.508V27.5599H212.435V31.9483H215.437Z" fill="black"/>
</svg>
