<svg width="241" height="111" viewBox="0 0 241 111" fill="none" xmlns="http://www.w3.org/2000/svg">
<mask id="path-1-outside-1_2003_17027" maskUnits="userSpaceOnUse" x="-0.191406" y="-0.397644" width="242" height="111" fill="black">
<rect fill="white" x="-0.191406" y="-0.397644" width="242" height="111"/>
<path d="M226.316 3.60236H14.9934C8.8162 3.60236 3.80859 8.60996 3.80859 14.7872V85.4611C3.80859 91.6383 8.81621 96.6459 14.9934 96.6459H184.677L187.459 103.077C188.663 105.861 191.682 107.389 194.639 106.712C197.336 106.094 199.936 105.141 202.428 103.867C204.99 102.557 207.303 100.929 209.324 98.9675C210.077 98.2364 210.774 97.4627 211.406 96.6459H226.316C232.493 96.6459 237.501 91.6383 237.501 85.4611V14.7872C237.501 8.60996 232.493 3.60236 226.316 3.60236Z"/>
</mask>
<path d="M226.316 3.60236H14.9934C8.8162 3.60236 3.80859 8.60996 3.80859 14.7872V85.4611C3.80859 91.6383 8.81621 96.6459 14.9934 96.6459H184.677L187.459 103.077C188.663 105.861 191.682 107.389 194.639 106.712C197.336 106.094 199.936 105.141 202.428 103.867C204.99 102.557 207.303 100.929 209.324 98.9675C210.077 98.2364 210.774 97.4627 211.406 96.6459H226.316C232.493 96.6459 237.501 91.6383 237.501 85.4611V14.7872C237.501 8.60996 232.493 3.60236 226.316 3.60236Z" fill="#F8C455"/>
<path d="M187.459 103.077L184.251 104.465L184.251 104.465L187.459 103.077ZM194.639 106.712L195.419 110.119L195.419 110.119L194.639 106.712ZM202.428 103.867L204.018 106.979L204.019 106.979L202.428 103.867ZM209.324 98.9675L211.758 101.476L211.758 101.475L209.324 98.9675ZM211.406 96.6459V93.1507C210.325 93.1507 209.304 93.6511 208.642 94.5061L211.406 96.6459ZM184.677 96.6459L187.885 95.2582C187.331 93.9789 186.071 93.1507 184.677 93.1507V96.6459ZM14.9934 7.09761H226.316V0.107105H14.9934V7.09761ZM234.006 14.7872V85.4611H240.996V14.7872H234.006ZM7.30385 85.4611V14.7872H0.313342V85.4611H7.30385ZM14.9934 93.1507C10.7466 93.1507 7.30385 89.708 7.30385 85.4611H0.313342C0.313342 93.5687 6.88583 100.141 14.9934 100.141V93.1507ZM234.006 85.4611C234.006 89.708 230.563 93.1507 226.316 93.1507V100.141C234.424 100.141 240.996 93.5687 240.996 85.4611H234.006ZM226.316 7.09761C230.563 7.09761 234.006 10.5403 234.006 14.7872H240.996C240.996 6.67959 234.424 0.107105 226.316 0.107105V7.09761ZM14.9934 0.107105C6.88583 0.107105 0.313342 6.67959 0.313342 14.7872H7.30385C7.30385 10.5403 10.7466 7.09761 14.9934 7.09761V0.107105ZM184.251 104.465C186.125 108.795 190.82 111.172 195.419 110.119L193.858 103.305C192.544 103.606 191.202 102.926 190.667 101.689L184.251 104.465ZM195.419 110.119C198.406 109.434 201.276 108.381 204.018 106.979L200.837 100.755C198.595 101.901 196.267 102.753 193.858 103.305L195.419 110.119ZM204.019 106.979C206.87 105.522 209.471 103.695 211.758 101.476L206.889 96.4594C205.134 98.163 203.111 99.5926 200.837 100.755L204.019 106.979ZM211.758 101.475C212.623 100.636 213.431 99.7404 214.17 98.7857L208.642 94.5061C208.117 95.185 207.531 95.8364 206.889 96.4596L211.758 101.475ZM226.316 93.1507H211.406V100.141H226.316V93.1507ZM184.677 93.1507H14.9934V100.141H184.677V93.1507ZM181.469 98.0337L184.251 104.465L190.667 101.689L187.885 95.2582L181.469 98.0337Z" fill="black" mask="url(#path-1-outside-1_2003_17027)"/>
<path fill-rule="evenodd" clip-rule="evenodd" d="M98.7679 33.0883C96.1451 33.0883 93.7977 34.7152 92.877 37.1707L75.5175 83.4618C74.7933 85.394 75.0624 87.5583 76.2375 89.2541C77.4126 90.9507 79.3448 91.9623 81.4084 91.9623H93.7299C96.4024 91.9623 98.7826 90.2748 99.6669 87.7533L101.39 82.8404H108.423L110.307 88.3782C111.25 91.1493 113.98 92.9046 116.892 92.6117L129.078 91.3862C129.114 91.3821 129.151 91.3786 129.188 91.3744C129.996 91.7512 130.898 91.9623 131.848 91.9623H144.238C145.488 91.9623 146.654 91.5974 147.633 90.9682C148.612 91.5974 149.778 91.9623 151.029 91.9623H157.292C158.326 91.9623 159.333 91.7078 160.231 91.2339C160.646 91.4065 161.069 91.5645 161.497 91.7078C161.516 91.7141 161.536 91.7204 161.555 91.7267C163.575 92.3782 165.655 92.7109 167.775 92.7109C172.054 92.7109 176.103 91.9042 179.731 90.0622C181.354 89.2492 182.825 88.2552 184.137 87.092C183.774 87.5548 183.474 88.0693 183.25 88.6243C182.619 90.1853 182.641 91.9336 183.309 93.4785L187.461 103.077C188.666 105.861 191.684 107.389 194.641 106.712C197.339 106.094 199.938 105.141 202.43 103.867C204.993 102.557 207.305 100.929 209.326 98.9674C211.43 96.9255 213.093 94.5516 214.143 91.8336L214.152 91.8099L228.636 54.9556C229.397 53.0189 229.151 50.8311 227.979 49.1115C226.807 47.3919 224.861 46.3629 222.78 46.3629H210.459C207.763 46.3629 205.367 48.0799 204.501 50.6323L204.131 51.7226L203.347 49.409C202.269 46.2308 198.887 44.4577 195.66 45.3797L184.223 48.6473C183.657 48.8091 183.122 49.0479 182.631 49.3528C181.736 48.7203 180.781 48.1574 179.765 47.6681C176.651 46.166 173.266 45.3936 169.71 45.2361V37.6099C169.71 35.8754 168.994 34.2178 167.731 33.0289C166.467 31.84 164.77 31.2252 163.039 31.3299L150.649 32.0787C149.774 32.1315 148.951 32.3613 148.211 32.732C146.992 31.7385 145.439 31.2343 143.858 31.3299L131.468 32.0787C128.147 32.2794 125.556 35.0314 125.556 38.3587V59.6806L117.043 37.1554C116.118 34.7078 113.774 33.0883 111.157 33.0883H98.7679ZM189.188 80.3021C188.978 80.7411 188.753 81.1731 188.513 81.5981C187.631 83.1892 186.581 84.6278 185.37 85.9015C185.768 85.6107 186.202 85.3653 186.663 85.1731C187.673 84.7523 188.735 84.2853 189.851 83.7708C189.877 83.7582 189.905 83.7456 189.932 83.7337C190.106 83.6562 190.274 83.5786 190.436 83.5017L189.188 80.3021Z" fill="#F8C455"/>
<path d="M98.7697 39.3798H111.159L128.45 85.1263L116.265 86.3517L112.929 76.549H96.9312L93.7316 85.6709H81.4102L98.7697 39.3798ZM109.389 66.814L104.76 54.2202L100.336 66.814H109.389Z" fill="black"/>
<path d="M144.238 85.6709H131.848V38.3588L144.238 37.61V85.6709Z" fill="black"/>
<path d="M157.29 85.6709H151.027V38.3588L163.417 37.61V52.3822C164.188 52.1099 164.982 51.9057 165.8 51.7696C166.616 51.588 167.456 51.4973 168.318 51.4973C171.586 51.4973 174.49 52.1099 177.032 53.3353C179.573 54.5607 181.57 56.444 183.022 58.9855C184.52 61.527 185.269 64.7719 185.269 68.7204C185.269 72.6231 184.52 75.8905 183.022 78.5231C181.57 81.1551 179.528 83.1292 176.896 84.4455C174.309 85.7618 171.268 86.4196 167.774 86.4196C166.321 86.4196 164.892 86.1931 163.485 85.7387C162.123 85.285 160.762 84.5587 159.401 83.5605L157.29 85.6709ZM166.412 61.0278C165.505 61.0278 164.506 61.3682 163.417 62.0489V75.9359C164.642 76.5714 165.822 76.8895 166.957 76.8895C168.499 76.8895 169.793 76.1855 170.837 74.779C171.926 73.3264 172.471 71.3299 172.471 68.7882C172.471 66.2471 171.949 64.3181 170.905 63.0019C169.861 61.6858 168.364 61.0278 166.412 61.0278Z" fill="black"/>
<path d="M197.522 85.8072L197.795 85.0585L185.949 54.6967L197.386 51.4291L204.125 71.3068L210.457 52.6545H222.778L208.278 89.5513C207.597 91.3213 206.485 92.955 204.942 94.4523C203.4 95.9504 201.607 97.2213 199.565 98.2649C197.522 99.3086 195.412 100.08 193.233 100.58L189.081 90.9808C190.17 90.5272 191.305 90.0273 192.485 89.4828C193.71 88.9382 194.799 88.3482 195.752 87.7128C196.706 87.078 197.296 86.4426 197.522 85.8072Z" fill="black"/>
<path d="M67.7632 83.9897C77.1577 83.9897 81.4331 63.2347 81.4331 55.365C81.4331 49.2311 77.1913 45.5137 71.6148 45.5137C66.0729 45.5137 61.5738 47.8915 61.518 50.836C61.5179 58.6068 60.1471 83.9897 67.7632 83.9897Z" fill="white"/>
<path d="M33.5529 83.9897C24.1586 83.9897 19.8828 63.2347 19.8828 55.365C19.8828 49.2311 24.1247 45.5137 29.7013 45.5137C35.2432 45.5137 39.7423 47.8915 39.7982 50.836C39.7983 58.6068 41.169 83.9897 33.5529 83.9897Z" fill="white"/>
<path d="M67.7632 83.9897C77.1577 83.9897 81.4331 63.2347 81.4331 55.365C81.4331 49.2311 77.1913 45.5137 71.6148 45.5137C66.0729 45.5137 61.5738 47.8915 61.518 50.836C61.5179 58.6068 60.1471 83.9897 67.7632 83.9897Z" stroke="black" stroke-width="2.78434"/>
<path d="M33.5529 83.9897C24.1586 83.9897 19.8828 63.2347 19.8828 55.365C19.8828 49.2311 24.1247 45.5137 29.7013 45.5137C35.2432 45.5137 39.7423 47.8915 39.7982 50.836C39.7983 58.6068 41.169 83.9897 33.5529 83.9897Z" stroke="black" stroke-width="2.78434"/>
<path d="M50.1971 59.1401C58.9083 59.1401 67.0685 56.7623 74.0594 52.6194C74.258 52.5015 74.4719 52.5163 74.6257 52.6027C74.6998 52.6444 74.7438 52.6944 74.7669 52.7361C74.7865 52.7713 74.806 52.8252 74.7962 52.9195C73.7141 63.6323 67.9044 72.4874 60.0954 76.5636C57.5136 77.9107 55.7395 80.2511 54.1815 82.3063C54.1534 82.3433 54.1253 82.3804 54.0974 82.4174C52.831 84.0868 51.6872 85.5806 50.2898 86.6816C48.8924 85.5806 47.7486 84.0868 46.4823 82.4174C46.4544 82.3804 46.4263 82.3433 46.3982 82.3063C44.8401 80.2511 43.066 77.9107 40.4842 76.5636C32.7042 72.5028 26.9089 63.6979 25.7956 53.0381C25.7858 52.944 25.8049 52.89 25.8242 52.8547C25.8471 52.8129 25.891 52.7627 25.9648 52.7207C26.1178 52.6338 26.3317 52.6181 26.531 52.7349C33.4781 56.8065 41.5672 59.1401 50.1971 59.1401Z" fill="#FFDF6F" stroke="black" stroke-width="2.78434"/>
<path d="M50.3811 60.9038C63.9133 60.9038 74.8833 57.2472 74.8833 52.7364C74.8833 48.2257 63.9133 44.569 50.3811 44.569C36.8489 44.569 25.8789 48.2257 25.8789 52.7364C25.8789 57.2472 36.8489 60.9038 50.3811 60.9038Z" fill="black" stroke="black" stroke-width="2.78434"/>
<path d="M30.7031 66.4722C30.7031 66.4722 42.7887 70.556 50.5647 70.556C58.3408 70.556 70.4264 66.4722 70.4264 66.4722" stroke="black" stroke-width="2.78434" stroke-linecap="round"/>
<path d="M21.793 17.811C21.793 20.8709 24.2735 23.3514 27.3334 23.3514C30.3932 23.3514 32.8738 20.8709 32.8738 17.811C32.8738 14.7511 30.3932 12.2706 27.3334 12.2706C24.2735 12.2706 21.793 14.7511 21.793 17.811Z" fill="black"/>
<path d="M78.1201 17.811C78.1201 20.8709 75.6392 23.3514 72.5795 23.3514C69.5196 23.3514 67.0391 20.8709 67.0391 17.811C67.0391 14.7511 69.5196 12.2706 72.5795 12.2706C75.6392 12.2706 78.1201 14.7511 78.1201 17.811Z" fill="black"/>
<path d="M73.5958 16.98L63.2537 27.322M26.4102 16.98L36.7523 27.322L26.4102 16.98Z" stroke="black" stroke-width="2.7702"/>
<path d="M28.9059 50.8722C25.9198 49.4507 24.182 46.2583 24.7641 43.0028C27.2627 29.0298 37.6753 18.5497 50.1412 18.5497C62.6373 18.5497 73.0706 29.0807 75.5361 43.1043C76.11 46.3658 74.3582 49.5566 71.3617 50.9667C64.9502 53.9839 57.7888 55.6704 50.2336 55.6704C42.5999 55.6704 35.3682 53.9486 28.9059 50.8722Z" fill="#FFDF6F" stroke="black" stroke-width="2.7702"/>
<path d="M34.2317 47.3983C31.8281 46.4193 30.4023 43.8619 31.2352 41.4039C33.8037 33.8234 41.2963 28.3377 50.1392 28.3377C58.9821 28.3377 66.4746 33.8234 69.0432 41.4039C69.8761 43.8619 68.4502 46.4193 66.0466 47.3983C61.1373 49.3977 55.7669 50.4993 50.1392 50.4993C44.5114 50.4993 39.141 49.3977 34.2317 47.3983Z" fill="black"/>
<path d="M61.1286 40.1573C61.1285 42.1972 59.0614 43.8508 56.5116 43.8508C53.9616 43.8508 51.8945 42.1972 51.8945 40.1573C51.8945 38.1174 53.9616 36.4637 56.5116 36.4637C59.0614 36.4637 61.1286 38.1174 61.1286 40.1573Z" fill="white"/>
<path d="M47.9137 40.1595C47.9137 42.1994 45.8466 43.8531 43.2967 43.8531C40.7468 43.8531 38.6797 42.1994 38.6797 40.1595C38.6797 38.1195 40.7468 36.4659 43.2967 36.4659C45.8466 36.4659 47.9137 38.1195 47.9137 40.1595Z" fill="white"/>
<path d="M90.478 31.2554C90.698 31.3874 90.9564 31.5084 91.2534 31.6184C91.5614 31.7283 91.8803 31.8273 92.2103 31.9153C92.5512 31.9923 92.8867 32.0528 93.2166 32.0968C93.5576 32.1408 93.871 32.1628 94.157 32.1628C95.0808 32.1628 95.8782 32.0198 96.5491 31.7338C97.22 31.4479 97.7315 31.0574 98.0834 30.5625C98.4463 30.0566 98.6278 29.4902 98.6278 28.8633C98.6278 28.4013 98.5233 27.9889 98.3144 27.6259C98.1164 27.252 97.8524 26.911 97.5225 26.6031C97.1925 26.2951 96.8241 26.0147 96.4171 25.7617C96.0212 25.5087 95.6253 25.2668 95.2293 25.0358C94.9324 24.8598 94.6519 24.7114 94.3879 24.5904C94.135 24.4584 93.926 24.3264 93.761 24.1944C93.6071 24.0625 93.5301 23.9195 93.5301 23.7655C93.5301 23.5565 93.6291 23.3751 93.827 23.2211C94.025 23.0561 94.2945 22.9736 94.6354 22.9736C94.8884 22.9736 95.1193 22.9901 95.3283 23.0231C95.5373 23.0451 95.7682 23.0891 96.0212 23.1551C96.2852 23.2211 96.6151 23.3256 97.0111 23.4685L97.9019 21.4393C97.462 21.1424 96.9396 20.9169 96.3347 20.7629C95.7407 20.598 95.1633 20.5155 94.6024 20.5155C93.7555 20.5155 93.0186 20.6585 92.3917 20.9444C91.7648 21.2194 91.2809 21.5988 90.9399 22.0827C90.61 22.5667 90.4395 23.1166 90.4285 23.7325C90.4285 24.2054 90.533 24.6344 90.742 25.0193C90.9509 25.3933 91.2259 25.7287 91.5669 26.0257C91.9078 26.3226 92.2708 26.5921 92.6557 26.8341C93.0516 27.076 93.4311 27.307 93.794 27.527C94.08 27.6919 94.3549 27.8514 94.6189 28.0054C94.8829 28.1484 95.0973 28.2913 95.2623 28.4343C95.4383 28.5663 95.5263 28.6983 95.5263 28.8303C95.5263 28.9622 95.4713 29.0997 95.3613 29.2427C95.2513 29.3747 95.0863 29.4847 94.8664 29.5727C94.6574 29.6606 94.3934 29.7046 94.0745 29.7046C93.8105 29.7046 93.5081 29.6716 93.1671 29.6056C92.8372 29.5287 92.5182 29.4352 92.2103 29.3252C91.9133 29.2152 91.6658 29.1052 91.4679 28.9952L90.478 31.2554ZM103.113 20.7299H100.111V27.6589C100.111 28.6268 100.32 29.4517 100.737 30.1336C101.166 30.8045 101.76 31.3159 102.519 31.6678C103.278 32.0088 104.152 32.1793 105.142 32.1793C106.143 32.1793 107.018 32.0088 107.765 31.6678C108.524 31.3159 109.113 30.8045 109.531 30.1336C109.96 29.4517 110.174 28.6268 110.174 27.6589V20.7299H107.172V27.5105C107.172 27.9724 107.084 28.3683 106.908 28.6983C106.732 29.0172 106.49 29.2592 106.182 29.4242C105.885 29.5891 105.538 29.6716 105.142 29.6716C104.746 29.6716 104.394 29.5891 104.086 29.4242C103.779 29.2592 103.537 29.0172 103.361 28.6983C103.196 28.3683 103.113 27.9724 103.113 27.5105V20.7299ZM115.651 31.9483V28.6818H117.235C117.84 28.6818 118.423 28.6048 118.984 28.4508C119.556 28.2968 120.067 28.0604 120.518 27.7414C120.969 27.4225 121.326 27.0155 121.59 26.5206C121.854 26.0257 121.986 25.4428 121.986 24.7719C121.986 23.87 121.772 23.1221 121.343 22.5282C120.925 21.9233 120.364 21.4723 119.66 21.1754C118.967 20.8784 118.203 20.7299 117.367 20.7299H112.649V31.9483H115.651ZM117.268 23.0891C117.609 23.0891 117.895 23.1606 118.126 23.3036C118.368 23.4465 118.555 23.6445 118.687 23.8975C118.819 24.1504 118.885 24.4419 118.885 24.7719C118.885 25.0578 118.813 25.3218 118.67 25.5637C118.538 25.7947 118.351 25.9817 118.109 26.1247C117.878 26.2566 117.609 26.3226 117.301 26.3226H115.651V23.0891H117.268ZM126.639 31.9483V28.6818H128.223C128.828 28.6818 129.411 28.6048 129.971 28.4508C130.543 28.2968 131.055 28.0604 131.506 27.7414C131.957 27.4225 132.314 27.0155 132.578 26.5206C132.842 26.0257 132.974 25.4428 132.974 24.7719C132.974 23.87 132.76 23.1221 132.331 22.5282C131.913 21.9233 131.352 21.4723 130.648 21.1754C129.955 20.8784 129.191 20.7299 128.355 20.7299H123.636V31.9483H126.639ZM128.256 23.0891C128.597 23.0891 128.883 23.1606 129.114 23.3036C129.356 23.4465 129.542 23.6445 129.674 23.8975C129.806 24.1504 129.872 24.4419 129.872 24.7719C129.872 25.0578 129.801 25.3218 129.658 25.5637C129.526 25.7947 129.339 25.9817 129.097 26.1247C128.866 26.2566 128.597 26.3226 128.289 26.3226H126.639V23.0891H128.256ZM139.59 32.1793C138.402 32.1793 137.374 31.9208 136.505 31.4039C135.636 30.887 134.965 30.1886 134.492 29.3087C134.03 28.4288 133.799 27.4555 133.799 26.3886C133.799 25.2338 134.047 24.2164 134.542 23.3366C135.036 22.4457 135.718 21.7528 136.587 21.2579C137.467 20.7519 138.468 20.499 139.59 20.499C140.811 20.499 141.85 20.7574 142.708 21.2744C143.577 21.7913 144.242 22.4842 144.704 23.3531C145.166 24.2219 145.397 25.1953 145.397 26.2731C145.397 27.428 145.149 28.4508 144.655 29.3417C144.171 30.2326 143.489 30.931 142.609 31.4369C141.74 31.9318 140.734 32.1793 139.59 32.1793ZM139.573 29.6716C140.09 29.6716 140.552 29.5452 140.959 29.2922C141.377 29.0392 141.707 28.6598 141.949 28.1539C142.191 27.6479 142.312 27.021 142.312 26.2731C142.312 25.6462 142.202 25.0908 141.982 24.6069C141.773 24.1119 141.465 23.7215 141.058 23.4355C140.662 23.1496 140.184 23.0066 139.623 23.0066C139.128 23.0066 138.671 23.1496 138.253 23.4355C137.836 23.7105 137.5 24.101 137.247 24.6069C137.005 25.1018 136.884 25.6902 136.884 26.3721C136.884 26.999 136.989 27.5654 137.198 28.0714C137.418 28.5663 137.726 28.9567 138.121 29.2427C138.528 29.5287 139.012 29.6716 139.573 29.6716ZM151.826 23.0891C152.167 23.0891 152.453 23.1441 152.684 23.2541C152.926 23.3531 153.113 23.5125 153.245 23.7325C153.377 23.9525 153.443 24.2274 153.443 24.5574C153.443 24.8433 153.371 25.1018 153.228 25.3328C153.096 25.5637 152.909 25.7452 152.667 25.8772C152.436 25.9982 152.167 26.0587 151.859 26.0587H150.209V23.0891H151.826ZM147.207 20.7299V31.9483H150.209V28.4178H151.216C151.381 28.4178 151.546 28.4178 151.71 28.4178C151.875 28.4178 152.04 28.4178 152.205 28.4178L154.02 31.9483H157.501L155.026 27.527C155.477 27.219 155.84 26.8176 156.115 26.3226C156.401 25.8277 156.544 25.2393 156.544 24.5574C156.544 23.6555 156.33 22.9241 155.901 22.3632C155.483 21.8023 154.922 21.3898 154.218 21.1259C153.525 20.8619 152.761 20.7299 151.925 20.7299H147.207ZM167.43 20.7299H157.829V23.0891H161.128V31.9483H164.131V23.0891H167.711L167.43 20.7299ZM187.836 20.7299L184.619 31.9483H181.616L179.768 24.9038L178.036 31.9483H175.034L171.668 20.8619L174.621 20.565L176.584 28.3518L178.267 20.7299H181.253L183.167 28.3518L184.85 20.7299H187.836ZM192.323 31.9483V20.7299H189.321V31.9483H192.323ZM203.406 20.7299H193.805V23.0891H197.104V31.9483H200.107V23.0891H203.687L203.406 20.7299ZM215.105 31.9483V20.7299H212.103V25.2008H208.176V20.631L205.174 20.7299V31.9483H208.176V27.5599H212.103V31.9483H215.105Z" fill="black"/>
</svg>
