<svg width="241" height="111" viewBox="0 0 241 111" fill="none" xmlns="http://www.w3.org/2000/svg">
<mask id="path-1-outside-1_2003_16782" maskUnits="userSpaceOnUse" x="-0.191406" y="0.146652" width="242" height="111" fill="black">
<rect fill="white" x="-0.191406" y="0.146652" width="242" height="111"/>
<path d="M226.316 4.14665H14.9934C8.8162 4.14665 3.80859 9.15426 3.80859 15.3315V86.0054C3.80859 92.1826 8.81621 97.1902 14.9934 97.1902H184.677L187.459 103.621C188.663 106.405 191.682 107.933 194.639 107.256C197.336 106.638 199.936 105.685 202.428 104.411C204.99 103.101 207.303 101.473 209.324 99.5118C210.077 98.7807 210.774 98.007 211.406 97.1902H226.316C232.493 97.1902 237.501 92.1826 237.501 86.0054V15.3315C237.501 9.15426 232.493 4.14665 226.316 4.14665Z"/>
</mask>
<path d="M226.316 4.14665H14.9934C8.8162 4.14665 3.80859 9.15426 3.80859 15.3315V86.0054C3.80859 92.1826 8.81621 97.1902 14.9934 97.1902H184.677L187.459 103.621C188.663 106.405 191.682 107.933 194.639 107.256C197.336 106.638 199.936 105.685 202.428 104.411C204.99 103.101 207.303 101.473 209.324 99.5118C210.077 98.7807 210.774 98.007 211.406 97.1902H226.316C232.493 97.1902 237.501 92.1826 237.501 86.0054V15.3315C237.501 9.15426 232.493 4.14665 226.316 4.14665Z" fill="#F8C455"/>
<path d="M187.459 103.621L184.251 105.009L184.251 105.01L187.459 103.621ZM194.639 107.256L195.419 110.663L195.419 110.663L194.639 107.256ZM202.428 104.411L204.018 107.524L204.019 107.524L202.428 104.411ZM209.324 99.5118L211.758 102.02L211.758 102.02L209.324 99.5118ZM211.406 97.1902V93.695C210.325 93.695 209.304 94.1954 208.642 95.0504L211.406 97.1902ZM184.677 97.1902L187.885 95.8025C187.331 94.5232 186.071 93.695 184.677 93.695V97.1902ZM14.9934 7.6419H226.316V0.651401H14.9934V7.6419ZM234.006 15.3315V86.0054H240.996V15.3315H234.006ZM7.30385 86.0054V15.3315H0.313342V86.0054H7.30385ZM14.9934 93.695C10.7466 93.695 7.30385 90.2522 7.30385 86.0054H0.313342C0.313342 94.113 6.88583 100.685 14.9934 100.685V93.695ZM234.006 86.0054C234.006 90.2523 230.563 93.695 226.316 93.695V100.685C234.424 100.685 240.996 94.113 240.996 86.0054H234.006ZM226.316 7.6419C230.563 7.6419 234.006 11.0846 234.006 15.3315H240.996C240.996 7.22389 234.424 0.651401 226.316 0.651401V7.6419ZM14.9934 0.651401C6.88583 0.651401 0.313342 7.22389 0.313342 15.3315H7.30385C7.30385 11.0846 10.7466 7.6419 14.9934 7.6419V0.651401ZM184.251 105.01C186.125 109.34 190.82 111.716 195.419 110.663L193.858 103.849C192.544 104.15 191.202 103.471 190.667 102.233L184.251 105.01ZM195.419 110.663C198.406 109.979 201.276 108.925 204.018 107.524L200.837 101.299C198.595 102.445 196.267 103.297 193.858 103.849L195.419 110.663ZM204.019 107.524C206.87 106.066 209.471 104.239 211.758 102.02L206.889 97.0037C205.134 98.7073 203.111 100.137 200.837 101.299L204.019 107.524ZM211.758 102.02C212.623 101.181 213.431 100.285 214.17 99.33L208.642 95.0504C208.117 95.7293 207.531 96.3807 206.889 97.0039L211.758 102.02ZM226.316 93.695H211.406V100.685H226.316V93.695ZM184.677 93.695H14.9934V100.685H184.677V93.695ZM181.469 98.578L184.251 105.009L190.667 102.234L187.885 95.8025L181.469 98.578Z" fill="black" mask="url(#path-1-outside-1_2003_16782)"/>
<path fill-rule="evenodd" clip-rule="evenodd" d="M98.7679 33.6327C96.1451 33.6327 93.7977 35.2595 92.877 37.7151L75.5175 84.0062C74.7933 85.9383 75.0624 88.1026 76.2375 89.7985C77.4126 91.4951 79.3448 92.5066 81.4084 92.5066H93.7299C96.4024 92.5066 98.7826 90.8191 99.6669 88.2976L101.39 83.3847H108.423L110.307 88.9226C111.25 91.6936 113.98 93.4489 116.892 93.156L129.078 91.9306C129.114 91.9264 129.151 91.9229 129.188 91.9187C129.996 92.2955 130.898 92.5066 131.848 92.5066H144.238C145.488 92.5066 146.654 92.1417 147.633 91.5126C148.612 92.1417 149.778 92.5066 151.029 92.5066H157.292C158.326 92.5066 159.333 92.2522 160.231 91.7782C160.646 91.9509 161.069 92.1089 161.497 92.2522C161.516 92.2585 161.536 92.2648 161.555 92.271C163.575 92.9226 165.655 93.2553 167.775 93.2553C172.054 93.2553 176.103 92.4486 179.731 90.6066C181.354 89.7936 182.825 88.7996 184.137 87.6363C183.774 88.0991 183.474 88.6136 183.25 89.1687C182.619 90.7296 182.641 92.478 183.309 94.0229L187.461 103.622C188.666 106.405 191.684 107.933 194.641 107.256C197.339 106.638 199.938 105.685 202.43 104.411C204.993 103.101 207.305 101.473 209.326 99.5118C211.43 97.4699 213.093 95.0959 214.143 92.378L214.152 92.3542L228.636 55.5C229.397 53.5632 229.151 51.3754 227.979 49.6558C226.807 47.9362 224.861 46.9073 222.78 46.9073H210.459C207.763 46.9073 205.367 48.6243 204.501 51.1767L204.131 52.2669L203.347 49.9533C202.269 46.7751 198.887 45.0021 195.66 45.9241L184.223 49.1917C183.657 49.3535 183.122 49.5922 182.631 49.8972C181.736 49.2646 180.781 48.7018 179.765 48.2124C176.651 46.7104 173.266 45.9379 169.71 45.7805V38.1542C169.71 36.4197 168.994 34.7621 167.731 33.5733C166.467 32.3843 164.77 31.7696 163.039 31.8742L150.649 32.623C149.774 32.6759 148.951 32.9057 148.211 33.2763C146.992 32.2829 145.439 31.7787 143.858 31.8742L131.468 32.623C128.147 32.8237 125.556 35.5758 125.556 38.903V60.225L117.043 37.6998C116.118 35.2522 113.774 33.6327 111.157 33.6327H98.7679ZM189.188 80.8465C188.978 81.2855 188.753 81.7175 188.513 82.1425C187.631 83.7335 186.581 85.1722 185.37 86.4459C185.768 86.1551 186.202 85.9097 186.663 85.7174C187.673 85.2966 188.735 84.8297 189.851 84.3151C189.877 84.3026 189.905 84.29 189.932 84.2781C190.106 84.2005 190.274 84.1229 190.436 84.046L189.188 80.8465Z" fill="#F8C455"/>
<path d="M98.7697 39.9241H111.159L128.45 85.6706L116.265 86.8961L112.929 77.0933H96.9312L93.7316 86.2152H81.4102L98.7697 39.9241ZM109.389 67.3583L104.76 54.7645L100.336 67.3583H109.389Z" fill="black"/>
<path d="M144.238 86.2152H131.848V38.903L144.238 38.1542V86.2152Z" fill="black"/>
<path d="M157.29 86.2152H151.027V38.903L163.417 38.1542V52.9265C164.188 52.6542 164.982 52.45 165.8 52.3138C166.616 52.1323 167.456 52.0415 168.318 52.0415C171.586 52.0415 174.49 52.6542 177.032 53.8796C179.573 55.1049 181.57 56.9883 183.022 59.5298C184.52 62.0712 185.269 65.3162 185.269 69.2646C185.269 73.1674 184.52 76.4348 183.022 79.0674C181.57 81.6993 179.528 83.6734 176.896 84.9897C174.309 86.306 171.268 86.9639 167.774 86.9639C166.321 86.9639 164.892 86.7374 163.485 86.283C162.123 85.8293 160.762 85.103 159.401 84.1047L157.29 86.2152ZM166.412 61.572C165.505 61.572 164.506 61.9124 163.417 62.5931V76.4802C164.642 77.1156 165.822 77.4337 166.957 77.4337C168.499 77.4337 169.793 76.7298 170.837 75.3233C171.926 73.8706 172.471 71.8742 172.471 69.3324C172.471 66.7914 171.949 64.8623 170.905 63.5462C169.861 62.2301 168.364 61.572 166.412 61.572Z" fill="black"/>
<path d="M197.522 86.3515L197.795 85.6028L185.949 55.241L197.386 51.9735L204.125 71.8511L210.457 53.1988H222.778L208.278 90.0956C207.597 91.8656 206.485 93.4993 204.942 94.9967C203.4 96.4947 201.607 97.7656 199.565 98.8093C197.522 99.853 195.412 100.625 193.233 101.124L189.081 91.5252C190.17 91.0715 191.305 90.5717 192.485 90.0271C193.71 89.4825 194.799 88.8925 195.752 88.2571C196.706 87.6224 197.296 86.9869 197.522 86.3515Z" fill="black"/>
<path d="M67.7632 84.5339C77.1577 84.5339 81.4331 63.7789 81.4331 55.9093C81.4331 49.7754 77.1913 46.058 71.6148 46.058C66.0729 46.058 61.5738 48.4358 61.518 51.3803C61.5179 59.1511 60.1471 84.5339 67.7632 84.5339Z" fill="white"/>
<path d="M33.5529 84.5339C24.1586 84.5339 19.8828 63.7789 19.8828 55.9093C19.8828 49.7754 24.1247 46.058 29.7013 46.058C35.2432 46.058 39.7423 48.4358 39.7982 51.3803C39.7983 59.1511 41.169 84.5339 33.5529 84.5339Z" fill="white"/>
<path d="M67.7632 84.5339C77.1577 84.5339 81.4331 63.7789 81.4331 55.9093C81.4331 49.7754 77.1913 46.058 71.6148 46.058C66.0729 46.058 61.5738 48.4358 61.518 51.3803C61.5179 59.1511 60.1471 84.5339 67.7632 84.5339Z" stroke="black" stroke-width="2.78434"/>
<path d="M33.5529 84.5339C24.1586 84.5339 19.8828 63.7789 19.8828 55.9093C19.8828 49.7754 24.1247 46.058 29.7013 46.058C35.2432 46.058 39.7423 48.4358 39.7982 51.3803C39.7983 59.1511 41.169 84.5339 33.5529 84.5339Z" stroke="black" stroke-width="2.78434"/>
<path d="M50.1971 59.6845C58.9083 59.6845 67.0685 57.3066 74.0594 53.1638C74.258 53.0459 74.4719 53.0606 74.6257 53.147C74.6998 53.1888 74.7438 53.2387 74.7669 53.2805C74.7865 53.3156 74.806 53.3696 74.7962 53.4638C73.7141 64.1766 67.9044 73.0318 60.0954 77.1079C57.5136 78.455 55.7395 80.7954 54.1815 82.8506C54.1534 82.8877 54.1253 82.9247 54.0974 82.9618C52.831 84.6311 51.6872 86.125 50.2898 87.226C48.8924 86.125 47.7486 84.6311 46.4823 82.9618C46.4544 82.9247 46.4263 82.8877 46.3982 82.8506C44.8401 80.7954 43.066 78.455 40.4842 77.1079C32.7042 73.0472 26.9089 64.2423 25.7956 53.5825C25.7858 53.4884 25.8049 53.4343 25.8242 53.399C25.8471 53.3572 25.891 53.3071 25.9648 53.2651C26.1178 53.1781 26.3317 53.1625 26.531 53.2793C33.4781 57.3508 41.5672 59.6845 50.1971 59.6845Z" fill="#FFDF6F" stroke="black" stroke-width="2.78434"/>
<path d="M50.3811 61.4481C63.9133 61.4481 74.8833 57.7914 74.8833 53.2807C74.8833 48.7699 63.9133 45.1133 50.3811 45.1133C36.8489 45.1133 25.8789 48.7699 25.8789 53.2807C25.8789 57.7914 36.8489 61.4481 50.3811 61.4481Z" fill="black" stroke="black" stroke-width="2.78434"/>
<path d="M30.7031 67.0165C30.7031 67.0165 42.7887 71.1003 50.5647 71.1003C58.3408 71.1003 70.4264 67.0165 70.4264 67.0165" stroke="black" stroke-width="2.78434" stroke-linecap="round"/>
<path d="M21.793 18.3553C21.793 21.4152 24.2735 23.8957 27.3334 23.8957C30.3932 23.8957 32.8738 21.4152 32.8738 18.3553C32.8738 15.2954 30.3932 12.8149 27.3334 12.8149C24.2735 12.8149 21.793 15.2954 21.793 18.3553Z" fill="black"/>
<path d="M78.1201 18.3553C78.1201 21.4152 75.6392 23.8957 72.5795 23.8957C69.5196 23.8957 67.0391 21.4152 67.0391 18.3553C67.0391 15.2954 69.5196 12.8149 72.5795 12.8149C75.6392 12.8149 78.1201 15.2954 78.1201 18.3553Z" fill="black"/>
<path d="M73.5958 17.5243L63.2537 27.8663M26.4102 17.5243L36.7523 27.8663L26.4102 17.5243Z" stroke="black" stroke-width="2.7702"/>
<path d="M28.9059 51.4165C25.9198 49.9949 24.182 46.8026 24.7641 43.547C27.2627 29.5741 37.6753 19.094 50.1412 19.094C62.6373 19.094 73.0706 29.625 75.5361 43.6486C76.11 46.9101 74.3582 50.1009 71.3617 51.511C64.9502 54.5281 57.7888 56.2147 50.2336 56.2147C42.5999 56.2147 35.3682 54.4929 28.9059 51.4165Z" fill="#FFDF6F" stroke="black" stroke-width="2.7702"/>
<path d="M34.2317 47.9426C31.8281 46.9636 30.4023 44.4062 31.2352 41.9482C33.8037 34.3677 41.2963 28.8821 50.1392 28.8821C58.9821 28.8821 66.4746 34.3677 69.0432 41.9482C69.8761 44.4062 68.4502 46.9636 66.0466 47.9426C61.1373 49.942 55.7669 51.0437 50.1392 51.0437C44.5114 51.0437 39.141 49.942 34.2317 47.9426Z" fill="black"/>
<path d="M61.1286 40.7016C61.1285 42.7414 59.0614 44.3951 56.5116 44.3951C53.9616 44.3951 51.8945 42.7414 51.8945 40.7016C51.8945 38.6617 53.9616 37.008 56.5116 37.008C59.0614 37.008 61.1286 38.6617 61.1286 40.7016Z" fill="white"/>
<path d="M47.9137 40.7038C47.9137 42.7437 45.8466 44.3974 43.2967 44.3974C40.7468 44.3974 38.6797 42.7437 38.6797 40.7038C38.6797 38.6638 40.7468 37.0101 43.2967 37.0101C45.8466 37.0101 47.9137 38.6638 47.9137 40.7038Z" fill="white"/>
<path d="M101.438 17.4543H90.1279V20.2333H94.0146V30.6692H97.5516V20.2333H101.769L101.438 17.4543ZM107.057 30.6692V17.4543H103.52V30.6692H107.057ZM113.7 30.6692V26.8213H115.565C116.278 26.8213 116.965 26.7306 117.625 26.5493C118.299 26.3679 118.901 26.0893 119.433 25.7136C119.964 25.3379 120.385 24.8585 120.696 24.2755C121.007 23.6925 121.162 23.0059 121.162 22.2156C121.162 21.1532 120.91 20.2722 120.404 19.5726C119.912 18.86 119.251 18.3288 118.422 17.979C117.606 17.6292 116.705 17.4543 115.721 17.4543H110.163V30.6692H113.7ZM115.604 20.2333C116.006 20.2333 116.343 20.3175 116.615 20.486C116.9 20.6544 117.12 20.8876 117.275 21.1856C117.431 21.4836 117.509 21.8269 117.509 22.2156C117.509 22.5524 117.424 22.8633 117.256 23.1484C117.101 23.4204 116.88 23.6407 116.595 23.8091C116.323 23.9646 116.006 24.0423 115.643 24.0423H113.7V20.2333H115.604ZM145.06 17.4543L141.271 30.6692H137.734L135.557 22.371L133.517 30.6692H129.98L126.016 17.6098L129.494 17.26L131.807 26.4326L133.789 17.4543H137.306L139.561 26.4326L141.543 17.4543H145.06ZM150.346 30.6692V17.4543H146.81V30.6692H150.346ZM163.402 17.4543H152.091V20.2333H155.978V30.6692H159.515V20.2333H163.732L163.402 17.4543ZM177.183 30.6692V17.4543H173.646V22.7208H169.021V17.3377L165.484 17.4543V30.6692H169.021V25.4998H173.646V30.6692H177.183Z" fill="black"/>
</svg>
