<svg width="242" height="111" viewBox="0 0 242 111" fill="none" xmlns="http://www.w3.org/2000/svg">
<mask id="path-1-outside-1_2003_16758" maskUnits="userSpaceOnUse" x="0.148438" y="0.146652" width="242" height="111" fill="black">
<rect fill="white" x="0.148438" y="0.146652" width="242" height="111"/>
<path d="M226.656 4.14665H15.3332C9.15605 4.14665 4.14844 9.15426 4.14844 15.3315V86.0054C4.14844 92.1826 9.15605 97.1902 15.3332 97.1902H185.017L187.799 103.621C189.003 106.405 192.022 107.933 194.979 107.256C197.676 106.638 200.275 105.685 202.768 104.411C205.33 103.101 207.643 101.473 209.664 99.5118C210.417 98.7807 211.114 98.007 211.746 97.1902H226.656C232.833 97.1902 237.841 92.1826 237.841 86.0054V15.3315C237.841 9.15426 232.833 4.14665 226.656 4.14665Z"/>
</mask>
<path d="M226.656 4.14665H15.3332C9.15605 4.14665 4.14844 9.15426 4.14844 15.3315V86.0054C4.14844 92.1826 9.15605 97.1902 15.3332 97.1902H185.017L187.799 103.621C189.003 106.405 192.022 107.933 194.979 107.256C197.676 106.638 200.275 105.685 202.768 104.411C205.33 103.101 207.643 101.473 209.664 99.5118C210.417 98.7807 211.114 98.007 211.746 97.1902H226.656C232.833 97.1902 237.841 92.1826 237.841 86.0054V15.3315C237.841 9.15426 232.833 4.14665 226.656 4.14665Z" fill="white"/>
<path d="M187.799 103.621L184.591 105.009L184.591 105.01L187.799 103.621ZM194.979 107.256L195.759 110.663L195.759 110.663L194.979 107.256ZM202.768 104.411L204.358 107.524L204.358 107.524L202.768 104.411ZM209.664 99.5118L212.098 102.02L212.098 102.02L209.664 99.5118ZM211.746 97.1902V93.695C210.665 93.695 209.644 94.1954 208.982 95.0504L211.746 97.1902ZM185.017 97.1902L188.225 95.8025C187.671 94.5232 186.41 93.695 185.017 93.695V97.1902ZM15.3332 7.6419H226.656V0.651401H15.3332V7.6419ZM234.346 15.3315V86.0054H241.336V15.3315H234.346ZM7.64369 86.0054V15.3315H0.653186V86.0054H7.64369ZM15.3332 93.695C11.0864 93.695 7.64369 90.2522 7.64369 86.0054H0.653186C0.653186 94.113 7.22568 100.685 15.3332 100.685V93.695ZM234.346 86.0054C234.346 90.2523 230.903 93.695 226.656 93.695V100.685C234.764 100.685 241.336 94.113 241.336 86.0054H234.346ZM226.656 7.6419C230.903 7.6419 234.346 11.0846 234.346 15.3315H241.336C241.336 7.22389 234.764 0.651401 226.656 0.651401V7.6419ZM15.3332 0.651401C7.22567 0.651401 0.653186 7.22389 0.653186 15.3315H7.64369C7.64369 11.0846 11.0864 7.6419 15.3332 7.6419V0.651401ZM184.591 105.01C186.464 109.34 191.16 111.716 195.759 110.663L194.198 103.849C192.883 104.15 191.542 103.471 191.007 102.233L184.591 105.01ZM195.759 110.663C198.745 109.979 201.616 108.925 204.358 107.524L201.177 101.299C198.935 102.445 196.607 103.297 194.198 103.849L195.759 110.663ZM204.358 107.524C207.21 106.066 209.811 104.239 212.098 102.02L207.229 97.0037C205.474 98.7073 203.45 100.137 201.177 101.299L204.358 107.524ZM212.098 102.02C212.962 101.181 213.77 100.285 214.51 99.33L208.982 95.0504C208.457 95.7293 207.871 96.3807 207.229 97.0039L212.098 102.02ZM226.656 93.695H211.746V100.685H226.656V93.695ZM185.017 93.695H15.3332V100.685H185.017V93.695ZM181.809 98.578L184.591 105.009L191.007 102.234L188.225 95.8025L181.809 98.578Z" fill="black" mask="url(#path-1-outside-1_2003_16758)"/>
<path fill-rule="evenodd" clip-rule="evenodd" d="M99.1 33.6327C96.4771 33.6327 94.1297 35.2595 93.2091 37.7151L75.8496 84.0062C75.1253 85.9383 75.3945 88.1026 76.5696 89.7985C77.7447 91.4951 79.6769 92.5066 81.7405 92.5066H94.0619C96.7344 92.5066 99.1146 90.8191 99.9989 88.2976L101.722 83.3847H108.755L110.639 88.9226C111.582 91.6936 114.312 93.4489 117.224 93.156L129.41 91.9306C129.446 91.9264 129.483 91.9229 129.52 91.9187C130.328 92.2955 131.23 92.5066 132.18 92.5066H144.57C145.82 92.5066 146.986 92.1417 147.965 91.5126C148.944 92.1417 150.11 92.5066 151.361 92.5066H157.624C158.658 92.5066 159.665 92.2522 160.563 91.7782C160.979 91.9509 161.401 92.1088 161.829 92.2522C161.848 92.2584 161.868 92.2647 161.887 92.271C163.907 92.9225 165.987 93.2553 168.107 93.2553C172.386 93.2553 176.435 92.4486 180.063 90.6066C181.686 89.7936 183.157 88.7995 184.469 87.6363C184.106 88.0991 183.806 88.6136 183.582 89.1686C182.951 90.7296 182.973 92.4779 183.641 94.0228L187.793 103.622C188.998 106.405 192.016 107.933 194.973 107.256C197.671 106.638 200.27 105.685 202.762 104.411C205.325 103.101 207.637 101.473 209.658 99.5118C211.762 97.4699 213.425 95.0959 214.475 92.378L214.484 92.3542L228.968 55.4999C229.729 53.5632 229.483 51.3754 228.311 49.6558C227.139 47.9362 225.193 46.9073 223.112 46.9073H210.791C208.095 46.9073 205.7 48.6243 204.833 51.1767L204.463 52.2669L203.679 49.9533C202.601 46.7751 199.219 45.0021 195.992 45.9241L184.555 49.1916C183.989 49.3535 183.454 49.5922 182.963 49.8972C182.068 49.2646 181.113 48.7017 180.098 48.2124C176.983 46.7104 173.598 45.9379 170.042 45.7805V38.1542C170.042 36.4197 169.326 34.7621 168.063 33.5732C166.799 32.3843 165.102 31.7696 163.371 31.8742L150.981 32.623C150.106 32.6759 149.283 32.9057 148.543 33.2763C147.324 32.2829 145.771 31.7786 144.19 31.8742L131.8 32.623C128.479 32.8237 125.888 35.5757 125.888 38.903V60.225L117.375 37.6997C116.45 35.2522 114.106 33.6327 111.489 33.6327H99.1ZM189.52 80.8464C189.31 81.2855 189.085 81.7175 188.845 82.1425C187.963 83.7335 186.913 85.1722 185.703 86.4458C186.1 86.155 186.534 85.9097 186.995 85.7174C188.005 85.2966 189.067 84.8296 190.183 84.3151C190.209 84.3026 190.237 84.29 190.264 84.2781C190.438 84.2005 190.606 84.1229 190.768 84.046L189.52 80.8464Z" fill="white"/>
<path d="M99.1017 39.9241H111.491L128.782 85.6706L116.597 86.896L113.261 77.0933H97.2632L94.0636 86.2152H81.7422L99.1017 39.9241ZM109.721 67.3583L105.092 54.7645L100.668 67.3583H109.721Z" fill="black"/>
<path d="M144.57 86.2152H132.18V38.903L144.57 38.1542V86.2152Z" fill="black"/>
<path d="M157.622 86.2152H151.359V38.903L163.749 38.1542V52.9265C164.52 52.6542 165.315 52.45 166.132 52.3138C166.948 52.1323 167.788 52.0415 168.65 52.0415C171.918 52.0415 174.822 52.6542 177.364 53.8796C179.905 55.1049 181.902 56.9883 183.354 59.5298C184.852 62.0712 185.601 65.3162 185.601 69.2646C185.601 73.1674 184.852 76.4348 183.354 79.0674C181.902 81.6993 179.86 83.6734 177.228 84.9897C174.641 86.306 171.6 86.9639 168.106 86.9639C166.653 86.9639 165.224 86.7374 163.817 86.283C162.455 85.8293 161.094 85.103 159.733 84.1047L157.622 86.2152ZM166.744 61.572C165.837 61.572 164.838 61.9124 163.749 62.5931V76.4802C164.974 77.1156 166.154 77.4337 167.289 77.4337C168.831 77.4337 170.125 76.7298 171.169 75.3233C172.258 73.8706 172.803 71.8742 172.803 69.3324C172.803 66.7914 172.281 64.8623 171.237 63.5462C170.193 62.2301 168.696 61.572 166.744 61.572Z" fill="black"/>
<path d="M197.854 86.3515L198.127 85.6028L186.281 55.241L197.718 51.9734L204.457 71.8511L210.789 53.1988H223.11L208.61 90.0956C207.929 91.8656 206.817 93.4993 205.274 94.9966C203.732 96.4947 201.939 97.7656 199.897 98.8093C197.854 99.8529 195.744 100.625 193.565 101.124L189.413 91.5252C190.502 91.0715 191.637 90.5717 192.817 90.0271C194.042 89.4825 195.131 88.8925 196.084 88.2571C197.038 87.6224 197.628 86.9869 197.854 86.3515Z" fill="black"/>
<path d="M68.0953 84.5339C77.4897 84.5339 81.7651 63.7789 81.7651 55.9093C81.7651 49.7754 77.5233 46.058 71.9468 46.058C66.405 46.058 61.9059 48.4357 61.85 51.3803C61.8499 59.1511 60.4791 84.5339 68.0953 84.5339Z" fill="white"/>
<path d="M33.8849 84.5339C24.4907 84.5339 20.2148 63.7789 20.2148 55.9093C20.2148 49.7754 24.4567 46.058 30.0334 46.058C35.5752 46.058 40.0743 48.4357 40.1302 51.3803C40.1304 59.1511 41.5011 84.5339 33.8849 84.5339Z" fill="white"/>
<path d="M68.0953 84.5339C77.4897 84.5339 81.7651 63.7789 81.7651 55.9093C81.7651 49.7754 77.5233 46.058 71.9468 46.058C66.405 46.058 61.9059 48.4357 61.85 51.3803C61.8499 59.1511 60.4791 84.5339 68.0953 84.5339Z" stroke="black" stroke-width="2.78434"/>
<path d="M33.8849 84.5339C24.4907 84.5339 20.2148 63.7789 20.2148 55.9093C20.2148 49.7754 24.4567 46.058 30.0334 46.058C35.5752 46.058 40.0743 48.4357 40.1302 51.3803C40.1304 59.1511 41.5011 84.5339 33.8849 84.5339Z" stroke="black" stroke-width="2.78434"/>
<path d="M50.5291 59.6845C59.2403 59.6845 67.4005 57.3066 74.3915 53.1638C74.59 53.0459 74.8039 53.0606 74.9577 53.147C75.0318 53.1887 75.0758 53.2387 75.0989 53.2805C75.1185 53.3156 75.1381 53.3696 75.1283 53.4638C74.0461 64.1766 68.2364 73.0318 60.4274 77.1079C57.8456 78.455 56.0715 80.7954 54.5135 82.8506C54.4854 82.8877 54.4574 82.9247 54.4294 82.9618C53.1631 84.6311 52.0193 86.125 50.6218 87.226C49.2244 86.125 48.0806 84.6311 46.8144 82.9618C46.7864 82.9247 46.7584 82.8877 46.7303 82.8506C45.1722 80.7954 43.398 78.455 40.8162 77.1079C33.0362 73.0471 27.2409 64.2423 26.1276 53.5824C26.1179 53.4884 26.1369 53.4343 26.1562 53.399C26.1792 53.3572 26.223 53.3071 26.2968 53.2651C26.4498 53.1781 26.6637 53.1625 26.863 53.2793C33.8101 57.3508 41.8992 59.6845 50.5291 59.6845Z" fill="#FFDF6F" stroke="black" stroke-width="2.78434"/>
<path d="M50.7131 61.4481C64.2453 61.4481 75.2153 57.7914 75.2153 53.2807C75.2153 48.7699 64.2453 45.1132 50.7131 45.1132C37.1809 45.1132 26.2109 48.7699 26.2109 53.2807C26.2109 57.7914 37.1809 61.4481 50.7131 61.4481Z" fill="black" stroke="black" stroke-width="2.78434"/>
<path d="M31.0352 67.0164C31.0352 67.0164 43.1208 71.1003 50.8968 71.1003C58.6728 71.1003 70.7584 67.0164 70.7584 67.0164" stroke="black" stroke-width="2.78434" stroke-linecap="round"/>
<path d="M22.125 18.3553C22.125 21.4152 24.6055 23.8957 27.6654 23.8957C30.7253 23.8957 33.2058 21.4152 33.2058 18.3553C33.2058 15.2954 30.7253 12.8149 27.6654 12.8149C24.6055 12.8149 22.125 15.2954 22.125 18.3553Z" fill="black"/>
<path d="M78.4522 18.3553C78.4522 21.4152 75.9712 23.8957 72.9115 23.8957C69.8516 23.8957 67.3711 21.4152 67.3711 18.3553C67.3711 15.2954 69.8516 12.8149 72.9115 12.8149C75.9712 12.8149 78.4522 15.2954 78.4522 18.3553Z" fill="black"/>
<path d="M73.9279 17.5242L63.5858 27.8663M26.7422 17.5242L37.0843 27.8663L26.7422 17.5242Z" stroke="black" stroke-width="2.7702"/>
<path d="M29.2379 51.4164C26.2519 49.9949 24.514 46.8026 25.0961 43.547C27.5947 29.5741 38.0074 19.094 50.4733 19.094C62.9693 19.094 73.4026 29.6249 75.8682 43.6486C76.4421 46.9101 74.6903 50.1009 71.6937 51.511C65.2822 54.5281 58.1209 56.2147 50.5656 56.2147C42.9319 56.2147 35.7002 54.4929 29.2379 51.4164Z" fill="#FFDF6F" stroke="black" stroke-width="2.7702"/>
<path d="M34.5638 47.9426C32.1601 46.9636 30.7343 44.4062 31.5672 41.9482C34.1357 34.3677 41.6283 28.8821 50.4712 28.8821C59.3141 28.8821 66.8067 34.3677 69.3752 41.9482C70.2081 44.4062 68.7823 46.9636 66.3787 47.9426C61.4694 49.942 56.099 51.0436 50.4712 51.0436C44.8434 51.0436 39.473 49.942 34.5638 47.9426Z" fill="black"/>
<path d="M61.4606 40.7015C61.4605 42.7414 59.3934 44.3951 56.8436 44.3951C54.2937 44.3951 52.2266 42.7414 52.2266 40.7015C52.2266 38.6616 54.2937 37.008 56.8436 37.008C59.3934 37.008 61.4606 38.6616 61.4606 40.7015Z" fill="white"/>
<path d="M48.2457 40.7038C48.2457 42.7437 46.1786 44.3973 43.6287 44.3973C41.0788 44.3973 39.0117 42.7437 39.0117 40.7038C39.0117 38.6638 41.0788 37.0101 43.6287 37.0101C46.1786 37.0101 48.2457 38.6638 48.2457 40.7038Z" fill="white"/>
<path d="M101.77 17.4543H90.46V20.2333H94.3467V30.6692H97.8836V20.2333H102.101L101.77 17.4543ZM107.389 30.6692V17.4543H103.852V30.6692H107.389ZM114.032 30.6692V26.8213H115.897C116.61 26.8213 117.297 26.7306 117.957 26.5492C118.631 26.3679 119.233 26.0893 119.765 25.7136C120.296 25.3379 120.717 24.8585 121.028 24.2755C121.339 23.6925 121.494 23.0058 121.494 22.2155C121.494 21.1532 121.242 20.2722 120.736 19.5726C120.244 18.86 119.583 18.3288 118.754 17.979C117.938 17.6292 117.037 17.4543 116.053 17.4543H110.495V30.6692H114.032ZM115.936 20.2333C116.338 20.2333 116.675 20.3175 116.947 20.486C117.232 20.6544 117.452 20.8876 117.607 21.1856C117.763 21.4835 117.841 21.8269 117.841 22.2155C117.841 22.5524 117.756 22.8633 117.588 23.1484C117.433 23.4204 117.212 23.6407 116.927 23.8091C116.655 23.9646 116.338 24.0423 115.975 24.0423H114.032V20.2333H115.936ZM145.393 17.4543L141.603 30.6692H138.066L135.889 22.371L133.849 30.6692H130.312L126.348 17.6098L129.826 17.26L132.139 26.4326L134.121 17.4543H137.639L139.893 26.4326L141.875 17.4543H145.393ZM150.678 30.6692V17.4543H147.142V30.6692H150.678ZM163.734 17.4543H152.424V20.2333H156.31V30.6692H159.847V20.2333H164.064L163.734 17.4543ZM177.515 30.6692V17.4543H173.978V22.7208H169.353V17.3377L165.816 17.4543V30.6692H169.353V25.4998H173.978V30.6692H177.515Z" fill="black"/>
</svg>
