<svg width="33" height="32" viewBox="0 0 33 32" fill="none" xmlns="http://www.w3.org/2000/svg">
<g clip-path="url(#clip0_714_24255)">
<path d="M6.80518 11.8904C7.28051 11.939 7.73995 11.8834 8.1607 11.7415L8.17063 11.7504L8.1865 11.7663C6.39733 13.8011 5.13509 16.4345 4.61411 19.3487C4.24497 21.4113 5.35141 23.3946 7.18326 24.267C10.1692 25.6884 13.5094 26.4835 17.0311 26.4835C20.5529 26.4835 23.8246 25.7043 26.7868 24.3107C28.6255 23.4452 29.7399 21.463 29.3767 19.3974C28.8617 16.4672 27.5727 13.8378 25.8004 11.7722C23.5627 9.16269 25.8073 11.7613 25.8073 11.7613C25.8073 11.7613 26.5764 11.9281 26.9892 11.8993C28.5819 11.7891 29.866 10.4878 29.9553 8.89271C30.0614 6.98196 28.4896 5.41067 26.5794 5.51787C25.0065 5.60622 23.7135 6.85987 23.5795 8.43016C23.5379 8.91951 23.6073 9.39 23.7651 9.81781L23.7393 9.84361L23.7244 9.8585C21.7933 8.43413 19.4901 7.59439 16.9924 7.59439C14.4948 7.59439 12.1757 8.44008 10.2396 9.87438L10.2248 9.8595L10.2009 9.83567L10.1543 9.78902C10.3061 9.36419 10.3716 8.89767 10.327 8.41328C10.1851 6.85093 8.89503 5.60721 7.32913 5.51887C5.41492 5.41167 3.84307 6.98394 3.95024 8.89668C4.03757 10.4491 5.25814 11.7315 6.80419 11.8913L6.80518 11.8904Z" fill="white" stroke="white" stroke-width="1.24274"/>
<path fill-rule="evenodd" clip-rule="evenodd" d="M7.78173 23.0097C6.48674 22.3933 5.73356 21.0086 5.98561 19.5961C6.51254 16.6461 7.85318 14.0555 9.71281 12.1735C9.99661 11.8856 10.2933 11.6157 10.5999 11.3615C12.4149 9.86571 14.6159 8.99023 16.9886 8.99023C19.3612 8.99023 21.5463 9.85975 23.3574 11.3457C23.665 11.5978 23.9617 11.8688 24.2465 12.1556C26.125 14.0485 27.4765 16.663 27.9995 19.6408C28.2486 21.0553 27.4884 22.4399 26.1895 23.0514C23.409 24.3596 20.304 25.0912 17.0283 25.0912C13.7526 25.0912 10.5821 24.3447 7.77974 23.0097H7.78173Z" fill="#FFDF6F"/>
<path d="M7.16535 7.92578L6.31592 8.77544L8.3363 10.7964C8.68858 10.5939 8.98529 10.304 9.19566 9.95664L7.16535 7.92578Z" fill="black"/>
<path fill-rule="evenodd" clip-rule="evenodd" d="M26.8036 6.30905C25.5037 6.28722 24.3724 7.38701 24.3595 8.68732C24.3546 9.16277 24.4885 9.60745 24.7227 9.98265L26.7778 7.92699L27.6273 8.77665L25.592 10.8115C25.9949 11.0358 26.4692 11.149 26.9713 11.1063C28.1284 11.008 29.0632 10.069 29.1564 8.91164C29.2696 7.50811 28.176 6.33188 26.8036 6.30905ZM24.7227 9.98265L23.786 10.9187C24.0936 11.1728 24.3893 11.4447 24.6731 11.7306L25.592 10.8115C25.2367 10.613 24.9371 10.3271 24.7227 9.98265ZM28.5928 19.5374C28.052 16.4584 26.6459 13.7218 24.6731 11.7306L24.2484 12.1555C23.9636 11.8686 23.6669 11.5986 23.3593 11.3465L23.786 10.9187C21.8727 9.33052 19.5348 8.39053 16.9895 8.39053C14.4442 8.39053 12.0913 9.33647 10.1742 10.9355L10.6009 11.3624C10.2932 11.6155 9.99752 11.8865 9.71371 12.1743L9.289 11.7495C7.3351 13.7287 5.93988 16.4405 5.3941 19.4917C5.09243 21.1831 5.99744 22.8259 7.52364 23.5525C10.4044 24.9242 13.6285 25.6925 17.0302 25.6925C20.4319 25.6925 23.5885 24.9401 26.4474 23.5951C27.9786 22.8735 28.8915 21.2318 28.5928 19.5374ZM25.9353 22.5072C23.2342 23.7798 20.2156 24.4905 17.0302 24.4905C13.8448 24.4905 10.7636 23.7649 8.03965 22.4675C6.97687 21.9613 6.37452 20.8347 6.57696 19.7032C7.08602 16.8544 8.37208 14.3838 10.1384 12.5981L11.0286 11.7902C12.7393 10.3976 14.7974 9.59157 16.9895 9.59157C19.1815 9.59157 21.2238 10.3906 22.9316 11.7733L23.8237 12.5803C25.6079 14.3759 26.9049 16.8693 27.4099 19.7448C27.6094 20.8794 27.0021 22.006 25.9353 22.5072ZM9.19671 9.95784C8.98634 10.3052 8.68963 10.5941 8.33735 10.7976L9.289 11.7495C9.5728 11.4616 9.86753 11.1906 10.1742 10.9355L9.19671 9.95784ZM9.19671 9.95784C9.42495 9.58165 9.55296 9.13795 9.54403 8.66548C9.51822 7.35029 8.40781 6.28324 7.09297 6.30905C5.72256 6.33684 4.63397 7.51109 4.7471 8.91164C4.84137 10.075 5.78508 11.0159 6.94809 11.1073C7.45616 11.147 7.93347 11.0279 8.33735 10.7976L6.31697 8.77665L7.1664 7.92699L9.19671 9.95784Z" fill="black"/>
<path fill-rule="evenodd" clip-rule="evenodd" d="M27.6272 8.77642L25.5919 10.8112C25.2367 10.6127 24.937 10.3269 24.7227 9.98243L26.7778 7.92676L27.6272 8.77642Z" fill="black"/>
<path fill-rule="evenodd" clip-rule="evenodd" d="M24.6732 11.7309L24.2485 12.1557C23.9637 11.8689 23.667 11.5989 23.3594 11.3468L23.7861 10.9189C24.0937 11.1731 24.3894 11.445 24.6732 11.7309Z" fill="black"/>
<path fill-rule="evenodd" clip-rule="evenodd" d="M10.6009 11.3624C10.2933 11.6155 9.99759 11.8865 9.71378 12.1743L9.28906 11.7495C9.57287 11.4616 9.86759 11.1906 10.1742 10.9355L10.6009 11.3624Z" fill="black"/>
<path fill-rule="evenodd" clip-rule="evenodd" d="M9.19664 9.95761C8.98626 10.305 8.68956 10.5939 8.33728 10.7973L6.31689 8.77642L7.16633 7.92676L9.19664 9.95761Z" fill="black"/>
<path fill-rule="evenodd" clip-rule="evenodd" d="M27.6272 8.77544L25.5919 10.8103C25.2367 10.6117 24.937 10.3259 24.7227 9.98145L26.7778 7.92578L27.6272 8.77544Z" fill="black"/>
<path d="M23.7861 10.918L23.3584 11.3458C23.666 11.5979 23.9627 11.8689 24.2475 12.1557L24.6722 11.7309C24.3884 11.444 24.0927 11.1731 23.7861 10.919V10.918Z" fill="black"/>
<path d="M10.1732 10.9346C9.86662 11.1897 9.57189 11.4616 9.28809 11.7485L9.7128 12.1733C9.99661 11.8855 10.2933 11.6155 10.5999 11.3614L10.1732 10.9346Z" fill="black"/>
<path fill-rule="evenodd" clip-rule="evenodd" d="M10.1334 21.5447C9.09143 21.1199 8.4732 20.0111 8.83441 18.9451C9.94781 15.6576 13.1967 13.2773 17.0311 13.2773C20.8654 13.2773 24.1143 15.6566 25.2287 18.9451C25.5899 20.0111 24.9717 21.1208 23.9298 21.5447C21.8012 22.4122 19.4722 22.8897 17.0321 22.8897C14.5919 22.8897 12.2629 22.4122 10.1344 21.5447H10.1334Z" fill="black"/>
<path d="M19.7948 20.0059C20.9007 20.0059 21.7973 19.2886 21.7973 18.4038C21.7973 17.519 20.9007 16.8018 19.7948 16.8018C18.6888 16.8018 17.7922 17.519 17.7922 18.4038C17.7922 19.2886 18.6888 20.0059 19.7948 20.0059Z" fill="white"/>
<path d="M14.0631 20.0068C15.169 20.0068 16.0656 19.2896 16.0656 18.4048C16.0656 17.52 15.169 16.8027 14.0631 16.8027C12.9571 16.8027 12.0605 17.52 12.0605 18.4048C12.0605 19.2896 12.9571 20.0068 14.0631 20.0068Z" fill="white"/>
</g>
<defs>
<clipPath id="clip0_714_24255">
<rect width="27.5997" height="22.5598" fill="white" transform="translate(3.15161 4.71973)"/>
</clipPath>
</defs>
</svg>
