<svg width="500" height="500" viewBox="0 0 500 500" fill="none" xmlns="http://www.w3.org/2000/svg">
<circle cx="37.5" cy="37.5" r="37.5" transform="matrix(-1 0 0 1 133.75 103.75)" fill="black"/>
<path d="M90 135.625L160 205.625" stroke="black" stroke-width="18.75"/>
<circle cx="402.5" cy="141.25" r="37.5" fill="black"/>
<path d="M409.375 135.625L339.375 205.625" stroke="black" stroke-width="18.75"/>
<path fill-rule="evenodd" clip-rule="evenodd" d="M106.894 365.023C86.683 355.402 74.9203 333.795 78.8605 311.759C95.772 217.184 166.25 146.25 250.625 146.25C335.204 146.25 405.819 217.528 422.511 312.447C426.393 334.522 414.535 356.119 394.255 365.663C350.859 386.085 302.387 397.5 251.25 397.5C199.581 397.5 150.634 385.846 106.894 365.023Z" fill="#FFDF6F"/>
<path d="M88.0891 313.41C104.43 222.025 171.978 155.625 250.625 155.625V136.875C160.522 136.875 87.1138 212.344 69.6319 310.109L88.0891 313.41ZM250.625 155.625C329.462 155.625 397.148 222.349 413.278 314.071L431.745 310.823C414.49 212.708 340.947 136.875 250.625 136.875V155.625ZM390.263 357.18C348.09 377.026 300.979 388.125 251.25 388.125V406.875C303.796 406.875 353.628 395.143 398.246 374.146L390.263 357.18ZM251.25 388.125C201.005 388.125 153.432 376.795 110.924 356.559L102.865 373.488C147.837 394.897 198.158 406.875 251.25 406.875V388.125ZM413.278 314.071C416.39 331.769 406.914 349.344 390.263 357.18L398.246 374.146C422.156 362.894 436.396 337.275 431.745 310.823L413.278 314.071ZM69.6319 310.109C64.9104 336.514 79.037 362.145 102.865 373.488L110.924 356.559C94.329 348.659 84.9302 331.076 88.0891 313.41L69.6319 310.109Z" fill="black"/>
<path fill-rule="evenodd" clip-rule="evenodd" d="M142.956 341.511C126.687 334.885 117.036 317.575 122.674 300.938C140.059 249.63 190.772 212.5 250.625 212.5C310.478 212.5 361.191 249.63 378.576 300.938C384.214 317.575 374.563 334.885 358.294 341.511C325.066 355.044 288.716 362.5 250.625 362.5C212.534 362.5 176.184 355.044 142.956 341.511Z" fill="black"/>
<ellipse cx="293.75" cy="292.5" rx="31.25" ry="25" fill="white"/>
<ellipse cx="204.29" cy="292.515" rx="31.25" ry="25" fill="white"/>
</svg>
