<svg width="17" height="16" viewBox="0 0 17 16" fill="none" xmlns="http://www.w3.org/2000/svg">
<g clip-path="url(#clip0_714_24289)">
<path d="M3.89832 5.94566C4.13598 5.96998 4.3657 5.94219 4.57608 5.87122L4.58104 5.87569L4.58898 5.88363C3.69439 6.90104 3.06327 8.21772 2.80278 9.67485C2.61821 10.7062 3.17143 11.6978 4.08736 12.134C5.58032 12.8447 7.25041 13.2422 9.0113 13.2422C10.7722 13.2422 12.408 12.8527 13.8891 12.1558C14.8085 11.7231 15.3657 10.732 15.1841 9.69917C14.9266 8.2341 14.2821 6.9194 13.3959 5.8866C12.2771 4.58183 13.3994 5.88114 13.3994 5.88114C13.3994 5.88114 13.7839 5.96452 13.9903 5.95013C14.7867 5.89504 15.4287 5.24439 15.4734 4.44684C15.5264 3.49147 14.7405 2.70583 13.7854 2.75943C12.999 2.8036 12.3525 3.43042 12.2855 4.21557C12.2647 4.46024 12.2994 4.69549 12.3783 4.90939L12.3654 4.9223L12.3579 4.92974C11.3924 4.21755 10.2408 3.79768 8.99195 3.79768C7.7431 3.79768 6.58356 4.22053 5.61555 4.93768L5.6081 4.93024L5.5962 4.91833L5.57288 4.895C5.64879 4.68258 5.68154 4.44932 5.65921 4.20713C5.58826 3.42595 4.94324 2.80409 4.16029 2.75992C3.20319 2.70632 2.41726 3.49246 2.47085 4.44883C2.51451 5.22504 3.1248 5.86626 3.89782 5.94616L3.89832 5.94566Z" fill="white" stroke="white" stroke-width="0.621371"/>
<path fill-rule="evenodd" clip-rule="evenodd" d="M4.38659 11.5048C3.7391 11.1966 3.36251 10.5043 3.48853 9.79807C3.752 8.32307 4.42232 7.02773 5.35213 6.08675C5.49403 5.94282 5.64239 5.80783 5.7957 5.68077C6.70319 4.93285 7.80368 4.49512 8.99001 4.49512C10.1763 4.49512 11.2689 4.92987 12.1744 5.67283C12.3282 5.79889 12.4766 5.93438 12.619 6.07781C13.5582 7.02426 14.234 8.33151 14.4955 9.8204C14.62 10.5276 14.2399 11.22 13.5905 11.5257C12.2002 12.1798 10.6477 12.5456 9.00986 12.5456C7.37202 12.5456 5.78677 12.1724 4.3856 11.5048H4.38659Z" fill="#FFDF6F"/>
<path d="M4.07828 3.96387L3.65356 4.3887L4.66376 5.39916C4.8399 5.29792 4.98825 5.153 5.09344 4.97929L4.07828 3.96387Z" fill="black"/>
<path fill-rule="evenodd" clip-rule="evenodd" d="M13.8975 3.1555C13.2476 3.14458 12.6819 3.69448 12.6755 4.34463C12.673 4.58236 12.74 4.8047 12.8571 4.9923L13.8846 3.96447L14.3094 4.3893L13.2917 5.40671C13.4932 5.51888 13.7303 5.57545 13.9814 5.55411C14.5599 5.50498 15.0273 5.03548 15.074 4.4568C15.1305 3.75503 14.5837 3.16692 13.8975 3.1555ZM12.8571 4.9923L12.3887 5.46031C12.5425 5.58737 12.6904 5.72335 12.8323 5.86629L13.2917 5.40671C13.1141 5.30745 12.9643 5.16452 12.8571 4.9923ZM14.7921 9.76967C14.5217 8.23016 13.8187 6.86186 12.8323 5.86629L12.6199 6.0787C12.4775 5.93527 12.3292 5.80028 12.1754 5.67422L12.3887 5.46031C11.4321 4.66624 10.2631 4.19624 8.99047 4.19624C7.7178 4.19624 6.5414 4.66921 5.58281 5.46875L5.79616 5.68216C5.64235 5.80871 5.49449 5.9442 5.35258 6.08813L5.14023 5.87572C4.16328 6.86533 3.46567 8.22122 3.19278 9.74684C3.04194 10.5925 3.49445 11.4139 4.25755 11.7772C5.69792 12.4631 7.30996 12.8472 9.01081 12.8472C10.7117 12.8472 12.29 12.471 13.7194 11.7985C14.485 11.4377 14.9415 10.6169 14.7921 9.76967ZM13.4634 11.2546C12.1128 11.8909 10.6035 12.2462 9.01081 12.2462C7.41812 12.2462 5.87753 11.8834 4.51555 11.2347C3.98416 10.9816 3.68299 10.4183 3.78421 9.85256C4.03874 8.42818 4.68177 7.19289 5.56494 6.30005L6.01 5.89606C6.86539 5.19976 7.89444 4.79676 8.99047 4.79676C10.0865 4.79676 11.1076 5.19628 11.9615 5.88763L12.4076 6.29112C13.2997 7.18892 13.9482 8.43562 14.2007 9.8734C14.3004 10.4407 13.9968 11.004 13.4634 11.2546ZM5.09408 4.9799C4.9889 5.1536 4.84054 5.29802 4.6644 5.39976L5.14023 5.87572C5.28213 5.73179 5.42949 5.5963 5.58281 5.46875L5.09408 4.9799ZM5.09408 4.9799C5.2082 4.7918 5.27221 4.56995 5.26774 4.33372C5.25484 3.67612 4.69963 3.1426 4.04221 3.1555C3.35701 3.1694 2.81271 3.75652 2.86928 4.4568C2.91641 5.03846 3.38827 5.50895 3.96977 5.55461C4.22381 5.57446 4.46246 5.51491 4.6644 5.39976L3.65421 4.3893L4.07893 3.96447L5.09408 4.9799Z" fill="black"/>
<path fill-rule="evenodd" clip-rule="evenodd" d="M14.3092 4.38968L13.2916 5.40709C13.1139 5.30783 12.9641 5.16489 12.8569 4.99268L13.8845 3.96484L14.3092 4.38968Z" fill="black"/>
<path fill-rule="evenodd" clip-rule="evenodd" d="M12.832 5.86593L12.6196 6.07835C12.4772 5.93492 12.3289 5.79993 12.175 5.67387L12.3884 5.45996C12.5422 5.58701 12.6901 5.723 12.832 5.86593Z" fill="black"/>
<path fill-rule="evenodd" clip-rule="evenodd" d="M5.79582 5.68216C5.64201 5.80871 5.49415 5.9442 5.35225 6.08813L5.13989 5.87571C5.2818 5.73179 5.42916 5.5963 5.58247 5.46875L5.79582 5.68216Z" fill="black"/>
<path fill-rule="evenodd" clip-rule="evenodd" d="M5.09392 4.98027C4.98874 5.15398 4.84038 5.2984 4.66425 5.40014L3.65405 4.38968L4.07877 3.96484L5.09392 4.98027Z" fill="black"/>
<path fill-rule="evenodd" clip-rule="evenodd" d="M14.3092 4.3887L13.2916 5.40611C13.1139 5.30685 12.9641 5.16392 12.8569 4.9917L13.8845 3.96387L14.3092 4.3887Z" fill="black"/>
<path d="M12.3884 5.45996L12.1746 5.67387C12.3284 5.79993 12.4767 5.93542 12.6191 6.07885L12.8315 5.86643C12.6896 5.723 12.5417 5.58751 12.3884 5.46046V5.45996Z" fill="black"/>
<path d="M5.58198 5.46875C5.42867 5.5963 5.28131 5.73228 5.1394 5.87571L5.35176 6.08813C5.49367 5.9442 5.64202 5.80921 5.79533 5.68216L5.58198 5.46875Z" fill="black"/>
<path fill-rule="evenodd" clip-rule="evenodd" d="M5.56241 10.7723C5.04144 10.5599 4.73233 10.0056 4.91293 9.47254C5.46963 7.8288 7.09408 6.63867 9.01126 6.63867C10.9284 6.63867 12.5529 7.8283 13.1101 9.47254C13.2907 10.0056 12.9816 10.5604 12.4606 10.7723C11.3963 11.2061 10.2318 11.4448 9.01176 11.4448C7.79169 11.4448 6.62719 11.2061 5.56291 10.7723H5.56241Z" fill="black"/>
<path d="M10.3931 10.0034C10.9461 10.0034 11.3944 9.64479 11.3944 9.20239C11.3944 8.76 10.9461 8.40137 10.3931 8.40137C9.84013 8.40137 9.39185 8.76 9.39185 9.20239C9.39185 9.64479 9.84013 10.0034 10.3931 10.0034Z" fill="white"/>
<path d="M7.52738 10.0044C8.08037 10.0044 8.52865 9.64576 8.52865 9.20337C8.52865 8.76097 8.08037 8.40234 7.52738 8.40234C6.9744 8.40234 6.52612 8.76097 6.52612 9.20337C6.52612 9.64576 6.9744 10.0044 7.52738 10.0044Z" fill="white"/>
</g>
<defs>
<clipPath id="clip0_714_24289">
<rect width="13.7998" height="11.2799" fill="white" transform="translate(2.07153 2.36035)"/>
</clipPath>
</defs>
</svg>
