<svg width="49" height="48" viewBox="0 0 49 48" fill="none" xmlns="http://www.w3.org/2000/svg">
<g clip-path="url(#clip0_714_24323)">
<path d="M9.71324 17.836C10.4262 17.9089 11.1154 17.8256 11.7465 17.6126L11.7614 17.626L11.7852 17.6499C9.10147 20.7021 7.20811 24.6521 6.42666 29.0235C5.87294 32.1174 7.53261 35.0922 10.2804 36.4009C14.7592 38.533 19.7695 39.7256 25.0521 39.7256C30.3348 39.7256 35.2423 38.5569 39.6855 36.4665C42.4436 35.1681 44.1152 32.1948 43.5704 29.0964C42.7979 24.7012 40.8644 20.7572 38.2059 17.6588C34.8494 13.7445 38.2163 17.6424 38.2163 17.6424C38.2163 17.6424 39.3699 17.8926 39.9891 17.8494C42.3782 17.6841 44.3043 15.7322 44.4382 13.3395C44.5975 10.4734 42.2397 8.1165 39.3744 8.2773C37.0151 8.40981 35.0756 10.2903 34.8747 12.6457C34.8122 13.3797 34.9164 14.0855 35.153 14.7272L35.1143 14.7659L35.092 14.7882C32.1954 12.6517 28.7406 11.3921 24.9941 11.3921C21.2476 11.3921 17.769 12.6606 14.8649 14.812L14.8426 14.7897L14.8069 14.754L14.7369 14.684C14.9646 14.0467 15.0629 13.347 14.9959 12.6204C14.783 10.2769 12.848 8.4113 10.4992 8.27879C7.62787 8.11799 5.2701 10.4764 5.43086 13.3455C5.56185 15.6741 7.39269 17.5978 9.71176 17.8375L9.71324 17.836Z" fill="white" stroke="white" stroke-width="1.86411"/>
<path fill-rule="evenodd" clip-rule="evenodd" d="M11.1778 34.5144C9.23535 33.5898 8.10559 31.5128 8.48366 29.3941C9.27405 24.9692 11.285 21.0832 14.0744 18.2602C14.5001 17.8284 14.9452 17.4235 15.4051 17.0423C18.1276 14.7986 21.4291 13.4854 24.988 13.4854C28.547 13.4854 31.8247 14.7896 34.5412 17.0185C35.0026 17.3967 35.4477 17.8031 35.8749 18.2334C38.6926 21.0727 40.7199 24.9945 41.5043 29.4611C41.8779 31.5828 40.7378 33.6598 38.7893 34.577C34.6186 36.5393 29.9611 37.6366 25.0476 37.6366C20.1341 37.6366 15.3784 36.517 11.1749 34.5144H11.1778Z" fill="#FFDF6F"/>
<path d="M10.2534 11.8887L8.97925 13.1632L12.0098 16.1945C12.5382 15.8908 12.9833 15.4561 13.2988 14.9349L10.2534 11.8887Z" fill="black"/>
<path fill-rule="evenodd" clip-rule="evenodd" d="M39.7108 9.46358C37.7609 9.43082 36.064 11.0805 36.0447 13.031C36.0372 13.7441 36.2382 14.4112 36.5894 14.974L39.6721 11.8905L40.9463 13.165L37.8934 16.2172C38.4977 16.5537 39.2092 16.7234 39.9624 16.6594C41.6979 16.512 43.1001 15.1035 43.24 13.3674C43.4097 11.2622 41.7694 9.49782 39.7108 9.46358ZM36.5894 14.974L35.1843 16.378C35.6457 16.7591 36.0893 17.1671 36.515 17.5959L37.8934 16.2172C37.3605 15.9194 36.911 15.4906 36.5894 14.974ZM42.3946 29.306C41.5833 24.6875 39.4741 20.5826 36.515 17.5959L35.8779 18.2331C35.4508 17.8029 35.0057 17.3979 34.5443 17.0197L35.1843 16.378C32.3145 13.9958 28.8076 12.5858 24.9896 12.5858C21.1717 12.5858 17.6425 14.0047 14.7667 16.4033L15.4067 17.0435C14.9453 17.4232 14.5017 17.8296 14.076 18.2614L13.439 17.6242C10.5081 20.593 8.41531 24.6607 7.59664 29.2375C7.14414 31.7746 8.50164 34.2387 10.7909 35.3286C15.112 37.3862 19.9481 38.5386 25.0507 38.5386C30.1532 38.5386 34.8881 37.41 39.1764 35.3926C41.4732 34.3102 42.8426 31.8475 42.3946 29.306ZM38.4084 33.7608C34.3567 35.6695 29.8287 36.7356 25.0507 36.7356C20.2726 36.7356 15.6509 35.6472 11.565 33.7012C9.97078 32.9419 9.06727 31.252 9.37092 29.5547C10.1345 25.2815 12.0636 21.5757 14.7131 18.8972L16.0483 17.6852C18.6144 15.5963 21.7016 14.3873 24.9896 14.3873C28.2777 14.3873 31.341 15.5859 33.9027 17.6599L35.2409 18.8704C37.9172 21.5638 39.8626 25.3039 40.6203 29.6172C40.9195 31.319 40.0085 33.0089 38.4084 33.7608ZM13.3005 14.9367C12.985 15.4578 12.5399 15.8911 12.0115 16.1963L13.439 17.6242C13.8647 17.1924 14.3067 16.7859 14.7667 16.4033L13.3005 14.9367ZM13.3005 14.9367C13.6429 14.3724 13.8349 13.7069 13.8215 12.9982C13.7828 11.0254 12.1172 9.42487 10.1449 9.46358C8.08933 9.50527 6.45645 11.2666 6.62614 13.3674C6.76755 15.1124 8.1831 16.5239 9.92761 16.6609C10.6897 16.7204 11.4057 16.5418 12.0115 16.1963L8.98093 13.165L10.2551 11.8905L13.3005 14.9367Z" fill="black"/>
<path fill-rule="evenodd" clip-rule="evenodd" d="M40.9462 13.1651L37.8933 16.2173C37.3604 15.9196 36.9109 15.4908 36.5894 14.9741L39.672 11.8906L40.9462 13.1651Z" fill="black"/>
<path fill-rule="evenodd" clip-rule="evenodd" d="M36.5147 17.5958L35.8776 18.2331C35.4504 17.8028 35.0054 17.3978 34.5439 17.0196L35.184 16.3779C35.6454 16.7591 36.089 17.167 36.5147 17.5958Z" fill="black"/>
<path fill-rule="evenodd" clip-rule="evenodd" d="M15.4065 17.0435C14.9451 17.4232 14.5015 17.8297 14.0758 18.2615L13.4387 17.6242C13.8644 17.1924 14.3065 16.786 14.7665 16.4033L15.4065 17.0435Z" fill="black"/>
<path fill-rule="evenodd" clip-rule="evenodd" d="M13.3003 14.9369C12.9848 15.458 12.5397 15.8913 12.0113 16.1965L8.98071 13.1651L10.2549 11.8906L13.3003 14.9369Z" fill="black"/>
<path fill-rule="evenodd" clip-rule="evenodd" d="M40.9462 13.1632L37.8933 16.2154C37.3604 15.9176 36.9109 15.4888 36.5894 14.9722L39.672 11.8887L40.9462 13.1632Z" fill="black"/>
<path d="M35.184 16.377L34.5425 17.0187C35.0039 17.3968 35.449 17.8033 35.8762 18.2336L36.5132 17.5964C36.0875 17.1661 35.644 16.7596 35.184 16.3784V16.377Z" fill="black"/>
<path d="M14.765 16.4014C14.305 16.784 13.863 17.192 13.4373 17.6223L14.0743 18.2595C14.5 17.8277 14.9451 17.4227 15.405 17.0416L14.765 16.4014Z" fill="black"/>
<path fill-rule="evenodd" clip-rule="evenodd" d="M14.7055 32.317C13.1426 31.6797 12.2153 30.0166 12.7571 28.4176C14.4272 23.4864 19.3005 19.916 25.052 19.916C30.8036 19.916 35.6769 23.4849 37.3485 28.4176C37.8903 30.0166 36.9629 31.6812 35.4 32.317C32.2072 33.6183 28.7137 34.3344 25.0535 34.3344C21.3933 34.3344 17.8998 33.6183 14.707 32.317H14.7055Z" fill="black"/>
<path d="M29.1976 30.0093C30.8566 30.0093 32.2014 28.9334 32.2014 27.6062C32.2014 26.279 30.8566 25.2031 29.1976 25.2031C27.5387 25.2031 26.1938 26.279 26.1938 27.6062C26.1938 28.9334 27.5387 30.0093 29.1976 30.0093Z" fill="white"/>
<path d="M20.6 30.0102C22.2589 30.0102 23.6037 28.9343 23.6037 27.6072C23.6037 26.28 22.2589 25.2041 20.6 25.2041C18.941 25.2041 17.5962 26.28 17.5962 27.6072C17.5962 28.9343 18.941 30.0102 20.6 30.0102Z" fill="white"/>
</g>
<defs>
<clipPath id="clip0_714_24323">
<rect width="41.3994" height="33.8395" fill="white" transform="translate(4.23242 7.08008)"/>
</clipPath>
</defs>
</svg>
