<svg width="1000" height="1000" viewBox="0 0 1000 1000" fill="none" xmlns="http://www.w3.org/2000/svg">
<path d="M181.68 371.578C196.534 373.098 210.891 371.361 224.04 366.925L224.35 367.204L224.846 367.701C168.934 431.289 129.489 513.582 113.209 604.652C101.673 669.109 136.25 731.084 193.495 758.35C286.805 802.769 391.186 827.615 501.241 827.615C611.297 827.615 713.538 803.265 806.104 759.715C863.566 732.666 898.391 670.722 887.041 606.172C870.946 514.605 830.664 432.437 775.28 367.887C705.351 286.339 775.497 367.546 775.497 367.546C775.497 367.546 799.53 372.757 812.43 371.857C862.202 368.414 902.329 327.749 905.12 277.902C908.438 218.191 859.318 169.088 799.623 172.438C750.471 175.199 710.065 214.375 705.879 263.447C704.576 278.739 706.747 293.442 711.677 306.811L710.871 307.618L710.406 308.083C650.06 263.571 578.085 237.329 500.032 237.329C421.979 237.329 349.508 263.757 289.007 308.579L288.541 308.114L287.797 307.369L286.34 305.912C291.084 292.636 293.131 278.057 291.735 262.92C287.301 214.096 246.987 175.23 198.053 172.469C138.234 169.119 89.1139 218.253 92.463 278.026C95.1919 326.539 133.335 366.615 181.649 371.609L181.68 371.578Z" fill="white" stroke="white" stroke-width="38.8357"/>
<path fill-rule="evenodd" clip-rule="evenodd" d="M212.194 719.049C171.726 699.786 148.189 656.515 156.065 612.376C172.532 520.188 214.427 439.23 272.54 380.418C281.409 371.423 290.681 362.986 300.263 355.045C356.981 308.3 425.762 280.941 499.908 280.941C574.054 280.941 642.338 308.114 698.932 354.549C708.545 362.427 717.818 370.896 726.718 379.86C785.42 439.013 827.656 520.716 843.999 613.772C851.782 657.973 828.028 701.244 787.436 720.352C700.545 761.234 603.513 784.095 501.148 784.095C398.783 784.095 299.705 760.769 212.132 719.049H212.194Z" fill="#FFDF6F"/>
<path d="M192.937 247.688L166.392 274.24L229.529 337.394C240.538 331.067 249.81 322.009 256.384 311.153L192.937 247.688Z" fill="black"/>
<path fill-rule="evenodd" clip-rule="evenodd" d="M806.631 197.159C766.008 196.476 730.656 230.845 730.253 271.48C730.098 286.338 734.284 300.234 741.603 311.959L805.825 247.719L832.37 274.271L768.768 337.86C781.358 344.87 796.181 348.406 811.872 347.072C848.03 344.001 877.242 314.658 880.157 278.49C883.692 234.629 849.519 197.872 806.631 197.159ZM741.603 311.959L712.329 341.21C721.942 349.15 731.183 357.649 740.052 366.583L768.768 337.86C757.666 331.656 748.301 322.722 741.603 311.959ZM862.543 610.545C845.642 514.325 801.701 428.806 740.052 366.583L726.78 379.859C717.88 370.894 708.608 362.457 698.994 354.579L712.329 341.21C652.541 291.58 579.481 262.205 499.939 262.205C420.398 262.205 346.872 291.766 286.96 341.737L300.294 355.075C290.681 362.985 281.44 371.453 272.571 380.448L259.299 367.172C198.239 429.023 154.639 513.766 137.583 609.118C128.156 661.974 156.438 713.309 204.131 736.015C294.154 778.883 394.907 802.891 501.21 802.891C607.514 802.891 706.158 779.379 795.499 737.349C843.348 714.798 871.877 663.493 862.543 610.545ZM779.497 703.352C695.087 743.118 600.754 765.328 501.21 765.328C401.667 765.328 305.38 742.653 220.257 702.112C187.045 686.292 168.221 651.086 174.548 615.725C190.456 526.701 230.645 449.496 285.844 393.693L313.66 368.444C367.122 324.925 431.437 299.738 499.939 299.738C568.441 299.738 632.26 324.708 685.629 367.917L713.507 393.135C769.264 449.248 809.794 527.166 825.579 617.027C831.812 652.482 812.833 687.688 779.497 703.352ZM256.415 311.183C249.841 322.04 240.569 331.066 229.56 337.425L259.299 367.172C268.168 358.177 277.378 349.709 286.96 341.737L256.415 311.183ZM256.415 311.183C263.547 299.427 267.548 285.562 267.268 270.797C266.462 229.697 231.762 196.352 190.673 197.159C147.848 198.027 113.829 234.722 117.364 278.49C120.31 314.844 149.801 344.249 186.145 347.103C202.023 348.344 216.939 344.622 229.56 337.425L166.423 274.271L192.968 247.719L256.415 311.183Z" fill="black"/>
<path fill-rule="evenodd" clip-rule="evenodd" d="M832.371 274.272L768.769 337.86C757.667 331.656 748.302 322.723 741.604 311.959L805.826 247.72L832.371 274.272Z" fill="black"/>
<path fill-rule="evenodd" clip-rule="evenodd" d="M740.053 366.583L726.78 379.859C717.88 370.895 708.608 362.458 698.995 354.579L712.33 341.21C721.943 349.151 731.184 357.65 740.053 366.583Z" fill="black"/>
<path fill-rule="evenodd" clip-rule="evenodd" d="M300.295 355.075C290.681 362.985 281.44 371.453 272.571 380.449L259.299 367.173C268.168 358.177 277.378 349.709 286.96 341.737L300.295 355.075Z" fill="black"/>
<path fill-rule="evenodd" clip-rule="evenodd" d="M256.415 311.184C249.841 322.04 240.569 331.067 229.56 337.426L166.423 274.272L192.968 247.72L256.415 311.184Z" fill="black"/>
<path fill-rule="evenodd" clip-rule="evenodd" d="M832.371 274.24L768.769 337.829C757.667 331.625 748.302 322.692 741.604 311.928L805.826 247.688L832.371 274.24Z" fill="black"/>
<path d="M712.329 341.179L698.963 354.548C708.577 362.427 717.849 370.895 726.749 379.859L740.021 366.583C731.152 357.619 721.911 349.151 712.329 341.21V341.179Z" fill="black"/>
<path d="M286.928 341.706C277.346 349.678 268.136 358.177 259.267 367.141L272.54 380.417C281.408 371.422 290.681 362.985 300.263 355.044L286.928 341.706Z" fill="black"/>
<path fill-rule="evenodd" clip-rule="evenodd" d="M285.689 673.265C253.128 659.989 233.808 625.341 245.096 592.027C279.89 489.293 381.418 414.91 501.241 414.91C621.065 414.91 722.593 489.262 757.418 592.027C768.706 625.341 749.386 660.02 716.825 673.265C650.308 700.375 577.527 715.295 501.273 715.295C425.018 715.295 352.237 700.375 285.72 673.265H285.689Z" fill="black"/>
<path d="M587.605 625.186C622.166 625.186 650.184 602.771 650.184 575.122C650.184 547.472 622.166 525.058 587.605 525.058C553.043 525.058 525.026 547.472 525.026 575.122C525.026 602.771 553.043 625.186 587.605 625.186Z" fill="white"/>
<path d="M408.49 625.218C443.051 625.218 471.068 602.804 471.068 575.154C471.068 547.504 443.051 525.09 408.49 525.09C373.928 525.09 345.911 547.504 345.911 575.154C345.911 602.804 373.928 625.218 408.49 625.218Z" fill="white"/>
</svg>
