<svg fill="none" height="1024" viewBox="0 0 1024 1024" width="1024" xmlns="http://www.w3.org/2000/svg" xmlns:xlink="http://www.w3.org/1999/xlink"><linearGradient id="a" gradientUnits="userSpaceOnUse" x1="512" x2="512" y1="0" y2="1024"><stop offset="0" stop-color="#2ea7ff"/><stop offset="1" stop-color="#0045b1"/></linearGradient><path d="m1008.67 635.859c-68.386 274.285-346.224 441.211-620.573 372.811-274.237-68.382-441.1833-346.203-372.76-620.472 68.3592-274.318 346.197-441.2599 620.466-372.8766 274.333 68.3833 441.267 346.2366 372.867 620.5376z" fill="url(#a)"/><path clip-rule="evenodd" d="m645.114 297.477c72.054 27.719 122.969 68.205 111.331 139.382-6.489 40.106-24.793 64.791-50.076 78.507-9.541 5.176-11.65 21.216-3.173 27.995 36.315 29.043 50.817 70.191 27.977 132.672-33.285 91.124-108.016 100.756-207.241 82.189-6.085-1.138-12.066 2.561-13.646 8.545l-11.814 43.831c-4.468 16.921-21.804 27.019-38.727 22.557-16.931-4.464-27.034-21.811-22.563-38.74l11.324-41.958c1.626-6.157-2.052-12.463-8.204-14.11-8.665-2.319-17.44-4.718-26.347-7.214-6.233-1.747-12.704 1.931-14.355 8.19l-11.373 42.211c-4.461 16.912-21.79 27.005-38.702 22.541-16.904-4.463-26.994-21.781-22.538-38.687l11.696-43.494c1.636-6.208-2.045-12.574-8.236-14.276-2.005-.55-4.014-1.104-6.028-1.658l-.066-.018c-8.705-2.397-17.502-4.819-26.408-7.18l-20.324-5.599c-22.465-5.925-34.235-30.601-24.702-51.789 7.635-16.969 26.523-25.736 44.504-20.947.327.087.65.173.97.258 4.307 1.143 4.1.313 8.442-.691 8.839-2.045 13.516-9.337 15.771-14.723l42.412-160.709.111-.437 29.979-113.665c.185-.703.309-1.421.343-2.148.524-10.994 5.432-22.075-10.594-29.65-3.47-1.64-6.884-3.2-10.593-4.187-.614-.163-1.248-.33-1.898-.501-18.146-4.767-29.215-23.214-24.434-41.357 4.721-17.911 23.072-28.6 40.981-23.869l35.65 9.997c9.137 2.402 18.473 4.726 27.956 7.042 6.131 1.498 12.327-2.199 13.939-8.302l10.44-38.39c4.467-16.915 21.798-27.008 38.714-22.545 16.92 4.464 27.016 21.799 22.551 38.717l-9.862 36.23c-1.617 6.129 2.115 12.388 8.272 13.889 9.035 2.204 18.065 4.43 26.998 6.712 6.029 1.539 12.192-2.05 13.779-8.066l9.752-35.841c4.464-16.926 21.804-27.028 38.73-22.565 16.928 4.464 27.031 21.805 22.566 38.733l-10.596 39.037c-1.544 5.855 1.66 11.907 7.312 14.081zm-154.27 95.189 8.382-31.812c3.903-14.813 19.075-23.657 33.888-19.754 14.812 3.903 23.656 19.075 19.753 33.888l-8.382 31.811 31.809 8.382c14.813 3.903 23.657 19.075 19.754 33.887-3.903 14.813-19.075 23.657-33.888 19.754l-31.809-8.381-8.382 31.813c-3.903 14.812-19.075 23.656-33.888 19.753-14.812-3.903-23.656-19.074-19.753-33.887l8.382-31.813-31.816-8.383c-14.813-3.903-23.657-19.075-19.754-33.888s19.075-23.657 33.888-19.754zm74.829 147.097-8.382 31.812-31.816-8.384c-14.813-3.902-29.985 4.941-33.888 19.754s4.941 29.985 19.754 33.888l31.816 8.383-8.383 31.813c-3.903 14.813 4.942 29.985 19.754 33.888 14.813 3.903 29.985-4.941 33.888-19.754l8.382-31.813 31.809 8.381c14.813 3.903 29.985-4.941 33.888-19.753 3.903-14.813-4.941-29.985-19.754-33.888l-31.809-8.381 8.382-31.812c3.903-14.813-4.941-29.985-19.754-33.888-14.812-3.903-29.984 4.941-33.887 19.754z" fill="#fff" fill-rule="evenodd"/></svg>