<svg width="1024" height="1024" viewBox="0 0 1024 1024" fill="none" xmlns="http://www.w3.org/2000/svg">
<path fill-rule="evenodd" clip-rule="evenodd" d="M645.114 297.477C717.168 325.196 768.083 365.682 756.445 436.859C749.956 476.965 731.652 501.65 706.369 515.366C696.828 520.542 694.719 536.582 703.196 543.361C739.511 572.404 754.013 613.552 731.173 676.033C697.888 767.157 623.157 776.789 523.932 758.222C517.847 757.084 511.866 760.783 510.286 766.767L498.472 810.598C494.004 827.519 476.668 837.617 459.745 833.155C442.814 828.691 432.711 811.344 437.182 794.415L448.506 752.457C450.132 746.3 446.454 739.994 440.302 738.347C431.637 736.028 422.862 733.629 413.955 731.133C407.722 729.386 401.251 733.064 399.6 739.323L388.227 781.534C383.766 798.446 366.437 808.539 349.525 804.075C332.621 799.612 322.531 782.294 326.987 765.388L338.683 721.894C340.319 715.686 336.638 709.32 330.447 707.618C328.442 707.068 326.433 706.514 324.419 705.96L324.353 705.942C315.648 703.545 306.851 701.123 297.945 698.762L277.621 693.163C255.156 687.238 243.386 662.562 252.919 641.374C260.554 624.405 279.442 615.638 297.423 620.427C297.75 620.514 298.073 620.6 298.393 620.685C302.7 621.828 302.493 620.998 306.835 619.994C315.674 617.949 320.351 610.657 322.606 605.271L365.018 444.562L365.129 444.125L395.108 330.46C395.293 329.757 395.417 329.039 395.451 328.312C395.975 317.318 400.883 306.237 384.857 298.662C381.387 297.022 377.973 295.462 374.264 294.475C373.65 294.312 373.016 294.145 372.366 293.974C354.22 289.207 343.151 270.76 347.932 252.617C352.653 234.706 371.004 224.017 388.913 228.748L424.563 238.745C433.7 241.147 443.036 243.471 452.519 245.787C458.65 247.285 464.846 243.588 466.458 237.485L476.898 199.095C481.365 182.18 498.696 172.087 515.612 176.55C532.532 181.014 542.628 198.349 538.163 215.267L528.301 251.497C526.684 257.626 530.416 263.885 536.573 265.386C545.608 267.59 554.638 269.816 563.571 272.098C569.6 273.637 575.763 270.048 577.35 264.032L587.102 228.191C591.566 211.265 608.906 201.163 625.832 205.626C642.76 210.09 652.863 227.431 648.398 244.359L637.802 283.396C636.258 289.251 639.462 295.303 645.114 297.477ZM490.844 392.666L499.226 360.854C503.129 346.041 518.301 337.197 533.114 341.1C547.926 345.003 556.77 360.175 552.867 374.988L544.485 406.799L576.294 415.181C591.107 419.084 599.951 434.256 596.048 449.068C592.145 463.881 576.973 472.725 562.16 468.822L530.351 460.441L521.969 492.254C518.066 507.066 502.894 515.91 488.081 512.007C473.269 508.104 464.425 492.933 468.328 478.12L476.71 446.307L444.894 437.924C430.081 434.021 421.237 418.849 425.14 404.036C429.043 389.223 444.215 380.379 459.028 384.282L490.844 392.666ZM565.673 539.763L557.291 571.575L525.475 563.191C510.662 559.289 495.49 568.132 491.587 582.945C487.684 597.758 496.528 612.93 511.341 616.833L543.157 625.216L534.774 657.029C530.871 671.842 539.716 687.014 554.528 690.917C569.341 694.82 584.513 685.976 588.416 671.163L596.798 639.35L628.607 647.731C643.42 651.634 658.592 642.79 662.495 627.978C666.398 613.165 657.554 597.993 642.741 594.09L610.932 585.709L619.314 553.897C623.217 539.084 614.373 523.912 599.56 520.009C584.748 516.106 569.576 524.95 565.673 539.763Z" fill="white"/>
</svg>
