<svg width="1024" height="1024" viewBox="0 0 1024 1024" fill="none" xmlns="http://www.w3.org/2000/svg">
<path fill-rule="evenodd" clip-rule="evenodd" d="M388.097 1008.67C662.446 1077.07 940.284 910.144 1008.67 635.859C1077.07 361.558 910.136 83.7047 635.803 15.3214C361.534 -53.0619 83.6963 113.88 15.337 388.198C-53.0863 662.467 113.86 940.288 388.097 1008.67ZM756.444 436.859C768.083 365.682 717.168 325.196 645.113 297.477C639.462 295.303 636.257 289.251 637.802 283.396L648.398 244.359C652.863 227.431 642.759 210.089 625.831 205.626C608.905 201.163 591.566 211.265 587.101 228.191L577.35 264.032C575.763 270.048 569.6 273.637 563.571 272.098C554.637 269.816 545.608 267.589 536.573 265.386C530.415 263.885 526.683 257.625 528.301 251.497L538.163 215.267C542.628 198.348 532.531 181.014 515.612 176.55C498.696 172.087 481.364 182.18 476.898 199.095L466.457 237.485C464.846 243.587 458.649 247.284 452.518 245.787C443.035 243.471 433.699 241.147 424.563 238.745L388.912 228.748C371.004 224.017 352.652 234.706 347.932 252.617C343.151 270.76 354.219 289.207 372.366 293.974C373.016 294.145 373.649 294.312 374.263 294.475C377.973 295.462 381.386 297.022 384.857 298.662C398.067 304.906 397.053 313.533 395.996 322.529C395.77 324.446 395.543 326.381 395.451 328.312C395.416 329.039 395.293 329.757 395.107 330.46L365.128 444.125L365.017 444.562L322.606 605.271C320.35 610.657 315.673 617.949 306.834 619.994C305.678 620.261 304.844 620.516 304.162 620.725C302.283 621.3 301.553 621.523 298.393 620.685C298.073 620.6 297.749 620.514 297.423 620.427C279.442 615.637 260.553 624.405 252.918 641.374C243.386 662.561 255.156 687.238 277.62 693.163L297.945 698.762C306.849 701.122 315.645 703.544 324.349 705.941L324.352 705.942L324.418 705.96L325.287 706.199C327.01 706.673 328.73 707.147 330.446 707.618C336.637 709.319 340.319 715.686 338.682 721.894L326.986 765.388C322.531 782.294 332.62 799.612 349.525 804.075C366.437 808.539 383.765 798.446 388.226 781.534L399.6 739.323C401.251 733.064 407.721 729.386 413.954 731.133C422.862 733.629 431.637 736.028 440.301 738.347C446.453 739.994 450.131 746.299 448.505 752.457L437.181 794.414C432.71 811.344 442.814 828.69 459.744 833.155C476.667 837.617 494.004 827.519 498.471 810.598L510.285 766.767C511.865 760.783 517.847 757.084 523.931 758.222C623.156 776.789 697.888 767.156 731.172 676.033C754.012 613.551 739.511 572.403 703.196 543.361C694.718 536.582 696.827 520.542 706.369 515.366C731.651 501.65 749.955 476.965 756.444 436.859ZM499.226 360.853L490.844 392.665L459.028 384.282C444.215 380.379 429.043 389.223 425.14 404.036C421.237 418.849 430.081 434.021 444.894 437.924L476.71 446.307L468.327 478.12C464.424 492.932 473.268 508.104 488.081 512.007C502.894 515.91 518.066 507.066 521.969 492.254L530.351 460.441L562.16 468.822C576.972 472.725 592.144 463.881 596.047 449.068C599.95 434.256 591.106 419.084 576.294 415.181L544.485 406.799L552.867 374.987C556.77 360.175 547.926 345.003 533.113 341.1C518.301 337.197 503.129 346.041 499.226 360.853ZM557.29 571.575L565.672 539.763C569.575 524.95 584.747 516.106 599.56 520.009C614.373 523.912 623.217 539.084 619.314 553.897L610.932 585.708L642.741 594.09C657.553 597.993 666.397 613.165 662.494 627.977C658.591 642.79 643.419 651.634 628.607 647.731L596.798 639.35L588.415 671.163C584.512 685.975 569.34 694.819 554.528 690.917C539.715 687.014 530.871 671.842 534.774 657.029L543.156 625.216L511.34 616.833C496.528 612.93 487.684 597.758 491.587 582.945C495.49 568.132 510.662 559.288 525.474 563.191L557.29 571.575Z" fill="#196CE7"/>
</svg>
