<svg fill="none" height="1024" viewBox="0 0 9698 1024" width="9698" xmlns="http://www.w3.org/2000/svg" xmlns:xlink="http://www.w3.org/1999/xlink"><linearGradient id="a" gradientUnits="userSpaceOnUse" x1="512.002" x2="512.002" y1=".000977" y2="1024"><stop offset="0" stop-color="#2ea7ff"/><stop offset="1" stop-color="#0045b1"/></linearGradient><path d="m1008.68 635.862c-68.393 274.287-346.232 441.218-620.582 372.818-274.238-68.388-441.1845-346.21-372.761-620.48 68.3595-274.318 346.198-441.2611 620.469-372.8776 274.334 68.3836 441.264 346.2376 372.874 620.5396z" fill="url(#a)"/><path clip-rule="evenodd" d="m645.113 297.479c72.055 27.719 122.97 68.205 111.332 139.383-6.49 40.105-24.793 64.79-50.076 78.507-9.542 5.176-11.651 21.216-3.173 27.995 36.315 29.043 50.817 70.191 27.976 132.673-33.284 91.123-108.016 100.756-207.241 82.189-6.085-1.138-12.066 2.56-13.646 8.545l-11.814 43.831c-4.468 16.921-21.804 27.019-38.727 22.557-16.931-4.464-27.034-21.811-22.564-38.741l11.325-41.957c1.626-6.158-2.053-12.463-8.204-14.11-8.665-2.319-17.44-4.719-26.348-7.215-6.233-1.746-12.703 1.932-14.354 8.191l-11.374 42.211c-4.461 16.912-21.789 27.005-38.701 22.541-16.905-4.463-26.994-21.781-22.539-38.687l11.696-43.494c1.636-6.209-2.045-12.575-8.236-14.276-2.005-.551-4.014-1.104-6.028-1.659l-.066-.018c-8.705-2.397-17.502-4.819-26.407-7.179l-20.325-5.599c-22.465-5.926-34.235-30.602-24.702-51.789 7.635-16.97 26.523-25.737 44.504-20.948.327.087.651.173.971.258 4.307 1.143 4.1.313 8.441-.691 8.839-2.044 13.516-9.337 15.771-14.723l42.412-160.71.111-.436 29.979-113.665c.186-.704.309-1.422.344-2.149.524-10.994 5.431-22.075-10.594-29.65-3.471-1.64-6.884-3.2-10.594-4.187-.614-.163-1.247-.33-1.897-.501-18.147-4.767-29.215-23.214-24.434-41.357 4.72-17.911 23.072-28.6 40.981-23.869l35.65 9.997c9.136 2.402 18.472 4.726 27.955 7.042 6.132 1.497 12.328-2.2 13.94-8.302l10.44-38.39c4.466-16.915 21.798-27.009 38.714-22.546 16.92 4.464 27.016 21.799 22.551 38.718l-9.862 36.23c-1.617 6.128 2.115 12.388 8.273 13.889 9.035 2.203 18.064 4.43 26.997 6.712 6.029 1.539 12.192-2.05 13.78-8.066l9.751-35.841c4.465-16.926 21.804-27.029 38.73-22.565 16.928 4.463 27.032 21.805 22.567 38.733l-10.596 39.037c-1.545 5.855 1.66 11.907 7.311 14.081zm-154.27 95.189 8.382-31.812c3.903-14.813 19.075-23.657 33.888-19.754 14.812 3.903 23.657 19.075 19.754 33.888l-8.383 31.812 31.809 8.381c14.813 3.903 23.657 19.075 19.754 33.888s-19.075 23.657-33.888 19.754l-31.809-8.382-8.382 31.814c-3.903 14.812-19.075 23.656-33.888 19.753-14.812-3.903-23.656-19.075-19.753-33.887l8.382-31.814-31.816-8.383c-14.813-3.903-23.657-19.075-19.754-33.888 3.903-14.812 19.075-23.656 33.888-19.753zm74.829 147.098-8.382 31.812-31.816-8.384c-14.813-3.903-29.985 4.941-33.888 19.754s4.941 29.985 19.754 33.888l31.816 8.383-8.382 31.813c-3.903 14.813 4.941 29.985 19.753 33.888 14.813 3.903 29.985-4.941 33.888-19.754l8.382-31.813 31.809 8.382c14.813 3.903 29.985-4.941 33.888-19.754s-4.941-29.985-19.754-33.888l-31.809-8.381 8.383-31.812c3.903-14.813-4.942-29.985-19.754-33.888-14.813-3.903-29.985 4.941-33.888 19.754z" fill="#fff" fill-rule="evenodd"/><g fill="#000"><path d="m1622.09 309.401c41.42 0 77.24 7.336 107.45 22.007 30.2 14.672 55.23 34.522 75.08 59.55 19.85 25.029 34.52 54.372 44.02 88.031 9.49 33.658 14.24 69.906 14.24 108.743 0 59.55-11.22 116.079-33.66 169.588-21.58 52.646-51.35 98.818-89.33 138.518-37.97 38.837-82.85 69.907-134.63 93.209-51.79 22.443-107.88 33.663-168.3 33.663-7.76 0-21.57-.44-41.42-1.3-18.99 0-41-1.73-66.02-5.18-25.03-3.45-51.79-8.63-80.27-15.53-27.62-6.906-53.94-16.4-78.97-28.482l223.96-941.1485 200.66-31.0695-80.26 333.997c17.26-7.767 34.52-13.808 51.78-18.123 17.26-4.316 35.82-6.473 55.67-6.473zm-168.3 554.073c30.21 0 58.69-7.336 85.44-22.007 26.76-14.672 49.63-34.091 68.62-58.256 19.85-25.028 35.38-53.077 46.6-84.147 11.22-31.069 16.83-63.433 16.83-97.092 0-41.426-6.9-73.79-20.71-97.092s-39.27-34.953-76.38-34.953c-12.08 0-28.05 2.157-47.9 6.472-18.99 4.316-36.25 13.378-51.78 27.186l-85.44 354.711c5.17.863 9.49 1.726 12.94 2.589 4.32.863 8.63 1.726 12.95 2.589h15.53z"/><path d="m2080.62 1004.58h-191.6l161.82-680.939h192.89zm93.2-763.791c-26.75 0-50.92-7.768-72.49-23.302-21.58-16.398-32.37-40.995-32.37-73.79 0-18.124 3.46-34.954 10.36-50.4884 7.77-16.3978 17.69-30.2065 29.78-41.4261 12.08-12.0826 25.89-21.576 41.42-28.4803 16.4-6.9044 33.66-10.3566 51.78-10.3566 26.76 0 50.92 8.1989 72.5 24.5967 21.58 15.5348 32.36 39.7 32.36 72.4957 0 18.124-3.88 35.385-11.65 51.782-6.9 15.535-16.39 29.344-28.48 41.427-12.08 11.219-26.32 20.281-42.72 27.185-15.53 6.905-32.36 10.357-50.49 10.357z"/><path d="m2414.88 154.053 200.65-31.069-49.19 200.657h214.9l-38.84 157.937h-213.6l-56.96 238.2c-5.18 19.85-8.63 38.405-10.36 55.666-.86 17.261 1.29 32.364 6.47 45.31 6.04 12.082 15.97 21.576 29.78 28.48s32.79 10.356 56.96 10.356c20.71 0 40.56-1.726 59.55-5.178 19.85-4.315 39.7-9.925 59.55-16.829l14.24 147.58c-25.89 9.494-53.94 17.697-84.15 24.597-30.2 6.9-66.02 10.36-107.45 10.36-59.55 0-105.72-8.63-138.51-25.895-32.8-18.124-56.1-42.289-69.91-72.496-13.81-31.069-19.85-66.454-18.13-106.154 1.73-39.7 7.77-81.557 18.13-125.572z"/><path d="m2762.29 732.723c0-58.687 9.5-113.921 28.49-165.704 18.98-51.783 46.17-97.092 81.55-135.929 35.39-38.837 78.11-69.475 128.16-91.914 50.92-22.439 107.45-33.659 169.59-33.659 38.84 0 73.36 3.884 103.57 11.651 31.07 6.904 59.12 16.398 84.14 28.481l-66.02 150.169c-17.26-6.904-35.38-12.946-54.37-18.124-18.12-6.041-40.56-9.062-67.32-9.062-64.73 0-115.65 22.008-152.76 66.023-37.11 43.152-55.66 102.27-55.66 177.355 0 44.015 9.49 79.832 28.48 107.449 18.98 26.754 53.94 40.131 104.86 40.131 25.03 0 49.19-2.589 72.49-7.767 23.31-5.178 44.02-11.651 62.14-19.418l14.24 154.053c-24.16 9.493-50.92 17.692-80.26 24.592-28.48 7.77-63.43 11.66-104.86 11.66-53.51 0-98.82-7.77-135.93-23.307-37.11-15.534-67.75-36.247-91.91-62.139-24.17-26.754-41.86-57.824-53.08-93.208-10.36-35.385-15.54-72.496-15.54-111.333z"/><path d="m3594.8 1022.71c-45.74 0-85.44-6.91-119.1-20.72-33.66-13.806-61.71-33.225-84.15-58.253-21.57-25.028-37.97-54.372-49.19-88.03-11.22-34.522-16.83-72.496-16.83-113.922 0-51.782 8.2-103.565 24.6-155.348 17.26-51.782 42.29-98.386 75.08-139.812 32.8-41.427 72.93-75.085 120.4-100.976 47.46-26.755 101.84-40.132 163.11-40.132 44.88 0 84.15 6.904 117.81 20.713 34.52 13.809 62.57 33.227 84.14 58.255 22.44 25.029 39.27 54.804 50.49 89.325 11.22 33.659 16.83 71.201 16.83 112.627 0 51.783-8.2 103.566-24.59 155.348-16.4 51.783-40.57 98.387-72.5 139.813s-72.06 75.516-120.39 102.271c-47.47 25.891-102.71 38.841-165.71 38.841zm95.8-554.078c-28.48 0-53.51 8.199-75.09 24.597-21.57 16.398-39.7 37.111-54.37 62.139s-25.89 52.646-33.66 82.852c-6.9 29.344-10.35 57.392-10.35 84.147 0 44.015 6.9 78.105 20.71 102.27 13.81 23.302 38.84 34.953 75.08 34.953 28.49 0 53.51-8.198 75.09-24.596s39.7-37.111 54.37-62.139c14.67-25.029 25.46-52.214 32.37-81.558 7.76-30.206 11.65-58.687 11.65-85.441 0-44.015-6.91-77.674-20.72-100.976-13.81-24.165-38.83-36.248-75.08-36.248z"/><path d="m4195.76 1004.58h-191.59l161.82-680.939h192.89zm93.21-763.791c-26.75 0-50.92-7.768-72.5-23.302-21.57-16.398-32.36-40.995-32.36-73.79 0-18.124 3.45-34.954 10.36-50.4884 7.76-16.3978 17.69-30.2065 29.77-41.4261 12.08-12.0826 25.89-21.576 41.43-28.4803 16.4-6.9044 33.66-10.3566 51.78-10.3566 26.76 0 50.92 8.1989 72.5 24.5967 21.57 15.5348 32.36 39.7 32.36 72.4957 0 18.124-3.88 35.385-11.65 51.782-6.9 15.535-16.4 29.344-28.48 41.427-12.08 11.219-26.32 20.281-42.72 27.185-15.54 6.905-32.37 10.357-50.49 10.357z"/><path d="m4501.54 354.71c14.67-4.315 30.64-9.061 47.9-14.24 18.12-6.041 37.97-11.219 59.55-15.534 22.44-5.179 47.04-9.062 73.79-11.652 27.62-3.452 58.69-5.178 93.21-5.178 101.84 0 171.75 29.344 209.72 88.031 37.97 58.686 44.45 138.949 19.42 240.788l-88.03 367.655h-192.89l85.44-359.887c5.18-22.439 9.06-44.015 11.65-64.728 3.45-21.576 3.45-40.132 0-55.667-3.45-16.397-11.65-29.343-24.6-38.837-12.08-10.356-31.07-15.534-56.96-15.534-25.03 0-50.49 2.589-76.38 7.767l-125.57 526.886h-192.89z"/><path d="m5463.9 1024c-56.1 0-105.72-8.2-148.88-24.597-42.29-16.397-77.67-39.7-106.15-69.906-28.48-30.207-50.06-66.454-64.73-108.743-13.81-43.153-20.71-91.483-20.71-144.992 0-77.673 12.08-151.895 36.25-222.665 25.02-70.769 59.98-133.34 104.86-187.711 45.74-54.372 100.54-97.524 164.41-129.457 63.86-32.795 135.06-49.1933 213.6-49.1933 67.32 0 120.82 6.9044 160.52 20.7133 40.57 13.808 69.48 26.754 86.74 38.837l-51.78 103.565c-19.85-12.946-47.04-25.028-81.56-36.248-33.66-12.083-73.79-18.124-120.39-18.124-59.55 0-113.06 14.24-160.53 42.721-47.47 27.617-87.6 63.865-120.39 108.743-32.8 44.015-57.83 94.072-75.09 150.17-17.26 55.234-25.89 110.037-25.89 164.409 0 168.293 72.93 252.44 218.78 252.44 31.07 0 58.69-2.157 82.85-6.473 25.03-4.315 47.04-9.062 66.03-14.24 18.98-6.041 35.81-12.514 50.48-19.418 14.68-6.905 27.62-12.946 38.84-18.124l15.54 108.743c-10.36 6.041-24.17 12.514-41.43 19.419-16.4 6.904-35.82 13.377-58.26 19.421-22.44 6.04-47.46 10.79-75.08 14.24-27.62 4.31-56.96 6.47-88.03 6.47z"/><path d="m6036.38 1021.41c-70.77 0-126.44-20.71-167-62.138-39.7-42.289-59.55-100.113-59.55-173.472 0-50.056 6.91-102.702 20.71-157.936 14.68-55.235 37.55-106.155 68.62-152.759s71.2-85.01 120.39-115.216c49.19-30.207 108.74-45.31 178.65-45.31 70.77 0 126 21.145 165.7 63.434 40.57 41.426 60.85 98.818 60.85 172.177 0 50.056-7.34 102.702-22.01 157.936-13.81 55.235-36.25 106.155-67.32 152.759s-71.2 85.01-120.39 115.216c-49.19 30.209-108.74 45.309-178.65 45.309zm20.71-102.27c38.84 0 73.36-11.219 103.57-33.658 31.07-22.439 56.96-50.92 77.67-85.441 21.58-35.385 37.98-74.222 49.2-116.511 11.21-42.289 16.82-83.284 16.82-122.984 0-44.015-9.49-78.968-28.48-104.86-18.98-25.891-51.78-38.836-98.38-38.836-38.84 0-73.79 11.219-104.86 33.658-30.21 22.439-56.1 51.351-77.68 86.736-20.71 34.522-36.68 72.927-47.89 115.216-11.22 42.289-16.83 83.284-16.83 122.984 0 44.015 9.49 78.968 28.48 104.859 18.98 25.892 51.78 38.837 98.38 38.837z"/><path d="m6591.34 1004.58h-120.39l155.35-647.28c39.7-12.083 82.42-21.576 128.16-28.481 46.6-7.767 88.03-11.651 124.28-11.651 38.83 0 72.06 5.61 99.68 16.829 28.48 10.357 51.35 25.029 68.61 44.016 17.26 18.124 29.78 40.563 37.54 67.317 8.63 25.891 12.95 54.372 12.95 85.441 0 19.85-1.73 40.995-5.18 63.434-3.45 21.576-7.77 43.584-12.95 66.023l-82.85 344.352h-120.39l76.38-318.461c6.04-24.165 11.65-48.762 16.83-73.79 6.04-25.029 9.06-48.762 9.06-71.201 0-34.522-9.5-63.002-28.48-85.442-18.99-23.302-54.37-34.953-106.16-34.953-21.57 0-42.72 1.295-63.43 3.884s-37.97 6.041-51.78 10.356z"/><path d="m7278.47 1004.58h-120.39l155.35-647.28c39.7-12.083 82.42-21.576 128.16-28.481 46.6-7.767 88.03-11.651 124.28-11.651 38.83 0 72.06 5.61 99.68 16.829 28.48 10.357 51.35 25.029 68.61 44.016 17.26 18.124 29.78 40.563 37.54 67.317 8.63 25.891 12.95 54.372 12.95 85.441 0 19.85-1.73 40.995-5.18 63.434-3.45 21.576-7.77 43.584-12.95 66.023l-82.85 344.352h-120.39l76.38-318.461c6.04-24.165 11.65-48.762 16.83-73.79 6.04-25.029 9.06-48.762 9.06-71.201 0-34.522-9.49-63.002-28.48-85.442-18.99-23.302-54.37-34.953-106.16-34.953-21.57 0-42.72 1.295-63.43 3.884s-37.97 6.041-51.78 10.356z"/><path d="m8010.91 651.166c50.06-1.726 95.8-4.747 137.23-9.062 41.42-5.179 77.24-13.377 107.45-24.597 30.2-12.083 53.51-28.049 69.9-47.899 17.26-19.85 25.89-45.741 25.89-77.674 0-7.767-1.72-15.966-5.17-24.596-2.59-8.631-7.77-16.398-15.54-23.303-6.9-7.767-16.83-13.808-29.77-18.123-12.95-5.179-28.92-7.768-47.9-7.768-30.21 0-58.69 6.473-85.44 19.419-25.89 12.945-49.2 30.206-69.91 51.782-20.71 20.713-38.41 45.31-53.08 73.79-14.67 27.618-25.89 56.961-33.66 88.031zm122.99 370.244c-44.02 0-81.99-6.04-113.92-18.12-31.94-12.949-58.69-30.209-80.27-51.785-21.57-22.44-37.54-48.331-47.9-77.674-10.35-29.344-15.53-60.413-15.53-93.209 0-60.413 9.06-118.668 27.19-174.766 18.12-56.098 44.01-105.723 77.67-148.875s74.65-77.242 122.98-102.271c48.33-25.891 103.14-38.836 164.41-38.836 35.39 0 65.59 4.746 90.62 14.24 25.89 8.63 46.61 20.713 62.14 36.248 16.4 15.534 28.48 33.658 36.25 54.371 7.77 19.85 11.65 40.563 11.65 62.139 0 40.563-7.34 75.085-22.01 103.565-14.67 27.618-34.09 50.92-58.25 69.907-24.17 18.987-52.65 33.659-85.44 44.015-31.94 10.357-65.6 18.556-100.98 24.597-34.52 6.041-69.91 10.356-106.15 12.945-35.39 1.726-69.05 3.453-100.98 5.179-.86 6.904-1.3 12.514-1.3 16.829v10.356c0 19.85 2.16 38.837 6.48 56.961 5.18 17.261 14.24 32.796 27.18 46.605 12.95 12.945 30.64 23.302 53.08 31.069 23.3 7.768 53.51 11.651 90.62 11.651 16.4 0 33.23-1.294 50.49-3.883 18.12-3.453 34.95-7.336 50.49-11.652 16.39-5.178 30.63-9.924 42.72-14.24 12.94-5.178 22-9.925 27.18-14.24l10.36 102.271c-17.26 9.493-45.31 19.418-84.15 29.773-37.97 11.22-82.85 16.83-134.63 16.83z"/><path d="m8520.43 763.793c0-58.687 8.63-115.216 25.89-169.588 18.12-54.372 44.44-102.271 78.97-143.697 34.52-41.426 76.81-74.221 126.86-98.387 50.06-25.028 107.45-37.542 172.18-37.542 28.48 0 55.67 2.158 81.56 6.473 25.89 3.452 50.49 10.788 73.79 22.007l-45.31 100.976c-13.81-7.767-30.21-13.808-49.2-18.123-18.12-4.316-41.85-6.473-71.2-6.473-42.29 0-80.26 9.493-113.92 28.48-33.66 18.124-62.57 42.721-86.73 73.79-23.31 30.207-41.43 65.592-54.38 106.155-12.08 39.7-18.12 81.126-18.12 124.278 0 22.439 2.16 43.583 6.47 63.433 5.18 19.85 13.81 37.543 25.89 53.077 12.09 14.672 28.05 26.323 47.9 34.954 20.72 8.63 46.61 12.945 77.68 12.945 15.53 0 31.93-1.294 49.19-3.883 17.26-3.453 33.23-7.336 47.9-11.652 14.67-4.315 27.62-8.63 38.84-12.945 12.08-5.178 20.71-9.925 25.89-14.24l10.35 102.27c-16.39 10.357-41.85 20.282-76.37 29.779-34.53 10.35-73.79 15.53-117.81 15.53-41.43 0-78.11-6.04-110.04-18.12-31.93-12.949-58.69-30.641-80.26-53.08-21.58-23.302-37.97-50.488-49.19-81.558-11.22-31.932-16.83-66.885-16.83-104.859z"/><path d="m9277.97 1022.71c-64.73 0-112.2-14.24-142.4-42.725-30.21-28.48-45.31-69.906-45.31-124.278 0-35.385 6.04-80.695 18.12-135.929l138.52-576.081 125.57-20.713-50.49 208.424h229.14l-24.59 100.976h-229.14l-71.2 297.75c-10.36 40.563-15.54 75.948-15.54 106.154 0 28.481 7.77 49.194 23.3 62.139 15.54 12.083 41.43 18.124 77.68 18.124 25.03 0 49.62-3.883 73.79-11.651 24.16-8.63 42.72-16.398 55.66-23.302l9.07 102.271c-12.95 7.767-34.96 15.966-66.03 24.601-31.07 9.49-66.45 14.24-106.15 14.24z"/></g></svg>