<svg width="8215" height="2560" viewBox="0 0 8215 2560" fill="none" xmlns="http://www.w3.org/2000/svg">
<path d="M2000.73 1160.99C2009.99 1164.29 2018.3 1168.44 2026.48 1173.41C2072.11 1201.91 2108.83 1244.57 2152.63 1276.52C2167.63 1287.76 2183.16 1296.29 2201.03 1299.56C2227.53 1304.63 2257.11 1299.63 2283.91 1307.6C2410.33 1345.81 2407.94 1521.57 2239.09 1471.44C2232.84 1470.19 2229.23 1469.83 2226.24 1473.01C2222.17 1478.62 2223.72 1487.92 2223.01 1495.08C2222.15 1518.01 2208.39 1539.17 2186.43 1550.07C2121.86 1579.68 2079.47 1483.34 2038.9 1446.01C2026.41 1433.52 2012.88 1422.47 1997.8 1413.16C1969.15 1395.24 1934.63 1386.8 1905.23 1370.47C1879.19 1356.83 1859.91 1334.35 1854.92 1304.74C1836.16 1211.4 1907.14 1127.1 2000.27 1160.86L2000.73 1161.02V1160.99Z" fill="#FFDF6F" stroke="#231F20" stroke-width="90.8204" stroke-linecap="round" stroke-linejoin="round"/>
<path d="M1490.64 1269.49C1489.91 1269.4 1489.18 1269.31 1488.46 1269.22" stroke="#231F20" stroke-width="90.8204" stroke-linecap="round" stroke-linejoin="round"/>
<path d="M2057.97 2161.58C1954.69 2225.85 1845.59 2230.15 1799.68 2101.45C1768.35 2031.39 1756.52 1924.67 1757.88 1875.42C1811.87 1858.99 1883.44 1746.03 1884.96 1710.31C1954.71 1667.56 1934.71 1678.46 1954.71 1667.56C2144.5 1849.31 2205.67 2054.82 2057.97 2161.58Z" fill="#FFDF6F" stroke="#231F20" stroke-width="90.8204" stroke-linecap="round" stroke-linejoin="round"/>
<path d="M1381.58 1555.4C1422.09 1663.16 1341.8 1773.82 1261.54 1835.76C1131.01 1936.48 940.512 2013.41 753.695 1939.21C715.232 1923.93 681.288 1900.13 658.152 1870.02C615.376 1814.35 617.85 1752.75 659.991 1695.81C722.158 1611.8 841.314 1564.96 949.186 1534.35C1026.79 1512.33 1096.41 1476.45 1172.17 1464.21C1264.38 1456.18 1346.5 1463.47 1382.1 1554.04C1382.13 1554.1 1381.58 1555.35 1381.6 1555.42L1381.58 1555.4Z" fill="white" stroke="#231F20" stroke-width="90.8204" stroke-linecap="round" stroke-linejoin="round"/>
<path d="M1466.78 1743.74C1483.54 1752.89 1538.56 1778.62 1610.42 1811.49C1668.31 1837.67 1643.63 1951.43 1643.63 1951.43C1524.93 2240.76 1383.57 2437.32 1209.74 2281.65C1175.73 2248.41 1158.06 2208.29 1149.03 2172.91C1077.05 1964 1325.35 1777.05 1335.59 1719.9L1466.78 1743.74Z" fill="#FFDF6F" stroke="#231F20" stroke-width="90.8204" stroke-linecap="round" stroke-linejoin="round"/>
<path d="M1909.33 1715.27C1893.86 1751.92 1872.93 1794.31 1844.53 1839.02C1813.9 1887.22 1782.2 1926.14 1754.09 1956.54C1748.92 1960.24 1742.13 1963.37 1734.38 1965.76C1698.53 1976.81 1658.82 1964.48 1636.73 1936.31C1631.67 1929.84 1626.4 1923.41 1620.9 1917.03C1508.2 1786.02 1436.9 1751.47 1337.23 1732.48C1364.5 1736.25 1459.88 1757.96 1488.58 1759.89C1491.6 1760.12 1494.64 1760.3 1497.66 1760.48C1511.26 1761.32 1524.93 1761.96 1538.69 1762.32C1542.82 1762.45 1547 1762.57 1551.15 1762.64C1674.24 1765.11 1802.32 1750.47 1909.35 1715.3L1909.33 1715.27Z" fill="#231F20" stroke="#231F20" stroke-width="94.8165" stroke-linecap="round" stroke-linejoin="round"/>
<path d="M1266.86 1417.26C1268.14 1416.26 1259.49 1368.83 1260.83 1367.92L1263.59 1199.47C1263.59 1199.47 1412.88 1260.3 1573.93 1274.42" fill="#FFDF6F"/>
<path d="M1266.86 1417.26C1268.14 1416.26 1259.49 1368.83 1260.83 1367.92L1263.59 1199.47C1263.59 1199.47 1412.88 1260.3 1573.93 1274.42" stroke="#231F20" stroke-width="90.8204" stroke-linecap="round" stroke-linejoin="round"/>
<path d="M1573.94 1274.44C1685.53 1274.9 1813.43 1254.28 1907.79 1226.17C1938.47 1217.04 1971.48 1231.53 1984.63 1260.71C2006.49 1309.2 2018.28 1369.92 2018.87 1430.93C2018.87 1432.97 2019 1434.99 2019.23 1437.03C2029.02 1527.63 2003.5 1654.91 1949.18 1681.48C1764.41 1773.98 1511.63 1779.09 1315.94 1702.3C1315.94 1702.3 1273.44 1675.16 1249.64 1606.94C1225.85 1538.71 1198.67 1448.75 1199.17 1448.36L1267.12 1258.34L1573.96 1274.42" fill="#FFDF6F"/>
<path d="M1573.94 1274.44C1685.53 1274.9 1813.43 1254.28 1907.79 1226.17C1938.47 1217.04 1971.48 1231.53 1984.63 1260.71C2006.49 1309.2 2018.28 1369.92 2018.87 1430.93C2018.87 1432.97 2019 1434.99 2019.23 1437.03C2029.02 1527.63 2003.5 1654.91 1949.18 1681.48C1764.41 1773.98 1511.63 1779.09 1315.94 1702.3C1315.94 1702.3 1273.44 1675.16 1249.64 1606.94C1225.85 1538.71 1198.67 1448.75 1199.17 1448.36L1267.12 1258.34L1573.96 1274.42" stroke="#231F20" stroke-width="90.8204" stroke-linecap="round" stroke-linejoin="round"/>
<path d="M1308.42 2337.02C1222.57 2523.63 960.303 2381.68 1149.03 2172.93L1171.23 2312.23L1308.42 2337.02Z" fill="#231F20" stroke="#231F20" stroke-width="90.8204" stroke-linecap="round" stroke-linejoin="round"/>
<path d="M2017.14 1159.16C2016.96 1159.34 2016.75 1159.53 2016.57 1159.73C1982.49 1193.11 1940.33 1217.11 1894.42 1230.02C1778.62 1262.58 1618.66 1283.65 1498.4 1270.39C1493.22 1269.83 1488.06 1269.44 1482.86 1269.17C1441.54 1266.92 1243.94 1249.66 1087.43 1122.99C1040.84 1085.28 1007.65 1033.49 991.844 975.66C762.387 135.412 1850.19 -178.691 2133.91 523.919C2213.65 729.196 2180 999.091 2017.14 1159.16Z" fill="#FFDF6F" stroke="#231F20" stroke-width="90.8204" stroke-linecap="round" stroke-linejoin="round"/>
<path d="M1240.14 1479.59C1222.48 1504.82 1199.36 1527.11 1173.91 1545.41C897.363 1729.89 411.814 1625.06 235.191 1355.71C186.784 1281.17 167.848 1180.68 210.193 1099.44C251.448 1016.66 346.105 972.314 436.449 963.369C570.636 948.973 705.527 992.09 825.387 1045.79C867.369 1064.47 907.989 1083.66 949.993 1103C1033.75 1142.38 1127.09 1181.31 1199.05 1240.35C1280.03 1305.38 1301.29 1392.11 1240.39 1479.27L1240.14 1479.64V1479.59Z" fill="white" stroke="#231F20" stroke-width="90.8204" stroke-linecap="round" stroke-linejoin="round"/>
<path d="M2018.88 2239.74L1880.9 2197.92C1880.9 2197.92 1920.25 2331.85 2024.14 2319.39C2161.58 2302.91 2108.52 2130.12 2109.02 2128.01L2018.9 2239.76L2018.88 2239.74Z" stroke="#231F20" stroke-width="90.8204" stroke-linecap="round" stroke-linejoin="round"/>
<path d="M1488.46 1269.22C1489.18 1269.31 1489.91 1269.4 1490.64 1269.49" stroke="#231F20" stroke-width="90.8204" stroke-linecap="round" stroke-linejoin="round"/>
<path d="M1726.48 1161.37C1563.94 1157.01 1400.96 1094.5 1286.94 975.844C1123.78 800.674 1132.27 539.815 1315.57 382.786C1472.6 258.249 1680.12 232.32 1870.28 299.64C2131.77 392.232 2251.18 834.754 2054.35 1042.91C1965.57 1128.85 1847.37 1160.23 1727.01 1161.34C1726.87 1161.34 1726.64 1161.34 1726.51 1161.34L1726.48 1161.37Z" fill="#231F20"/>
<path fill-rule="evenodd" clip-rule="evenodd" d="M1795.79 511.563C1789 557.632 1762.66 593.324 1721.2 623.295C1659.42 668.137 1564.02 679.172 1496.38 648.997C1451.74 629.516 1414.8 594.187 1410.01 538.514C1406.53 491.56 1433.58 448.829 1463.89 422.899C1525.76 369.384 1618.74 350.448 1695.25 374.674C1746.86 390 1804.81 438.793 1795.81 511.222L1795.77 511.563H1795.79Z" fill="white"/>
<path fill-rule="evenodd" clip-rule="evenodd" d="M1305.85 673.558C1333.4 651.806 1377.9 659.935 1390.11 693.992C1408.25 743.626 1346.13 789.399 1303.04 760.132C1272.55 739.63 1277.11 694.447 1305.49 673.853L1305.85 673.581V673.558Z" fill="white"/>
<path d="M1134.93 1255.31C1115.47 1267.41 1102.53 1285.48 1089.66 1303.78C1059.32 1346.9 1029.83 1391.45 997.973 1433.66C986.848 1448.35 975.268 1463.1 959.806 1472.62C938.463 1486.08 912.375 1487.67 888.398 1494.39C818.421 1511.97 764.724 1590.23 784.772 1661.5C793.65 1692.06 821.6 1719.99 854.886 1719.88C907.403 1719.81 950.747 1682.91 996.248 1661.46C1019 1650.6 1027.83 1658.87 1022.34 1682.98C1019.47 1695.92 1015.86 1710.93 1019.63 1722.81C1026.22 1746.3 1055.21 1752.09 1076.26 1745.6C1105.12 1737.61 1122.6 1712.86 1136.43 1686.59C1151.12 1659.19 1159.79 1629.33 1175.44 1602.38C1182.27 1590.41 1190.88 1577.47 1198.23 1567.14C1210.95 1548.91 1223.43 1537.1 1240.67 1522.73C1256.74 1508.9 1271.55 1498.12 1289.35 1485.63C1316.34 1465.97 1345.04 1440.13 1350.76 1406.18C1353.83 1386.66 1349.95 1367.31 1345.5 1348.13C1322.45 1244.54 1234.56 1195.64 1135.32 1255.06L1134.91 1255.31H1134.93Z" fill="#FFDF6F" stroke="#231F20" stroke-width="90.8204" stroke-linecap="round" stroke-linejoin="round"/>
<path d="M1186.37 1951.11C1186.37 1951.11 1256.59 2184.75 1523.06 2191.2" stroke="#231F20" stroke-width="90.8204" stroke-miterlimit="10"/>
<path d="M1797.09 2071.15C1797.09 2071.15 2055.16 2046.28 2118.66 1896.95" stroke="#231F20" stroke-width="90.8204" stroke-miterlimit="10"/>
<path d="M2034.01 1397.29C1867.12 1598.13 1324.59 1501.16 1324.59 1501.16L1293.46 1493.74" stroke="#231F20" stroke-width="134.573" stroke-miterlimit="10"/>
<path d="M3649.98 781.238L3978.16 1777.49H3796.49L3708.58 1503.52H3310.08L3223.64 1777.49H3041.97L3371.62 781.238H3649.98ZM3359.89 1345.29H3658.77L3562.08 1043.49L3510.8 872.073H3507.87L3456.59 1043.49L3359.89 1345.29Z" fill="#111111"/>
<path d="M4131.88 1777.49V735.82H4304.76V1633.91H4370.69V1777.49H4131.88Z" fill="#111111"/>
<path d="M4935.43 1792.14C4827.01 1792.14 4746.43 1739.4 4696.62 1647.1V1777.49H4528.14V735.82H4701.02V1168.02C4750.83 1080.11 4829.94 1030.3 4935.43 1030.3C5105.38 1030.3 5243.09 1160.69 5243.09 1411.22C5243.09 1661.75 5105.38 1792.14 4935.43 1792.14ZM4701.02 1443.45C4701.02 1575.31 4766.94 1657.36 4881.22 1657.36C4994.03 1657.36 5065.82 1578.24 5065.82 1428.8V1392.18C5065.82 1247.13 4994.03 1170.95 4881.22 1170.95C4766.94 1170.95 4701.02 1251.53 4701.02 1377.53V1443.45Z" fill="#111111"/>
<path d="M5579.95 2070.51L5673.71 1762.84H5565.3L5333.82 1044.95H5514.02L5653.2 1493.27L5703.02 1666.15H5705.95L5755.76 1493.27L5890.55 1044.95H6069.28L5754.29 2070.51H5579.95Z" fill="#111111"/>
<path d="M6821.46 1792.14C6566.54 1792.14 6370.22 1600.22 6370.22 1279.36C6370.22 958.512 6576.79 766.587 6847.83 766.587C7085.17 766.587 7236.08 911.63 7269.78 1106.49H7091.04C7069.06 996.604 6976.76 921.885 6846.37 921.885C6670.56 921.885 6547.49 1053.74 6547.49 1257.39V1301.34C6547.49 1504.99 6663.23 1636.84 6841.97 1636.84C6997.27 1636.84 7108.62 1537.22 7108.62 1383.39H6840.51V1236.88H7277.1V1777.49H7139.38V1613.4C7083.71 1724.75 6972.36 1792.14 6821.46 1792.14Z" fill="#111111"/>
<path d="M7803.69 1792.14C7591.26 1792.14 7440.35 1647.1 7440.35 1411.22C7440.35 1175.34 7591.26 1030.3 7803.69 1030.3C8016.13 1030.3 8167.03 1175.34 8167.03 1411.22C8167.03 1647.1 8016.13 1792.14 7803.69 1792.14ZM7619.09 1430.27C7619.09 1575.31 7695.28 1651.5 7803.69 1651.5C7912.11 1651.5 7989.76 1575.31 7989.76 1430.27V1392.18C7989.76 1247.13 7912.11 1170.95 7803.69 1170.95C7695.28 1170.95 7619.09 1247.13 7619.09 1392.18V1430.27Z" fill="#111111"/>
</svg>
