<svg width="8215" height="2560" viewBox="0 0 8215 2560" fill="none" xmlns="http://www.w3.org/2000/svg">
<g clip-path="url(#clip0_1443_12888)">
<path d="M1187.98 2514.65C1109.88 2513.96 1039.36 2467.87 1008.39 2397.26C989.405 2354.01 986.295 2304.83 999.35 2254.99C1008.5 2220.11 1025.48 2185.31 1049.91 2151.25C1043.67 2115.44 1043.44 2078.8 1049.23 2041.56C1001.96 2053.6 954.735 2059.68 908.848 2059.68C843.956 2059.68 780.473 2047.53 720.168 2023.6C665.063 2001.71 618.722 1967.75 586.14 1925.33C530.195 1852.52 521.43 1766.15 559.757 1686.59C492.663 1665.66 428.635 1637.37 371.872 1603.44C281.46 1549.38 209.916 1482.79 159.239 1405.48C126.521 1355.07 105.564 1298.31 98.5253 1241.16C90.4877 1175.84 101.114 1112.56 129.291 1058.14C156.696 1003.53 202.038 957.325 260.413 924.516C309.751 896.771 367.399 878.97 427.091 872.998C447.889 870.773 469.231 869.661 490.483 869.661C602.329 869.661 720.531 899.268 862.529 962.865C874.722 968.292 886.869 973.786 898.948 979.326C845.773 768.509 864.981 570.862 954.848 406.567C1037.47 255.51 1175.97 140.963 1344.85 84.0188C1420.67 58.4529 1499.02 45.4883 1577.76 45.4883C1668.88 45.4883 1757.02 62.6987 1839.69 96.6202C2011.91 167.278 2142.78 303.282 2218.16 489.941L2218.61 491.076C2264.25 608.575 2277.58 744.351 2256.15 873.407C2238.96 976.806 2200.5 1071.53 2144.14 1150C2149.16 1154.45 2154.06 1158.86 2158.94 1163.24C2175.38 1178.02 2190.91 1191.98 2206.22 1203.13L2206.97 1203.68C2214.6 1209.37 2217.43 1210.19 2217.55 1210.21L2217.98 1210.28C2222.36 1211.12 2231.37 1211.33 2239.32 1211.53C2258.89 1212.01 2283.19 1212.58 2309.87 1220.5C2362.84 1236.51 2407.07 1269.5 2434.58 1313.43C2462.99 1358.8 2471.19 1411.86 2457.06 1459.02C2442.78 1506.72 2408.47 1542.59 2360.5 1560.01C2340.11 1567.41 2317.77 1571.16 2294.11 1571.16C2294.11 1571.16 2292.81 1571.16 2292.18 1571.16C2276.85 1596.72 2254.19 1617.82 2226.83 1631.37C2226.02 1631.78 2225.22 1632.17 2224.4 1632.53C2204.24 1641.77 2183.35 1646.45 2162.26 1646.45C2137.38 1646.45 2113.19 1640.02 2090.13 1627.26C2086.11 1640 2081.61 1652.03 2076.62 1663.32C2117.58 1709.86 2151.09 1757.52 2176.45 1805.29C2217.02 1881.74 2235.19 1955.44 2230.42 2024.35C2227.83 2061.84 2218.36 2097.14 2202.27 2129.52C2218.05 2210.92 2207.85 2280.33 2172.52 2331.03C2151.02 2361.86 2109.72 2400.51 2035 2409.48C2026.98 2410.43 2018.88 2410.93 2010.93 2410.93C1944.25 2410.93 1883.44 2377.23 1839.71 2316.04C1825.48 2296.13 1814.99 2276.15 1807.72 2260.03C1766.71 2232.26 1735.7 2190.35 1715.4 2135.22C1706.73 2115.29 1698.99 2092.69 1692.31 2067.72C1647.31 2166.24 1602.87 2241.98 1557.03 2298.4C1501.5 2366.77 1443.85 2407.05 1380.77 2421.51C1374.28 2423.01 1367.74 2424.21 1361.2 2425.12C1318.36 2482.27 1257.03 2514.58 1189.87 2514.58H1188.01L1187.98 2514.65Z" fill="white"/>
<path d="M1577.73 90.8885C1661.86 90.8885 1744.98 106.827 1822.43 138.615C1983.06 204.528 2105.33 331.88 2176.04 506.937C2176.1 507.118 2176.19 507.3 2176.26 507.504C2218.99 617.533 2231.46 744.841 2211.32 865.972C2192.63 978.454 2147.99 1077.97 2081.4 1156.64C2098.02 1169.59 2113.46 1183.46 2128.56 1197.04C2145.88 1212.61 2162.25 1227.32 2179.44 1239.86C2179.58 1239.97 2179.74 1240.06 2179.87 1240.18C2191.34 1248.76 2200.4 1253.3 2209.25 1254.91C2209.37 1254.91 2209.5 1254.96 2209.62 1254.98C2217.52 1256.48 2227.58 1256.73 2238.22 1256.98C2255.93 1257.41 2276.03 1257.89 2296.89 1264.08C2339.22 1276.89 2374.36 1302.95 2396.07 1337.6C2417.55 1371.89 2423.91 1411.42 2413.55 1446.04C2403.47 1479.65 2379.13 1504.98 2344.98 1517.38C2329.5 1523.01 2312.49 1525.81 2294.1 1525.81C2284.45 1525.81 2274.42 1525.03 2264.02 1523.49C2255.39 1552.21 2234.86 1576.76 2206.66 1590.74C2206.26 1590.95 2205.85 1591.13 2205.44 1591.33C2193.72 1596.71 2179.01 1601.1 2162.25 1601.1C2142.64 1601.1 2120.23 1595.08 2096.52 1577.53C2083.88 1568.17 2072.5 1556.71 2062.06 1544.72C2059.67 1561.77 2056.4 1578.55 2052.27 1594.6C2046.09 1618.6 2036.51 1646.39 2021.85 1670.69C2070.05 1721.82 2108.47 1774.13 2136.35 1826.67C2172.88 1895.51 2189.3 1960.99 2185.14 2021.32C2182.6 2058.26 2172.15 2092.39 2154.4 2122.79C2172.13 2198.72 2165.55 2261.75 2135.28 2305.18C2119.09 2328.41 2087.62 2357.54 2029.59 2364.51C2023.32 2365.26 2017.08 2365.64 2010.92 2365.64C1959.11 2365.64 1911.98 2339.19 1876.67 2289.76C1860.59 2267.29 1850.04 2244.6 1843.93 2229.25C1813.3 2211.73 1779.63 2179.1 1757.58 2118.41C1744.18 2087.98 1734.08 2051.86 1726.86 2015.87C1720.37 2016.78 1713.85 2017.26 1707.38 2017.26C1693.87 2017.26 1680.5 2015.26 1667.71 2011.49C1570.17 2236.72 1475.27 2353.36 1370.69 2377.38C1359.08 2380.04 1347.48 2381.56 1335.9 2381.9C1301.66 2437.19 1248.76 2469.29 1189.93 2469.29C1189.45 2469.29 1188.98 2469.29 1188.5 2469.29C1128.22 2468.75 1073.86 2433.35 1050.07 2379.09C1035.24 2345.3 1032.92 2306.41 1043.37 2266.58C1052.5 2231.8 1071.09 2196.81 1098.68 2162.27C1082.06 2094.66 1092.37 2030.52 1115.28 1972.32C1091.59 1981.84 1066.51 1990.31 1040.17 1997.1C995.643 2008.58 951.822 2014.33 908.932 2014.33C849.672 2014.33 792.182 2003.36 737.032 1981.45C689.533 1962.58 649.844 1933.63 622.257 1897.72C567.856 1826.92 568.333 1743.48 623.597 1668.82C626.026 1665.56 628.501 1662.33 631.067 1659.18C546.468 1638.92 465.501 1606.48 395.297 1564.52C310.834 1514.02 244.217 1452.15 197.331 1380.63C168.405 1336.08 149.9 1286.02 143.702 1235.66C136.754 1179.35 145.814 1125.15 169.836 1078.83C193.154 1032.22 232.206 992.576 282.748 964.149C326.728 939.423 378.291 923.553 431.875 918.217C451.174 916.151 470.701 915.106 490.59 915.106C595.443 915.106 709.468 944.055 844.063 1004.34C873.24 1017.32 902.279 1030.79 930.365 1043.82C943.194 1049.77 956.068 1055.74 969.1 1061.74C969.214 1061.78 969.327 1061.85 969.441 1061.89C973.392 1063.76 977.41 1065.62 981.407 1067.48C967.102 1042.73 955.909 1015.99 948.166 987.649C891.676 780.806 907.797 587.404 994.78 428.354C1071.91 287.333 1201.42 180.347 1359.45 127.058C1430.99 102.945 1504.78 90.9112 1577.85 90.9112M1577.73 0.0681153C1494.07 0.0681153 1410.81 13.8274 1330.32 40.9827C1150.58 101.583 1003.09 223.668 914.971 384.761C832.234 536.022 805.692 713.167 836.548 902.255C780.807 879.278 728.676 861.772 678.316 849.034C612.358 832.369 550.918 824.263 490.477 824.241C467.658 824.241 444.749 825.444 422.384 827.828C356.562 834.435 292.852 854.166 238.132 884.931C171.924 922.145 120.293 974.912 88.801 1037.55C56.5144 1100.08 44.2763 1172.38 53.4492 1246.71C61.3279 1310.67 84.6914 1374.07 121.042 1430.04L121.156 1430.22L121.269 1430.4C175.762 1513.48 252.232 1584.82 348.57 1642.44C395.365 1670.41 446.815 1694.75 500.785 1714.55C494.36 1737.49 490.999 1760.83 490.863 1784.19C490.522 1843.77 511.002 1902.14 550.123 1953.05C587.7 2001.93 640.694 2040.94 703.405 2065.85C769.046 2091.91 838.16 2105.13 908.841 2105.13C938.721 2105.13 969.1 2102.74 999.639 2098.04C999.752 2112.23 1000.68 2126.31 1002.41 2140.32C980.339 2174.04 964.605 2208.59 955.455 2243.51C939.765 2303.34 943.693 2362.83 966.83 2415.55C1004.97 2502.51 1091.64 2559.25 1187.64 2560.09C1188.41 2560.09 1189.14 2560.09 1189.88 2560.09C1235.14 2560.09 1279.75 2547.67 1318.87 2524.15C1344.01 2509.05 1366.46 2489.89 1385.99 2466.95C1387.65 2466.61 1389.3 2466.25 1390.94 2465.86C1428.7 2457.19 1465.39 2440.34 1499.99 2415.8C1531.73 2393.28 1562.77 2363.44 1592.26 2327.14C1624.17 2287.86 1655.25 2240.09 1686.13 2182.71C1710.79 2234.16 1742.62 2267.99 1771.57 2290.01C1779.38 2306 1789.66 2324.28 1802.74 2342.58C1855.24 2416 1929.14 2456.44 2010.88 2456.44C2020.66 2456.44 2030.59 2455.85 2040.4 2454.67C2111.71 2446.11 2171.86 2411.46 2209.75 2357.11C2250.05 2299.3 2263.56 2223.33 2249.46 2135.82C2264.27 2102.02 2273.08 2065.76 2275.71 2027.57C2281.07 1950.05 2261.16 1868.13 2216.54 1784.08C2200.13 1753.15 2180.55 1722.32 2158.01 1691.87C2159.42 1691.89 2160.82 1691.92 2162.21 1691.92C2189.89 1691.92 2217.15 1685.85 2243.24 1673.89L2243.31 1673.84L2243.38 1673.8C2244.54 1673.25 2245.69 1672.71 2246.85 1672.14C2274.26 1658.56 2297.98 1639.13 2316.49 1615.65C2337.29 1613.86 2357.2 1609.52 2375.93 1602.73C2436.85 1580.62 2482.26 1532.98 2500.51 1472.09C2518.38 1412.42 2508.37 1345.82 2473.02 1289.38C2439.66 1236.13 2386.44 1196.26 2323.16 1177.12L2322.96 1177.06L2322.76 1176.99C2290.29 1167.34 2261.45 1166.63 2240.38 1166.13C2237.95 1166.07 2234.96 1166 2232.21 1165.91C2223.19 1159.28 2213.86 1151.38 2203.76 1142.43C2251.8 1065.57 2284.95 976.614 2300.89 880.799C2323.66 743.819 2309.45 599.551 2260.91 474.559C2260.68 474.014 2260.5 473.492 2260.29 472.993V472.925L2260.25 472.856C2220.72 374.952 2166.29 289.513 2098.47 218.877C2029.91 147.447 1948.62 92.16 1856.89 54.5149C1768.71 18.3457 1674.8 0 1577.73 0V0.0681153Z" fill="white"/>
<path d="M2000.74 1160.99C2010 1164.29 2018.31 1168.44 2026.49 1173.41C2072.12 1201.91 2108.84 1244.57 2152.64 1276.52C2167.64 1287.76 2183.17 1296.29 2201.04 1299.56C2227.54 1304.63 2257.12 1299.63 2283.92 1307.6C2410.34 1345.81 2407.95 1521.57 2239.1 1471.44C2232.85 1470.19 2229.24 1469.83 2226.25 1473.01C2222.18 1478.62 2223.73 1487.92 2223.02 1495.08C2222.16 1518.01 2208.4 1539.17 2186.44 1550.07C2121.87 1579.68 2079.48 1483.34 2038.91 1446.01C2026.42 1433.52 2012.89 1422.47 1997.81 1413.16C1969.16 1395.24 1934.64 1386.8 1905.24 1370.47C1879.2 1356.83 1859.92 1334.35 1854.93 1304.74C1836.17 1211.4 1907.15 1127.1 2000.28 1160.86L2000.74 1161.02V1160.99Z" fill="#FFDF6F" stroke="#231F20" stroke-width="90.8204" stroke-linecap="round" stroke-linejoin="round"/>
<path d="M1490.64 1269.49C1489.91 1269.4 1489.18 1269.31 1488.46 1269.22" stroke="#231F20" stroke-width="90.8204" stroke-linecap="round" stroke-linejoin="round"/>
<path d="M2057.97 2161.58C1954.69 2225.85 1845.59 2230.15 1799.68 2101.45C1768.35 2031.39 1756.52 1924.67 1757.88 1875.42C1811.87 1858.99 1883.44 1746.03 1884.96 1710.31C1954.71 1667.56 1934.71 1678.46 1954.71 1667.56C2144.5 1849.31 2205.67 2054.82 2057.97 2161.58Z" fill="#FFDF6F" stroke="#231F20" stroke-width="90.8204" stroke-linecap="round" stroke-linejoin="round"/>
<path d="M1381.58 1555.4C1422.09 1663.16 1341.8 1773.82 1261.54 1835.76C1131.01 1936.48 940.512 2013.41 753.695 1939.21C715.232 1923.93 681.288 1900.13 658.152 1870.02C615.376 1814.35 617.85 1752.75 659.991 1695.81C722.158 1611.8 841.314 1564.96 949.186 1534.35C1026.79 1512.33 1096.41 1476.45 1172.17 1464.21C1264.38 1456.18 1346.5 1463.47 1382.1 1554.04C1382.13 1554.1 1381.58 1555.35 1381.6 1555.42L1381.58 1555.4Z" fill="white" stroke="#231F20" stroke-width="90.8204" stroke-linecap="round" stroke-linejoin="round"/>
<path d="M1466.78 1743.74C1483.54 1752.89 1538.56 1778.62 1610.42 1811.49C1668.31 1837.67 1643.63 1951.43 1643.63 1951.43C1524.93 2240.76 1383.57 2437.32 1209.74 2281.65C1175.73 2248.41 1158.06 2208.29 1149.03 2172.91C1077.05 1964 1325.35 1777.05 1335.59 1719.9L1466.78 1743.74Z" fill="#FFDF6F" stroke="#231F20" stroke-width="90.8204" stroke-linecap="round" stroke-linejoin="round"/>
<path d="M1909.33 1715.27C1893.86 1751.92 1872.93 1794.31 1844.53 1839.02C1813.9 1887.22 1782.2 1926.14 1754.09 1956.54C1748.92 1960.24 1742.13 1963.37 1734.38 1965.76C1698.53 1976.81 1658.82 1964.48 1636.73 1936.31C1631.67 1929.84 1626.4 1923.41 1620.9 1917.03C1508.2 1786.02 1436.9 1751.47 1337.23 1732.48C1364.5 1736.25 1459.88 1757.96 1488.58 1759.89C1491.6 1760.12 1494.64 1760.3 1497.66 1760.48C1511.26 1761.32 1524.93 1761.96 1538.69 1762.32C1542.82 1762.45 1547 1762.57 1551.15 1762.64C1674.24 1765.11 1802.32 1750.47 1909.35 1715.3L1909.33 1715.27Z" fill="#231F20" stroke="#231F20" stroke-width="94.8165" stroke-linecap="round" stroke-linejoin="round"/>
<path d="M1266.86 1417.26C1268.14 1416.26 1259.49 1368.83 1260.83 1367.92L1263.59 1199.47C1263.59 1199.47 1412.88 1260.3 1573.93 1274.42" fill="#FFDF6F"/>
<path d="M1266.86 1417.26C1268.14 1416.26 1259.49 1368.83 1260.83 1367.92L1263.59 1199.47C1263.59 1199.47 1412.88 1260.3 1573.93 1274.42" stroke="#231F20" stroke-width="90.8204" stroke-linecap="round" stroke-linejoin="round"/>
<path d="M1573.94 1274.44C1685.53 1274.9 1813.43 1254.28 1907.79 1226.17C1938.47 1217.04 1971.48 1231.53 1984.63 1260.71C2006.49 1309.2 2018.28 1369.92 2018.87 1430.93C2018.87 1432.97 2019 1434.99 2019.23 1437.03C2029.02 1527.63 2003.5 1654.91 1949.18 1681.48C1764.41 1773.98 1511.63 1779.09 1315.94 1702.3C1315.94 1702.3 1273.44 1675.16 1249.64 1606.94C1225.85 1538.71 1198.67 1448.75 1199.17 1448.36L1267.12 1258.34L1573.96 1274.42" fill="#FFDF6F"/>
<path d="M1573.94 1274.44C1685.53 1274.9 1813.43 1254.28 1907.79 1226.17C1938.47 1217.04 1971.48 1231.53 1984.63 1260.71C2006.49 1309.2 2018.28 1369.92 2018.87 1430.93C2018.87 1432.97 2019 1434.99 2019.23 1437.03C2029.02 1527.63 2003.5 1654.91 1949.18 1681.48C1764.41 1773.98 1511.63 1779.09 1315.94 1702.3C1315.94 1702.3 1273.44 1675.16 1249.64 1606.94C1225.85 1538.71 1198.67 1448.75 1199.17 1448.36L1267.12 1258.34L1573.96 1274.42" stroke="#231F20" stroke-width="90.8204" stroke-linecap="round" stroke-linejoin="round"/>
<path d="M1308.42 2337.02C1222.57 2523.63 960.303 2381.68 1149.03 2172.93L1171.23 2312.23L1308.42 2337.02Z" fill="#231F20" stroke="#231F20" stroke-width="90.8204" stroke-linecap="round" stroke-linejoin="round"/>
<path d="M2017.14 1159.16C2016.96 1159.34 2016.75 1159.53 2016.57 1159.73C1982.49 1193.11 1940.33 1217.11 1894.42 1230.02C1778.62 1262.58 1618.66 1283.65 1498.4 1270.39C1493.22 1269.83 1488.06 1269.44 1482.86 1269.17C1441.54 1266.92 1243.94 1249.66 1087.43 1122.99C1040.84 1085.28 1007.65 1033.49 991.844 975.66C762.387 135.412 1850.19 -178.691 2133.91 523.919C2213.65 729.196 2180 999.091 2017.14 1159.16Z" fill="#FFDF6F" stroke="#231F20" stroke-width="90.8204" stroke-linecap="round" stroke-linejoin="round"/>
<path d="M1240.14 1479.59C1222.48 1504.82 1199.36 1527.11 1173.91 1545.41C897.363 1729.89 411.814 1625.06 235.191 1355.71C186.784 1281.17 167.848 1180.68 210.193 1099.44C251.448 1016.66 346.105 972.314 436.449 963.369C570.636 948.973 705.527 992.09 825.387 1045.79C867.369 1064.47 907.989 1083.66 949.993 1103C1033.75 1142.38 1127.09 1181.31 1199.05 1240.35C1280.03 1305.38 1301.29 1392.11 1240.39 1479.27L1240.14 1479.64V1479.59Z" fill="white" stroke="#231F20" stroke-width="90.8204" stroke-linecap="round" stroke-linejoin="round"/>
<path d="M2018.88 2239.74L1880.9 2197.92C1880.9 2197.92 1920.25 2331.85 2024.14 2319.39C2161.58 2302.91 2108.52 2130.12 2109.02 2128.01L2018.9 2239.76L2018.88 2239.74Z" stroke="#231F20" stroke-width="90.8204" stroke-linecap="round" stroke-linejoin="round"/>
<path d="M1488.46 1269.22C1489.18 1269.31 1489.91 1269.4 1490.64 1269.49" stroke="#231F20" stroke-width="90.8204" stroke-linecap="round" stroke-linejoin="round"/>
<path d="M1726.48 1161.37C1563.94 1157.01 1400.96 1094.5 1286.94 975.844C1123.78 800.674 1132.27 539.815 1315.57 382.786C1472.6 258.249 1680.12 232.32 1870.28 299.64C2131.77 392.232 2251.18 834.754 2054.35 1042.91C1965.57 1128.85 1847.37 1160.23 1727.01 1161.34C1726.87 1161.34 1726.64 1161.34 1726.51 1161.34L1726.48 1161.37Z" fill="#231F20"/>
<path fill-rule="evenodd" clip-rule="evenodd" d="M1795.79 511.563C1789 557.632 1762.66 593.324 1721.2 623.295C1659.42 668.137 1564.02 679.172 1496.38 648.997C1451.74 629.516 1414.8 594.187 1410.01 538.514C1406.53 491.56 1433.58 448.829 1463.89 422.899C1525.76 369.384 1618.74 350.448 1695.25 374.674C1746.86 390 1804.81 438.793 1795.81 511.222L1795.77 511.563H1795.79Z" fill="white"/>
<path fill-rule="evenodd" clip-rule="evenodd" d="M1305.85 673.558C1333.4 651.806 1377.9 659.935 1390.11 693.992C1408.25 743.626 1346.13 789.399 1303.04 760.132C1272.55 739.63 1277.11 694.447 1305.49 673.853L1305.85 673.581V673.558Z" fill="white"/>
<path d="M1134.93 1255.31C1115.47 1267.41 1102.53 1285.48 1089.66 1303.78C1059.32 1346.9 1029.83 1391.45 997.973 1433.66C986.848 1448.35 975.268 1463.1 959.806 1472.62C938.463 1486.08 912.375 1487.67 888.398 1494.39C818.421 1511.97 764.724 1590.23 784.772 1661.5C793.65 1692.06 821.6 1719.99 854.886 1719.88C907.403 1719.81 950.747 1682.91 996.248 1661.46C1019 1650.6 1027.83 1658.87 1022.34 1682.98C1019.47 1695.92 1015.86 1710.93 1019.63 1722.81C1026.22 1746.3 1055.21 1752.09 1076.26 1745.6C1105.12 1737.61 1122.6 1712.86 1136.43 1686.59C1151.12 1659.19 1159.79 1629.33 1175.44 1602.38C1182.27 1590.41 1190.88 1577.47 1198.23 1567.14C1210.95 1548.91 1223.43 1537.1 1240.67 1522.73C1256.74 1508.9 1271.55 1498.12 1289.35 1485.63C1316.34 1465.97 1345.04 1440.13 1350.76 1406.18C1353.83 1386.66 1349.95 1367.31 1345.5 1348.13C1322.45 1244.54 1234.56 1195.64 1135.32 1255.06L1134.91 1255.31H1134.93Z" fill="#FFDF6F" stroke="#231F20" stroke-width="90.8204" stroke-linecap="round" stroke-linejoin="round"/>
<path d="M1186.37 1951.11C1186.37 1951.11 1256.59 2184.75 1523.06 2191.2" stroke="#231F20" stroke-width="90.8204" stroke-miterlimit="10"/>
<path d="M1797.1 2071.15C1797.1 2071.15 2055.17 2046.28 2118.67 1896.95" stroke="#231F20" stroke-width="90.8204" stroke-miterlimit="10"/>
<path d="M2034.01 1397.29C1867.12 1598.13 1324.59 1501.16 1324.59 1501.16L1293.46 1493.74" stroke="#231F20" stroke-width="134.573" stroke-miterlimit="10"/>
</g>
<path d="M3649.98 781.238L3978.16 1777.49H3796.49L3708.58 1503.52H3310.08L3223.64 1777.49H3041.97L3371.62 781.238H3649.98ZM3359.89 1345.29H3658.77L3562.08 1043.49L3510.8 872.073H3507.87L3456.59 1043.49L3359.89 1345.29Z" fill="white"/>
<path d="M4131.88 1777.49V735.82H4304.76V1633.91H4370.69V1777.49H4131.88Z" fill="white"/>
<path d="M4935.43 1792.14C4827.01 1792.14 4746.43 1739.4 4696.62 1647.1V1777.49H4528.14V735.82H4701.02V1168.02C4750.83 1080.11 4829.94 1030.3 4935.43 1030.3C5105.38 1030.3 5243.09 1160.69 5243.09 1411.22C5243.09 1661.75 5105.38 1792.14 4935.43 1792.14ZM4701.02 1443.45C4701.02 1575.31 4766.94 1657.36 4881.22 1657.36C4994.03 1657.36 5065.82 1578.24 5065.82 1428.8V1392.18C5065.82 1247.13 4994.03 1170.95 4881.22 1170.95C4766.94 1170.95 4701.02 1251.53 4701.02 1377.53V1443.45Z" fill="white"/>
<path d="M5579.95 2070.51L5673.71 1762.84H5565.3L5333.82 1044.95H5514.02L5653.2 1493.27L5703.02 1666.15H5705.95L5755.76 1493.27L5890.55 1044.95H6069.28L5754.29 2070.51H5579.95Z" fill="white"/>
<path d="M6821.46 1792.14C6566.54 1792.14 6370.22 1600.22 6370.22 1279.36C6370.22 958.512 6576.79 766.587 6847.83 766.587C7085.17 766.587 7236.08 911.63 7269.78 1106.49H7091.04C7069.06 996.604 6976.76 921.885 6846.37 921.885C6670.56 921.885 6547.49 1053.74 6547.49 1257.39V1301.34C6547.49 1504.99 6663.23 1636.84 6841.97 1636.84C6997.27 1636.84 7108.62 1537.22 7108.62 1383.39H6840.51V1236.88H7277.1V1777.49H7139.38V1613.4C7083.71 1724.75 6972.36 1792.14 6821.46 1792.14Z" fill="white"/>
<path d="M7803.69 1792.14C7591.26 1792.14 7440.35 1647.1 7440.35 1411.22C7440.35 1175.34 7591.26 1030.3 7803.69 1030.3C8016.13 1030.3 8167.03 1175.34 8167.03 1411.22C8167.03 1647.1 8016.13 1792.14 7803.69 1792.14ZM7619.09 1430.27C7619.09 1575.31 7695.28 1651.5 7803.69 1651.5C7912.11 1651.5 7989.76 1575.31 7989.76 1430.27V1392.18C7989.76 1247.13 7912.11 1170.95 7803.69 1170.95C7695.28 1170.95 7619.09 1247.13 7619.09 1392.18V1430.27Z" fill="white"/>
<defs>
<clipPath id="clip0_1443_12888">
<rect width="2560" height="2560" fill="white"/>
</clipPath>
</defs>
</svg>
