<svg width="2560" height="2560" viewBox="0 0 2560 2560" fill="none" xmlns="http://www.w3.org/2000/svg">
<g clip-path="url(#clip0_1443_12943)">
<path d="M1187.96 2514.65C1109.86 2513.96 1039.34 2467.87 1008.37 2397.26C989.386 2354.01 986.275 2304.83 999.331 2254.99C1008.48 2220.11 1025.46 2185.31 1049.89 2151.25C1043.65 2115.44 1043.42 2078.8 1049.21 2041.56C1001.94 2053.6 954.715 2059.68 908.828 2059.68C843.937 2059.68 780.453 2047.53 720.149 2023.6C665.043 2001.71 618.702 1967.75 586.12 1925.33C530.175 1852.52 521.411 1766.15 559.737 1686.59C492.644 1665.66 428.615 1637.37 371.852 1603.44C281.441 1549.38 209.897 1482.79 159.219 1405.48C126.501 1355.07 105.544 1298.31 98.5057 1241.16C90.4681 1175.84 101.094 1112.56 129.271 1058.14C156.676 1003.53 202.018 957.325 260.393 924.516C309.731 896.771 367.38 878.97 427.071 872.998C447.869 870.773 469.212 869.661 490.464 869.661C602.309 869.661 720.512 899.268 862.51 962.865C874.702 968.292 886.849 973.786 898.929 979.326C845.753 768.509 864.962 570.862 954.829 406.567C1037.45 255.51 1175.95 140.963 1344.83 84.0188C1420.65 58.4529 1499 45.4883 1577.74 45.4883C1668.86 45.4883 1757 62.6987 1839.67 96.6202C2011.89 167.278 2142.76 303.282 2218.14 489.941L2218.59 491.076C2264.23 608.575 2277.56 744.351 2256.13 873.407C2238.94 976.806 2200.48 1071.53 2144.12 1150C2149.14 1154.45 2154.04 1158.86 2158.93 1163.24C2175.36 1178.02 2190.89 1191.98 2206.2 1203.13L2206.95 1203.68C2214.58 1209.37 2217.41 1210.19 2217.53 1210.21L2217.96 1210.28C2222.34 1211.12 2231.35 1211.33 2239.3 1211.53C2258.87 1212.01 2283.17 1212.58 2309.85 1220.5C2362.82 1236.51 2407.05 1269.5 2434.57 1313.43C2462.97 1358.8 2471.17 1411.86 2457.04 1459.02C2442.76 1506.72 2408.45 1542.59 2360.48 1560.01C2340.09 1567.41 2317.75 1571.16 2294.09 1571.16C2294.09 1571.16 2292.79 1571.16 2292.16 1571.16C2276.83 1596.72 2254.17 1617.82 2226.81 1631.37C2226 1631.78 2225.2 1632.17 2224.38 1632.53C2204.22 1641.77 2183.33 1646.45 2162.24 1646.45C2137.36 1646.45 2113.17 1640.02 2090.11 1627.26C2086.09 1640 2081.59 1652.03 2076.6 1663.32C2117.56 1709.86 2151.07 1757.52 2176.43 1805.29C2217.01 1881.74 2235.17 1955.44 2230.4 2024.35C2227.81 2061.84 2218.34 2097.14 2202.25 2129.52C2218.03 2210.92 2207.83 2280.33 2172.5 2331.03C2151 2361.86 2109.7 2400.51 2034.98 2409.48C2026.96 2410.43 2018.86 2410.93 2010.91 2410.93C1944.23 2410.93 1883.42 2377.23 1839.69 2316.04C1825.46 2296.13 1814.97 2276.15 1807.7 2260.03C1766.69 2232.26 1735.68 2190.35 1715.38 2135.22C1706.71 2115.29 1698.97 2092.69 1692.29 2067.72C1647.29 2166.24 1602.85 2241.98 1557.01 2298.4C1501.48 2366.77 1443.83 2407.05 1380.75 2421.51C1374.26 2423.01 1367.72 2424.21 1361.18 2425.12C1318.34 2482.27 1257.01 2514.58 1189.85 2514.58H1187.99L1187.96 2514.65Z" fill="white"/>
<path d="M1577.72 90.8885C1661.85 90.8885 1744.97 106.827 1822.42 138.615C1983.05 204.528 2105.32 331.88 2176.03 506.937C2176.09 507.118 2176.18 507.3 2176.25 507.504C2218.98 617.533 2231.45 744.841 2211.31 865.972C2192.62 978.454 2147.98 1077.97 2081.39 1156.64C2098.01 1169.59 2113.45 1183.46 2128.55 1197.04C2145.87 1212.61 2162.24 1227.32 2179.43 1239.86C2179.57 1239.97 2179.73 1240.06 2179.86 1240.18C2191.33 1248.76 2200.39 1253.3 2209.24 1254.91C2209.36 1254.91 2209.49 1254.96 2209.61 1254.98C2217.51 1256.48 2227.57 1256.73 2238.21 1256.98C2255.92 1257.41 2276.02 1257.89 2296.88 1264.08C2339.21 1276.89 2374.35 1302.95 2396.06 1337.6C2417.54 1371.89 2423.9 1411.42 2413.54 1446.04C2403.46 1479.65 2379.12 1504.98 2344.97 1517.38C2329.49 1523.01 2312.48 1525.81 2294.09 1525.81C2284.44 1525.81 2274.41 1525.03 2264.01 1523.49C2255.38 1552.21 2234.85 1576.76 2206.65 1590.74C2206.25 1590.95 2205.84 1591.13 2205.43 1591.33C2193.71 1596.71 2179 1601.1 2162.24 1601.1C2142.63 1601.1 2120.22 1595.08 2096.51 1577.53C2083.87 1568.17 2072.49 1556.71 2062.05 1544.72C2059.66 1561.77 2056.39 1578.55 2052.26 1594.6C2046.08 1618.6 2036.5 1646.39 2021.84 1670.69C2070.04 1721.82 2108.46 1774.13 2136.34 1826.67C2172.87 1895.51 2189.29 1960.99 2185.13 2021.32C2182.59 2058.26 2172.14 2092.39 2154.39 2122.79C2172.12 2198.72 2165.54 2261.75 2135.27 2305.18C2119.08 2328.41 2087.61 2357.54 2029.58 2364.51C2023.31 2365.26 2017.07 2365.64 2010.91 2365.64C1959.1 2365.64 1911.97 2339.19 1876.66 2289.76C1860.58 2267.29 1850.03 2244.6 1843.92 2229.25C1813.29 2211.73 1779.62 2179.1 1757.57 2118.41C1744.17 2087.98 1734.07 2051.86 1726.85 2015.87C1720.36 2016.78 1713.84 2017.26 1707.37 2017.26C1693.86 2017.26 1680.49 2015.26 1667.7 2011.49C1570.16 2236.72 1475.26 2353.36 1370.68 2377.38C1359.07 2380.04 1347.47 2381.56 1335.89 2381.9C1301.65 2437.19 1248.75 2469.29 1189.92 2469.29C1189.44 2469.29 1188.97 2469.29 1188.49 2469.29C1128.21 2468.75 1073.85 2433.35 1050.06 2379.09C1035.23 2345.3 1032.91 2306.41 1043.36 2266.58C1052.49 2231.8 1071.08 2196.81 1098.67 2162.27C1082.05 2094.66 1092.36 2030.52 1115.27 1972.32C1091.58 1981.84 1066.5 1990.31 1040.16 1997.1C995.633 2008.58 951.812 2014.33 908.922 2014.33C849.662 2014.33 792.173 2003.36 737.022 1981.45C689.523 1962.58 649.834 1933.63 622.248 1897.72C567.846 1826.92 568.323 1743.48 623.587 1668.82C626.017 1665.56 628.491 1662.33 631.057 1659.18C546.458 1638.92 465.492 1606.48 395.287 1564.52C310.824 1514.02 244.208 1452.15 197.322 1380.63C168.395 1336.08 149.891 1286.02 143.692 1235.66C136.744 1179.35 145.804 1125.15 169.826 1078.83C193.144 1032.22 232.197 992.576 282.738 964.149C326.718 939.423 378.281 923.553 431.865 918.217C451.165 916.151 470.691 915.106 490.581 915.106C595.433 915.106 709.458 944.055 844.054 1004.34C873.23 1017.32 902.27 1030.79 930.356 1043.82C943.184 1049.77 956.058 1055.74 969.091 1061.74C969.204 1061.78 969.318 1061.85 969.431 1061.89C973.382 1063.76 977.401 1065.62 981.397 1067.48C967.093 1042.73 955.899 1015.99 948.157 987.649C891.666 780.806 907.787 587.404 994.77 428.354C1071.9 287.333 1201.41 180.347 1359.44 127.058C1430.98 102.945 1504.77 90.9112 1577.84 90.9112M1577.72 0.0681153C1494.06 0.0681153 1410.8 13.8274 1330.31 40.9827C1150.57 101.583 1003.08 223.668 914.962 384.761C832.224 536.022 805.682 713.167 836.538 902.255C780.797 879.278 728.666 861.772 678.306 849.034C612.348 832.369 550.908 824.263 490.467 824.241C467.649 824.241 444.739 825.444 422.375 827.828C356.552 834.435 292.842 854.166 238.123 884.931C171.915 922.145 120.283 974.912 88.7913 1037.55C56.5046 1100.08 44.2666 1172.38 53.4394 1246.71C61.3181 1310.67 84.6816 1374.07 121.033 1430.04L121.146 1430.22L121.26 1430.4C175.752 1513.48 252.223 1584.82 348.56 1642.44C395.356 1670.41 446.805 1694.75 500.775 1714.55C494.35 1737.49 490.989 1760.83 490.853 1784.19C490.513 1843.77 510.993 1902.14 550.113 1953.05C587.69 2001.93 640.684 2040.94 703.396 2065.85C769.036 2091.91 838.15 2105.13 908.831 2105.13C938.711 2105.13 969.091 2102.74 999.629 2098.04C999.743 2112.23 1000.67 2126.31 1002.4 2140.32C980.33 2174.04 964.595 2208.59 955.445 2243.51C939.756 2303.34 943.684 2362.83 966.82 2415.55C1004.96 2502.51 1091.63 2559.25 1187.63 2560.09C1188.4 2560.09 1189.13 2560.09 1189.88 2560.09C1235.13 2560.09 1279.74 2547.67 1318.86 2524.15C1344 2509.05 1366.45 2489.89 1385.98 2466.95C1387.64 2466.61 1389.29 2466.25 1390.93 2465.86C1428.69 2457.19 1465.38 2440.34 1499.98 2415.8C1531.72 2393.28 1562.76 2363.44 1592.25 2327.14C1624.16 2287.86 1655.24 2240.09 1686.12 2182.71C1710.78 2234.16 1742.61 2267.99 1771.56 2290.01C1779.37 2306 1789.65 2324.28 1802.73 2342.58C1855.23 2416 1929.13 2456.44 2010.87 2456.44C2020.65 2456.44 2030.58 2455.85 2040.39 2454.67C2111.7 2446.11 2171.85 2411.46 2209.74 2357.11C2250.04 2299.3 2263.55 2223.33 2249.45 2135.82C2264.26 2102.02 2273.07 2065.76 2275.7 2027.57C2281.06 1950.05 2261.15 1868.13 2216.53 1784.08C2200.12 1753.15 2180.54 1722.32 2158 1691.87C2159.41 1691.89 2160.81 1691.92 2162.2 1691.92C2189.88 1691.92 2217.14 1685.85 2243.23 1673.89L2243.3 1673.84L2243.37 1673.8C2244.53 1673.25 2245.69 1672.71 2246.84 1672.14C2274.25 1658.56 2297.97 1639.13 2316.48 1615.65C2337.28 1613.86 2357.19 1609.52 2375.92 1602.73C2436.84 1580.62 2482.25 1532.98 2500.5 1472.09C2518.37 1412.42 2508.36 1345.82 2473.01 1289.38C2439.65 1236.13 2386.43 1196.26 2323.15 1177.12L2322.95 1177.06L2322.75 1176.99C2290.28 1167.34 2261.44 1166.63 2240.37 1166.13C2237.94 1166.07 2234.95 1166 2232.2 1165.91C2223.18 1159.28 2213.85 1151.38 2203.75 1142.43C2251.79 1065.57 2284.94 976.614 2300.88 880.799C2323.65 743.819 2309.44 599.551 2260.9 474.559C2260.67 474.014 2260.49 473.492 2260.28 472.993V472.925L2260.24 472.856C2220.71 374.952 2166.29 289.513 2098.47 218.877C2029.9 147.447 1948.61 92.16 1856.88 54.5149C1768.7 18.3457 1674.79 0 1577.72 0V0.0681153Z" fill="white"/>
<path d="M2000.74 1160.99C2010 1164.29 2018.31 1168.44 2026.49 1173.41C2072.12 1201.91 2108.84 1244.57 2152.64 1276.52C2167.64 1287.76 2183.17 1296.29 2201.04 1299.56C2227.54 1304.63 2257.12 1299.63 2283.92 1307.6C2410.34 1345.81 2407.95 1521.57 2239.1 1471.44C2232.85 1470.19 2229.24 1469.83 2226.25 1473.01C2222.18 1478.62 2223.73 1487.92 2223.02 1495.08C2222.16 1518.01 2208.4 1539.17 2186.44 1550.07C2121.87 1579.68 2079.48 1483.34 2038.91 1446.01C2026.42 1433.52 2012.89 1422.47 1997.81 1413.16C1969.16 1395.24 1934.64 1386.8 1905.24 1370.47C1879.2 1356.83 1859.92 1334.35 1854.93 1304.74C1836.17 1211.4 1907.15 1127.1 2000.28 1160.86L2000.74 1161.02V1160.99Z" fill="#FFDF6F" stroke="#231F20" stroke-width="90.8204" stroke-linecap="round" stroke-linejoin="round"/>
<path d="M1490.65 1269.49C1489.92 1269.4 1489.19 1269.31 1488.47 1269.22" stroke="#231F20" stroke-width="90.8204" stroke-linecap="round" stroke-linejoin="round"/>
<path d="M2057.98 2161.58C1954.7 2225.85 1845.6 2230.15 1799.69 2101.45C1768.35 2031.39 1756.53 1924.67 1757.89 1875.42C1811.88 1858.99 1883.45 1746.03 1884.97 1710.31C1954.72 1667.56 1934.72 1678.46 1954.72 1667.56C2144.51 1849.31 2205.68 2054.82 2057.98 2161.58Z" fill="#FFDF6F" stroke="#231F20" stroke-width="90.8204" stroke-linecap="round" stroke-linejoin="round"/>
<path d="M1381.57 1555.4C1422.08 1663.16 1341.79 1773.82 1261.53 1835.76C1131 1936.48 940.503 2013.41 753.685 1939.21C715.223 1923.93 681.279 1900.13 658.142 1870.02C615.366 1814.35 617.841 1752.75 659.981 1695.81C722.148 1611.8 841.304 1564.96 949.176 1534.35C1026.78 1512.33 1096.4 1476.45 1172.16 1464.21C1264.37 1456.18 1346.49 1463.47 1382.09 1554.04C1382.12 1554.1 1381.57 1555.35 1381.59 1555.42L1381.57 1555.4Z" fill="white" stroke="#231F20" stroke-width="90.8204" stroke-linecap="round" stroke-linejoin="round"/>
<path d="M1466.78 1743.74C1483.54 1752.89 1538.56 1778.62 1610.42 1811.49C1668.31 1837.67 1643.63 1951.43 1643.63 1951.43C1524.93 2240.76 1383.57 2437.32 1209.74 2281.65C1175.73 2248.41 1158.06 2208.29 1149.03 2172.91C1077.05 1964 1325.35 1777.05 1335.59 1719.9L1466.78 1743.74Z" fill="#FFDF6F" stroke="#231F20" stroke-width="90.8204" stroke-linecap="round" stroke-linejoin="round"/>
<path d="M1909.33 1715.27C1893.86 1751.92 1872.93 1794.31 1844.53 1839.02C1813.9 1887.22 1782.2 1926.14 1754.09 1956.54C1748.92 1960.24 1742.13 1963.37 1734.38 1965.76C1698.53 1976.81 1658.82 1964.48 1636.73 1936.31C1631.67 1929.84 1626.4 1923.41 1620.9 1917.03C1508.2 1786.02 1436.9 1751.47 1337.23 1732.48C1364.5 1736.25 1459.88 1757.96 1488.58 1759.89C1491.6 1760.12 1494.64 1760.3 1497.66 1760.48C1511.26 1761.32 1524.93 1761.96 1538.69 1762.32C1542.82 1762.45 1547 1762.57 1551.15 1762.64C1674.24 1765.11 1802.32 1750.47 1909.35 1715.3L1909.33 1715.27Z" fill="#231F20" stroke="#231F20" stroke-width="94.8165" stroke-linecap="round" stroke-linejoin="round"/>
<path d="M1266.86 1417.26C1268.14 1416.26 1259.49 1368.83 1260.83 1367.92L1263.59 1199.47C1263.59 1199.47 1412.88 1260.3 1573.93 1274.42" fill="#FFDF6F"/>
<path d="M1266.86 1417.26C1268.14 1416.26 1259.49 1368.83 1260.83 1367.92L1263.59 1199.47C1263.59 1199.47 1412.88 1260.3 1573.93 1274.42" stroke="#231F20" stroke-width="90.8204" stroke-linecap="round" stroke-linejoin="round"/>
<path d="M1573.94 1274.44C1685.53 1274.9 1813.43 1254.28 1907.79 1226.17C1938.47 1217.04 1971.48 1231.53 1984.63 1260.71C2006.49 1309.2 2018.28 1369.92 2018.87 1430.93C2018.87 1432.97 2019 1434.99 2019.23 1437.03C2029.02 1527.63 2003.5 1654.91 1949.18 1681.48C1764.41 1773.98 1511.63 1779.09 1315.94 1702.3C1315.94 1702.3 1273.44 1675.16 1249.64 1606.94C1225.85 1538.71 1198.67 1448.75 1199.17 1448.36L1267.12 1258.34L1573.96 1274.42" fill="#FFDF6F"/>
<path d="M1573.94 1274.44C1685.53 1274.9 1813.43 1254.28 1907.79 1226.17C1938.47 1217.04 1971.48 1231.53 1984.63 1260.71C2006.49 1309.2 2018.28 1369.92 2018.87 1430.93C2018.87 1432.97 2019 1434.99 2019.23 1437.03C2029.02 1527.63 2003.5 1654.91 1949.18 1681.48C1764.41 1773.98 1511.63 1779.09 1315.94 1702.3C1315.94 1702.3 1273.44 1675.16 1249.64 1606.94C1225.85 1538.71 1198.67 1448.75 1199.17 1448.36L1267.12 1258.34L1573.96 1274.42" stroke="#231F20" stroke-width="90.8204" stroke-linecap="round" stroke-linejoin="round"/>
<path d="M1308.42 2337.02C1222.57 2523.63 960.303 2381.68 1149.03 2172.93L1171.23 2312.23L1308.42 2337.02Z" fill="#231F20" stroke="#231F20" stroke-width="90.8204" stroke-linecap="round" stroke-linejoin="round"/>
<path d="M2017.14 1159.16C2016.96 1159.34 2016.75 1159.53 2016.57 1159.73C1982.49 1193.11 1940.33 1217.11 1894.42 1230.02C1778.62 1262.58 1618.66 1283.65 1498.4 1270.39C1493.22 1269.83 1488.06 1269.44 1482.86 1269.17C1441.54 1266.92 1243.94 1249.66 1087.43 1122.99C1040.84 1085.28 1007.65 1033.49 991.844 975.66C762.387 135.412 1850.19 -178.691 2133.91 523.919C2213.65 729.196 2180 999.091 2017.14 1159.16Z" fill="#FFDF6F" stroke="#231F20" stroke-width="90.8204" stroke-linecap="round" stroke-linejoin="round"/>
<path d="M1240.14 1479.59C1222.48 1504.82 1199.36 1527.11 1173.91 1545.41C897.363 1729.89 411.814 1625.06 235.191 1355.71C186.784 1281.17 167.848 1180.68 210.193 1099.44C251.448 1016.66 346.105 972.314 436.449 963.369C570.636 948.973 705.527 992.09 825.387 1045.79C867.369 1064.47 907.989 1083.66 949.993 1103C1033.75 1142.38 1127.09 1181.31 1199.05 1240.35C1280.03 1305.38 1301.29 1392.11 1240.39 1479.27L1240.14 1479.64V1479.59Z" fill="white" stroke="#231F20" stroke-width="90.8204" stroke-linecap="round" stroke-linejoin="round"/>
<path d="M2018.88 2239.74L1880.9 2197.92C1880.9 2197.92 1920.25 2331.85 2024.14 2319.39C2161.58 2302.91 2108.52 2130.12 2109.02 2128.01L2018.9 2239.76L2018.88 2239.74Z" stroke="#231F20" stroke-width="90.8204" stroke-linecap="round" stroke-linejoin="round"/>
<path d="M1488.47 1269.22C1489.19 1269.31 1489.92 1269.4 1490.65 1269.49" stroke="#231F20" stroke-width="90.8204" stroke-linecap="round" stroke-linejoin="round"/>
<path d="M1726.48 1161.37C1563.94 1157.01 1400.96 1094.5 1286.94 975.844C1123.78 800.674 1132.27 539.815 1315.57 382.786C1472.6 258.249 1680.12 232.32 1870.28 299.64C2131.77 392.232 2251.18 834.754 2054.35 1042.91C1965.57 1128.85 1847.37 1160.23 1727.01 1161.34C1726.87 1161.34 1726.64 1161.34 1726.51 1161.34L1726.48 1161.37Z" fill="#231F20"/>
<path fill-rule="evenodd" clip-rule="evenodd" d="M1795.78 511.563C1788.99 557.632 1762.65 593.324 1721.2 623.295C1659.41 668.137 1564.01 679.172 1496.37 648.997C1451.73 629.516 1414.79 594.187 1410 538.514C1406.53 491.56 1433.57 448.829 1463.88 422.899C1525.75 369.384 1618.73 350.448 1695.24 374.674C1746.85 390 1804.8 438.793 1795.8 511.222L1795.76 511.563H1795.78Z" fill="white"/>
<path fill-rule="evenodd" clip-rule="evenodd" d="M1305.85 673.558C1333.4 651.806 1377.9 659.935 1390.11 693.992C1408.25 743.626 1346.13 789.399 1303.04 760.132C1272.55 739.63 1277.11 694.447 1305.49 673.853L1305.85 673.581V673.558Z" fill="white"/>
<path d="M1134.92 1255.31C1115.46 1267.41 1102.52 1285.48 1089.65 1303.78C1059.31 1346.9 1029.82 1391.45 997.963 1433.66C986.838 1448.35 975.258 1463.1 959.796 1472.62C938.453 1486.08 912.365 1487.67 888.389 1494.39C818.412 1511.97 764.714 1590.23 784.763 1661.5C793.64 1692.06 821.59 1719.99 854.876 1719.88C907.393 1719.81 950.737 1682.91 996.238 1661.46C1018.99 1650.6 1027.82 1658.87 1022.33 1682.98C1019.47 1695.92 1015.86 1710.93 1019.62 1722.81C1026.21 1746.3 1055.2 1752.09 1076.25 1745.6C1105.11 1737.61 1122.59 1712.86 1136.42 1686.59C1151.11 1659.19 1159.78 1629.33 1175.43 1602.38C1182.26 1590.41 1190.87 1577.47 1198.22 1567.14C1210.94 1548.91 1223.43 1537.1 1240.66 1522.73C1256.73 1508.9 1271.54 1498.12 1289.34 1485.63C1316.33 1465.97 1345.03 1440.13 1350.76 1406.18C1353.82 1386.66 1349.94 1367.31 1345.49 1348.13C1322.44 1244.54 1234.55 1195.64 1135.31 1255.06L1134.9 1255.31H1134.92Z" fill="#FFDF6F" stroke="#231F20" stroke-width="90.8204" stroke-linecap="round" stroke-linejoin="round"/>
<path d="M1186.38 1951.11C1186.38 1951.11 1256.6 2184.75 1523.07 2191.2" stroke="#231F20" stroke-width="90.8204" stroke-miterlimit="10"/>
<path d="M1797.1 2071.15C1797.1 2071.15 2055.17 2046.28 2118.67 1896.95" stroke="#231F20" stroke-width="90.8204" stroke-miterlimit="10"/>
<path d="M2034 1397.29C1867.11 1598.13 1324.58 1501.16 1324.58 1501.16L1293.45 1493.74" stroke="#231F20" stroke-width="134.573" stroke-miterlimit="10"/>
</g>
<defs>
<clipPath id="clip0_1443_12943">
<rect width="2560" height="2560" fill="white"/>
</clipPath>
</defs>
</svg>
