<svg width="2560" height="2560" viewBox="0 0 2560 2560" fill="none" xmlns="http://www.w3.org/2000/svg">
<path d="M2000.74 1160.99C2010 1164.29 2018.31 1168.44 2026.49 1173.41C2072.12 1201.91 2108.84 1244.57 2152.64 1276.52C2167.64 1287.76 2183.17 1296.29 2201.04 1299.56C2227.54 1304.63 2257.12 1299.63 2283.92 1307.6C2410.34 1345.81 2407.95 1521.57 2239.1 1471.44C2232.85 1470.19 2229.24 1469.83 2226.25 1473.01C2222.18 1478.62 2223.73 1487.92 2223.02 1495.08C2222.16 1518.01 2208.4 1539.17 2186.44 1550.07C2121.87 1579.68 2079.48 1483.34 2038.91 1446.01C2026.42 1433.52 2012.89 1422.47 1997.81 1413.16C1969.16 1395.24 1934.64 1386.8 1905.24 1370.47C1879.2 1356.83 1859.92 1334.35 1854.93 1304.74C1836.17 1211.4 1907.15 1127.1 2000.28 1160.86L2000.74 1161.02V1160.99Z" fill="#FFDF6F" stroke="#231F20" stroke-width="90.8204" stroke-linecap="round" stroke-linejoin="round"/>
<path d="M1490.65 1269.49C1489.92 1269.4 1489.19 1269.31 1488.47 1269.22" stroke="#231F20" stroke-width="90.8204" stroke-linecap="round" stroke-linejoin="round"/>
<path d="M2057.98 2161.58C1954.7 2225.85 1845.6 2230.15 1799.69 2101.45C1768.35 2031.39 1756.53 1924.67 1757.89 1875.42C1811.88 1858.99 1883.45 1746.03 1884.97 1710.31C1954.72 1667.56 1934.72 1678.46 1954.72 1667.56C2144.51 1849.31 2205.68 2054.82 2057.98 2161.58Z" fill="#FFDF6F" stroke="#231F20" stroke-width="90.8204" stroke-linecap="round" stroke-linejoin="round"/>
<path d="M1381.57 1555.4C1422.08 1663.16 1341.79 1773.82 1261.53 1835.76C1131 1936.48 940.503 2013.41 753.685 1939.21C715.223 1923.93 681.279 1900.13 658.142 1870.02C615.366 1814.35 617.841 1752.75 659.981 1695.81C722.148 1611.8 841.304 1564.96 949.176 1534.35C1026.78 1512.33 1096.4 1476.45 1172.16 1464.21C1264.37 1456.18 1346.49 1463.47 1382.09 1554.04C1382.12 1554.1 1381.57 1555.35 1381.59 1555.42L1381.57 1555.4Z" fill="white" stroke="#231F20" stroke-width="90.8204" stroke-linecap="round" stroke-linejoin="round"/>
<path d="M1466.78 1743.74C1483.54 1752.89 1538.56 1778.62 1610.42 1811.49C1668.31 1837.67 1643.63 1951.43 1643.63 1951.43C1524.93 2240.76 1383.57 2437.32 1209.74 2281.65C1175.73 2248.41 1158.06 2208.29 1149.03 2172.91C1077.05 1964 1325.35 1777.05 1335.59 1719.9L1466.78 1743.74Z" fill="#FFDF6F" stroke="#231F20" stroke-width="90.8204" stroke-linecap="round" stroke-linejoin="round"/>
<path d="M1909.33 1715.27C1893.86 1751.92 1872.93 1794.31 1844.53 1839.02C1813.9 1887.22 1782.2 1926.14 1754.09 1956.54C1748.92 1960.24 1742.13 1963.37 1734.38 1965.76C1698.53 1976.81 1658.82 1964.48 1636.73 1936.31C1631.67 1929.84 1626.4 1923.41 1620.9 1917.03C1508.2 1786.02 1436.9 1751.47 1337.23 1732.48C1364.5 1736.25 1459.88 1757.96 1488.58 1759.89C1491.6 1760.12 1494.64 1760.3 1497.66 1760.48C1511.26 1761.32 1524.93 1761.96 1538.69 1762.32C1542.82 1762.45 1547 1762.57 1551.15 1762.64C1674.24 1765.11 1802.32 1750.47 1909.35 1715.3L1909.33 1715.27Z" fill="#231F20" stroke="#231F20" stroke-width="94.8165" stroke-linecap="round" stroke-linejoin="round"/>
<path d="M1266.86 1417.26C1268.14 1416.26 1259.49 1368.83 1260.83 1367.92L1263.59 1199.47C1263.59 1199.47 1412.88 1260.3 1573.93 1274.42" fill="#FFDF6F"/>
<path d="M1266.86 1417.26C1268.14 1416.26 1259.49 1368.83 1260.83 1367.92L1263.59 1199.47C1263.59 1199.47 1412.88 1260.3 1573.93 1274.42" stroke="#231F20" stroke-width="90.8204" stroke-linecap="round" stroke-linejoin="round"/>
<path d="M1573.94 1274.44C1685.53 1274.9 1813.43 1254.28 1907.79 1226.17C1938.47 1217.04 1971.48 1231.53 1984.63 1260.71C2006.49 1309.2 2018.28 1369.92 2018.87 1430.93C2018.87 1432.97 2019 1434.99 2019.23 1437.03C2029.02 1527.63 2003.5 1654.91 1949.18 1681.48C1764.41 1773.98 1511.63 1779.09 1315.94 1702.3C1315.94 1702.3 1273.44 1675.16 1249.64 1606.94C1225.85 1538.71 1198.67 1448.75 1199.17 1448.36L1267.12 1258.34L1573.96 1274.42" fill="#FFDF6F"/>
<path d="M1573.94 1274.44C1685.53 1274.9 1813.43 1254.28 1907.79 1226.17C1938.47 1217.04 1971.48 1231.53 1984.63 1260.71C2006.49 1309.2 2018.28 1369.92 2018.87 1430.93C2018.87 1432.97 2019 1434.99 2019.23 1437.03C2029.02 1527.63 2003.5 1654.91 1949.18 1681.48C1764.41 1773.98 1511.63 1779.09 1315.94 1702.3C1315.94 1702.3 1273.44 1675.16 1249.64 1606.94C1225.85 1538.71 1198.67 1448.75 1199.17 1448.36L1267.12 1258.34L1573.96 1274.42" stroke="#231F20" stroke-width="90.8204" stroke-linecap="round" stroke-linejoin="round"/>
<path d="M1308.42 2337.02C1222.57 2523.63 960.303 2381.68 1149.03 2172.93L1171.23 2312.23L1308.42 2337.02Z" fill="#231F20" stroke="#231F20" stroke-width="90.8204" stroke-linecap="round" stroke-linejoin="round"/>
<path d="M2017.14 1159.16C2016.96 1159.34 2016.75 1159.53 2016.57 1159.73C1982.49 1193.11 1940.33 1217.11 1894.42 1230.02C1778.62 1262.58 1618.66 1283.65 1498.4 1270.39C1493.22 1269.83 1488.06 1269.44 1482.86 1269.17C1441.54 1266.92 1243.94 1249.66 1087.43 1122.99C1040.84 1085.28 1007.65 1033.49 991.844 975.66C762.387 135.412 1850.19 -178.691 2133.91 523.919C2213.65 729.196 2180 999.091 2017.14 1159.16Z" fill="#FFDF6F" stroke="#231F20" stroke-width="90.8204" stroke-linecap="round" stroke-linejoin="round"/>
<path d="M1240.14 1479.59C1222.48 1504.82 1199.36 1527.11 1173.91 1545.41C897.363 1729.89 411.814 1625.06 235.191 1355.71C186.784 1281.17 167.848 1180.68 210.193 1099.44C251.448 1016.66 346.105 972.314 436.449 963.369C570.636 948.973 705.527 992.09 825.387 1045.79C867.369 1064.47 907.989 1083.66 949.993 1103C1033.75 1142.38 1127.09 1181.31 1199.05 1240.35C1280.03 1305.38 1301.29 1392.11 1240.39 1479.27L1240.14 1479.64V1479.59Z" fill="white" stroke="#231F20" stroke-width="90.8204" stroke-linecap="round" stroke-linejoin="round"/>
<path d="M2018.88 2239.74L1880.9 2197.92C1880.9 2197.92 1920.25 2331.85 2024.14 2319.39C2161.58 2302.91 2108.52 2130.12 2109.02 2128.01L2018.9 2239.76L2018.88 2239.74Z" stroke="#231F20" stroke-width="90.8204" stroke-linecap="round" stroke-linejoin="round"/>
<path d="M1488.47 1269.22C1489.19 1269.31 1489.92 1269.4 1490.65 1269.49" stroke="#231F20" stroke-width="90.8204" stroke-linecap="round" stroke-linejoin="round"/>
<path d="M1726.48 1161.37C1563.94 1157.01 1400.96 1094.5 1286.94 975.844C1123.78 800.674 1132.27 539.815 1315.57 382.786C1472.6 258.249 1680.12 232.32 1870.28 299.64C2131.77 392.232 2251.18 834.754 2054.35 1042.91C1965.57 1128.85 1847.37 1160.23 1727.01 1161.34C1726.87 1161.34 1726.64 1161.34 1726.51 1161.34L1726.48 1161.37Z" fill="#231F20"/>
<path fill-rule="evenodd" clip-rule="evenodd" d="M1795.78 511.563C1788.99 557.632 1762.65 593.324 1721.2 623.295C1659.41 668.137 1564.01 679.172 1496.37 648.997C1451.73 629.516 1414.79 594.187 1410 538.514C1406.53 491.56 1433.57 448.829 1463.88 422.899C1525.75 369.384 1618.73 350.448 1695.24 374.674C1746.85 390 1804.8 438.793 1795.8 511.222L1795.76 511.563H1795.78Z" fill="white"/>
<path fill-rule="evenodd" clip-rule="evenodd" d="M1305.85 673.558C1333.4 651.806 1377.9 659.935 1390.11 693.992C1408.25 743.626 1346.13 789.399 1303.04 760.132C1272.55 739.63 1277.11 694.447 1305.49 673.853L1305.85 673.581V673.558Z" fill="white"/>
<path d="M1134.92 1255.31C1115.46 1267.41 1102.52 1285.48 1089.65 1303.78C1059.31 1346.9 1029.82 1391.45 997.963 1433.66C986.838 1448.35 975.258 1463.1 959.796 1472.62C938.453 1486.08 912.365 1487.67 888.389 1494.39C818.412 1511.97 764.714 1590.23 784.763 1661.5C793.64 1692.06 821.59 1719.99 854.876 1719.88C907.393 1719.81 950.737 1682.91 996.238 1661.46C1018.99 1650.6 1027.82 1658.87 1022.33 1682.98C1019.47 1695.92 1015.86 1710.93 1019.62 1722.81C1026.21 1746.3 1055.2 1752.09 1076.25 1745.6C1105.11 1737.61 1122.59 1712.86 1136.42 1686.59C1151.11 1659.19 1159.78 1629.33 1175.43 1602.38C1182.26 1590.41 1190.87 1577.47 1198.22 1567.14C1210.94 1548.91 1223.43 1537.1 1240.66 1522.73C1256.73 1508.9 1271.54 1498.12 1289.34 1485.63C1316.33 1465.97 1345.03 1440.13 1350.76 1406.18C1353.82 1386.66 1349.94 1367.31 1345.49 1348.13C1322.44 1244.54 1234.55 1195.64 1135.31 1255.06L1134.9 1255.31H1134.92Z" fill="#FFDF6F" stroke="#231F20" stroke-width="90.8204" stroke-linecap="round" stroke-linejoin="round"/>
<path d="M1186.38 1951.11C1186.38 1951.11 1256.6 2184.75 1523.07 2191.2" stroke="#231F20" stroke-width="90.8204" stroke-miterlimit="10"/>
<path d="M1797.1 2071.15C1797.1 2071.15 2055.17 2046.28 2118.67 1896.95" stroke="#231F20" stroke-width="90.8204" stroke-miterlimit="10"/>
<path d="M2034 1397.29C1867.11 1598.13 1324.58 1501.16 1324.58 1501.16L1293.45 1493.74" stroke="#231F20" stroke-width="134.573" stroke-miterlimit="10"/>
</svg>
