<svg width="1024" height="1024" viewBox="0 0 1024 1024" fill="none" xmlns="http://www.w3.org/2000/svg">
<g clip-path="url(#clip0_1443_13006)">
<rect width="1024" height="1024" fill="#0F0C40"/>
<g filter="url(#filter0_dddddd_1443_13006)">
<g clip-path="url(#clip1_1443_13006)">
<path d="M454.34 854.403C432.678 854.214 413.119 841.431 404.529 821.847C399.265 809.851 398.402 796.211 402.023 782.389C404.561 772.717 409.271 763.063 416.047 753.617C414.315 743.687 414.252 733.523 415.858 723.196C402.747 726.534 389.649 728.221 376.923 728.221C358.926 728.221 341.319 724.852 324.594 718.215C309.311 712.145 296.458 702.724 287.422 690.961C271.906 670.766 269.475 646.812 280.105 624.747C261.497 618.941 243.739 611.095 227.996 601.687C202.921 586.693 183.079 568.224 169.024 546.782C159.949 532.803 154.137 517.06 152.185 501.21C149.956 483.093 152.903 465.543 160.718 450.449C168.318 435.305 180.894 422.49 197.083 413.391C210.767 405.695 226.756 400.759 243.311 399.102C249.079 398.485 254.998 398.177 260.892 398.177C291.912 398.177 324.695 406.388 364.077 424.026C367.458 425.531 370.827 427.055 374.177 428.592C359.429 370.123 364.757 315.307 389.681 269.741C412.596 227.846 451.008 196.077 497.846 180.284C518.872 173.193 540.604 169.598 562.442 169.598C587.713 169.598 612.158 174.371 635.086 183.779C682.849 203.375 719.146 241.095 740.052 292.864L740.178 293.179C752.836 325.766 756.532 363.423 750.588 399.216C745.821 427.893 735.153 454.164 719.524 475.927C720.915 477.161 722.276 478.383 723.63 479.598C728.189 483.698 732.496 487.571 736.74 490.662L736.948 490.814C739.064 492.394 739.851 492.621 739.882 492.627L740.002 492.646C741.217 492.879 743.717 492.936 745.921 492.992C751.349 493.125 758.087 493.282 765.487 495.48C780.178 499.919 792.444 509.069 800.077 521.254C807.954 533.835 810.228 548.552 806.311 561.631C802.35 574.861 792.835 584.811 779.529 589.641C773.874 591.693 767.678 592.732 761.116 592.732C761.116 592.732 760.757 592.732 760.581 592.732C756.33 599.823 750.046 605.673 742.458 609.432C742.231 609.546 742.011 609.653 741.784 609.754C736.192 612.316 730.399 613.614 724.549 613.614C717.647 613.614 710.941 611.832 704.543 608.293C703.428 611.825 702.182 615.163 700.796 618.292C712.156 631.201 721.451 644.419 728.485 657.668C739.738 678.871 744.775 699.311 743.453 718.423C742.735 728.819 740.109 738.611 735.644 747.591C740.021 770.166 737.194 789.417 727.395 803.478C721.432 812.03 709.977 822.747 689.254 825.235C687.031 825.499 684.783 825.638 682.579 825.638C664.084 825.638 647.22 816.293 635.092 799.322C631.144 793.799 628.235 788.258 626.219 783.787C614.847 776.086 606.245 764.461 600.615 749.172C598.21 743.643 596.063 737.377 594.211 730.45C581.73 757.774 569.407 778.781 556.693 794.429C541.29 813.39 525.302 824.561 507.808 828.572C506.007 828.988 504.194 829.321 502.38 829.573C490.498 845.423 473.489 854.384 454.862 854.384H454.346L454.34 854.403Z" fill="white"/>
<path d="M562.436 182.188C585.767 182.188 608.821 186.608 630.3 195.424C674.852 213.705 708.762 249.025 728.372 297.576C728.39 297.627 728.416 297.677 728.434 297.734C740.286 328.249 743.743 363.557 738.157 397.153C732.975 428.348 720.595 455.949 702.125 477.768C706.735 481.358 711.017 485.205 715.204 488.971C720.009 493.291 724.549 497.371 729.316 500.847C729.354 500.879 729.398 500.904 729.436 500.935C732.616 503.316 735.128 504.575 737.584 505.022C737.616 505.022 737.653 505.035 737.685 505.041C739.876 505.457 742.666 505.526 745.619 505.595C750.531 505.715 756.104 505.847 761.891 507.566C773.629 511.118 783.377 518.347 789.397 527.956C795.354 537.465 797.117 548.428 794.246 558.031C791.45 567.351 784.699 574.379 775.228 577.817C770.934 579.379 766.217 580.153 761.117 580.153C758.44 580.153 755.657 579.939 752.773 579.511C750.38 587.477 744.687 594.284 736.866 598.163C736.753 598.22 736.64 598.27 736.526 598.327C733.277 599.819 729.196 601.034 724.549 601.034C719.108 601.034 712.893 599.366 706.319 594.498C702.811 591.904 699.657 588.723 696.76 585.399C696.099 590.128 695.192 594.781 694.046 599.233C692.333 605.889 689.676 613.597 685.608 620.335C698.977 634.516 709.631 649.025 717.364 663.596C727.496 682.689 732.049 700.85 730.897 717.581C730.191 727.827 727.295 737.291 722.37 745.723C727.288 766.781 725.462 784.262 717.068 796.308C712.578 802.75 703.851 810.829 687.755 812.762C686.017 812.97 684.285 813.077 682.579 813.077C668.209 813.077 655.136 805.741 645.344 792.032C640.886 785.798 637.957 779.507 636.264 775.25C627.769 770.389 618.43 761.34 612.316 744.508C608.6 736.07 605.798 726.051 603.796 716.07C601.995 716.322 600.187 716.454 598.393 716.454C594.646 716.454 590.937 715.9 587.392 714.855C560.339 777.322 534.017 809.67 505.013 816.333C501.795 817.07 498.577 817.491 495.366 817.586C485.869 832.919 471.197 841.824 454.881 841.824C454.749 841.824 454.617 841.824 454.485 841.824C437.766 841.672 422.69 831.855 416.091 816.805C411.979 807.435 411.337 796.648 414.233 785.603C416.765 775.956 421.922 766.252 429.573 756.674C424.964 737.921 427.823 720.132 434.176 703.992C427.609 706.631 420.65 708.979 413.346 710.862C400.997 714.049 388.843 715.642 376.948 715.642C360.513 715.642 344.568 712.6 329.273 706.524C316.099 701.291 305.092 693.262 297.441 683.3C282.353 663.665 282.485 640.524 297.812 619.819C298.486 618.912 299.173 618.018 299.884 617.142C276.421 611.525 253.966 602.527 234.495 590.89C211.07 576.885 192.594 559.725 179.59 539.889C171.568 527.534 166.436 513.649 164.716 499.682C162.79 484.065 165.302 469.034 171.964 456.188C178.432 443.26 189.263 432.265 203.28 424.381C215.478 417.524 229.778 413.122 244.64 411.642C249.992 411.069 255.408 410.779 260.924 410.779C290.004 410.779 321.628 418.808 358.957 435.527C367.049 439.129 375.103 442.863 382.893 446.478C386.451 448.128 390.021 449.784 393.636 451.446C393.667 451.459 393.699 451.478 393.73 451.49C394.826 452.007 395.94 452.523 397.049 453.039C393.081 446.176 389.977 438.758 387.83 430.899C372.162 373.532 376.633 319.893 400.758 275.782C422.149 236.67 458.068 206.998 501.896 192.219C521.738 185.532 542.204 182.194 562.468 182.194M562.436 156.999C539.231 156.999 516.14 160.815 493.816 168.347C443.968 185.154 403.062 219.013 378.623 263.691C355.677 305.643 348.315 354.773 356.873 407.215C341.414 400.843 326.955 395.988 312.988 392.455C294.695 387.833 277.655 385.585 260.892 385.578C254.564 385.578 248.21 385.912 242.007 386.573C223.752 388.406 206.082 393.878 190.906 402.411C172.544 412.732 158.224 427.366 149.49 444.74C140.536 462.082 137.141 482.132 139.685 502.749C141.871 520.488 148.35 538.069 158.432 553.592L158.463 553.642L158.495 553.693C173.608 576.734 194.817 596.519 221.535 612.501C234.514 620.259 248.783 627.01 263.751 632.501C261.969 638.861 261.037 645.335 260.999 651.814C260.905 668.338 266.585 684.528 277.435 698.646C287.857 712.204 302.554 723.022 319.947 729.93C338.152 737.159 357.32 740.824 376.923 740.824C385.21 740.824 393.636 740.163 402.105 738.859C402.137 742.795 402.395 746.699 402.873 750.585C396.753 759.936 392.389 769.52 389.851 779.205C385.5 795.798 386.589 812.296 393.006 826.918C403.585 851.036 427.621 866.773 454.245 867.006C454.459 867.006 454.661 867.006 454.869 867.006C467.419 867.006 479.793 863.561 490.643 857.037C497.614 852.85 503.841 847.535 509.257 841.175C509.717 841.08 510.176 840.98 510.63 840.873C521.102 838.467 531.278 833.795 540.875 826.987C549.678 820.741 558.286 812.466 566.466 802.397C575.314 791.503 583.935 778.254 592.499 762.341C599.337 776.611 608.166 785.993 616.195 792.101C618.361 796.535 621.213 801.604 624.841 806.679C639.4 827.044 659.897 838.259 682.566 838.259C685.28 838.259 688.032 838.096 690.752 837.768C710.532 835.394 727.213 825.785 737.723 810.709C748.9 794.677 752.647 773.607 748.736 749.338C752.842 739.961 755.285 729.905 756.016 719.313C757.502 697.815 751.979 675.095 739.606 651.783C735.053 643.206 729.625 634.655 723.372 626.21C723.762 626.216 724.152 626.223 724.537 626.223C732.213 626.223 739.776 624.541 747.011 621.223L747.03 621.21L747.049 621.198C747.37 621.047 747.691 620.895 748.012 620.738C755.613 616.972 762.193 611.582 767.325 605.071C773.094 604.573 778.616 603.371 783.811 601.488C800.706 595.354 813.301 582.143 818.364 565.254C823.319 548.705 820.542 530.236 810.738 514.581C801.487 499.814 786.727 488.757 769.177 483.448L769.12 483.429L769.063 483.41C760.059 480.734 752.061 480.539 746.218 480.4C745.544 480.382 744.713 480.363 743.951 480.337C741.451 478.499 738.862 476.307 736.06 473.826C749.385 452.51 758.579 427.838 762.999 401.265C769.315 363.274 765.373 323.262 751.91 288.597C751.847 288.445 751.797 288.301 751.74 288.162V288.143L751.727 288.124C740.764 260.971 725.67 237.275 706.861 217.685C687.843 197.874 665.3 182.54 639.859 172.1C615.401 162.069 589.356 156.98 562.436 156.98V156.999Z" fill="white"/>
<path d="M679.757 478.98C682.326 479.894 684.631 481.046 686.898 482.425C699.555 490.328 709.738 502.16 721.885 511.02C726.047 514.137 730.355 516.505 735.31 517.412C742.659 518.816 750.864 517.431 758.295 519.641C793.357 530.239 792.696 578.985 745.864 565.081C744.133 564.735 743.131 564.634 742.3 565.515C741.173 567.071 741.601 569.653 741.406 571.636C741.167 577.996 737.351 583.865 731.261 586.888C713.352 595.099 701.596 568.381 690.343 558.028C686.879 554.565 683.126 551.498 678.945 548.916C670.998 543.948 661.426 541.605 653.272 537.078C646.049 533.293 640.702 527.059 639.317 518.848C634.116 492.96 653.8 469.579 679.631 478.943L679.757 478.987V478.98Z" fill="#FFDF6F" stroke="#231F20" stroke-width="25.1885" stroke-linecap="round" stroke-linejoin="round"/>
<path d="M538.287 509.068C538.085 509.043 537.884 509.017 537.682 508.992" stroke="#231F20" stroke-width="25.1885" stroke-linecap="round" stroke-linejoin="round"/>
<path d="M695.633 756.481C666.987 774.309 636.729 775.499 623.997 739.807C615.307 720.374 612.026 690.777 612.404 677.119C627.378 672.56 647.227 641.232 647.649 631.326C666.993 619.469 661.445 622.491 666.993 619.469C719.631 669.877 736.595 726.872 695.633 756.481Z" fill="#FFDF6F" stroke="#231F20" stroke-width="25.1885" stroke-linecap="round" stroke-linejoin="round"/>
<path d="M508.036 588.365C519.27 618.251 497.003 648.943 474.743 666.122C438.541 694.056 385.708 715.391 333.895 694.812C323.228 690.574 313.814 683.974 307.397 675.624C295.533 660.184 296.219 643.1 307.907 627.307C325.148 604.007 358.196 591.016 388.113 582.528C409.637 576.42 428.944 566.47 449.957 563.076C475.53 560.847 498.307 562.868 508.18 587.987C508.187 588.006 508.036 588.353 508.042 588.372L508.036 588.365Z" fill="white" stroke="#231F20" stroke-width="25.1885" stroke-linecap="round" stroke-linejoin="round"/>
<path d="M531.668 640.6C536.315 643.138 551.573 650.273 571.503 659.391C587.561 666.651 580.716 698.2 580.716 698.2C547.795 778.444 508.589 832.958 460.378 789.785C450.945 780.566 446.046 769.439 443.54 759.628C423.578 701.689 492.443 649.838 495.283 633.988L531.668 640.6Z" fill="#FFDF6F" stroke="#231F20" stroke-width="25.1885" stroke-linecap="round" stroke-linejoin="round"/>
<path d="M654.406 632.703C650.117 642.867 644.312 654.623 636.434 667.022C627.939 680.391 619.148 691.184 611.352 699.616C609.917 700.643 608.034 701.512 605.887 702.173C595.943 705.24 584.93 701.82 578.803 694.006C577.398 692.211 575.937 690.429 574.413 688.659C543.155 652.325 523.382 642.741 495.737 637.476C503.3 638.522 529.754 644.542 537.714 645.077C538.551 645.14 539.395 645.19 540.233 645.241C544.005 645.474 547.796 645.65 551.612 645.751C552.758 645.789 553.916 645.82 555.069 645.839C589.205 646.525 624.727 642.464 654.412 632.709L654.406 632.703Z" fill="#231F20" stroke="#231F20" stroke-width="26.2968" stroke-linecap="round" stroke-linejoin="round"/>
<path d="M476.222 550.05C476.575 549.773 474.176 536.619 474.547 536.367L475.315 489.648C475.315 489.648 516.719 506.518 561.384 510.435" fill="#FFDF6F"/>
<path d="M476.222 550.05C476.575 549.773 474.176 536.619 474.547 536.367L475.315 489.648C475.315 489.648 516.719 506.518 561.384 510.435" stroke="#231F20" stroke-width="25.1885" stroke-linecap="round" stroke-linejoin="round"/>
<path d="M561.384 510.441C592.335 510.567 627.806 504.849 653.977 497.054C662.485 494.522 671.641 498.54 675.287 506.631C681.351 520.082 684.619 536.921 684.783 553.841C684.783 554.408 684.821 554.968 684.884 555.535C687.598 580.66 680.52 615.962 665.457 623.33C614.211 648.984 544.105 650.401 489.83 629.104C489.83 629.104 478.042 621.579 471.443 602.656C464.843 583.733 457.306 558.784 457.444 558.677L476.292 505.977L561.391 510.435" fill="#FFDF6F"/>
<path d="M561.384 510.441C592.335 510.567 627.806 504.849 653.977 497.054C662.485 494.522 671.641 498.54 675.287 506.631C681.351 520.082 684.619 536.921 684.783 553.841C684.783 554.408 684.821 554.968 684.884 555.535C687.598 580.66 680.52 615.962 665.457 623.33C614.211 648.984 544.105 650.401 489.83 629.104C489.83 629.104 478.042 621.579 471.443 602.656C464.843 583.733 457.306 558.784 457.444 558.677L476.292 505.977L561.391 510.435" stroke="#231F20" stroke-width="25.1885" stroke-linecap="round" stroke-linejoin="round"/>
<path d="M487.746 805.142C463.937 856.898 391.199 817.529 443.541 759.633L449.699 798.266L487.746 805.142Z" fill="#231F20" stroke="#231F20" stroke-width="25.1885" stroke-linecap="round" stroke-linejoin="round"/>
<path d="M684.304 478.471C684.253 478.521 684.197 478.571 684.146 478.628C674.694 487.885 663.001 494.541 650.268 498.124C618.153 507.154 573.789 512.998 540.434 509.32C538.998 509.163 537.568 509.056 536.126 508.98C524.666 508.357 469.862 503.571 426.456 468.439C413.534 457.98 404.328 443.616 399.945 427.577C336.306 194.54 638.001 107.426 716.69 302.29C738.805 359.222 729.473 434.076 684.304 478.471Z" fill="#FFDF6F" stroke="#231F20" stroke-width="25.1885" stroke-linecap="round" stroke-linejoin="round"/>
<path d="M468.811 567.339C463.911 574.335 457.501 580.519 450.442 585.594C373.743 636.758 239.079 607.685 190.094 532.982C176.668 512.309 171.417 484.437 183.161 461.906C194.603 438.947 220.855 426.649 245.912 424.168C283.127 420.175 320.539 432.134 353.781 447.026C365.425 452.209 376.69 457.53 388.34 462.895C411.57 473.814 437.457 484.614 457.413 500.986C479.875 519.021 485.769 543.076 468.88 567.251L468.811 567.352V567.339Z" fill="white" stroke="#231F20" stroke-width="25.1885" stroke-linecap="round" stroke-linejoin="round"/>
<path d="M684.789 778.164L646.521 766.565C646.521 766.565 657.434 803.711 686.25 800.254C724.366 795.682 709.65 747.761 709.789 747.176L684.795 778.17L684.789 778.164Z" stroke="#231F20" stroke-width="25.1885" stroke-linecap="round" stroke-linejoin="round"/>
<path d="M537.682 508.992C537.884 509.017 538.085 509.043 538.287 509.068" stroke="#231F20" stroke-width="25.1885" stroke-linecap="round" stroke-linejoin="round"/>
<path d="M603.695 479.082C558.614 477.873 513.413 460.537 481.789 427.628C436.538 379.046 438.893 306.698 489.73 263.148C533.281 228.608 590.836 221.417 643.575 240.087C716.098 265.767 749.215 388.498 694.625 446.23C670.004 470.065 637.221 478.767 603.84 479.076C603.802 479.076 603.739 479.076 603.701 479.076L603.695 479.082Z" fill="#231F20"/>
<path fill-rule="evenodd" clip-rule="evenodd" d="M622.913 298.864C621.031 311.641 613.726 321.54 602.227 329.852C585.093 342.289 558.632 345.35 539.873 336.981C527.493 331.578 517.248 321.78 515.919 306.339C514.956 293.317 522.456 281.465 530.862 274.274C548.022 259.432 573.809 254.18 595.03 260.899C609.343 265.15 625.413 278.682 622.92 298.77L622.907 298.864H622.913Z" fill="white"/>
<path fill-rule="evenodd" clip-rule="evenodd" d="M487.035 343.794C494.673 337.761 507.016 340.016 510.403 349.461C515.435 363.227 498.206 375.922 486.254 367.805C477.797 362.118 479.063 349.587 486.934 343.876L487.035 343.8V343.794Z" fill="white"/>
<path d="M439.629 505.137C434.233 508.494 430.643 513.506 427.073 518.582C418.66 530.54 410.48 542.895 401.645 554.601C398.56 558.676 395.348 562.769 391.06 565.407C385.14 569.141 377.905 569.582 371.255 571.446C351.848 576.32 336.955 598.026 342.515 617.793C344.977 626.269 352.729 634.014 361.961 633.983C376.526 633.964 388.547 623.731 401.167 617.78C407.476 614.77 409.926 617.062 408.402 623.75C407.609 627.339 406.607 631.502 407.653 634.795C409.479 641.313 417.52 642.918 423.358 641.117C431.361 638.901 436.21 632.037 440.045 624.751C444.119 617.151 446.525 608.87 450.863 601.395C452.759 598.077 455.145 594.487 457.186 591.622C460.712 586.565 464.176 583.291 468.955 579.305C473.413 575.47 477.519 572.479 482.456 569.015C489.943 563.562 497.903 556.396 499.49 546.982C500.34 541.566 499.263 536.201 498.029 530.88C491.637 502.153 467.261 488.589 439.736 505.068L439.623 505.137H439.629Z" fill="#FFDF6F" stroke="#231F20" stroke-width="25.1885" stroke-linecap="round" stroke-linejoin="round"/>
<path d="M453.899 698.113C453.899 698.113 473.376 762.911 547.279 764.699" stroke="#231F20" stroke-width="25.1885" stroke-miterlimit="10"/>
<path d="M623.279 731.401C623.279 731.401 694.852 724.506 712.465 683.09" stroke="#231F20" stroke-width="25.1885" stroke-miterlimit="10"/>
<path d="M688.982 544.512C642.699 600.216 492.229 573.321 492.229 573.321L483.596 571.262" stroke="#231F20" stroke-width="37.323" stroke-miterlimit="10"/>
</g>
</g>
<path d="M206.772 867.375C204.458 867.716 202.219 868.285 200.018 869.044C196.071 870.41 192.429 872.421 189.127 874.963C180.893 881.223 174.973 890.633 173.266 900.763C173.266 900.953 173.076 901.028 172.962 900.991C172.848 900.991 172.734 900.877 172.734 900.763C170.04 883.5 156.076 870.031 139.228 867.337C138.924 867.299 138.924 866.843 139.228 866.806C140.404 866.616 141.542 866.388 142.681 866.085C152.167 863.694 160.402 857.813 165.904 849.998C167.687 847.494 169.167 844.8 170.344 841.916C171.482 839.146 172.317 836.225 172.772 833.228C172.81 832.924 173.266 832.924 173.304 833.228C174.328 839.754 176.984 845.71 180.741 850.794C182.904 853.716 185.408 856.296 188.254 858.534C193.567 862.746 199.904 865.667 206.772 866.843C207.076 866.881 207.076 867.337 206.772 867.375Z" fill="white" fill-opacity="0.8"/>
<path d="M206.772 867.375C204.458 867.716 202.219 868.285 200.018 869.044C196.071 870.41 192.429 872.421 189.127 874.963C180.893 881.223 174.973 890.633 173.266 900.763C173.266 900.953 173.076 901.028 172.962 900.991C172.848 900.991 172.734 900.877 172.734 900.763C170.04 883.5 156.076 870.031 139.228 867.337C138.924 867.299 138.924 866.843 139.228 866.806C140.404 866.616 141.542 866.388 142.681 866.085C152.167 863.694 160.402 857.813 165.904 849.998C167.687 847.494 169.167 844.8 170.344 841.916C171.482 839.146 172.317 836.225 172.772 833.228C172.81 832.924 173.266 832.924 173.304 833.228C174.328 839.754 176.984 845.71 180.741 850.794C182.904 853.716 185.408 856.296 188.254 858.534C193.567 862.746 199.904 865.667 206.772 866.843C207.076 866.881 207.076 867.337 206.772 867.375Z" fill="white" fill-opacity="0.8"/>
<path d="M216.577 196.02C213.21 196.517 209.954 197.345 206.753 198.449C201.012 200.437 195.714 203.363 190.912 207.062C178.935 216.172 170.324 229.864 167.841 244.605C167.841 244.881 167.565 244.991 167.399 244.936C167.233 244.936 167.068 244.77 167.068 244.605C163.149 219.484 142.838 199.885 118.331 195.965C117.89 195.91 117.89 195.247 118.331 195.192C120.042 194.916 121.698 194.585 123.354 194.143C137.152 190.665 149.13 182.107 157.133 170.734C159.727 167.09 161.88 163.17 163.591 158.974C165.246 154.944 166.461 150.693 167.123 146.331C167.178 145.89 167.841 145.89 167.896 146.331C169.386 155.827 173.25 164.495 178.714 171.893C181.86 176.145 185.503 179.899 189.642 183.156C197.37 189.284 206.587 193.536 216.577 195.247C217.019 195.302 217.019 195.965 216.577 196.02Z" fill="white" fill-opacity="0.8"/>
<path d="M216.577 196.02C213.21 196.517 209.954 197.345 206.753 198.449C201.012 200.437 195.714 203.363 190.912 207.062C178.935 216.172 170.324 229.864 167.841 244.605C167.841 244.881 167.565 244.991 167.399 244.936C167.233 244.936 167.068 244.77 167.068 244.605C163.149 219.484 142.838 199.885 118.331 195.965C117.89 195.91 117.89 195.247 118.331 195.192C120.042 194.916 121.698 194.585 123.354 194.143C137.152 190.665 149.13 182.107 157.133 170.734C159.727 167.09 161.88 163.17 163.591 158.974C165.246 154.944 166.461 150.693 167.123 146.331C167.178 145.89 167.841 145.89 167.896 146.331C169.386 155.827 173.25 164.495 178.714 171.893C181.86 176.145 185.503 179.899 189.642 183.156C197.37 189.284 206.587 193.536 216.577 195.247C217.019 195.302 217.019 195.965 216.577 196.02Z" fill="white" fill-opacity="0.8"/>
<path d="M945.577 787.02C942.21 787.517 938.954 788.345 935.753 789.449C930.012 791.437 924.714 794.363 919.912 798.062C907.935 807.172 899.324 820.864 896.841 835.605C896.841 835.881 896.565 835.991 896.399 835.936C896.233 835.936 896.068 835.77 896.068 835.605C892.149 810.484 871.838 790.885 847.331 786.965C846.89 786.91 846.89 786.247 847.331 786.192C849.042 785.916 850.698 785.585 852.354 785.143C866.152 781.665 878.13 773.107 886.133 761.734C888.727 758.09 890.88 754.17 892.591 749.974C894.246 745.944 895.461 741.693 896.123 737.331C896.178 736.89 896.841 736.89 896.896 737.331C898.386 746.827 902.25 755.495 907.714 762.893C910.86 767.145 914.503 770.899 918.642 774.156C926.37 780.284 935.587 784.536 945.577 786.247C946.019 786.302 946.019 786.965 945.577 787.02Z" fill="white" fill-opacity="0.8"/>
<path d="M945.577 787.02C942.21 787.517 938.954 788.345 935.753 789.449C930.012 791.437 924.714 794.363 919.912 798.062C907.935 807.172 899.324 820.864 896.841 835.605C896.841 835.881 896.565 835.991 896.399 835.936C896.233 835.936 896.068 835.77 896.068 835.605C892.149 810.484 871.838 790.885 847.331 786.965C846.89 786.91 846.89 786.247 847.331 786.192C849.042 785.916 850.698 785.585 852.354 785.143C866.152 781.665 878.13 773.107 886.133 761.734C888.727 758.09 890.88 754.17 892.591 749.974C894.246 745.944 895.461 741.693 896.123 737.331C896.178 736.89 896.841 736.89 896.896 737.331C898.386 746.827 902.25 755.495 907.714 762.893C910.86 767.145 914.503 770.899 918.642 774.156C926.37 780.284 935.587 784.536 945.577 786.247C946.019 786.302 946.019 786.965 945.577 787.02Z" fill="white" fill-opacity="0.8"/>
<path d="M845.873 886.209C844.579 886.4 843.328 886.718 842.098 887.142C839.893 887.906 837.857 889.029 836.012 890.45C831.411 893.948 828.103 899.206 827.148 904.867C827.148 904.973 827.042 905.016 826.979 904.995C826.915 904.995 826.852 904.931 826.852 904.867C825.346 895.22 817.542 887.694 808.127 886.188C807.958 886.167 807.958 885.913 808.127 885.891C808.785 885.785 809.421 885.658 810.057 885.488C815.358 884.153 819.96 880.866 823.035 876.499C824.031 875.099 824.858 873.594 825.516 871.983C826.152 870.435 826.618 868.802 826.873 867.127C826.894 866.958 827.148 866.958 827.17 867.127C827.742 870.774 829.227 874.103 831.326 876.944C832.535 878.577 833.934 880.018 835.525 881.269C838.493 883.623 842.035 885.255 845.873 885.913C846.042 885.934 846.042 886.188 845.873 886.209Z" fill="white" fill-opacity="0.8"/>
<path d="M845.873 886.209C844.579 886.4 843.328 886.718 842.098 887.142C839.893 887.906 837.857 889.029 836.012 890.45C831.411 893.948 828.103 899.206 827.148 904.867C827.148 904.973 827.042 905.016 826.979 904.995C826.915 904.995 826.852 904.931 826.852 904.867C825.346 895.22 817.542 887.694 808.127 886.188C807.958 886.167 807.958 885.913 808.127 885.891C808.785 885.785 809.421 885.658 810.057 885.488C815.358 884.153 819.96 880.866 823.035 876.499C824.031 875.099 824.858 873.594 825.516 871.983C826.152 870.435 826.618 868.802 826.873 867.127C826.894 866.958 827.148 866.958 827.17 867.127C827.742 870.774 829.227 874.103 831.326 876.944C832.535 878.577 833.934 880.018 835.525 881.269C838.493 883.623 842.035 885.255 845.873 885.913C846.042 885.934 846.042 886.188 845.873 886.209Z" fill="white" fill-opacity="0.8"/>
<path d="M910.806 186.32C908.831 186.611 906.922 187.096 905.045 187.743C901.679 188.908 898.571 190.624 895.756 192.792C888.732 198.132 883.683 206.157 882.227 214.798C882.227 214.96 882.065 215.024 881.968 214.992C881.871 214.992 881.773 214.895 881.773 214.798C879.475 200.073 867.565 188.585 853.194 186.287C852.935 186.255 852.935 185.867 853.194 185.834C854.198 185.672 855.169 185.478 856.14 185.219C864.231 183.18 871.254 178.164 875.948 171.498C877.469 169.362 878.731 167.064 879.734 164.605C880.705 162.243 881.417 159.751 881.806 157.194C881.838 156.935 882.227 156.935 882.259 157.194C883.133 162.76 885.398 167.841 888.603 172.178C890.448 174.669 892.584 176.87 895.011 178.779C899.542 182.371 904.948 184.863 910.806 185.867C911.065 185.899 911.065 186.287 910.806 186.32Z" fill="white" fill-opacity="0.8"/>
<path d="M910.806 186.32C908.831 186.611 906.922 187.096 905.045 187.743C901.679 188.908 898.571 190.624 895.756 192.792C888.732 198.132 883.683 206.157 882.227 214.798C882.227 214.96 882.065 215.024 881.968 214.992C881.871 214.992 881.773 214.895 881.773 214.798C879.475 200.073 867.565 188.585 853.194 186.287C852.935 186.255 852.935 185.867 853.194 185.834C854.198 185.672 855.169 185.478 856.14 185.219C864.231 183.18 871.254 178.164 875.948 171.498C877.469 169.362 878.731 167.064 879.734 164.605C880.705 162.243 881.417 159.751 881.806 157.194C881.838 156.935 882.227 156.935 882.259 157.194C883.133 162.76 885.398 167.841 888.603 172.178C890.448 174.669 892.584 176.87 895.011 178.779C899.542 182.371 904.948 184.863 910.806 185.867C911.065 185.899 911.065 186.287 910.806 186.32Z" fill="white" fill-opacity="0.8"/>
<path d="M298.853 112.242C297.355 112.463 295.906 112.832 294.482 113.323C291.929 114.206 289.571 115.508 287.435 117.152C282.107 121.203 278.277 127.292 277.172 133.847C277.172 133.969 277.049 134.018 276.975 133.994C276.902 133.994 276.828 133.92 276.828 133.847C275.085 122.676 266.049 113.961 255.147 112.218C254.951 112.193 254.951 111.899 255.147 111.874C255.908 111.751 256.645 111.604 257.382 111.408C263.52 109.861 268.848 106.056 272.408 100.998C273.562 99.3782 274.52 97.6351 275.281 95.7693C276.018 93.9771 276.558 92.0868 276.853 90.1473C276.877 89.9509 277.172 89.9509 277.196 90.1473C277.859 94.3699 279.578 98.2243 282.009 101.514C283.408 103.404 285.029 105.074 286.871 106.522C290.308 109.247 294.408 111.138 298.853 111.899C299.049 111.923 299.049 112.218 298.853 112.242Z" fill="white" fill-opacity="0.8"/>
<path d="M298.853 112.242C297.355 112.463 295.906 112.832 294.482 113.323C291.929 114.206 289.571 115.508 287.435 117.152C282.107 121.203 278.277 127.292 277.172 133.847C277.172 133.969 277.049 134.018 276.975 133.994C276.902 133.994 276.828 133.92 276.828 133.847C275.085 122.676 266.049 113.961 255.147 112.218C254.951 112.193 254.951 111.899 255.147 111.874C255.908 111.751 256.645 111.604 257.382 111.408C263.52 109.861 268.848 106.056 272.408 100.998C273.562 99.3782 274.52 97.6351 275.281 95.7693C276.018 93.9771 276.558 92.0868 276.853 90.1473C276.877 89.9509 277.172 89.9509 277.196 90.1473C277.859 94.3699 279.578 98.2243 282.009 101.514C283.408 103.404 285.029 105.074 286.871 106.522C290.308 109.247 294.408 111.138 298.853 111.899C299.049 111.923 299.049 112.218 298.853 112.242Z" fill="white" fill-opacity="0.8"/>
</g>
<defs>
<filter id="filter0_dddddd_1443_13006" x="-3453.4" y="-3421.4" width="7866.8" height="7866.8" filterUnits="userSpaceOnUse" color-interpolation-filters="sRGB">
<feFlood flood-opacity="0" result="BackgroundImageFix"/>
<feColorMatrix in="SourceAlpha" type="matrix" values="0 0 0 0 0 0 0 0 0 0 0 0 0 0 0 0 0 0 127 0" result="hardAlpha"/>
<feOffset/>
<feGaussianBlur stdDeviation="42.6"/>
<feColorMatrix type="matrix" values="0 0 0 0 0.239216 0 0 0 0 0.219608 0 0 0 0 0.478431 0 0 0 1 0"/>
<feBlend mode="normal" in2="BackgroundImageFix" result="effect1_dropShadow_1443_13006"/>
<feColorMatrix in="SourceAlpha" type="matrix" values="0 0 0 0 0 0 0 0 0 0 0 0 0 0 0 0 0 0 127 0" result="hardAlpha"/>
<feOffset/>
<feGaussianBlur stdDeviation="85.2"/>
<feColorMatrix type="matrix" values="0 0 0 0 0.239216 0 0 0 0 0.219608 0 0 0 0 0.478431 0 0 0 1 0"/>
<feBlend mode="normal" in2="effect1_dropShadow_1443_13006" result="effect2_dropShadow_1443_13006"/>
<feColorMatrix in="SourceAlpha" type="matrix" values="0 0 0 0 0 0 0 0 0 0 0 0 0 0 0 0 0 0 127 0" result="hardAlpha"/>
<feOffset/>
<feGaussianBlur stdDeviation="298.2"/>
<feColorMatrix type="matrix" values="0 0 0 0 0.239216 0 0 0 0 0.219608 0 0 0 0 0.478431 0 0 0 1 0"/>
<feBlend mode="normal" in2="effect2_dropShadow_1443_13006" result="effect3_dropShadow_1443_13006"/>
<feColorMatrix in="SourceAlpha" type="matrix" values="0 0 0 0 0 0 0 0 0 0 0 0 0 0 0 0 0 0 127 0" result="hardAlpha"/>
<feOffset/>
<feGaussianBlur stdDeviation="596.4"/>
<feColorMatrix type="matrix" values="0 0 0 0 0.239216 0 0 0 0 0.219608 0 0 0 0 0.478431 0 0 0 1 0"/>
<feBlend mode="normal" in2="effect3_dropShadow_1443_13006" result="effect4_dropShadow_1443_13006"/>
<feColorMatrix in="SourceAlpha" type="matrix" values="0 0 0 0 0 0 0 0 0 0 0 0 0 0 0 0 0 0 127 0" result="hardAlpha"/>
<feOffset/>
<feGaussianBlur stdDeviation="1022.4"/>
<feColorMatrix type="matrix" values="0 0 0 0 0.239216 0 0 0 0 0.219608 0 0 0 0 0.478431 0 0 0 1 0"/>
<feBlend mode="normal" in2="effect4_dropShadow_1443_13006" result="effect5_dropShadow_1443_13006"/>
<feColorMatrix in="SourceAlpha" type="matrix" values="0 0 0 0 0 0 0 0 0 0 0 0 0 0 0 0 0 0 127 0" result="hardAlpha"/>
<feOffset/>
<feGaussianBlur stdDeviation="1789.2"/>
<feColorMatrix type="matrix" values="0 0 0 0 0.239216 0 0 0 0 0.219608 0 0 0 0 0.478431 0 0 0 1 0"/>
<feBlend mode="normal" in2="effect5_dropShadow_1443_13006" result="effect6_dropShadow_1443_13006"/>
<feBlend mode="normal" in="SourceGraphic" in2="effect6_dropShadow_1443_13006" result="shape"/>
</filter>
<clipPath id="clip0_1443_13006">
<rect width="1024" height="1024" fill="white"/>
</clipPath>
<clipPath id="clip1_1443_13006">
<rect width="681.902" height="710" fill="white" transform="translate(138.867 157)"/>
</clipPath>
</defs>
</svg>
