<svg width="8193" height="1024" viewBox="0 0 8193 1024" fill="none" xmlns="http://www.w3.org/2000/svg">
<path d="M812.211 660.067C819.631 630.262 819.972 598.87 813.151 568.866C805.013 533.04 786.943 500.27 760.903 474.095L703.302 416.203C692.647 405.505 678.488 399.586 663.399 399.537H663.253C648.262 399.537 634.135 405.359 623.485 415.927L600.713 438.482C598.603 440.572 595.201 440.565 593.099 438.468L528.309 373.821C514.463 360.007 491.938 360.007 478.097 373.821C471.384 380.523 467.685 389.428 467.685 398.906C467.685 408.383 471.384 417.294 478.097 423.99L542.696 488.452C544.814 490.565 544.81 493.997 542.687 496.106L501.32 537.195C499.21 539.29 495.804 539.286 493.7 537.186L428.872 472.502C415.026 458.688 392.501 458.688 378.66 472.502C371.947 479.203 368.248 488.109 368.248 497.586C368.248 507.064 371.947 515.975 378.66 522.671L443.295 587.169C445.416 589.285 445.409 592.722 443.28 594.83L424.406 613.51C413.697 624.144 407.773 638.282 407.725 653.316C407.676 668.351 413.514 682.527 424.158 693.225L481.753 751.117C508.133 777.633 541.297 795.988 577.652 804.208C608.132 811.099 639.994 810.634 670.22 802.896L766.897 899.427C782.547 915.061 803.414 923.669 825.642 923.669C847.87 923.669 868.613 915.104 884.252 899.551L909.396 874.553C925.138 858.908 933.817 838.079 933.833 815.916C933.865 793.753 925.23 772.902 909.52 757.214L812.211 660.067ZM752.257 700.515L859.292 807.389C861.592 809.684 862.807 812.616 862.802 815.846C862.796 819.048 861.544 822.056 859.275 824.308L834.131 849.301C829.438 853.967 821.813 853.956 817.131 849.279L710.652 742.968C701.655 733.976 689.693 729.029 676.97 729.029C671.699 729.029 666.461 729.893 661.396 731.595C639.476 738.955 615.941 740.143 593.335 735.04C570.167 729.802 549.003 718.077 532.149 701.137L494.382 663.171C489.114 657.876 489.147 649.309 494.456 644.054L522.439 616.356L540.341 598.492L607.586 531.695L621.854 517.454L653.612 486.003C658.902 480.765 667.433 480.797 672.683 486.074L710.506 524.091C727.139 540.811 738.68 561.726 743.875 584.57C748.941 606.83 747.855 630.052 740.748 651.723C735.067 669.053 739.474 687.754 752.257 700.515Z" fill="white"/>
<path d="M680.421 897.062C667.854 884.495 647.382 884.473 634.783 897.008C604.325 927.314 554.89 927.201 524.577 896.754L158.66 529.07C128.348 498.607 128.461 449.161 158.919 418.844L427.474 151.278C442.184 136.637 461.696 128.58 482.444 128.58C482.503 128.58 482.568 128.58 482.627 128.58C503.44 128.629 522.99 136.783 537.69 151.548L859.297 473.414C865.956 480.078 874.807 483.751 884.23 483.756C893.649 483.756 902.516 480.089 909.175 473.436C922.87 459.751 922.919 437.443 909.283 423.704L582.556 94.3254L582.048 93.8448C553.442 68.5279 516.596 55.1567 478.302 56.2097C439.835 57.2628 403.626 72.7996 376.338 99.9634L107.778 367.535C79.318 395.865 63.5922 433.587 63.5004 473.738C63.4086 513.89 78.9562 551.676 107.281 580.142L473.204 947.82C501.545 976.296 539.283 992.032 579.461 992.124H579.823C619.861 992.124 657.534 976.576 685.924 948.316C692.048 942.219 695.423 934.108 695.434 925.467C695.445 916.827 692.086 908.705 685.973 902.592L680.421 897.062Z" fill="white"/>
<path d="M1078.35 440.137L953.418 71.8723L953.192 71.1001L952.198 68.9399C943.897 50.7947 931.736 35.6035 916.048 23.7876C901.343 12.7114 883.899 5.12932 865.608 1.85671C847.323 -1.41591 828.346 -0.346638 810.73 4.94031C791.921 10.5837 775.239 20.6284 761.139 34.7935L708.906 87.2688C702.161 94.0408 698.419 103.038 698.359 112.591C698.3 122.144 701.94 131.179 708.598 138.038C715.425 145.063 724.573 148.962 734.369 149.022C734.445 149.022 734.52 149.022 734.596 149.022C744.306 149.022 753.421 145.236 760.275 138.351L812.507 85.8755C823.21 75.1179 837.915 70.479 852.853 73.1522C867.547 75.7822 879.574 84.952 885.968 98.3719L1010.23 464.779L1010.36 465.217L1010.52 465.643C1013.51 473.447 1015.03 481.639 1015.03 489.999C1015.03 508.214 1007.91 525.328 995.003 538.181L909.412 623.393C902.549 630.225 898.763 639.324 898.752 649.007C898.741 658.69 902.505 667.795 909.358 674.648C916.422 681.706 925.7 685.238 934.989 685.238C944.277 685.238 953.506 681.728 960.559 674.702L1046.15 589.495C1059.32 576.378 1069.62 561.024 1076.75 543.867C1083.88 526.705 1087.5 508.581 1087.5 489.999C1087.5 472.896 1084.43 456.122 1078.35 440.137Z" fill="white"/>
<path d="M1816.52 309.6V732H1735.24L1572.04 465.76L1531.08 390.88H1530.44L1533 459.36V732H1470.28V309.6H1550.92L1713.48 575.2L1755.08 651.36H1755.72L1753.16 582.24V309.6H1816.52ZM2066.44 405.6C2097.58 405.6 2125.1 412.213 2149 425.44C2172.89 438.667 2191.45 457.867 2204.68 483.04C2218.33 507.787 2225.16 537.44 2225.16 572C2225.16 606.56 2218.33 636.427 2204.68 661.6C2191.45 686.347 2172.89 705.333 2149 718.56C2125.1 731.787 2097.58 738.4 2066.44 738.4C2035.29 738.4 2007.77 731.787 1983.88 718.56C1959.98 705.333 1941.21 686.347 1927.56 661.6C1913.9 636.427 1907.08 606.56 1907.08 572C1907.08 537.44 1913.9 507.787 1927.56 483.04C1941.21 457.867 1959.98 438.667 1983.88 425.44C2007.77 412.213 2035.29 405.6 2066.44 405.6ZM2066.44 459.36C2047.24 459.36 2030.81 463.84 2017.16 472.8C2003.93 481.333 1993.69 493.92 1986.44 510.56C1979.18 527.2 1975.56 547.68 1975.56 572C1975.56 595.893 1979.18 616.373 1986.44 633.44C1993.69 650.08 2003.93 662.88 2017.16 671.84C2030.81 680.373 2047.24 684.64 2066.44 684.64C2085.64 684.64 2101.85 680.373 2115.08 671.84C2128.3 662.88 2138.54 650.08 2145.8 633.44C2153.05 616.373 2156.68 595.893 2156.68 572C2156.68 547.68 2153.05 527.2 2145.8 510.56C2138.54 493.92 2128.3 481.333 2115.08 472.8C2101.85 463.84 2085.64 459.36 2066.44 459.36ZM2432.91 738.4C2400.91 738.4 2371.68 732.213 2345.23 719.84C2318.77 707.467 2297.87 689.973 2282.51 667.36L2329.87 626.4C2339.25 643.893 2352.69 657.973 2370.19 668.64C2388.11 678.88 2409.44 684 2434.19 684C2453.81 684 2469.39 680.587 2480.91 673.76C2492.43 666.933 2498.19 657.333 2498.19 644.96C2498.19 636.853 2495.41 629.813 2489.87 623.84C2484.75 617.44 2474.72 612.533 2459.79 609.12L2392.59 595.04C2358.45 588.213 2334.13 577.333 2319.63 562.4C2305.12 547.04 2297.87 527.627 2297.87 504.16C2297.87 486.667 2302.99 470.453 2313.23 455.52C2323.47 440.587 2338.4 428.64 2358.03 419.68C2378.08 410.293 2401.97 405.6 2429.71 405.6C2461.71 405.6 2489.01 411.36 2511.63 422.88C2534.24 433.973 2551.52 449.973 2563.47 470.88L2516.11 510.56C2508 493.493 2496.05 480.907 2480.27 472.8C2464.48 464.267 2448.05 460 2430.99 460C2417.33 460 2405.6 461.707 2395.79 465.12C2385.97 468.533 2378.51 473.227 2373.39 479.2C2368.27 485.173 2365.71 492.213 2365.71 500.32C2365.71 508.853 2368.91 516.32 2375.31 522.72C2381.71 529.12 2393.23 534.027 2409.87 537.44L2482.83 552.8C2513.55 558.773 2535.09 569.013 2547.47 583.52C2560.27 597.6 2566.67 614.88 2566.67 635.36C2566.67 655.84 2561.33 673.973 2550.67 689.76C2540 705.12 2524.64 717.067 2504.59 725.6C2484.53 734.133 2460.64 738.4 2432.91 738.4ZM2743.5 317.92V636C2743.5 651.787 2747.55 663.307 2755.66 670.56C2764.19 677.813 2775.5 681.44 2789.58 681.44C2801.1 681.44 2811.12 679.733 2819.66 676.32C2828.19 672.48 2836.08 667.36 2843.34 660.96L2858.7 710.88C2848.88 719.413 2836.72 726.24 2822.22 731.36C2808.14 736.053 2792.35 738.4 2774.86 738.4C2756.51 738.4 2739.66 735.413 2724.3 729.44C2708.94 723.467 2696.99 713.867 2688.46 700.64C2679.92 686.987 2675.44 669.28 2675.02 647.52V337.12L2743.5 317.92ZM2853.58 412V465.76H2613.58V412H2853.58ZM2921.31 732V412H2979.55L2985.95 469.6C2994.48 448.693 3007.07 432.907 3023.71 422.24C3040.77 411.147 3061.68 405.6 3086.43 405.6C3092.83 405.6 3099.23 406.24 3105.63 407.52C3112.03 408.373 3117.36 409.867 3121.63 412L3112.03 472.16C3107.33 470.453 3102 469.173 3096.03 468.32C3090.48 467.04 3082.8 466.4 3072.99 466.4C3059.76 466.4 3046.75 470.027 3033.95 477.28C3021.15 484.107 3010.48 494.56 3001.95 508.64C2993.84 522.72 2989.79 540.64 2989.79 562.4V732H2921.31ZM3455.27 732L3331.11 309.6H3403.43L3498.15 672.48L3590.31 309.6H3660.71L3753.51 673.12L3847.59 309.6H3917.35L3793.83 732H3713.19L3645.99 478.56L3624.87 381.28H3624.23L3603.11 478.56L3536.55 732H3455.27ZM4147.52 526.56C4147.52 505.227 4141.54 488.8 4129.6 477.28C4118.08 465.333 4102.08 459.36 4081.6 459.36C4062.4 459.36 4045.97 463.84 4032.32 472.8C4018.66 481.76 4008.64 496.267 4002.24 516.32L3944.64 492C3952.74 465.973 3968.53 445.067 3992 429.28C4015.89 413.493 4046.61 405.6 4084.16 405.6C4109.76 405.6 4132.37 409.867 4152 418.4C4171.62 426.507 4186.98 438.88 4198.08 455.52C4209.6 472.16 4215.36 493.493 4215.36 519.52V662.24C4215.36 678.027 4223.25 685.92 4239.04 685.92C4246.72 685.92 4254.18 684.853 4261.44 682.72L4257.6 730.08C4247.78 734.773 4235.41 737.12 4220.48 737.12C4206.82 737.12 4194.45 734.773 4183.36 730.08C4172.69 724.96 4164.16 717.493 4157.76 707.68C4151.78 697.44 4148.8 684.853 4148.8 669.92V665.44L4162.88 664.8C4159.04 681.44 4151.14 695.307 4139.2 706.4C4127.25 717.067 4113.38 725.173 4097.6 730.72C4081.81 735.84 4065.81 738.4 4049.6 738.4C4029.54 738.4 4011.41 735.2 3995.2 728.8C3979.41 722.4 3966.82 712.8 3957.44 700C3948.48 686.773 3944 670.56 3944 651.36C3944 627.467 3951.68 607.84 3967.04 592.48C3982.82 577.12 4005.01 566.667 4033.6 561.12L4157.76 536.8L4157.12 584.8L4066.88 603.36C4048.96 606.773 4035.52 611.68 4026.56 618.08C4017.6 624.48 4013.12 633.867 4013.12 646.24C4013.12 658.187 4017.6 667.787 4026.56 675.04C4035.94 681.867 4048.32 685.28 4063.68 685.28C4074.34 685.28 4084.58 684 4094.4 681.44C4104.64 678.88 4113.81 674.827 4121.92 669.28C4130.02 663.307 4136.21 655.84 4140.48 646.88C4145.17 637.493 4147.52 626.4 4147.52 613.6V526.56ZM4394.12 268V642.4C4394.12 658.187 4396.89 669.067 4402.44 675.04C4407.98 681.013 4417.16 684 4429.96 684C4437.64 684 4444.04 683.573 4449.16 682.72C4454.7 681.44 4461.53 679.307 4469.64 676.32L4461.96 727.52C4454.7 730.933 4446.38 733.493 4437 735.2C4427.61 737.333 4418.22 738.4 4408.84 738.4C4380.25 738.4 4359.13 731.147 4345.48 716.64C4332.25 701.707 4325.64 678.88 4325.64 648.16V268H4394.12ZM4593.49 268V642.4C4593.49 658.187 4596.27 669.067 4601.81 675.04C4607.36 681.013 4616.53 684 4629.33 684C4637.01 684 4643.41 683.573 4648.53 682.72C4654.08 681.44 4660.91 679.307 4669.01 676.32L4661.33 727.52C4654.08 730.933 4645.76 733.493 4636.37 735.2C4626.99 737.333 4617.6 738.4 4608.21 738.4C4579.63 738.4 4558.51 731.147 4544.85 716.64C4531.63 701.707 4525.01 678.88 4525.01 648.16V268H4593.49ZM4867.11 738.4C4835.11 738.4 4806.95 731.787 4782.63 718.56C4758.31 705.333 4739.32 686.347 4725.67 661.6C4712.44 636.427 4705.83 606.56 4705.83 572C4705.83 537.44 4712.44 507.787 4725.67 483.04C4739.32 457.867 4758.09 438.667 4781.99 425.44C4805.88 412.213 4832.97 405.6 4863.27 405.6C4894.41 405.6 4920.87 412 4942.63 424.8C4964.39 437.6 4981.03 455.093 4992.55 477.28C5004.07 499.467 5009.83 524.64 5009.83 552.8C5009.83 560.48 5009.61 567.733 5009.19 574.56C5008.76 581.387 5008.12 587.36 5007.27 592.48H4749.99V540H4977.19L4943.27 550.24C4943.27 521.227 4936.01 499.04 4921.51 483.68C4907 467.893 4887.16 460 4861.99 460C4843.64 460 4827.64 464.267 4813.99 472.8C4800.33 481.333 4789.88 494.133 4782.63 511.2C4775.37 527.84 4771.75 548.32 4771.75 572.64C4771.75 596.533 4775.59 616.8 4783.27 633.44C4790.95 650.08 4801.83 662.667 4815.91 671.2C4829.99 679.733 4846.63 684 4865.83 684C4887.16 684 4904.44 679.947 4917.67 671.84C4930.89 663.733 4941.35 652.427 4949.03 637.92L5003.43 663.52C4995.75 678.88 4985.29 692.32 4972.07 703.84C4959.27 714.933 4943.91 723.467 4925.99 729.44C4908.07 735.413 4888.44 738.4 4867.11 738.4ZM5182.25 317.92V636C5182.25 651.787 5186.3 663.307 5194.41 670.56C5202.94 677.813 5214.25 681.44 5228.33 681.44C5239.85 681.44 5249.87 679.733 5258.41 676.32C5266.94 672.48 5274.83 667.36 5282.09 660.96L5297.45 710.88C5287.63 719.413 5275.47 726.24 5260.97 731.36C5246.89 736.053 5231.1 738.4 5213.61 738.4C5195.26 738.4 5178.41 735.413 5163.05 729.44C5147.69 723.467 5135.74 713.867 5127.21 700.64C5118.67 686.987 5114.19 669.28 5113.77 647.52V337.12L5182.25 317.92ZM5292.33 412V465.76H5052.33V412H5292.33ZM5927.86 620C5919.33 645.6 5906.53 667.36 5889.46 685.28C5872.4 702.773 5852.34 716 5829.3 724.96C5806.26 733.92 5780.88 738.4 5753.14 738.4C5712.61 738.4 5677.41 729.653 5647.54 712.16C5617.68 694.667 5594.64 669.707 5578.42 637.28C5562.21 604.853 5554.1 566.027 5554.1 520.8C5554.1 475.573 5562.21 436.747 5578.42 404.32C5594.64 371.893 5617.68 346.933 5647.54 329.44C5677.41 311.947 5712.4 303.2 5752.5 303.2C5780.24 303.2 5805.2 307.04 5827.38 314.72C5850 322.4 5869.2 333.92 5884.98 349.28C5900.77 364.64 5912.93 383.84 5921.46 406.88L5856.82 435.68C5848.29 410.507 5835.92 392.16 5819.7 380.64C5803.49 368.693 5782.37 362.72 5756.34 362.72C5730.32 362.72 5707.49 368.907 5687.86 381.28C5668.24 393.653 5652.88 411.573 5641.78 435.04C5631.12 458.507 5625.78 487.093 5625.78 520.8C5625.78 554.08 5630.9 582.667 5641.14 606.56C5651.38 630.027 5666.1 647.947 5685.3 660.32C5704.5 672.693 5727.54 678.88 5754.42 678.88C5780.45 678.88 5802.85 672.267 5821.62 659.04C5840.82 645.387 5854.48 625.12 5862.58 598.24L5927.86 620ZM6144.56 405.6C6175.71 405.6 6203.23 412.213 6227.12 425.44C6251.02 438.667 6269.58 457.867 6282.8 483.04C6296.46 507.787 6303.28 537.44 6303.28 572C6303.28 606.56 6296.46 636.427 6282.8 661.6C6269.58 686.347 6251.02 705.333 6227.12 718.56C6203.23 731.787 6175.71 738.4 6144.56 738.4C6113.42 738.4 6085.9 731.787 6062 718.56C6038.11 705.333 6019.34 686.347 6005.68 661.6C5992.03 636.427 5985.2 606.56 5985.2 572C5985.2 537.44 5992.03 507.787 6005.68 483.04C6019.34 457.867 6038.11 438.667 6062 425.44C6085.9 412.213 6113.42 405.6 6144.56 405.6ZM6144.56 459.36C6125.36 459.36 6108.94 463.84 6095.28 472.8C6082.06 481.333 6071.82 493.92 6064.56 510.56C6057.31 527.2 6053.68 547.68 6053.68 572C6053.68 595.893 6057.31 616.373 6064.56 633.44C6071.82 650.08 6082.06 662.88 6095.28 671.84C6108.94 680.373 6125.36 684.64 6144.56 684.64C6163.76 684.64 6179.98 680.373 6193.2 671.84C6206.43 662.88 6216.67 650.08 6223.92 633.44C6231.18 616.373 6234.8 595.893 6234.8 572C6234.8 547.68 6231.18 527.2 6223.92 510.56C6216.67 493.92 6206.43 481.333 6193.2 472.8C6179.98 463.84 6163.76 459.36 6144.56 459.36ZM6389.43 732V412H6450.23L6454.71 495.2L6445.75 486.24C6451.73 467.893 6460.26 452.747 6471.35 440.8C6482.87 428.427 6496.31 419.467 6511.67 413.92C6527.46 408.373 6544.1 405.6 6561.59 405.6C6584.21 405.6 6604.47 410.08 6622.39 419.04C6640.74 427.573 6655.25 440.587 6665.91 458.08C6676.58 475.573 6681.91 497.76 6681.91 524.64V732H6613.43V545.76C6613.43 514.187 6606.82 492.427 6593.59 480.48C6580.79 468.107 6564.58 461.92 6544.95 461.92C6530.87 461.92 6517.22 465.333 6503.99 472.16C6490.77 478.56 6479.67 489.013 6470.71 503.52C6462.18 518.027 6457.91 537.44 6457.91 561.76V732H6389.43ZM6785.68 732V412H6846.48L6850.96 495.2L6842 486.24C6847.98 467.893 6856.51 452.747 6867.6 440.8C6879.12 428.427 6892.56 419.467 6907.92 413.92C6923.71 408.373 6940.35 405.6 6957.84 405.6C6980.46 405.6 7000.72 410.08 7018.64 419.04C7036.99 427.573 7051.5 440.587 7062.16 458.08C7072.83 475.573 7078.16 497.76 7078.16 524.64V732H7009.68V545.76C7009.68 514.187 7003.07 492.427 6989.84 480.48C6977.04 468.107 6960.83 461.92 6941.2 461.92C6927.12 461.92 6913.47 465.333 6900.24 472.16C6887.02 478.56 6875.92 489.013 6866.96 503.52C6858.43 518.027 6854.16 537.44 6854.16 561.76V732H6785.68ZM7322.73 738.4C7290.73 738.4 7262.57 731.787 7238.25 718.56C7213.93 705.333 7194.95 686.347 7181.29 661.6C7168.07 636.427 7161.45 606.56 7161.45 572C7161.45 537.44 7168.07 507.787 7181.29 483.04C7194.95 457.867 7213.72 438.667 7237.61 425.44C7261.51 412.213 7288.6 405.6 7318.89 405.6C7350.04 405.6 7376.49 412 7398.25 424.8C7420.01 437.6 7436.65 455.093 7448.17 477.28C7459.69 499.467 7465.45 524.64 7465.45 552.8C7465.45 560.48 7465.24 567.733 7464.81 574.56C7464.39 581.387 7463.75 587.36 7462.89 592.48H7205.61V540H7432.81L7398.89 550.24C7398.89 521.227 7391.64 499.04 7377.13 483.68C7362.63 467.893 7342.79 460 7317.61 460C7299.27 460 7283.27 464.267 7269.61 472.8C7255.96 481.333 7245.51 494.133 7238.25 511.2C7231 527.84 7227.37 548.32 7227.37 572.64C7227.37 596.533 7231.21 616.8 7238.89 633.44C7246.57 650.08 7257.45 662.667 7271.53 671.2C7285.61 679.733 7302.25 684 7321.45 684C7342.79 684 7360.07 679.947 7373.29 671.84C7386.52 663.733 7396.97 652.427 7404.65 637.92L7459.05 663.52C7451.37 678.88 7440.92 692.32 7427.69 703.84C7414.89 714.933 7399.53 723.467 7381.61 729.44C7363.69 735.413 7344.07 738.4 7322.73 738.4ZM7690.17 405.6C7715.77 405.6 7737.53 409.44 7755.45 417.12C7773.8 424.373 7789.16 434.827 7801.53 448.48C7813.91 462.133 7823.29 477.707 7829.69 495.2L7765.05 520.8C7759.51 501.173 7750.55 486.24 7738.17 476C7726.23 465.333 7710.44 460 7690.81 460C7671.61 460 7655.19 464.48 7641.53 473.44C7627.88 481.973 7617.43 494.56 7610.17 511.2C7603.35 527.84 7599.93 548.32 7599.93 572.64C7599.93 596.533 7603.56 616.8 7610.81 633.44C7618.07 650.08 7628.52 662.667 7642.17 671.2C7655.83 679.733 7672.04 684 7690.81 684C7705.32 684 7717.91 681.653 7728.57 676.96C7739.24 671.84 7747.99 664.8 7754.81 655.84C7762.07 646.453 7766.97 635.147 7769.53 621.92L7831.61 643.04C7825.64 662.24 7816.25 679.093 7803.45 693.6C7791.08 707.68 7775.51 718.773 7756.73 726.88C7737.96 734.56 7716.41 738.4 7692.09 738.4C7660.52 738.4 7632.57 731.787 7608.25 718.56C7583.93 705.333 7564.95 686.347 7551.29 661.6C7538.07 636.427 7531.45 606.56 7531.45 572C7531.45 537.44 7538.07 507.787 7551.29 483.04C7564.95 457.867 7583.72 438.667 7607.61 425.44C7631.93 412.213 7659.45 405.6 7690.17 405.6ZM8004.75 317.92V636C8004.75 651.787 8008.8 663.307 8016.91 670.56C8025.44 677.813 8036.75 681.44 8050.83 681.44C8062.35 681.44 8072.37 679.733 8080.91 676.32C8089.44 672.48 8097.33 667.36 8104.59 660.96L8119.95 710.88C8110.13 719.413 8097.97 726.24 8083.47 731.36C8069.39 736.053 8053.6 738.4 8036.11 738.4C8017.76 738.4 8000.91 735.413 7985.55 729.44C7970.19 723.467 7958.24 713.867 7949.71 700.64C7941.17 686.987 7936.69 669.28 7936.27 647.52V337.12L8004.75 317.92ZM8114.83 412V465.76H7874.83V412H8114.83Z" fill="white"/>
</svg>
