<svg width="1025" height="1024" viewBox="0 0 1025 1024" fill="none" xmlns="http://www.w3.org/2000/svg">
<path d="M808.701 463.87C818.21 473.104 833.404 472.882 842.638 463.373C851.873 453.864 851.65 438.67 842.142 429.435L808.701 463.87ZM519.115 149.187L535.835 131.969C535.655 131.795 535.473 131.623 535.288 131.454L519.115 149.187ZM518.639 148.752L534.812 131.02C534.614 130.84 534.413 130.663 534.21 130.489L518.639 148.752ZM421.377 114.764L422.009 138.755L422.012 138.755L421.377 114.764ZM325.785 154.278L309.174 136.956L309.167 136.963L325.785 154.278ZM74.0106 395.926L90.6217 413.248L90.6293 413.241L74.0106 395.926ZM73.5448 587.933L56.8515 605.177L56.8529 605.178L73.5448 587.933ZM416.597 919.988L399.905 937.233L399.906 937.233L416.597 919.988ZM516.214 960L516.161 984C516.179 984 516.196 984 516.214 984L516.214 960ZM632.633 937.759C642.2 928.585 642.519 913.393 633.345 903.826C624.171 894.259 608.978 893.94 599.411 903.114L632.633 937.759ZM983.924 461.494L961.286 469.466C961.385 469.746 961.489 470.025 961.598 470.302L983.924 461.494ZM866.798 128.909L843.841 135.906C843.941 136.233 844.047 136.558 844.161 136.881L866.798 128.909ZM866.586 128.211L889.543 121.215C889.194 120.069 888.759 118.95 888.243 117.869L866.586 128.211ZM865.654 126.261L843.974 136.555C843.982 136.571 843.989 136.587 843.997 136.603L865.654 126.261ZM831.764 85.4828L817.669 104.908L817.669 104.908L831.764 85.4828ZM784.477 65.6768L780.399 89.3279L780.4 89.3281L784.477 65.6768ZM733.028 68.4616L739.692 91.518L739.694 91.5174L733.028 68.4616ZM686.536 95.4224L669.846 78.176L669.846 78.1765L686.536 95.4224ZM620.878 125.568C611.353 134.786 611.104 149.98 620.322 159.504C629.54 169.029 644.734 169.277 654.259 160.059L620.878 125.568ZM856.881 656.01C847.315 665.185 846.997 680.377 856.171 689.944C865.346 699.51 880.538 699.828 890.105 690.654L856.881 656.01ZM953.734 596.381L970.346 613.702L970.349 613.699L953.734 596.381ZM982.42 555.174L960.384 545.665L960.382 545.669L982.42 555.174ZM734.421 660.118L711.184 654.113C709.016 662.503 711.539 671.41 717.784 677.417L734.421 660.118ZM735.301 577.753L711.942 583.262L711.943 583.266L735.301 577.753ZM686.319 492.165L703.014 474.923L703.013 474.922L686.319 492.165ZM632.318 439.882L649.012 422.639L649.004 422.631L632.318 439.882ZM594.909 424.831L594.983 400.831C594.959 400.831 594.934 400.831 594.909 400.831L594.909 424.831ZM594.772 424.831L594.772 448.831H594.772L594.772 424.831ZM557.49 439.633L540.905 422.285L540.904 422.286L557.49 439.633ZM370.853 618.073L354.268 600.725L354.264 600.729L370.853 618.073ZM370.62 690.064L387.315 672.822L387.315 672.822L370.62 690.064ZM424.615 742.347L407.921 759.589L407.921 759.589L424.615 742.347ZM514.521 790.294L509.414 813.744L509.414 813.744L514.521 790.294ZM601.303 789.109L617.941 771.812C612.004 766.101 603.554 763.834 595.556 765.807L601.303 789.109ZM691.676 876.034L708.317 858.741L708.313 858.737L691.676 876.034ZM801.959 876.4L785.358 859.067L785.356 859.069L801.959 876.4ZM825.531 853.823L808.934 836.487L808.931 836.491L825.531 853.823ZM848.441 800.868L824.441 800.831C824.441 800.837 824.441 800.843 824.441 800.849L848.441 800.868ZM825.385 747.6L842.024 730.304L842.021 730.301L825.385 747.6ZM323.857 460.391C314.318 451.188 299.125 451.46 289.922 460.999C280.718 470.538 280.991 485.732 290.53 494.935L323.857 460.391ZM416.089 371.407C406.55 362.204 391.356 362.476 382.153 372.015C372.95 381.554 373.222 396.747 382.761 405.95L416.089 371.407ZM842.142 429.435L535.835 131.969L502.394 166.404L808.701 463.87L842.142 429.435ZM535.288 131.454L534.812 131.02L502.466 166.485L502.942 166.919L535.288 131.454ZM534.21 130.489C502.79 103.702 462.444 89.6674 420.741 90.7721L422.012 138.755C452.11 137.958 480.851 148.075 503.068 167.016L534.21 130.489ZM420.744 90.7721C378.829 91.8774 339.152 108.209 309.174 136.956L342.396 171.601C363.584 151.284 391.799 139.552 422.009 138.755L420.744 90.7721ZM309.167 136.963L57.3918 378.61L90.6293 413.241L342.404 171.593L309.167 136.963ZM57.3994 378.603C26.1152 408.602 8.60233 448.86 8.50046 491.782L56.5003 491.896C56.5706 462.296 68.5437 434.419 90.6217 413.248L57.3994 378.603ZM8.50046 491.782C8.39858 534.704 25.7144 575.033 56.8515 605.177L90.2381 570.69C68.2661 549.419 56.4301 521.497 56.5003 491.896L8.50046 491.782ZM56.8529 605.178L399.905 937.233L433.289 902.743L90.2367 570.689L56.8529 605.178ZM399.906 937.233C431.03 967.358 472.41 983.904 516.161 984L516.267 936C484.682 935.931 455.304 924.052 433.289 902.743L399.906 937.233ZM516.214 984L516.553 984L516.553 936L516.214 936L516.214 984ZM516.553 984C560.152 984 601.458 967.654 632.633 937.759L599.411 903.114C577.356 924.263 548.026 936 516.553 936L516.553 984ZM1006.56 453.522L889.436 120.937L844.161 136.881L961.286 469.466L1006.56 453.522ZM889.756 121.912L889.543 121.215L843.628 135.208L843.841 135.906L889.756 121.912ZM888.243 117.869L887.311 115.918L843.997 136.603L844.929 138.554L888.243 117.869ZM887.334 115.966C877.826 95.9422 863.814 79.0852 845.858 66.0573L817.669 104.908C829.129 113.223 837.92 123.805 843.974 136.555L887.334 115.966ZM845.858 66.0576C829.032 53.8489 809.236 45.5904 788.553 42.0255L780.4 89.3281C794.013 91.6743 806.923 97.1108 817.669 104.908L845.858 66.0576ZM788.554 42.0257C767.872 38.4599 746.406 39.6109 726.362 45.4059L739.694 91.5174C752.68 87.763 766.796 86.9826 780.399 89.3279L788.554 42.0257ZM726.364 45.4053C704.953 51.5938 685.874 62.6649 669.846 78.176L703.226 112.669C713.636 102.594 725.836 95.5227 739.692 91.518L726.364 45.4053ZM669.846 78.1765L620.878 125.568L654.259 160.059L703.227 112.668L669.846 78.1765ZM890.105 690.654L970.346 613.702L937.122 579.059L856.881 656.01L890.105 690.654ZM970.349 613.699C984.973 599.67 996.487 583.158 1004.46 564.679L960.382 545.669C954.987 558.178 947.192 569.398 937.119 579.062L970.349 613.699ZM1004.46 564.682C1012.43 546.199 1016.5 526.597 1016.5 506.524L968.5 506.524C968.5 520.015 965.785 533.149 960.384 545.665L1004.46 564.682ZM1016.5 506.524C1016.5 488.055 1013.05 469.919 1006.25 452.685L961.598 470.302C966.19 481.941 968.5 494.101 968.5 506.524L1016.5 506.524ZM757.657 666.124C765.586 635.443 765.951 603.139 758.66 572.241L711.943 583.266C717.441 606.563 717.168 630.96 711.184 654.113L757.657 666.124ZM758.661 572.245C749.953 535.316 730.645 501.679 703.014 474.923L669.623 509.406C690.818 529.929 705.391 555.481 711.942 583.262L758.661 572.245ZM703.013 474.922L649.012 422.639L615.624 457.124L669.624 509.407L703.013 474.922ZM649.004 422.631C634.475 408.579 615.215 400.894 594.983 400.831L594.835 448.831C602.894 448.856 610.183 451.862 615.633 457.133L649.004 422.631ZM594.909 400.831L594.772 400.831L594.772 448.831L594.909 448.831L594.909 400.831ZM594.772 400.831C574.662 400.831 555.442 408.387 540.905 422.285L574.074 456.981C579.505 451.789 586.774 448.831 594.772 448.831L594.772 400.831ZM540.904 422.286L354.268 600.725L387.439 635.42L574.075 456.98L540.904 422.286ZM354.264 600.729C339.633 614.724 331.282 633.674 331.214 653.941L379.214 654.102C379.237 647.214 381.994 640.628 387.443 635.416L354.264 600.729ZM331.214 653.941C331.146 674.215 339.38 693.222 353.926 707.306L387.315 672.822C381.903 667.582 379.191 660.985 379.214 654.102L331.214 653.941ZM353.925 707.306L407.921 759.589L441.31 725.105L387.315 672.822L353.925 707.306ZM407.921 759.589C435.909 786.688 471.03 805.384 509.414 813.744L519.629 766.844C489.847 760.357 462.786 745.899 441.31 725.105L407.921 759.589ZM509.414 813.744C541.573 820.748 575.157 820.277 607.051 812.41L595.556 765.807C570.777 771.919 544.619 772.286 519.629 766.844L509.414 813.744ZM584.666 806.406L675.038 893.331L708.313 858.737L617.941 771.812L584.666 806.406ZM675.034 893.327C694.211 911.782 720.014 922.181 747.012 922.181L747.012 874.181C732.333 874.181 718.485 868.525 708.317 858.741L675.034 893.327ZM747.012 922.181C773.89 922.181 799.326 912.158 818.561 893.73L785.356 859.069C775.267 868.734 761.811 874.181 747.012 874.181L747.012 922.181ZM818.559 893.733L842.132 871.156L808.931 836.491L785.358 859.067L818.559 893.733ZM842.128 871.16C861.502 852.612 872.42 827.591 872.441 800.886L824.441 800.849C824.431 814.176 819.077 826.777 808.934 836.487L842.128 871.16ZM872.441 800.904C872.481 774.074 861.262 748.811 842.024 730.304L808.747 764.896C818.964 774.725 824.461 787.63 824.441 800.831L872.441 800.904ZM842.021 730.301L751.057 642.82L717.784 677.417L808.749 764.898L842.021 730.301ZM428.629 561.474L323.857 460.391L290.53 494.935L395.301 596.018L428.629 561.474ZM521.289 472.904L416.089 371.407L382.761 405.95L487.961 507.447L521.289 472.904Z" fill="black"/>
</svg>
