<svg width="1025" height="1024" viewBox="0 0 1025 1024" fill="none" xmlns="http://www.w3.org/2000/svg">
<path d="M749.211 660.067C756.631 630.262 756.972 598.87 750.151 568.866C742.013 533.04 723.943 500.27 697.903 474.095L640.302 416.203C629.647 405.505 615.488 399.586 600.399 399.537H600.253C585.262 399.537 571.135 405.359 560.485 415.927L537.713 438.482C535.603 440.572 532.201 440.565 530.099 438.468L465.309 373.821C451.463 360.007 428.938 360.007 415.097 373.821C408.384 380.523 404.685 389.428 404.685 398.906C404.685 408.383 408.384 417.294 415.097 423.99L479.696 488.452C481.814 490.565 481.81 493.997 479.687 496.106L438.32 537.195C436.21 539.29 432.804 539.286 430.7 537.186L365.872 472.502C352.026 458.688 329.501 458.688 315.66 472.502C308.947 479.203 305.248 488.109 305.248 497.586C305.248 507.064 308.947 515.975 315.66 522.671L380.295 587.169C382.416 589.285 382.409 592.722 380.28 594.83L361.406 613.51C350.697 624.144 344.773 638.282 344.725 653.316C344.676 668.351 350.514 682.527 361.158 693.225L418.753 751.117C445.133 777.633 478.297 795.988 514.652 804.208C545.132 811.099 576.994 810.634 607.22 802.896L703.897 899.427C719.547 915.061 740.414 923.669 762.642 923.669C784.87 923.669 805.613 915.104 821.252 899.551L846.396 874.553C862.138 858.908 870.817 838.079 870.833 815.916C870.865 793.753 862.23 772.902 846.52 757.214L749.211 660.067ZM689.257 700.515L796.292 807.389C798.592 809.684 799.807 812.616 799.802 815.846C799.796 819.048 798.544 822.056 796.275 824.308L771.131 849.301C766.438 853.967 758.813 853.956 754.131 849.279L647.652 742.968C638.655 733.976 626.693 729.029 613.97 729.029C608.699 729.029 603.461 729.893 598.396 731.595C576.476 738.955 552.941 740.143 530.335 735.04C507.167 729.802 486.003 718.077 469.149 701.137L431.382 663.171C426.114 657.876 426.147 649.309 431.456 644.054L459.439 616.356L477.341 598.492L544.586 531.695L558.854 517.454L590.612 486.003C595.902 480.765 604.433 480.797 609.683 486.074L647.506 524.091C664.139 540.811 675.68 561.726 680.875 584.57C685.941 606.83 684.855 630.052 677.748 651.723C672.067 669.053 676.474 687.754 689.257 700.515Z" fill="black"/>
<path d="M617.421 897.062C604.854 884.495 584.382 884.473 571.783 897.008C541.325 927.314 491.89 927.201 461.577 896.754L95.6601 529.07C65.3479 498.607 65.4613 449.161 95.9193 418.844L364.474 151.278C379.184 136.637 398.696 128.58 419.444 128.58C419.503 128.58 419.568 128.58 419.627 128.58C440.44 128.629 459.99 136.783 474.69 151.548L796.297 473.414C802.956 480.078 811.807 483.751 821.23 483.756C830.649 483.756 839.516 480.089 846.175 473.436C859.87 459.751 859.919 437.443 846.283 423.704L519.556 94.3254L519.048 93.8448C490.442 68.5279 453.596 55.1567 415.302 56.2097C376.835 57.2628 340.626 72.7996 313.338 99.9634L44.7779 367.535C16.318 395.865 0.59221 433.587 0.500404 473.738C0.408598 513.89 15.9562 551.676 44.2811 580.142L410.204 947.82C438.545 976.296 476.283 992.032 516.461 992.124H516.823C556.861 992.124 594.534 976.576 622.924 948.316C629.048 942.219 632.423 934.108 632.434 925.467C632.445 916.827 629.086 908.705 622.973 902.592L617.421 897.062Z" fill="black"/>
<path d="M1015.35 440.137L890.418 71.8723L890.192 71.1001L889.198 68.9399C880.897 50.7947 868.736 35.6035 853.048 23.7876C838.343 12.7114 820.899 5.12932 802.608 1.85671C784.323 -1.41591 765.346 -0.346638 747.73 4.94031C728.921 10.5837 712.239 20.6284 698.139 34.7935L645.906 87.2688C639.161 94.0408 635.419 103.038 635.359 112.591C635.3 122.144 638.94 131.179 645.598 138.038C652.425 145.063 661.573 148.962 671.369 149.022C671.445 149.022 671.52 149.022 671.596 149.022C681.306 149.022 690.421 145.236 697.275 138.351L749.507 85.8755C760.21 75.1179 774.915 70.479 789.853 73.1522C804.547 75.7822 816.574 84.952 822.968 98.3719L947.226 464.779L947.356 465.217L947.518 465.643C950.51 473.447 952.027 481.639 952.027 489.999C952.027 508.214 944.915 525.328 932.003 538.181L846.412 623.393C839.549 630.225 835.763 639.324 835.752 649.007C835.741 658.69 839.505 667.795 846.358 674.648C853.422 681.706 862.7 685.238 871.989 685.238C881.277 685.238 890.506 681.728 897.559 674.702L983.149 589.495C996.321 576.378 1006.62 561.024 1013.75 543.867C1020.88 526.705 1024.5 508.581 1024.5 489.999C1024.5 472.896 1021.43 456.122 1015.35 440.137Z" fill="black"/>
</svg>
