<svg width="1210" height="525" viewBox="0 0 1210 525" fill="none" xmlns="http://www.w3.org/2000/svg">
<path d="M89.7248 181.767C96.9791 182.509 103.991 181.661 110.412 179.495L110.564 179.631L110.806 179.874C83.5003 210.92 64.2364 251.099 56.2854 295.564C50.6516 327.034 67.5379 357.293 95.4949 370.605C141.065 392.292 192.042 404.423 245.79 404.423C299.539 404.423 349.47 392.535 394.677 371.272C422.74 358.066 439.748 327.822 434.205 296.306C426.345 251.599 406.672 211.481 379.623 179.965C345.472 140.149 379.729 179.798 379.729 179.798C379.729 179.798 391.466 182.342 397.767 181.903C422.074 180.222 441.671 160.367 443.034 136.03C444.654 106.877 420.665 82.9026 391.512 84.5383C367.508 85.8861 347.774 105.014 345.73 128.973C345.094 136.439 346.154 143.617 348.562 150.145L348.168 150.539L347.941 150.766C318.469 129.033 283.319 116.221 245.2 116.221C207.081 116.221 171.688 129.124 142.14 151.008L141.913 150.781L141.55 150.417L140.838 149.706C143.155 143.224 144.155 136.106 143.473 128.715C141.307 104.877 121.619 85.9013 97.7212 84.5534C68.5072 82.9178 44.5181 106.907 46.1537 136.091C47.4864 159.777 66.1143 179.344 89.7096 181.782L89.7248 181.767Z" fill="white" stroke="white" stroke-width="19.962"/>
<path fill-rule="evenodd" clip-rule="evenodd" d="M104.627 351.417C84.8633 342.012 73.3685 320.885 77.2153 299.335C85.2571 254.325 105.717 214.797 134.099 186.083C138.43 181.691 142.958 177.572 147.638 173.695C175.337 150.872 208.928 137.514 245.139 137.514C281.35 137.514 314.698 150.781 342.337 173.452C347.032 177.299 351.56 181.434 355.907 185.81C384.576 214.691 405.203 254.582 413.184 300.016C416.985 321.597 405.384 342.724 385.56 352.053C343.125 372.014 295.737 383.175 245.745 383.175C195.752 383.175 147.365 371.786 104.597 351.417H104.627Z" fill="#FFDF6F"/>
<path d="M95.2221 121.279L82.2583 134.243L113.093 165.078C118.469 161.988 122.997 157.566 126.208 152.265L95.2221 121.279Z" fill="black"/>
<path fill-rule="evenodd" clip-rule="evenodd" d="M394.935 96.6086C375.095 96.2754 357.83 113.056 357.633 132.895C357.558 140.149 359.602 146.934 363.176 152.659L394.541 121.294L407.505 134.258L376.443 165.305C382.592 168.727 389.831 170.454 397.494 169.803C415.153 168.303 429.419 153.976 430.842 136.318C432.569 114.903 415.88 96.9569 394.935 96.6086ZM363.176 152.659L348.88 166.94C353.575 170.817 358.088 174.967 362.419 179.329L376.443 165.305C371.021 162.276 366.447 157.914 363.176 152.659ZM422.24 298.441C413.986 251.462 392.527 209.709 362.419 179.329L355.937 185.81C351.591 181.434 347.062 177.314 342.368 173.468L348.88 166.94C319.681 142.709 284 128.367 245.154 128.367C206.308 128.367 170.4 142.8 141.141 167.198L147.653 173.71C142.958 177.572 138.445 181.706 134.114 186.098L127.632 179.616C97.812 209.815 76.5187 251.19 68.1891 297.744C63.5851 323.551 77.397 348.615 100.689 359.701C144.654 380.631 193.859 392.353 245.775 392.353C297.691 392.353 345.866 380.873 389.498 360.352C412.866 349.342 426.799 324.293 422.24 298.441ZM381.683 343.754C340.459 363.169 294.389 374.013 245.775 374.013C197.161 374.013 150.137 362.942 108.565 343.148C92.3448 335.424 83.152 318.235 86.2415 300.97C94.0107 257.505 113.638 219.81 140.596 192.565L154.18 180.237C180.29 158.989 211.7 146.692 245.154 146.692C278.609 146.692 309.776 158.883 335.84 179.98L349.455 192.292C376.685 219.689 396.479 257.732 404.188 301.606C407.232 318.917 397.963 336.106 381.683 343.754ZM126.223 152.28C123.013 157.581 118.484 161.988 113.108 165.093L127.632 179.616C131.963 175.224 136.461 171.09 141.141 167.198L126.223 152.28ZM126.223 152.28C129.707 146.54 131.66 139.771 131.524 132.562C131.13 112.495 114.183 96.2148 94.1167 96.6086C73.202 97.0326 56.5883 114.949 58.3148 136.318C59.7535 154.067 74.1561 168.424 91.9056 169.818C99.6596 170.423 106.944 168.606 113.108 165.093L82.2736 134.258L95.2374 121.294L126.223 152.28Z" fill="black"/>
<path fill-rule="evenodd" clip-rule="evenodd" d="M407.505 134.258L376.443 165.305C371.021 162.276 366.448 157.914 363.176 152.659L394.541 121.294L407.505 134.258Z" fill="black"/>
<path fill-rule="evenodd" clip-rule="evenodd" d="M362.419 179.328L355.937 185.81C351.591 181.434 347.062 177.314 342.367 173.468L348.88 166.94C353.574 170.817 358.088 174.967 362.419 179.328Z" fill="black"/>
<path fill-rule="evenodd" clip-rule="evenodd" d="M147.653 173.71C142.958 177.572 138.445 181.706 134.114 186.098L127.632 179.616C131.963 175.224 136.461 171.09 141.141 167.198L147.653 173.71Z" fill="black"/>
<path fill-rule="evenodd" clip-rule="evenodd" d="M126.223 152.28C123.013 157.581 118.484 161.988 113.108 165.093L82.2737 134.258L95.2375 121.294L126.223 152.28Z" fill="black"/>
<path fill-rule="evenodd" clip-rule="evenodd" d="M407.505 134.243L376.443 165.29C371.021 162.261 366.448 157.899 363.176 152.644L394.541 121.279L407.505 134.243Z" fill="black"/>
<path d="M348.88 166.925L342.352 173.452C347.047 177.299 351.575 181.434 355.922 185.81L362.404 179.329C358.072 174.952 353.559 170.817 348.88 166.94V166.925Z" fill="black"/>
<path d="M141.125 167.183C136.446 171.075 131.948 175.224 127.616 179.601L134.098 186.083C138.43 181.691 142.958 177.572 147.638 173.695L141.125 167.183Z" fill="black"/>
<path fill-rule="evenodd" clip-rule="evenodd" d="M140.52 329.063C124.618 322.582 115.183 305.665 120.696 289.4C137.688 239.241 187.271 202.924 245.79 202.924C304.309 202.924 353.893 239.226 370.9 289.4C376.413 305.665 366.978 322.597 351.076 329.063C318.591 342.3 283.046 349.584 245.805 349.584C208.565 349.584 173.02 342.3 140.535 329.063H140.52Z" fill="black"/>
<path d="M287.968 305.59C304.847 305.59 318.53 294.646 318.53 281.146C318.53 267.646 304.847 256.703 287.968 256.703C271.089 256.703 257.406 267.646 257.406 281.146C257.406 294.646 271.089 305.59 287.968 305.59Z" fill="white"/>
<path d="M200.493 305.605C217.371 305.605 231.054 294.661 231.054 281.161C231.054 267.661 217.371 256.718 200.493 256.718C183.614 256.718 169.931 267.661 169.931 281.161C169.931 294.661 183.614 305.605 200.493 305.605Z" fill="white"/>
<path d="M673.875 263.384H631.326L652.121 204.2L673.875 263.384ZM623.968 134.459L542.391 352H600.295L615.331 309.132H690.51L706.186 355.199L763.45 349.441L682.193 134.459H623.968ZM837.65 352V126.142L779.426 129.661V352H837.65ZM898.996 352L927.788 322.888V126.142L869.564 129.661V352H898.996ZM908.913 257.306C915.098 250.908 920.857 245.789 926.188 241.95C931.52 238.111 936.746 236.192 941.864 236.192C948.049 236.192 953.168 237.578 957.22 240.351C961.485 243.123 964.685 247.282 966.817 252.827C969.163 258.159 970.336 264.77 970.336 272.662C970.336 280.553 969.163 287.378 966.817 293.136C964.471 298.895 961.379 303.267 957.54 306.252C953.701 309.238 949.329 310.731 944.423 310.731C938.878 310.731 933.12 309.238 927.148 306.252C921.176 303.053 915.098 298.575 908.913 292.816L892.598 327.047C898.569 333.872 904.541 339.417 910.513 343.682C916.698 347.734 922.883 350.72 929.068 352.64C935.466 354.559 941.864 355.519 948.262 355.519C964.685 355.519 978.974 352.427 991.131 346.242C1003.5 340.057 1013.1 330.779 1019.92 318.409C1026.96 306.039 1030.48 290.683 1030.48 272.342C1030.48 253.787 1026.96 238.538 1019.92 226.594C1013.1 214.651 1003.71 205.8 991.77 200.042C979.827 194.283 966.177 191.404 950.822 191.404C942.93 191.404 935.253 192.79 927.788 195.563C920.323 198.335 913.499 201.961 907.314 206.44C901.342 210.705 896.437 215.184 892.598 219.876L908.913 257.306ZM1088.07 352.64C1087 355.626 1084.23 358.612 1079.75 361.597C1075.27 364.583 1070.15 367.356 1064.39 369.915C1058.85 372.474 1053.52 374.82 1048.4 376.953L1067.91 422.061C1078.15 419.715 1088.07 416.089 1097.66 411.184C1107.26 406.279 1115.69 400.307 1122.94 393.269C1130.19 386.231 1135.41 378.553 1138.61 370.235L1206.75 196.842H1148.85L1119.1 284.498L1087.43 191.084L1033.68 206.44L1089.35 349.121L1088.07 352.64Z" fill="white"/>
</svg>
