<svg width="1210" height="525" viewBox="0 0 1210 525" fill="none" xmlns="http://www.w3.org/2000/svg">
<circle cx="36.675" cy="36.675" r="36.675" transform="matrix(-1 0 0 1 130.808 101.468)" fill="black"/>
<path d="M88.02 132.641L156.48 201.101" stroke="black" stroke-width="18.3375"/>
<circle cx="393.645" cy="138.143" r="36.675" fill="black"/>
<path d="M400.369 132.641L331.909 201.101" stroke="black" stroke-width="18.3375"/>
<path fill-rule="evenodd" clip-rule="evenodd" d="M104.543 356.993C84.776 347.583 73.2721 326.451 77.1256 304.901C93.665 212.406 162.593 143.032 245.111 143.032C327.83 143.032 396.891 212.743 413.216 305.573C417.013 327.163 405.415 348.284 385.581 357.618C343.14 377.591 295.735 388.755 245.722 388.755C195.19 388.755 147.32 377.357 104.543 356.993Z" fill="#FFDF6F"/>
<path d="M413.216 305.573L422.246 303.985L413.216 305.573ZM385.581 357.618L381.677 349.322L381.677 349.322L385.581 357.618ZM86.1512 306.515C102.133 217.14 168.194 152.201 245.111 152.201V133.864C156.991 133.864 85.1973 207.672 68.1 303.287L86.1512 306.515ZM245.111 152.201C322.213 152.201 388.411 217.457 404.186 307.161L422.246 303.985C405.372 208.028 333.446 133.864 245.111 133.864V152.201ZM381.677 349.322C340.432 368.732 294.357 379.586 245.722 379.586V397.924C297.113 397.924 345.848 386.449 389.485 365.914L381.677 349.322ZM245.722 379.586C196.582 379.586 150.056 368.505 108.484 348.714L100.602 365.271C144.584 386.21 193.798 397.924 245.722 397.924V379.586ZM404.186 307.161C407.23 324.47 397.962 341.659 381.677 349.322L389.485 365.914C412.869 354.91 426.796 329.855 422.246 303.985L404.186 307.161ZM68.1 303.287C63.4824 329.11 77.2983 354.178 100.602 365.271L108.484 348.714C92.2538 340.988 83.0618 323.792 86.1512 306.515L68.1 303.287Z" fill="black"/>
<path fill-rule="evenodd" clip-rule="evenodd" d="M139.811 333.998C123.9 327.517 114.462 310.589 119.975 294.317C136.977 244.138 186.575 207.825 245.111 207.825C303.648 207.825 353.245 244.138 370.248 294.317C375.761 310.589 366.323 327.517 350.412 333.998C317.914 347.233 282.364 354.525 245.111 354.525C207.858 354.525 172.308 347.233 139.811 333.998Z" fill="black"/>
<ellipse cx="287.287" cy="286.065" rx="30.5625" ry="24.45" fill="white"/>
<ellipse cx="199.795" cy="286.08" rx="30.5625" ry="24.45" fill="white"/>
<path d="M673.82 263.36H631.26L652.06 204.16L673.82 263.36ZM623.9 134.4L542.3 352H600.22L615.26 309.12H690.46L706.14 355.2L763.42 349.44L682.14 134.4H623.9ZM837.64 352V126.08L779.4 129.6V352H837.64ZM899.003 352L927.803 322.88V126.08L869.563 129.6V352H899.003ZM908.923 257.28C915.109 250.88 920.869 245.76 926.203 241.92C931.536 238.08 936.763 236.16 941.883 236.16C948.069 236.16 953.189 237.547 957.243 240.32C961.509 243.093 964.709 247.253 966.843 252.8C969.189 258.133 970.363 264.747 970.363 272.64C970.363 280.533 969.189 287.36 966.843 293.12C964.496 298.88 961.403 303.253 957.563 306.24C953.723 309.227 949.349 310.72 944.443 310.72C938.896 310.72 933.136 309.227 927.163 306.24C921.189 303.04 915.109 298.56 908.923 292.8L892.603 327.04C898.576 333.867 904.549 339.413 910.523 343.68C916.709 347.733 922.896 350.72 929.083 352.64C935.483 354.56 941.883 355.52 948.283 355.52C964.709 355.52 979.003 352.427 991.163 346.24C1003.54 340.053 1013.14 330.773 1019.96 318.4C1027 306.027 1030.52 290.667 1030.52 272.32C1030.52 253.76 1027 238.507 1019.96 226.56C1013.14 214.613 1003.75 205.76 991.803 200C979.856 194.24 966.203 191.36 950.843 191.36C942.949 191.36 935.269 192.747 927.803 195.52C920.336 198.293 913.509 201.92 907.323 206.4C901.349 210.667 896.443 215.147 892.603 219.84L908.923 257.28ZM1088.12 352.64C1087.06 355.627 1084.28 358.613 1079.8 361.6C1075.32 364.587 1070.2 367.36 1064.44 369.92C1058.9 372.48 1053.56 374.827 1048.44 376.96L1067.96 422.08C1078.2 419.733 1088.12 416.107 1097.72 411.2C1107.33 406.293 1115.75 400.32 1123 393.28C1130.26 386.24 1135.48 378.56 1138.69 370.24L1206.84 196.8H1148.92L1119.16 284.48L1087.48 191.04L1033.72 206.4L1089.4 349.12L1088.12 352.64Z" fill="black"/>
</svg>
