<svg width="241" height="111" viewBox="0 0 241 111" fill="none" xmlns="http://www.w3.org/2000/svg">
<mask id="path-1-outside-1_2003_16929" maskUnits="userSpaceOnUse" x="-0.191406" y="0.0200195" width="242" height="111" fill="black">
<rect fill="white" x="-0.191406" y="0.0200195" width="242" height="111"/>
<path d="M226.316 4.02002H14.9934C8.8162 4.02002 3.80859 9.02763 3.80859 15.2048V85.8788C3.80859 92.056 8.81621 97.0636 14.9934 97.0636H184.677L187.459 103.495C188.663 106.278 191.682 107.807 194.639 107.129C197.336 106.511 199.936 105.558 202.428 104.285C204.99 102.975 207.303 101.347 209.324 99.3851C210.077 98.654 210.774 97.8804 211.406 97.0636H226.316C232.493 97.0636 237.501 92.056 237.501 85.8788V15.2048C237.501 9.02763 232.493 4.02002 226.316 4.02002Z"/>
</mask>
<path d="M226.316 4.02002H14.9934C8.8162 4.02002 3.80859 9.02763 3.80859 15.2048V85.8788C3.80859 92.056 8.81621 97.0636 14.9934 97.0636H184.677L187.459 103.495C188.663 106.278 191.682 107.807 194.639 107.129C197.336 106.511 199.936 105.558 202.428 104.285C204.99 102.975 207.303 101.347 209.324 99.3851C210.077 98.654 210.774 97.8804 211.406 97.0636H226.316C232.493 97.0636 237.501 92.056 237.501 85.8788V15.2048C237.501 9.02763 232.493 4.02002 226.316 4.02002Z" fill="#F8C455"/>
<path d="M187.459 103.495L184.251 104.883L184.251 104.883L187.459 103.495ZM194.639 107.129L195.419 110.536L195.419 110.536L194.639 107.129ZM202.428 104.285L204.018 107.397L204.019 107.397L202.428 104.285ZM209.324 99.3851L211.758 101.893L211.758 101.893L209.324 99.3851ZM211.406 97.0636V93.5683C210.325 93.5683 209.304 94.0688 208.642 94.9238L211.406 97.0636ZM184.677 97.0636L187.885 95.6759C187.331 94.3965 186.071 93.5683 184.677 93.5683V97.0636ZM14.9934 7.51527H226.316V0.524768H14.9934V7.51527ZM234.006 15.2048V85.8788H240.996V15.2048H234.006ZM7.30385 85.8788V15.2048H0.313342V85.8788H7.30385ZM14.9934 93.5683C10.7466 93.5683 7.30385 90.1256 7.30385 85.8788H0.313342C0.313342 93.9864 6.88583 100.559 14.9934 100.559V93.5683ZM234.006 85.8788C234.006 90.1256 230.563 93.5683 226.316 93.5683V100.559C234.424 100.559 240.996 93.9864 240.996 85.8788H234.006ZM226.316 7.51527C230.563 7.51527 234.006 10.958 234.006 15.2048H240.996C240.996 7.09726 234.424 0.524768 226.316 0.524768V7.51527ZM14.9934 0.524768C6.88583 0.524768 0.313342 7.09725 0.313342 15.2048H7.30385C7.30385 10.958 10.7466 7.51527 14.9934 7.51527V0.524768ZM184.251 104.883C186.125 109.213 190.82 111.59 195.419 110.536L193.858 103.722C192.544 104.023 191.202 103.344 190.667 102.107L184.251 104.883ZM195.419 110.536C198.406 109.852 201.276 108.799 204.018 107.397L200.837 101.172C198.595 102.318 196.267 103.17 193.858 103.722L195.419 110.536ZM204.019 107.397C206.87 105.939 209.471 104.113 211.758 101.893L206.889 96.877C205.134 98.5807 203.111 100.01 200.837 101.173L204.019 107.397ZM211.758 101.893C212.623 101.054 213.431 100.158 214.17 99.2034L208.642 94.9238C208.117 95.6027 207.531 96.254 206.889 96.8772L211.758 101.893ZM226.316 93.5683H211.406V100.559H226.316V93.5683ZM184.677 93.5683H14.9934V100.559H184.677V93.5683ZM181.469 98.4513L184.251 104.883L190.667 102.107L187.885 95.6759L181.469 98.4513Z" fill="black" mask="url(#path-1-outside-1_2003_16929)"/>
<path fill-rule="evenodd" clip-rule="evenodd" d="M98.7679 33.5061C96.1451 33.5061 93.7977 35.1329 92.877 37.5884L75.5175 83.8795C74.7933 85.8117 75.0624 87.976 76.2375 89.6719C77.4126 91.3685 79.3448 92.38 81.4084 92.38H93.7299C96.4024 92.38 98.7826 90.6925 99.6669 88.171L101.39 83.2581H108.423L110.307 88.796C111.25 91.567 113.98 93.3223 116.892 93.0294L129.078 91.804C129.114 91.7998 129.151 91.7963 129.188 91.7921C129.996 92.1689 130.898 92.38 131.848 92.38H144.238C145.488 92.38 146.654 92.0151 147.633 91.3859C148.612 92.0151 149.778 92.38 151.029 92.38H157.292C158.326 92.38 159.333 92.1255 160.231 91.6516C160.646 91.8242 161.069 91.9822 161.497 92.1255C161.516 92.1318 161.536 92.1381 161.555 92.1444C163.575 92.7959 165.655 93.1287 167.775 93.1287C172.054 93.1287 176.103 92.322 179.731 90.48C181.354 89.667 182.825 88.6729 184.137 87.5097C183.774 87.9725 183.474 88.487 183.25 89.042C182.619 90.603 182.641 92.3513 183.309 93.8962L187.461 103.495C188.666 106.279 191.684 107.807 194.641 107.129C197.339 106.511 199.938 105.558 202.43 104.285C204.993 102.975 207.305 101.347 209.326 99.3852C211.43 97.3432 213.093 94.9693 214.143 92.2514L214.152 92.2276L228.636 55.3733C229.397 53.4366 229.151 51.2488 227.979 49.5292C226.807 47.8096 224.861 46.7807 222.78 46.7807H210.459C207.763 46.7807 205.367 48.4977 204.501 51.05L204.131 52.1403L203.347 49.8267C202.269 46.6485 198.887 44.8755 195.66 45.7974L184.223 49.065C183.657 49.2269 183.122 49.4656 182.631 49.7706C181.736 49.138 180.781 48.5751 179.765 48.0858C176.651 46.5837 173.266 45.8113 169.71 45.6539V38.0276C169.71 36.2931 168.994 34.6355 167.731 33.4466C166.467 32.2577 164.77 31.6429 163.039 31.7476L150.649 32.4964C149.774 32.5493 148.951 32.779 148.211 33.1497C146.992 32.1563 145.439 31.652 143.858 31.7476L131.468 32.4964C128.147 32.6971 125.556 35.4491 125.556 38.7764V60.0983L117.043 37.5731C116.118 35.1255 113.774 33.5061 111.157 33.5061H98.7679ZM189.188 80.7198C188.978 81.1588 188.753 81.5908 188.513 82.0159C187.631 83.6069 186.581 85.0456 185.37 86.3192C185.768 86.0284 186.202 85.7831 186.663 85.5908C187.673 85.17 188.735 84.703 189.851 84.1885C189.877 84.1759 189.905 84.1634 189.932 84.1515C190.106 84.0739 190.274 83.9963 190.436 83.9194L189.188 80.7198Z" fill="#F8C455"/>
<path d="M98.7697 39.7975H111.159L128.45 85.544L116.265 86.7694L112.929 76.9666H96.9312L93.7316 86.0885H81.4102L98.7697 39.7975ZM109.389 67.2317L104.76 54.6378L100.336 67.2317H109.389Z" fill="black"/>
<path d="M144.238 86.0885H131.848V38.7764L144.238 38.0276V86.0885Z" fill="black"/>
<path d="M157.29 86.0885H151.027V38.7764L163.417 38.0276V52.7998C164.188 52.5276 164.982 52.3234 165.8 52.1872C166.616 52.0056 167.456 51.9149 168.318 51.9149C171.586 51.9149 174.49 52.5276 177.032 53.7529C179.573 54.9783 181.57 56.8617 183.022 59.4031C184.52 61.9446 185.269 65.1895 185.269 69.138C185.269 73.0408 184.52 76.3081 183.022 78.9407C181.57 81.5727 179.528 83.5468 176.896 84.8631C174.309 86.1794 171.268 86.8372 167.774 86.8372C166.321 86.8372 164.892 86.6107 163.485 86.1563C162.123 85.7027 160.762 84.9764 159.401 83.9781L157.29 86.0885ZM166.412 61.4454C165.505 61.4454 164.506 61.7858 163.417 62.4665V76.3536C164.642 76.989 165.822 77.3071 166.957 77.3071C168.499 77.3071 169.793 76.6031 170.837 75.1966C171.926 73.744 172.471 71.7475 172.471 69.2058C172.471 66.6647 171.949 64.7357 170.905 63.4195C169.861 62.1034 168.364 61.4454 166.412 61.4454Z" fill="black"/>
<path d="M197.522 86.2248L197.795 85.4762L185.949 55.1144L197.386 51.8468L204.125 71.7245L210.457 53.0722H222.778L208.278 89.969C207.597 91.739 206.485 93.3726 204.942 94.87C203.4 96.3681 201.607 97.6389 199.565 98.6826C197.522 99.7263 195.412 100.498 193.233 100.997L189.081 91.3985C190.17 90.9448 191.305 90.445 192.485 89.9005C193.71 89.3559 194.799 88.7659 195.752 88.1305C196.706 87.4957 197.296 86.8603 197.522 86.2248Z" fill="black"/>
<path d="M67.7632 84.4073C77.1577 84.4073 81.4331 63.6523 81.4331 55.7827C81.4331 49.6488 77.1913 45.9314 71.6148 45.9314C66.0729 45.9314 61.5738 48.3091 61.518 51.2537C61.5179 59.0244 60.1471 84.4073 67.7632 84.4073Z" fill="white"/>
<path d="M33.5529 84.4073C24.1586 84.4073 19.8828 63.6523 19.8828 55.7827C19.8828 49.6488 24.1247 45.9314 29.7013 45.9314C35.2432 45.9314 39.7423 48.3091 39.7982 51.2537C39.7983 59.0244 41.169 84.4073 33.5529 84.4073Z" fill="white"/>
<path d="M67.7632 84.4073C77.1577 84.4073 81.4331 63.6523 81.4331 55.7827C81.4331 49.6488 77.1913 45.9314 71.6148 45.9314C66.0729 45.9314 61.5738 48.3091 61.518 51.2537C61.5179 59.0244 60.1471 84.4073 67.7632 84.4073Z" stroke="black" stroke-width="2.78434"/>
<path d="M33.5529 84.4073C24.1586 84.4073 19.8828 63.6523 19.8828 55.7827C19.8828 49.6488 24.1247 45.9314 29.7013 45.9314C35.2432 45.9314 39.7423 48.3091 39.7982 51.2537C39.7983 59.0244 41.169 84.4073 33.5529 84.4073Z" stroke="black" stroke-width="2.78434"/>
<path d="M50.1971 59.5578C58.9083 59.5578 67.0685 57.18 74.0594 53.0371C74.258 52.9192 74.4719 52.934 74.6257 53.0204C74.6998 53.0621 74.7438 53.1121 74.7669 53.1538C74.7865 53.189 74.806 53.2429 74.7962 53.3372C73.7141 64.05 67.9044 72.9051 60.0954 76.9813C57.5136 78.3284 55.7395 80.6688 54.1815 82.724C54.1534 82.761 54.1253 82.7981 54.0974 82.8351C52.831 84.5045 51.6872 85.9983 50.2898 87.0993C48.8924 85.9983 47.7486 84.5045 46.4823 82.8351C46.4544 82.7981 46.4263 82.761 46.3982 82.724C44.8401 80.6688 43.066 78.3284 40.4842 76.9813C32.7042 72.9205 26.9089 64.1156 25.7956 53.4558C25.7858 53.3617 25.8049 53.3077 25.8242 53.2724C25.8471 53.2306 25.891 53.1805 25.9648 53.1384C26.1178 53.0515 26.3317 53.0358 26.531 53.1526C33.4781 57.2242 41.5672 59.5578 50.1971 59.5578Z" fill="#FFDF6F" stroke="black" stroke-width="2.78434"/>
<path d="M50.3811 61.3215C63.9133 61.3215 74.8833 57.6648 74.8833 53.1541C74.8833 48.6433 63.9133 44.9866 50.3811 44.9866C36.8489 44.9866 25.8789 48.6433 25.8789 53.1541C25.8789 57.6648 36.8489 61.3215 50.3811 61.3215Z" fill="black" stroke="black" stroke-width="2.78434"/>
<path d="M30.7031 66.8898C30.7031 66.8898 42.7887 70.9737 50.5647 70.9737C58.3408 70.9737 70.4264 66.8898 70.4264 66.8898" stroke="black" stroke-width="2.78434" stroke-linecap="round"/>
<path d="M21.793 18.2287C21.793 21.2886 24.2735 23.7691 27.3334 23.7691C30.3932 23.7691 32.8738 21.2886 32.8738 18.2287C32.8738 15.1688 30.3932 12.6883 27.3334 12.6883C24.2735 12.6883 21.793 15.1688 21.793 18.2287Z" fill="black"/>
<path d="M78.1201 18.2287C78.1201 21.2886 75.6392 23.7691 72.5795 23.7691C69.5196 23.7691 67.0391 21.2886 67.0391 18.2287C67.0391 15.1688 69.5196 12.6883 72.5795 12.6883C75.6392 12.6883 78.1201 15.1688 78.1201 18.2287Z" fill="black"/>
<path d="M73.5958 17.3977L63.2537 27.7397M26.4102 17.3977L36.7523 27.7397L26.4102 17.3977Z" stroke="black" stroke-width="2.7702"/>
<path d="M28.9059 51.2899C25.9198 49.8683 24.182 46.676 24.7641 43.4204C27.2627 29.4475 37.6753 18.9674 50.1412 18.9674C62.6373 18.9674 73.0706 29.4984 75.5361 43.522C76.11 46.7835 74.3582 49.9743 71.3617 51.3844C64.9502 54.4015 57.7888 56.0881 50.2336 56.0881C42.5999 56.0881 35.3682 54.3663 28.9059 51.2899Z" fill="#FFDF6F" stroke="black" stroke-width="2.7702"/>
<path d="M34.2317 47.8159C31.8281 46.837 30.4023 44.2796 31.2352 41.8216C33.8037 34.2411 41.2963 28.7554 50.1392 28.7554C58.9821 28.7554 66.4746 34.2411 69.0432 41.8216C69.8761 44.2796 68.4502 46.837 66.0466 47.8159C61.1373 49.8153 55.7669 50.917 50.1392 50.917C44.5114 50.917 39.141 49.8153 34.2317 47.8159Z" fill="black"/>
<path d="M61.1286 40.5749C61.1285 42.6148 59.0614 44.2685 56.5116 44.2685C53.9616 44.2685 51.8945 42.6148 51.8945 40.5749C51.8945 38.535 53.9616 36.8813 56.5116 36.8813C59.0614 36.8813 61.1286 38.535 61.1286 40.5749Z" fill="white"/>
<path d="M47.9137 40.5772C47.9137 42.6171 45.8466 44.2707 43.2967 44.2707C40.7468 44.2707 38.6797 42.6171 38.6797 40.5772C38.6797 38.5372 40.7468 36.8835 43.2967 36.8835C45.8466 36.8835 47.9137 38.5372 47.9137 40.5772Z" fill="white"/>
<path d="M97.3961 30.5425C98.6398 30.5425 99.7346 30.2705 100.68 29.7263C101.626 29.1822 102.365 28.4113 102.896 27.4137C103.44 26.4161 103.712 25.2307 103.712 23.8574C103.712 22.6007 103.472 21.4865 102.993 20.5148C102.527 19.5302 101.827 18.7528 100.894 18.1828C99.9743 17.6127 98.8342 17.3277 97.4738 17.3277H91.4883V30.5425H97.3961ZM97.2989 20.1067C97.8949 20.1067 98.3937 20.2686 98.7953 20.5925C99.2099 20.9164 99.5208 21.3634 99.7281 21.9335C99.9484 22.4906 100.058 23.1319 100.058 23.8574C100.058 24.7254 99.9289 25.4509 99.6698 26.0339C99.4107 26.617 99.0609 27.051 98.6204 27.336C98.1929 27.621 97.707 27.7635 97.1629 27.7635H95.0252V20.1067H97.2989ZM111.704 30.8146C110.305 30.8146 109.094 30.5102 108.07 29.9012C107.047 29.2923 106.256 28.4696 105.699 27.4332C105.155 26.3967 104.883 25.2501 104.883 23.9934C104.883 22.6331 105.175 21.4347 105.758 20.3982C106.341 19.3488 107.144 18.5326 108.167 17.9496C109.204 17.3536 110.383 17.0556 111.704 17.0556C113.142 17.0556 114.367 17.3601 115.377 17.969C116.401 18.5779 117.185 19.3941 117.729 20.4176C118.273 21.4411 118.545 22.5877 118.545 23.8574C118.545 25.2177 118.253 26.4226 117.67 27.472C117.1 28.5214 116.297 29.3441 115.261 29.9401C114.237 30.5231 113.052 30.8146 111.704 30.8146ZM111.685 27.8607C112.294 27.8607 112.838 27.7117 113.317 27.4137C113.81 27.1158 114.198 26.6688 114.483 26.0728C114.768 25.4769 114.911 24.7384 114.911 23.8574C114.911 23.1189 114.781 22.4646 114.522 21.8946C114.276 21.3116 113.913 20.8517 113.434 20.5148C112.967 20.178 112.404 20.0095 111.743 20.0095C111.16 20.0095 110.622 20.178 110.13 20.5148C109.638 20.8387 109.243 21.2986 108.945 21.8946C108.66 22.4776 108.517 23.1707 108.517 23.974C108.517 24.7125 108.64 25.3797 108.886 25.9756C109.145 26.5587 109.508 27.0186 109.975 27.3554C110.454 27.6923 111.024 27.8607 111.685 27.8607ZM124.214 30.5425V23.5853L125.205 24.9457L129.286 30.5425H132.589V17.3277H129.053L129.111 24.4987L128.1 23.1578L123.961 17.3277H120.677V30.5425H124.214ZM142.334 25.1594H139.749L141.013 21.5642L142.334 25.1594ZM139.303 17.3277L134.347 30.5425H137.864L138.778 27.9384H143.345L144.297 30.7369L147.776 30.3871L142.839 17.3277H139.303ZM159.473 17.3277H148.163V20.1067H152.05V30.5425H155.587V20.1067H159.804L159.473 17.3277ZM171.233 30.5425L170.903 27.7635H165.092V25.2955H169.484L169.154 22.5165H165.092V20.1067H170.65L170.32 17.3277H161.556V30.5425H171.233ZM195.125 17.3277L191.335 30.5425H187.798L185.622 22.2444L183.581 30.5425H180.044L176.08 17.4832L179.558 17.1334L181.871 26.306L183.853 17.3277H187.371L189.625 26.306L191.607 17.3277H195.125ZM200.411 30.5425V17.3277H196.874V30.5425H200.411ZM213.466 17.3277H202.156V20.1067H206.043V30.5425H209.579V20.1067H213.797L213.466 17.3277ZM227.247 30.5425V17.3277H223.71V22.5942H219.085V17.2111L215.548 17.3277V30.5425H219.085V25.3732H223.71V30.5425H227.247Z" fill="black"/>
</svg>
