<svg width="241" height="111" viewBox="0 0 241 111" fill="none" xmlns="http://www.w3.org/2000/svg">
<mask id="path-1-outside-1_2003_16880" maskUnits="userSpaceOnUse" x="-0.191406" y="-0.271078" width="242" height="111" fill="black">
<rect fill="white" x="-0.191406" y="-0.271078" width="242" height="111"/>
<path d="M226.316 3.72892H14.9934C8.8162 3.72892 3.80859 8.73653 3.80859 14.9137V85.5877C3.80859 91.7649 8.81621 96.7725 14.9934 96.7725H184.677L187.459 103.204C188.663 105.987 191.682 107.516 194.639 106.838C197.336 106.22 199.936 105.267 202.428 103.994C204.99 102.684 207.303 101.056 209.324 99.094C210.077 98.3629 210.774 97.5893 211.406 96.7725H226.316C232.493 96.7725 237.501 91.7649 237.501 85.5877V14.9137C237.501 8.73653 232.493 3.72892 226.316 3.72892Z"/>
</mask>
<path d="M226.316 3.72892H14.9934C8.8162 3.72892 3.80859 8.73653 3.80859 14.9137V85.5877C3.80859 91.7649 8.81621 96.7725 14.9934 96.7725H184.677L187.459 103.204C188.663 105.987 191.682 107.516 194.639 106.838C197.336 106.22 199.936 105.267 202.428 103.994C204.99 102.684 207.303 101.056 209.324 99.094C210.077 98.3629 210.774 97.5893 211.406 96.7725H226.316C232.493 96.7725 237.501 91.7649 237.501 85.5877V14.9137C237.501 8.73653 232.493 3.72892 226.316 3.72892Z" fill="#F8C455"/>
<path d="M187.459 103.204L184.251 104.592L184.251 104.592L187.459 103.204ZM194.639 106.838L195.419 110.245L195.419 110.245L194.639 106.838ZM202.428 103.994L204.018 107.106L204.019 107.106L202.428 103.994ZM209.324 99.094L211.758 101.602L211.758 101.602L209.324 99.094ZM211.406 96.7725V93.2772C210.325 93.2772 209.304 93.7777 208.642 94.6327L211.406 96.7725ZM184.677 96.7725L187.885 95.3848C187.331 94.1054 186.071 93.2772 184.677 93.2772V96.7725ZM14.9934 7.22417H226.316V0.23367H14.9934V7.22417ZM234.006 14.9137V85.5877H240.996V14.9137H234.006ZM7.30385 85.5877V14.9137H0.313342V85.5877H7.30385ZM14.9934 93.2772C10.7466 93.2772 7.30385 89.8345 7.30385 85.5877H0.313342C0.313342 93.6953 6.88583 100.268 14.9934 100.268V93.2772ZM234.006 85.5877C234.006 89.8345 230.563 93.2772 226.316 93.2772V100.268C234.424 100.268 240.996 93.6953 240.996 85.5877H234.006ZM226.316 7.22417C230.563 7.22417 234.006 10.6669 234.006 14.9137H240.996C240.996 6.80616 234.424 0.23367 226.316 0.23367V7.22417ZM14.9934 0.23367C6.88583 0.23367 0.313342 6.80615 0.313342 14.9137H7.30385C7.30385 10.6669 10.7466 7.22417 14.9934 7.22417V0.23367ZM184.251 104.592C186.125 108.922 190.82 111.299 195.419 110.245L193.858 103.431C192.544 103.732 191.202 103.053 190.667 101.816L184.251 104.592ZM195.419 110.245C198.406 109.561 201.276 108.507 204.018 107.106L200.837 100.881C198.595 102.027 196.267 102.879 193.858 103.431L195.419 110.245ZM204.019 107.106C206.87 105.648 209.471 103.822 211.758 101.602L206.889 96.5859C205.134 98.2896 203.111 99.7192 200.837 100.881L204.019 107.106ZM211.758 101.602C212.623 100.763 213.431 99.867 214.17 98.9123L208.642 94.6327C208.117 95.3116 207.531 95.9629 206.889 96.5861L211.758 101.602ZM226.316 93.2772H211.406V100.268H226.316V93.2772ZM184.677 93.2772H14.9934V100.268H184.677V93.2772ZM181.469 98.1602L184.251 104.592L190.667 101.816L187.885 95.3848L181.469 98.1602Z" fill="black" mask="url(#path-1-outside-1_2003_16880)"/>
<path fill-rule="evenodd" clip-rule="evenodd" d="M98.7679 33.2149C96.1451 33.2149 93.7977 34.8418 92.877 37.2973L75.5175 83.5884C74.7933 85.5206 75.0624 87.6849 76.2375 89.3808C77.4126 91.0773 79.3448 92.0889 81.4084 92.0889H93.7299C96.4024 92.0889 98.7826 90.4014 99.6669 87.8799L101.39 82.967H108.423L110.307 88.5048C111.25 91.2759 113.98 93.0312 116.892 92.7383L129.078 91.5129C129.114 91.5087 129.151 91.5052 129.188 91.501C129.996 91.8778 130.898 92.0889 131.848 92.0889H144.238C145.488 92.0889 146.654 91.724 147.633 91.0948C148.612 91.724 149.778 92.0889 151.029 92.0889H157.292C158.326 92.0889 159.333 91.8344 160.231 91.3605C160.646 91.5331 161.069 91.6911 161.497 91.8344C161.516 91.8407 161.536 91.847 161.555 91.8533C163.575 92.5048 165.655 92.8376 167.775 92.8376C172.054 92.8376 176.103 92.0308 179.731 90.1889C181.354 89.3759 182.825 88.3818 184.137 87.2186C183.774 87.6814 183.474 88.1959 183.25 88.7509C182.619 90.3119 182.641 92.0602 183.309 93.6051L187.461 103.204C188.666 105.987 191.684 107.516 194.641 106.838C197.339 106.22 199.938 105.267 202.43 103.994C204.993 102.684 207.305 101.056 209.326 99.0941C211.43 97.0521 213.093 94.6782 214.143 91.9602L214.152 91.9365L228.636 55.0822C229.397 53.1455 229.151 50.9577 227.979 49.2381C226.807 47.5185 224.861 46.4895 222.78 46.4895H210.459C207.763 46.4895 205.367 48.2066 204.501 50.7589L204.131 51.8492L203.347 49.5356C202.269 46.3574 198.887 44.5844 195.66 45.5063L184.223 48.7739C183.657 48.9357 183.122 49.1745 182.631 49.4795C181.736 48.8469 180.781 48.284 179.765 47.7947C176.651 46.2926 173.266 45.5202 169.71 45.3627V37.7365C169.71 36.002 168.994 34.3444 167.731 33.1555C166.467 31.9666 164.77 31.3518 163.039 31.4565L150.649 32.2053C149.774 32.2581 148.951 32.4879 148.211 32.8586C146.992 31.8651 145.439 31.3609 143.858 31.4565L131.468 32.2053C128.147 32.406 125.556 35.158 125.556 38.4853V59.8072L117.043 37.282C116.118 34.8344 113.774 33.2149 111.157 33.2149H98.7679ZM189.188 80.4287C188.978 80.8677 188.753 81.2997 188.513 81.7248C187.631 83.3158 186.581 84.7544 185.37 86.0281C185.768 85.7373 186.202 85.4919 186.663 85.2997C187.673 84.8789 188.735 84.4119 189.851 83.8974C189.877 83.8848 189.905 83.8722 189.932 83.8604C190.106 83.7828 190.274 83.7052 190.436 83.6283L189.188 80.4287Z" fill="#F8C455"/>
<path d="M98.7697 39.5064H111.159L128.45 85.2528L116.265 86.4783L112.929 76.6755H96.9312L93.7316 85.7974H81.4102L98.7697 39.5064ZM109.389 66.9405L104.76 54.3467L100.336 66.9405H109.389Z" fill="black"/>
<path d="M144.238 85.7974H131.848V38.4853L144.238 37.7365V85.7974Z" fill="black"/>
<path d="M157.29 85.7974H151.027V38.4853L163.417 37.7365V52.5087C164.188 52.2364 164.982 52.0323 165.8 51.8961C166.616 51.7145 167.456 51.6238 168.318 51.6238C171.586 51.6238 174.49 52.2364 177.032 53.4618C179.573 54.6872 181.57 56.5706 183.022 59.112C184.52 61.6535 185.269 64.8984 185.269 68.8469C185.269 72.7497 184.52 76.017 183.022 78.6496C181.57 81.2816 179.528 83.2557 176.896 84.572C174.309 85.8883 171.268 86.5461 167.774 86.5461C166.321 86.5461 164.892 86.3196 163.485 85.8652C162.123 85.4116 160.762 84.6852 159.401 83.687L157.29 85.7974ZM166.412 61.1543C165.505 61.1543 164.506 61.4947 163.417 62.1754V76.0625C164.642 76.6979 165.822 77.016 166.957 77.016C168.499 77.016 169.793 76.312 170.837 74.9055C171.926 73.4529 172.471 71.4564 172.471 68.9147C172.471 66.3736 171.949 64.4446 170.905 63.1284C169.861 61.8123 168.364 61.1543 166.412 61.1543Z" fill="black"/>
<path d="M197.522 85.9337L197.795 85.1851L185.949 54.8233L197.386 51.5557L204.125 71.4333L210.457 52.7811H222.778L208.278 89.6779C207.597 91.4479 206.485 93.0815 204.942 94.5789C203.4 96.077 201.607 97.3478 199.565 98.3915C197.522 99.4352 195.412 100.207 193.233 100.706L189.081 91.1074C190.17 90.6537 191.305 90.1539 192.485 89.6094C193.71 89.0648 194.799 88.4748 195.752 87.8394C196.706 87.2046 197.296 86.5692 197.522 85.9337Z" fill="black"/>
<path d="M67.7632 84.1162C77.1577 84.1162 81.4331 63.3612 81.4331 55.4915C81.4331 49.3577 77.1913 45.6402 71.6148 45.6402C66.0729 45.6402 61.5738 48.018 61.518 50.9625C61.5179 58.7333 60.1471 84.1162 67.7632 84.1162Z" fill="white"/>
<path d="M33.5529 84.1162C24.1586 84.1162 19.8828 63.3612 19.8828 55.4915C19.8828 49.3577 24.1247 45.6402 29.7013 45.6402C35.2432 45.6402 39.7423 48.018 39.7982 50.9625C39.7983 58.7333 41.169 84.1162 33.5529 84.1162Z" fill="white"/>
<path d="M67.7632 84.1162C77.1577 84.1162 81.4331 63.3612 81.4331 55.4915C81.4331 49.3577 77.1913 45.6402 71.6148 45.6402C66.0729 45.6402 61.5738 48.018 61.518 50.9625C61.5179 58.7333 60.1471 84.1162 67.7632 84.1162Z" stroke="black" stroke-width="2.78434"/>
<path d="M33.5529 84.1162C24.1586 84.1162 19.8828 63.3612 19.8828 55.4915C19.8828 49.3577 24.1247 45.6402 29.7013 45.6402C35.2432 45.6402 39.7423 48.018 39.7982 50.9625C39.7983 58.7333 41.169 84.1162 33.5529 84.1162Z" stroke="black" stroke-width="2.78434"/>
<path d="M50.1971 59.2667C58.9083 59.2667 67.0685 56.8889 74.0594 52.7461C74.258 52.6281 74.4719 52.6429 74.6257 52.7293C74.6998 52.771 74.7438 52.821 74.7669 52.8627C74.7865 52.8979 74.806 52.9519 74.7962 53.0461C73.7141 63.7589 67.9044 72.614 60.0954 76.6902C57.5136 78.0373 55.7395 80.3777 54.1815 82.4329C54.1534 82.47 54.1253 82.507 54.0974 82.544C52.831 84.2134 51.6872 85.7073 50.2898 86.8083C48.8924 85.7073 47.7486 84.2134 46.4823 82.544C46.4544 82.507 46.4263 82.47 46.3982 82.4329C44.8401 80.3777 43.066 78.0373 40.4842 76.6902C32.7042 72.6294 26.9089 63.8245 25.7956 53.1647C25.7858 53.0706 25.8049 53.0166 25.8242 52.9813C25.8471 52.9395 25.891 52.8894 25.9648 52.8474C26.1178 52.7604 26.3317 52.7447 26.531 52.8615C33.4781 56.9331 41.5672 59.2667 50.1971 59.2667Z" fill="#FFDF6F" stroke="black" stroke-width="2.78434"/>
<path d="M50.3811 61.0304C63.9133 61.0304 74.8833 57.3737 74.8833 52.8629C74.8833 48.3522 63.9133 44.6955 50.3811 44.6955C36.8489 44.6955 25.8789 48.3522 25.8789 52.8629C25.8789 57.3737 36.8489 61.0304 50.3811 61.0304Z" fill="black" stroke="black" stroke-width="2.78434"/>
<path d="M30.7031 66.5987C30.7031 66.5987 42.7887 70.6825 50.5647 70.6825C58.3408 70.6825 70.4264 66.5987 70.4264 66.5987" stroke="black" stroke-width="2.78434" stroke-linecap="round"/>
<path d="M21.793 17.9375C21.793 20.9974 24.2735 23.4779 27.3334 23.4779C30.3932 23.4779 32.8738 20.9974 32.8738 17.9375C32.8738 14.8777 30.3932 12.3971 27.3334 12.3971C24.2735 12.3971 21.793 14.8777 21.793 17.9375Z" fill="black"/>
<path d="M78.1201 17.9375C78.1201 20.9974 75.6392 23.4779 72.5795 23.4779C69.5196 23.4779 67.0391 20.9974 67.0391 17.9375C67.0391 14.8777 69.5196 12.3971 72.5795 12.3971C75.6392 12.3971 78.1201 14.8777 78.1201 17.9375Z" fill="black"/>
<path d="M73.5958 17.1065L63.2537 27.4486M26.4102 17.1065L36.7523 27.4486L26.4102 17.1065Z" stroke="black" stroke-width="2.7702"/>
<path d="M28.9059 50.9987C25.9198 49.5772 24.182 46.3848 24.7641 43.1293C27.2627 29.1563 37.6753 18.6762 50.1412 18.6762C62.6373 18.6762 73.0706 29.2072 75.5361 43.2309C76.11 46.4923 74.3582 49.6832 71.3617 51.0932C64.9502 54.1104 57.7888 55.7969 50.2336 55.7969C42.5999 55.7969 35.3682 54.0752 28.9059 50.9987Z" fill="#FFDF6F" stroke="black" stroke-width="2.7702"/>
<path d="M34.2317 47.5248C31.8281 46.5459 30.4023 43.9885 31.2352 41.5305C33.8037 33.95 41.2963 28.4643 50.1392 28.4643C58.9821 28.4643 66.4746 33.95 69.0432 41.5305C69.8761 43.9885 68.4502 46.5459 66.0466 47.5248C61.1373 49.5243 55.7669 50.6259 50.1392 50.6259C44.5114 50.6259 39.141 49.5243 34.2317 47.5248Z" fill="black"/>
<path d="M61.1286 40.2838C61.1285 42.3237 59.0614 43.9773 56.5116 43.9773C53.9616 43.9773 51.8945 42.3237 51.8945 40.2838C51.8945 38.2439 53.9616 36.5902 56.5116 36.5902C59.0614 36.5902 61.1286 38.2439 61.1286 40.2838Z" fill="white"/>
<path d="M47.9137 40.2861C47.9137 42.326 45.8466 43.9796 43.2967 43.9796C40.7468 43.9796 38.6797 42.326 38.6797 40.2861C38.6797 38.2461 40.7468 36.5924 43.2967 36.5924C45.8466 36.5924 47.9137 38.2461 47.9137 40.2861Z" fill="white"/>
<path d="M97.3961 30.2514C98.6398 30.2514 99.7346 29.9794 100.68 29.4352C101.626 28.8911 102.365 28.1202 102.896 27.1226C103.44 26.125 103.712 24.9396 103.712 23.5663C103.712 22.3096 103.472 21.1954 102.993 20.2237C102.527 19.2391 101.827 18.4617 100.894 17.8917C99.9743 17.3216 98.8342 17.0366 97.4738 17.0366H91.4883V30.2514H97.3961ZM97.2989 19.8156C97.8949 19.8156 98.3937 19.9775 98.7953 20.3014C99.2099 20.6253 99.5208 21.0723 99.7281 21.6423C99.9484 22.1994 100.058 22.8407 100.058 23.5663C100.058 24.4343 99.9289 25.1598 99.6698 25.7428C99.4107 26.3258 99.0609 26.7599 98.6204 27.0449C98.1929 27.3299 97.707 27.4724 97.1629 27.4724H95.0252V19.8156H97.2989ZM111.704 30.5235C110.305 30.5235 109.094 30.219 108.07 29.6101C107.047 29.0012 106.256 28.1785 105.699 27.142C105.155 26.1056 104.883 24.959 104.883 23.7023C104.883 22.3419 105.175 21.1435 105.758 20.1071C106.341 19.0577 107.144 18.2415 108.167 17.6585C109.204 17.0625 110.383 16.7645 111.704 16.7645C113.142 16.7645 114.367 17.069 115.377 17.6779C116.401 18.2868 117.185 19.103 117.729 20.1265C118.273 21.15 118.545 22.2966 118.545 23.5663C118.545 24.9266 118.253 26.1315 117.67 27.1809C117.1 28.2303 116.297 29.053 115.261 29.649C114.237 30.232 113.052 30.5235 111.704 30.5235ZM111.685 27.5696C112.294 27.5696 112.838 27.4206 113.317 27.1226C113.81 26.8246 114.198 26.3777 114.483 25.7817C114.768 25.1857 114.911 24.4473 114.911 23.5663C114.911 22.8278 114.781 22.1735 114.522 21.6035C114.276 21.0205 113.913 20.5605 113.434 20.2237C112.967 19.8868 112.404 19.7184 111.743 19.7184C111.16 19.7184 110.622 19.8868 110.13 20.2237C109.638 20.5476 109.243 21.0075 108.945 21.6035C108.66 22.1865 108.517 22.8796 108.517 23.6829C108.517 24.4213 108.64 25.0886 108.886 25.6845C109.145 26.2675 109.508 26.7275 109.975 27.0643C110.454 27.4012 111.024 27.5696 111.685 27.5696ZM124.214 30.2514V23.2942L125.205 24.6545L129.286 30.2514H132.589V17.0366H129.053L129.111 24.2076L128.1 22.8667L123.961 17.0366H120.677V30.2514H124.214ZM142.334 24.8683H139.749L141.013 21.2731L142.334 24.8683ZM139.303 17.0366L134.347 30.2514H137.864L138.778 27.6473H143.345L144.297 30.4458L147.776 30.096L142.839 17.0366H139.303ZM159.473 17.0366H148.163V19.8156H152.05V30.2514H155.587V19.8156H159.804L159.473 17.0366ZM171.233 30.2514L170.903 27.4724H165.092V25.0044H169.484L169.154 22.2253H165.092V19.8156H170.65L170.32 17.0366H161.556V30.2514H171.233ZM195.125 17.0366L191.335 30.2514H187.798L185.622 21.9533L183.581 30.2514H180.044L176.08 17.192L179.558 16.8422L181.871 26.0149L183.853 17.0366H187.371L189.625 26.0149L191.607 17.0366H195.125ZM200.411 30.2514V17.0366H196.874V30.2514H200.411ZM213.466 17.0366H202.156V19.8156H206.043V30.2514H209.579V19.8156H213.797L213.466 17.0366ZM227.247 30.2514V17.0366H223.71V22.3031H219.085V16.92L215.548 17.0366V30.2514H219.085V25.0821H223.71V30.2514H227.247Z" fill="black"/>
</svg>
