<svg width="218" height="40" viewBox="0 0 218 40" fill="none" xmlns="http://www.w3.org/2000/svg">
<rect width="218" height="40" rx="20" fill="#F8C455"/>
<path fill-rule="evenodd" clip-rule="evenodd" d="M20.3897 24.7051C19.5228 24.2924 19.0184 23.3658 19.1874 22.4207C19.9127 18.3646 22.9353 15.3223 26.554 15.3223C30.1814 15.3223 33.21 18.3793 33.9259 22.4502C34.0924 23.397 33.5838 24.3232 32.714 24.7325C30.8528 25.6084 28.774 26.098 26.5808 26.098C24.3648 26.098 22.2656 25.5981 20.3897 24.7051Z" fill="#FFDF6F"/>
<path fill-rule="evenodd" clip-rule="evenodd" d="M21.8172 23.8827C21.1589 23.6283 20.7758 23.0571 20.9042 22.4745C21.455 19.9741 23.7504 18.0987 26.4985 18.0987C29.2533 18.0987 31.5532 19.9832 32.0969 22.4927C32.2233 23.0763 31.8371 23.6473 31.1766 23.8996C29.7632 24.4395 28.1845 24.7413 26.5189 24.7413C24.836 24.7413 23.2418 24.4332 21.8172 23.8827Z" fill="black"/>
<path fill-rule="evenodd" clip-rule="evenodd" d="M18.3245 15.1083C18.3245 15.9965 19.0445 16.7166 19.9328 16.7166C20.2239 16.7166 20.497 16.6392 20.7326 16.5039L21.3979 17.1692C20.0901 18.494 19.1566 20.3086 18.7916 22.3499C18.5891 23.4823 19.195 24.5816 20.2169 25.0681C22.1457 25.9863 24.3038 26.5 26.5809 26.5C28.8345 26.5 30.9716 25.9968 32.8852 25.0963C33.9107 24.6137 34.5214 23.515 34.3219 22.3805C33.9537 20.2867 32.9878 18.4295 31.6329 17.0918L32.2381 16.4867C32.4802 16.6326 32.7639 16.7166 33.0672 16.7166C33.9554 16.7166 34.6755 15.9965 34.6755 15.1083C34.6755 14.2201 33.9554 13.5 33.0672 13.5C32.179 13.5 31.4589 14.2201 31.4589 15.1083C31.4589 15.4015 31.5374 15.6764 31.6744 15.9131L31.0331 16.5544C29.7652 15.5266 28.2267 14.9202 26.554 14.9202C24.8439 14.9202 23.274 15.5541 21.9902 16.6242L21.3082 15.9423C21.456 15.6991 21.5411 15.4136 21.5411 15.1083C21.5411 14.2201 20.821 13.5 19.9328 13.5C19.0445 13.5 18.3245 14.2201 18.3245 15.1083ZM19.5832 22.4915C20.284 18.5721 23.181 15.7244 26.554 15.7244C29.9352 15.7244 32.8381 18.586 33.5299 22.5198C33.6634 23.2789 33.257 24.0326 32.5428 24.3687C30.7341 25.2199 28.7136 25.6959 26.5809 25.6959C24.4259 25.6959 22.3856 25.2099 20.5625 24.342C19.8508 24.0032 19.4477 23.2491 19.5832 22.4915Z" fill="black"/>
<path fill-rule="evenodd" clip-rule="evenodd" d="M28.4035 22.6677C29.1437 22.6677 29.7437 22.1876 29.7437 21.5955C29.7437 21.0033 29.1437 20.5233 28.4035 20.5233C27.6633 20.5233 27.0632 21.0033 27.0632 21.5955C27.0632 22.1876 27.6633 22.6677 28.4035 22.6677ZM24.5668 22.6687C25.307 22.6687 25.907 22.1886 25.907 21.5965C25.907 21.0043 25.307 20.5243 24.5668 20.5243C23.8266 20.5243 23.2265 21.0043 23.2265 21.5965C23.2265 22.1886 23.8266 22.6687 24.5668 22.6687Z" fill="white"/>
<path d="M64.2713 17.6477H62.4986C62.4304 17.2689 62.3035 16.9356 62.1179 16.6477C61.9323 16.3598 61.705 16.1155 61.4361 15.9148C61.1671 15.714 60.866 15.5625 60.5327 15.4602C60.2031 15.358 59.8527 15.3068 59.4815 15.3068C58.8111 15.3068 58.2107 15.4754 57.6804 15.8125C57.1539 16.1496 56.7372 16.6439 56.4304 17.2955C56.1274 17.947 55.9759 18.7424 55.9759 19.6818C55.9759 20.6288 56.1274 21.428 56.4304 22.0795C56.7372 22.7311 57.1558 23.2235 57.6861 23.5568C58.2164 23.8902 58.813 24.0568 59.4759 24.0568C59.8433 24.0568 60.1918 24.0076 60.5213 23.9091C60.8546 23.8068 61.1558 23.6572 61.4247 23.4602C61.6937 23.2633 61.9209 23.0227 62.1065 22.7386C62.2959 22.4508 62.4266 22.1212 62.4986 21.75L64.2713 21.7557C64.1766 22.3277 63.9929 22.8542 63.7202 23.3352C63.4512 23.8125 63.1046 24.2254 62.6804 24.5739C62.2599 24.9186 61.7789 25.1856 61.2372 25.375C60.6955 25.5644 60.1046 25.6591 59.4645 25.6591C58.4569 25.6591 57.5592 25.4205 56.7713 24.9432C55.9834 24.4621 55.3622 23.7746 54.9077 22.8807C54.4569 21.9867 54.2315 20.9205 54.2315 19.6818C54.2315 18.4394 54.4588 17.3731 54.9134 16.483C55.3679 15.589 55.9891 14.9034 56.777 14.4261C57.5649 13.9451 58.4607 13.7045 59.4645 13.7045C60.0819 13.7045 60.6577 13.7936 61.1918 13.9716C61.7296 14.1458 62.2126 14.4034 62.6406 14.7443C63.0687 15.0814 63.4228 15.4943 63.7031 15.983C63.9834 16.4678 64.1728 17.0227 64.2713 17.6477ZM69.9119 25.6761C69.0938 25.6761 68.3797 25.4886 67.7699 25.1136C67.16 24.7386 66.6866 24.214 66.3494 23.5398C66.0123 22.8655 65.8438 22.0777 65.8438 21.1761C65.8438 20.2708 66.0123 19.4792 66.3494 18.8011C66.6866 18.1231 67.16 17.5966 67.7699 17.2216C68.3797 16.8466 69.0938 16.6591 69.9119 16.6591C70.7301 16.6591 71.4441 16.8466 72.054 17.2216C72.6638 17.5966 73.1373 18.1231 73.4744 18.8011C73.8116 19.4792 73.9801 20.2708 73.9801 21.1761C73.9801 22.0777 73.8116 22.8655 73.4744 23.5398C73.1373 24.214 72.6638 24.7386 72.054 25.1136C71.4441 25.4886 70.7301 25.6761 69.9119 25.6761ZM69.9176 24.25C70.4479 24.25 70.8873 24.1098 71.2358 23.8295C71.5843 23.5492 71.8419 23.1761 72.0085 22.7102C72.179 22.2443 72.2642 21.7311 72.2642 21.1705C72.2642 20.6136 72.179 20.1023 72.0085 19.6364C71.8419 19.1667 71.5843 18.7898 71.2358 18.5057C70.8873 18.2216 70.4479 18.0795 69.9176 18.0795C69.3835 18.0795 68.9403 18.2216 68.5881 18.5057C68.2396 18.7898 67.9801 19.1667 67.8097 19.6364C67.643 20.1023 67.5597 20.6136 67.5597 21.1705C67.5597 21.7311 67.643 22.2443 67.8097 22.7102C67.9801 23.1761 68.2396 23.5492 68.5881 23.8295C68.9403 24.1098 69.3835 24.25 69.9176 24.25ZM77.5753 20.3182V25.5H75.8764V16.7727H77.5071V18.1932H77.6151C77.8158 17.7311 78.1302 17.3598 78.5582 17.0795C78.9901 16.7992 79.5336 16.6591 80.1889 16.6591C80.7836 16.6591 81.3045 16.7841 81.7514 17.0341C82.1984 17.2803 82.545 17.6477 82.7912 18.1364C83.0374 18.625 83.1605 19.2292 83.1605 19.9489V25.5H81.4616V20.1534C81.4616 19.5208 81.2969 19.0265 80.9673 18.6705C80.6378 18.3106 80.1851 18.1307 79.6094 18.1307C79.2154 18.1307 78.8651 18.2159 78.5582 18.3864C78.2552 18.5568 78.0147 18.8068 77.8366 19.1364C77.6624 19.4621 77.5753 19.8561 77.5753 20.3182ZM87.1378 20.3182V25.5H85.4389V16.7727H87.0696V18.1932H87.1776C87.3783 17.7311 87.6927 17.3598 88.1207 17.0795C88.5526 16.7992 89.0961 16.6591 89.7514 16.6591C90.3461 16.6591 90.867 16.7841 91.3139 17.0341C91.7609 17.2803 92.1075 17.6477 92.3537 18.1364C92.5999 18.625 92.723 19.2292 92.723 19.9489V25.5H91.0241V20.1534C91.0241 19.5208 90.8594 19.0265 90.5298 18.6705C90.2003 18.3106 89.7476 18.1307 89.1719 18.1307C88.7779 18.1307 88.4276 18.2159 88.1207 18.3864C87.8177 18.5568 87.5772 18.8068 87.3991 19.1364C87.2249 19.4621 87.1378 19.8561 87.1378 20.3182ZM98.7628 25.6761C97.9029 25.6761 97.1624 25.4924 96.5412 25.125C95.9238 24.7538 95.4465 24.233 95.1094 23.5625C94.776 22.8883 94.6094 22.0985 94.6094 21.1932C94.6094 20.2992 94.776 19.5114 95.1094 18.8295C95.4465 18.1477 95.9162 17.6155 96.5185 17.233C97.1245 16.8504 97.8329 16.6591 98.6435 16.6591C99.1359 16.6591 99.6132 16.7405 100.075 16.9034C100.537 17.0663 100.952 17.322 101.32 17.6705C101.687 18.0189 101.977 18.4716 102.189 19.0284C102.401 19.5814 102.507 20.2538 102.507 21.0455V21.6477H95.5696V20.375H100.842C100.842 19.928 100.751 19.5322 100.57 19.1875C100.388 18.839 100.132 18.5644 99.8026 18.3636C99.4768 18.1629 99.0942 18.0625 98.6548 18.0625C98.1776 18.0625 97.7609 18.1799 97.4048 18.4148C97.0526 18.6458 96.7798 18.9489 96.5866 19.3239C96.3973 19.6951 96.3026 20.0985 96.3026 20.5341V21.5284C96.3026 22.1117 96.4048 22.608 96.6094 23.017C96.8177 23.4261 97.1075 23.7386 97.4787 23.9545C97.8499 24.1667 98.2836 24.2727 98.7798 24.2727C99.1018 24.2727 99.3954 24.2273 99.6605 24.1364C99.9257 24.0417 100.155 23.9015 100.348 23.7159C100.541 23.5303 100.689 23.3011 100.791 23.0284L102.399 23.3182C102.27 23.7917 102.039 24.2064 101.706 24.5625C101.376 24.9148 100.962 25.1894 100.462 25.3864C99.9654 25.5795 99.3991 25.6761 98.7628 25.6761ZM108.068 25.6761C107.223 25.6761 106.496 25.4848 105.886 25.1023C105.28 24.7159 104.814 24.1837 104.489 23.5057C104.163 22.8277 104 22.0511 104 21.1761C104 20.2898 104.167 19.5076 104.5 18.8295C104.833 18.1477 105.303 17.6155 105.909 17.233C106.515 16.8504 107.229 16.6591 108.051 16.6591C108.714 16.6591 109.305 16.7822 109.824 17.0284C110.343 17.2708 110.761 17.6117 111.08 18.0511C111.402 18.4905 111.593 19.0038 111.653 19.5909H110C109.909 19.1818 109.701 18.8295 109.375 18.5341C109.053 18.2386 108.621 18.0909 108.08 18.0909C107.606 18.0909 107.191 18.2159 106.835 18.4659C106.483 18.7121 106.208 19.0644 106.011 19.5227C105.814 19.9773 105.716 20.5152 105.716 21.1364C105.716 21.7727 105.813 22.322 106.006 22.7841C106.199 23.2462 106.472 23.6042 106.824 23.858C107.18 24.1117 107.598 24.2386 108.08 24.2386C108.402 24.2386 108.693 24.1799 108.955 24.0625C109.22 23.9413 109.441 23.7689 109.619 23.5455C109.801 23.322 109.928 23.053 110 22.7386H111.653C111.593 23.303 111.409 23.8068 111.102 24.25C110.795 24.6932 110.384 25.0417 109.869 25.2955C109.358 25.5492 108.758 25.6761 108.068 25.6761ZM117.544 16.7727V18.1364H112.777V16.7727H117.544ZM114.055 14.6818H115.754V22.9375C115.754 23.267 115.804 23.5152 115.902 23.6818C116 23.8447 116.127 23.9564 116.283 24.017C116.442 24.0739 116.614 24.1023 116.8 24.1023C116.936 24.1023 117.055 24.0928 117.158 24.0739C117.26 24.0549 117.339 24.0398 117.396 24.0284L117.703 25.4318C117.605 25.4697 117.464 25.5076 117.283 25.5455C117.101 25.5871 116.874 25.6098 116.601 25.6136C116.154 25.6212 115.737 25.5417 115.351 25.375C114.964 25.2083 114.652 24.9508 114.413 24.6023C114.175 24.2538 114.055 23.8163 114.055 23.2898V14.6818ZM125.55 25.5L122.982 16.7727H124.737L126.447 23.1818H126.533L128.249 16.7727H130.004L131.709 23.1534H131.794L133.493 16.7727H135.249L132.686 25.5H130.953L129.18 19.1989H129.05L127.277 25.5H125.55ZM136.861 25.5V16.7727H138.56V25.5H136.861ZM137.719 15.4261C137.423 15.4261 137.17 15.3277 136.957 15.1307C136.749 14.9299 136.645 14.6913 136.645 14.4148C136.645 14.1345 136.749 13.8958 136.957 13.6989C137.17 13.4981 137.423 13.3977 137.719 13.3977C138.014 13.3977 138.266 13.4981 138.474 13.6989C138.687 13.8958 138.793 14.1345 138.793 14.4148C138.793 14.6913 138.687 14.9299 138.474 15.1307C138.266 15.3277 138.014 15.4261 137.719 15.4261ZM144.919 16.7727V18.1364H140.152V16.7727H144.919ZM141.43 14.6818H143.129V22.9375C143.129 23.267 143.179 23.5152 143.277 23.6818C143.375 23.8447 143.502 23.9564 143.658 24.017C143.817 24.0739 143.989 24.1023 144.175 24.1023C144.311 24.1023 144.43 24.0928 144.533 24.0739C144.635 24.0549 144.714 24.0398 144.771 24.0284L145.078 25.4318C144.98 25.4697 144.839 25.5076 144.658 25.5455C144.476 25.5871 144.249 25.6098 143.976 25.6136C143.529 25.6212 143.112 25.5417 142.726 25.375C142.339 25.2083 142.027 24.9508 141.788 24.6023C141.55 24.2538 141.43 23.8163 141.43 23.2898V14.6818ZM148.685 20.3182V25.5H146.986V13.8636H148.662V18.1932H148.77C148.974 17.7235 149.287 17.3504 149.707 17.0739C150.128 16.7973 150.677 16.6591 151.355 16.6591C151.954 16.6591 152.476 16.7822 152.923 17.0284C153.374 17.2746 153.723 17.642 153.969 18.1307C154.219 18.6155 154.344 19.2216 154.344 19.9489V25.5H152.645V20.1534C152.645 19.5133 152.48 19.017 152.151 18.6648C151.821 18.3087 151.363 18.1307 150.776 18.1307C150.374 18.1307 150.014 18.2159 149.696 18.3864C149.382 18.5568 149.134 18.8068 148.952 19.1364C148.774 19.4621 148.685 19.8561 148.685 20.3182ZM161.964 25.5H160.101L164.288 13.8636H166.317L170.504 25.5H168.641L165.351 15.9773H165.26L161.964 25.5ZM162.277 20.9432H168.322V22.4205H162.277V20.9432ZM173.747 13.8636V25.5H172.048V13.8636H173.747ZM176.169 25.5V13.8636H177.868V18.1875H177.97C178.069 18.0057 178.211 17.7955 178.396 17.5568C178.582 17.3182 178.839 17.1098 179.169 16.9318C179.499 16.75 179.934 16.6591 180.476 16.6591C181.18 16.6591 181.809 16.8371 182.362 17.1932C182.915 17.5492 183.349 18.0625 183.663 18.733C183.982 19.4034 184.141 20.2102 184.141 21.1534C184.141 22.0966 183.983 22.9053 183.669 23.5795C183.355 24.25 182.923 24.767 182.374 25.1307C181.824 25.4905 181.197 25.6705 180.493 25.6705C179.963 25.6705 179.529 25.5814 179.192 25.4034C178.858 25.2254 178.597 25.017 178.408 24.7784C178.218 24.5398 178.072 24.3277 177.97 24.142H177.828V25.5H176.169ZM177.834 21.1364C177.834 21.75 177.923 22.2879 178.101 22.75C178.279 23.2121 178.536 23.5739 178.874 23.8352C179.211 24.0928 179.624 24.2216 180.112 24.2216C180.62 24.2216 181.044 24.0871 181.385 23.8182C181.726 23.5455 181.983 23.1761 182.158 22.7102C182.336 22.2443 182.425 21.7197 182.425 21.1364C182.425 20.5606 182.338 20.0436 182.163 19.5852C181.993 19.1269 181.735 18.7652 181.391 18.5C181.05 18.2348 180.624 18.1023 180.112 18.1023C179.62 18.1023 179.203 18.2292 178.862 18.483C178.525 18.7367 178.269 19.0909 178.095 19.5455C177.921 20 177.834 20.5303 177.834 21.1364ZM186.825 28.7727C186.571 28.7727 186.34 28.7519 186.132 28.7102C185.924 28.6723 185.768 28.6307 185.666 28.5852L186.075 27.1932C186.386 27.2765 186.662 27.3125 186.905 27.3011C187.147 27.2898 187.361 27.1989 187.547 27.0284C187.736 26.858 187.903 26.5795 188.047 26.1932L188.257 25.6136L185.064 16.7727H186.882L189.092 23.5455H189.183L191.393 16.7727H193.217L189.621 26.6648C189.454 27.1193 189.242 27.5038 188.984 27.8182C188.727 28.1364 188.42 28.375 188.064 28.5341C187.708 28.6932 187.295 28.7727 186.825 28.7727Z" fill="black"/>
</svg>
