<svg width="181" height="40" viewBox="0 0 181 40" fill="none" xmlns="http://www.w3.org/2000/svg">
<rect width="181" height="40" rx="20" fill="#F8C455"/>
<path fill-rule="evenodd" clip-rule="evenodd" d="M20.3897 24.7051C19.5228 24.2924 19.0184 23.3658 19.1874 22.4207C19.9127 18.3646 22.9353 15.3223 26.554 15.3223C30.1814 15.3223 33.21 18.3793 33.9259 22.4502C34.0924 23.397 33.5838 24.3232 32.714 24.7325C30.8528 25.6084 28.774 26.098 26.5808 26.098C24.3648 26.098 22.2656 25.5981 20.3897 24.7051Z" fill="#FFDF6F"/>
<path fill-rule="evenodd" clip-rule="evenodd" d="M21.8172 23.8827C21.1589 23.6283 20.7758 23.0571 20.9042 22.4745C21.455 19.9741 23.7504 18.0987 26.4985 18.0987C29.2533 18.0987 31.5532 19.9832 32.0969 22.4927C32.2233 23.0763 31.8371 23.6473 31.1766 23.8996C29.7632 24.4395 28.1845 24.7413 26.5189 24.7413C24.836 24.7413 23.2418 24.4332 21.8172 23.8827Z" fill="black"/>
<path fill-rule="evenodd" clip-rule="evenodd" d="M18.3245 15.1083C18.3245 15.9965 19.0445 16.7166 19.9328 16.7166C20.2239 16.7166 20.497 16.6392 20.7326 16.5039L21.3979 17.1692C20.0901 18.494 19.1566 20.3086 18.7916 22.3499C18.5891 23.4823 19.195 24.5816 20.2169 25.0681C22.1457 25.9863 24.3038 26.5 26.5809 26.5C28.8345 26.5 30.9716 25.9968 32.8852 25.0963C33.9107 24.6137 34.5214 23.515 34.3219 22.3805C33.9537 20.2867 32.9878 18.4295 31.6329 17.0918L32.2381 16.4867C32.4802 16.6326 32.7639 16.7166 33.0672 16.7166C33.9554 16.7166 34.6755 15.9965 34.6755 15.1083C34.6755 14.2201 33.9554 13.5 33.0672 13.5C32.179 13.5 31.4589 14.2201 31.4589 15.1083C31.4589 15.4015 31.5374 15.6764 31.6744 15.9131L31.0331 16.5544C29.7652 15.5266 28.2267 14.9202 26.554 14.9202C24.8439 14.9202 23.274 15.5541 21.9902 16.6242L21.3082 15.9423C21.456 15.6991 21.5411 15.4136 21.5411 15.1083C21.5411 14.2201 20.821 13.5 19.9328 13.5C19.0445 13.5 18.3245 14.2201 18.3245 15.1083ZM19.5832 22.4915C20.284 18.5721 23.181 15.7244 26.554 15.7244C29.9352 15.7244 32.8381 18.586 33.5299 22.5198C33.6634 23.2789 33.257 24.0326 32.5428 24.3687C30.7341 25.2199 28.7136 25.6959 26.5809 25.6959C24.4259 25.6959 22.3856 25.2099 20.5625 24.342C19.8508 24.0032 19.4477 23.2491 19.5832 22.4915Z" fill="black"/>
<path fill-rule="evenodd" clip-rule="evenodd" d="M28.4035 22.6677C29.1437 22.6677 29.7437 22.1876 29.7437 21.5955C29.7437 21.0033 29.1437 20.5233 28.4035 20.5233C27.6633 20.5233 27.0632 21.0033 27.0632 21.5955C27.0632 22.1876 27.6633 22.6677 28.4035 22.6677ZM24.5668 22.6687C25.307 22.6687 25.907 22.1886 25.907 21.5965C25.907 21.0043 25.307 20.5243 24.5668 20.5243C23.8266 20.5243 23.2265 21.0043 23.2265 21.5965C23.2265 22.1886 23.8266 22.6687 24.5668 22.6687Z" fill="white"/>
<path d="M64.3651 17.6477H62.5923C62.5241 17.2689 62.3973 16.9356 62.2116 16.6477C62.026 16.3598 61.7988 16.1155 61.5298 15.9148C61.2609 15.714 60.9598 15.5625 60.6264 15.4602C60.2969 15.358 59.9465 15.3068 59.5753 15.3068C58.9048 15.3068 58.3045 15.4754 57.7741 15.8125C57.2476 16.1496 56.831 16.6439 56.5241 17.2955C56.2211 17.947 56.0696 18.7424 56.0696 19.6818C56.0696 20.6288 56.2211 21.428 56.5241 22.0795C56.831 22.7311 57.2495 23.2235 57.7798 23.5568C58.3101 23.8902 58.9067 24.0568 59.5696 24.0568C59.937 24.0568 60.2855 24.0076 60.6151 23.9091C60.9484 23.8068 61.2495 23.6572 61.5185 23.4602C61.7874 23.2633 62.0147 23.0227 62.2003 22.7386C62.3897 22.4508 62.5204 22.1212 62.5923 21.75L64.3651 21.7557C64.2704 22.3277 64.0866 22.8542 63.8139 23.3352C63.545 23.8125 63.1984 24.2254 62.7741 24.5739C62.3537 24.9186 61.8726 25.1856 61.331 25.375C60.7893 25.5644 60.1984 25.6591 59.5582 25.6591C58.5507 25.6591 57.6529 25.4205 56.8651 24.9432C56.0772 24.4621 55.456 23.7746 55.0014 22.8807C54.5507 21.9867 54.3253 20.9205 54.3253 19.6818C54.3253 18.4394 54.5526 17.3731 55.0071 16.483C55.4616 15.589 56.0829 14.9034 56.8707 14.4261C57.6586 13.9451 58.5545 13.7045 59.5582 13.7045C60.1757 13.7045 60.7514 13.7936 61.2855 13.9716C61.8234 14.1458 62.3063 14.4034 62.7344 14.7443C63.1624 15.0814 63.5166 15.4943 63.7969 15.983C64.0772 16.4678 64.2666 17.0227 64.3651 17.6477ZM70.0057 25.6761C69.1875 25.6761 68.4735 25.4886 67.8636 25.1136C67.2538 24.7386 66.7803 24.214 66.4432 23.5398C66.1061 22.8655 65.9375 22.0777 65.9375 21.1761C65.9375 20.2708 66.1061 19.4792 66.4432 18.8011C66.7803 18.1231 67.2538 17.5966 67.8636 17.2216C68.4735 16.8466 69.1875 16.6591 70.0057 16.6591C70.8239 16.6591 71.5379 16.8466 72.1477 17.2216C72.7576 17.5966 73.2311 18.1231 73.5682 18.8011C73.9053 19.4792 74.0739 20.2708 74.0739 21.1761C74.0739 22.0777 73.9053 22.8655 73.5682 23.5398C73.2311 24.214 72.7576 24.7386 72.1477 25.1136C71.5379 25.4886 70.8239 25.6761 70.0057 25.6761ZM70.0114 24.25C70.5417 24.25 70.9811 24.1098 71.3295 23.8295C71.678 23.5492 71.9356 23.1761 72.1023 22.7102C72.2727 22.2443 72.358 21.7311 72.358 21.1705C72.358 20.6136 72.2727 20.1023 72.1023 19.6364C71.9356 19.1667 71.678 18.7898 71.3295 18.5057C70.9811 18.2216 70.5417 18.0795 70.0114 18.0795C69.4773 18.0795 69.0341 18.2216 68.6818 18.5057C68.3333 18.7898 68.0739 19.1667 67.9034 19.6364C67.7367 20.1023 67.6534 20.6136 67.6534 21.1705C67.6534 21.7311 67.7367 22.2443 67.9034 22.7102C68.0739 23.1761 68.3333 23.5492 68.6818 23.8295C69.0341 24.1098 69.4773 24.25 70.0114 24.25ZM77.669 20.3182V25.5H75.9702V16.7727H77.6009V18.1932H77.7088C77.9096 17.7311 78.224 17.3598 78.652 17.0795C79.0838 16.7992 79.6274 16.6591 80.2827 16.6591C80.8774 16.6591 81.3982 16.7841 81.8452 17.0341C82.2921 17.2803 82.6387 17.6477 82.8849 18.1364C83.1312 18.625 83.2543 19.2292 83.2543 19.9489V25.5H81.5554V20.1534C81.5554 19.5208 81.3906 19.0265 81.0611 18.6705C80.7315 18.3106 80.2789 18.1307 79.7031 18.1307C79.3092 18.1307 78.9588 18.2159 78.652 18.3864C78.349 18.5568 78.1084 18.8068 77.9304 19.1364C77.7562 19.4621 77.669 19.8561 77.669 20.3182ZM87.2315 20.3182V25.5H85.5327V16.7727H87.1634V18.1932H87.2713C87.4721 17.7311 87.7865 17.3598 88.2145 17.0795C88.6463 16.7992 89.1899 16.6591 89.8452 16.6591C90.4399 16.6591 90.9607 16.7841 91.4077 17.0341C91.8546 17.2803 92.2012 17.6477 92.4474 18.1364C92.6937 18.625 92.8168 19.2292 92.8168 19.9489V25.5H91.1179V20.1534C91.1179 19.5208 90.9531 19.0265 90.6236 18.6705C90.294 18.3106 89.8414 18.1307 89.2656 18.1307C88.8717 18.1307 88.5213 18.2159 88.2145 18.3864C87.9115 18.5568 87.6709 18.8068 87.4929 19.1364C87.3187 19.4621 87.2315 19.8561 87.2315 20.3182ZM98.8565 25.6761C97.9967 25.6761 97.2562 25.4924 96.6349 25.125C96.0175 24.7538 95.5402 24.233 95.2031 23.5625C94.8698 22.8883 94.7031 22.0985 94.7031 21.1932C94.7031 20.2992 94.8698 19.5114 95.2031 18.8295C95.5402 18.1477 96.0099 17.6155 96.6122 17.233C97.2183 16.8504 97.9266 16.6591 98.7372 16.6591C99.2296 16.6591 99.7069 16.7405 100.169 16.9034C100.631 17.0663 101.046 17.322 101.413 17.6705C101.781 18.0189 102.071 18.4716 102.283 19.0284C102.495 19.5814 102.601 20.2538 102.601 21.0455V21.6477H95.6634V20.375H100.936C100.936 19.928 100.845 19.5322 100.663 19.1875C100.482 18.839 100.226 18.5644 99.8963 18.3636C99.5705 18.1629 99.188 18.0625 98.7486 18.0625C98.2713 18.0625 97.8546 18.1799 97.4986 18.4148C97.1463 18.6458 96.8736 18.9489 96.6804 19.3239C96.491 19.6951 96.3963 20.0985 96.3963 20.5341V21.5284C96.3963 22.1117 96.4986 22.608 96.7031 23.017C96.9115 23.4261 97.2012 23.7386 97.5724 23.9545C97.9437 24.1667 98.3774 24.2727 98.8736 24.2727C99.1955 24.2727 99.4891 24.2273 99.7543 24.1364C100.019 24.0417 100.249 23.9015 100.442 23.7159C100.635 23.5303 100.783 23.3011 100.885 23.0284L102.493 23.3182C102.364 23.7917 102.133 24.2064 101.8 24.5625C101.47 24.9148 101.055 25.1894 100.555 25.3864C100.059 25.5795 99.4929 25.6761 98.8565 25.6761ZM108.162 25.6761C107.317 25.6761 106.59 25.4848 105.98 25.1023C105.374 24.7159 104.908 24.1837 104.582 23.5057C104.257 22.8277 104.094 22.0511 104.094 21.1761C104.094 20.2898 104.26 19.5076 104.594 18.8295C104.927 18.1477 105.397 17.6155 106.003 17.233C106.609 16.8504 107.323 16.6591 108.145 16.6591C108.808 16.6591 109.399 16.7822 109.918 17.0284C110.437 17.2708 110.855 17.6117 111.173 18.0511C111.495 18.4905 111.687 19.0038 111.747 19.5909H110.094C110.003 19.1818 109.795 18.8295 109.469 18.5341C109.147 18.2386 108.715 18.0909 108.173 18.0909C107.7 18.0909 107.285 18.2159 106.929 18.4659C106.577 18.7121 106.302 19.0644 106.105 19.5227C105.908 19.9773 105.81 20.5152 105.81 21.1364C105.81 21.7727 105.906 22.322 106.099 22.7841C106.293 23.2462 106.565 23.6042 106.918 23.858C107.274 24.1117 107.692 24.2386 108.173 24.2386C108.495 24.2386 108.787 24.1799 109.048 24.0625C109.313 23.9413 109.535 23.7689 109.713 23.5455C109.895 23.322 110.022 23.053 110.094 22.7386H111.747C111.687 23.303 111.503 23.8068 111.196 24.25C110.889 24.6932 110.478 25.0417 109.963 25.2955C109.452 25.5492 108.851 25.6761 108.162 25.6761ZM117.638 16.7727V18.1364H112.871V16.7727H117.638ZM114.149 14.6818H115.848V22.9375C115.848 23.267 115.897 23.5152 115.996 23.6818C116.094 23.8447 116.221 23.9564 116.376 24.017C116.536 24.0739 116.708 24.1023 116.893 24.1023C117.03 24.1023 117.149 24.0928 117.251 24.0739C117.354 24.0549 117.433 24.0398 117.49 24.0284L117.797 25.4318C117.698 25.4697 117.558 25.5076 117.376 25.5455C117.195 25.5871 116.967 25.6098 116.695 25.6136C116.248 25.6212 115.831 25.5417 115.445 25.375C115.058 25.2083 114.746 24.9508 114.507 24.6023C114.268 24.2538 114.149 23.8163 114.149 23.2898V14.6818ZM124.871 25.5H123.007L127.195 13.8636H129.223L133.411 25.5H131.547L128.257 15.9773H128.166L124.871 25.5ZM125.183 20.9432H131.229V22.4205H125.183V20.9432ZM136.653 13.8636V25.5H134.955V13.8636H136.653ZM139.075 25.5V13.8636H140.774V18.1875H140.876C140.975 18.0057 141.117 17.7955 141.303 17.5568C141.488 17.3182 141.746 17.1098 142.075 16.9318C142.405 16.75 142.84 16.6591 143.382 16.6591C144.087 16.6591 144.715 16.8371 145.268 17.1932C145.821 17.5492 146.255 18.0625 146.57 18.733C146.888 19.4034 147.047 20.2102 147.047 21.1534C147.047 22.0966 146.89 22.9053 146.575 23.5795C146.261 24.25 145.829 24.767 145.28 25.1307C144.731 25.4905 144.104 25.6705 143.399 25.6705C142.869 25.6705 142.435 25.5814 142.098 25.4034C141.765 25.2254 141.503 25.017 141.314 24.7784C141.125 24.5398 140.979 24.3277 140.876 24.142H140.734V25.5H139.075ZM140.74 21.1364C140.74 21.75 140.829 22.2879 141.007 22.75C141.185 23.2121 141.443 23.5739 141.78 23.8352C142.117 24.0928 142.53 24.2216 143.018 24.2216C143.526 24.2216 143.95 24.0871 144.291 23.8182C144.632 23.5455 144.89 23.1761 145.064 22.7102C145.242 22.2443 145.331 21.7197 145.331 21.1364C145.331 20.5606 145.244 20.0436 145.07 19.5852C144.899 19.1269 144.642 18.7652 144.297 18.5C143.956 18.2348 143.53 18.1023 143.018 18.1023C142.526 18.1023 142.109 18.2292 141.768 18.483C141.431 18.7367 141.176 19.0909 141.001 19.5455C140.827 20 140.74 20.5303 140.74 21.1364ZM149.732 28.7727C149.478 28.7727 149.247 28.7519 149.038 28.7102C148.83 28.6723 148.675 28.6307 148.572 28.5852L148.982 27.1932C149.292 27.2765 149.569 27.3125 149.811 27.3011C150.054 27.2898 150.268 27.1989 150.453 27.0284C150.643 26.858 150.809 26.5795 150.953 26.1932L151.163 25.6136L147.97 16.7727H149.788L151.999 23.5455H152.089L154.3 16.7727H156.124L152.527 26.6648C152.36 27.1193 152.148 27.5038 151.891 27.8182C151.633 28.1364 151.326 28.375 150.97 28.5341C150.614 28.6932 150.201 28.7727 149.732 28.7727Z" fill="black"/>
</svg>
