<svg width="199" height="40" viewBox="0 0 199 40" fill="none" xmlns="http://www.w3.org/2000/svg">
<rect width="199" height="40" rx="20" fill="#F8C455"/>
<path fill-rule="evenodd" clip-rule="evenodd" d="M20.3897 24.7051C19.5228 24.2924 19.0184 23.3658 19.1874 22.4207C19.9127 18.3646 22.9353 15.3223 26.554 15.3223C30.1814 15.3223 33.21 18.3793 33.9259 22.4502C34.0924 23.397 33.5838 24.3232 32.714 24.7325C30.8528 25.6084 28.774 26.098 26.5808 26.098C24.3648 26.098 22.2656 25.5981 20.3897 24.7051Z" fill="#FFDF6F"/>
<path fill-rule="evenodd" clip-rule="evenodd" d="M21.8172 23.8827C21.1589 23.6283 20.7758 23.0571 20.9042 22.4745C21.455 19.9741 23.7504 18.0987 26.4985 18.0987C29.2533 18.0987 31.5532 19.9832 32.0969 22.4927C32.2233 23.0763 31.8371 23.6473 31.1766 23.8996C29.7632 24.4395 28.1845 24.7413 26.5189 24.7413C24.836 24.7413 23.2418 24.4332 21.8172 23.8827Z" fill="black"/>
<path fill-rule="evenodd" clip-rule="evenodd" d="M18.3245 15.1083C18.3245 15.9965 19.0445 16.7166 19.9328 16.7166C20.2239 16.7166 20.497 16.6392 20.7326 16.5039L21.3979 17.1692C20.0901 18.494 19.1566 20.3086 18.7916 22.3499C18.5891 23.4823 19.195 24.5816 20.2169 25.0681C22.1457 25.9863 24.3038 26.5 26.5809 26.5C28.8345 26.5 30.9716 25.9968 32.8852 25.0963C33.9107 24.6137 34.5214 23.515 34.3219 22.3805C33.9537 20.2867 32.9878 18.4295 31.6329 17.0918L32.2381 16.4867C32.4802 16.6326 32.7639 16.7166 33.0672 16.7166C33.9554 16.7166 34.6755 15.9965 34.6755 15.1083C34.6755 14.2201 33.9554 13.5 33.0672 13.5C32.179 13.5 31.4589 14.2201 31.4589 15.1083C31.4589 15.4015 31.5374 15.6764 31.6744 15.9131L31.0331 16.5544C29.7652 15.5266 28.2267 14.9202 26.554 14.9202C24.8439 14.9202 23.274 15.5541 21.9902 16.6242L21.3082 15.9423C21.456 15.6991 21.5411 15.4136 21.5411 15.1083C21.5411 14.2201 20.821 13.5 19.9328 13.5C19.0445 13.5 18.3245 14.2201 18.3245 15.1083ZM19.5832 22.4915C20.284 18.5721 23.181 15.7244 26.554 15.7244C29.9352 15.7244 32.8381 18.586 33.5299 22.5198C33.6634 23.2789 33.257 24.0326 32.5428 24.3687C30.7341 25.2199 28.7136 25.6959 26.5809 25.6959C24.4259 25.6959 22.3856 25.2099 20.5625 24.342C19.8508 24.0032 19.4477 23.2491 19.5832 22.4915Z" fill="black"/>
<path fill-rule="evenodd" clip-rule="evenodd" d="M28.4035 22.6677C29.1437 22.6677 29.7437 22.1876 29.7437 21.5955C29.7437 21.0033 29.1437 20.5233 28.4035 20.5233C27.6633 20.5233 27.0632 21.0033 27.0632 21.5955C27.0632 22.1876 27.6633 22.6677 28.4035 22.6677ZM24.5668 22.6687C25.307 22.6687 25.907 22.1886 25.907 21.5965C25.907 21.0043 25.307 20.5243 24.5668 20.5243C23.8266 20.5243 23.2265 21.0043 23.2265 21.5965C23.2265 22.1886 23.8266 22.6687 24.5668 22.6687Z" fill="white"/>
<path d="M54.419 25.5V13.8636H56.1747V23.9886H61.4474V25.5H54.419ZM66.9901 25.6761C66.1719 25.6761 65.4579 25.4886 64.848 25.1136C64.2382 24.7386 63.7647 24.214 63.4276 23.5398C63.0904 22.8655 62.9219 22.0777 62.9219 21.1761C62.9219 20.2708 63.0904 19.4792 63.4276 18.8011C63.7647 18.1231 64.2382 17.5966 64.848 17.2216C65.4579 16.8466 66.1719 16.6591 66.9901 16.6591C67.8082 16.6591 68.5223 16.8466 69.1321 17.2216C69.742 17.5966 70.2154 18.1231 70.5526 18.8011C70.8897 19.4792 71.0582 20.2708 71.0582 21.1761C71.0582 22.0777 70.8897 22.8655 70.5526 23.5398C70.2154 24.214 69.742 24.7386 69.1321 25.1136C68.5223 25.4886 67.8082 25.6761 66.9901 25.6761ZM66.9957 24.25C67.526 24.25 67.9654 24.1098 68.3139 23.8295C68.6624 23.5492 68.92 23.1761 69.0866 22.7102C69.2571 22.2443 69.3423 21.7311 69.3423 21.1705C69.3423 20.6136 69.2571 20.1023 69.0866 19.6364C68.92 19.1667 68.6624 18.7898 68.3139 18.5057C67.9654 18.2216 67.526 18.0795 66.9957 18.0795C66.4616 18.0795 66.0185 18.2216 65.6662 18.5057C65.3177 18.7898 65.0582 19.1667 64.8878 19.6364C64.7211 20.1023 64.6378 20.6136 64.6378 21.1705C64.6378 21.7311 64.7211 22.2443 64.8878 22.7102C65.0582 23.1761 65.3177 23.5492 65.6662 23.8295C66.0185 24.1098 66.4616 24.25 66.9957 24.25ZM76.6136 28.9545C75.9205 28.9545 75.3239 28.8636 74.8239 28.6818C74.3277 28.5 73.9223 28.2595 73.608 27.9602C73.2936 27.661 73.0587 27.3333 72.9034 26.9773L74.3636 26.375C74.4659 26.5417 74.6023 26.7178 74.7727 26.9034C74.947 27.0928 75.1818 27.2538 75.4773 27.3864C75.7765 27.5189 76.161 27.5852 76.6307 27.5852C77.2746 27.5852 77.8068 27.428 78.2273 27.1136C78.6477 26.803 78.858 26.3068 78.858 25.625V23.9091H78.75C78.6477 24.0947 78.5 24.3011 78.3068 24.5284C78.1174 24.7557 77.8561 24.9527 77.5227 25.1193C77.1894 25.286 76.7557 25.3693 76.2216 25.3693C75.5322 25.3693 74.911 25.2083 74.358 24.8864C73.8087 24.5606 73.3731 24.0814 73.0511 23.4489C72.733 22.8125 72.5739 22.0303 72.5739 21.1023C72.5739 20.1742 72.7311 19.3788 73.0455 18.7159C73.3636 18.053 73.7992 17.5455 74.3523 17.1932C74.9053 16.8371 75.5322 16.6591 76.233 16.6591C76.7746 16.6591 77.2121 16.75 77.5455 16.9318C77.8788 17.1098 78.1383 17.3182 78.3239 17.5568C78.5133 17.7955 78.6591 18.0057 78.7614 18.1875H78.8864V16.7727H80.5511V25.6932C80.5511 26.4432 80.3769 27.0587 80.0284 27.5398C79.6799 28.0208 79.2083 28.3769 78.6136 28.608C78.0227 28.839 77.3561 28.9545 76.6136 28.9545ZM76.5966 23.9602C77.0852 23.9602 77.4981 23.8466 77.8352 23.6193C78.1761 23.3883 78.4337 23.0587 78.608 22.6307C78.786 22.1989 78.875 21.6818 78.875 21.0795C78.875 20.4924 78.7879 19.9754 78.6136 19.5284C78.4394 19.0814 78.1837 18.733 77.8466 18.483C77.5095 18.2292 77.0928 18.1023 76.5966 18.1023C76.0852 18.1023 75.6591 18.2348 75.3182 18.5C74.9773 18.7614 74.7197 19.1174 74.5455 19.5682C74.375 20.0189 74.2898 20.5227 74.2898 21.0795C74.2898 21.6515 74.3769 22.1534 74.5511 22.5852C74.7254 23.017 74.983 23.3542 75.3239 23.5966C75.6686 23.839 76.0928 23.9602 76.5966 23.9602ZM87.0639 25.5V16.7727H88.7628V25.5H87.0639ZM87.9219 15.4261C87.6264 15.4261 87.3726 15.3277 87.1605 15.1307C86.9522 14.9299 86.848 14.6913 86.848 14.4148C86.848 14.1345 86.9522 13.8958 87.1605 13.6989C87.3726 13.4981 87.6264 13.3977 87.9219 13.3977C88.2173 13.3977 88.4692 13.4981 88.6776 13.6989C88.8897 13.8958 88.9957 14.1345 88.9957 14.4148C88.9957 14.6913 88.8897 14.9299 88.6776 15.1307C88.4692 15.3277 88.2173 15.4261 87.9219 15.4261ZM92.7472 20.3182V25.5H91.0483V16.7727H92.679V18.1932H92.7869C92.9877 17.7311 93.3021 17.3598 93.7301 17.0795C94.1619 16.7992 94.7055 16.6591 95.3608 16.6591C95.9555 16.6591 96.4763 16.7841 96.9233 17.0341C97.3703 17.2803 97.7169 17.6477 97.9631 18.1364C98.2093 18.625 98.3324 19.2292 98.3324 19.9489V25.5H96.6335V20.1534C96.6335 19.5208 96.4688 19.0265 96.1392 18.6705C95.8097 18.3106 95.357 18.1307 94.7812 18.1307C94.3873 18.1307 94.0369 18.2159 93.7301 18.3864C93.4271 18.5568 93.1866 18.8068 93.0085 19.1364C92.8343 19.4621 92.7472 19.8561 92.7472 20.3182ZM106.737 25.5L104.169 16.7727H105.925L107.635 23.1818H107.72L109.436 16.7727H111.192L112.896 23.1534H112.982L114.68 16.7727H116.436L113.874 25.5H112.141L110.368 19.1989H110.237L108.464 25.5H106.737ZM118.048 25.5V16.7727H119.747V25.5H118.048ZM118.906 15.4261C118.611 15.4261 118.357 15.3277 118.145 15.1307C117.937 14.9299 117.832 14.6913 117.832 14.4148C117.832 14.1345 117.937 13.8958 118.145 13.6989C118.357 13.4981 118.611 13.3977 118.906 13.3977C119.202 13.3977 119.454 13.4981 119.662 13.6989C119.874 13.8958 119.98 14.1345 119.98 14.4148C119.98 14.6913 119.874 14.9299 119.662 15.1307C119.454 15.3277 119.202 15.4261 118.906 15.4261ZM126.107 16.7727V18.1364H121.339V16.7727H126.107ZM122.618 14.6818H124.317V22.9375C124.317 23.267 124.366 23.5152 124.464 23.6818C124.563 23.8447 124.69 23.9564 124.845 24.017C125.004 24.0739 125.177 24.1023 125.362 24.1023C125.499 24.1023 125.618 24.0928 125.72 24.0739C125.822 24.0549 125.902 24.0398 125.959 24.0284L126.266 25.4318C126.167 25.4697 126.027 25.5076 125.845 25.5455C125.663 25.5871 125.436 25.6098 125.163 25.6136C124.716 25.6212 124.3 25.5417 123.913 25.375C123.527 25.2083 123.214 24.9508 122.976 24.6023C122.737 24.2538 122.618 23.8163 122.618 23.2898V14.6818ZM129.872 20.3182V25.5H128.173V13.8636H129.849V18.1932H129.957C130.162 17.7235 130.474 17.3504 130.895 17.0739C131.315 16.7973 131.865 16.6591 132.543 16.6591C133.141 16.6591 133.664 16.7822 134.111 17.0284C134.562 17.2746 134.91 17.642 135.156 18.1307C135.406 18.6155 135.531 19.2216 135.531 19.9489V25.5H133.832V20.1534C133.832 19.5133 133.668 19.017 133.338 18.6648C133.009 18.3087 132.55 18.1307 131.963 18.1307C131.562 18.1307 131.202 18.2159 130.884 18.3864C130.569 18.5568 130.321 18.8068 130.139 19.1364C129.961 19.4621 129.872 19.8561 129.872 20.3182ZM143.152 25.5H141.288L145.476 13.8636H147.504L151.692 25.5H149.828L146.538 15.9773H146.447L143.152 25.5ZM143.464 20.9432H149.51V22.4205H143.464V20.9432ZM154.935 13.8636V25.5H153.236V13.8636H154.935ZM157.357 25.5V13.8636H159.055V18.1875H159.158C159.256 18.0057 159.398 17.7955 159.584 17.5568C159.769 17.3182 160.027 17.1098 160.357 16.9318C160.686 16.75 161.122 16.6591 161.663 16.6591C162.368 16.6591 162.997 16.8371 163.55 17.1932C164.103 17.5492 164.536 18.0625 164.851 18.733C165.169 19.4034 165.328 20.2102 165.328 21.1534C165.328 22.0966 165.171 22.9053 164.857 23.5795C164.542 24.25 164.11 24.767 163.561 25.1307C163.012 25.4905 162.385 25.6705 161.68 25.6705C161.15 25.6705 160.716 25.5814 160.379 25.4034C160.046 25.2254 159.785 25.017 159.595 24.7784C159.406 24.5398 159.26 24.3277 159.158 24.142H159.016V25.5H157.357ZM159.021 21.1364C159.021 21.75 159.11 22.2879 159.288 22.75C159.466 23.2121 159.724 23.5739 160.061 23.8352C160.398 24.0928 160.811 24.2216 161.3 24.2216C161.807 24.2216 162.232 24.0871 162.572 23.8182C162.913 23.5455 163.171 23.1761 163.345 22.7102C163.523 22.2443 163.612 21.7197 163.612 21.1364C163.612 20.5606 163.525 20.0436 163.351 19.5852C163.18 19.1269 162.923 18.7652 162.578 18.5C162.237 18.2348 161.811 18.1023 161.3 18.1023C160.807 18.1023 160.391 18.2292 160.05 18.483C159.713 18.7367 159.457 19.0909 159.283 19.5455C159.108 20 159.021 20.5303 159.021 21.1364ZM168.013 28.7727C167.759 28.7727 167.528 28.7519 167.32 28.7102C167.111 28.6723 166.956 28.6307 166.854 28.5852L167.263 27.1932C167.573 27.2765 167.85 27.3125 168.092 27.3011C168.335 27.2898 168.549 27.1989 168.734 27.0284C168.924 26.858 169.09 26.5795 169.234 26.1932L169.445 25.6136L166.251 16.7727H168.07L170.28 23.5455H170.371L172.581 16.7727H174.405L170.808 26.6648C170.642 27.1193 170.429 27.5038 170.172 27.8182C169.914 28.1364 169.607 28.375 169.251 28.5341C168.895 28.6932 168.482 28.7727 168.013 28.7727Z" fill="black"/>
</svg>
