<svg width="122" height="56" viewBox="0 0 122 56" fill="none" xmlns="http://www.w3.org/2000/svg">
<mask id="path-1-outside-1_2006_16166" maskUnits="userSpaceOnUse" x="0.730469" y="0.696861" width="121" height="56" fill="black">
<rect fill="white" x="0.730469" y="0.696861" width="121" height="56"/>
<path d="M113.683 2.69686H8.3077C5.22748 2.69686 2.73047 5.19387 2.73047 8.27409V43.5152C2.73047 46.5954 5.22748 49.0924 8.3077 49.0924H92.9192L94.3065 52.2994C94.9071 53.6874 96.4123 54.4494 97.8868 54.1116C99.2319 53.8035 100.528 53.3284 101.771 52.6932C103.048 52.04 104.202 51.2282 105.209 50.2501C105.585 49.8855 105.932 49.4997 106.248 49.0924H113.683C116.763 49.0924 119.26 46.5954 119.26 43.5152V8.27409C119.26 5.19387 116.763 2.69686 113.683 2.69686Z"/>
</mask>
<path d="M113.683 2.69686H8.3077C5.22748 2.69686 2.73047 5.19387 2.73047 8.27409V43.5152C2.73047 46.5954 5.22748 49.0924 8.3077 49.0924H92.9192L94.3065 52.2994C94.9071 53.6874 96.4123 54.4494 97.8868 54.1116C99.2319 53.8035 100.528 53.3284 101.771 52.6932C103.048 52.04 104.202 51.2282 105.209 50.2501C105.585 49.8855 105.932 49.4997 106.248 49.0924H113.683C116.763 49.0924 119.26 46.5954 119.26 43.5152V8.27409C119.26 5.19387 116.763 2.69686 113.683 2.69686Z" fill="#F8C455"/>
<path d="M94.3065 52.2994L92.7069 52.9913L92.707 52.9915L94.3065 52.2994ZM97.8868 54.1116L98.2759 55.8105L98.2759 55.8105L97.8868 54.1116ZM101.771 52.6932L102.564 54.2452L102.564 54.2451L101.771 52.6932ZM105.209 50.2501L106.423 51.5007L106.423 51.5006L105.209 50.2501ZM106.248 49.0924V47.3496C105.708 47.3496 105.2 47.5991 104.87 48.0255L106.248 49.0924ZM92.9192 49.0924L94.5189 48.4005C94.2429 47.7625 93.6143 47.3496 92.9192 47.3496V49.0924ZM8.3077 4.43975H113.683V0.953976H8.3077V4.43975ZM117.517 8.27409V43.5152H121.003V8.27409H117.517ZM4.47335 43.5152V8.27409H0.987584V43.5152H4.47335ZM8.3077 47.3496C6.19005 47.3496 4.47335 45.6329 4.47335 43.5152H0.987584C0.987584 47.558 4.26492 50.8353 8.3077 50.8353V47.3496ZM117.517 43.5152C117.517 45.6329 115.8 47.3496 113.683 47.3496V50.8353C117.725 50.8353 121.003 47.558 121.003 43.5152H117.517ZM113.683 4.43975C115.8 4.43975 117.517 6.15644 117.517 8.27409H121.003C121.003 4.2313 117.725 0.953976 113.683 0.953976V4.43975ZM8.3077 0.953976C4.26491 0.953976 0.987584 4.2313 0.987584 8.27409H4.47335C4.47335 6.15644 6.19005 4.43975 8.3077 4.43975V0.953976ZM92.707 52.9915C93.6412 55.1506 95.9826 56.3358 98.2759 55.8105L97.4976 52.4127C96.842 52.5629 96.173 52.2242 95.9061 51.6072L92.707 52.9915ZM98.2759 55.8105C99.765 55.4694 101.196 54.944 102.564 54.2452L100.977 51.1413C99.8594 51.7127 98.6989 52.1375 97.4976 52.4127L98.2759 55.8105ZM102.564 54.2451C103.986 53.5182 105.283 52.6074 106.423 51.5007L103.995 48.9994C103.12 49.8489 102.111 50.5618 100.977 51.1414L102.564 54.2451ZM106.423 51.5006C106.854 51.0823 107.257 50.6355 107.626 50.1594L104.87 48.0255C104.607 48.364 104.315 48.6888 103.995 48.9995L106.423 51.5006ZM113.683 47.3496H106.248V50.8353H113.683V47.3496ZM92.9192 47.3496H8.3077V50.8353H92.9192V47.3496ZM91.3196 49.7844L92.7069 52.9913L95.9061 51.6074L94.5189 48.4005L91.3196 49.7844Z" fill="black" mask="url(#path-1-outside-1_2006_16166)"/>
<path fill-rule="evenodd" clip-rule="evenodd" d="M50.0863 17.3999C48.7784 17.3999 47.6079 18.2111 47.1488 19.4355L38.4926 42.5183C38.1315 43.4818 38.2657 44.561 38.8516 45.4066C39.4376 46.2526 40.4011 46.757 41.4301 46.757H47.5741C48.9067 46.757 50.0936 45.9155 50.5345 44.6582L51.3938 42.2084H54.9005L55.8402 44.9698C56.3105 46.3516 57.6716 47.2269 59.1238 47.0808L65.2002 46.4698C65.2183 46.4677 65.2368 46.4659 65.2549 46.4638C65.6579 46.6517 66.1076 46.757 66.5813 46.757H72.7594C73.3831 46.757 73.9641 46.575 74.4525 46.2613C74.9408 46.575 75.5223 46.757 76.1459 46.757H79.2688C79.7843 46.757 80.2866 46.6301 80.7342 46.3938C80.9416 46.4799 81.1521 46.5587 81.3655 46.6301C81.3752 46.6332 81.385 46.6364 81.3944 46.6395C82.4018 46.9644 83.4392 47.1303 84.4964 47.1303C86.6297 47.1303 88.649 46.7281 90.4581 45.8096C91.2671 45.4042 92.0006 44.9085 92.6552 44.3285C92.4739 44.5592 92.3244 44.8158 92.2125 45.0925C91.8981 45.8709 91.9089 46.7427 92.2421 47.5131L94.3127 52.2994C94.9133 53.6874 96.4184 54.4494 97.8929 54.1116C99.2381 53.8035 100.534 53.3284 101.777 52.6933C103.055 52.04 104.208 51.2282 105.215 50.2501C106.264 49.2319 107.094 48.0481 107.617 46.6929L107.622 46.681L114.844 28.3039C115.223 27.3381 115.101 26.2472 114.517 25.3897C113.932 24.5322 112.962 24.0192 111.924 24.0192H105.78C104.436 24.0192 103.241 24.8754 102.809 26.1481L102.625 26.6917L102.234 25.5381C101.697 23.9533 100.01 23.0692 98.4008 23.5289L92.6981 25.1583C92.4157 25.239 92.1487 25.358 91.904 25.5101C91.4578 25.1946 90.9813 24.914 90.4752 24.67C88.9219 23.921 87.2341 23.5358 85.4609 23.4573V19.6545C85.4609 18.7896 85.104 17.9631 84.4741 17.3702C83.8442 16.7774 82.9979 16.4709 82.1344 16.523L75.9566 16.8964C75.5202 16.9228 75.1096 17.0374 74.7408 17.2222C74.1328 16.7268 73.3583 16.4754 72.5702 16.523L66.392 16.8964C64.7359 16.9965 63.4441 18.3688 63.4441 20.0279V30.66L59.1988 19.4279C58.7376 18.2074 57.5688 17.3999 56.2641 17.3999H50.0863ZM95.1736 40.9427C95.0691 41.1616 94.9568 41.3771 94.8369 41.589C94.3974 42.3824 93.8738 43.0997 93.2701 43.7348C93.4684 43.5898 93.6845 43.4675 93.9146 43.3716C94.4183 43.1618 94.9478 42.9289 95.5041 42.6724C95.5173 42.6661 95.5309 42.6598 95.5445 42.6539C95.6313 42.6152 95.7153 42.5765 95.7959 42.5382L95.1736 40.9427Z" fill="#F8C455"/>
<path d="M50.082 20.5371H56.2598L64.8819 43.3483L58.8058 43.9593L57.1424 39.0712H49.1652L47.5698 43.6198H41.4258L50.082 20.5371ZM55.3772 34.2169L53.0689 27.9371L50.8628 34.2169H55.3772Z" fill="black"/>
<path d="M72.7563 43.6198H66.5781V20.0279L72.7563 19.6545V43.6198Z" fill="black"/>
<path d="M79.2635 43.6198H76.1406V20.0279L82.3185 19.6545V27.0206C82.7033 26.8848 83.0993 26.783 83.5068 26.7151C83.9139 26.6246 84.3325 26.5793 84.7627 26.5793C86.3919 26.5793 87.8403 26.8848 89.1077 27.4959C90.3748 28.1069 91.3706 29.046 92.0946 30.3133C92.8416 31.5806 93.215 33.1987 93.215 35.1675C93.215 37.1136 92.8416 38.7429 92.0946 40.0556C91.3706 41.368 90.3521 42.3524 89.0397 43.0088C87.7496 43.6651 86.2337 43.9931 84.4911 43.9931C83.7668 43.9931 83.054 43.8802 82.3526 43.6536C81.6736 43.4274 80.9946 43.0652 80.3159 42.5675L79.2635 43.6198ZM83.8121 31.3317C83.3597 31.3317 82.8615 31.5014 82.3185 31.8408V38.7655C82.9295 39.0824 83.5179 39.241 84.0837 39.241C84.853 39.241 85.4982 38.89 86.0186 38.1886C86.5617 37.4643 86.8332 36.4688 86.8332 35.2013C86.8332 33.9343 86.5728 32.9724 86.0524 32.3161C85.532 31.6598 84.7853 31.3317 83.8121 31.3317Z" fill="black"/>
<path d="M99.3254 43.6878L99.4613 43.3145L93.5547 28.1747L99.2578 26.5454L102.618 36.4573L105.775 27.1564H111.919L104.689 45.5548C104.349 46.4374 103.795 47.252 103.026 47.9986C102.256 48.7456 101.362 49.3794 100.344 49.8998C99.3254 50.4202 98.2734 50.805 97.1869 51.0539L95.1163 46.2676C95.6594 46.0414 96.2251 45.7921 96.8135 45.5206C97.4246 45.2491 97.9677 44.9549 98.4428 44.638C98.9182 44.3215 99.2124 44.0046 99.3254 43.6878Z" fill="black"/>
<path d="M34.6152 42.7815C39.2997 42.7815 41.4316 32.4321 41.4316 28.508C41.4316 25.4494 39.3164 23.5957 36.5358 23.5957C33.7723 23.5957 31.5289 24.7813 31.5011 26.2496C31.501 30.1245 30.8175 42.7815 34.6152 42.7815Z" fill="white"/>
<path d="M17.5626 42.7815C12.8782 42.7815 10.7461 32.4321 10.7461 28.508C10.7461 25.4494 12.8613 23.5957 15.642 23.5957C18.4054 23.5957 20.6489 24.7813 20.6768 26.2496C20.6768 30.1245 21.3603 42.7815 17.5626 42.7815Z" fill="white"/>
<path d="M34.6152 42.7815C39.2997 42.7815 41.4316 32.4321 41.4316 28.508C41.4316 25.4494 39.3164 23.5957 36.5358 23.5957C33.7723 23.5957 31.5289 24.7813 31.5011 26.2496C31.501 30.1245 30.8175 42.7815 34.6152 42.7815Z" stroke="black" stroke-width="1.38839"/>
<path d="M17.5626 42.7815C12.8782 42.7815 10.7461 32.4321 10.7461 28.508C10.7461 25.4494 12.8613 23.5957 15.642 23.5957C18.4054 23.5957 20.6489 24.7813 20.6768 26.2496C20.6768 30.1245 21.3603 42.7815 17.5626 42.7815Z" stroke="black" stroke-width="1.38839"/>
<path d="M25.8643 30.3904C30.2081 30.3904 34.2771 29.2048 37.7631 27.1389C37.8621 27.0801 37.9687 27.0875 38.0454 27.1306C38.0824 27.1514 38.1043 27.1763 38.1158 27.1971C38.1256 27.2147 38.1354 27.2416 38.1305 27.2886C37.5909 32.6304 34.6939 37.046 30.8 39.0785C29.5126 39.7503 28.628 40.9173 27.8511 41.9421C27.837 41.9606 27.8231 41.9791 27.8091 41.9975C27.1777 42.8299 26.6073 43.5748 25.9105 44.1239C25.2137 43.5748 24.6433 42.8299 24.0119 41.9975C23.998 41.9791 23.984 41.9606 23.97 41.9421C23.1931 40.9173 22.3084 39.7503 21.021 39.0785C17.1416 37.0537 14.2517 32.6632 13.6966 27.3477C13.6918 27.3008 13.7013 27.2738 13.7109 27.2562C13.7223 27.2354 13.7442 27.2104 13.781 27.1895C13.8573 27.1461 13.964 27.1383 14.0633 27.1965C17.5275 29.2268 21.561 30.3904 25.8643 30.3904Z" fill="#FFDF6F" stroke="black" stroke-width="1.38839"/>
<path d="M25.9561 31.2699C32.7039 31.2699 38.174 29.4465 38.174 27.1972C38.174 24.948 32.7039 23.1246 25.9561 23.1246C19.2084 23.1246 13.7383 24.948 13.7383 27.1972C13.7383 29.4465 19.2084 31.2699 25.9561 31.2699Z" fill="black" stroke="black" stroke-width="1.38839"/>
<path d="M16.1445 34.0465C16.1445 34.0465 22.1709 36.0829 26.0484 36.0829C29.9259 36.0829 35.9523 34.0465 35.9523 34.0465" stroke="black" stroke-width="1.38839" stroke-linecap="round"/>
<path d="M11.6953 9.78191C11.6953 11.3077 12.9322 12.5446 14.458 12.5446C15.9838 12.5446 17.2207 11.3077 17.2207 9.78191C17.2207 8.25612 15.9838 7.01923 14.458 7.01923C12.9322 7.01923 11.6953 8.25612 11.6953 9.78191Z" fill="black"/>
<path d="M39.7872 9.78191C39.7872 11.3077 38.5501 12.5446 37.0244 12.5446C35.4986 12.5446 34.2617 11.3077 34.2617 9.78191C34.2617 8.25612 35.4986 7.01923 37.0244 7.01923C38.5501 7.01923 39.7872 8.25612 39.7872 9.78191Z" fill="black"/>
<path d="M37.5328 9.36752L32.3757 14.5245M14.0039 9.36752L19.1609 14.5245L14.0039 9.36752Z" stroke="black" stroke-width="1.38134"/>
<path d="M15.246 26.2677C13.757 25.5588 12.8905 23.967 13.1807 22.3436C14.4266 15.3761 19.6188 10.1503 25.8349 10.1503C32.066 10.1503 37.2684 15.4015 38.4979 22.3943C38.7841 24.0206 37.9105 25.6117 36.4163 26.3148C33.2193 27.8193 29.6483 28.6602 25.8809 28.6602C22.0744 28.6602 18.4684 27.8017 15.246 26.2677Z" fill="#FFDF6F" stroke="black" stroke-width="1.38134"/>
<path d="M17.9025 24.5354C16.7039 24.0473 15.993 22.7721 16.4083 21.5464C17.6891 17.7664 21.4252 15.031 25.8346 15.031C30.2441 15.031 33.9802 17.7664 35.261 21.5464C35.6763 22.7721 34.9653 24.0473 33.7668 24.5354C31.3188 25.5324 28.6409 26.0818 25.8346 26.0818C23.0284 26.0818 20.3505 25.5324 17.9025 24.5354Z" fill="black"/>
<path d="M31.3193 20.9247C31.3193 21.9419 30.2886 22.7665 29.0171 22.7665C27.7456 22.7665 26.7148 21.9419 26.7148 20.9247C26.7148 19.9075 27.7456 19.0829 29.0171 19.0829C30.2886 19.0829 31.3193 19.9075 31.3193 20.9247Z" fill="white"/>
<path d="M24.7216 20.9259C24.7216 21.943 23.6909 22.7676 22.4194 22.7676C21.1479 22.7676 20.1172 21.943 20.1172 20.9259C20.1172 19.9086 21.1479 19.084 22.4194 19.084C23.6909 19.084 24.7216 19.9086 24.7216 20.9259Z" fill="white"/>
<path d="M49.393 16.4506C50.0132 16.4506 50.5591 16.315 51.0307 16.0436C51.5023 15.7723 51.8705 15.3879 52.1354 14.8905C52.4067 14.393 52.5424 13.8019 52.5424 13.1171C52.5424 12.4905 52.4229 11.9349 52.1839 11.4504C51.9513 10.9594 51.6024 10.5718 51.1373 10.2875C50.6786 10.0033 50.1101 9.86113 49.4318 9.86113H46.4471V16.4506H49.393ZM49.3446 11.2469C49.6417 11.2469 49.8904 11.3276 50.0907 11.4891C50.2974 11.6506 50.4525 11.8735 50.5559 12.1578C50.6657 12.4356 50.7206 12.7553 50.7206 13.1171C50.7206 13.55 50.656 13.9117 50.5268 14.2024C50.3976 14.4932 50.2232 14.7096 50.0035 14.8517C49.7903 14.9938 49.5481 15.0649 49.2767 15.0649H48.2108V11.2469H49.3446ZM56.5277 16.5863C55.83 16.5863 55.2259 16.4345 54.7156 16.1308C54.2052 15.8272 53.8111 15.417 53.5333 14.9002C53.262 14.3833 53.1263 13.8116 53.1263 13.185C53.1263 12.5066 53.2717 11.909 53.5624 11.3922C53.8531 10.8689 54.2536 10.4619 54.764 10.1712C55.2808 9.87405 55.8687 9.72547 56.5277 9.72547C57.2448 9.72547 57.8553 9.87728 58.3592 10.1809C58.8695 10.4845 59.2604 10.8915 59.5317 11.4019C59.803 11.9123 59.9387 12.484 59.9387 13.1171C59.9387 13.7954 59.7933 14.3963 59.5026 14.9195C59.2184 15.4428 58.8178 15.8531 58.301 16.1502C57.7907 16.4409 57.1995 16.5863 56.5277 16.5863ZM56.518 15.1133C56.8216 15.1133 57.0929 15.0391 57.332 14.8905C57.5775 14.7419 57.7713 14.519 57.9134 14.2218C58.0555 13.9247 58.1266 13.5564 58.1266 13.1171C58.1266 12.7489 58.062 12.4226 57.9328 12.1384C57.81 11.8477 57.6291 11.6183 57.3901 11.4504C57.1575 11.2824 56.8765 11.1984 56.547 11.1984C56.2563 11.1984 55.9882 11.2824 55.7427 11.4504C55.4972 11.6119 55.3002 11.8412 55.1516 12.1384C55.0095 12.4291 54.9384 12.7747 54.9384 13.1753C54.9384 13.5435 54.9998 13.8762 55.1226 14.1734C55.2518 14.4641 55.4326 14.6934 55.6652 14.8614C55.9042 15.0294 56.1885 15.1133 56.518 15.1133ZM62.7654 16.4506V12.9815L63.2596 13.6598L65.2946 16.4506H66.9419V9.86113H65.1783L65.2073 13.4369L64.7034 12.7683L62.6394 9.86113H61.0017V16.4506H62.7654ZM71.8011 13.7664H70.5123L71.1421 11.9736L71.8011 13.7664ZM70.2894 9.86113L67.8183 16.4506H69.5723L70.0277 15.1521H72.305L72.7798 16.5475L74.5144 16.3731L72.053 9.86113H70.2894ZM80.3474 9.86113H74.7076V11.2469H76.6457V16.4506H78.4094V11.2469H80.5122L80.3474 9.86113ZM86.2115 16.4506L86.0468 15.0649H83.1493V13.8342H85.3394L85.1746 12.4485H83.1493V11.2469H85.9208L85.7561 9.86113H81.3857V16.4506H86.2115ZM98.1248 9.86113L96.2351 16.4506H94.4715L93.3862 12.3128L92.3687 16.4506H90.605L88.6282 9.93865L90.3627 9.76423L91.5159 14.3381L92.5043 9.86113H94.2583L95.3824 14.3381L96.3708 9.86113H98.1248ZM100.761 16.4506V9.86113H98.9969V16.4506H100.761ZM107.271 9.86113H101.631V11.2469H103.569V16.4506H105.333V11.2469H107.435L107.271 9.86113ZM114.142 16.4506V9.86113H112.379V12.4872H110.072V9.80299L108.309 9.86113V16.4506H110.072V13.873H112.379V16.4506H114.142Z" fill="black"/>
</svg>
