<svg width="122" height="56" viewBox="0 0 122 56" fill="none" xmlns="http://www.w3.org/2000/svg">
<mask id="path-1-outside-1_2006_16214" maskUnits="userSpaceOnUse" x="0.730469" y="0.673832" width="121" height="56" fill="black">
<rect fill="white" x="0.730469" y="0.673832" width="121" height="56"/>
<path d="M113.683 2.67383H8.3077C5.22748 2.67383 2.73047 5.17084 2.73047 8.25106V43.4922C2.73047 46.5724 5.22748 49.0694 8.3077 49.0694H92.9192L94.3065 52.2763C94.9071 53.6644 96.4123 54.4263 97.8868 54.0886C99.2319 53.7804 100.528 53.3053 101.771 52.6702C103.048 52.017 104.202 51.2051 105.209 50.227C105.585 49.8625 105.932 49.4767 106.248 49.0694H113.683C116.763 49.0694 119.26 46.5724 119.26 43.4922V8.25106C119.26 5.17084 116.763 2.67383 113.683 2.67383Z"/>
</mask>
<path d="M113.683 2.67383H8.3077C5.22748 2.67383 2.73047 5.17084 2.73047 8.25106V43.4922C2.73047 46.5724 5.22748 49.0694 8.3077 49.0694H92.9192L94.3065 52.2763C94.9071 53.6644 96.4123 54.4263 97.8868 54.0886C99.2319 53.7804 100.528 53.3053 101.771 52.6702C103.048 52.017 104.202 51.2051 105.209 50.227C105.585 49.8625 105.932 49.4767 106.248 49.0694H113.683C116.763 49.0694 119.26 46.5724 119.26 43.4922V8.25106C119.26 5.17084 116.763 2.67383 113.683 2.67383Z" fill="#F8C455"/>
<path d="M94.3065 52.2763L92.7069 52.9683L92.707 52.9685L94.3065 52.2763ZM97.8868 54.0886L98.2759 55.7875L98.2759 55.7875L97.8868 54.0886ZM101.771 52.6702L102.564 54.2222L102.564 54.2221L101.771 52.6702ZM105.209 50.227L106.423 51.4777L106.423 51.4776L105.209 50.227ZM106.248 49.0694V47.3265C105.708 47.3265 105.2 47.5761 104.87 48.0024L106.248 49.0694ZM92.9192 49.0694L94.5189 48.3774C94.2429 47.7395 93.6143 47.3265 92.9192 47.3265V49.0694ZM8.3077 4.41672H113.683V0.930947H8.3077V4.41672ZM117.517 8.25106V43.4922H121.003V8.25106H117.517ZM4.47335 43.4922V8.25106H0.987584V43.4922H4.47335ZM8.3077 47.3265C6.19005 47.3265 4.47335 45.6098 4.47335 43.4922H0.987584C0.987584 47.535 4.26492 50.8123 8.3077 50.8123V47.3265ZM117.517 43.4922C117.517 45.6098 115.8 47.3265 113.683 47.3265V50.8123C117.725 50.8123 121.003 47.535 121.003 43.4922H117.517ZM113.683 4.41672C115.8 4.41672 117.517 6.13341 117.517 8.25106H121.003C121.003 4.20827 117.725 0.930947 113.683 0.930947V4.41672ZM8.3077 0.930947C4.26491 0.930947 0.987584 4.20827 0.987584 8.25106H4.47335C4.47335 6.13341 6.19005 4.41672 8.3077 4.41672V0.930947ZM92.707 52.9685C93.6412 55.1276 95.9826 56.3128 98.2759 55.7875L97.4976 52.3897C96.842 52.5399 96.173 52.2011 95.9061 51.5842L92.707 52.9685ZM98.2759 55.7875C99.765 55.4463 101.196 54.921 102.564 54.2222L100.977 51.1183C99.8594 51.6897 98.6989 52.1145 97.4976 52.3897L98.2759 55.7875ZM102.564 54.2221C103.986 53.4952 105.283 52.5844 106.423 51.4777L103.995 48.9764C103.12 49.8259 102.111 50.5388 100.977 51.1183L102.564 54.2221ZM106.423 51.4776C106.854 51.0592 107.257 50.6125 107.626 50.1364L104.87 48.0024C104.607 48.3409 104.315 48.6657 103.995 48.9765L106.423 51.4776ZM113.683 47.3265H106.248V50.8123H113.683V47.3265ZM92.9192 47.3265H8.3077V50.8123H92.9192V47.3265ZM91.3196 49.7614L92.7069 52.9683L95.9061 51.5843L94.5189 48.3774L91.3196 49.7614Z" fill="black" mask="url(#path-1-outside-1_2006_16214)"/>
<path fill-rule="evenodd" clip-rule="evenodd" d="M50.0863 17.3769C48.7784 17.3769 47.6079 18.1881 47.1488 19.4125L38.4926 42.4953C38.1315 43.4587 38.2657 44.5379 38.8516 45.3836C39.4376 46.2296 40.4011 46.734 41.4301 46.734H47.5741C48.9067 46.734 50.0936 45.8925 50.5345 44.6352L51.3938 42.1854H54.9005L55.8402 44.9468C56.3105 46.3286 57.6716 47.2038 59.1238 47.0578L65.2002 46.4467C65.2183 46.4446 65.2368 46.4429 65.2549 46.4408C65.6579 46.6287 66.1076 46.734 66.5813 46.734H72.7594C73.3831 46.734 73.9641 46.552 74.4525 46.2383C74.9408 46.552 75.5223 46.734 76.1459 46.734H79.2688C79.7843 46.734 80.2866 46.6071 80.7342 46.3707C80.9416 46.4568 81.1521 46.5356 81.3655 46.6071C81.3752 46.6102 81.385 46.6134 81.3944 46.6165C82.4018 46.9414 83.4392 47.1073 84.4964 47.1073C86.6297 47.1073 88.649 46.705 90.4581 45.7865C91.2671 45.3811 92.0006 44.8855 92.6552 44.3054C92.4739 44.5362 92.3244 44.7927 92.2125 45.0695C91.8981 45.8479 91.9089 46.7197 92.2421 47.49L94.3127 52.2763C94.9133 53.6644 96.4184 54.4264 97.8929 54.0886C99.2381 53.7804 100.534 53.3053 101.777 52.6702C103.055 52.017 104.208 51.2052 105.215 50.227C106.264 49.2089 107.094 48.0251 107.617 46.6698L107.622 46.658L114.844 28.2808C115.223 27.3151 115.101 26.2241 114.517 25.3667C113.932 24.5092 112.962 23.9961 111.924 23.9961H105.78C104.436 23.9961 103.241 24.8523 102.809 26.125L102.625 26.6687L102.234 25.515C101.697 23.9302 100.01 23.0461 98.4008 23.5059L92.6981 25.1352C92.4157 25.2159 92.1487 25.335 91.904 25.487C91.4578 25.1716 90.9813 24.8909 90.4752 24.6469C88.9219 23.898 87.2341 23.5128 85.4609 23.4343V19.6315C85.4609 18.7666 85.104 17.94 84.4741 17.3472C83.8442 16.7544 82.9979 16.4478 82.1344 16.5L75.9566 16.8734C75.5202 16.8998 75.1096 17.0143 74.7408 17.1991C74.1328 16.7038 73.3583 16.4524 72.5702 16.5L66.392 16.8734C64.7359 16.9735 63.4441 18.3458 63.4441 20.0049V30.6369L59.1988 19.4049C58.7376 18.1844 57.5688 17.3769 56.2641 17.3769H50.0863ZM95.1736 40.9197C95.0691 41.1386 94.9568 41.354 94.8369 41.566C94.3974 42.3593 93.8738 43.0767 93.2701 43.7118C93.4684 43.5668 93.6845 43.4444 93.9146 43.3486C94.4183 43.1387 94.9478 42.9059 95.5041 42.6493C95.5173 42.6431 95.5309 42.6368 95.5445 42.6309C95.6313 42.5922 95.7153 42.5535 95.7959 42.5151L95.1736 40.9197Z" fill="#F8C455"/>
<path d="M50.082 20.514H56.2598L64.8819 43.3252L58.8058 43.9363L57.1424 39.0482H49.1652L47.5698 43.5968H41.4258L50.082 20.514ZM55.3772 34.1939L53.0689 27.9141L50.8628 34.1939H55.3772Z" fill="black"/>
<path d="M72.7563 43.5968H66.5781V20.0049L72.7563 19.6315V43.5968Z" fill="black"/>
<path d="M79.2635 43.5968H76.1406V20.0049L82.3185 19.6315V26.9976C82.7033 26.8618 83.0993 26.76 83.5068 26.6921C83.9139 26.6016 84.3325 26.5563 84.7627 26.5563C86.3919 26.5563 87.8403 26.8618 89.1077 27.4728C90.3748 28.0838 91.3706 29.023 92.0946 30.2903C92.8416 31.5576 93.215 33.1756 93.215 35.1445C93.215 37.0906 92.8416 38.7198 92.0946 40.0326C91.3706 41.345 90.3521 42.3293 89.0397 42.9857C87.7496 43.6421 86.2337 43.9701 84.4911 43.9701C83.7668 43.9701 83.054 43.8572 82.3526 43.6306C81.6736 43.4044 80.9946 43.0422 80.3159 42.5444L79.2635 43.5968ZM83.8121 31.3086C83.3597 31.3086 82.8615 31.4784 82.3185 31.8178V38.7425C82.9295 39.0593 83.5179 39.218 84.0837 39.218C84.853 39.218 85.4982 38.8669 86.0186 38.1656C86.5617 37.4413 86.8332 36.4457 86.8332 35.1783C86.8332 33.9112 86.5728 32.9493 86.0524 32.293C85.532 31.6367 84.7853 31.3086 83.8121 31.3086Z" fill="black"/>
<path d="M99.3254 43.6647L99.4613 43.2914L93.5547 28.1517L99.2578 26.5224L102.618 36.4342L105.775 27.1334H111.919L104.689 45.5317C104.349 46.4143 103.795 47.2289 103.026 47.9756C102.256 48.7226 101.362 49.3563 100.344 49.8767C99.3254 50.3972 98.2734 50.782 97.1869 51.0309L95.1163 46.2446C95.6594 46.0183 96.2251 45.7691 96.8135 45.4976C97.4246 45.226 97.9677 44.9318 98.4428 44.615C98.9182 44.2985 99.2124 43.9816 99.3254 43.6647Z" fill="black"/>
<path d="M34.6152 42.7584C39.2997 42.7584 41.4316 32.4091 41.4316 28.4849C41.4316 25.4263 39.3164 23.5727 36.5358 23.5727C33.7723 23.5727 31.5289 24.7583 31.5011 26.2266C31.501 30.1014 30.8175 42.7584 34.6152 42.7584Z" fill="white"/>
<path d="M17.5626 42.7584C12.8782 42.7584 10.7461 32.4091 10.7461 28.4849C10.7461 25.4263 12.8613 23.5727 15.642 23.5727C18.4054 23.5727 20.6489 24.7583 20.6768 26.2266C20.6768 30.1014 21.3603 42.7584 17.5626 42.7584Z" fill="white"/>
<path d="M34.6152 42.7584C39.2997 42.7584 41.4316 32.4091 41.4316 28.4849C41.4316 25.4263 39.3164 23.5727 36.5358 23.5727C33.7723 23.5727 31.5289 24.7583 31.5011 26.2266C31.501 30.1014 30.8175 42.7584 34.6152 42.7584Z" stroke="black" stroke-width="1.38839"/>
<path d="M17.5626 42.7584C12.8782 42.7584 10.7461 32.4091 10.7461 28.4849C10.7461 25.4263 12.8613 23.5727 15.642 23.5727C18.4054 23.5727 20.6489 24.7583 20.6768 26.2266C20.6768 30.1014 21.3603 42.7584 17.5626 42.7584Z" stroke="black" stroke-width="1.38839"/>
<path d="M25.8643 30.3674C30.2081 30.3674 34.2771 29.1817 37.7631 27.1159C37.8621 27.0571 37.9687 27.0645 38.0454 27.1075C38.0824 27.1284 38.1043 27.1533 38.1158 27.1741C38.1256 27.1916 38.1354 27.2185 38.1305 27.2655C37.5909 32.6074 34.6939 37.023 30.8 39.0555C29.5126 39.7272 28.628 40.8943 27.8511 41.9191C27.837 41.9375 27.8231 41.956 27.8091 41.9745C27.1777 42.8069 26.6073 43.5518 25.9105 44.1008C25.2137 43.5518 24.6433 42.8069 24.0119 41.9745C23.998 41.956 23.984 41.9375 23.97 41.9191C23.1931 40.8943 22.3084 39.7272 21.021 39.0555C17.1416 37.0306 14.2517 32.6401 13.6966 27.3247C13.6918 27.2778 13.7013 27.2508 13.7109 27.2332C13.7223 27.2124 13.7442 27.1874 13.781 27.1664C13.8573 27.1231 13.964 27.1152 14.0633 27.1735C17.5275 29.2037 21.561 30.3674 25.8643 30.3674Z" fill="#FFDF6F" stroke="black" stroke-width="1.38839"/>
<path d="M25.9561 31.2468C32.7039 31.2468 38.174 29.4235 38.174 27.1742C38.174 24.925 32.7039 23.1016 25.9561 23.1016C19.2084 23.1016 13.7383 24.925 13.7383 27.1742C13.7383 29.4235 19.2084 31.2468 25.9561 31.2468Z" fill="black" stroke="black" stroke-width="1.38839"/>
<path d="M16.1445 34.0235C16.1445 34.0235 22.1709 36.0599 26.0484 36.0599C29.9259 36.0599 35.9523 34.0235 35.9523 34.0235" stroke="black" stroke-width="1.38839" stroke-linecap="round"/>
<path d="M11.6953 9.75888C11.6953 11.2847 12.9322 12.5216 14.458 12.5216C15.9838 12.5216 17.2207 11.2847 17.2207 9.75888C17.2207 8.23309 15.9838 6.9962 14.458 6.9962C12.9322 6.9962 11.6953 8.23309 11.6953 9.75888Z" fill="black"/>
<path d="M39.7872 9.75888C39.7872 11.2847 38.5501 12.5216 37.0244 12.5216C35.4986 12.5216 34.2617 11.2847 34.2617 9.75888C34.2617 8.23309 35.4986 6.9962 37.0244 6.9962C38.5501 6.9962 39.7872 8.23309 39.7872 9.75888Z" fill="black"/>
<path d="M37.5328 9.34451L32.3757 14.5015M14.0039 9.34451L19.1609 14.5015L14.0039 9.34451Z" stroke="black" stroke-width="1.38134"/>
<path d="M15.246 26.2446C13.757 25.5358 12.8905 23.944 13.1807 22.3206C14.4266 15.3531 19.6188 10.1272 25.8349 10.1272C32.066 10.1272 37.2684 15.3784 38.4979 22.3712C38.7841 23.9976 37.9105 25.5886 36.4163 26.2918C33.2193 27.7963 29.6483 28.6372 25.8809 28.6372C22.0744 28.6372 18.4684 27.7787 15.246 26.2446Z" fill="#FFDF6F" stroke="black" stroke-width="1.38134"/>
<path d="M17.9025 24.5124C16.7039 24.0242 15.993 22.749 16.4083 21.5233C17.6891 17.7434 21.4252 15.008 25.8346 15.008C30.2441 15.008 33.9802 17.7434 35.261 21.5233C35.6763 22.749 34.9653 24.0242 33.7668 24.5124C31.3188 25.5094 28.6409 26.0587 25.8346 26.0587C23.0284 26.0587 20.3505 25.5094 17.9025 24.5124Z" fill="black"/>
<path d="M31.3193 20.9017C31.3193 21.9189 30.2886 22.7435 29.0171 22.7435C27.7456 22.7435 26.7148 21.9189 26.7148 20.9017C26.7148 19.8845 27.7456 19.0599 29.0171 19.0599C30.2886 19.0599 31.3193 19.8845 31.3193 20.9017Z" fill="white"/>
<path d="M24.7216 20.9028C24.7216 21.92 23.6909 22.7446 22.4194 22.7446C21.1479 22.7446 20.1172 21.92 20.1172 20.9028C20.1172 19.8856 21.1479 19.061 22.4194 19.061C23.6909 19.061 24.7216 19.8856 24.7216 20.9028Z" fill="white"/>
<path d="M49.393 16.4276C50.0132 16.4276 50.5591 16.2919 51.0307 16.0206C51.5023 15.7493 51.8705 15.3649 52.1354 14.8674C52.4067 14.37 52.5424 13.7789 52.5424 13.0941C52.5424 12.4674 52.4229 11.9119 52.1839 11.4273C51.9513 10.9364 51.6024 10.5487 51.1373 10.2645C50.6786 9.98023 50.1101 9.8381 49.4318 9.8381H46.4471V16.4276H49.393ZM49.3446 11.2238C49.6417 11.2238 49.8904 11.3046 50.0907 11.4661C50.2974 11.6276 50.4525 11.8505 50.5559 12.1347C50.6657 12.4125 50.7206 12.7323 50.7206 13.0941C50.7206 13.5269 50.656 13.8887 50.5268 14.1794C50.3976 14.4701 50.2232 14.6866 50.0035 14.8287C49.7903 14.9708 49.5481 15.0419 49.2767 15.0419H48.2108V11.2238H49.3446ZM56.5277 16.5633C55.83 16.5633 55.2259 16.4115 54.7156 16.1078C54.2052 15.8042 53.8111 15.394 53.5333 14.8771C53.262 14.3603 53.1263 13.7886 53.1263 13.1619C53.1263 12.4836 53.2717 11.886 53.5624 11.3692C53.8531 10.8459 54.2536 10.4389 54.764 10.1482C55.2808 9.85102 55.8687 9.70244 56.5277 9.70244C57.2448 9.70244 57.8553 9.85425 58.3592 10.1579C58.8695 10.4615 59.2604 10.8685 59.5317 11.3789C59.803 11.8892 59.9387 12.461 59.9387 13.0941C59.9387 13.7724 59.7933 14.3732 59.5026 14.8965C59.2184 15.4198 58.8178 15.83 58.301 16.1272C57.7907 16.4179 57.1995 16.5633 56.5277 16.5633ZM56.518 15.0903C56.8216 15.0903 57.0929 15.016 57.332 14.8674C57.5775 14.7189 57.7713 14.496 57.9134 14.1988C58.0555 13.9016 58.1266 13.5334 58.1266 13.0941C58.1266 12.7259 58.062 12.3996 57.9328 12.1154C57.81 11.8246 57.6291 11.5953 57.3901 11.4273C57.1575 11.2594 56.8765 11.1754 56.547 11.1754C56.2563 11.1754 55.9882 11.2594 55.7427 11.4273C55.4972 11.5888 55.3002 11.8182 55.1516 12.1154C55.0095 12.4061 54.9384 12.7517 54.9384 13.1522C54.9384 13.5205 54.9998 13.8532 55.1226 14.1503C55.2518 14.4411 55.4326 14.6704 55.6652 14.8384C55.9042 15.0063 56.1885 15.0903 56.518 15.0903ZM62.7654 16.4276V12.9584L63.2596 13.6368L65.2946 16.4276H66.9419V9.8381H65.1783L65.2073 13.4139L64.7034 12.7452L62.6394 9.8381H61.0017V16.4276H62.7654ZM71.8011 13.7433H70.5123L71.1421 11.9506L71.8011 13.7433ZM70.2894 9.8381L67.8183 16.4276H69.5723L70.0277 15.1291H72.305L72.7798 16.5245L74.5144 16.3501L72.053 9.8381H70.2894ZM80.3474 9.8381H74.7076V11.2238H76.6457V16.4276H78.4094V11.2238H80.5122L80.3474 9.8381ZM86.2115 16.4276L86.0468 15.0419H83.1493V13.8112H85.3394L85.1746 12.4254H83.1493V11.2238H85.9208L85.7561 9.8381H81.3857V16.4276H86.2115ZM98.1248 9.8381L96.2351 16.4276H94.4715L93.3862 12.2898L92.3687 16.4276H90.605L88.6282 9.91563L90.3627 9.7412L91.5159 14.3151L92.5043 9.8381H94.2583L95.3824 14.3151L96.3708 9.8381H98.1248ZM100.761 16.4276V9.8381H98.9969V16.4276H100.761ZM107.271 9.8381H101.631V11.2238H103.569V16.4276H105.333V11.2238H107.435L107.271 9.8381ZM114.142 16.4276V9.8381H112.379V12.4642H110.072V9.77996L108.309 9.8381V16.4276H110.072V13.8499H112.379V16.4276H114.142Z" fill="black"/>
</svg>
