<svg width="120" height="56" viewBox="0 0 120 56" fill="none" xmlns="http://www.w3.org/2000/svg">
<g clip-path="url(#clip0_4174_21821)">
<mask id="mask0_4174_21821" style="mask-type:alpha" maskUnits="userSpaceOnUse" x="0" y="-1" width="121" height="56">
<path d="M120.074 -0.134521H0.0737305V54.9068H120.074V-0.134521Z" fill="white"/>
<path d="M112.391 1.84888H7.60329C4.54024 1.84888 2.05713 4.33199 2.05713 7.39505V42.44C2.05713 45.5031 4.54024 47.9862 7.60329 47.9862H91.744L93.1235 51.1754C93.7205 52.5554 95.2176 53.3135 96.6839 52.9773C98.0212 52.6709 99.31 52.1983 100.546 51.5671C101.817 50.9175 102.964 50.1102 103.966 49.1373C104.339 48.7748 104.685 48.3912 104.998 47.9862H112.391C115.454 47.9862 117.938 45.5031 117.938 42.44V7.39505C117.938 4.33199 115.454 1.84888 112.391 1.84888Z" fill="black"/>
</mask>
<g mask="url(#mask0_4174_21821)">
<path d="M112.391 1.84912H7.60329C4.54024 1.84912 2.05713 4.33223 2.05713 7.39529V42.4403C2.05713 45.5033 4.54024 47.9864 7.60329 47.9864H91.744L93.1235 51.1756C93.7205 52.5556 95.2176 53.3138 96.6839 52.9776C98.0212 52.6711 99.31 52.1986 100.546 51.5673C101.817 50.9178 102.964 50.1105 103.966 49.1376C104.339 48.7751 104.685 48.3915 104.998 47.9864H112.391C115.454 47.9864 117.938 45.5033 117.938 42.4403V7.39529C117.938 4.33223 115.454 1.84912 112.391 1.84912Z" fill="#F8C455"/>
<path d="M93.1233 51.1756L91.5326 51.8639L93.1233 51.1756ZM96.6836 52.9776L97.0704 54.667L96.6836 52.9776ZM100.546 51.5674L101.334 53.1105L100.546 51.5674ZM103.965 49.1376L105.172 50.3813L103.965 49.1376ZM104.998 47.9865V46.2533C104.462 46.2533 103.956 46.5014 103.627 46.9254L104.998 47.9865ZM91.7438 47.9865L93.3346 47.2983C93.0598 46.6639 92.4345 46.2533 91.7438 46.2533V47.9865ZM7.60308 3.58233H112.391V0.115967H7.60308V3.58233ZM116.204 7.39532V42.4403H119.671V7.39532H116.204ZM3.7901 42.4403V7.39532H0.32373V42.4403H3.7901ZM7.60308 46.2533C5.49723 46.2533 3.7901 44.5461 3.7901 42.4403H0.32373C0.32373 46.4606 3.58282 49.7198 7.60308 49.7198V46.2533ZM116.204 42.4403C116.204 44.5461 114.497 46.2533 112.391 46.2533V49.7198C116.412 49.7198 119.671 46.4606 119.671 42.4403H116.204ZM112.391 3.58233C114.497 3.58233 116.204 5.28947 116.204 7.39532H119.671C119.671 3.37505 116.412 0.115967 112.391 0.115967V3.58233ZM7.60308 0.115967C3.58281 0.115967 0.32373 3.37505 0.32373 7.39532H3.7901C3.7901 5.28947 5.49723 3.58233 7.60308 3.58233V0.115967ZM91.5326 51.8639C92.4613 54.011 94.7899 55.1897 97.0704 54.667L96.2964 51.2882C95.6443 51.4375 94.9793 51.1008 94.7141 50.4874L91.5326 51.8639ZM97.0704 54.667C98.5511 54.3279 99.9747 53.8052 101.334 53.1105L99.757 50.0237C98.6453 50.592 97.4909 51.0145 96.2964 51.2882L97.0704 54.667ZM101.334 53.1105C102.749 52.3875 104.038 51.4821 105.172 50.3813L102.758 47.8939C101.888 48.7387 100.884 49.4476 99.757 50.0237L101.334 53.1105ZM105.172 50.3813C105.601 49.9652 106.001 49.5209 106.368 49.0475L103.627 46.9254C103.367 47.262 103.076 47.585 102.758 47.894L105.172 50.3813ZM112.391 46.2533H104.998V49.7198H112.391V46.2533ZM91.7438 46.2533H7.60308V49.7198H91.7438V46.2533ZM90.1531 48.6746L91.5326 51.8639L94.7141 50.4874L93.3346 47.2983L90.1531 48.6746Z" fill="black"/>
<path fill-rule="evenodd" clip-rule="evenodd" d="M49.1405 16.4702C47.8399 16.4702 46.6759 17.2769 46.2194 18.4945L37.6114 41.4488C37.2522 42.4069 37.3857 43.4801 37.9684 44.321C38.5511 45.1623 39.5092 45.6639 40.5325 45.6639H46.6423C47.9675 45.6639 49.1477 44.8271 49.5862 43.5768L50.4407 41.1406H53.9281L54.8623 43.8867C55.3299 45.2607 56.6836 46.1312 58.1276 45.9859L64.1703 45.3782C64.1881 45.3762 64.2065 45.3744 64.2248 45.3723C64.6255 45.5592 65.0727 45.6639 65.5438 45.6639H71.6876C72.3074 45.6639 72.8856 45.4829 73.3711 45.171C73.8565 45.4829 74.4347 45.6639 75.055 45.6639H78.1607C78.6734 45.6639 79.1727 45.5377 79.618 45.3027C79.8243 45.3883 80.0336 45.4667 80.2458 45.5377C80.2552 45.5408 80.2651 45.544 80.2745 45.5471C81.2762 45.8701 82.3076 46.0351 83.3588 46.0351C85.4807 46.0351 87.4884 45.6351 89.2874 44.7217C90.0922 44.3186 90.8217 43.8257 91.4722 43.2489C91.2922 43.4783 91.1435 43.7335 91.0324 44.0087C90.7195 44.7828 90.7304 45.6497 91.0617 46.4158L93.1205 51.1755C93.718 52.5555 95.2146 53.3132 96.6808 52.9775C98.0187 52.6711 99.3074 52.1985 100.543 51.5673C101.814 50.9177 102.961 50.1104 103.963 49.1375C105.006 48.125 105.831 46.9478 106.351 45.6001L106.356 45.5883L113.538 27.3135C113.915 26.3531 113.793 25.2682 113.212 24.4155C112.631 23.5628 111.666 23.0526 110.634 23.0526H104.524C103.188 23.0526 102 23.904 101.57 25.1697L101.387 25.7103L100.998 24.5631C100.463 22.9871 98.7863 22.1079 97.1861 22.5651L91.5149 24.1854C91.2342 24.2656 90.9689 24.384 90.7255 24.5352C90.2817 24.2216 89.8081 23.9425 89.3048 23.6998C87.7602 22.955 86.0817 22.572 84.3184 22.4939V18.7123C84.3184 17.8522 83.9633 17.0303 83.337 16.4407C82.7103 15.8512 81.8688 15.5463 81.0104 15.5982L74.8666 15.9696C74.4327 15.9958 74.0246 16.1097 73.6577 16.2935C73.0532 15.8009 72.2831 15.5509 71.4992 15.5982L65.3554 15.9696C63.7086 16.0691 62.4238 17.4337 62.4238 19.0836V29.6565L58.2025 18.4869C57.7438 17.2733 56.5815 16.4702 55.2838 16.4702H49.1405ZM93.9769 39.882C93.8727 40.0997 93.7612 40.3139 93.6422 40.5246C93.2048 41.3136 92.6841 42.027 92.0841 42.6586C92.281 42.5144 92.4962 42.3927 92.7248 42.2974C93.2256 42.0887 93.7522 41.8571 94.3056 41.602C94.3185 41.5958 94.3324 41.5895 94.3458 41.5836C94.4321 41.5451 94.5154 41.5067 94.5957 41.4685L93.9769 39.882Z" fill="#F8C455"/>
<path d="M49.1412 19.5898H55.2847L63.8587 42.2741L57.8166 42.8817L56.1624 38.0209H48.2296L46.643 42.5441H40.5332L49.1412 19.5898ZM54.407 33.1936L52.1116 26.9487L49.9179 33.1936H54.407Z" fill="black"/>
<path d="M71.6875 42.5441H65.5437V19.0835L71.6875 18.7122V42.5441Z" fill="black"/>
<path d="M78.1596 42.5441H75.054V19.0835L81.1978 18.7122V26.0373C81.5801 25.9022 81.9743 25.801 82.3794 25.7335C82.784 25.6434 83.2006 25.5985 83.628 25.5985C85.2485 25.5985 86.6885 25.9022 87.949 26.5099C89.209 27.1175 90.1992 28.0514 90.9192 29.3116C91.6621 30.5719 92.0335 32.1809 92.0335 34.1388C92.0335 36.0741 91.6621 37.6943 90.9192 38.9997C90.1992 40.3048 89.1867 41.2837 87.8816 41.9364C86.5987 42.5891 85.0908 42.9153 83.3583 42.9153C82.6378 42.9153 81.9292 42.803 81.2315 42.5777C80.5561 42.3527 79.8812 41.9926 79.2064 41.4976L78.1596 42.5441ZM82.6829 30.3243C82.2331 30.3243 81.7378 30.4931 81.1978 30.8307V37.7168C81.8052 38.0319 82.3903 38.1896 82.9531 38.1896C83.7178 38.1896 84.3594 37.8406 84.8771 37.1431C85.4171 36.4228 85.6873 35.4328 85.6873 34.1724C85.6873 32.9124 85.4285 31.9559 84.9108 31.3032C84.3931 30.6506 83.6508 30.3243 82.6829 30.3243Z" fill="black"/>
<path d="M98.1095 42.6116L98.2449 42.2404L92.3708 27.185L98.0421 25.5647L101.384 35.4214L104.524 26.1723H110.633L103.443 44.4682C103.105 45.3459 102.554 46.156 101.789 46.8985C101.024 47.6413 100.135 48.2715 99.1226 48.7891C98.1095 49.3066 97.0632 49.6893 95.9827 49.9367L93.9239 45.1771C94.4639 44.9521 95.0267 44.7043 95.6118 44.4343C96.2193 44.1643 96.7593 43.8717 97.2318 43.5566C97.7049 43.2418 97.9975 42.9268 98.1095 42.6116Z" fill="black"/>
<path d="M33.7663 41.7106C38.4247 41.7106 40.5447 31.4189 40.5447 27.5165C40.5447 24.4749 38.4414 22.6316 35.6762 22.6316C32.9282 22.6316 30.6972 23.8107 30.6695 25.2707C30.6694 29.124 29.9897 41.7106 33.7663 41.7106Z" fill="white"/>
<path d="M16.8025 41.7106C12.1442 41.7106 10.0239 31.4189 10.0239 27.5165C10.0239 24.4749 12.1273 22.6316 14.8927 22.6316C17.6407 22.6316 19.8716 23.8107 19.8993 25.2707C19.8994 29.124 20.5791 41.7106 16.8025 41.7106Z" fill="white"/>
<path d="M33.7663 41.7106C38.4247 41.7106 40.5447 31.4189 40.5447 27.5165C40.5447 24.4749 38.4414 22.6316 35.6762 22.6316C32.9282 22.6316 30.6972 23.8107 30.6695 25.2707C30.6694 29.124 29.9897 41.7106 33.7663 41.7106Z" stroke="black" stroke-width="1.38066"/>
<path d="M16.8025 41.7106C12.1442 41.7106 10.0239 31.4189 10.0239 27.5165C10.0239 24.4749 12.1273 22.6316 14.8927 22.6316C17.6407 22.6316 19.8716 23.8107 19.8993 25.2707C19.8994 29.124 20.5791 41.7106 16.8025 41.7106Z" stroke="black" stroke-width="1.38066"/>
<path d="M25.0558 29.3884C29.3754 29.3884 33.4218 28.2093 36.8884 26.1549C36.9868 26.0965 37.0929 26.1038 37.1692 26.1466C37.2059 26.1673 37.2277 26.1921 37.2392 26.2128C37.2489 26.2303 37.2586 26.257 37.2538 26.3038C36.7171 31.6159 33.8363 36.0069 29.9641 38.0281C28.6838 38.696 27.8041 39.8566 27.0315 40.8757C27.0176 40.8941 27.0037 40.9125 26.9898 40.9308C26.3619 41.7586 25.7947 42.4993 25.1018 43.0453C24.4088 42.4993 23.8417 41.7586 23.2138 40.9308C23.1999 40.9125 23.186 40.8941 23.1721 40.8757C22.3995 39.8566 21.5197 38.696 20.2395 38.0281C16.3816 36.0145 13.5079 31.6484 12.9559 26.3626C12.9511 26.3159 12.9605 26.2891 12.9701 26.2716C12.9815 26.2509 13.0032 26.226 13.0398 26.2052C13.1157 26.1621 13.2217 26.1543 13.3205 26.2122C16.7654 28.2312 20.7765 29.3884 25.0558 29.3884Z" fill="#FFDF6F" stroke="black" stroke-width="1.38066"/>
<path d="M25.1469 30.263C31.8571 30.263 37.2968 28.4498 37.2968 26.213C37.2968 23.9763 31.8571 22.1631 25.1469 22.1631C18.4367 22.1631 12.9971 23.9763 12.9971 26.213C12.9971 28.4498 18.4367 30.263 25.1469 30.263Z" fill="black" stroke="black" stroke-width="1.38066"/>
<path d="M15.3894 33.0242C15.3894 33.0242 21.3823 35.0492 25.2381 35.0492C29.094 35.0492 35.0869 33.0242 35.0869 33.0242" stroke="black" stroke-width="1.38066" stroke-linecap="round"/>
<path d="M10.9712 8.89477C10.9712 10.4121 12.2012 11.6421 13.7185 11.6421C15.2358 11.6421 16.4658 10.4121 16.4658 8.89477C16.4658 7.37746 15.2358 6.14746 13.7185 6.14746C12.2012 6.14746 10.9712 7.37746 10.9712 8.89477Z" fill="black"/>
<path d="M38.902 8.89477C38.902 10.4121 37.6717 11.6421 36.1545 11.6421C34.6372 11.6421 33.4072 10.4121 33.4072 8.89477C33.4072 7.37746 34.6372 6.14746 36.1545 6.14746C37.6717 6.14746 38.902 7.37746 38.902 8.89477Z" fill="black"/>
<path d="M36.6584 8.48242L31.5301 13.6107L36.6584 8.48242ZM13.2605 8.48242L18.3888 13.6107L13.2605 8.48242Z" stroke="black" stroke-width="1.37365"/>
<path d="M14.4981 25.2887C13.0175 24.5838 12.1557 23.0008 12.4443 21.3865C13.6833 14.4577 18.8466 9.26099 25.0281 9.26099C31.2244 9.26099 36.398 14.483 37.6206 21.4368C37.9052 23.0541 37.0365 24.6363 35.5506 25.3355C32.3713 26.8317 28.8203 27.6679 25.0738 27.6679C21.2885 27.6679 17.7026 26.8142 14.4981 25.2887Z" fill="#FFDF6F" stroke="black" stroke-width="1.37365"/>
<path d="M17.1391 23.566C15.9472 23.0806 15.2402 21.8125 15.6532 20.5936C16.9269 16.8347 20.6422 14.1145 25.0271 14.1145C29.412 14.1145 33.1274 16.8347 34.401 20.5936C34.814 21.8125 34.107 23.0806 32.9151 23.566C30.4808 24.5574 27.8178 25.1037 25.0271 25.1037C22.2365 25.1037 19.5735 24.5574 17.1391 23.566Z" fill="black"/>
<path d="M30.4763 19.9753C30.4763 20.9869 29.4512 21.8068 28.1869 21.8068C26.9225 21.8068 25.8975 20.9869 25.8975 19.9753C25.8975 18.9638 26.9225 18.1438 28.1869 18.1438C29.4512 18.1438 30.4763 18.9638 30.4763 19.9753Z" fill="white"/>
<path d="M23.9236 19.9766C23.9236 20.9881 22.8986 21.8081 21.6341 21.8081C20.3697 21.8081 19.3447 20.9881 19.3447 19.9766C19.3447 18.965 20.3697 18.145 21.6341 18.145C22.8986 18.145 23.9236 18.965 23.9236 19.9766Z" fill="white"/>
<path d="M45.0296 15.5614C45.1387 15.6269 45.2669 15.6869 45.4141 15.7414C45.5668 15.796 45.725 15.845 45.8886 15.8886C46.0577 15.9268 46.224 15.9568 46.3876 15.9786C46.5567 16.0005 46.7121 16.0114 46.8539 16.0114C47.3121 16.0114 47.7075 15.9405 48.0401 15.7987C48.3728 15.6569 48.6264 15.4633 48.8009 15.2178C48.9809 14.967 49.0709 14.6861 49.0709 14.3752C49.0709 14.1462 49.0191 13.9417 48.9154 13.7617C48.8173 13.5763 48.6864 13.4072 48.5228 13.2545C48.3592 13.1018 48.1765 12.9627 47.9747 12.8373C47.7783 12.7119 47.582 12.5919 47.3857 12.4773C47.2384 12.3901 47.0993 12.3165 46.9685 12.2565C46.843 12.191 46.7394 12.1256 46.6576 12.0601C46.5812 11.9947 46.5431 11.9238 46.5431 11.8474C46.5431 11.7438 46.5922 11.6538 46.6903 11.5775C46.7885 11.4956 46.9221 11.4547 47.0911 11.4547C47.2166 11.4547 47.3311 11.4629 47.4347 11.4793C47.5384 11.4902 47.6529 11.512 47.7783 11.5447C47.9092 11.5775 48.0728 11.6293 48.2692 11.7002L48.7109 10.694C48.4928 10.5467 48.2337 10.4349 47.9338 10.3586C47.6393 10.2767 47.353 10.2358 47.0748 10.2358C46.6549 10.2358 46.2895 10.3067 45.9786 10.4485C45.6678 10.5849 45.4278 10.7731 45.2587 11.013C45.0951 11.253 45.0106 11.5256 45.0051 11.831C45.0051 12.0656 45.0569 12.2783 45.1605 12.4692C45.2642 12.6546 45.4005 12.8209 45.5696 12.9682C45.7386 13.1154 45.9186 13.249 46.1095 13.369C46.3058 13.489 46.494 13.6035 46.674 13.7126C46.8157 13.7944 46.9521 13.8735 47.083 13.9498C47.2139 14.0207 47.3202 14.0917 47.402 14.1626C47.4893 14.228 47.5329 14.2934 47.5329 14.3589C47.5329 14.4243 47.5056 14.4925 47.4511 14.5634C47.3965 14.6288 47.3148 14.6834 47.2057 14.727C47.1021 14.7706 46.9712 14.7925 46.813 14.7925C46.6822 14.7925 46.5322 14.7761 46.3631 14.7434C46.1995 14.7052 46.0413 14.6588 45.8886 14.6043C45.7413 14.5497 45.6187 14.4952 45.5205 14.4407L45.0296 15.5614ZM53.9617 15.905L53.8228 14.7352H51.3767V13.6963H53.2258L53.0865 12.5264H51.3767V11.512H53.7162L53.5774 10.3422H49.8881V15.905H53.9617ZM56.266 15.905V12.9764L56.683 13.549L58.4012 15.905H59.7916V10.3422H58.303L58.3273 13.3608L57.9023 12.7964L56.1599 10.3422H54.7769V15.905H56.266ZM63.5914 15.905C64.1146 15.905 64.5757 15.7905 64.9739 15.5614C65.3721 15.3324 65.6825 15.0079 65.9062 14.5879C66.1352 14.168 66.2498 13.669 66.2498 13.0909C66.2498 12.5619 66.1491 12.0929 65.9473 11.6838C65.7509 11.2693 65.4564 10.9421 65.0637 10.7022C64.6764 10.4622 64.1964 10.3422 63.6242 10.3422H61.1042V15.905H63.5914ZM63.5503 11.512C63.8012 11.512 64.0109 11.5802 64.18 11.7166C64.3546 11.8529 64.4855 12.041 64.5728 12.281C64.6655 12.5155 64.7121 12.7855 64.7121 13.0909C64.7121 13.4563 64.6576 13.7617 64.5485 14.0071C64.4394 14.2525 64.2921 14.4352 64.1066 14.5552C63.9266 14.6752 63.7224 14.7352 63.4933 14.7352H62.5933V11.512H63.5503ZM68.565 15.5614C68.6741 15.6269 68.802 15.6869 68.9493 15.7414C69.102 15.796 69.2602 15.845 69.4238 15.8886C69.5929 15.9268 69.759 15.9568 69.9227 15.9786C70.0918 16.0005 70.2475 16.0114 70.3893 16.0114C70.8475 16.0114 71.2427 15.9405 71.5754 15.7987C71.9081 15.6569 72.1615 15.4633 72.3361 15.2178C72.5161 14.967 72.6063 14.6861 72.6063 14.3752C72.6063 14.1462 72.5542 13.9417 72.4506 13.7617C72.3524 13.5763 72.2215 13.4072 72.0579 13.2545C71.8943 13.1018 71.7118 12.9627 71.51 12.8373C71.3136 12.7119 71.1172 12.5919 70.9209 12.4773C70.7736 12.3901 70.6347 12.3165 70.5038 12.2565C70.3784 12.191 70.2747 12.1256 70.1929 12.0601C70.1166 11.9947 70.0784 11.9238 70.0784 11.8474C70.0784 11.7438 70.1275 11.6538 70.2257 11.5775C70.3238 11.4956 70.4572 11.4547 70.6263 11.4547C70.7518 11.4547 70.8663 11.4629 70.97 11.4793C71.0736 11.4902 71.1881 11.512 71.3136 11.5447C71.4445 11.5775 71.6081 11.6293 71.8045 11.7002L72.2463 10.694C72.0281 10.5467 71.7688 10.4349 71.4688 10.3586C71.1747 10.2767 70.8881 10.2358 70.61 10.2358C70.19 10.2358 69.8245 10.3067 69.5141 10.4485C69.2032 10.5849 68.9632 10.7731 68.7941 11.013C68.6305 11.253 68.5457 11.5256 68.5402 11.831C68.5402 12.0656 68.5923 12.2783 68.6959 12.4692C68.7995 12.6546 68.9359 12.8209 69.105 12.9682C69.2741 13.1154 69.4541 13.249 69.645 13.369C69.8409 13.489 70.0293 13.6035 70.2093 13.7126C70.3511 13.7944 70.4875 13.8735 70.6184 13.9498C70.7493 14.0207 70.8554 14.0917 70.9372 14.1626C71.0245 14.228 71.0681 14.2934 71.0681 14.3589C71.0681 14.4243 71.0409 14.4925 70.9863 14.5634C70.9318 14.6288 70.85 14.6834 70.7409 14.727C70.6372 14.7706 70.5063 14.7925 70.3481 14.7925C70.2172 14.7925 70.0675 14.7761 69.8984 14.7434C69.7348 14.7052 69.5766 14.6588 69.4238 14.6043C69.2766 14.5497 69.1541 14.4952 69.0559 14.4407L68.565 15.5614ZM76.2128 13.639H75.1248L75.6564 12.1256L76.2128 13.639ZM74.9364 10.3422L72.8503 15.905H74.3314L74.7157 14.8088H76.6382L77.0389 15.9868L78.5032 15.8396L76.4255 10.3422H74.9364ZM83.4276 10.3422H78.6663V11.512H80.3027V15.905H81.7913V11.512H83.5665L83.4276 10.3422ZM83.9195 15.5614C84.0286 15.6269 84.1566 15.6869 84.3038 15.7414C84.4566 15.796 84.6147 15.845 84.7784 15.8886C84.9475 15.9268 85.1141 15.9568 85.2777 15.9786C85.4468 16.0005 85.602 16.0114 85.7438 16.0114C86.202 16.0114 86.5972 15.9405 86.93 15.7987C87.2627 15.6569 87.5161 15.4633 87.6906 15.2178C87.8706 14.967 87.9609 14.6861 87.9609 14.3752C87.9609 14.1462 87.9088 13.9417 87.8052 13.7617C87.707 13.5763 87.5761 13.4072 87.4124 13.2545C87.2493 13.1018 87.0663 12.9627 86.8645 12.8373C86.6681 12.7119 86.4718 12.5919 86.2754 12.4773C86.1281 12.3901 85.9893 12.3165 85.8584 12.2565C85.7329 12.191 85.6293 12.1256 85.5475 12.0601C85.4711 11.9947 85.4329 11.9238 85.4329 11.8474C85.4329 11.7438 85.482 11.6538 85.5802 11.5775C85.6784 11.4956 85.8118 11.4547 85.9809 11.4547C86.1063 11.4547 86.2209 11.4629 86.3245 11.4793C86.4281 11.4902 86.5427 11.512 86.6681 11.5447C86.799 11.5775 86.9627 11.6293 87.159 11.7002L87.6009 10.694C87.3827 10.5467 87.1238 10.4349 86.8238 10.3586C86.5293 10.2767 86.2427 10.2358 85.9645 10.2358C85.545 10.2358 85.1795 10.3067 84.8686 10.4485C84.5577 10.5849 84.3177 10.7731 84.1486 11.013C83.985 11.253 83.9007 11.5256 83.8952 11.831C83.8952 12.0656 83.9468 12.2783 84.0504 12.4692C84.1541 12.6546 84.2904 12.8209 84.4595 12.9682C84.6286 13.1154 84.8086 13.249 84.9995 13.369C85.1959 13.489 85.3838 13.6035 85.5638 13.7126C85.7057 13.7944 85.842 13.8735 85.9729 13.9498C86.1038 14.0207 86.21 14.0917 86.2918 14.1626C86.379 14.228 86.4227 14.2934 86.4227 14.3589C86.4227 14.4243 86.3954 14.4925 86.3409 14.5634C86.2863 14.6288 86.2045 14.6834 86.0954 14.727C85.9918 14.7706 85.8609 14.7925 85.7027 14.7925C85.5723 14.7925 85.422 14.7761 85.2529 14.7434C85.0893 14.7052 84.9311 14.6588 84.7784 14.6043C84.6311 14.5497 84.5086 14.4952 84.4104 14.4407L83.9195 15.5614ZM98.0195 10.3422L96.4243 15.905H94.9357L94.0194 12.4119L93.1605 15.905H91.6714L90.0028 10.4077L91.4671 10.2604L92.4405 14.1217L93.2751 10.3422H94.7557L95.7043 14.1217L96.5389 10.3422H98.0195ZM100.245 15.905V10.3422H98.7559V15.905H100.245ZM105.741 10.3422H100.979V11.512H102.616V15.905H104.104V11.512H105.88L105.741 10.3422ZM111.542 15.905V10.3422H110.053V12.5591H108.106V10.2931L106.617 10.3422V15.905H108.106V13.729H110.053V15.905H111.542Z" fill="black"/>
</g>
</g>
<defs>
<clipPath id="clip0_4174_21821">
<rect width="120" height="55.0413" fill="white"/>
</clipPath>
</defs>
</svg>
