<?xml version="1.0" encoding="UTF-8"?>
<svg id="Layer_1" data-name="Layer 1" xmlns="http://www.w3.org/2000/svg" viewBox="0 0 3525.0545 1000.00001">
  <g>
    <path d="M1269.21661,708.30811c-42.83154,0-76.02588-9.51465-99.58301-28.55469-23.55762-19.02881-35.33643-45.9209-35.33643-80.66602,0-37.12061,12.49268-65.42969,37.47803-84.94922,24.98486-19.5083,59.84131-29.26807,104.58008-29.26807h95.65723v61.3916h-69.95801c-31.88965,0-54.25342,4.40625-67.10303,13.20654-12.84912,8.81152-19.27393,21.3042-19.27393,37.47754,0,13.80908,5.58789,24.62842,16.77539,32.48096,11.17676,7.85205,26.77002,11.77832,46.75781,11.77832,18.08105,0,33.78564-4.0376,47.11475-12.13525,13.31787-8.08691,23.66895-18.79492,31.05322-32.12402,7.37256-13.31787,11.06445-28.30908,11.06445-44.97314h23.55762c0,48.54248-9.75977,86.73389-29.26855,114.57471-19.51953,27.84033-50.68359,41.76074-93.51562,41.76074ZM1372.01251,699.7417l-3.56934-67.10303v-116.35889c0-24.271-2.49854-44.61621-7.49512-61.03516-4.99707-16.41846-13.09521-29.02246-24.27148-37.83447-11.1875-8.80029-26.05566-13.20654-44.61621-13.20654-17.13281,0-32.12354,3.56934-44.97314,10.70801s-23.80273,18.32617-32.8374,33.55176l-69.9585-25.69922c7.60742-15.70508,17.72412-30.33887,30.33936-43.90234,12.604-13.56348,28.5542-24.38281,47.82861-32.48047,19.27393-8.08691,42.47461-12.13574,69.60107-12.13574,34.73389,0,63.76758,6.78174,87.09082,20.34521,23.31201,13.56299,40.56738,32.95996,51.75488,58.1792,11.17627,25.23047,16.77588,55.68115,16.77588,91.37402l-2.1416,195.59766h-73.52783Z"/>
    <path d="M1510.492,699.7417V200.04004h79.95215v499.70166h-79.95215Z"/>
    <path d="M1661.11114,699.7417V200.04004h79.95215v433.3125l-4.2832,66.38916h-75.66895ZM1853.85333,708.30811c-29.98242,0-55.80371-7.74121-77.45361-23.20068-21.66162-15.45947-38.19189-37.23193-49.61328-65.31787-11.42188-28.07471-17.13281-60.9126-17.13281-98.5127,0-38.06885,5.71094-71.0293,17.13281-98.86963,11.42139-27.84033,27.95166-49.49072,49.61328-64.96143,21.6499-15.45947,47.47119-23.2002,77.45361-23.2002,32.35791,0,60.55518,7.74072,84.59229,23.2002,24.02588,15.4707,42.83154,37.12109,56.39502,64.96143,13.56299,27.84033,20.34473,60.80078,20.34473,98.86963,0,37.6001-6.78174,70.43799-20.34473,98.5127-13.56348,28.08594-32.36914,49.8584-56.39502,65.31787-24.03711,15.45947-52.23438,23.20068-84.59229,23.20068ZM1833.86504,635.49415c19.02881,0,35.92725-4.87402,50.68408-14.63379,14.74561-9.74854,26.52441-23.20068,35.33594-40.33301,8.80078-17.13281,13.20654-36.87549,13.20654-59.25049,0-22.36377-4.17139-42.11768-12.49268-59.25049-8.33203-17.13232-19.87646-30.45068-34.62207-39.97607-14.75684-9.51416-31.88916-14.27734-51.39795-14.27734-18.0918,0-34.26514,4.76318-48.54248,14.27734-14.27686,9.52539-25.3418,22.84375-33.19434,39.97607-7.85254,17.13281-11.77881,36.88672-11.77881,59.25049,0,22.375,3.92627,42.11768,11.77881,59.25049,7.85254,17.13232,18.79443,30.58447,32.8374,40.33301,14.03174,9.75977,30.09375,14.63379,48.18555,14.63379Z"/>
    <path d="M2172.23272,699.7417l-159.9043-356.92969h87.09082l124.21143,300.53467,25.69922,56.39502h-77.09717ZM2108.69952,851.08008c-11.42188,0-24.15967-2.1416-38.19141-6.4248-14.04297-4.2832-27.48389-9.75977-40.33301-16.41895l29.98193-64.96094c9.03467,4.2832,17.3667,7.72949,24.98486,10.35059,7.60742,2.61035,13.79785,3.92627,18.56055,3.92627,11.42188,0,21.05859-2.97803,28.91113-8.92285,7.85254-5.95654,14.15479-14.63428,18.91748-26.05615l42.11768-98.5127,120.64209-301.24854h87.09082l-165.61523,394.76416c-9.99414,22.84375-20.11084,42.83154-30.33887,59.96436-10.23975,17.13232-22.96631,30.33887-38.19189,39.61914-15.23633,9.28027-34.74463,13.92041-58.53613,13.92041Z"/>
    <g>
      <path d="M2712.71954,692.60303c-32.36914,0-60.56641-7.37256-84.59229-22.12939-24.03711-14.74561-42.83154-35.33643-56.39502-61.74902s-20.34521-56.98584-20.34521-91.73096c0-37.12061,6.78174-69.24414,20.34521-96.37109,13.56348-27.12646,32.35791-48.29688,56.39502-63.5332,24.02588-15.22559,52.22314-22.84375,84.59229-22.84375,29.02295,0,54.36475,7.61816,76.02588,22.84375,21.6499,15.23633,38.42578,36.5293,50.32715,63.89014,11.89014,27.37207,17.84668,59.60742,17.84668,96.72803,0,35.22461-5.95654,65.92041-17.84668,92.08789-11.90137,26.17871-28.67725,46.52344-50.32715,61.03516-21.66113,14.52246-47.00293,21.77246-76.02588,21.77246ZM2724.85528,851.79395c-25.23047,0-47.95166-2.1416-68.17383-6.4248-20.2334-4.2832-37.24316-9.28027-51.04102-14.99121-13.80859-5.71094-24.5166-11.1875-32.12354-16.41846l30.6958-64.24756c6.65918,3.32373,15.58252,7.49561,26.77002,12.49268,11.17627,4.99707,24.38281,9.3916,39.61914,13.20605,15.2251,3.80371,32.35791,5.71094,51.39795,5.71094,20.45654,0,38.78271-4.17139,54.96729-12.49219,16.17334-8.33252,28.78857-21.05908,37.83447-38.19189,9.03467-17.13232,13.56299-39.0166,13.56299-65.6748v-321.95068h79.95264v319.80908c0,40.44434-7.61816,74.83252-22.84375,103.15283-15.23633,28.30859-36.65234,49.72461-64.24707,64.24707-27.60645,14.51172-59.72998,21.77295-96.37109,21.77295ZM2734.84893,624.78663c18.08105,0,33.90869-4.75195,47.47168-14.27734,13.56348-9.51465,24.14893-22.48682,31.76709-38.90527,7.60693-16.41895,11.42188-35.33594,11.42188-56.75195,0-21.88428-3.81494-41.04688-11.42188-57.46582-7.61816-16.41846-18.32617-29.26807-32.12402-38.54834-13.80859-9.28027-29.74756-13.92041-47.82861-13.92041-19.03955,0-35.81543,4.64014-50.32666,13.92041-14.52295,9.28027-25.94434,22.12988-34.26562,38.54834-8.33203,16.41895-12.49219,35.58154-12.49219,57.46582,0,21.41602,4.16016,40.33301,12.49219,56.75195,8.32129,16.41846,19.86572,29.39062,34.62256,38.90527,14.74561,9.52539,31.64404,14.27734,50.68359,14.27734Z"/>
      <path d="M3143.17169,708.30811c-35.69287,0-67.45947-7.9751-95.2998-23.91455-27.84082-15.93896-49.61328-37.9458-65.31836-66.03174-15.70508-28.07471-23.55762-60.43262-23.55762-97.08496,0-36.64111,7.72998-68.99902,23.20068-97.08496,15.45947-28.07471,36.99805-50.08154,64.60449-66.03223,27.59473-15.93896,59.25-23.91406,94.94287-23.91406s67.3374,7.9751,94.94336,23.91406c27.59521,15.95068,49.13379,37.95752,64.60449,66.03223,15.45947,28.08594,23.20068,60.44385,23.20068,97.08496,0,36.65234-7.61865,69.01025-22.84375,97.08496-15.23633,28.08594-36.65234,50.09277-64.24756,66.03174-27.60596,15.93945-59.01611,23.91455-94.22949,23.91455ZM3143.17169,634.78028c19.50879,0,36.87549-4.87402,52.11182-14.63379,15.22559-9.74854,27.12695-23.07764,35.69336-39.97607,8.56592-16.88721,12.84912-36.51855,12.84912-58.89355,0-22.36377-4.40576-41.99512-13.20654-58.89355-8.81152-16.88721-20.82422-30.21631-36.0498-39.97607-15.23633-9.74854-32.8374-14.63428-52.82568-14.63428s-37.6001,4.76318-52.8252,14.27734c-15.23682,9.52539-27.12695,22.84375-35.69336,39.97607-8.56592,17.13281-12.84912,36.88672-12.84912,59.25049,0,22.375,4.39453,42.00635,13.20605,58.89355,8.80078,16.89844,20.93652,30.22754,36.40723,39.97607,15.45947,9.75977,33.19434,14.63379,53.18213,14.63379Z"/>
    </g>
  </g>
  <g>
    <g>
      <path d="M843.18065,562.09189c-23.53198,101.96501-103.76597,182.23901-205.70796,205.83101,101.79897-23.851,181.91597-104.01001,205.70796-205.83101Z"/>
      <path d="M298.01967,775.1999h195.299c-.922,2.55801-1.91101,5.08401-2.96499,7.576-22.92302,54.196-76.58801,92.224-139.13401,92.224h-151v-151c0-64.67,40.654-119.845,97.8-141.36099v192.56099Z"/>
      <path d="M947.51366,552.8759c-23.10298,165.159-154.44302,296.449-319.98301,319.393-10.91499,1.456-27.10498,2.731-36.01899,2.731h-16.00798v-100.002l3.271-.021c20.16301-.25601,39.80398-2.68101,58.69802-7.054,101.79897-23.851,181.91597-104.01001,205.70796-205.83101.03599-.152.071-.30298.10503-.45498,4.66699-20.125,7.13398-41.09302,7.13398-62.63701l-.00098-.89299c-.48203-152.13103-123.95601-275.30701-276.19902-275.30701s-275.71599,123.177-276.199,275.30701l-.001.89299v.88701h-97.8l1.091-22.39702c6.004-128.01196,81.861-246.73696,197.73901-309.37798,36.928-20.03003,79.13098-33.68701,124.973-40.60601,23.28499-3.46001,81.678-3.27798,106.055.18198,51.48101,7.46602,107.873,28.77002,150.077,56.63101,91.68301,60.63701,151.16802,153.68701,167.177,261.48599,3.81997,25.31104,3.81997,81.21401.18198,107.07102Z"/>
      <path d="M578.77467,774.9769l-3.271.021v.199c21.31296-.097,42.05598-2.608,61.96902-7.274-18.89404,4.373-38.53501,6.798-58.69802,7.054Z"/>
    </g>
    <path d="M400.21995,499.99997c.00021-96.64986,78.35034-175.00004,174.99986-174.99996,96.6496,0,174.99973,78.35017,174.99993,175.00004-.00041,96.6491-78.35054,174.99927-174.99986,174.99996h-175.00014l.00021-175.00004Z"/>
  </g>
</svg>