<svg width="16" height="17" viewBox="0 0 16 17" fill="none" xmlns="http://www.w3.org/2000/svg">
<circle r="1.57376" transform="matrix(-1 0 0 1 1.5737 3.57376)" fill="black"/>
<path d="M1.31133 3.33771L4.24902 6.2754" stroke="black" stroke-width="0.850463"/>
<circle cx="14.4263" cy="3.57376" r="1.57376" fill="black"/>
<path d="M14.715 3.33771L11.7773 6.2754" stroke="black" stroke-width="0.850463"/>
<path fill-rule="evenodd" clip-rule="evenodd" d="M2.13074 13.017C1.21023 12.5886 0.674803 11.6062 0.865531 10.6089C1.61307 6.70033 4.54665 3.78359 8.05166 3.78359C11.5653 3.78359 14.5047 6.7147 15.2433 10.6378C15.4314 11.6369 14.8915 12.6189 13.9679 13.0437C12.1754 13.8681 10.1804 14.3278 8.07811 14.3278C5.95325 14.3278 3.93808 13.8582 2.13074 13.017Z" fill="#FFDF6F"/>
<path d="M1.28319 10.6888C2.0033 6.92365 4.80364 4.20882 8.05166 4.20882V3.35836C4.28966 3.35836 1.22284 6.47702 0.447869 10.529L1.28319 10.6888ZM8.05166 4.20882C11.3076 4.20882 14.1138 6.93712 14.8254 10.7165L15.6611 10.5591C14.8955 6.49228 11.8229 3.35836 8.05166 3.35836V4.20882ZM13.7902 12.6573C12.0523 13.4566 10.1179 13.9026 8.07811 13.9026V14.753C10.243 14.753 12.2984 14.2795 14.1456 13.43L13.7902 12.6573ZM8.07811 13.9026C6.0165 13.9026 4.06246 13.447 2.31016 12.6315L1.95132 13.4025C3.8137 14.2693 5.89 14.753 8.07811 14.753V13.9026ZM14.8254 10.7165C14.9754 11.5133 14.5465 12.3095 13.7902 12.6573L14.1456 13.43C15.2366 12.9282 15.8873 11.7605 15.6611 10.5591L14.8254 10.7165ZM0.447869 10.529C0.218519 11.7282 0.864063 12.8965 1.95132 13.4025L2.31016 12.6315C1.5564 12.2807 1.13109 11.4841 1.28319 10.6888L0.447869 10.529Z" fill="black"/>
<path fill-rule="evenodd" clip-rule="evenodd" d="M3.6249 12.0149C2.88451 11.7205 2.44483 10.9324 2.71494 10.1828C3.47351 8.07758 5.5766 6.5639 8.0523 6.5639C10.5279 6.5639 12.6309 8.07745 13.3896 10.1825C13.6597 10.9321 13.2201 11.7202 12.4797 12.0147C11.1099 12.5594 9.61594 12.8589 8.05202 12.8589C6.48831 12.8589 4.99453 12.5595 3.6249 12.0149Z" fill="black"/>
<ellipse cx="9.86225" cy="9.92128" rx="1.31147" ry="1.04918" fill="white"/>
<ellipse cx="6.10835" cy="9.9219" rx="1.31147" ry="1.04918" fill="white"/>
</svg>
