<svg width="500" height="500" viewBox="0 0 500 500" fill="none" xmlns="http://www.w3.org/2000/svg">
<circle r="49.1809" transform="matrix(-1 0 0 1 49.1805 93.1809)" fill="black"/>
<path d="M40.9829 85.8038L132.787 177.608" stroke="black" stroke-width="26.0842"/>
<circle cx="450.82" cy="93.1808" r="49.1809" fill="black"/>
<path d="M459.836 85.8038L368.031 177.608" stroke="black" stroke-width="26.0842"/>
<path fill-rule="evenodd" clip-rule="evenodd" d="M65.7432 387.887C37.539 374.687 21.1317 344.572 26.8899 313.969C49.9606 191.354 141.825 99.7383 251.637 99.7383C361.718 99.7383 453.762 191.801 476.552 314.867C482.23 345.527 465.689 375.628 437.389 388.718C381.147 414.734 318.498 429.25 252.459 429.25C185.72 429.25 122.443 414.425 65.7432 387.887Z" fill="#FFDF6F"/>
<path d="M26.8899 313.969L14.0727 311.557L26.8899 313.969ZM65.7432 387.887L60.2147 399.699L65.7432 387.887ZM39.7071 316.38C61.9482 198.174 149.728 112.78 251.637 112.78V86.6962C133.921 86.6962 37.973 184.533 14.0727 311.557L39.7071 316.38ZM251.637 112.78C353.794 112.78 441.756 198.595 463.728 317.242L489.376 312.492C465.768 185.008 369.642 86.6962 251.637 86.6962V112.78ZM431.913 376.881C377.353 402.119 316.569 416.208 252.459 416.208V442.292C320.428 442.292 384.942 427.349 442.864 400.555L431.913 376.881ZM252.459 416.208C187.67 416.208 126.277 401.819 71.2718 376.075L60.2147 399.699C118.609 427.03 183.77 442.292 252.459 442.292V416.208ZM463.728 317.242C468.262 341.726 455.102 366.155 431.913 376.881L442.864 400.555C476.276 385.1 496.198 349.328 489.376 312.492L463.728 317.242ZM14.0727 311.557C7.15453 348.325 26.9168 384.115 60.2147 399.699L71.2718 376.075C48.1613 365.258 35.1088 340.819 39.7071 316.38L14.0727 311.557Z" fill="black"/>
<path fill-rule="evenodd" clip-rule="evenodd" d="M112.574 356.686C89.885 347.609 76.4145 323.461 84.5897 300.431C108.076 234.271 173.994 186.625 251.641 186.625C329.287 186.625 395.204 234.27 418.691 300.429C426.866 323.459 413.396 347.607 390.707 356.684C347.709 373.886 300.779 383.348 251.639 383.348C202.5 383.348 155.571 373.886 112.574 356.686Z" fill="black"/>
<ellipse cx="308.199" cy="291.544" rx="40.984" ry="32.7872" fill="white"/>
<ellipse cx="190.871" cy="291.563" rx="40.984" ry="32.7872" fill="white"/>
</svg>
