<svg width="32" height="32" viewBox="0 0 32 32" fill="none" xmlns="http://www.w3.org/2000/svg">
<circle r="3.14754" transform="matrix(-1 0 0 1 3.14756 7.14754)" fill="black"/>
<path d="M2.623 6.67529L8.49841 12.5507" stroke="black" stroke-width="0.786885"/>
<circle cx="28.8524" cy="7.14754" r="3.14754" fill="black"/>
<path d="M29.4295 6.67529L23.5541 12.5507" stroke="black" stroke-width="0.786885"/>
<path fill-rule="evenodd" clip-rule="evenodd" d="M2.688 25.2406C1.86282 24.7916 1.37913 23.8977 1.47601 22.9632C2.37575 14.2852 8.58227 7.56738 16.1049 7.56738C23.645 7.56738 29.8629 14.3164 30.74 23.0238C30.8343 23.9597 30.3466 24.8532 29.5184 25.2992C25.5411 27.4408 20.9911 28.656 16.1573 28.656C11.2796 28.656 6.69091 27.4186 2.688 25.2406Z" fill="#FFDF6F"/>
<path d="M30.74 23.0238L30.3485 23.0632L30.74 23.0238ZM2.688 25.2406L2.49996 25.5862L2.688 25.2406ZM1.86736 23.0038C2.7525 14.4666 8.8387 7.96083 16.1049 7.96083V7.17394C8.32585 7.17394 1.999 14.1038 1.08467 22.9227L1.86736 23.0038ZM16.1049 7.96083C23.388 7.96083 29.4856 14.4969 30.3485 23.0632L31.1315 22.9843C30.2402 14.136 23.9021 7.17394 16.1049 7.17394V7.96083ZM29.3319 24.9528C25.4105 27.0643 20.9244 28.2625 16.1573 28.2625V29.0494C21.0578 29.0494 25.6717 27.8173 29.705 25.6456L29.3319 24.9528ZM16.1573 28.2625C11.3469 28.2625 6.82269 27.0424 2.87604 24.895L2.49996 25.5862C6.55913 27.7948 11.2123 29.0494 16.1573 29.0494V28.2625ZM30.3485 23.0632C30.4265 23.8369 30.0237 24.5803 29.3319 24.9528L29.705 25.6456C30.6696 25.1262 31.2421 24.0825 31.1315 22.9843L30.3485 23.0632ZM1.08467 22.9227C0.970996 24.019 1.53885 25.0633 2.49996 25.5862L2.87604 24.895C2.18678 24.52 1.78727 23.7763 1.86736 23.0038L1.08467 22.9227Z" fill="black"/>
<path fill-rule="evenodd" clip-rule="evenodd" d="M5.95351 23.4694C5.28584 23.1569 4.89275 22.4449 5.04449 21.7235C6.07552 16.8217 10.6356 13.1279 16.1048 13.1279C21.5741 13.1279 26.1341 16.8217 27.1652 21.7235C27.3169 22.4449 26.9238 23.1569 26.2561 23.4694C23.1735 24.9123 19.7333 25.7184 16.1048 25.7184C12.4764 25.7184 9.03613 24.9123 5.95351 23.4694Z" fill="black"/>
<ellipse cx="19.9345" cy="20.1051" rx="2.83279" ry="1.83607" fill="white"/>
<ellipse cx="12.4256" cy="20.1066" rx="2.83279" ry="1.83607" fill="white"/>
</svg>
