<svg width="500" height="500" viewBox="0 0 500 500" fill="none" xmlns="http://www.w3.org/2000/svg">
<path d="M90.8406 185.791C98.2676 186.551 105.447 185.682 112.021 183.464L112.176 183.604L112.424 183.852C84.4679 215.646 64.7451 256.793 56.6048 302.329C50.8368 334.558 68.1253 365.546 96.7481 379.179C143.404 401.388 195.595 413.811 250.623 413.811C305.652 413.811 356.773 401.636 403.056 379.861C431.787 366.337 449.2 335.364 443.525 303.089C435.478 257.305 415.336 216.22 387.644 183.945C352.679 143.171 387.752 183.774 387.752 183.774C387.752 183.774 399.769 186.38 406.219 185.93C431.105 184.209 451.169 163.876 452.565 138.952C454.224 109.096 429.663 84.5446 399.815 86.2196C375.239 87.5999 355.036 107.188 352.943 131.724C352.292 139.371 353.377 146.722 355.842 153.407L355.439 153.81L355.207 154.043C325.033 131.787 289.045 118.665 250.018 118.665C210.991 118.665 174.755 131.88 144.505 154.291L144.272 154.058L143.9 153.686L143.171 152.957C145.543 146.319 146.567 139.029 145.869 131.461C143.652 107.049 123.495 87.6155 99.0274 86.2351C69.1176 84.5601 44.5572 109.127 46.2317 139.014C47.5962 163.271 66.6678 183.309 90.8251 185.806L90.8406 185.791Z" fill="white" stroke="white" stroke-width="19.4181"/>
<path fill-rule="evenodd" clip-rule="evenodd" d="M106.098 359.529C85.8636 349.897 74.095 328.262 78.0334 306.192C86.2667 260.097 107.214 219.618 136.271 190.212C140.706 185.714 145.342 181.495 150.133 177.525C178.492 154.152 212.883 140.473 249.957 140.473C287.03 140.473 321.173 154.059 349.47 177.277C354.276 181.216 358.913 185.45 363.363 189.932C392.714 219.509 413.832 260.361 422.004 306.89C425.896 328.991 414.019 350.626 393.722 360.18C350.276 380.622 301.76 392.052 250.577 392.052C199.394 392.052 149.854 380.389 106.067 359.529H106.098Z" fill="#FFDF6F"/>
<path d="M96.4689 123.845L83.1963 137.121L114.765 168.698C120.27 165.534 124.906 161.005 128.193 155.577L96.4689 123.845Z" fill="black"/>
<path fill-rule="evenodd" clip-rule="evenodd" d="M403.32 98.5794C383.008 98.2382 365.332 115.423 365.13 135.74C365.052 143.169 367.146 150.117 370.805 155.98L402.917 123.86L416.189 137.136L384.388 168.931C390.683 172.436 398.094 174.204 405.94 173.537C424.019 172.001 438.625 157.329 440.083 139.245C441.85 117.315 424.764 98.9361 403.32 98.5794ZM370.805 155.98L356.168 170.606C360.975 174.576 365.595 178.826 370.03 183.292L384.388 168.931C378.837 165.829 374.154 161.362 370.805 155.98ZM431.276 305.275C422.825 257.164 400.854 214.404 370.03 183.292L363.393 189.93C358.943 185.448 354.307 181.23 349.501 177.29L356.168 170.606C326.274 145.79 289.743 131.103 249.972 131.103C210.201 131.103 173.437 145.883 143.481 170.869L150.148 177.538C145.342 181.493 140.721 185.727 136.287 190.225L129.65 183.587C99.1204 214.513 77.3199 256.885 68.792 304.561C64.0784 330.989 78.2192 356.657 102.066 368.01C147.078 389.445 197.455 401.449 250.608 401.449C303.76 401.449 353.082 389.693 397.753 368.677C421.678 357.402 435.943 331.749 431.276 305.275ZM389.752 351.679C347.547 371.562 300.38 382.667 250.608 382.667C200.835 382.667 152.691 371.329 110.129 351.059C93.523 343.149 84.1112 325.545 87.2743 307.865C95.2286 263.352 115.323 224.749 142.923 196.848L156.831 184.223C183.562 162.463 215.721 149.869 249.972 149.869C284.223 149.869 316.133 162.354 342.818 183.959L356.757 196.568C384.636 224.625 404.901 263.585 412.793 308.516C415.91 326.243 406.421 343.847 389.752 351.679ZM128.208 155.592C124.921 161.021 120.285 165.534 114.781 168.713L129.65 183.587C134.085 179.089 138.69 174.855 143.481 170.869L128.208 155.592ZM128.208 155.592C131.775 149.714 133.775 142.782 133.635 135.399C133.232 114.849 115.882 98.1762 95.3371 98.5794C73.9242 99.0137 56.9149 117.361 58.6825 139.245C60.1555 157.422 74.9011 172.125 93.0733 173.552C101.012 174.173 108.47 172.312 114.781 168.713L83.2119 137.136L96.4845 123.86L128.208 155.592Z" fill="black"/>
<path fill-rule="evenodd" clip-rule="evenodd" d="M416.189 137.136L384.388 168.931C378.837 165.829 374.154 161.362 370.805 155.981L402.916 123.86L416.189 137.136Z" fill="black"/>
<path fill-rule="evenodd" clip-rule="evenodd" d="M370.03 183.292L363.394 189.93C358.943 185.448 354.307 181.229 349.501 177.29L356.168 170.605C360.975 174.576 365.595 178.825 370.03 183.292Z" fill="black"/>
<path fill-rule="evenodd" clip-rule="evenodd" d="M150.148 177.538C145.342 181.493 140.721 185.727 136.287 190.225L129.65 183.587C134.085 179.089 138.69 174.855 143.481 170.869L150.148 177.538Z" fill="black"/>
<path fill-rule="evenodd" clip-rule="evenodd" d="M128.208 155.593C124.921 161.021 120.285 165.534 114.781 168.714L83.2119 137.136L96.4845 123.86L128.208 155.593Z" fill="black"/>
<path fill-rule="evenodd" clip-rule="evenodd" d="M416.189 137.121L384.388 168.915C378.837 165.813 374.154 161.347 370.805 155.965L402.916 123.845L416.189 137.121Z" fill="black"/>
<path d="M356.168 170.59L349.485 177.274C354.292 181.214 358.928 185.448 363.378 189.93L370.014 183.292C365.58 178.81 360.959 174.576 356.168 170.605V170.59Z" fill="black"/>
<path d="M143.466 170.854C138.675 174.839 134.07 179.089 129.635 183.571L136.271 190.209C140.706 185.712 145.342 181.493 150.133 177.523L143.466 170.854Z" fill="black"/>
<path fill-rule="evenodd" clip-rule="evenodd" d="M142.846 336.636C126.565 329.998 116.905 312.673 122.549 296.016C139.946 244.649 190.71 207.457 250.623 207.457C310.536 207.457 361.3 244.633 378.713 296.016C384.357 312.673 374.697 330.013 358.416 336.636C325.157 350.191 288.766 357.651 250.639 357.651C212.511 357.651 176.12 350.191 142.861 336.636H142.846Z" fill="black"/>
<path d="M293.806 312.596C311.087 312.596 325.095 301.389 325.095 287.564C325.095 273.739 311.087 262.531 293.806 262.531C276.525 262.531 262.516 273.739 262.516 287.564C262.516 301.389 276.525 312.596 293.806 312.596Z" fill="white"/>
<path d="M204.247 312.613C221.527 312.613 235.536 301.405 235.536 287.58C235.536 273.755 221.527 262.548 204.247 262.548C186.966 262.548 172.957 273.755 172.957 287.58C172.957 301.405 186.966 312.613 204.247 312.613Z" fill="white"/>
</svg>
