<svg width="48" height="48" viewBox="0 0 48 48" fill="none" xmlns="http://www.w3.org/2000/svg">
<ellipse rx="4.72131" ry="4.72342" transform="matrix(-1 0 0 1 4.72131 9.72342)" fill="black"/>
<path d="M3.93444 9.01465L12.7476 17.8317" stroke="black" stroke-width="1.18085"/>
<ellipse cx="43.2787" cy="9.72342" rx="4.72131" ry="4.72342" fill="black"/>
<path d="M44.1443 9.01465L35.3312 17.8317" stroke="black" stroke-width="1.18085"/>
<path fill-rule="evenodd" clip-rule="evenodd" d="M4.03321 36.8755C2.79524 36.2017 2.06966 34.8603 2.21492 33.4583C3.56425 20.4351 12.8742 10.3535 24.1583 10.3535C35.4684 10.3535 44.7952 20.4815 46.1109 33.5482C46.2523 34.9524 45.5209 36.2931 44.2784 36.9624C38.3123 40.1765 31.4871 42.0002 24.2361 42.0002C16.92 42.0002 10.0373 40.1436 4.03321 36.8755Z" fill="#FFDF6F"/>
<path d="M46.1109 33.5482L45.5235 33.6073L46.1109 33.5482ZM44.2784 36.9624L43.9984 36.4426L44.2784 36.9624ZM4.03321 36.8755L4.31548 36.3569L4.03321 36.8755ZM2.8022 33.5192C4.12967 20.707 13.2592 10.9439 24.1583 10.9439V9.76309C12.4891 9.76309 2.99884 20.1632 1.62764 33.3975L2.8022 33.5192ZM24.1583 10.9439C35.0825 10.9439 44.2291 20.7521 45.5235 33.6073L46.6984 33.489C45.3614 20.2109 35.8544 9.76309 24.1583 9.76309V10.9439ZM43.9984 36.4426C38.1162 39.6115 31.3869 41.4098 24.2361 41.4098V42.5907C31.5872 42.5907 38.5084 40.7415 44.5585 37.4822L43.9984 36.4426ZM24.2361 41.4098C17.021 41.4098 10.2352 39.579 4.31548 36.3569L3.75094 37.3941C9.83949 40.7081 16.8189 42.5907 24.2361 42.5907V41.4098ZM45.5235 33.6073C45.6404 34.7682 45.0362 35.8836 43.9984 36.4426L44.5585 37.4822C46.0056 36.7026 46.8643 35.1366 46.6984 33.489L45.5235 33.6073ZM1.62764 33.3975C1.4572 35.0424 2.30903 36.6092 3.75094 37.3941L4.31548 36.3569C3.28144 35.7941 2.68212 34.6782 2.8022 33.5192L1.62764 33.3975Z" fill="black"/>
<path fill-rule="evenodd" clip-rule="evenodd" d="M8.93047 34.2169C7.92879 33.7478 7.33913 32.6795 7.56668 31.5971C9.11312 24.241 15.9532 18.6978 24.1572 18.6978C32.3613 18.6978 39.2014 24.2411 40.7478 31.5972C40.9754 32.6796 40.3857 33.7479 39.384 34.217C34.7602 36.3822 29.6 37.5918 24.1574 37.5918C18.7147 37.5918 13.5544 36.3821 8.93047 34.2169Z" fill="black"/>
<ellipse cx="29.9016" cy="29.1684" rx="4.24918" ry="2.75533" fill="white"/>
<ellipse cx="18.6384" cy="29.1704" rx="4.24918" ry="2.75533" fill="white"/>
</svg>
