<svg width="65" height="64" viewBox="0 0 65 64" fill="none" xmlns="http://www.w3.org/2000/svg">
<g clip-path="url(#clip0_714_24221)">
<path d="M12.6209 23.7807C13.5715 23.878 14.4904 23.7668 15.3319 23.4829L15.3518 23.5008L15.3835 23.5326C11.8052 27.6022 9.28067 32.8689 8.23872 38.6975C7.50043 42.8227 9.71333 46.7891 13.377 48.5341C19.3489 51.3769 26.0292 52.967 33.0728 52.967C40.1164 52.967 46.6598 51.4087 52.584 48.6214C56.2616 46.8904 58.4904 42.9259 57.764 38.7947C56.7339 32.9344 54.1559 27.6757 50.6113 23.5445C46.1358 18.3254 50.6251 23.5226 50.6251 23.5226C50.6251 23.5226 52.1633 23.8561 52.9889 23.7986C56.1743 23.5782 58.7424 20.9756 58.921 17.7854C59.1334 13.9639 55.9897 10.8213 52.1692 11.0357C49.0235 11.2124 46.4375 13.7197 46.1696 16.8603C46.0862 17.839 46.2251 18.78 46.5407 19.6356L46.4891 19.6872L46.4593 19.717C42.5972 16.8683 37.9908 15.1888 32.9954 15.1888C28 15.1888 23.3618 16.8802 19.4898 19.7488L19.46 19.719L19.4124 19.6713L19.3191 19.578C19.6227 18.7284 19.7537 17.7953 19.6644 16.8266C19.3806 13.7019 16.8006 11.2144 13.6688 11.0377C9.84034 10.8233 6.69664 13.9679 6.91098 17.7934C7.08563 20.8982 9.52677 23.4631 12.6189 23.7827L12.6209 23.7807Z" fill="white" stroke="white" stroke-width="2.48549"/>
<path fill-rule="evenodd" clip-rule="evenodd" d="M14.5737 46.0184C11.9837 44.7856 10.4774 42.0162 10.9815 39.1913C12.0353 33.2913 14.7166 28.1099 18.4359 24.346C19.0035 23.7703 19.5969 23.2303 20.2102 22.7221C23.8401 19.7304 28.2421 17.9795 32.9874 17.9795C37.7327 17.9795 42.103 19.7185 45.725 22.6904C46.3402 23.1946 46.9336 23.7366 47.5032 24.3103C51.2602 28.096 53.9633 33.325 55.0092 39.2806C55.5074 42.1095 53.9871 44.8789 51.3892 46.1018C45.8282 48.7182 39.6182 50.1813 33.0668 50.1813C26.5154 50.1813 20.1744 48.6885 14.5697 46.0184H14.5737Z" fill="#FFDF6F"/>
<path d="M13.3414 15.8525L11.6426 17.5519L15.6833 21.5937C16.3879 21.1887 16.9813 20.6091 17.4021 19.9142L13.3414 15.8525Z" fill="black"/>
<path fill-rule="evenodd" clip-rule="evenodd" d="M52.6178 12.6181C50.0179 12.5744 47.7553 14.774 47.7295 17.3746C47.7196 18.3255 47.9875 19.2149 48.4559 19.9653L52.5662 15.854L54.265 17.5533L50.1945 21.6229C51.0003 22.0716 51.9489 22.2979 52.9532 22.2125C55.2673 22.016 57.1368 20.138 57.3234 17.8233C57.5496 15.0162 55.3626 12.6638 52.6178 12.6181ZM48.4559 19.9653L46.5824 21.8373C47.1977 22.3456 47.7891 22.8895 48.3567 23.4612L50.1945 21.6229C49.484 21.2259 48.8846 20.6542 48.4559 19.9653ZM56.1961 39.0748C55.1145 32.9167 52.3022 27.4435 48.3567 23.4612L47.5073 24.3109C46.9377 23.7372 46.3442 23.1972 45.729 22.693L46.5824 21.8373C42.756 18.661 38.0801 16.7811 32.9895 16.7811C27.8988 16.7811 23.1932 18.6729 19.3588 21.8711L20.2122 22.7247C19.597 23.231 19.0055 23.7729 18.4379 24.3486L17.5885 23.499C13.6807 27.4574 10.8903 32.881 9.7987 38.9835C9.19536 42.3662 11.0054 45.6517 14.0578 47.1049C19.8193 49.8484 26.2674 51.385 33.0708 51.385C39.8743 51.385 46.1875 49.8802 51.9053 47.1903C54.9676 45.747 56.7935 42.4635 56.1961 39.0748ZM50.8812 45.0145C45.4789 47.5595 39.4416 48.9809 33.0708 48.9809C26.7001 48.9809 20.5377 47.5297 15.0898 44.9351C12.9642 43.9226 11.7595 41.6694 12.1644 39.4063C13.1825 33.7088 15.7547 28.7677 19.2874 25.1963L21.0676 23.5803C24.4892 20.7951 28.6053 19.1831 32.9895 19.1831C37.3736 19.1831 41.458 20.7812 44.8736 23.5466L46.6578 25.1606C50.2262 28.7518 52.8202 33.7386 53.8304 39.4897C54.2293 41.7588 53.0147 44.012 50.8812 45.0145ZM17.4039 19.9157C16.9832 20.6105 16.3898 21.1882 15.6852 21.5952L17.5885 23.499C18.1561 22.9232 18.7455 22.3813 19.3588 21.8711L17.4039 19.9157ZM17.4039 19.9157C17.8604 19.1633 18.1164 18.2759 18.0985 17.331C18.0469 14.7006 15.8261 12.5665 13.1964 12.6181C10.4556 12.6737 8.27845 15.0222 8.5047 17.8233C8.69324 20.1499 10.5807 22.0319 12.9067 22.2145C13.9228 22.2939 14.8774 22.0557 15.6852 21.5952L11.6444 17.5533L13.3433 15.854L17.4039 19.9157Z" fill="black"/>
<path fill-rule="evenodd" clip-rule="evenodd" d="M54.2652 17.5538L50.1946 21.6235C49.4841 21.2264 48.8847 20.6547 48.4561 19.9658L52.5663 15.8545L54.2652 17.5538Z" fill="black"/>
<path fill-rule="evenodd" clip-rule="evenodd" d="M48.3567 23.4618L47.5073 24.3114C46.9377 23.7377 46.3442 23.1977 45.729 22.6935L46.5824 21.8379C47.1977 22.3461 47.7891 22.89 48.3567 23.4618Z" fill="black"/>
<path fill-rule="evenodd" clip-rule="evenodd" d="M20.2123 22.7247C19.5971 23.231 19.0057 23.7729 18.4381 24.3486L17.5886 23.499C18.1562 22.9232 18.7457 22.3813 19.3589 21.8711L20.2123 22.7247Z" fill="black"/>
<path fill-rule="evenodd" clip-rule="evenodd" d="M17.404 19.9162C16.9833 20.611 16.3899 21.1887 15.6853 21.5957L11.6445 17.5538L13.3434 15.8545L17.404 19.9162Z" fill="black"/>
<path fill-rule="evenodd" clip-rule="evenodd" d="M54.2652 17.5519L50.1946 21.6215C49.4841 21.2245 48.8847 20.6527 48.4561 19.9639L52.5663 15.8525L54.2652 17.5519Z" fill="black"/>
<path d="M46.5824 21.8359L45.7271 22.6916C46.3423 23.1958 46.9357 23.7378 47.5053 24.3115L48.3547 23.4618C47.7871 22.8881 47.1957 22.3461 46.5824 21.8379V21.8359Z" fill="black"/>
<path d="M19.3567 21.8691C18.7435 22.3793 18.154 22.9233 17.5864 23.497L18.4359 24.3467C19.0035 23.771 19.5969 23.231 20.2101 22.7228L19.3567 21.8691Z" fill="black"/>
<path fill-rule="evenodd" clip-rule="evenodd" d="M19.2775 43.0884C17.1936 42.2387 15.9571 40.0213 16.6796 37.8892C18.9064 31.3142 25.4041 26.5537 33.0729 26.5537C40.7416 26.5537 47.2394 31.3122 49.4682 37.8892C50.1906 40.0213 48.9541 42.2407 46.8702 43.0884C42.6131 44.8235 37.9551 45.7783 33.0749 45.7783C28.1946 45.7783 23.5366 44.8235 19.2795 43.0884H19.2775Z" fill="black"/>
<path d="M38.6 40.0117C40.8119 40.0117 42.6051 38.5772 42.6051 36.8076C42.6051 35.038 40.8119 33.6035 38.6 33.6035C36.3881 33.6035 34.595 35.038 34.595 36.8076C34.595 38.5772 36.3881 40.0117 38.6 40.0117Z" fill="white"/>
<path d="M27.1366 40.0137C29.3486 40.0137 31.1417 38.5791 31.1417 36.8096C31.1417 35.04 29.3486 33.6055 27.1366 33.6055C24.9247 33.6055 23.1316 35.04 23.1316 36.8096C23.1316 38.5791 24.9247 40.0137 27.1366 40.0137Z" fill="white"/>
</g>
<defs>
<clipPath id="clip0_714_24221">
<rect width="55.1994" height="45.1195" fill="white" transform="translate(5.31323 9.43945)"/>
</clipPath>
</defs>
</svg>
