<svg width="16" height="16" viewBox="0 0 16 16" fill="none" xmlns="http://www.w3.org/2000/svg">
<circle r="1.57377" transform="matrix(-1 0 0 1 1.57375 3.57377)" fill="black"/>
<path d="M1.31144 3.3374L4.24915 6.27511" stroke="black" stroke-width="0.393443"/>
<circle cx="14.4262" cy="3.57377" r="1.57377" fill="black"/>
<path d="M14.7147 3.3374L11.777 6.27511" stroke="black" stroke-width="0.393443"/>
<path fill-rule="evenodd" clip-rule="evenodd" d="M1.34473 12.6207C0.932116 12.3962 0.690249 11.9492 0.738674 11.482C1.18841 7.14278 4.29174 3.78369 8.05316 3.78369C11.8231 3.78369 14.932 7.15803 15.3707 11.5115C15.4178 11.9794 15.174 12.4262 14.7599 12.6492C12.7711 13.7202 10.4959 14.328 8.07871 14.328C5.64013 14.328 3.34602 13.7094 1.34473 12.6207Z" fill="#FFDF6F"/>
<path d="M15.3707 11.5115L15.1749 11.5312L15.3707 11.5115ZM14.7599 12.6492L14.6667 12.476L14.7599 12.6492ZM0.934347 11.5023C1.37679 7.23346 4.41996 3.98041 8.05316 3.98041V3.58697C4.16352 3.58697 1.00003 7.0521 0.543 11.4617L0.934347 11.5023ZM8.05316 3.98041C11.6946 3.98041 14.7433 7.24828 15.1749 11.5312L15.5664 11.4918C15.1206 7.06777 11.9516 3.58697 8.05316 3.58697V3.98041ZM14.6667 12.476C12.7058 13.532 10.4625 14.1313 8.07871 14.1313V14.5247C10.5292 14.5247 12.8364 13.9085 14.8532 12.8224L14.6667 12.476ZM8.07871 14.1313C5.67379 14.1313 3.41191 13.5213 1.43874 12.4479L1.25071 12.7935C3.28014 13.8975 5.60648 14.5247 8.07871 14.5247V14.1313ZM15.1749 11.5312C15.2139 11.9181 15.0125 12.2898 14.6667 12.476L14.8532 12.8224C15.3355 12.5627 15.6217 12.0408 15.5664 11.4918L15.1749 11.5312ZM0.543 11.4617C0.486183 12.0099 0.77014 12.532 1.25071 12.7935L1.43874 12.4479C1.09409 12.2604 0.894316 11.8885 0.934347 11.5023L0.543 11.4617Z" fill="black"/>
<path fill-rule="evenodd" clip-rule="evenodd" d="M2.97691 11.7349C2.64305 11.5786 2.44651 11.2226 2.52241 10.8618C3.03808 8.41114 5.318 6.56445 8.0525 6.56445C10.787 6.56445 13.0669 8.41113 13.5826 10.8618C13.6585 11.2225 13.4619 11.5786 13.1281 11.7349C11.5868 12.4563 9.8667 12.8593 8.05247 12.8593C6.23827 12.8593 4.5182 12.4563 2.97691 11.7349Z" fill="black"/>
<ellipse cx="9.96724" cy="10.0523" rx="1.41639" ry="0.918033" fill="white"/>
<ellipse cx="6.21278" cy="10.0533" rx="1.41639" ry="0.918033" fill="white"/>
</svg>
