<svg width="250" height="250" viewBox="0 0 250 250" fill="none" xmlns="http://www.w3.org/2000/svg">
<circle cx="18.7497" cy="18.7497" r="18.7497" transform="matrix(-1 0 0 1 66.8738 51.8779)" fill="black"/>
<path d="M44.9991 67.8154L79.9985 102.815" stroke="black" stroke-width="9.37484"/>
<circle cx="201.247" cy="70.6276" r="18.7497" fill="black"/>
<path d="M204.684 67.8154L169.685 102.815" stroke="black" stroke-width="9.37484"/>
<path fill-rule="evenodd" clip-rule="evenodd" d="M53.4464 182.513C43.341 177.702 37.4597 166.899 39.4298 155.881C47.8853 108.594 83.1237 73.1279 125.311 73.1279C167.599 73.1279 202.906 108.766 211.252 156.225C213.193 167.262 207.264 178.061 197.124 182.833C175.427 193.043 151.191 198.751 125.623 198.751C99.789 198.751 75.316 192.924 53.4464 182.513Z" fill="#FFDF6F"/>
<path d="M211.252 156.225L206.636 157.037L211.252 156.225ZM53.4464 182.513L51.4316 186.745L53.4464 182.513ZM44.044 156.706C52.2143 111.015 85.9876 77.8153 125.311 77.8153V68.4405C80.2599 68.4405 43.5563 106.174 34.8155 155.056L44.044 156.706ZM125.311 77.8153C164.728 77.8153 198.571 111.177 206.636 157.037L215.869 155.413C207.242 106.356 170.471 68.4405 125.311 68.4405V77.8153ZM195.128 178.591C174.042 188.514 150.487 194.063 125.623 194.063V203.438C151.896 203.438 176.811 197.572 199.12 187.074L195.128 178.591ZM125.623 194.063C100.501 194.063 76.7147 188.398 55.4612 178.28L51.4316 186.745C73.9172 197.45 99.0773 203.438 125.623 203.438V194.063ZM206.636 157.037C208.192 165.886 203.454 174.673 195.128 178.591L199.12 187.074C211.075 181.448 218.195 168.639 215.869 155.413L206.636 157.037ZM34.8155 155.056C32.4548 168.258 39.518 181.074 51.4316 186.745L55.4612 178.28C47.1639 174.33 42.4646 165.539 44.044 156.706L34.8155 155.056Z" fill="black"/>
<path fill-rule="evenodd" clip-rule="evenodd" d="M71.4771 170.757C63.3428 167.444 58.5176 158.79 61.3362 150.471C70.0285 124.817 95.3847 106.253 125.311 106.253C155.237 106.253 180.593 124.817 189.285 150.471C192.104 158.79 187.279 167.444 179.144 170.757C162.531 177.524 144.356 181.252 125.311 181.252C106.265 181.252 88.0909 177.524 71.4771 170.757Z" fill="black"/>
<ellipse cx="146.873" cy="146.252" rx="15.6247" ry="12.4998" fill="white"/>
<ellipse cx="102.143" cy="146.259" rx="15.6247" ry="12.4998" fill="white"/>
</svg>
