<svg width="17" height="16" viewBox="0 0 17 16" fill="none" xmlns="http://www.w3.org/2000/svg">
<circle cx="1.19999" cy="1.19999" r="1.19999" transform="matrix(-1 0 0 1 5.27124 3.32031)" fill="black"/>
<path d="M3.87111 4.34082L6.11108 6.5808" stroke="black" stroke-width="0.599993"/>
<circle cx="13.8714" cy="4.5203" r="1.19999" fill="black"/>
<path d="M14.0913 4.34082L11.8513 6.5808" stroke="black" stroke-width="0.599993"/>
<path fill-rule="evenodd" clip-rule="evenodd" d="M4.412 11.6813C3.76525 11.3734 3.38885 10.682 3.51493 9.97691C4.05609 6.95053 6.31136 4.68066 9.01133 4.68066C11.7178 4.68066 13.9775 6.96154 14.5116 9.99892C14.6359 10.7053 14.2564 11.3964 13.6074 11.7018C12.2188 12.3553 10.6677 12.7206 9.03133 12.7206C7.37795 12.7206 5.81166 12.3477 4.412 11.6813Z" fill="#FFDF6F"/>
<path d="M14.5116 9.99892L14.2162 10.0509L14.5116 9.99892ZM3.81024 10.0297C4.33315 7.10542 6.49465 4.98066 9.01133 4.98066V4.38067C6.12807 4.38067 3.77903 6.79564 3.21962 9.9241L3.81024 10.0297ZM9.01133 4.98066C11.5341 4.98066 13.7 7.1158 14.2162 10.0509L14.8071 9.94696C14.255 6.80729 11.9016 4.38067 9.01133 4.38067V4.98066ZM13.4797 11.4304C12.1302 12.0654 10.6226 12.4206 9.03133 12.4206V13.0206C10.7128 13.0206 12.3074 12.6451 13.7352 11.9732L13.4797 11.4304ZM9.03133 12.4206C7.4235 12.4206 5.90118 12.058 4.54095 11.4105L4.28305 11.9522C5.72214 12.6373 7.3324 13.0206 9.03133 13.0206V12.4206ZM14.2162 10.0509C14.3158 10.6172 14.0125 11.1796 13.4797 11.4304L13.7352 11.9732C14.5003 11.6132 14.9559 10.7934 14.8071 9.94696L14.2162 10.0509ZM3.21962 9.9241C3.06853 10.769 3.52058 11.5892 4.28305 11.9522L4.54095 11.4105C4.00992 11.1577 3.70916 10.595 3.81024 10.0297L3.21962 9.9241Z" fill="black"/>
<path fill-rule="evenodd" clip-rule="evenodd" d="M5.56579 10.9291C5.04519 10.7171 4.73638 10.1632 4.91677 9.63076C5.47309 7.98892 7.09589 6.80078 9.01117 6.80078C10.9264 6.80078 12.5492 7.98892 13.1056 9.63076C13.2859 10.1632 12.9771 10.7171 12.4565 10.9291C11.3932 11.3621 10.2301 11.6007 9.01117 11.6007C7.79226 11.6007 6.62908 11.3621 5.56579 10.9291Z" fill="black"/>
<ellipse cx="10.3913" cy="9.36054" rx="0.999989" ry="0.799991" fill="white"/>
<ellipse cx="7.52855" cy="9.36054" rx="0.999989" ry="0.799991" fill="white"/>
</svg>
