<svg width="1000" height="1000" viewBox="0 0 1000 1000" fill="none" xmlns="http://www.w3.org/2000/svg">
<circle cx="75" cy="75" r="75" transform="matrix(-1 0 0 1 267.5 207.501)" fill="black"/>
<path d="M180 271.25L320 411.25" stroke="black" stroke-width="37.4996"/>
<ellipse cx="805" cy="282.501" rx="75" ry="75" fill="black"/>
<path d="M818.75 271.25L678.75 411.25" stroke="black" stroke-width="37.4996"/>
<path fill-rule="evenodd" clip-rule="evenodd" d="M213.789 730.047C173.367 710.804 149.842 667.59 157.722 623.52C191.545 434.369 332.501 292.501 501.251 292.501C670.41 292.501 811.64 435.057 845.024 624.895C852.788 669.045 829.072 712.238 788.511 731.326C701.72 772.169 604.777 795 502.501 795C399.163 795 301.269 771.692 213.789 730.047Z" fill="#FFDF6F"/>
<path d="M788.511 731.326L780.528 714.361L788.511 731.326ZM157.722 623.52L139.265 620.22L157.722 623.52ZM176.179 626.82C208.861 444.05 343.957 311.251 501.251 311.251V273.751C321.046 273.751 174.229 424.689 139.265 620.22L176.179 626.82ZM501.251 311.251C658.925 311.251 794.298 444.698 826.558 628.143L863.491 621.648C828.982 425.416 681.895 273.751 501.251 273.751V311.251ZM780.528 714.361C696.181 754.053 601.959 776.251 502.501 776.251V813.75C607.594 813.75 707.258 790.285 796.495 748.291L780.528 714.361ZM502.501 776.251C402.01 776.251 306.864 753.59 221.849 713.118L205.73 746.976C295.674 789.795 396.316 813.75 502.501 813.75V776.251ZM826.558 628.143C832.782 663.539 813.83 698.689 780.528 714.361L796.495 748.291C844.314 725.788 872.794 674.551 863.491 621.648L826.558 628.143ZM139.265 620.22C129.823 673.028 158.076 724.29 205.73 746.976L221.849 713.118C188.659 697.318 169.862 662.152 176.179 626.82L139.265 620.22Z" fill="black"/>
<path fill-rule="evenodd" clip-rule="evenodd" d="M285.913 683.022C253.376 669.77 234.075 635.151 245.349 601.877C280.119 499.26 381.546 425.001 501.252 425.001C620.958 425.001 722.384 499.26 757.154 601.877C768.429 635.151 749.128 669.77 716.59 683.022C650.134 710.088 577.434 725 501.251 725C425.069 725 352.369 710.088 285.913 683.022Z" fill="black"/>
<ellipse cx="587.5" cy="585.001" rx="62.5" ry="50" fill="white"/>
<ellipse cx="408.579" cy="585.03" rx="62.5" ry="50" fill="white"/>
</svg>
