<svg width="64" height="64" viewBox="0 0 64 64" fill="none" xmlns="http://www.w3.org/2000/svg">
<circle r="6.29507" transform="matrix(-1 0 0 1 6.29575 12.2951)" fill="black"/>
<path d="M5.24628 11.3508L16.9971 23.1016" stroke="black" stroke-width="3.27644"/>
<circle cx="57.7042" cy="12.2951" r="6.29507" fill="black"/>
<path d="M58.8582 11.3508L47.1074 23.1016" stroke="black" stroke-width="3.27644"/>
<path fill-rule="evenodd" clip-rule="evenodd" d="M8.30866 49.9661C4.76947 48.3004 2.71033 44.52 3.42228 40.6737C6.33838 24.9199 18.1205 13.1344 32.2116 13.1344C46.3369 13.1344 58.1421 24.9772 61.022 40.7886C61.7239 44.6418 59.648 48.4205 56.0968 50.0725C48.8698 53.4344 40.8123 55.3114 32.3164 55.3114C23.7314 55.3114 15.5939 53.3948 8.30866 49.9661Z" fill="#FFDF6F"/>
<path d="M56.0968 50.0725L55.4058 48.5871L55.4058 48.5871L56.0968 50.0725ZM3.42228 40.6737L1.81143 40.3755L3.42228 40.6737ZM5.03314 40.9719C7.84651 25.7731 19.1159 14.7726 32.2116 14.7726V11.4962C17.1251 11.4962 4.83027 24.0667 1.81143 40.3755L5.03314 40.9719ZM32.2116 14.7726C45.3389 14.7726 56.6317 25.827 59.4103 41.0821L62.6337 40.495C59.6525 24.1275 47.3349 11.4962 32.2116 11.4962V14.7726ZM55.4058 48.5871C48.3908 51.8504 40.5687 53.6732 32.3164 53.6732V56.9496C41.0559 56.9496 49.3488 55.0184 56.7878 51.5579L55.4058 48.5871ZM32.3164 53.6732C23.9775 53.6732 16.0779 51.8119 9.00627 48.4838L7.61106 51.4484C15.11 54.9776 23.4852 56.9496 32.3164 56.9496V53.6732ZM59.4103 41.0821C59.9716 44.1633 58.3175 47.2327 55.4058 48.5871L56.7878 51.5579C60.9786 49.6084 63.4762 45.1204 62.6337 40.495L59.4103 41.0821ZM1.81143 40.3755C0.95679 44.9926 3.43459 49.4828 7.61106 51.4484L9.00627 48.4838C6.10434 47.1181 4.46386 44.0473 5.03314 40.9719L1.81143 40.3755Z" fill="black"/>
<path fill-rule="evenodd" clip-rule="evenodd" d="M14.3206 45.9872C11.4729 44.8413 9.78263 41.8109 10.7959 38.9134C13.7739 30.3979 22.236 24.2557 32.2101 24.2557C42.1843 24.2557 50.6465 30.3981 53.6244 38.9137C54.6377 41.8112 52.9474 44.8415 50.0997 45.9874C44.5719 48.2118 38.5341 49.436 32.2104 49.436C25.8865 49.436 19.8485 48.2117 14.3206 45.9872Z" fill="black"/>
<ellipse cx="39.45" cy="37.6852" rx="5.24589" ry="4.19671" fill="white"/>
<ellipse cx="24.4324" cy="37.6877" rx="5.24589" ry="4.19671" fill="white"/>
</svg>
