<svg width="1000" height="1000" viewBox="0 0 1000 1000" fill="none" xmlns="http://www.w3.org/2000/svg">
<circle r="98.3614" transform="matrix(-1 0 0 1 98.3617 226.361)" fill="black"/>
<path d="M81.9662 211.607L265.574 395.215" stroke="black" stroke-width="52.2699"/>
<circle cx="901.639" cy="226.361" r="98.3614" fill="black"/>
<path d="M919.67 211.607L736.062 395.215" stroke="black" stroke-width="52.2699"/>
<path fill-rule="evenodd" clip-rule="evenodd" d="M131.666 815.856C75.1416 789.416 42.2598 729.066 53.8175 667.744C100.019 422.611 283.708 239.476 503.275 239.476C723.378 239.476 907.428 423.505 953.068 669.54C964.465 730.975 931.315 791.297 874.599 817.517C762.162 869.496 636.927 898.498 504.918 898.498C371.51 898.498 245.02 868.878 131.666 815.856Z" fill="#FFDF6F"/>
<path d="M53.8175 667.744L28.1347 662.903L53.8175 667.744ZM79.5003 672.584C124.037 436.284 299.541 265.611 503.275 265.611V213.341C267.874 213.341 76.0007 408.937 28.1347 662.903L79.5003 672.584ZM503.275 265.611C707.504 265.611 883.373 437.124 927.372 674.306L978.765 664.773C931.482 409.887 739.253 213.341 503.275 213.341V265.611ZM863.632 793.794C754.562 844.217 633.063 872.363 504.918 872.363V924.633C640.79 924.633 769.761 894.776 885.566 841.239L863.632 793.794ZM504.918 872.363C375.415 872.363 252.699 843.617 142.739 792.183L120.592 839.529C237.341 894.139 367.605 924.633 504.918 924.633V872.363ZM927.372 674.306C936.471 723.361 910.1 772.312 863.632 793.794L885.566 841.239C952.53 810.282 992.458 738.589 978.765 664.773L927.372 674.306ZM28.1347 662.903C14.2476 736.586 53.8568 808.313 120.592 839.529L142.739 792.183C96.4264 770.52 70.2721 721.547 79.5003 672.584L28.1347 662.903Z" fill="black"/>
<path fill-rule="evenodd" clip-rule="evenodd" d="M225.295 753.428C179.824 735.249 152.827 686.853 169.232 640.712C216.25 508.47 348.045 413.248 503.281 413.248C658.514 413.248 790.309 508.468 837.328 640.709C853.733 686.85 826.737 735.245 781.266 753.425C695.311 787.791 601.501 806.694 503.277 806.694C405.055 806.694 311.248 787.792 225.295 753.428Z" fill="black"/>
<ellipse cx="616.397" cy="623.086" rx="81.9679" ry="65.5743" fill="white"/>
<ellipse cx="381.741" cy="623.125" rx="81.9679" ry="65.5743" fill="white"/>
</svg>
