<svg width="32" height="32" viewBox="0 0 32 32" fill="none" xmlns="http://www.w3.org/2000/svg">
<circle r="3.14746" transform="matrix(-1 0 0 1 3.14746 7.14746)" fill="black"/>
<path d="M2.62279 6.67535L8.49805 12.5506" stroke="black" stroke-width="1.70089"/>
<circle cx="28.8516" cy="7.14746" r="3.14746" fill="black"/>
<path d="M29.429 6.67535L23.5537 12.5506" stroke="black" stroke-width="1.70089"/>
<path fill-rule="evenodd" clip-rule="evenodd" d="M4.2624 26.0336C2.42142 25.1768 1.35059 23.2119 1.73204 21.2175C3.22709 13.4005 9.09412 7.56711 16.104 7.56711C23.1311 7.56711 29.0097 13.4292 30.4869 21.2752C30.8631 23.2734 29.7834 25.2373 27.9362 26.0869C24.3512 27.7357 20.3615 28.6551 16.1569 28.6551C11.9073 28.6551 7.87701 27.7158 4.2624 26.0336Z" fill="#FFDF6F"/>
<path d="M2.56734 21.3772C4.00753 13.8471 9.60809 8.41755 16.104 8.41755V6.71666C8.58015 6.71666 2.44665 12.9538 0.896732 21.0577L2.56734 21.3772ZM16.104 8.41755C22.6158 8.41755 28.2281 13.874 29.6511 21.4326L31.3226 21.1179C29.7914 12.9844 23.6464 6.71666 16.104 6.71666V8.41755ZM27.5808 25.3142C24.1051 26.9128 20.2363 27.8046 16.1569 27.8046V29.5055C20.4866 29.5055 24.5974 28.5585 28.2915 26.8595L27.5808 25.3142ZM16.1569 27.8046C12.0338 27.8046 8.12577 26.8936 4.62124 25.2625L3.90356 26.8046C7.62825 28.5381 11.7808 29.5055 16.1569 29.5055V27.8046ZM29.6511 21.4326C29.9511 23.0261 29.0934 24.6186 27.5808 25.3142L28.2915 26.8595C30.4735 25.856 31.775 23.5206 31.3226 21.1179L29.6511 21.4326ZM0.896732 21.0577C0.438038 23.456 1.7291 25.7926 3.90356 26.8046L4.62124 25.2625C3.11375 24.5609 2.26314 22.9678 2.56734 21.3772L0.896732 21.0577Z" fill="black"/>
<path fill-rule="evenodd" clip-rule="evenodd" d="M7.25066 24.0292C5.76993 23.4403 4.89062 21.8641 5.43087 20.3649C6.94807 16.1548 11.1541 13.1276 16.1053 13.1276C21.0564 13.1276 25.2624 16.1548 26.7797 20.3649C27.3199 21.864 26.4406 23.4403 24.9599 24.0291C22.2205 25.1185 19.2328 25.7175 16.1052 25.7175C12.9777 25.7175 9.99002 25.1185 7.25066 24.0292Z" fill="black"/>
<ellipse cx="19.7244" cy="19.8422" rx="2.62288" ry="2.09831" fill="white"/>
<ellipse cx="12.2166" cy="19.8435" rx="2.62288" ry="2.09831" fill="white"/>
</svg>
