<svg width="250" height="250" viewBox="0 0 250 250" fill="none" xmlns="http://www.w3.org/2000/svg">
<path d="M45.4199 92.8935C49.1334 93.2735 52.7228 92.8392 56.0099 91.7303L56.0874 91.8001L56.2114 91.9242C42.2336 107.821 32.3724 128.394 28.3023 151.162C25.4184 167.276 34.0625 182.77 48.3736 189.586C71.701 200.69 97.7961 206.902 125.31 206.902C152.824 206.902 178.384 200.815 201.525 189.927C215.89 183.165 224.597 167.679 221.759 151.542C217.736 128.65 207.665 108.108 193.819 91.9707C176.337 71.5838 193.873 91.8854 193.873 91.8854C193.873 91.8854 199.881 93.1882 203.107 92.9633C215.549 92.1025 225.581 81.9362 226.279 69.4745C227.108 54.5469 214.828 42.2713 199.905 43.1088C187.617 43.799 177.515 53.5931 176.469 65.8609C176.143 69.6839 176.686 73.3596 177.919 76.7018L177.717 76.9035L177.601 77.0198C162.514 65.8919 144.521 59.3315 125.007 59.3315C105.494 59.3315 87.3766 65.9384 72.2514 77.1439L72.1352 77.0275L71.9491 76.8414L71.5847 76.477C72.7709 73.158 73.2825 69.5133 72.9337 65.729C71.8251 53.5233 61.7468 43.8067 49.5133 43.1166C34.5586 42.2791 22.2786 54.5624 23.1159 69.5056C23.7981 81.6338 33.3337 91.6527 45.4122 92.9012L45.4199 92.8935Z" fill="white" stroke="white" stroke-width="9.70887"/>
<path fill-rule="evenodd" clip-rule="evenodd" d="M53.0483 179.761C42.9312 174.945 37.0471 164.127 39.0162 153.092C43.1328 130.046 53.6065 109.806 68.1347 95.1034C70.352 92.8546 72.67 90.7453 75.0655 88.7602C89.2449 77.074 106.44 70.2344 124.976 70.2344C143.513 70.2344 160.584 77.0274 174.732 88.6361C177.135 90.6058 179.453 92.7228 181.678 94.9639C196.354 109.752 206.913 130.178 210.998 153.441C212.944 164.492 207.006 175.309 196.858 180.086C175.135 190.307 150.878 196.022 125.286 196.022C99.6953 196.022 74.9259 190.191 53.0328 179.761H53.0483Z" fill="#FFDF6F"/>
<path d="M48.2343 61.9209L41.5981 68.5589L57.3823 84.3473C60.1345 82.7653 62.4525 80.501 64.096 77.7868L48.2343 61.9209Z" fill="black"/>
<path fill-rule="evenodd" clip-rule="evenodd" d="M201.657 49.2887C191.501 49.1181 182.663 57.7103 182.562 67.8688C182.524 71.5833 183.57 75.0573 185.4 77.9886L201.455 61.9288L208.091 68.5667L192.191 84.4637C195.339 86.2162 199.044 87.1003 202.967 86.7668C212.007 85.9991 219.309 78.6632 220.038 69.6213C220.922 58.6563 212.379 49.4671 201.657 49.2887ZM185.4 77.9886L178.081 85.3012C180.485 87.2864 182.795 89.4111 185.012 91.6445L192.191 84.4637C189.416 82.9128 187.074 80.6794 185.4 77.9886ZM215.635 152.635C211.41 128.58 200.424 107.2 185.012 91.6445L181.694 94.9634C179.469 92.7224 177.151 90.6131 174.748 88.6434L178.081 85.3012C163.135 72.8938 144.87 65.5502 124.984 65.5502C105.099 65.5502 86.7178 72.9403 71.7399 85.433L75.0735 88.7675C72.6702 90.7449 70.3599 92.8619 68.1427 95.1108L64.8246 91.7918C49.5599 107.255 38.6598 128.44 34.3959 152.278C32.0391 165.492 39.1094 178.326 51.0328 184.002C73.5385 194.719 98.7265 200.721 125.302 200.721C151.878 200.721 176.539 194.843 198.874 184.335C210.836 178.698 217.968 165.872 215.635 152.635ZM194.873 175.836C173.771 185.778 150.188 191.33 125.302 191.33C100.417 191.33 76.3449 185.661 55.0642 175.526C46.7612 171.571 42.0554 162.77 43.6369 153.93C47.614 131.674 57.6613 112.373 71.4608 98.422L78.4148 92.1097C91.7802 81.23 107.859 74.9333 124.984 74.9333C142.11 74.9333 158.064 81.1757 171.406 91.9779L178.376 98.2824C192.315 112.311 202.448 131.79 206.394 154.255C207.952 163.119 203.207 171.92 194.873 175.836ZM64.1036 77.7947C62.4601 80.5088 60.1421 82.7654 57.3899 84.3551L64.8246 91.7918C67.0418 89.543 69.3443 87.426 71.7399 85.433L64.1036 77.7947ZM64.1036 77.7947C65.8867 74.8557 66.8868 71.3894 66.817 67.6982C66.6154 57.4233 57.9404 49.0871 47.6682 49.2887C36.962 49.5059 28.4575 58.6796 29.3412 69.6213C30.0777 78.7098 37.4504 86.0611 46.5364 86.7746C50.5057 87.0847 54.2346 86.1542 57.3899 84.3551L41.6058 68.5667L48.2419 61.9288L64.1036 77.7947Z" fill="black"/>
<path fill-rule="evenodd" clip-rule="evenodd" d="M208.092 68.5667L192.191 84.4636C189.416 82.9127 187.074 80.6794 185.4 77.9885L201.455 61.9287L208.092 68.5667Z" fill="black"/>
<path fill-rule="evenodd" clip-rule="evenodd" d="M185.012 91.6441L181.694 94.963C179.469 92.722 177.151 90.6127 174.748 88.643L178.081 85.3008C180.484 87.286 182.795 89.4107 185.012 91.6441Z" fill="black"/>
<path fill-rule="evenodd" clip-rule="evenodd" d="M75.0733 88.7671C72.67 90.7445 70.3598 92.8615 68.1425 95.1104L64.8245 91.7914C67.0417 89.5426 69.3442 87.4256 71.7397 85.4326L75.0733 88.7671Z" fill="black"/>
<path fill-rule="evenodd" clip-rule="evenodd" d="M64.1036 77.7947C62.46 80.5088 60.142 82.7654 57.3899 84.3551L41.6057 68.5667L48.2419 61.9287L64.1036 77.7947Z" fill="black"/>
<path fill-rule="evenodd" clip-rule="evenodd" d="M208.092 68.5589L192.191 84.4558C189.416 82.9049 187.074 80.6716 185.4 77.9807L201.455 61.9209L208.092 68.5589Z" fill="black"/>
<path d="M178.081 85.293L174.74 88.6352C177.143 90.6049 179.461 92.7219 181.686 94.963L185.004 91.644C182.787 89.4029 180.477 87.2859 178.081 85.3007V85.293Z" fill="black"/>
<path d="M71.7319 85.4248C69.3364 87.4177 67.0339 89.5425 64.8167 91.7836L68.1347 95.1026C70.352 92.8537 72.67 90.7445 75.0655 88.7593L71.7319 85.4248Z" fill="black"/>
<path fill-rule="evenodd" clip-rule="evenodd" d="M71.4218 168.315C63.2817 164.996 58.4518 156.334 61.2738 148.005C69.9721 122.322 95.3539 103.727 125.31 103.727C155.266 103.727 180.647 122.314 189.353 148.005C192.175 156.334 187.346 165.004 179.205 168.315C162.576 175.092 144.381 178.822 125.317 178.822C106.254 178.822 88.0588 175.092 71.4296 168.315H71.4218Z" fill="black"/>
<path d="M146.9 156.295C155.541 156.295 162.545 150.691 162.545 143.779C162.545 136.866 155.541 131.263 146.9 131.263C138.26 131.263 131.256 136.866 131.256 143.779C131.256 150.691 138.26 156.295 146.9 156.295Z" fill="white"/>
<path d="M102.122 156.302C110.762 156.302 117.767 150.699 117.767 143.786C117.767 136.874 110.762 131.271 102.122 131.271C93.4816 131.271 86.4773 136.874 86.4773 143.786C86.4773 150.699 93.4816 156.302 102.122 156.302Z" fill="white"/>
</svg>
