<svg width="65" height="64" viewBox="0 0 65 64" fill="none" xmlns="http://www.w3.org/2000/svg">
<circle cx="4.79995" cy="4.79995" r="4.79995" transform="matrix(-1 0 0 1 18.1128 13.2812)" fill="black"/>
<path d="M12.5128 17.3613L21.4727 26.3212" stroke="black" stroke-width="2.39997"/>
<circle cx="52.5126" cy="18.0812" r="4.79995" fill="black"/>
<path d="M53.3925 17.3613L44.4326 26.3212" stroke="black" stroke-width="2.39997"/>
<path fill-rule="evenodd" clip-rule="evenodd" d="M14.6756 46.7244C12.0886 45.4928 10.583 42.7271 11.0873 39.9067C13.252 27.8011 22.273 18.7217 33.0729 18.7217C43.899 18.7217 52.9376 27.8452 55.0741 39.9947C55.571 42.8203 54.0532 45.5846 51.4573 46.8062C45.9027 49.4202 39.6984 50.8813 33.1529 50.8813C26.5394 50.8813 20.2742 49.3896 14.6756 46.7244Z" fill="#FFDF6F"/>
<path d="M12.2686 40.1179C14.3602 28.4207 23.0062 19.9217 33.0729 19.9217V17.5217C21.5399 17.5217 12.1437 27.1816 9.90606 39.6954L12.2686 40.1179ZM33.0729 19.9217C43.1639 19.9217 51.8277 28.4622 53.8923 40.2025L56.256 39.7869C54.0475 27.2282 44.634 17.5217 33.0729 17.5217V19.9217ZM50.9464 45.7205C45.5482 48.2608 39.5181 49.6813 33.1529 49.6813V52.0813C39.8787 52.0813 46.2572 50.5796 51.9683 47.892L50.9464 45.7205ZM33.1529 49.6813C26.7216 49.6813 20.6323 48.2311 15.1914 45.6409L14.1598 47.8079C19.9162 50.5482 26.3572 52.0813 33.1529 52.0813V49.6813ZM53.8923 40.2025C54.2907 42.4679 53.0777 44.7175 50.9464 45.7205L51.9683 47.892C55.0287 46.4518 56.8514 43.1726 56.256 39.7869L53.8923 40.2025ZM9.90606 39.6954C9.30172 43.0752 11.1099 46.3559 14.1598 47.8079L15.1914 45.6409C13.0673 44.6297 11.8642 42.3791 12.2686 40.1179L9.90606 39.6954Z" fill="black"/>
<path fill-rule="evenodd" clip-rule="evenodd" d="M19.2915 43.7144C17.2091 42.8663 15.9738 40.6506 16.6954 38.5211C18.9207 31.9537 25.4119 27.2012 33.073 27.2012C40.7341 27.2012 47.2253 31.9537 49.4506 38.5211C50.1721 40.6506 48.9369 42.8663 46.8545 43.7144C42.6013 45.4466 37.9486 46.401 33.073 46.401C28.1974 46.401 23.5447 45.4466 19.2915 43.7144Z" fill="black"/>
<ellipse cx="38.5927" cy="37.4412" rx="3.99996" ry="3.19996" fill="white"/>
<ellipse cx="27.142" cy="37.4431" rx="3.99996" ry="3.19996" fill="white"/>
</svg>
