<svg width="64" height="64" viewBox="0 0 64 64" fill="none" xmlns="http://www.w3.org/2000/svg">
<circle r="6.29508" transform="matrix(-1 0 0 1 6.29513 13.2951)" fill="black"/>
<path d="M5.24594 12.3511L16.9968 24.1019" stroke="black" stroke-width="1.57377"/>
<circle cx="57.705" cy="13.2951" r="6.29508" fill="black"/>
<path d="M58.859 12.3511L47.1082 24.1019" stroke="black" stroke-width="1.57377"/>
<path fill-rule="evenodd" clip-rule="evenodd" d="M5.37605 49.4808C3.72568 48.5828 2.75831 46.7948 2.95209 44.926C4.75176 27.5701 17.1647 14.1348 32.2098 14.1348C47.29 14.1348 59.7257 27.6327 61.48 45.0472C61.6685 46.919 60.6933 48.7062 59.0368 49.5981C51.0822 53.8812 41.9823 56.3116 32.3148 56.3116C22.5593 56.3116 13.3819 53.8368 5.37605 49.4808Z" fill="#FFDF6F"/>
<path d="M61.48 45.0472L62.2629 44.9683L61.48 45.0472ZM59.0368 49.5981L58.6638 48.9052L58.6638 48.9052L59.0368 49.5981ZM5.37605 49.4808L4.99997 50.172L5.37605 49.4808ZM3.73478 45.0071C5.50525 27.9329 17.6776 14.9217 32.2098 14.9217V13.3479C16.6519 13.3479 3.99827 27.2074 2.1694 44.8448L3.73478 45.0071ZM32.2098 14.9217C46.7758 14.9217 58.9712 27.9937 60.697 45.1261L62.2629 44.9683C60.4802 27.2717 47.8041 13.3479 32.2098 13.3479V14.9217ZM58.6638 48.9052C50.821 53.1281 41.8489 55.5247 32.3148 55.5247V57.0985C42.1157 57.0985 51.3435 54.6342 59.4099 50.2909L58.6638 48.9052ZM32.3148 55.5247C22.694 55.5247 13.6455 53.0844 5.75213 48.7896L4.99997 50.172C13.1183 54.5892 22.4247 57.0985 32.3148 57.0985V55.5247ZM60.697 45.1261C60.8529 46.6735 60.0473 48.1603 58.6638 48.9052L59.4099 50.2909C61.3392 49.2521 62.4841 47.1646 62.2629 44.9683L60.697 45.1261ZM2.1694 44.8448C1.94203 47.0376 3.07775 49.1261 4.99997 50.172L5.75213 48.7896C4.37361 48.0395 3.57459 46.5521 3.73478 45.0071L2.1694 44.8448Z" fill="black"/>
<path fill-rule="evenodd" clip-rule="evenodd" d="M11.9072 45.9385C10.5718 45.3134 9.78566 43.8894 10.0892 42.4465C12.1514 32.6432 21.2714 25.2559 32.2098 25.2559C43.1482 25.2559 52.2681 32.6432 54.3304 42.4466C54.6339 43.8894 53.8477 45.3135 52.5123 45.9385C46.3471 48.8243 39.4667 50.4365 32.2098 50.4365C24.9528 50.4365 18.0724 48.8243 11.9072 45.9385Z" fill="black"/>
<ellipse cx="39.8689" cy="39.2097" rx="5.66558" ry="3.67213" fill="white"/>
<ellipse cx="24.8512" cy="39.2127" rx="5.66558" ry="3.67213" fill="white"/>
</svg>
