<svg width="48" height="48" viewBox="0 0 48 48" fill="none" xmlns="http://www.w3.org/2000/svg">
<circle r="4.72134" transform="matrix(-1 0 0 1 4.72104 8.72134)" fill="black"/>
<path d="M3.93488 8.01315L12.748 16.8263" stroke="black" stroke-width="2.47405"/>
<circle cx="43.2799" cy="8.72134" r="4.72134" fill="black"/>
<path d="M44.1452 8.01315L35.332 16.8263" stroke="black" stroke-width="2.47405"/>
<path fill-rule="evenodd" clip-rule="evenodd" d="M6.25878 36.9886C3.58536 35.7329 2.03001 32.8776 2.57066 29.9739C4.76765 18.1743 13.598 9.35083 24.157 9.35083C34.7416 9.35083 43.5892 18.2172 45.7592 30.0599C46.2922 32.9689 44.7243 35.8228 42.0418 37.0682C36.629 39.5811 30.5961 40.9838 24.2355 40.9838C17.8082 40.9838 11.7153 39.5515 6.25878 36.9886Z" fill="#FFDF6F"/>
<path d="M45.7592 30.0599L44.5424 30.2828L45.7592 30.0599ZM42.0418 37.0682L41.5209 35.9462L42.0418 37.0682ZM6.25878 36.9886L5.73288 38.1082L6.25878 36.9886ZM3.78678 30.2003C5.9058 18.8195 14.3489 10.5879 24.157 10.5879V8.11381C12.8471 8.11381 3.6295 17.5291 1.35454 29.7475L3.78678 30.2003ZM24.157 10.5879C33.9887 10.5879 42.4493 18.8598 44.5424 30.2828L46.976 29.8369C44.7291 17.5746 35.4945 8.11381 24.157 8.11381V10.5879ZM41.5209 35.9462C36.2679 38.3849 30.4125 39.7468 24.2355 39.7468V42.2208C30.7796 42.2208 36.99 40.7773 42.5627 38.1902L41.5209 35.9462ZM24.2355 39.7468C17.9937 39.7468 12.0801 38.3561 6.78468 35.8689L5.73288 38.1082C11.3505 40.7468 17.6226 42.2208 24.2355 42.2208V39.7468ZM44.5424 30.2828C44.9685 32.6079 43.7197 34.9254 41.5209 35.9462L42.5627 38.1902C45.7288 36.7203 47.616 33.33 46.976 29.8369L44.5424 30.2828ZM1.35454 29.7475C0.705336 33.2342 2.57756 36.6262 5.73288 38.1082L6.78468 35.8689C4.59316 34.8395 3.35468 32.521 3.78678 30.2003L1.35454 29.7475Z" fill="black"/>
<path fill-rule="evenodd" clip-rule="evenodd" d="M10.764 34.0002C8.61303 33.1365 7.33625 30.8475 8.10508 28.6608C10.3462 22.2868 16.6862 17.6919 24.1573 17.6919C31.6285 17.6919 37.9686 22.287 40.2096 28.6611C40.9784 30.8478 39.7016 33.1367 37.5506 34.0004C33.4113 35.6626 28.8912 36.5772 24.1576 36.5772C19.4237 36.5772 14.9035 35.6625 10.764 34.0002Z" fill="black"/>
<ellipse cx="29.5878" cy="27.7641" rx="3.93445" ry="3.14756" fill="white"/>
<ellipse cx="18.3241" cy="27.766" rx="3.93445" ry="3.14756" fill="white"/>
</svg>
