<?xml version="1.0" encoding="UTF-8"?>
<svg id="Layer_1" xmlns="http://www.w3.org/2000/svg" version="1.1" viewBox="0 0 8000 8000">
  <!-- Generator: Adobe Illustrator 29.8.1, SVG Export Plug-In . SVG Version: 2.1.1 Build 2)  -->
  <defs>
    <style>
      .st0 {
        fill: #fff;
      }

      .st1 {
        fill: #fec704;
      }

      .st2 {
        fill: #1f1f1f;
      }
    </style>
  </defs>
  <g>
    <path class="st0" d="M6679.6,4620.9c-235.3,1019.7-1037.7,1822.4-2057.1,2058.3,1018-238.5,1819.2-1040.1,2057.1-2058.3Z"/>
    <path class="st1" d="M1228,6752h1953c-9.2,25.6-19.1,50.8-29.6,75.8-229.2,542-765.9,922.2-1391.3,922.2H250v-1510c0-646.7,406.5-1198.4,978-1413.6v1925.6Z"/>
    <path class="st1" d="M7722.9,4528.8c-231,1651.6-1544.4,2964.5-3199.8,3193.9-109.1,14.6-271,27.3-360.2,27.3h-160.1v-1000l32.7-.2c201.6-2.6,398-26.8,587-70.5,1018-238.5,1819.2-1040.1,2057.1-2058.3.4-1.5.7-3,1.1-4.5,46.7-201.2,71.3-410.9,71.3-626.4v-8.9c-4.8-1521.3-1239.6-2753.1-2762-2753.1S1232.8,2459.8,1228,3981.1v8.9s0,8.9,0,8.9H250l10.9-224c60-1280.1,818.6-2467.4,1977.4-3093.8,369.3-200.3,791.3-336.9,1249.7-406.1,232.8-34.6,816.8-32.8,1060.6,1.8,514.8,74.7,1078.7,287.7,1500.8,566.3,916.8,606.4,1511.7,1536.9,1671.8,2614.9,38.2,253.1,38.2,812.1,1.8,1070.7Z"/>
    <path class="st0" d="M4035.6,6749.8l-32.7.2v2c213.1-1,420.6-26.1,619.7-72.7-188.9,43.7-385.4,68-587,70.5Z"/>
  </g>
  <path class="st2" d="M2250,4000c0-966.5,783.5-1750,1750-1750,966.5,0,1750,783.5,1750,1750,0,966.5-783.5,1750-1750,1750h-1750v-1750Z"/>
</svg>