<?xml version="1.0" encoding="UTF-8"?>
<svg id="Layer_1" data-name="Layer 1" xmlns="http://www.w3.org/2000/svg" viewBox="0 0 8000 8000">
  <g>
    <path d="M6679.60986,4620.91992c-235.31982,1019.65015-1037.65967,1822.39014-2057.07959,2058.31006,1017.98975-238.51001,1819.15967-1040.1001,2057.07959-2058.31006Z" fill="#ffe065"/>
    <path d="M1228,6752h1952.98999c-9.21997,25.58008-19.11011,50.84009-29.6499,75.76001-229.23022,541.95996-765.88013,922.23999-1391.34009,922.23999H250v-1510c0-646.69995,406.53998-1198.44995,978-1413.60986v1925.60986Z" fill="#ffe480"/>
    <path d="M7722.93994,4528.76001c-231.02979,1651.58997-1544.43018,2964.48999-3199.83008,3193.92999-109.1499,14.56-271.0498,27.31-360.18994,27.31h-160.07983v-1000.02002l32.70996-.20996c201.63013-2.56006,398.03979-26.81006,586.98022-70.54004,1017.98975-238.51001,1819.15967-1040.1001,2057.07959-2058.31006.35986-1.52002.70996-3.02979,1.05029-4.5498,46.66992-201.25,71.33984-410.93018,71.33984-626.37012l-.00977-8.92993c-4.82031-1521.3103-1239.56006-2753.07007-2761.99023-2753.07007S1232.84009,2459.77002,1228.01001,3981.07007l-.01001,8.92993v8.87012H250l10.90997-223.97021c60.04004-1280.11963,818.61005-2467.36963,1977.39008-3093.77979,369.28003-200.30029,791.30981-336.87012,1249.72998-406.06006,232.84985-34.6001,816.78003-32.77979,1060.55005,1.81982,514.81006,74.66016,1078.72998,287.7002,1500.77002,566.31006,916.83008,606.37012,1511.68018,1536.87012,1671.77002,2614.85986,38.19971,253.11035,38.19971,812.14014,1.81982,1070.71021Z" fill="#ffe480"/>
    <path d="M4035.55005,6749.77002l-32.70996.20996v1.98999c213.12964-.96997,420.55981-26.07996,619.69019-72.73999-188.94043,43.72998-385.3501,67.97998-586.98022,70.54004Z" fill="#ffe065"/>
  </g>
  <path d="M2250.00207,3999.99963c.00207-966.4986,783.50338-1750.00037,1749.9986-1749.99963,966.49597-.00002,1749.99728,783.50175,1749.99933,1750.00037-.0041,966.49096-783.50541,1749.99273-1749.9986,1749.99963h-1750.0014l.00207-1750.00037Z" fill="#fff"/>
</svg>