<svg width="100" height="100" viewBox="0 0 100 100" fill="none" xmlns="http://www.w3.org/2000/svg">
<path d="M73.283 44.6579C72.9131 43.0075 72.3631 41.4272 71.6632 39.9269C70.8833 38.2466 69.9134 36.6663 68.7735 35.216C67.5936 33.7157 66.2437 32.3655 64.7439 31.1852C63.294 30.045 61.7142 29.0748 60.0343 28.2947C58.5345 27.5945 56.9546 27.0544 55.3048 26.6743C53.595 26.2743 51.8052 26.0742 49.9753 26.0742C48.1455 26.0742 46.3557 26.2743 44.6459 26.6743C44.3959 27.9046 44.1559 29.1948 43.9459 30.5451C43.556 32.9456 43.236 35.5361 42.986 38.3266C42.8661 39.7269 42.7661 41.1872 42.6861 42.6975C42.5661 45.0079 42.4961 47.4384 42.4961 49.9989C42.4961 52.5594 42.5661 54.9799 42.6861 57.3004C44.9958 57.4204 47.4256 57.4904 49.9853 57.4904C52.5451 57.4904 54.9648 57.4204 57.2846 57.3004C58.7845 57.2203 60.2443 57.1203 61.6442 57.0003C64.4439 56.7503 67.0336 56.4302 69.4334 56.0401C70.7833 55.8201 72.0731 55.59 73.303 55.34C73.693 53.6296 73.903 51.8393 73.903 50.0089C73.903 48.1786 73.703 46.3882 73.303 44.6779L73.283 44.6579ZM66.3537 42.8475C65.7438 42.9375 65.1538 43.0876 64.5739 43.2876C63.534 43.6477 62.5741 44.1778 61.7042 44.8479C59.5344 46.4982 57.9745 48.9787 57.5246 51.6493C57.5246 51.6993 57.4746 51.7193 57.4446 51.7093C57.4146 51.7093 57.3846 51.6793 57.3846 51.6493C56.6747 47.0984 52.995 43.5477 48.5555 42.8375C48.4755 42.8275 48.4755 42.7075 48.5555 42.6975C48.8655 42.6475 49.1654 42.5875 49.4654 42.5075C51.9651 41.8773 54.1349 40.327 55.5848 38.2666C56.0547 37.6065 56.4447 36.8963 56.7547 36.1362C57.0546 35.4061 57.2746 34.6359 57.3946 33.8457C57.4046 33.7657 57.5246 33.7657 57.5346 33.8457C57.8046 35.5661 58.5045 37.1364 59.4944 38.4767C60.0643 39.2468 60.7243 39.9269 61.4742 40.5171C62.8741 41.6273 64.5439 42.3974 66.3537 42.7075C66.4337 42.7175 66.4337 42.8375 66.3537 42.8475Z" fill="white"/>
<path d="M99.96 48.2811V51.7118C99.96 56.8128 94.4706 61.4537 84.5116 64.7744C81.0019 65.9446 77.0523 66.9148 72.8027 67.675C72.4927 67.735 72.1828 67.785 71.8728 67.845C70.7129 68.035 69.543 68.2151 68.3332 68.3751C67.1533 68.5351 65.9534 68.6752 64.7435 68.8052C63.3237 68.9552 61.8938 69.0852 60.434 69.1953C58.9741 69.2953 57.5043 69.3853 56.0044 69.4453C54.0146 69.5253 52.0048 69.5653 49.975 69.5653C47.9452 69.5653 45.9254 69.5253 43.9456 69.4453C42.4458 69.3753 40.9759 69.2953 39.516 69.1953C38.0562 69.0852 36.6263 68.9652 35.2165 68.8052C33.9966 68.6752 32.8067 68.5351 31.6268 68.3751C30.427 68.2151 29.2471 68.035 28.0972 67.845C27.7772 67.795 27.4673 67.735 27.1573 67.675C22.9077 66.9248 18.9581 65.9546 15.4485 64.7744C5.48945 61.4537 0 56.8128 0 51.7118V48.2811C0 43.1801 5.48945 38.5392 15.4485 35.2186C18.9581 34.0483 22.9077 33.0781 27.1573 32.318C27.1073 32.7381 27.0573 33.1482 27.0073 33.5782C26.7473 35.7687 26.5473 37.9991 26.4074 40.2796C25.3075 40.4996 24.2476 40.7197 23.2177 40.9697C13.5186 43.2501 7.10929 46.6308 5.44945 50.0015C7.10929 53.3721 13.5186 56.7528 23.2177 59.0233C24.2476 59.2633 25.3075 59.4933 26.4074 59.7134C27.0273 59.8334 27.6572 59.9534 28.3072 60.0635C29.1271 60.2035 29.957 60.3435 30.8069 60.4635C33.2767 60.8336 35.8864 61.1437 38.6261 61.3637C40.056 61.4837 41.5158 61.5838 43.0057 61.6538C45.2655 61.7638 47.6052 61.8238 50.005 61.8238C52.4048 61.8238 54.7345 61.7638 57.0043 61.6538C58.4942 61.5838 59.954 61.4837 61.3739 61.3637C64.1136 61.1337 66.7233 60.8336 69.1931 60.4635C70.043 60.3335 70.8829 60.2035 71.6928 60.0635C72.3328 59.9534 72.9627 59.8334 73.5926 59.7134C74.6925 59.5034 75.7524 59.2733 76.7823 59.0333C86.4814 56.7528 92.8907 53.3721 94.5505 50.0015C92.8907 46.6308 86.4814 43.2502 76.7823 40.9797C75.8824 38.3092 74.6025 35.8287 72.9927 33.5882C72.6427 33.0982 72.2828 32.6281 71.9028 32.168C72.2128 32.218 72.5327 32.278 72.8427 32.338C77.0923 33.0881 81.0419 34.0583 84.5515 35.2386C94.5105 38.5592 100 43.2001 100 48.3011L99.96 48.2811Z" fill="white"/>
<path d="M67.7933 28.0855C67.3333 27.7055 66.8633 27.3454 66.3734 26.9953C64.1336 25.385 61.6439 24.1047 58.9841 23.2046C56.7144 13.5027 53.3347 7.0914 49.965 5.43107C46.5954 7.0914 43.2157 13.5027 40.9459 23.2046C40.696 24.2348 40.476 25.295 40.256 26.3952C40.136 27.0153 40.016 27.6554 39.906 28.2956C39.7661 29.1157 39.6261 29.9459 39.5061 30.7961C39.1361 33.2665 38.8261 35.8771 38.6062 38.6176C38.4862 40.0379 38.3862 41.4982 38.3162 42.9885C38.2062 45.2489 38.1462 47.5894 38.1462 49.9898C38.1462 52.3903 38.2062 54.7208 38.3162 56.9912C35.5165 56.7412 32.9267 56.4211 30.537 56.031C30.457 54.0406 30.417 52.0302 30.417 49.9998C30.417 47.9694 30.457 45.949 30.537 43.9687C30.607 42.4684 30.687 40.9981 30.797 39.5378C30.8969 38.0775 31.0269 36.6372 31.1769 35.2369C31.3069 34.0167 31.4469 32.8165 31.6069 31.6362C31.7669 30.436 31.9468 29.2558 32.1368 28.1055C32.1868 27.7955 32.2468 27.4754 32.3068 27.1653C33.0567 22.9145 34.0266 18.9637 35.2065 15.453C38.5262 5.49108 43.1657 0 48.2652 0H51.6949C56.7944 0 61.4339 5.49108 64.7536 15.453C65.9234 18.9637 66.8933 22.9145 67.6533 27.1653C67.7133 27.4754 67.7633 27.7955 67.8233 28.1055L67.7933 28.0855Z" fill="white"/>
<path d="M67.6336 72.8359C66.8836 77.0868 65.9137 81.0376 64.7339 84.5482C61.4142 94.5102 56.7747 100.001 51.6752 100.001H48.2455C43.146 100.001 38.5065 94.5102 35.1868 84.5482C34.0169 81.0376 33.047 77.0868 32.2871 72.8359C32.7071 72.8859 33.117 72.936 33.547 72.986C35.7368 73.246 37.9665 73.4461 40.2463 73.5861C40.4663 74.6863 40.6863 75.7465 40.9362 76.7767C43.206 86.4786 46.5857 92.8899 49.9553 94.5502C53.325 92.8899 56.7047 86.4786 58.9844 76.7767C59.2244 75.7465 59.4544 74.6863 59.6644 73.5861C61.9441 73.4361 64.1839 73.236 66.3637 72.986C66.7837 72.946 67.2036 72.8859 67.6236 72.8359H67.6336Z" fill="white"/>
<mask id="mask0_6488_67427" style="mask-type:luminance" maskUnits="userSpaceOnUse" x="52" y="17" width="21" height="11">
<path d="M72.522 27.4241C72.422 26.854 72.332 26.2738 72.232 25.7137L72.092 25.4737C66.7026 20.6027 60.0433 17.7022 52.824 17.082L52.374 17.6621C53.034 19.5025 53.8639 22.183 54.6338 25.7237C60.8432 25.9238 66.9126 26.4939 72.512 27.4341L72.522 27.4241Z" fill="white"/>
</mask>
<g mask="url(#mask0_6488_67427)">
<path d="M73.283 44.6579C72.9131 43.0075 72.3631 41.4272 71.6632 39.9269C70.8833 38.2466 69.9134 36.6663 68.7735 35.216C67.5936 33.7157 66.2437 32.3655 64.7439 31.1852C63.294 30.045 61.7142 29.0748 60.0343 28.2947C58.5345 27.5945 56.9546 27.0544 55.3048 26.6743C53.595 26.2743 51.8052 26.0742 49.9753 26.0742C48.1455 26.0742 46.3557 26.2743 44.6459 26.6743C44.3959 27.9046 44.1559 29.1948 43.9459 30.5451C43.556 32.9456 43.236 35.5361 42.986 38.3266C42.8661 39.7269 42.7661 41.1872 42.6861 42.6975C42.5661 45.0079 42.4961 47.4384 42.4961 49.9989C42.4961 52.5594 42.5661 54.9799 42.6861 57.3004C44.9958 57.4204 47.4256 57.4904 49.9853 57.4904C52.5451 57.4904 54.9648 57.4204 57.2846 57.3004C58.7845 57.2203 60.2443 57.1203 61.6442 57.0003C64.4439 56.7503 67.0336 56.4302 69.4334 56.0401C70.7833 55.8201 72.0731 55.59 73.303 55.34C73.693 53.6296 73.903 51.8393 73.903 50.0089C73.903 48.1786 73.703 46.3882 73.303 44.6779L73.283 44.6579ZM66.3537 42.8475C65.7438 42.9375 65.1538 43.0876 64.5739 43.2876C63.534 43.6477 62.5741 44.1778 61.7042 44.8479C59.5344 46.4982 57.9745 48.9787 57.5246 51.6493C57.5246 51.6993 57.4746 51.7193 57.4446 51.7093C57.4146 51.7093 57.3846 51.6793 57.3846 51.6493C56.6747 47.0984 52.995 43.5477 48.5555 42.8375C48.4755 42.8275 48.4755 42.7075 48.5555 42.6975C48.8655 42.6475 49.1654 42.5875 49.4654 42.5075C51.9651 41.8773 54.1349 40.327 55.5848 38.2666C56.0547 37.6065 56.4447 36.8963 56.7547 36.1362C57.0546 35.4061 57.2746 34.6359 57.3946 33.8457C57.4046 33.7657 57.5246 33.7657 57.5346 33.8457C57.8046 35.5661 58.5045 37.1364 59.4944 38.4767C60.0643 39.2468 60.7243 39.9269 61.4742 40.5171C62.8741 41.6273 64.5439 42.3974 66.3537 42.7075C66.4337 42.7175 66.4337 42.8375 66.3537 42.8475Z" fill="white"/>
</g>
<mask id="mask1_6488_67427" style="mask-type:luminance" maskUnits="userSpaceOnUse" x="52" y="43" width="23" height="40">
<path d="M56.8433 43.1133C56.9533 45.2837 57.0133 47.5642 57.0133 49.9946C57.0133 66.898 54.1136 77.5101 52.3838 82.331L52.8337 82.9111C60.053 82.291 66.7124 79.3804 72.1018 74.5195L72.2418 74.2794C73.6017 66.848 74.3216 58.4563 74.3216 50.0046C74.3216 48.4443 74.2916 46.884 74.2416 45.3237C69.812 44.3535 64.0326 43.4834 56.8533 43.1233L56.8433 43.1133Z" fill="white"/>
</mask>
<g mask="url(#mask1_6488_67427)">
<path d="M67.7933 28.0894C67.3333 27.7094 66.8633 27.3493 66.3734 26.9992C64.1336 25.3889 61.6439 24.1087 58.9841 23.2085C56.7144 13.5066 53.3347 7.0953 49.965 5.43498C46.5954 7.0953 43.2157 13.5066 40.9459 23.2085C40.696 24.2387 40.476 25.2989 40.256 26.3991C40.136 27.0192 40.016 27.6594 39.906 28.2995C39.7661 29.1196 39.6261 29.9498 39.5061 30.8C39.1361 33.2705 38.8261 35.881 38.6062 38.6215C38.4862 40.0418 38.3862 41.5021 38.3162 42.9924C38.2062 45.2528 38.1462 47.5933 38.1462 49.9937C38.1462 52.3942 38.2062 54.7247 38.3162 56.9951C35.5165 56.7451 32.9267 56.425 30.537 56.0349C30.457 54.0445 30.417 52.0341 30.417 50.0037C30.417 47.9733 30.457 45.953 30.537 43.9726C30.607 42.4723 30.687 41.002 30.797 39.5417C30.8969 38.0814 31.0269 36.6411 31.1769 35.2408C31.3069 34.0206 31.4469 32.8204 31.6069 31.6401C31.7669 30.4399 31.9468 29.2597 32.1368 28.1094C32.1868 27.7994 32.2468 27.4793 32.3068 27.1693C33.0567 22.9184 34.0266 18.9676 35.2065 15.4569C38.5262 5.49499 43.1657 0.00390625 48.2652 0.00390625H51.6949C56.7944 0.00390625 61.4339 5.49499 64.7536 15.4569C65.9234 18.9676 66.8933 22.9184 67.6533 27.1693C67.7133 27.4793 67.7633 27.7994 67.8233 28.1094L67.7933 28.0894Z" fill="white"/>
</g>
</svg>
