<svg width="355" height="100" viewBox="0 0 355 100" fill="none" xmlns="http://www.w3.org/2000/svg">
<g clip-path="url(#clip0_6488_56944)">
<path d="M73.3133 44.6774C72.9433 43.0271 72.3934 41.4468 71.6934 39.9465C70.9135 38.2661 69.9436 36.6858 68.8037 35.2355C67.6239 33.7353 66.274 32.385 64.7741 31.2048C63.3243 30.0645 61.7444 29.0943 60.0646 28.3142C58.5648 27.614 56.9849 27.0739 55.3351 26.6939C53.6253 26.2938 51.8354 26.0938 50.0056 26.0938C48.1758 26.0938 46.386 26.2938 44.6762 26.6939C44.4262 27.9241 44.1862 29.2144 43.9762 30.5646C43.5863 32.9651 43.2663 35.5556 43.0163 38.3462C42.8963 39.7464 42.7963 41.2067 42.7164 42.717C42.5964 45.0275 42.5264 47.458 42.5264 50.0185C42.5264 52.579 42.5964 54.9994 42.7164 57.3199C45.0261 57.4399 47.4559 57.5099 50.0156 57.5099C52.5754 57.5099 54.9951 57.4399 57.3149 57.3199C58.8147 57.2399 60.2746 57.1399 61.6745 57.0198C64.4742 56.7698 67.0639 56.4497 69.4637 56.0596C70.8135 55.8396 72.1034 55.6096 73.3333 55.3595C73.7232 53.6492 73.9332 51.8588 73.9332 50.0285C73.9332 48.1981 73.7332 46.4077 73.3333 44.6974L73.3133 44.6774ZM66.384 42.8671C65.774 42.9571 65.1841 43.1071 64.6042 43.3071C63.5643 43.6672 62.6044 44.1973 61.7344 44.8674C59.5647 46.5178 58.0048 48.9983 57.5549 51.6688C57.5549 51.7188 57.5049 51.7388 57.4749 51.7288C57.4449 51.7288 57.4149 51.6988 57.4149 51.6688C56.7049 47.1179 53.0253 43.5672 48.5858 42.857C48.5058 42.847 48.5058 42.727 48.5858 42.717C48.8957 42.667 49.1957 42.607 49.4957 42.527C51.9954 41.8969 54.1652 40.3466 55.6151 38.2861C56.085 37.626 56.475 36.9159 56.7849 36.1557C57.0849 35.4256 57.3049 34.6554 57.4249 33.8653C57.4349 33.7853 57.5549 33.7853 57.5649 33.8653C57.8348 35.5856 58.5348 37.1559 59.5247 38.4962C60.0946 39.2663 60.7545 39.9465 61.5045 40.5366C62.9043 41.6468 64.5742 42.417 66.384 42.727C66.464 42.737 66.464 42.857 66.384 42.8671Z" fill="black"/>
<path d="M99.9903 48.3007V51.7313C99.9903 56.8324 94.5008 61.4733 84.5418 64.7939C81.0322 65.9641 77.0826 66.9343 72.833 67.6945C72.523 67.7545 72.2131 67.8045 71.9031 67.8645C70.7432 68.0546 69.5733 68.2346 68.3634 68.3946C67.1836 68.5547 65.9837 68.6947 64.7738 68.8247C63.3539 68.9747 61.9241 69.1048 60.4642 69.2148C59.0044 69.3148 57.5345 69.4048 56.0347 69.4648C54.0449 69.5449 52.0351 69.5849 50.0053 69.5849C47.9755 69.5849 45.9557 69.5449 43.9759 69.4648C42.476 69.3948 41.0062 69.3148 39.5463 69.2148C38.0865 69.1048 36.6566 68.9847 35.2468 68.8247C34.0269 68.6947 32.837 68.5547 31.6571 68.3946C30.4572 68.2346 29.2773 68.0546 28.1275 67.8645C27.8075 67.8145 27.4975 67.7545 27.1876 67.6945C22.938 66.9443 18.9884 65.9742 15.4787 64.7939C5.51972 61.4733 0.0302734 56.8324 0.0302734 51.7313V48.3007C0.0302734 43.1997 5.51972 38.5588 15.4787 35.2381C18.9884 34.0679 22.938 33.0977 27.1876 32.3375C27.1376 32.7576 27.0876 33.1677 27.0376 33.5978C26.7776 35.7882 26.5776 38.0186 26.4376 40.2991C25.3377 40.5191 24.2778 40.7392 23.248 40.9892C13.5489 43.2697 7.13956 46.6503 5.47973 50.021C7.13956 53.3917 13.5489 56.7723 23.248 59.0428C24.2778 59.2828 25.3377 59.5129 26.4376 59.7329C27.0576 59.8529 27.6875 59.973 28.3374 60.083C29.1574 60.223 29.9873 60.363 30.8372 60.4831C33.3069 60.8531 35.9167 61.1632 38.6564 61.3832C40.0863 61.5033 41.5461 61.6033 43.036 61.6733C45.2957 61.7833 47.6355 61.8433 50.0353 61.8433C52.435 61.8433 54.7648 61.7833 57.0346 61.6733C58.5244 61.6033 59.9843 61.5033 61.4041 61.3832C64.1439 61.1532 66.7536 60.8531 69.2234 60.4831C70.0733 60.353 70.9132 60.223 71.7231 60.083C72.363 59.973 72.993 59.8529 73.6229 59.7329C74.7228 59.5229 75.7827 59.2928 76.8126 59.0528C86.5116 56.7723 92.921 53.3917 94.5808 50.021C92.921 46.6503 86.5116 43.2697 76.8126 40.9992C75.9127 38.3287 74.6328 35.8482 73.023 33.6078C72.673 33.1177 72.313 32.6476 71.9331 32.1875C72.2431 32.2375 72.563 32.2975 72.873 32.3575C77.1226 33.1077 81.0722 34.0779 84.5818 35.2581C94.5408 38.5788 100.03 43.2197 100.03 48.3207L99.9903 48.3007Z" fill="black"/>
<path d="M67.8235 28.1051C67.3636 27.725 66.8936 27.3649 66.4037 27.0148C64.1639 25.4045 61.6741 24.1243 59.0144 23.2241C56.7446 13.5222 53.365 7.11093 49.9953 5.4506C46.6256 7.11093 43.246 13.5222 40.9762 23.2241C40.7262 24.2543 40.5063 25.3145 40.2863 26.4147C40.1663 27.0348 40.0463 27.675 39.9363 28.3151C39.7963 29.1353 39.6563 29.9654 39.5364 30.8156C39.1664 33.2861 38.8564 35.8966 38.6364 38.6371C38.5165 40.0574 38.4165 41.5177 38.3465 43.008C38.2365 45.2684 38.1765 47.6089 38.1765 50.0094C38.1765 52.4098 38.2365 54.7403 38.3465 57.0108C35.5468 56.7607 32.957 56.4406 30.5673 56.0506C30.4873 54.0602 30.4473 52.0498 30.4473 50.0194C30.4473 47.989 30.4873 45.9686 30.5673 43.9882C30.6372 42.4879 30.7172 41.0176 30.8272 39.5573C30.9272 38.097 31.0572 36.6567 31.2072 35.2565C31.3372 34.0362 31.4772 32.836 31.6371 31.6558C31.7971 30.4555 31.9771 29.2753 32.1671 28.1251C32.2171 27.815 32.2771 27.4949 32.3371 27.1849C33.087 22.934 34.0569 18.9833 35.2368 15.4726C38.5565 5.51061 43.196 0.0195312 48.2955 0.0195312H51.7251C56.8246 0.0195312 61.4642 5.51061 64.7838 15.4726C65.9537 18.9833 66.9236 22.934 67.6835 27.1849C67.7435 27.4949 67.7935 27.815 67.8535 28.1251L67.8235 28.1051Z" fill="black"/>
<path d="M67.6638 72.8555C66.9139 77.1063 65.944 81.0571 64.7641 84.5678C61.4445 94.5297 56.8049 100.021 51.7054 100.021H48.2758C43.1763 100.021 38.5368 94.5297 35.2171 84.5678C34.0472 81.0571 33.0773 77.1063 32.3174 72.8555C32.7373 72.9055 33.1473 72.9555 33.5773 73.0055C35.767 73.2656 37.9968 73.4656 40.2766 73.6056C40.4966 74.7058 40.7165 75.766 40.9665 76.7962C43.2363 86.4982 46.616 92.9094 49.9856 94.5697C53.3553 92.9094 56.7349 86.4982 59.0147 76.7962C59.2547 75.766 59.4847 74.7058 59.6946 73.6056C61.9744 73.4556 64.2142 73.2555 66.394 73.0055C66.8139 72.9655 67.2339 72.9055 67.6539 72.8555H67.6638Z" fill="black"/>
<mask id="mask0_6488_56944" style="mask-type:luminance" maskUnits="userSpaceOnUse" x="52" y="17" width="21" height="11">
<path d="M72.5523 27.4436C72.4523 26.8735 72.3623 26.2934 72.2623 25.7333L72.1223 25.4932C66.7329 20.6223 60.0735 17.7217 52.8543 17.1016L52.4043 17.6817C53.0642 19.522 53.8941 22.2026 54.6641 25.7433C60.8734 25.9433 66.9428 26.5134 72.5423 27.4536L72.5523 27.4436Z" fill="white"/>
</mask>
<g mask="url(#mask0_6488_56944)">
<path d="M73.3133 44.6774C72.9433 43.0271 72.3934 41.4468 71.6934 39.9465C70.9135 38.2661 69.9436 36.6858 68.8037 35.2355C67.6239 33.7353 66.274 32.385 64.7741 31.2048C63.3243 30.0645 61.7444 29.0943 60.0646 28.3142C58.5648 27.614 56.9849 27.0739 55.3351 26.6939C53.6253 26.2938 51.8354 26.0938 50.0056 26.0938C48.1758 26.0938 46.386 26.2938 44.6762 26.6939C44.4262 27.9241 44.1862 29.2144 43.9762 30.5646C43.5863 32.9651 43.2663 35.5556 43.0163 38.3462C42.8963 39.7464 42.7963 41.2067 42.7164 42.717C42.5964 45.0275 42.5264 47.458 42.5264 50.0185C42.5264 52.579 42.5964 54.9994 42.7164 57.3199C45.0261 57.4399 47.4559 57.5099 50.0156 57.5099C52.5754 57.5099 54.9951 57.4399 57.3149 57.3199C58.8147 57.2399 60.2746 57.1399 61.6745 57.0198C64.4742 56.7698 67.0639 56.4497 69.4637 56.0596C70.8135 55.8396 72.1034 55.6096 73.3333 55.3595C73.7232 53.6492 73.9332 51.8588 73.9332 50.0285C73.9332 48.1981 73.7332 46.4077 73.3333 44.6974L73.3133 44.6774ZM66.384 42.8671C65.774 42.9571 65.1841 43.1071 64.6042 43.3071C63.5643 43.6672 62.6044 44.1973 61.7344 44.8674C59.5647 46.5178 58.0048 48.9983 57.5549 51.6688C57.5549 51.7188 57.5049 51.7388 57.4749 51.7288C57.4449 51.7288 57.4149 51.6988 57.4149 51.6688C56.7049 47.1179 53.0253 43.5672 48.5858 42.857C48.5058 42.847 48.5058 42.727 48.5858 42.717C48.8957 42.667 49.1957 42.607 49.4957 42.527C51.9954 41.8969 54.1652 40.3466 55.6151 38.2861C56.085 37.626 56.475 36.9159 56.7849 36.1557C57.0849 35.4256 57.3049 34.6554 57.4249 33.8653C57.4349 33.7853 57.5549 33.7853 57.5649 33.8653C57.8348 35.5856 58.5348 37.1559 59.5247 38.4962C60.0946 39.2663 60.7545 39.9465 61.5045 40.5366C62.9043 41.6468 64.5742 42.417 66.384 42.727C66.464 42.737 66.464 42.857 66.384 42.8671Z" fill="black"/>
</g>
<mask id="mask1_6488_56944" style="mask-type:luminance" maskUnits="userSpaceOnUse" x="52" y="43" width="23" height="40">
<path d="M56.8736 43.1328C56.9836 45.3032 57.0436 47.5837 57.0436 50.0142C57.0436 66.9175 54.1439 77.5296 52.4141 82.3505L52.864 82.9307C60.0833 82.3105 66.7426 79.4 72.1321 74.539L72.2721 74.2989C73.6319 66.8675 74.3519 58.4758 74.3519 50.0242C74.3519 48.4639 74.3219 46.9036 74.2719 45.3433C69.8423 44.3731 64.0629 43.5029 56.8836 43.1428L56.8736 43.1328Z" fill="white"/>
</mask>
<g mask="url(#mask1_6488_56944)">
<path d="M67.8235 28.109C67.3636 27.7289 66.8936 27.3688 66.4037 27.0188C64.1639 25.4084 61.6741 24.1282 59.0144 23.228C56.7446 13.5261 53.365 7.11483 49.9953 5.45451C46.6256 7.11483 43.246 13.5261 40.9762 23.228C40.7262 24.2582 40.5063 25.3184 40.2863 26.4186C40.1663 27.0388 40.0463 27.6789 39.9363 28.319C39.7963 29.1392 39.6563 29.9693 39.5364 30.8195C39.1664 33.29 38.8564 35.9005 38.6364 38.641C38.5165 40.0613 38.4165 41.5216 38.3465 43.0119C38.2365 45.2723 38.1765 47.6128 38.1765 50.0133C38.1765 52.4138 38.2365 54.7442 38.3465 57.0147C35.5468 56.7646 32.957 56.4445 30.5673 56.0545C30.4873 54.0641 30.4473 52.0537 30.4473 50.0233C30.4473 47.9929 30.4873 45.9725 30.5673 43.9921C30.6372 42.4918 30.7172 41.0215 30.8272 39.5612C30.9272 38.1009 31.0572 36.6607 31.2072 35.2604C31.3372 34.0401 31.4772 32.8399 31.6371 31.6597C31.7971 30.4594 31.9771 29.2792 32.1671 28.129C32.2171 27.8189 32.2771 27.4988 32.3371 27.1888C33.087 22.9379 34.0569 18.9872 35.2368 15.4765C38.5565 5.51452 43.196 0.0234375 48.2955 0.0234375H51.7251C56.8246 0.0234375 61.4642 5.51452 64.7838 15.4765C65.9537 18.9872 66.9236 22.9379 67.6835 27.1888C67.7435 27.4988 67.7935 27.8189 67.8535 28.129L67.8235 28.109Z" fill="black"/>
</g>
<path d="M343.027 70.0502C338.814 70.0502 335.683 68.0006 333.747 64.4137V69.4809H327.199V29H333.918V45.7959C335.853 42.3798 338.928 40.444 343.027 40.444C349.632 40.444 354.984 45.5112 354.984 55.2471C354.984 64.983 349.632 70.0502 343.027 70.0502ZM333.918 56.4997C333.918 61.6238 336.48 64.8122 340.921 64.8122C345.305 64.8122 348.094 61.7377 348.094 55.9303V54.5069C348.094 48.8704 345.305 45.9097 340.921 45.9097C336.48 45.9097 333.918 49.0412 333.918 53.9376V56.4997Z" fill="black"/>
<path d="M303.564 70.0486C298.155 70.0486 294.17 66.4048 294.17 59.2879V41.0117H300.888V58.6047C300.888 62.4193 302.767 64.4121 306.297 64.4121C309.941 64.4121 312.617 62.2485 312.617 57.0674V41.0117H319.335V69.4793H312.731V64.2982C310.909 67.4866 308.119 70.0486 303.564 70.0486Z" fill="black"/>
<path d="M254.313 69.4815V30.7656H261.032V46.5367H279.65V30.7656H286.368V69.4815H279.65V52.7426H261.032V69.4815H254.313Z" fill="black"/>
<path d="M217.63 80.8663L221.273 68.9099H217.06L208.064 41.0117H215.067L220.476 58.4339L222.412 65.1522H222.526L224.462 58.4339L229.7 41.0117H236.646L224.405 80.8663H217.63Z" fill="black"/>
<path d="M192.582 70.0502C188.369 70.0502 185.237 68.0006 183.301 64.4137V69.4809H176.754V29H183.472V45.7959C185.408 42.3798 188.483 40.444 192.582 40.444C199.186 40.444 204.538 45.5112 204.538 55.2471C204.538 64.983 199.186 70.0502 192.582 70.0502ZM183.472 56.4997C183.472 61.6238 186.034 64.8122 190.475 64.8122C194.859 64.8122 197.649 61.7377 197.649 55.9303V54.5069C197.649 48.8704 194.859 45.9097 190.475 45.9097C186.034 45.9097 183.472 49.0412 183.472 53.9376V56.4997Z" fill="black"/>
<path d="M161.355 69.4809V29H168.074V63.9012H170.636V69.4809H161.355Z" fill="black"/>
<path d="M142.628 30.7656L155.382 69.4815H148.322L144.905 58.8347H129.419L126.06 69.4815H119L131.81 30.7656H142.628ZM131.355 52.6857H142.97L139.212 40.957L137.219 34.2956H137.105L135.113 40.957L131.355 52.6857Z" fill="black"/>
</g>
<defs>
<clipPath id="clip0_6488_56944">
<rect width="355" height="100" fill="white"/>
</clipPath>
</defs>
</svg>
