<svg width="121" height="56" viewBox="0 0 121 56" fill="none" xmlns="http://www.w3.org/2000/svg">
<mask id="path-1-outside-1_2006_16094" maskUnits="userSpaceOnUse" x="-0.257812" y="0.719864" width="121" height="56" fill="black">
<rect fill="white" x="-0.257812" y="0.719864" width="121" height="56"/>
<path d="M112.694 2.71986H7.31942C4.2392 2.71986 1.74219 5.21688 1.74219 8.29709V43.5382C1.74219 46.6184 4.2392 49.1154 7.31942 49.1154H91.9309L93.3182 52.3224C93.9188 53.7104 95.424 54.4724 96.8985 54.1346C98.2436 53.8265 99.5396 53.3514 100.782 52.7163C102.06 52.063 103.213 51.2512 104.221 50.2731C104.597 49.9085 104.944 49.5227 105.259 49.1154H112.694C115.774 49.1154 118.271 46.6184 118.271 43.5382V8.29709C118.271 5.21688 115.774 2.71986 112.694 2.71986Z"/>
</mask>
<path d="M112.694 2.71986H7.31942C4.2392 2.71986 1.74219 5.21688 1.74219 8.29709V43.5382C1.74219 46.6184 4.2392 49.1154 7.31942 49.1154H91.9309L93.3182 52.3224C93.9188 53.7104 95.424 54.4724 96.8985 54.1346C98.2436 53.8265 99.5396 53.3514 100.782 52.7163C102.06 52.063 103.213 51.2512 104.221 50.2731C104.597 49.9085 104.944 49.5227 105.259 49.1154H112.694C115.774 49.1154 118.271 46.6184 118.271 43.5382V8.29709C118.271 5.21688 115.774 2.71986 112.694 2.71986Z" fill="white"/>
<path d="M93.3182 52.3224L91.7186 53.0143L91.7187 53.0145L93.3182 52.3224ZM96.8985 54.1346L97.2877 55.8335L97.2877 55.8335L96.8985 54.1346ZM100.782 52.7163L101.575 54.2682L101.576 54.2681L100.782 52.7163ZM104.221 50.2731L105.435 51.5237L105.435 51.5236L104.221 50.2731ZM105.259 49.1154V47.3726C104.72 47.3726 104.211 47.6221 103.881 48.0485L105.259 49.1154ZM91.9309 49.1154L93.5306 48.4235C93.2546 47.7855 92.626 47.3726 91.9309 47.3726V49.1154ZM7.31942 4.46275H112.694V0.976979H7.31942V4.46275ZM116.529 8.29709V43.5382H120.014V8.29709H116.529ZM3.48507 43.5382V8.29709H-0.000697374V43.5382H3.48507ZM7.31942 47.3726C5.20177 47.3726 3.48507 45.6559 3.48507 43.5382H-0.000697374C-0.000697374 47.581 3.27663 50.8583 7.31942 50.8583V47.3726ZM116.529 43.5382C116.529 45.6559 114.812 47.3726 112.694 47.3726V50.8583C116.737 50.8583 120.014 47.581 120.014 43.5382H116.529ZM112.694 4.46275C114.812 4.46275 116.529 6.17944 116.529 8.29709H120.014C120.014 4.25431 116.737 0.976979 112.694 0.976979V4.46275ZM7.31942 0.976979C3.27663 0.976979 -0.000697374 4.25431 -0.000697374 8.29709H3.48507C3.48507 6.17944 5.20177 4.46275 7.31942 4.46275V0.976979ZM91.7187 53.0145C92.6529 55.1736 94.9943 56.3588 97.2877 55.8335L96.5093 52.4357C95.8537 52.5859 95.1848 52.2472 94.9178 51.6302L91.7187 53.0145ZM97.2877 55.8335C98.7767 55.4924 100.208 54.967 101.575 54.2682L99.9892 51.1643C98.8712 51.7357 97.7106 52.1605 96.5093 52.4357L97.2877 55.8335ZM101.576 54.2681C102.998 53.5413 104.295 52.6304 105.435 51.5237L103.007 49.0224C102.132 49.8719 101.123 50.5848 99.989 51.1644L101.576 54.2681ZM105.435 51.5236C105.866 51.1053 106.269 50.6585 106.637 50.1824L103.881 48.0485C103.619 48.387 103.327 48.7118 103.007 49.0225L105.435 51.5236ZM112.694 47.3726H105.259V50.8583H112.694V47.3726ZM91.9309 47.3726H7.31942V50.8583H91.9309V47.3726ZM90.3313 49.8074L91.7186 53.0143L94.9179 51.6304L93.5306 48.4235L90.3313 49.8074Z" fill="black" mask="url(#path-1-outside-1_2006_16094)"/>
<path fill-rule="evenodd" clip-rule="evenodd" d="M49.0941 17.4229C47.7862 17.4229 46.6157 18.2341 46.1566 19.4585L37.5004 42.5413C37.1393 43.5048 37.2735 44.584 37.8594 45.4296C38.4454 46.2756 39.4089 46.78 40.4379 46.78H46.5819C47.9145 46.78 49.1014 45.9385 49.5423 44.6812L50.4016 42.2314H53.9083L54.848 44.9928C55.3183 46.3746 56.6795 47.2499 58.1316 47.1038L64.208 46.4928C64.2261 46.4907 64.2446 46.4889 64.2628 46.4868C64.6657 46.6747 65.1154 46.78 65.5891 46.78H71.7673C72.3909 46.78 72.9719 46.598 73.4603 46.2843C73.9487 46.598 74.5301 46.78 75.1537 46.78H78.2766C78.7921 46.78 79.2944 46.6531 79.742 46.4168C79.9494 46.5029 80.1599 46.5817 80.3733 46.6531C80.383 46.6562 80.3928 46.6594 80.4022 46.6625C81.4096 46.9874 82.447 47.1533 83.5042 47.1533C85.6375 47.1533 87.6568 46.7511 89.4659 45.8326C90.275 45.4272 91.0084 44.9315 91.663 44.3515C91.4817 44.5822 91.3322 44.8388 91.2203 45.1155C90.9059 45.8939 90.9167 46.7657 91.2499 47.5361L93.3205 52.3224C93.9211 53.7104 95.4262 54.4724 96.9007 54.1346C98.2459 53.8265 99.5419 53.3514 100.785 52.7163C102.062 52.063 103.216 51.2512 104.223 50.2731C105.272 49.2549 106.102 48.0711 106.625 46.7159L106.63 46.704L113.852 28.3269C114.231 27.3611 114.109 26.2702 113.524 25.4127C112.94 24.5553 111.97 24.0422 110.932 24.0422H104.788C103.444 24.0422 102.249 24.8984 101.817 26.1711L101.633 26.7147L101.242 25.5611C100.704 23.9763 99.0176 23.0922 97.4086 23.5519L91.7059 25.1813C91.4235 25.262 91.1565 25.381 90.9118 25.5331C90.4656 25.2177 89.9891 24.937 89.483 24.693C87.9297 23.944 86.2419 23.5588 84.4687 23.4803V19.6775C84.4687 18.8126 84.1118 17.9861 83.4819 17.3933C82.852 16.8004 82.0057 16.4939 81.1422 16.546L74.9644 16.9194C74.528 16.9458 74.1174 17.0604 73.7486 17.2452C73.1407 16.7498 72.3661 16.4984 71.578 16.546L65.3998 16.9194C63.7437 17.0195 62.4519 18.3918 62.4519 20.0509V30.683L58.2066 19.4509C57.7454 18.2304 56.5766 17.4229 55.2719 17.4229H49.0941ZM94.1815 40.9657C94.0769 41.1846 93.9646 41.4001 93.8447 41.612C93.4052 42.4054 92.8816 43.1227 92.2779 43.7578C92.4762 43.6128 92.6923 43.4905 92.9224 43.3946C93.4261 43.1848 93.9556 42.9519 94.5119 42.6954C94.5252 42.6891 94.5387 42.6828 94.5523 42.6769C94.6391 42.6382 94.7231 42.5995 94.8037 42.5612L94.1815 40.9657Z" fill="white"/>
<path d="M49.0898 20.5601H55.2676L63.8897 43.3712L57.8136 43.9823L56.1502 39.0942H48.173L46.5776 43.6428H40.4336L49.0898 20.5601ZM54.385 34.2399L52.0768 27.9601L49.8706 34.2399H54.385Z" fill="black"/>
<path d="M71.7641 43.6428H65.5859V20.0509L71.7641 19.6775V43.6428Z" fill="black"/>
<path d="M78.2713 43.6428H75.1484V20.0509L81.3263 19.6775V27.0436C81.7111 26.9078 82.1071 26.806 82.5146 26.7381C82.9217 26.6476 83.3403 26.6023 83.7705 26.6023C85.3997 26.6023 86.8481 26.9078 88.1155 27.5188C89.3826 28.1299 90.3785 29.069 91.1025 30.3363C91.8495 31.6036 92.2228 33.2216 92.2228 35.1905C92.2228 37.1366 91.8495 38.7658 91.1025 40.0786C90.3785 41.391 89.3599 42.3754 88.0475 43.0317C86.7574 43.6881 85.2415 44.0161 83.4989 44.0161C82.7746 44.0161 82.0618 43.9032 81.3604 43.6766C80.6814 43.4504 80.0024 43.0882 79.3237 42.5904L78.2713 43.6428ZM82.8199 31.3546C82.3675 31.3546 81.8693 31.5244 81.3263 31.8638V38.7885C81.9373 39.1054 82.5257 39.264 83.0915 39.264C83.8608 39.264 84.506 38.9129 85.0264 38.2116C85.5695 37.4873 85.841 36.4917 85.841 35.2243C85.841 33.9572 85.5807 32.9953 85.0602 32.339C84.5398 31.6828 83.7931 31.3546 82.8199 31.3546Z" fill="black"/>
<path d="M98.3332 43.7108L98.4691 43.3374L92.5625 28.1977L98.2656 26.5684L101.626 36.4802L104.783 27.1794H110.927L103.697 45.5777C103.357 46.4603 102.803 47.275 102.033 48.0216C101.264 48.7686 100.37 49.4023 99.3517 49.9228C98.3332 50.4432 97.2812 50.828 96.1947 51.0769L94.1241 46.2906C94.6672 46.0644 95.2329 45.8151 95.8213 45.5436C96.4324 45.272 96.9755 44.9778 97.4506 44.661C97.9261 44.3445 98.2203 44.0276 98.3332 43.7108Z" fill="black"/>
<path d="M33.623 42.8045C38.3075 42.8045 40.4394 32.4551 40.4394 28.531C40.4394 25.4723 38.3242 23.6187 35.5436 23.6187C32.7802 23.6187 30.5367 24.8043 30.5089 26.2726C30.5088 30.1475 29.8253 42.8045 33.623 42.8045Z" fill="white"/>
<path d="M16.5704 42.8045C11.886 42.8045 9.75391 32.4551 9.75391 28.531C9.75391 25.4723 11.8691 23.6187 14.6498 23.6187C17.4133 23.6187 19.6567 24.8043 19.6846 26.2726C19.6847 30.1475 20.3681 42.8045 16.5704 42.8045Z" fill="white"/>
<path d="M33.623 42.8045C38.3075 42.8045 40.4394 32.4551 40.4394 28.531C40.4394 25.4723 38.3242 23.6187 35.5436 23.6187C32.7802 23.6187 30.5367 24.8043 30.5089 26.2726C30.5088 30.1475 29.8253 42.8045 33.623 42.8045Z" stroke="black" stroke-width="1.38839"/>
<path d="M16.5704 42.8045C11.886 42.8045 9.75391 32.4551 9.75391 28.531C9.75391 25.4723 11.8691 23.6187 14.6498 23.6187C17.4133 23.6187 19.6567 24.8043 19.6846 26.2726C19.6847 30.1475 20.3681 42.8045 16.5704 42.8045Z" stroke="black" stroke-width="1.38839"/>
<path d="M24.8721 30.4134C29.2159 30.4134 33.2849 29.2278 36.7709 27.1619C36.8699 27.1031 36.9766 27.1105 37.0532 27.1536C37.0902 27.1744 37.1122 27.1993 37.1237 27.2201C37.1334 27.2377 37.1432 27.2646 37.1383 27.3116C36.5987 32.6534 33.7017 37.069 29.8078 39.1015C28.5204 39.7733 27.6358 40.9403 26.8589 41.9651C26.8449 41.9836 26.8309 42.0021 26.8169 42.0205C26.1855 42.8529 25.6151 43.5978 24.9183 44.1468C24.2215 43.5978 23.6512 42.8529 23.0197 42.0205C23.0058 42.0021 22.9918 41.9836 22.9778 41.9651C22.2009 40.9403 21.3162 39.7733 20.0288 39.1015C16.1494 37.0767 13.2596 32.6862 12.7044 27.3707C12.6996 27.3238 12.7091 27.2968 12.7187 27.2792C12.7301 27.2584 12.752 27.2334 12.7888 27.2125C12.8651 27.1691 12.9718 27.1613 13.0711 27.2195C16.5353 29.2498 20.5688 30.4134 24.8721 30.4134Z" fill="#FFDF6F" stroke="black" stroke-width="1.38839"/>
<path d="M24.964 31.2929C31.7117 31.2929 37.1818 29.4695 37.1818 27.2202C37.1818 24.971 31.7117 23.1476 24.964 23.1476C18.2162 23.1476 12.7461 24.971 12.7461 27.2202C12.7461 29.4695 18.2162 31.2929 24.964 31.2929Z" fill="black" stroke="black" stroke-width="1.38839"/>
<path d="M15.1523 34.0695C15.1523 34.0695 21.1787 36.1059 25.0562 36.1059C28.9337 36.1059 34.9601 34.0695 34.9601 34.0695" stroke="black" stroke-width="1.38839" stroke-linecap="round"/>
<path d="M10.7031 9.80489C10.7031 11.3307 11.94 12.5676 13.4658 12.5676C14.9916 12.5676 16.2285 11.3307 16.2285 9.80489C16.2285 8.2791 14.9916 7.04221 13.4658 7.04221C11.94 7.04221 10.7031 8.2791 10.7031 9.80489Z" fill="black"/>
<path d="M38.795 9.80489C38.795 11.3307 37.5579 12.5676 36.0322 12.5676C34.5064 12.5676 33.2695 11.3307 33.2695 9.80489C33.2695 8.2791 34.5064 7.04221 36.0322 7.04221C37.5579 7.04221 38.795 8.2791 38.795 9.80489Z" fill="black"/>
<path d="M36.5406 9.3905L31.3835 14.5475M13.0117 9.3905L18.1687 14.5475L13.0117 9.3905Z" stroke="black" stroke-width="1.38134"/>
<path d="M14.2538 26.2906C12.7648 25.5818 11.8983 23.9899 12.1885 22.3666C13.4345 15.399 18.6267 10.1732 24.8427 10.1732C31.0738 10.1732 36.2763 15.4244 37.5057 22.4172C37.7919 24.0435 36.9183 25.6346 35.4241 26.3377C32.2271 27.8422 28.6561 28.6832 24.8887 28.6832C21.0822 28.6832 17.4762 27.8247 14.2538 26.2906Z" fill="#FFDF6F" stroke="black" stroke-width="1.38134"/>
<path d="M16.9103 24.5584C15.7118 24.0703 15.0008 22.795 15.4161 21.5694C16.6969 17.7894 20.433 15.054 24.8425 15.054C29.2519 15.054 32.988 17.7894 34.2688 21.5694C34.6841 22.795 33.9731 24.0703 32.7746 24.5584C30.3266 25.5554 27.6487 26.1047 24.8425 26.1047C22.0362 26.1047 19.3583 25.5554 16.9103 24.5584Z" fill="black"/>
<path d="M30.3272 20.9477C30.3271 21.9649 29.2964 22.7895 28.0249 22.7895C26.7534 22.7895 25.7227 21.9649 25.7227 20.9477C25.7227 19.9305 26.7534 19.106 28.0249 19.106C29.2964 19.106 30.3272 19.9305 30.3272 20.9477Z" fill="white"/>
<path d="M23.7295 20.9488C23.7295 21.966 22.6987 22.7906 21.4272 22.7906C20.1557 22.7906 19.125 21.966 19.125 20.9488C19.125 19.9316 20.1557 19.107 21.4272 19.107C22.6987 19.107 23.7295 19.9316 23.7295 20.9488Z" fill="white"/>
<path d="M47.2186 16.4736V14.5549H48.1489C48.5042 14.5549 48.8466 14.5097 49.1761 14.4192C49.512 14.3288 49.8124 14.1899 50.0773 14.0026C50.3421 13.8152 50.5521 13.5762 50.7071 13.2855C50.8622 12.9947 50.9397 12.6524 50.9397 12.2583C50.9397 11.7285 50.8137 11.2892 50.5618 10.9404C50.3163 10.5851 49.9868 10.3202 49.5734 10.1458C49.1664 9.97133 48.7174 9.88412 48.2264 9.88412H45.4549V16.4736H47.2186ZM48.1682 11.2699C48.3685 11.2699 48.5365 11.3118 48.6721 11.3958C48.8143 11.4798 48.9241 11.5961 49.0016 11.7447C49.0791 11.8933 49.1179 12.0645 49.1179 12.2583C49.1179 12.4262 49.0759 12.5813 48.9919 12.7234C48.9144 12.8591 48.8046 12.9689 48.6625 13.0529C48.5268 13.1304 48.3685 13.1692 48.1876 13.1692H47.2186V11.2699H48.1682ZM54.8257 16.6093C54.128 16.6093 53.524 16.4575 53.0136 16.1538C52.5033 15.8502 52.1092 15.44 51.8314 14.9231C51.5601 14.4063 51.4244 13.8346 51.4244 13.2079C51.4244 12.5296 51.5697 11.932 51.8605 11.4152C52.1512 10.8919 52.5517 10.4849 53.0621 10.1942C53.5789 9.89704 54.1668 9.74845 54.8257 9.74845C55.5428 9.74845 56.1533 9.90027 56.6572 10.2039C57.1676 10.5075 57.5584 10.9145 57.8298 11.4249C58.1011 11.9353 58.2368 12.507 58.2368 13.1401C58.2368 13.8184 58.0914 14.4192 57.8007 14.9425C57.5164 15.4658 57.1159 15.876 56.5991 16.1732C56.0887 16.4639 55.4976 16.6093 54.8257 16.6093ZM54.816 15.1363C55.1197 15.1363 55.391 15.062 55.63 14.9135C55.8755 14.7649 56.0693 14.542 56.2115 14.2448C56.3536 13.9476 56.4247 13.5794 56.4247 13.1401C56.4247 12.7719 56.36 12.4456 56.2308 12.1614C56.1081 11.8707 55.9272 11.6413 55.6882 11.4734C55.4556 11.3054 55.1746 11.2214 54.8451 11.2214C54.5544 11.2214 54.2863 11.3054 54.0408 11.4734C53.7953 11.6349 53.5983 11.8642 53.4497 12.1614C53.3076 12.4521 53.2365 12.7977 53.2365 13.1982C53.2365 13.5665 53.2979 13.8992 53.4206 14.1964C53.5498 14.4871 53.7307 14.7164 53.9633 14.8844C54.2023 15.0524 54.4866 15.1363 54.816 15.1363ZM68.1181 9.88412L66.2284 16.4736H64.4648L63.3794 12.3358L62.3619 16.4736H60.5983L58.6214 9.96164L60.356 9.78721L61.5092 14.3611L62.4976 9.88412H64.2516L65.3757 14.3611L66.3641 9.88412H68.1181ZM73.816 16.4736L73.6513 15.0879H70.7539V13.8572H72.9439L72.7792 12.4715H70.7539V11.2699H73.5253L73.3606 9.88412H68.9902V16.4736H73.816ZM77.4951 11.2699C77.6953 11.2699 77.8633 11.3022 77.999 11.3668C78.1411 11.4249 78.2509 11.5186 78.3285 11.6478C78.406 11.777 78.4447 11.9385 78.4447 12.1323C78.4447 12.3003 78.4027 12.4521 78.3188 12.5878C78.2412 12.7234 78.1314 12.83 77.9893 12.9075C77.8536 12.9786 77.6953 13.0141 77.5145 13.0141H76.5454V11.2699H77.4951ZM74.7818 9.88412V16.4736H76.5454V14.3999H77.1365C77.2334 14.3999 77.3303 14.3999 77.4272 14.3999C77.5241 14.3999 77.621 14.3999 77.718 14.3999L78.7839 16.4736H80.8286L79.375 13.8766C79.6399 13.6957 79.8531 13.4599 80.0146 13.1692C80.1826 12.8785 80.2665 12.5328 80.2665 12.1323C80.2665 11.6026 80.1406 11.1729 79.8886 10.8435C79.6431 10.514 79.3136 10.2717 78.9002 10.1167C78.4932 9.96164 78.0442 9.88412 77.5532 9.88412H74.7818ZM86.5253 16.4736L86.3605 15.0879H83.4631V13.8572H85.6531L85.4884 12.4715H83.4631V11.2699H86.2346L86.0698 9.88412H81.6994V16.4736H86.5253ZM90.4369 16.4736C91.0571 16.4736 91.603 16.338 92.0746 16.0666C92.5462 15.7953 92.9144 15.4109 93.1793 14.9135C93.4506 14.416 93.5863 13.8249 93.5863 13.1401C93.5863 12.5135 93.4668 11.9579 93.2277 11.4734C92.9952 10.9824 92.6463 10.5948 92.1812 10.3105C91.7225 10.0262 91.154 9.88412 90.4756 9.88412H87.491V16.4736H90.4369ZM90.3884 11.2699C90.6856 11.2699 90.9343 11.3506 91.1346 11.5121C91.3413 11.6736 91.4964 11.8965 91.5997 12.1808C91.7096 12.4585 91.7645 12.7783 91.7645 13.1401C91.7645 13.5729 91.6999 13.9347 91.5707 14.2254C91.4415 14.5161 91.267 14.7326 91.0474 14.8747C90.8342 15.0168 90.5919 15.0879 90.3206 15.0879H89.2546V11.2699H90.3884ZM99.2744 16.4736C99.6297 16.4736 99.9721 16.4413 100.302 16.3767C100.638 16.3121 100.938 16.2055 101.203 16.0569C101.468 15.9083 101.678 15.7081 101.833 15.4561C101.988 15.1977 102.065 14.8812 102.065 14.5065C102.065 14.1899 101.981 13.9024 101.813 13.644C101.652 13.3791 101.442 13.1563 101.183 12.9754C101.332 12.8268 101.471 12.6556 101.6 12.4618C101.729 12.268 101.794 12.0419 101.794 11.7834C101.794 11.3312 101.668 10.9662 101.416 10.6884C101.164 10.4106 100.831 10.2071 100.418 10.0779C100.011 9.94872 99.5651 9.88412 99.0806 9.88412H96.784V16.4736H99.2744ZM99.0225 11.2699C99.2227 11.2699 99.3907 11.2925 99.5264 11.3377C99.6685 11.3829 99.7783 11.4507 99.8558 11.5412C99.9334 11.6252 99.9721 11.735 99.9721 11.8707C99.9721 11.9869 99.9237 12.0838 99.8268 12.1614C99.7299 12.2324 99.6039 12.2873 99.4488 12.3261C99.2938 12.3649 99.1258 12.3843 98.9449 12.3843H98.5476V11.2699H99.0225ZM99.2938 13.77C99.591 13.77 99.8235 13.8314 99.9915 13.9541C100.159 14.0768 100.243 14.248 100.243 14.4677C100.243 14.6034 100.201 14.7196 100.117 14.8166C100.04 14.907 99.9301 14.9748 99.788 15.0201C99.6523 15.0653 99.4941 15.0879 99.3132 15.0879H98.5476V13.77H99.2938ZM106.208 16.4736V13.896L108.495 9.88412H106.683L105.317 12.2583L104.038 9.74845L102.351 10.2136L104.445 13.8766V16.4736H106.208Z" fill="black"/>
</svg>
