<svg width="121" height="56" viewBox="0 0 121 56" fill="none" xmlns="http://www.w3.org/2000/svg">
<mask id="path-1-outside-1_2006_16142" maskUnits="userSpaceOnUse" x="-0.257812" y="0.696861" width="121" height="56" fill="black">
<rect fill="white" x="-0.257812" y="0.696861" width="121" height="56"/>
<path d="M112.694 2.69686H7.31942C4.2392 2.69686 1.74219 5.19387 1.74219 8.27409V43.5152C1.74219 46.5954 4.2392 49.0924 7.31942 49.0924H91.9309L93.3182 52.2994C93.9188 53.6874 95.424 54.4494 96.8985 54.1116C98.2436 53.8035 99.5396 53.3284 100.782 52.6932C102.06 52.04 103.213 51.2282 104.221 50.2501C104.597 49.8855 104.944 49.4997 105.259 49.0924H112.694C115.774 49.0924 118.271 46.5954 118.271 43.5152V8.27409C118.271 5.19387 115.774 2.69686 112.694 2.69686Z"/>
</mask>
<path d="M112.694 2.69686H7.31942C4.2392 2.69686 1.74219 5.19387 1.74219 8.27409V43.5152C1.74219 46.5954 4.2392 49.0924 7.31942 49.0924H91.9309L93.3182 52.2994C93.9188 53.6874 95.424 54.4494 96.8985 54.1116C98.2436 53.8035 99.5396 53.3284 100.782 52.6932C102.06 52.04 103.213 51.2282 104.221 50.2501C104.597 49.8855 104.944 49.4997 105.259 49.0924H112.694C115.774 49.0924 118.271 46.5954 118.271 43.5152V8.27409C118.271 5.19387 115.774 2.69686 112.694 2.69686Z" fill="white"/>
<path d="M93.3182 52.2994L91.7186 52.9913L91.7187 52.9915L93.3182 52.2994ZM96.8985 54.1116L97.2877 55.8105L97.2877 55.8105L96.8985 54.1116ZM100.782 52.6932L101.575 54.2452L101.576 54.2451L100.782 52.6932ZM104.221 50.2501L105.435 51.5007L105.435 51.5006L104.221 50.2501ZM105.259 49.0924V47.3496C104.72 47.3496 104.211 47.5991 103.881 48.0255L105.259 49.0924ZM91.9309 49.0924L93.5306 48.4005C93.2546 47.7625 92.626 47.3496 91.9309 47.3496V49.0924ZM7.31942 4.43975H112.694V0.953976H7.31942V4.43975ZM116.529 8.27409V43.5152H120.014V8.27409H116.529ZM3.48507 43.5152V8.27409H-0.000697374V43.5152H3.48507ZM7.31942 47.3496C5.20177 47.3496 3.48507 45.6329 3.48507 43.5152H-0.000697374C-0.000697374 47.558 3.27663 50.8353 7.31942 50.8353V47.3496ZM116.529 43.5152C116.529 45.6329 114.812 47.3496 112.694 47.3496V50.8353C116.737 50.8353 120.014 47.558 120.014 43.5152H116.529ZM112.694 4.43975C114.812 4.43975 116.529 6.15644 116.529 8.27409H120.014C120.014 4.2313 116.737 0.953976 112.694 0.953976V4.43975ZM7.31942 0.953976C3.27663 0.953976 -0.000697374 4.2313 -0.000697374 8.27409H3.48507C3.48507 6.15644 5.20177 4.43975 7.31942 4.43975V0.953976ZM91.7187 52.9915C92.6529 55.1506 94.9943 56.3358 97.2877 55.8105L96.5093 52.4127C95.8537 52.5629 95.1848 52.2242 94.9178 51.6072L91.7187 52.9915ZM97.2877 55.8105C98.7767 55.4694 100.208 54.944 101.575 54.2452L99.9892 51.1413C98.8712 51.7127 97.7106 52.1375 96.5093 52.4127L97.2877 55.8105ZM101.576 54.2451C102.998 53.5182 104.295 52.6074 105.435 51.5007L103.007 48.9994C102.132 49.8489 101.123 50.5618 99.989 51.1414L101.576 54.2451ZM105.435 51.5006C105.866 51.0823 106.269 50.6355 106.637 50.1594L103.881 48.0255C103.619 48.364 103.327 48.6888 103.007 48.9995L105.435 51.5006ZM112.694 47.3496H105.259V50.8353H112.694V47.3496ZM91.9309 47.3496H7.31942V50.8353H91.9309V47.3496ZM90.3313 49.7844L91.7186 52.9913L94.9179 51.6074L93.5306 48.4005L90.3313 49.7844Z" fill="black" mask="url(#path-1-outside-1_2006_16142)"/>
<path fill-rule="evenodd" clip-rule="evenodd" d="M49.0941 17.3999C47.7862 17.3999 46.6157 18.2111 46.1566 19.4355L37.5004 42.5183C37.1393 43.4817 37.2735 44.5609 37.8594 45.4066C38.4454 46.2526 39.4089 46.757 40.4379 46.757H46.5819C47.9145 46.757 49.1014 45.9155 49.5423 44.6582L50.4016 42.2084H53.9083L54.848 44.9698C55.3183 46.3516 56.6795 47.2269 58.1316 47.0808L64.208 46.4697C64.2261 46.4677 64.2446 46.4659 64.2628 46.4638C64.6657 46.6517 65.1154 46.757 65.5891 46.757H71.7673C72.3909 46.757 72.9719 46.575 73.4603 46.2613C73.9487 46.575 74.5301 46.757 75.1537 46.757H78.2766C78.7921 46.757 79.2944 46.6301 79.742 46.3938C79.9494 46.4799 80.1599 46.5586 80.3733 46.6301C80.383 46.6332 80.3928 46.6364 80.4022 46.6395C81.4096 46.9644 82.447 47.1303 83.5042 47.1303C85.6375 47.1303 87.6568 46.728 89.4659 45.8095C90.275 45.4041 91.0084 44.9085 91.663 44.3284C91.4817 44.5592 91.3322 44.8158 91.2203 45.0925C90.9059 45.8709 90.9167 46.7427 91.2499 47.513L93.3205 52.2993C93.9211 53.6874 95.4262 54.4494 96.9007 54.1116C98.2459 53.8035 99.5419 53.3283 100.785 52.6932C102.062 52.04 103.216 51.2282 104.223 50.2501C105.272 49.2319 106.102 48.0481 106.625 46.6928L106.63 46.681L113.852 28.3038C114.231 27.3381 114.109 26.2472 113.524 25.3897C112.94 24.5322 111.97 24.0192 110.932 24.0192H104.788C103.444 24.0192 102.249 24.8753 101.817 26.1481L101.633 26.6917L101.242 25.5381C100.704 23.9532 99.0176 23.0692 97.4086 23.5289L91.7059 25.1582C91.4235 25.2389 91.1565 25.358 90.9118 25.5101C90.4656 25.1946 89.9891 24.914 89.483 24.67C87.9297 23.921 86.2419 23.5358 84.4687 23.4573V19.6545C84.4687 18.7896 84.1118 17.9631 83.4819 17.3702C82.852 16.7774 82.0057 16.4708 81.1422 16.523L74.9644 16.8964C74.528 16.9228 74.1174 17.0373 73.7486 17.2222C73.1407 16.7268 72.3661 16.4754 71.578 16.523L65.3998 16.8964C63.7437 16.9965 62.4519 18.3688 62.4519 20.0279V30.6599L58.2066 19.4279C57.7454 18.2074 56.5766 17.3999 55.2719 17.3999H49.0941ZM94.1815 40.9427C94.0769 41.1616 93.9646 41.377 93.8447 41.589C93.4052 42.3823 92.8816 43.0997 92.2779 43.7348C92.4762 43.5898 92.6923 43.4675 92.9224 43.3716C93.4261 43.1618 93.9556 42.9289 94.5119 42.6724C94.5252 42.6661 94.5387 42.6598 94.5523 42.6539C94.6391 42.6152 94.7231 42.5765 94.8037 42.5381L94.1815 40.9427Z" fill="white"/>
<path d="M49.0898 20.5371H55.2676L63.8897 43.3482L57.8136 43.9593L56.1502 39.0712H48.173L46.5776 43.6198H40.4336L49.0898 20.5371ZM54.385 34.2169L52.0768 27.9371L49.8706 34.2169H54.385Z" fill="black"/>
<path d="M71.7641 43.6198H65.5859V20.0279L71.7641 19.6545V43.6198Z" fill="black"/>
<path d="M78.2713 43.6198H75.1484V20.0279L81.3263 19.6545V27.0206C81.7111 26.8848 82.1071 26.783 82.5146 26.7151C82.9217 26.6246 83.3403 26.5793 83.7705 26.5793C85.3997 26.5793 86.8481 26.8848 88.1155 27.4958C89.3826 28.1069 90.3785 29.046 91.1025 30.3133C91.8495 31.5806 92.2228 33.1986 92.2228 35.1675C92.2228 37.1136 91.8495 38.7428 91.1025 40.0556C90.3785 41.368 89.3599 42.3524 88.0475 43.0087C86.7574 43.6651 85.2415 43.9931 83.4989 43.9931C82.7746 43.9931 82.0618 43.8802 81.3604 43.6536C80.6814 43.4274 80.0024 43.0652 79.3237 42.5674L78.2713 43.6198ZM82.8199 31.3316C82.3675 31.3316 81.8693 31.5014 81.3263 31.8408V38.7655C81.9373 39.0824 82.5257 39.241 83.0915 39.241C83.8608 39.241 84.506 38.8899 85.0264 38.1886C85.5695 37.4643 85.841 36.4687 85.841 35.2013C85.841 33.9342 85.5807 32.9723 85.0602 32.316C84.5398 31.6598 83.7931 31.3316 82.8199 31.3316Z" fill="black"/>
<path d="M98.3332 43.6878L98.4691 43.3144L92.5625 28.1747L98.2656 26.5454L101.626 36.4572L104.783 27.1564H110.927L103.697 45.5547C103.357 46.4373 102.803 47.252 102.033 47.9986C101.264 48.7456 100.37 49.3793 99.3517 49.8998C98.3332 50.4202 97.2812 50.805 96.1947 51.0539L94.1241 46.2676C94.6672 46.0414 95.2329 45.7921 95.8213 45.5206C96.4324 45.249 96.9755 44.9548 97.4506 44.638C97.9261 44.3215 98.2203 44.0046 98.3332 43.6878Z" fill="black"/>
<path d="M33.623 42.7814C38.3075 42.7814 40.4394 32.4321 40.4394 28.508C40.4394 25.4493 38.3242 23.5957 35.5436 23.5957C32.7802 23.5957 30.5367 24.7813 30.5089 26.2496C30.5088 30.1244 29.8253 42.7814 33.623 42.7814Z" fill="white"/>
<path d="M16.5704 42.7814C11.886 42.7814 9.75391 32.4321 9.75391 28.508C9.75391 25.4493 11.8691 23.5957 14.6498 23.5957C17.4133 23.5957 19.6567 24.7813 19.6846 26.2496C19.6847 30.1244 20.3681 42.7814 16.5704 42.7814Z" fill="white"/>
<path d="M33.623 42.7814C38.3075 42.7814 40.4394 32.4321 40.4394 28.508C40.4394 25.4493 38.3242 23.5957 35.5436 23.5957C32.7802 23.5957 30.5367 24.7813 30.5089 26.2496C30.5088 30.1244 29.8253 42.7814 33.623 42.7814Z" stroke="black" stroke-width="1.38839"/>
<path d="M16.5704 42.7814C11.886 42.7814 9.75391 32.4321 9.75391 28.508C9.75391 25.4493 11.8691 23.5957 14.6498 23.5957C17.4133 23.5957 19.6567 24.7813 19.6846 26.2496C19.6847 30.1244 20.3681 42.7814 16.5704 42.7814Z" stroke="black" stroke-width="1.38839"/>
<path d="M24.8721 30.3904C29.2159 30.3904 33.2849 29.2047 36.7709 27.1389C36.8699 27.0801 36.9766 27.0875 37.0532 27.1306C37.0902 27.1514 37.1122 27.1763 37.1237 27.1971C37.1334 27.2146 37.1432 27.2415 37.1383 27.2885C36.5987 32.6304 33.7017 37.046 29.8078 39.0785C28.5204 39.7502 27.6358 40.9173 26.8589 41.9421C26.8449 41.9606 26.8309 41.979 26.8169 41.9975C26.1855 42.8299 25.6151 43.5748 24.9183 44.1238C24.2215 43.5748 23.6512 42.8299 23.0197 41.9975C23.0058 41.979 22.9918 41.9606 22.9778 41.9421C22.2009 40.9173 21.3162 39.7502 20.0288 39.0785C16.1494 37.0536 13.2596 32.6631 12.7044 27.3477C12.6996 27.3008 12.7091 27.2738 12.7187 27.2562C12.7301 27.2354 12.752 27.2104 12.7888 27.1894C12.8651 27.1461 12.9718 27.1383 13.0711 27.1965C16.5353 29.2268 20.5688 30.3904 24.8721 30.3904Z" fill="#FFDF6F" stroke="black" stroke-width="1.38839"/>
<path d="M24.964 31.2699C31.7117 31.2699 37.1818 29.4465 37.1818 27.1972C37.1818 24.948 31.7117 23.1246 24.964 23.1246C18.2162 23.1246 12.7461 24.948 12.7461 27.1972C12.7461 29.4465 18.2162 31.2699 24.964 31.2699Z" fill="black" stroke="black" stroke-width="1.38839"/>
<path d="M15.1523 34.0465C15.1523 34.0465 21.1787 36.0829 25.0562 36.0829C28.9337 36.0829 34.9601 34.0465 34.9601 34.0465" stroke="black" stroke-width="1.38839" stroke-linecap="round"/>
<path d="M10.7031 9.78189C10.7031 11.3077 11.94 12.5446 13.4658 12.5446C14.9916 12.5446 16.2285 11.3077 16.2285 9.78189C16.2285 8.2561 14.9916 7.01921 13.4658 7.01921C11.94 7.01921 10.7031 8.2561 10.7031 9.78189Z" fill="black"/>
<path d="M38.795 9.78189C38.795 11.3077 37.5579 12.5446 36.0322 12.5446C34.5064 12.5446 33.2695 11.3077 33.2695 9.78189C33.2695 8.2561 34.5064 7.01921 36.0322 7.01921C37.5579 7.01921 38.795 8.2561 38.795 9.78189Z" fill="black"/>
<path d="M36.5406 9.36749L31.3835 14.5245M13.0117 9.36749L18.1687 14.5245L13.0117 9.36749Z" stroke="black" stroke-width="1.38134"/>
<path d="M14.2538 26.2676C12.7648 25.5588 11.8983 23.967 12.1885 22.3436C13.4345 15.3761 18.6267 10.1502 24.8427 10.1502C31.0738 10.1502 36.2763 15.4014 37.5057 22.3942C37.7919 24.0206 36.9183 25.6116 35.4241 26.3148C32.2271 27.8193 28.6561 28.6602 24.8887 28.6602C21.0822 28.6602 17.4762 27.8017 14.2538 26.2676Z" fill="#FFDF6F" stroke="black" stroke-width="1.38134"/>
<path d="M16.9103 24.5354C15.7118 24.0473 15.0008 22.772 15.4161 21.5464C16.6969 17.7664 20.433 15.031 24.8425 15.031C29.2519 15.031 32.988 17.7664 34.2688 21.5464C34.6841 22.772 33.9731 24.0473 32.7746 24.5354C30.3266 25.5324 27.6487 26.0817 24.8425 26.0817C22.0362 26.0817 19.3583 25.5324 16.9103 24.5354Z" fill="black"/>
<path d="M30.3272 20.9247C30.3271 21.9419 29.2964 22.7665 28.0249 22.7665C26.7534 22.7665 25.7227 21.9419 25.7227 20.9247C25.7227 19.9075 26.7534 19.0829 28.0249 19.0829C29.2964 19.0829 30.3272 19.9075 30.3272 20.9247Z" fill="white"/>
<path d="M23.7295 20.9258C23.7295 21.943 22.6987 22.7676 21.4272 22.7676C20.1557 22.7676 19.125 21.943 19.125 20.9258C19.125 19.9086 20.1557 19.084 21.4272 19.084C22.6987 19.084 23.7295 19.9086 23.7295 20.9258Z" fill="white"/>
<path d="M44.9512 16.5103C45.0608 16.5761 45.1897 16.6364 45.3378 16.6913C45.4914 16.7461 45.6504 16.7955 45.8149 16.8393C45.9849 16.8777 46.1522 16.9079 46.3167 16.9298C46.4868 16.9518 46.6431 16.9627 46.7857 16.9627C47.2463 16.9627 47.6439 16.8914 47.9785 16.7488C48.313 16.6063 48.568 16.4116 48.7435 16.1648C48.9245 15.9125 49.015 15.6301 49.015 15.3174C49.015 15.0871 48.9629 14.8814 48.8587 14.7005C48.76 14.514 48.6284 14.344 48.4638 14.1904C48.2993 14.0369 48.1156 13.897 47.9127 13.7709C47.7152 13.6447 47.5178 13.5241 47.3204 13.4089C47.1723 13.3212 47.0324 13.2471 46.9008 13.1868C46.7747 13.121 46.6705 13.0552 46.5882 12.9894C46.5114 12.9236 46.473 12.8523 46.473 12.7755C46.473 12.6713 46.5224 12.5808 46.6211 12.504C46.7198 12.4218 46.8542 12.3806 47.0242 12.3806C47.1504 12.3806 47.2655 12.3888 47.3697 12.4053C47.4739 12.4163 47.5891 12.4382 47.7152 12.4711C47.8469 12.504 48.0114 12.5561 48.2088 12.6274L48.653 11.6156C48.4337 11.4675 48.1732 11.3551 47.8715 11.2783C47.5754 11.196 47.2875 11.1549 47.0078 11.1549C46.5855 11.1549 46.218 11.2262 45.9054 11.3688C45.5928 11.5059 45.3515 11.6951 45.1815 11.9364C45.017 12.1777 44.932 12.4519 44.9265 12.759C44.9265 12.9949 44.9786 13.2087 45.0828 13.4007C45.187 13.5872 45.3241 13.7544 45.4941 13.9025C45.6641 14.0506 45.8451 14.1849 46.037 14.3056C46.2345 14.4263 46.4237 14.5414 46.6047 14.6511C46.7473 14.7334 46.8844 14.8129 47.016 14.8897C47.1476 14.961 47.2546 15.0323 47.3368 15.1036C47.4246 15.1694 47.4684 15.2352 47.4684 15.301C47.4684 15.3668 47.441 15.4354 47.3862 15.5067C47.3313 15.5725 47.2491 15.6273 47.1394 15.6712C47.0352 15.7151 46.9036 15.737 46.7445 15.737C46.6129 15.737 46.4621 15.7205 46.2921 15.6876C46.1275 15.6492 45.9685 15.6026 45.8149 15.5478C45.6669 15.4929 45.5435 15.4381 45.4447 15.3833L44.9512 16.5103ZM53.9334 16.8558L53.7935 15.6794H51.3338V14.6347H53.193L53.0532 13.4583H51.3338V12.4382H53.6866L53.5467 11.2618H49.8366V16.8558H53.9334ZM56.2504 16.8558V13.9107L56.6699 14.4866L58.3975 16.8558H59.796V11.2618H58.2988L58.3235 14.2974L57.8957 13.7298L56.1435 11.2618H54.7532V16.8558H56.2504ZM63.6166 16.8558C64.1431 16.8558 64.6066 16.7406 65.0069 16.5103C65.4073 16.2799 65.7199 15.9536 65.9447 15.5313C66.1751 15.109 66.2902 14.6072 66.2902 14.0259C66.2902 13.4939 66.1888 13.0223 65.9858 12.611C65.7884 12.1942 65.4923 11.8651 65.0974 11.6238C64.708 11.3825 64.2254 11.2618 63.6495 11.2618H61.1158V16.8558H63.6166ZM63.5755 12.4382C63.8278 12.4382 64.0389 12.5068 64.2089 12.6439C64.3844 12.781 64.5161 12.9702 64.6038 13.2115C64.697 13.4473 64.7437 13.7188 64.7437 14.0259C64.7437 14.3933 64.6888 14.7005 64.5791 14.9473C64.4694 15.1941 64.3214 15.3778 64.1349 15.4984C63.9539 15.6191 63.7483 15.6794 63.5179 15.6794H62.613V12.4382H63.5755ZM68.6182 16.5103C68.7279 16.5761 68.8567 16.6364 69.0048 16.6913C69.1584 16.7461 69.3174 16.7955 69.4819 16.8393C69.652 16.8777 69.8192 16.9079 69.9838 16.9298C70.1538 16.9518 70.3101 16.9627 70.4527 16.9627C70.9133 16.9627 71.311 16.8914 71.6455 16.7488C71.98 16.6063 72.2351 16.4116 72.4106 16.1648C72.5915 15.9125 72.682 15.6301 72.682 15.3174C72.682 15.0871 72.6299 14.8814 72.5257 14.7005C72.427 14.514 72.2954 14.344 72.1309 14.1904C71.9663 14.0369 71.7826 13.897 71.5797 13.7709C71.3822 13.6447 71.1848 13.5241 70.9874 13.4089C70.8393 13.3212 70.6995 13.2471 70.5678 13.1868C70.4417 13.121 70.3375 13.0552 70.2552 12.9894C70.1784 12.9236 70.1401 12.8523 70.1401 12.7755C70.1401 12.6713 70.1894 12.5808 70.2881 12.504C70.3869 12.4218 70.5212 12.3806 70.6912 12.3806C70.8174 12.3806 70.9325 12.3888 71.0367 12.4053C71.1409 12.4163 71.2561 12.4382 71.3822 12.4711C71.5139 12.504 71.6784 12.5561 71.8758 12.6274L72.3201 11.6156C72.1007 11.4675 71.8402 11.3551 71.5386 11.2783C71.2424 11.196 70.9545 11.1549 70.6748 11.1549C70.2525 11.1549 69.885 11.2262 69.5724 11.3688C69.2598 11.5059 69.0185 11.6951 68.8485 11.9364C68.684 12.1777 68.599 12.4519 68.5935 12.759C68.5935 12.9949 68.6456 13.2087 68.7498 13.4007C68.854 13.5872 68.9911 13.7544 69.1611 13.9025C69.3311 14.0506 69.5121 14.1849 69.7041 14.3056C69.9015 14.4263 70.0907 14.5414 70.2717 14.6511C70.4143 14.7334 70.5514 14.8129 70.683 14.8897C70.8146 14.961 70.9216 15.0323 71.0038 15.1036C71.0916 15.1694 71.1355 15.2352 71.1355 15.301C71.1355 15.3668 71.108 15.4354 71.0532 15.5067C70.9983 15.5725 70.9161 15.6273 70.8064 15.6712C70.7022 15.7151 70.5706 15.737 70.4115 15.737C70.2799 15.737 70.1291 15.7205 69.9591 15.6876C69.7945 15.6492 69.6355 15.6026 69.4819 15.5478C69.3339 15.4929 69.2105 15.4381 69.1118 15.3833L68.6182 16.5103ZM76.3088 14.5771H75.2147L75.7494 13.0552L76.3088 14.5771ZM75.0255 11.2618L72.9278 16.8558H74.4168L74.8034 15.7534H76.7366L77.1397 16.9381L78.6122 16.79L76.5227 11.2618H75.0255ZM83.564 11.2618H78.7763V12.4382H80.4215V16.8558H81.9187V12.4382H83.7039L83.564 11.2618ZM84.0588 16.5103C84.1685 16.5761 84.2973 16.6364 84.4454 16.6913C84.599 16.7461 84.758 16.7955 84.9225 16.8393C85.0926 16.8777 85.2598 16.9079 85.4244 16.9298C85.5944 16.9518 85.7507 16.9627 85.8933 16.9627C86.3539 16.9627 86.7515 16.8914 87.0861 16.7488C87.4206 16.6063 87.6756 16.4116 87.8511 16.1648C88.0321 15.9125 88.1226 15.6301 88.1226 15.3174C88.1226 15.0871 88.0705 14.8814 87.9663 14.7005C87.8676 14.514 87.736 14.344 87.5714 14.1904C87.4069 14.0369 87.2232 13.897 87.0203 13.7709C86.8228 13.6447 86.6254 13.5241 86.428 13.4089C86.2799 13.3212 86.1401 13.2471 86.0084 13.1868C85.8823 13.121 85.7781 13.0552 85.6958 12.9894C85.619 12.9236 85.5807 12.8523 85.5807 12.7755C85.5807 12.6713 85.63 12.5808 85.7287 12.504C85.8274 12.4218 85.9618 12.3806 86.1318 12.3806C86.258 12.3806 86.3731 12.3888 86.4773 12.4053C86.5815 12.4163 86.6967 12.4382 86.8228 12.4711C86.9545 12.504 87.119 12.5561 87.3164 12.6274L87.7607 11.6156C87.5413 11.4675 87.2808 11.3551 86.9791 11.2783C86.683 11.196 86.3951 11.1549 86.1154 11.1549C85.6931 11.1549 85.3256 11.2262 85.013 11.3688C84.7004 11.5059 84.4591 11.6951 84.2891 11.9364C84.1246 12.1777 84.0396 12.4519 84.0341 12.759C84.0341 12.9949 84.0862 13.2087 84.1904 13.4007C84.2946 13.5872 84.4317 13.7544 84.6017 13.9025C84.7717 14.0506 84.9527 14.1849 85.1447 14.3056C85.3421 14.4263 85.5313 14.5414 85.7123 14.6511C85.8549 14.7334 85.992 14.8129 86.1236 14.8897C86.2552 14.961 86.3622 15.0323 86.4444 15.1036C86.5322 15.1694 86.5761 15.2352 86.5761 15.301C86.5761 15.3668 86.5486 15.4354 86.4938 15.5067C86.4389 15.5725 86.3567 15.6273 86.247 15.6712C86.1428 15.7151 86.0112 15.737 85.8521 15.737C85.7205 15.737 85.5697 15.7205 85.3997 15.6876C85.2351 15.6492 85.0761 15.6026 84.9225 15.5478C84.7745 15.4929 84.6511 15.4381 84.5524 15.3833L84.0588 16.5103ZM98.2378 11.2618L96.6337 16.8558H95.1365L94.2151 13.3431L93.3513 16.8558H91.8541L90.1759 11.3276L91.6485 11.1796L92.6274 15.0624L93.4665 11.2618H94.9555L95.9098 15.0624L96.7489 11.2618H98.2378ZM100.475 16.8558V11.2618H98.9782V16.8558H100.475ZM106.002 11.2618H101.214V12.4382H102.859V16.8558H104.357V12.4382H106.142L106.002 11.2618ZM111.836 16.8558V11.2618H110.338V13.4912H108.38V11.2125L106.883 11.2618V16.8558H108.38V14.6676H110.338V16.8558H111.836Z" fill="black"/>
</svg>
