<svg width="121" height="56" viewBox="0 0 121 56" fill="none" xmlns="http://www.w3.org/2000/svg">
<mask id="path-1-outside-1_2006_16046" maskUnits="userSpaceOnUse" x="-0.257812" y="-0.257111" width="121" height="56" fill="black">
<rect fill="white" x="-0.257812" y="-0.257111" width="121" height="56"/>
<path d="M112.694 1.74289H7.31942C4.2392 1.74289 1.74219 4.2399 1.74219 7.32012V42.5612C1.74219 45.6415 4.2392 48.1385 7.31942 48.1385H91.9309L93.3182 51.3454C93.9188 52.7334 95.424 53.4954 96.8985 53.1576C98.2436 52.8495 99.5396 52.3744 100.782 51.7393C102.06 51.086 103.213 50.2742 104.221 49.2961C104.597 48.9315 104.944 48.5458 105.259 48.1385H112.694C115.774 48.1385 118.271 45.6415 118.271 42.5612V7.32012C118.271 4.2399 115.774 1.74289 112.694 1.74289Z"/>
</mask>
<path d="M112.694 1.74289H7.31942C4.2392 1.74289 1.74219 4.2399 1.74219 7.32012V42.5612C1.74219 45.6415 4.2392 48.1385 7.31942 48.1385H91.9309L93.3182 51.3454C93.9188 52.7334 95.424 53.4954 96.8985 53.1576C98.2436 52.8495 99.5396 52.3744 100.782 51.7393C102.06 51.086 103.213 50.2742 104.221 49.2961C104.597 48.9315 104.944 48.5458 105.259 48.1385H112.694C115.774 48.1385 118.271 45.6415 118.271 42.5612V7.32012C118.271 4.2399 115.774 1.74289 112.694 1.74289Z" fill="white"/>
<path d="M93.3182 51.3454L91.7186 52.0374L91.7187 52.0375L93.3182 51.3454ZM96.8985 53.1576L97.2877 54.8565L97.2877 54.8565L96.8985 53.1576ZM100.782 51.7393L101.575 53.2912L101.576 53.2912L100.782 51.7393ZM104.221 49.2961L105.435 50.5468L105.435 50.5467L104.221 49.2961ZM105.259 48.1385V46.3956C104.72 46.3956 104.211 46.6451 103.881 47.0715L105.259 48.1385ZM91.9309 48.1385L93.5306 47.4465C93.2546 46.8086 92.626 46.3956 91.9309 46.3956V48.1385ZM7.31942 3.48577H112.694V4.52995e-06H7.31942V3.48577ZM116.529 7.32012V42.5612H120.014V7.32012H116.529ZM3.48507 42.5612V7.32012H-0.000697374V42.5612H3.48507ZM7.31942 46.3956C5.20177 46.3956 3.48507 44.6789 3.48507 42.5612H-0.000697374C-0.000697374 46.604 3.27663 49.8814 7.31942 49.8814V46.3956ZM116.529 42.5612C116.529 44.6789 114.812 46.3956 112.694 46.3956V49.8814C116.737 49.8814 120.014 46.604 120.014 42.5612H116.529ZM112.694 3.48577C114.812 3.48577 116.529 5.20247 116.529 7.32012H120.014C120.014 3.27733 116.737 4.52995e-06 112.694 4.52995e-06V3.48577ZM7.31942 4.52995e-06C3.27663 4.52995e-06 -0.000697374 3.27733 -0.000697374 7.32012H3.48507C3.48507 5.20247 5.20177 3.48577 7.31942 3.48577V4.52995e-06ZM91.7187 52.0375C92.6529 54.1966 94.9943 55.3819 97.2877 54.8565L96.5093 51.4588C95.8537 51.6089 95.1848 51.2702 94.9178 50.6533L91.7187 52.0375ZM97.2877 54.8565C98.7767 54.5154 100.208 53.99 101.575 53.2912L99.9892 50.1873C98.8712 50.7587 97.7106 51.1836 96.5093 51.4588L97.2877 54.8565ZM101.576 53.2912C102.998 52.5643 104.295 51.6535 105.435 50.5468L103.007 48.0454C102.132 48.895 101.123 49.6078 99.989 50.1874L101.576 53.2912ZM105.435 50.5467C105.866 50.1283 106.269 49.6815 106.637 49.2055L103.881 47.0715C103.619 47.41 103.327 47.7348 103.007 48.0455L105.435 50.5467ZM112.694 46.3956H105.259V49.8814H112.694V46.3956ZM91.9309 46.3956H7.31942V49.8814H91.9309V46.3956ZM90.3313 48.8305L91.7186 52.0374L94.9179 50.6534L93.5306 47.4465L90.3313 48.8305Z" fill="black" mask="url(#path-1-outside-1_2006_16046)"/>
<path fill-rule="evenodd" clip-rule="evenodd" d="M49.0941 16.4459C47.7862 16.4459 46.6157 17.2571 46.1566 18.4815L37.5004 41.5643C37.1393 42.5278 37.2735 43.607 37.8594 44.4526C38.4454 45.2986 39.4089 45.803 40.4379 45.803H46.5819C47.9145 45.803 49.1014 44.9615 49.5423 43.7042L50.4016 41.2544H53.9083L54.848 44.0158C55.3183 45.3976 56.6795 46.2729 58.1316 46.1268L64.208 45.5158C64.2261 45.5137 64.2446 45.5119 64.2628 45.5098C64.6657 45.6977 65.1154 45.803 65.5891 45.803H71.7673C72.3909 45.803 72.9719 45.621 73.4603 45.3073C73.9487 45.621 74.5301 45.803 75.1537 45.803H78.2766C78.7921 45.803 79.2944 45.6761 79.742 45.4398C79.9494 45.5259 80.1599 45.6047 80.3733 45.6761C80.383 45.6793 80.3928 45.6824 80.4022 45.6855C81.4096 46.0104 82.447 46.1763 83.5042 46.1763C85.6375 46.1763 87.6568 45.7741 89.4659 44.8556C90.275 44.4502 91.0084 43.9545 91.663 43.3745C91.4817 43.6052 91.3322 43.8618 91.2203 44.1385C90.9059 44.9169 90.9167 45.7887 91.2499 46.5591L93.3205 51.3454C93.9211 52.7334 95.4262 53.4954 96.9007 53.1576C98.2459 52.8495 99.5419 52.3744 100.785 51.7393C102.062 51.086 103.216 50.2742 104.223 49.2961C105.272 48.2779 106.102 47.0941 106.625 45.7389L106.63 45.727L113.852 27.3499C114.231 26.3841 114.109 25.2932 113.524 24.4357C112.94 23.5783 111.97 23.0652 110.932 23.0652H104.788C103.444 23.0652 102.249 23.9214 101.817 25.1941L101.633 25.7377L101.242 24.5841C100.704 22.9993 99.0176 22.1152 97.4086 22.5749L91.7059 24.2043C91.4235 24.285 91.1565 24.404 90.9118 24.5561C90.4656 24.2407 89.9891 23.96 89.483 23.716C87.9297 22.967 86.2419 22.5818 84.4687 22.5033V18.7005C84.4687 17.8356 84.1118 17.0091 83.4819 16.4163C82.852 15.8234 82.0057 15.5169 81.1422 15.569L74.9644 15.9424C74.528 15.9688 74.1174 16.0834 73.7486 16.2682C73.1407 15.7728 72.3661 15.5214 71.578 15.569L65.3998 15.9424C63.7437 16.0425 62.4519 17.4148 62.4519 19.0739V29.706L58.2066 18.4739C57.7454 17.2534 56.5766 16.4459 55.2719 16.4459H49.0941ZM94.1815 39.9887C94.0769 40.2076 93.9646 40.4231 93.8447 40.635C93.4052 41.4284 92.8816 42.1457 92.2779 42.7808C92.4762 42.6358 92.6923 42.5135 92.9224 42.4176C93.4261 42.2078 93.9556 41.9749 94.5119 41.7184C94.5252 41.7121 94.5387 41.7058 94.5523 41.6999C94.6391 41.6612 94.7231 41.6225 94.8037 41.5842L94.1815 39.9887Z" fill="white"/>
<path d="M49.0898 19.5831H55.2676L63.8897 42.3943L57.8136 43.0053L56.1502 38.1172H48.173L46.5776 42.6658H40.4336L49.0898 19.5831ZM54.385 33.263L52.0768 26.9831L49.8706 33.263H54.385Z" fill="black"/>
<path d="M71.7641 42.6658H65.5859V19.0739L71.7641 18.7005V42.6658Z" fill="black"/>
<path d="M78.2713 42.6658H75.1484V19.0739L81.3263 18.7005V26.0666C81.7111 25.9308 82.1071 25.829 82.5146 25.7611C82.9217 25.6706 83.3403 25.6253 83.7705 25.6253C85.3997 25.6253 86.8481 25.9308 88.1155 26.5419C89.3826 27.1529 90.3785 28.092 91.1025 29.3593C91.8495 30.6266 92.2228 32.2446 92.2228 34.2135C92.2228 36.1596 91.8495 37.7889 91.1025 39.1016C90.3785 40.414 89.3599 41.3984 88.0475 42.0548C86.7574 42.7111 85.2415 43.0391 83.4989 43.0391C82.7746 43.0391 82.0618 42.9262 81.3604 42.6996C80.6814 42.4734 80.0024 42.1112 79.3237 41.6135L78.2713 42.6658ZM82.8199 30.3777C82.3675 30.3777 81.8693 30.5474 81.3263 30.8868V37.8115C81.9373 38.1284 82.5257 38.287 83.0915 38.287C83.8608 38.287 84.506 37.936 85.0264 37.2346C85.5695 36.5103 85.841 35.5148 85.841 34.2473C85.841 32.9803 85.5807 32.0184 85.0602 31.3621C84.5398 30.7058 83.7931 30.3777 82.8199 30.3777Z" fill="black"/>
<path d="M98.3332 42.7338L98.4691 42.3605L92.5625 27.2208L98.2656 25.5914L101.626 35.5033L104.783 26.2024H110.927L103.697 44.6008C103.357 45.4834 102.803 46.298 102.033 47.0446C101.264 47.7916 100.37 48.4254 99.3517 48.9458C98.3332 49.4662 97.2812 49.851 96.1947 50.0999L94.1241 45.3136C94.6672 45.0874 95.2329 44.8381 95.8213 44.5666C96.4324 44.2951 96.9755 44.0009 97.4506 43.684C97.9261 43.3675 98.2203 43.0506 98.3332 42.7338Z" fill="black"/>
<path d="M33.623 41.8275C38.3075 41.8275 40.4394 31.4781 40.4394 27.554C40.4394 24.4954 38.3242 22.6417 35.5436 22.6417C32.7802 22.6417 30.5367 23.8274 30.5089 25.2956C30.5088 29.1705 29.8253 41.8275 33.623 41.8275Z" fill="white"/>
<path d="M16.5704 41.8275C11.886 41.8275 9.75391 31.4781 9.75391 27.554C9.75391 24.4954 11.8691 22.6417 14.6498 22.6417C17.4133 22.6417 19.6567 23.8274 19.6846 25.2956C19.6847 29.1705 20.3681 41.8275 16.5704 41.8275Z" fill="white"/>
<path d="M33.623 41.8275C38.3075 41.8275 40.4394 31.4781 40.4394 27.554C40.4394 24.4954 38.3242 22.6417 35.5436 22.6417C32.7802 22.6417 30.5367 23.8274 30.5089 25.2956C30.5088 29.1705 29.8253 41.8275 33.623 41.8275Z" stroke="black" stroke-width="1.38839"/>
<path d="M16.5704 41.8275C11.886 41.8275 9.75391 31.4781 9.75391 27.554C9.75391 24.4954 11.8691 22.6417 14.6498 22.6417C17.4133 22.6417 19.6567 23.8274 19.6846 25.2956C19.6847 29.1705 20.3681 41.8275 16.5704 41.8275Z" stroke="black" stroke-width="1.38839"/>
<path d="M24.8721 29.4364C29.2159 29.4364 33.2849 28.2508 36.7709 26.185C36.8699 26.1262 36.9766 26.1335 37.0532 26.1766C37.0902 26.1974 37.1122 26.2223 37.1237 26.2431C37.1334 26.2607 37.1432 26.2876 37.1383 26.3346C36.5987 31.6764 33.7017 36.092 29.8078 38.1246C28.5204 38.7963 27.6358 39.9633 26.8589 40.9881C26.8449 41.0066 26.8309 41.0251 26.8169 41.0435C26.1855 41.8759 25.6151 42.6208 24.9183 43.1699C24.2215 42.6208 23.6512 41.8759 23.0197 41.0435C23.0058 41.0251 22.9918 41.0066 22.9778 40.9881C22.2009 39.9633 21.3162 38.7963 20.0288 38.1246C16.1494 36.0997 13.2596 31.7092 12.7044 26.3937C12.6996 26.3468 12.7091 26.3199 12.7187 26.3023C12.7301 26.2814 12.752 26.2564 12.7888 26.2355C12.8651 26.1921 12.9718 26.1843 13.0711 26.2425C16.5353 28.2728 20.5688 29.4364 24.8721 29.4364Z" fill="#FFDF6F" stroke="black" stroke-width="1.38839"/>
<path d="M24.964 30.3159C31.7117 30.3159 37.1818 28.4925 37.1818 26.2432C37.1818 23.994 31.7117 22.1706 24.964 22.1706C18.2162 22.1706 12.7461 23.994 12.7461 26.2432C12.7461 28.4925 18.2162 30.3159 24.964 30.3159Z" fill="black" stroke="black" stroke-width="1.38839"/>
<path d="M15.1523 33.0925C15.1523 33.0925 21.1787 35.1289 25.0562 35.1289C28.9337 35.1289 34.9601 33.0925 34.9601 33.0925" stroke="black" stroke-width="1.38839" stroke-linecap="round"/>
<path d="M10.7031 8.82791C10.7031 10.3537 11.94 11.5906 13.4658 11.5906C14.9916 11.5906 16.2285 10.3537 16.2285 8.82791C16.2285 7.30212 14.9916 6.06523 13.4658 6.06523C11.94 6.06523 10.7031 7.30212 10.7031 8.82791Z" fill="black"/>
<path d="M38.795 8.82791C38.795 10.3537 37.5579 11.5906 36.0322 11.5906C34.5064 11.5906 33.2695 10.3537 33.2695 8.82791C33.2695 7.30212 34.5064 6.06523 36.0322 6.06523C37.5579 6.06523 38.795 7.30212 38.795 8.82791Z" fill="black"/>
<path d="M36.5406 8.41353L31.3835 13.5705M13.0117 8.41353L18.1687 13.5705L13.0117 8.41353Z" stroke="black" stroke-width="1.38134"/>
<path d="M14.2538 25.3137C12.7648 24.6048 11.8983 23.013 12.1885 21.3896C13.4345 14.4221 18.6267 9.19626 24.8427 9.19626C31.0738 9.19626 36.2763 14.4475 37.5057 21.4403C37.7919 23.0666 36.9183 24.6577 35.4241 25.3608C32.2271 26.8653 28.6561 27.7063 24.8887 27.7063C21.0822 27.7063 17.4762 26.8477 14.2538 25.3137Z" fill="#FFDF6F" stroke="black" stroke-width="1.38134"/>
<path d="M16.9103 23.5814C15.7118 23.0933 15.0008 21.818 15.4161 20.5924C16.6969 16.8124 20.433 14.077 24.8425 14.077C29.2519 14.077 32.988 16.8124 34.2688 20.5924C34.6841 21.818 33.9731 23.0933 32.7746 23.5814C30.3266 24.5784 27.6487 25.1278 24.8425 25.1278C22.0362 25.1278 19.3583 24.5784 16.9103 23.5814Z" fill="black"/>
<path d="M30.3272 19.9707C30.3271 20.9879 29.2964 21.8125 28.0249 21.8125C26.7534 21.8125 25.7227 20.9879 25.7227 19.9707C25.7227 18.9536 26.7534 18.129 28.0249 18.129C29.2964 18.129 30.3272 18.9536 30.3272 19.9707Z" fill="white"/>
<path d="M23.7295 19.9719C23.7295 20.989 22.6987 21.8136 21.4272 21.8136C20.1557 21.8136 19.125 20.989 19.125 19.9719C19.125 18.9546 20.1557 18.1301 21.4272 18.1301C22.6987 18.1301 23.7295 18.9546 23.7295 19.9719Z" fill="white"/>
<path d="M50.4164 8.90714H44.7766V10.2929H46.7147V15.4966H48.4783V10.2929H50.5812L50.4164 8.90714ZM53.2183 15.4966V8.90714H51.4547V15.4966H53.2183ZM56.5305 15.4966V13.5779H57.4608C57.8161 13.5779 58.1585 13.5327 58.488 13.4423C58.8239 13.3518 59.1243 13.2129 59.3892 13.0256C59.654 12.8382 59.864 12.5992 60.019 12.3085C60.1741 12.0178 60.2516 11.6754 60.2516 11.2813C60.2516 10.7516 60.1256 10.3123 59.8737 9.9634C59.6282 9.60809 59.2987 9.34321 58.8853 9.16879C58.4783 8.99436 58.0293 8.90714 57.5383 8.90714H54.7668V15.4966H56.5305ZM57.4802 10.2929C57.6804 10.2929 57.8484 10.3349 57.9841 10.4189C58.1262 10.5028 58.236 10.6191 58.3135 10.7677C58.3911 10.9163 58.4298 11.0875 58.4298 11.2813C58.4298 11.4493 58.3878 11.6043 58.3038 11.7464C58.2263 11.8821 58.1165 11.9919 57.9744 12.0759C57.8387 12.1534 57.6804 12.1922 57.4995 12.1922H56.5305V10.2929H57.4802ZM72.1684 8.90714L70.2787 15.4966H68.5151L67.4297 11.3588L66.4122 15.4966H64.6486L62.6717 8.98467L64.4063 8.81024L65.5595 13.3841L66.5479 8.90714H68.3019L69.426 13.3841L70.4144 8.90714H72.1684ZM74.8042 15.4966V8.90714H73.0405V15.4966H74.8042ZM81.3142 8.90714H75.6743V10.2929H77.6124V15.4966H79.3761V10.2929H81.4789L81.3142 8.90714ZM88.1861 15.4966V8.90714H86.4224V11.5333H84.1161V8.849L82.3524 8.90714V15.4966H84.1161V12.919H86.4224V15.4966H88.1861Z" fill="black"/>
</svg>
