<svg width="242" height="112" viewBox="0 0 242 112" fill="none" xmlns="http://www.w3.org/2000/svg">
<mask id="path-1-outside-1_2003_16954" maskUnits="userSpaceOnUse" x="0.148438" y="0.311157" width="242" height="111" fill="black">
<rect fill="white" x="0.148438" y="0.311157" width="242" height="111"/>
<path d="M226.656 4.31116H15.3332C9.15605 4.31116 4.14844 9.31876 4.14844 15.496V86.1699C4.14844 92.3471 9.15605 97.3547 15.3332 97.3547H185.017L187.799 103.786C189.003 106.57 192.022 108.098 194.979 107.42C197.676 106.802 200.275 105.85 202.768 104.576C205.33 103.266 207.643 101.638 209.664 99.6763C210.417 98.9452 211.114 98.1715 211.746 97.3547H226.656C232.833 97.3547 237.841 92.3471 237.841 86.1699V15.496C237.841 9.31876 232.833 4.31116 226.656 4.31116Z"/>
</mask>
<path d="M226.656 4.31116H15.3332C9.15605 4.31116 4.14844 9.31876 4.14844 15.496V86.1699C4.14844 92.3471 9.15605 97.3547 15.3332 97.3547H185.017L187.799 103.786C189.003 106.57 192.022 108.098 194.979 107.42C197.676 106.802 200.275 105.85 202.768 104.576C205.33 103.266 207.643 101.638 209.664 99.6763C210.417 98.9452 211.114 98.1715 211.746 97.3547H226.656C232.833 97.3547 237.841 92.3471 237.841 86.1699V15.496C237.841 9.31876 232.833 4.31116 226.656 4.31116Z" fill="white"/>
<path d="M187.799 103.786L184.591 105.174L184.591 105.174L187.799 103.786ZM194.979 107.42L195.759 110.827L195.759 110.827L194.979 107.42ZM202.768 104.576L204.358 107.688L204.358 107.688L202.768 104.576ZM209.664 99.6763L212.098 102.184L212.098 102.184L209.664 99.6763ZM211.746 97.3547V93.8595C210.665 93.8595 209.644 94.3599 208.982 95.2149L211.746 97.3547ZM185.017 97.3547L188.225 95.967C187.671 94.6877 186.41 93.8595 185.017 93.8595V97.3547ZM15.3332 7.80641H226.656V0.815906H15.3332V7.80641ZM234.346 15.496V86.1699H241.336V15.496H234.346ZM7.64369 86.1699V15.496H0.653186V86.1699H7.64369ZM15.3332 93.8595C11.0864 93.8595 7.64369 90.4168 7.64369 86.1699H0.653186C0.653186 94.2775 7.22568 100.85 15.3332 100.85V93.8595ZM234.346 86.1699C234.346 90.4168 230.903 93.8595 226.656 93.8595V100.85C234.764 100.85 241.336 94.2775 241.336 86.1699H234.346ZM226.656 7.80641C230.903 7.80641 234.346 11.2491 234.346 15.496H241.336C241.336 7.38839 234.764 0.815906 226.656 0.815906V7.80641ZM15.3332 0.815906C7.22567 0.815906 0.653186 7.38839 0.653186 15.496H7.64369C7.64369 11.2491 11.0864 7.80641 15.3332 7.80641V0.815906ZM184.591 105.174C186.464 109.504 191.16 111.881 195.759 110.827L194.198 104.013C192.883 104.315 191.542 103.635 191.007 102.398L184.591 105.174ZM195.759 110.827C198.745 110.143 201.616 109.09 204.358 107.688L201.177 101.464C198.935 102.609 196.607 103.462 194.198 104.013L195.759 110.827ZM204.358 107.688C207.21 106.23 209.811 104.404 212.098 102.184L207.229 97.1682C205.474 98.8718 203.45 100.301 201.177 101.464L204.358 107.688ZM212.098 102.184C212.962 101.345 213.77 100.449 214.51 99.4946L208.982 95.2149C208.457 95.8938 207.871 96.5452 207.229 97.1684L212.098 102.184ZM226.656 93.8595H211.746V100.85H226.656V93.8595ZM185.017 93.8595H15.3332V100.85H185.017V93.8595ZM181.809 98.7425L184.591 105.174L191.007 102.398L188.225 95.967L181.809 98.7425Z" fill="black" mask="url(#path-1-outside-1_2003_16954)"/>
<path fill-rule="evenodd" clip-rule="evenodd" d="M99.1 33.7972C96.4771 33.7972 94.1297 35.424 93.2091 37.8796L75.8496 84.1707C75.1253 86.1029 75.3945 88.2671 76.5696 89.963C77.7447 91.6596 79.6769 92.6712 81.7405 92.6712H94.0619C96.7344 92.6712 99.1146 90.9837 99.9989 88.4622L101.722 83.5493H108.755L110.639 89.0871C111.582 91.8582 114.312 93.6135 117.224 93.3206L129.41 92.0951C129.446 92.0909 129.483 92.0874 129.52 92.0833C130.328 92.46 131.23 92.6712 132.18 92.6712H144.57C145.82 92.6712 146.986 92.3063 147.965 91.6771C148.944 92.3063 150.11 92.6712 151.361 92.6712H157.624C158.658 92.6712 159.665 92.4167 160.563 91.9427C160.979 92.1154 161.401 92.2734 161.829 92.4167C161.848 92.423 161.868 92.4293 161.887 92.4356C163.907 93.0871 165.987 93.4198 168.107 93.4198C172.386 93.4198 176.435 92.6131 180.063 90.7711C181.686 89.9581 183.157 88.9641 184.469 87.8009C184.106 88.2636 183.806 88.7781 183.582 89.3332C182.951 90.8942 182.973 92.6425 183.641 94.1874L187.793 103.786C188.998 106.57 192.016 108.098 194.973 107.42C197.671 106.802 200.27 105.85 202.762 104.576C205.325 103.266 207.637 101.638 209.658 99.6763C211.762 97.6344 213.425 95.2604 214.475 92.5425L214.484 92.5188L228.968 55.6645C229.729 53.7278 229.483 51.54 228.311 49.8204C227.139 48.1008 225.193 47.0718 223.112 47.0718H210.791C208.095 47.0718 205.7 48.7888 204.833 51.3412L204.463 52.4315L203.679 50.1179C202.601 46.9396 199.219 45.1666 195.992 46.0886L184.555 49.3562C183.989 49.518 183.454 49.7567 182.963 50.0617C182.068 49.4292 181.113 48.8663 180.098 48.377C176.983 46.8749 173.598 46.1025 170.042 45.945V38.3187C170.042 36.5843 169.326 34.9267 168.063 33.7378C166.799 32.5489 165.102 31.9341 163.371 32.0388L150.981 32.7876C150.106 32.8404 149.283 33.0702 148.543 33.4408C147.324 32.4474 145.771 31.9432 144.19 32.0388L131.8 32.7876C128.479 32.9883 125.888 35.7403 125.888 39.0676V60.3895L117.375 37.8643C116.45 35.4167 114.106 33.7972 111.489 33.7972H99.1ZM189.52 81.011C189.31 81.45 189.085 81.882 188.845 82.307C187.963 83.8981 186.913 85.3367 185.703 86.6104C186.1 86.3196 186.534 86.0742 186.995 85.882C188.005 85.4612 189.067 84.9942 190.183 84.4797C190.209 84.4671 190.237 84.4545 190.264 84.4426C190.438 84.365 190.606 84.2874 190.768 84.2106L189.52 81.011Z" fill="white"/>
<path d="M99.1017 40.0887H111.491L128.782 85.8352L116.597 87.0606L113.261 77.2578H97.2632L94.0636 86.3797H81.7422L99.1017 40.0887ZM109.721 67.5228L105.092 54.929L100.668 67.5228H109.721Z" fill="black"/>
<path d="M144.57 86.3797H132.18V39.0675L144.57 38.3187V86.3797Z" fill="black"/>
<path d="M157.622 86.3797H151.359V39.0675L163.749 38.3187V53.091C164.52 52.8187 165.315 52.6145 166.132 52.4783C166.948 52.2968 167.788 52.2061 168.65 52.2061C171.918 52.2061 174.822 52.8187 177.364 54.0441C179.905 55.2694 181.902 57.1528 183.354 59.6943C184.852 62.2358 185.601 65.4807 185.601 69.4291C185.601 73.3319 184.852 76.5993 183.354 79.2319C181.902 81.8638 179.86 83.8379 177.228 85.1543C174.641 86.4706 171.6 87.1284 168.106 87.1284C166.653 87.1284 165.224 86.9019 163.817 86.4475C162.455 85.9938 161.094 85.2675 159.733 84.2693L157.622 86.3797ZM166.744 61.7366C165.837 61.7366 164.838 62.0769 163.749 62.7577V76.6447C164.974 77.2802 166.154 77.5982 167.289 77.5982C168.831 77.5982 170.125 76.8943 171.169 75.4878C172.258 74.0352 172.803 72.0387 172.803 69.4969C172.803 66.9559 172.281 65.0268 171.237 63.7107C170.193 62.3946 168.696 61.7366 166.744 61.7366Z" fill="black"/>
<path d="M197.854 86.516L198.127 85.7673L186.281 55.4055L197.718 52.138L204.457 72.0156L210.789 53.3633H223.11L208.61 90.2601C207.929 92.0301 206.817 93.6638 205.274 95.1612C203.732 96.6592 201.939 97.9301 199.897 98.9738C197.854 100.017 195.744 100.789 193.565 101.288L189.413 91.6897C190.502 91.236 191.637 90.7362 192.817 90.1916C194.042 89.6471 195.131 89.057 196.084 88.4216C197.038 87.7869 197.628 87.1514 197.854 86.516Z" fill="black"/>
<path d="M68.0953 84.6985C77.4897 84.6985 81.7651 63.9435 81.7651 56.0738C81.7651 49.9399 77.5233 46.2225 71.9468 46.2225C66.405 46.2225 61.9059 48.6003 61.85 51.5448C61.8499 59.3156 60.4791 84.6985 68.0953 84.6985Z" fill="white"/>
<path d="M33.8849 84.6985C24.4907 84.6985 20.2148 63.9435 20.2148 56.0738C20.2148 49.9399 24.4567 46.2225 30.0334 46.2225C35.5752 46.2225 40.0743 48.6003 40.1302 51.5448C40.1304 59.3156 41.5011 84.6985 33.8849 84.6985Z" fill="white"/>
<path d="M68.0953 84.6985C77.4897 84.6985 81.7651 63.9435 81.7651 56.0738C81.7651 49.9399 77.5233 46.2225 71.9468 46.2225C66.405 46.2225 61.9059 48.6003 61.85 51.5448C61.8499 59.3156 60.4791 84.6985 68.0953 84.6985Z" stroke="black" stroke-width="2.78434"/>
<path d="M33.8849 84.6985C24.4907 84.6985 20.2148 63.9435 20.2148 56.0738C20.2148 49.9399 24.4567 46.2225 30.0334 46.2225C35.5752 46.2225 40.0743 48.6003 40.1302 51.5448C40.1304 59.3156 41.5011 84.6985 33.8849 84.6985Z" stroke="black" stroke-width="2.78434"/>
<path d="M50.5291 59.849C59.2403 59.849 67.4005 57.4712 74.3915 53.3283C74.59 53.2104 74.8039 53.2251 74.9577 53.3115C75.0318 53.3533 75.0758 53.4032 75.0989 53.445C75.1185 53.4801 75.1381 53.5341 75.1283 53.6283C74.0461 64.3411 68.2364 73.1963 60.4274 77.2724C57.8456 78.6195 56.0715 80.9599 54.5135 83.0151C54.4854 83.0522 54.4574 83.0892 54.4294 83.1263C53.1631 84.7956 52.0193 86.2895 50.6218 87.3905C49.2244 86.2895 48.0806 84.7956 46.8144 83.1263C46.7864 83.0892 46.7584 83.0522 46.7303 83.0151C45.1722 80.9599 43.398 78.6195 40.8162 77.2724C33.0362 73.2117 27.2409 64.4068 26.1276 53.747C26.1179 53.6529 26.1369 53.5988 26.1562 53.5635C26.1792 53.5217 26.223 53.4716 26.2968 53.4296C26.4498 53.3426 26.6637 53.327 26.863 53.4438C33.8101 57.5153 41.8992 59.849 50.5291 59.849Z" fill="#FFDF6F" stroke="black" stroke-width="2.78434"/>
<path d="M50.7131 61.6126C64.2453 61.6126 75.2153 57.9559 75.2153 53.4452C75.2153 48.9345 64.2453 45.2778 50.7131 45.2778C37.1809 45.2778 26.2109 48.9345 26.2109 53.4452C26.2109 57.9559 37.1809 61.6126 50.7131 61.6126Z" fill="black" stroke="black" stroke-width="2.78434"/>
<path d="M31.0352 67.181C31.0352 67.181 43.1208 71.2648 50.8968 71.2648C58.6728 71.2648 70.7584 67.181 70.7584 67.181" stroke="black" stroke-width="2.78434" stroke-linecap="round"/>
<path d="M22.125 18.5198C22.125 21.5797 24.6055 24.0602 27.6654 24.0602C30.7253 24.0602 33.2058 21.5797 33.2058 18.5198C33.2058 15.4599 30.7253 12.9794 27.6654 12.9794C24.6055 12.9794 22.125 15.4599 22.125 18.5198Z" fill="black"/>
<path d="M78.4522 18.5198C78.4522 21.5797 75.9712 24.0602 72.9115 24.0602C69.8516 24.0602 67.3711 21.5797 67.3711 18.5198C67.3711 15.4599 69.8516 12.9794 72.9115 12.9794C75.9712 12.9794 78.4522 15.4599 78.4522 18.5198Z" fill="black"/>
<path d="M73.9279 17.6888L63.5858 28.0308M26.7422 17.6888L37.0843 28.0308L26.7422 17.6888Z" stroke="black" stroke-width="2.7702"/>
<path d="M29.2379 51.5809C26.2519 50.1594 24.514 46.9671 25.0961 43.7115C27.5947 29.7385 38.0074 19.2585 50.4733 19.2585C62.9693 19.2585 73.4026 29.7894 75.8682 43.8131C76.4421 47.0746 74.6903 50.2654 71.6937 51.6754C65.2822 54.6926 58.1209 56.3791 50.5656 56.3791C42.9319 56.3791 35.7002 54.6574 29.2379 51.5809Z" fill="#FFDF6F" stroke="black" stroke-width="2.7702"/>
<path d="M34.5638 48.1071C32.1601 47.1282 30.7343 44.5708 31.5672 42.1128C34.1357 34.5323 41.6283 29.0466 50.4712 29.0466C59.3141 29.0466 66.8067 34.5323 69.3752 42.1128C70.2081 44.5708 68.7823 47.1282 66.3787 48.1071C61.4694 50.1065 56.099 51.2082 50.4712 51.2082C44.8434 51.2082 39.473 50.1065 34.5638 48.1071Z" fill="black"/>
<path d="M61.4606 40.8661C61.4605 42.906 59.3934 44.5596 56.8436 44.5596C54.2937 44.5596 52.2266 42.906 52.2266 40.8661C52.2266 38.8262 54.2937 37.1725 56.8436 37.1725C59.3934 37.1725 61.4606 38.8262 61.4606 40.8661Z" fill="white"/>
<path d="M48.2457 40.8683C48.2457 42.9082 46.1786 44.5619 43.6287 44.5619C41.0788 44.5619 39.0117 42.9082 39.0117 40.8683C39.0117 38.8283 41.0788 37.1747 43.6287 37.1747C46.1786 37.1747 48.2457 38.8283 48.2457 40.8683Z" fill="white"/>
<path d="M95.3572 30.8337V26.9858H97.2229C97.9354 26.9858 98.6221 26.8951 99.2828 26.7138C99.9565 26.5324 100.559 26.2538 101.09 25.8781C101.621 25.5024 102.042 25.023 102.353 24.44C102.664 23.857 102.82 23.1704 102.82 22.3801C102.82 21.3177 102.567 20.4367 102.062 19.7371C101.57 19.0245 100.909 18.4933 100.08 18.1435C99.2634 17.7937 98.363 17.6188 97.3783 17.6188H91.8203V30.8337H95.3572ZM97.2617 20.3978C97.6633 20.3978 98.0002 20.482 98.2723 20.6505C98.5573 20.8189 98.7775 21.0521 98.933 21.3501C99.0885 21.6481 99.1662 21.9914 99.1662 22.3801C99.1662 22.7169 99.082 23.0279 98.9136 23.3129C98.7581 23.5849 98.5379 23.8052 98.2528 23.9736C97.9808 24.1291 97.6633 24.2068 97.3006 24.2068H95.3572V20.3978H97.2617ZM111.39 25.4506H108.806L110.069 21.8554L111.39 25.4506ZM108.359 17.6188L103.403 30.8337H106.921L107.834 28.2296H112.401L113.353 31.028L116.832 30.6782L111.896 17.6188H108.359ZM124.954 30.8337V25.6643L129.54 17.6188H125.906L123.166 22.3801L120.601 17.3468L117.219 18.2796L121.417 25.6255V30.8337H124.954ZM153.249 17.6188L149.46 30.8337H145.923L143.746 22.5355L141.706 30.8337H138.169L134.205 17.7743L137.683 17.4245L139.996 26.5972L141.978 17.6188H145.495L147.75 26.5972L149.732 17.6188H153.249ZM158.535 30.8337V17.6188H154.998V30.8337H158.535ZM171.591 17.6188H160.28V20.3978H164.167V30.8337H167.704V20.3978H171.921L171.591 17.6188ZM185.372 30.8337V17.6188H181.835V22.8853H177.21V17.5022L173.673 17.6188V30.8337H177.21V25.6643H181.835V30.8337H185.372Z" fill="black"/>
</svg>
