<svg width="122" height="56" viewBox="0 0 122 56" fill="none" xmlns="http://www.w3.org/2000/svg">
<mask id="path-1-outside-1_2006_16310" maskUnits="userSpaceOnUse" x="0.730469" y="0.627831" width="121" height="56" fill="black">
<rect fill="white" x="0.730469" y="0.627831" width="121" height="56"/>
<path d="M113.683 2.62783H8.3077C5.22748 2.62783 2.73047 5.12484 2.73047 8.20506V43.4462C2.73047 46.5264 5.22748 49.0234 8.3077 49.0234H92.9192L94.3065 52.2303C94.9071 53.6184 96.4123 54.3803 97.8868 54.0426C99.2319 53.7344 100.528 53.2593 101.771 52.6242C103.048 51.971 104.202 51.1591 105.209 50.181C105.585 49.8165 105.932 49.4307 106.248 49.0234H113.683C116.763 49.0234 119.26 46.5264 119.26 43.4462V8.20506C119.26 5.12484 116.763 2.62783 113.683 2.62783Z"/>
</mask>
<path d="M113.683 2.62783H8.3077C5.22748 2.62783 2.73047 5.12484 2.73047 8.20506V43.4462C2.73047 46.5264 5.22748 49.0234 8.3077 49.0234H92.9192L94.3065 52.2303C94.9071 53.6184 96.4123 54.3803 97.8868 54.0426C99.2319 53.7344 100.528 53.2593 101.771 52.6242C103.048 51.971 104.202 51.1591 105.209 50.181C105.585 49.8165 105.932 49.4307 106.248 49.0234H113.683C116.763 49.0234 119.26 46.5264 119.26 43.4462V8.20506C119.26 5.12484 116.763 2.62783 113.683 2.62783Z" fill="#F8C455"/>
<path d="M94.3065 52.2303L92.7069 52.9223L92.707 52.9225L94.3065 52.2303ZM97.8868 54.0426L98.2759 55.7415L98.2759 55.7415L97.8868 54.0426ZM101.771 52.6242L102.564 54.1762L102.564 54.1761L101.771 52.6242ZM105.209 50.181L106.423 51.4317L106.423 51.4316L105.209 50.181ZM106.248 49.0234V47.2805C105.708 47.2805 105.2 47.5301 104.87 47.9564L106.248 49.0234ZM92.9192 49.0234L94.5189 48.3314C94.2429 47.6935 93.6143 47.2805 92.9192 47.2805V49.0234ZM8.3077 4.37072H113.683V0.884946H8.3077V4.37072ZM117.517 8.20506V43.4462H121.003V8.20506H117.517ZM4.47335 43.4462V8.20506H0.987584V43.4462H4.47335ZM8.3077 47.2805C6.19005 47.2805 4.47335 45.5638 4.47335 43.4462H0.987584C0.987584 47.489 4.26492 50.7663 8.3077 50.7663V47.2805ZM117.517 43.4462C117.517 45.5638 115.8 47.2805 113.683 47.2805V50.7663C117.725 50.7663 121.003 47.489 121.003 43.4462H117.517ZM113.683 4.37072C115.8 4.37072 117.517 6.08741 117.517 8.20506H121.003C121.003 4.16227 117.725 0.884946 113.683 0.884946V4.37072ZM8.3077 0.884946C4.26491 0.884946 0.987584 4.16227 0.987584 8.20506H4.47335C4.47335 6.08741 6.19005 4.37072 8.3077 4.37072V0.884946ZM92.707 52.9225C93.6412 55.0816 95.9826 56.2668 98.2759 55.7415L97.4976 52.3437C96.842 52.4939 96.173 52.1551 95.9061 51.5382L92.707 52.9225ZM98.2759 55.7415C99.765 55.4003 101.196 54.875 102.564 54.1762L100.977 51.0723C99.8594 51.6437 98.6989 52.0685 97.4976 52.3437L98.2759 55.7415ZM102.564 54.1761C103.986 53.4492 105.283 52.5384 106.423 51.4317L103.995 48.9304C103.12 49.7799 102.111 50.4928 100.977 51.0723L102.564 54.1761ZM106.423 51.4316C106.854 51.0132 107.257 50.5665 107.626 50.0904L104.87 47.9564C104.607 48.2949 104.315 48.6197 103.995 48.9305L106.423 51.4316ZM113.683 47.2805H106.248V50.7663H113.683V47.2805ZM92.9192 47.2805H8.3077V50.7663H92.9192V47.2805ZM91.3196 49.7154L92.7069 52.9223L95.9061 51.5383L94.5189 48.3314L91.3196 49.7154Z" fill="black" mask="url(#path-1-outside-1_2006_16310)"/>
<path fill-rule="evenodd" clip-rule="evenodd" d="M50.0863 17.3308C48.7784 17.3308 47.6079 18.142 47.1488 19.3665L38.4926 42.4493C38.1315 43.4127 38.2657 44.4919 38.8516 45.3376C39.4376 46.1836 40.4011 46.6879 41.4301 46.6879H47.5741C48.9067 46.6879 50.0936 45.8465 50.5345 44.5892L51.3938 42.1394H54.9005L55.8402 44.9008C56.3105 46.2825 57.6716 47.1578 59.1238 47.0118L65.2002 46.4007C65.2183 46.3986 65.2368 46.3969 65.2549 46.3948C65.6579 46.5827 66.1076 46.6879 66.5813 46.6879H72.7594C73.3831 46.6879 73.9641 46.506 74.4525 46.1923C74.9408 46.506 75.5223 46.6879 76.1459 46.6879H79.2688C79.7843 46.6879 80.2866 46.5611 80.7342 46.3247C80.9416 46.4108 81.1521 46.4896 81.3655 46.5611C81.3752 46.5642 81.385 46.5673 81.3944 46.5705C82.4018 46.8953 83.4392 47.0613 84.4964 47.0613C86.6297 47.0613 88.649 46.659 90.4581 45.7405C91.2671 45.3351 92.0006 44.8394 92.6552 44.2594C92.4739 44.4902 92.3244 44.7467 92.2125 45.0235C91.8981 45.8019 91.9089 46.6737 92.2421 47.444L94.3127 52.2303C94.9133 53.6184 96.4184 54.3803 97.8929 54.0426C99.2381 53.7344 100.534 53.2593 101.777 52.6242C103.055 51.971 104.208 51.1591 105.215 50.181C106.264 49.1628 107.094 47.9791 107.617 46.6238L107.622 46.612L114.844 28.2348C115.223 27.2691 115.101 26.1781 114.517 25.3207C113.932 24.4632 112.962 23.9501 111.924 23.9501H105.78C104.436 23.9501 103.241 24.8063 102.809 26.079L102.625 26.6227L102.234 25.469C101.697 23.8842 100.01 23.0001 98.4008 23.4599L92.6981 25.0892C92.4157 25.1699 92.1487 25.2889 91.904 25.441C91.4578 25.1256 90.9813 24.8449 90.4752 24.6009C88.9219 23.8519 87.2341 23.4668 85.4609 23.3883V19.5855C85.4609 18.7206 85.104 17.894 84.4741 17.3012C83.8442 16.7083 82.9979 16.4018 82.1344 16.454L75.9566 16.8274C75.5202 16.8537 75.1096 16.9683 74.7408 17.1531C74.1328 16.6578 73.3583 16.4063 72.5702 16.454L66.392 16.8274C64.7359 16.9275 63.4441 18.2997 63.4441 19.9589V30.5909L59.1988 19.3589C58.7376 18.1384 57.5688 17.3308 56.2641 17.3308H50.0863ZM95.1736 40.8737C95.0691 41.0926 94.9568 41.308 94.8369 41.5199C94.3974 42.3133 93.8738 43.0307 93.2701 43.6658C93.4684 43.5208 93.6845 43.3984 93.9146 43.3026C94.4183 43.0927 94.9478 42.8599 95.5041 42.6033C95.5173 42.597 95.5309 42.5908 95.5445 42.5848C95.6313 42.5462 95.7153 42.5075 95.7959 42.4691L95.1736 40.8737Z" fill="#F8C455"/>
<path d="M50.082 20.468H56.2598L64.8819 43.2792L58.8058 43.8903L57.1424 39.0022H49.1652L47.5698 43.5508H41.4258L50.082 20.468ZM55.3772 34.1479L53.0689 27.8681L50.8628 34.1479H55.3772Z" fill="black"/>
<path d="M72.7563 43.5508H66.5781V19.9589L72.7563 19.5855V43.5508Z" fill="black"/>
<path d="M79.2635 43.5508H76.1406V19.9589L82.3185 19.5855V26.9516C82.7033 26.8158 83.0993 26.714 83.5068 26.6461C83.9139 26.5556 84.3325 26.5103 84.7627 26.5103C86.3919 26.5103 87.8403 26.8158 89.1077 27.4268C90.3748 28.0379 91.3706 28.977 92.0946 30.2443C92.8416 31.5116 93.215 33.1296 93.215 35.0985C93.215 37.0446 92.8416 38.6739 92.0946 39.9866C91.3706 41.299 90.3521 42.2834 89.0397 42.9397C87.7496 43.5961 86.2337 43.9241 84.4911 43.9241C83.7668 43.9241 83.054 43.8112 82.3526 43.5846C81.6736 43.3584 80.9946 42.9962 80.3159 42.4984L79.2635 43.5508ZM83.8121 31.2627C83.3597 31.2627 82.8615 31.4324 82.3185 31.7718V38.6965C82.9295 39.0134 83.5179 39.172 84.0837 39.172C84.853 39.172 85.4982 38.821 86.0186 38.1196C86.5617 37.3953 86.8332 36.3997 86.8332 35.1323C86.8332 33.8652 86.5728 32.9033 86.0524 32.247C85.532 31.5908 84.7853 31.2627 83.8121 31.2627Z" fill="black"/>
<path d="M99.3254 43.6188L99.4613 43.2454L93.5547 28.1057L99.2578 26.4764L102.618 36.3882L105.775 27.0874H111.919L104.689 45.4857C104.349 46.3683 103.795 47.183 103.026 47.9296C102.256 48.6766 101.362 49.3103 100.344 49.8307C99.3254 50.3512 98.2734 50.736 97.1869 50.9849L95.1163 46.1986C95.6594 45.9723 96.2251 45.7231 96.8135 45.4516C97.4246 45.18 97.9677 44.8858 98.4428 44.569C98.9182 44.2525 99.2124 43.9356 99.3254 43.6188Z" fill="black"/>
<path d="M34.6152 42.7125C39.2997 42.7125 41.4316 32.3631 41.4316 28.439C41.4316 25.3803 39.3164 23.5267 36.5358 23.5267C33.7723 23.5267 31.5289 24.7123 31.5011 26.1806C31.501 30.0554 30.8175 42.7125 34.6152 42.7125Z" fill="white"/>
<path d="M17.5626 42.7125C12.8782 42.7125 10.7461 32.3631 10.7461 28.439C10.7461 25.3803 12.8613 23.5267 15.642 23.5267C18.4054 23.5267 20.6489 24.7123 20.6768 26.1806C20.6768 30.0554 21.3603 42.7125 17.5626 42.7125Z" fill="white"/>
<path d="M34.6152 42.7125C39.2997 42.7125 41.4316 32.3631 41.4316 28.439C41.4316 25.3803 39.3164 23.5267 36.5358 23.5267C33.7723 23.5267 31.5289 24.7123 31.5011 26.1806C31.501 30.0554 30.8175 42.7125 34.6152 42.7125Z" stroke="black" stroke-width="1.38839"/>
<path d="M17.5626 42.7125C12.8782 42.7125 10.7461 32.3631 10.7461 28.439C10.7461 25.3803 12.8613 23.5267 15.642 23.5267C18.4054 23.5267 20.6489 24.7123 20.6768 26.1806C20.6768 30.0554 21.3603 42.7125 17.5626 42.7125Z" stroke="black" stroke-width="1.38839"/>
<path d="M25.8643 30.3214C30.2081 30.3214 34.2771 29.1357 37.7631 27.0699C37.8621 27.0111 37.9687 27.0184 38.0454 27.0615C38.0824 27.0823 38.1043 27.1073 38.1158 27.1281C38.1256 27.1456 38.1354 27.1725 38.1305 27.2195C37.5909 32.5614 34.6939 36.9769 30.8 39.0095C29.5126 39.6812 28.628 40.8482 27.8511 41.873C27.837 41.8915 27.8231 41.91 27.8091 41.9285C27.1777 42.7609 26.6073 43.5058 25.9105 44.0548C25.2137 43.5058 24.6433 42.7609 24.0119 41.9285C23.998 41.91 23.984 41.8915 23.97 41.873C23.1931 40.8482 22.3084 39.6812 21.021 39.0095C17.1416 36.9846 14.2517 32.5941 13.6966 27.2787C13.6918 27.2317 13.7013 27.2048 13.7109 27.1872C13.7223 27.1663 13.7442 27.1413 13.781 27.1204C13.8573 27.077 13.964 27.0692 14.0633 27.1275C17.5275 29.1577 21.561 30.3214 25.8643 30.3214Z" fill="#FFDF6F" stroke="black" stroke-width="1.38839"/>
<path d="M25.9561 31.2009C32.7039 31.2009 38.174 29.3775 38.174 27.1282C38.174 24.879 32.7039 23.0556 25.9561 23.0556C19.2084 23.0556 13.7383 24.879 13.7383 27.1282C13.7383 29.3775 19.2084 31.2009 25.9561 31.2009Z" fill="black" stroke="black" stroke-width="1.38839"/>
<path d="M16.1445 33.9775C16.1445 33.9775 22.1709 36.0139 26.0484 36.0139C29.9259 36.0139 35.9523 33.9775 35.9523 33.9775" stroke="black" stroke-width="1.38839" stroke-linecap="round"/>
<path d="M11.6953 9.71289C11.6953 11.2387 12.9322 12.4756 14.458 12.4756C15.9838 12.4756 17.2207 11.2387 17.2207 9.71289C17.2207 8.18709 15.9838 6.9502 14.458 6.9502C12.9322 6.9502 11.6953 8.18709 11.6953 9.71289Z" fill="black"/>
<path d="M39.7872 9.71289C39.7872 11.2387 38.5501 12.4756 37.0244 12.4756C35.4986 12.4756 34.2617 11.2387 34.2617 9.71289C34.2617 8.18709 35.4986 6.9502 37.0244 6.9502C38.5501 6.9502 39.7872 8.18709 39.7872 9.71289Z" fill="black"/>
<path d="M37.5328 9.29852L32.3757 14.4555M14.0039 9.29852L19.1609 14.4555L14.0039 9.29852Z" stroke="black" stroke-width="1.38134"/>
<path d="M15.246 26.1986C13.757 25.4898 12.8905 23.898 13.1807 22.2746C14.4266 15.3071 19.6188 10.0812 25.8349 10.0812C32.066 10.0812 37.2684 15.3325 38.4979 22.3253C38.7841 23.9516 37.9105 25.5427 36.4163 26.2458C33.2193 27.7503 29.6483 28.5912 25.8809 28.5912C22.0744 28.5912 18.4684 27.7327 15.246 26.1986Z" fill="#FFDF6F" stroke="black" stroke-width="1.38134"/>
<path d="M17.9025 24.4664C16.7039 23.9782 15.993 22.703 16.4083 21.4773C17.6891 17.6974 21.4252 14.962 25.8346 14.962C30.2441 14.962 33.9802 17.6974 35.261 21.4773C35.6763 22.703 34.9653 23.9782 33.7668 24.4664C31.3188 25.4634 28.6409 26.0127 25.8346 26.0127C23.0284 26.0127 20.3505 25.4634 17.9025 24.4664Z" fill="black"/>
<path d="M31.3193 20.8557C31.3193 21.8729 30.2886 22.6975 29.0171 22.6975C27.7456 22.6975 26.7148 21.8729 26.7148 20.8557C26.7148 19.8385 27.7456 19.0139 29.0171 19.0139C30.2886 19.0139 31.3193 19.8385 31.3193 20.8557Z" fill="white"/>
<path d="M24.7216 20.8568C24.7216 21.874 23.6909 22.6986 22.4194 22.6986C21.1479 22.6986 20.1172 21.874 20.1172 20.8568C20.1172 19.8396 21.1479 19.015 22.4194 19.015C23.6909 19.015 24.7216 19.8396 24.7216 20.8568Z" fill="white"/>
<path d="M45.9433 16.4413C46.053 16.5071 46.1819 16.5674 46.33 16.6222C46.4835 16.6771 46.6426 16.7264 46.8071 16.7703C46.9771 16.8087 47.1444 16.8389 47.3089 16.8608C47.4789 16.8827 47.6352 16.8937 47.7778 16.8937C48.2385 16.8937 48.6361 16.8224 48.9707 16.6798C49.3052 16.5372 49.5602 16.3425 49.7357 16.0958C49.9167 15.8435 50.0072 15.561 50.0072 15.2484C50.0072 15.0181 49.9551 14.8124 49.8509 14.6315C49.7522 14.445 49.6206 14.275 49.456 14.1214C49.2915 13.9679 49.1078 13.828 48.9049 13.7019C48.7074 13.5757 48.51 13.4551 48.3126 13.3399C48.1645 13.2522 48.0246 13.1781 47.893 13.1178C47.7669 13.052 47.6627 12.9862 47.5804 12.9204C47.5036 12.8545 47.4652 12.7833 47.4652 12.7065C47.4652 12.6023 47.5146 12.5118 47.6133 12.435C47.712 12.3527 47.8464 12.3116 48.0164 12.3116C48.1425 12.3116 48.2577 12.3198 48.3619 12.3363C48.4661 12.3473 48.5813 12.3692 48.7074 12.4021C48.839 12.435 49.0036 12.4871 49.201 12.5584L49.6452 11.5465C49.4259 11.3985 49.1654 11.286 48.8637 11.2093C48.5676 11.127 48.2796 11.0859 48 11.0859C47.5777 11.0859 47.2102 11.1572 46.8976 11.2998C46.585 11.4369 46.3437 11.6261 46.1737 11.8674C46.0092 12.1087 45.9242 12.3829 45.9187 12.69C45.9187 12.9258 45.9708 13.1397 46.075 13.3317C46.1792 13.5181 46.3163 13.6854 46.4863 13.8335C46.6563 13.9816 46.8373 14.1159 47.0292 14.2366C47.2267 14.3572 47.4159 14.4724 47.5969 14.5821C47.7394 14.6644 47.8766 14.7439 48.0082 14.8207C48.1398 14.892 48.2467 14.9633 48.329 15.0345C48.4168 15.1004 48.4606 15.1662 48.4606 15.232C48.4606 15.2978 48.4332 15.3663 48.3784 15.4376C48.3235 15.5035 48.2413 15.5583 48.1316 15.6022C48.0274 15.646 47.8957 15.668 47.7367 15.668C47.6051 15.668 47.4543 15.6515 47.2843 15.6186C47.1197 15.5802 46.9607 15.5336 46.8071 15.4788C46.659 15.4239 46.5356 15.3691 46.4369 15.3142L45.9433 16.4413ZM52.2438 11.1928H50.7465V14.6479C50.7465 15.1305 50.8507 15.5418 51.0591 15.8819C51.273 16.2164 51.5692 16.4714 51.9476 16.6469C52.326 16.8169 52.762 16.9019 53.2556 16.9019C53.7547 16.9019 54.1907 16.8169 54.5636 16.6469C54.942 16.4714 55.2354 16.2164 55.4438 15.8819C55.6577 15.5418 55.7647 15.1305 55.7647 14.6479V11.1928H54.2675V14.5739C54.2675 14.8042 54.2236 15.0016 54.1358 15.1662C54.0481 15.3252 53.9274 15.4459 53.7739 15.5281C53.6258 15.6104 53.453 15.6515 53.2556 15.6515C53.0582 15.6515 52.8827 15.6104 52.7291 15.5281C52.5756 15.4459 52.4549 15.3252 52.3671 15.1662C52.2849 15.0016 52.2438 14.8042 52.2438 14.5739V11.1928ZM58.4958 16.7868V15.1579H59.2856C59.5872 15.1579 59.8779 15.1196 60.1576 15.0428C60.4427 14.966 60.6978 14.8481 60.9226 14.689C61.1475 14.53 61.3257 14.3271 61.4573 14.0803C61.589 13.8335 61.6548 13.5428 61.6548 13.2083C61.6548 12.7586 61.5478 12.3856 61.3339 12.0895C61.1255 11.7879 60.8458 11.563 60.4948 11.4149C60.1493 11.2668 59.7682 11.1928 59.3514 11.1928H56.9986V16.7868H58.4958ZM59.302 12.3692C59.472 12.3692 59.6146 12.4048 59.7298 12.4761C59.8504 12.5474 59.9437 12.6461 60.0095 12.7723C60.0753 12.8984 60.1082 13.0438 60.1082 13.2083C60.1082 13.3509 60.0726 13.4825 60.0013 13.6032C59.9355 13.7183 59.8422 13.8116 59.7216 13.8828C59.6064 13.9487 59.472 13.9816 59.3185 13.9816H58.4958V12.3692H59.302ZM63.9748 16.7868V15.1579H64.7645C65.0661 15.1579 65.3568 15.1196 65.6365 15.0428C65.9217 14.966 66.1767 14.8481 66.4015 14.689C66.6264 14.53 66.8046 14.3271 66.9363 14.0803C67.0679 13.8335 67.1337 13.5428 67.1337 13.2083C67.1337 12.7586 67.0268 12.3856 66.8129 12.0895C66.6045 11.7879 66.3248 11.563 65.9738 11.4149C65.6283 11.2668 65.2471 11.1928 64.8303 11.1928H62.4775V16.7868H63.9748ZM64.7809 12.3692C64.951 12.3692 65.0935 12.4048 65.2087 12.4761C65.3294 12.5474 65.4226 12.6461 65.4884 12.7723C65.5542 12.8984 65.5871 13.0438 65.5871 13.2083C65.5871 13.3509 65.5515 13.4825 65.4802 13.6032C65.4144 13.7183 65.3211 13.8116 65.2005 13.8828C65.0853 13.9487 64.951 13.9816 64.7974 13.9816H63.9748V12.3692H64.7809ZM70.4326 16.9019C69.8403 16.9019 69.3275 16.7731 68.8943 16.5153C68.461 16.2575 68.1265 15.9093 67.8907 15.4705C67.6603 15.0318 67.5451 14.5464 67.5451 14.0145C67.5451 13.4386 67.6685 12.9313 67.9153 12.4926C68.1621 12.0484 68.5022 11.7028 68.9354 11.4561C69.3742 11.2038 69.8732 11.0776 70.4326 11.0776C71.0414 11.0776 71.5596 11.2065 71.9874 11.4643C72.4207 11.722 72.7525 12.0676 72.9828 12.5008C73.2131 12.9341 73.3283 13.4194 73.3283 13.9569C73.3283 14.5327 73.2049 15.0428 72.9581 15.487C72.7168 15.9312 72.3768 16.2795 71.938 16.5318C71.5048 16.7785 71.003 16.9019 70.4326 16.9019ZM70.4244 15.6515C70.6822 15.6515 70.9125 15.5885 71.1154 15.4623C71.3238 15.3362 71.4883 15.147 71.609 14.8947C71.7296 14.6424 71.79 14.3298 71.79 13.9569C71.79 13.6443 71.7351 13.3673 71.6254 13.126C71.5212 12.8792 71.3677 12.6845 71.1648 12.5419C70.9673 12.3994 70.7288 12.3281 70.4491 12.3281C70.2023 12.3281 69.9747 12.3994 69.7663 12.5419C69.5579 12.679 69.3906 12.8737 69.2645 13.126C69.1438 13.3728 69.0835 13.6662 69.0835 14.0062C69.0835 14.3188 69.1356 14.6013 69.2398 14.8536C69.3495 15.1004 69.503 15.2951 69.7005 15.4376C69.9034 15.5802 70.1447 15.6515 70.4244 15.6515ZM76.5341 12.3692C76.7041 12.3692 76.8467 12.3966 76.9619 12.4515C77.0825 12.5008 77.1758 12.5803 77.2416 12.69C77.3074 12.7997 77.3403 12.9368 77.3403 13.1013C77.3403 13.2439 77.3047 13.3728 77.2334 13.488C77.1675 13.6032 77.0743 13.6936 76.9537 13.7595C76.8385 13.8198 76.7041 13.8499 76.5506 13.8499H75.7279V12.3692H76.5341ZM74.2307 11.1928V16.7868H75.7279V15.0263H76.2297C76.312 15.0263 76.3943 15.0263 76.4765 15.0263C76.5588 15.0263 76.6411 15.0263 76.7233 15.0263L77.6282 16.7868H79.364L78.13 14.5821C78.3549 14.4285 78.5359 14.2284 78.673 13.9816C78.8156 13.7348 78.8869 13.4414 78.8869 13.1013C78.8869 12.6516 78.7799 12.2869 78.566 12.0072C78.3576 11.7275 78.0779 11.5219 77.7269 11.3902C77.3814 11.2586 77.0003 11.1928 76.5835 11.1928H74.2307ZM84.3152 11.1928H79.5274V12.3692H81.1727V16.7868H82.6699V12.3692H84.4551L84.3152 11.1928ZM94.4902 11.1928L92.886 16.7868H91.3888L90.4675 13.2741L89.6037 16.7868H88.1065L86.4283 11.2586L87.9008 11.1105L88.8798 14.9934L89.7189 11.1928H91.2079L92.1621 14.9934L93.0012 11.1928H94.4902ZM96.7278 16.7868V11.1928H95.2306V16.7868H96.7278ZM102.254 11.1928H97.4665V12.3692H99.1118V16.7868H100.609V12.3692H102.394L102.254 11.1928ZM108.088 16.7868V11.1928H106.591V13.4222H104.633V11.1435L103.136 11.1928V16.7868H104.633V14.5985H106.591V16.7868H108.088Z" fill="black"/>
</svg>
