<svg width="122" height="56" viewBox="0 0 122 56" fill="none" xmlns="http://www.w3.org/2000/svg">
<mask id="path-1-outside-1_2006_16070" maskUnits="userSpaceOnUse" x="0.730469" y="-0.257111" width="121" height="56" fill="black">
<rect fill="white" x="0.730469" y="-0.257111" width="121" height="56"/>
<path d="M113.683 1.74289H8.3077C5.22748 1.74289 2.73047 4.2399 2.73047 7.32012V42.5612C2.73047 45.6415 5.22748 48.1385 8.3077 48.1385H92.9192L94.3065 51.3454C94.9071 52.7334 96.4123 53.4954 97.8868 53.1576C99.2319 52.8495 100.528 52.3744 101.771 51.7393C103.048 51.086 104.202 50.2742 105.209 49.2961C105.585 48.9315 105.932 48.5458 106.248 48.1385H113.683C116.763 48.1385 119.26 45.6415 119.26 42.5612V7.32012C119.26 4.2399 116.763 1.74289 113.683 1.74289Z"/>
</mask>
<path d="M113.683 1.74289H8.3077C5.22748 1.74289 2.73047 4.2399 2.73047 7.32012V42.5612C2.73047 45.6415 5.22748 48.1385 8.3077 48.1385H92.9192L94.3065 51.3454C94.9071 52.7334 96.4123 53.4954 97.8868 53.1576C99.2319 52.8495 100.528 52.3744 101.771 51.7393C103.048 51.086 104.202 50.2742 105.209 49.2961C105.585 48.9315 105.932 48.5458 106.248 48.1385H113.683C116.763 48.1385 119.26 45.6415 119.26 42.5612V7.32012C119.26 4.2399 116.763 1.74289 113.683 1.74289Z" fill="#F8C455"/>
<path d="M94.3065 51.3454L92.7069 52.0374L92.707 52.0375L94.3065 51.3454ZM97.8868 53.1576L98.2759 54.8565L98.2759 54.8565L97.8868 53.1576ZM101.771 51.7393L102.564 53.2912L102.564 53.2912L101.771 51.7393ZM105.209 49.2961L106.423 50.5468L106.423 50.5467L105.209 49.2961ZM106.248 48.1385V46.3956C105.708 46.3956 105.2 46.6451 104.87 47.0715L106.248 48.1385ZM92.9192 48.1385L94.5189 47.4465C94.2429 46.8086 93.6143 46.3956 92.9192 46.3956V48.1385ZM8.3077 3.48577H113.683V4.52995e-06H8.3077V3.48577ZM117.517 7.32012V42.5612H121.003V7.32012H117.517ZM4.47335 42.5612V7.32012H0.987584V42.5612H4.47335ZM8.3077 46.3956C6.19005 46.3956 4.47335 44.6789 4.47335 42.5612H0.987584C0.987584 46.604 4.26492 49.8814 8.3077 49.8814V46.3956ZM117.517 42.5612C117.517 44.6789 115.8 46.3956 113.683 46.3956V49.8814C117.725 49.8814 121.003 46.604 121.003 42.5612H117.517ZM113.683 3.48577C115.8 3.48577 117.517 5.20247 117.517 7.32012H121.003C121.003 3.27733 117.725 4.52995e-06 113.683 4.52995e-06V3.48577ZM8.3077 4.52995e-06C4.26491 4.52995e-06 0.987584 3.27733 0.987584 7.32012H4.47335C4.47335 5.20247 6.19005 3.48577 8.3077 3.48577V4.52995e-06ZM92.707 52.0375C93.6412 54.1966 95.9826 55.3819 98.2759 54.8565L97.4976 51.4588C96.842 51.6089 96.173 51.2702 95.9061 50.6533L92.707 52.0375ZM98.2759 54.8565C99.765 54.5154 101.196 53.99 102.564 53.2912L100.977 50.1873C99.8594 50.7587 98.6989 51.1836 97.4976 51.4588L98.2759 54.8565ZM102.564 53.2912C103.986 52.5643 105.283 51.6535 106.423 50.5468L103.995 48.0454C103.12 48.895 102.111 49.6078 100.977 50.1874L102.564 53.2912ZM106.423 50.5467C106.854 50.1283 107.257 49.6815 107.626 49.2055L104.87 47.0715C104.607 47.41 104.315 47.7348 103.995 48.0455L106.423 50.5467ZM113.683 46.3956H106.248V49.8814H113.683V46.3956ZM92.9192 46.3956H8.3077V49.8814H92.9192V46.3956ZM91.3196 48.8305L92.7069 52.0374L95.9061 50.6534L94.5189 47.4465L91.3196 48.8305Z" fill="black" mask="url(#path-1-outside-1_2006_16070)"/>
<path fill-rule="evenodd" clip-rule="evenodd" d="M50.0863 16.4459C48.7784 16.4459 47.6079 17.2571 47.1488 18.4815L38.4926 41.5643C38.1315 42.5278 38.2657 43.607 38.8516 44.4526C39.4376 45.2986 40.4011 45.803 41.4301 45.803H47.5741C48.9067 45.803 50.0936 44.9615 50.5345 43.7042L51.3938 41.2544H54.9005L55.8402 44.0158C56.3105 45.3976 57.6716 46.2729 59.1238 46.1268L65.2002 45.5158C65.2183 45.5137 65.2368 45.5119 65.2549 45.5098C65.6579 45.6977 66.1076 45.803 66.5813 45.803H72.7594C73.3831 45.803 73.9641 45.621 74.4525 45.3073C74.9408 45.621 75.5223 45.803 76.1459 45.803H79.2688C79.7843 45.803 80.2866 45.6761 80.7342 45.4398C80.9416 45.5259 81.1521 45.6047 81.3655 45.6761C81.3752 45.6793 81.385 45.6824 81.3944 45.6855C82.4018 46.0104 83.4392 46.1763 84.4964 46.1763C86.6297 46.1763 88.649 45.7741 90.4581 44.8556C91.2671 44.4502 92.0006 43.9545 92.6552 43.3745C92.4739 43.6052 92.3244 43.8618 92.2125 44.1385C91.8981 44.9169 91.9089 45.7887 92.2421 46.5591L94.3127 51.3454C94.9133 52.7334 96.4184 53.4954 97.8929 53.1576C99.2381 52.8495 100.534 52.3744 101.777 51.7393C103.055 51.086 104.208 50.2742 105.215 49.2961C106.264 48.2779 107.094 47.0941 107.617 45.7389L107.622 45.727L114.844 27.3499C115.223 26.3841 115.101 25.2932 114.517 24.4357C113.932 23.5783 112.962 23.0652 111.924 23.0652H105.78C104.436 23.0652 103.241 23.9214 102.809 25.1941L102.625 25.7377L102.234 24.5841C101.697 22.9993 100.01 22.1152 98.4008 22.5749L92.6981 24.2043C92.4157 24.285 92.1487 24.404 91.904 24.5561C91.4578 24.2407 90.9813 23.96 90.4752 23.716C88.9219 22.967 87.2341 22.5818 85.4609 22.5033V18.7005C85.4609 17.8356 85.104 17.0091 84.4741 16.4163C83.8442 15.8234 82.9979 15.5169 82.1344 15.569L75.9566 15.9424C75.5202 15.9688 75.1096 16.0834 74.7408 16.2682C74.1328 15.7728 73.3583 15.5214 72.5702 15.569L66.392 15.9424C64.7359 16.0425 63.4441 17.4148 63.4441 19.0739V29.706L59.1988 18.4739C58.7376 17.2534 57.5688 16.4459 56.2641 16.4459H50.0863ZM95.1736 39.9887C95.0691 40.2076 94.9568 40.4231 94.8369 40.635C94.3974 41.4284 93.8738 42.1457 93.2701 42.7808C93.4684 42.6358 93.6845 42.5135 93.9146 42.4176C94.4183 42.2078 94.9478 41.9749 95.5041 41.7184C95.5173 41.7121 95.5309 41.7058 95.5445 41.6999C95.6313 41.6612 95.7153 41.6225 95.7959 41.5842L95.1736 39.9887Z" fill="#F8C455"/>
<path d="M50.082 19.5831H56.2598L64.8819 42.3943L58.8058 43.0053L57.1424 38.1172H49.1652L47.5698 42.6658H41.4258L50.082 19.5831ZM55.3772 33.263L53.0689 26.9831L50.8628 33.263H55.3772Z" fill="black"/>
<path d="M72.7563 42.6658H66.5781V19.0739L72.7563 18.7005V42.6658Z" fill="black"/>
<path d="M79.2635 42.6658H76.1406V19.0739L82.3185 18.7005V26.0666C82.7033 25.9308 83.0993 25.829 83.5068 25.7611C83.9139 25.6706 84.3325 25.6253 84.7627 25.6253C86.3919 25.6253 87.8403 25.9308 89.1077 26.5419C90.3748 27.1529 91.3706 28.092 92.0946 29.3593C92.8416 30.6266 93.215 32.2446 93.215 34.2135C93.215 36.1596 92.8416 37.7889 92.0946 39.1016C91.3706 40.414 90.3521 41.3984 89.0397 42.0548C87.7496 42.7111 86.2337 43.0391 84.4911 43.0391C83.7668 43.0391 83.054 42.9262 82.3526 42.6996C81.6736 42.4734 80.9946 42.1112 80.3159 41.6135L79.2635 42.6658ZM83.8121 30.3777C83.3597 30.3777 82.8615 30.5474 82.3185 30.8868V37.8115C82.9295 38.1284 83.5179 38.287 84.0837 38.287C84.853 38.287 85.4982 37.936 86.0186 37.2346C86.5617 36.5103 86.8332 35.5148 86.8332 34.2473C86.8332 32.9803 86.5728 32.0184 86.0524 31.3621C85.532 30.7058 84.7853 30.3777 83.8121 30.3777Z" fill="black"/>
<path d="M99.3254 42.7338L99.4613 42.3605L93.5547 27.2208L99.2578 25.5914L102.618 35.5033L105.775 26.2024H111.919L104.689 44.6008C104.349 45.4834 103.795 46.298 103.026 47.0446C102.256 47.7916 101.362 48.4254 100.344 48.9458C99.3254 49.4662 98.2734 49.851 97.1869 50.0999L95.1163 45.3136C95.6594 45.0874 96.2251 44.8381 96.8135 44.5666C97.4246 44.2951 97.9677 44.0009 98.4428 43.684C98.9182 43.3675 99.2124 43.0506 99.3254 42.7338Z" fill="black"/>
<path d="M34.6152 41.8275C39.2997 41.8275 41.4316 31.4781 41.4316 27.554C41.4316 24.4954 39.3164 22.6417 36.5358 22.6417C33.7723 22.6417 31.5289 23.8274 31.5011 25.2956C31.501 29.1705 30.8175 41.8275 34.6152 41.8275Z" fill="white"/>
<path d="M17.5626 41.8275C12.8782 41.8275 10.7461 31.4781 10.7461 27.554C10.7461 24.4954 12.8613 22.6417 15.642 22.6417C18.4054 22.6417 20.6489 23.8274 20.6768 25.2956C20.6768 29.1705 21.3603 41.8275 17.5626 41.8275Z" fill="white"/>
<path d="M34.6152 41.8275C39.2997 41.8275 41.4316 31.4781 41.4316 27.554C41.4316 24.4954 39.3164 22.6417 36.5358 22.6417C33.7723 22.6417 31.5289 23.8274 31.5011 25.2956C31.501 29.1705 30.8175 41.8275 34.6152 41.8275Z" stroke="black" stroke-width="1.38839"/>
<path d="M17.5626 41.8275C12.8782 41.8275 10.7461 31.4781 10.7461 27.554C10.7461 24.4954 12.8613 22.6417 15.642 22.6417C18.4054 22.6417 20.6489 23.8274 20.6768 25.2956C20.6768 29.1705 21.3603 41.8275 17.5626 41.8275Z" stroke="black" stroke-width="1.38839"/>
<path d="M25.8643 29.4364C30.2081 29.4364 34.2771 28.2508 37.7631 26.185C37.8621 26.1262 37.9687 26.1335 38.0454 26.1766C38.0824 26.1974 38.1043 26.2223 38.1158 26.2431C38.1256 26.2607 38.1354 26.2876 38.1305 26.3346C37.5909 31.6764 34.6939 36.092 30.8 38.1246C29.5126 38.7963 28.628 39.9633 27.8511 40.9881C27.837 41.0066 27.8231 41.0251 27.8091 41.0435C27.1777 41.8759 26.6073 42.6208 25.9105 43.1699C25.2137 42.6208 24.6433 41.8759 24.0119 41.0435C23.998 41.0251 23.984 41.0066 23.97 40.9881C23.1931 39.9633 22.3084 38.7963 21.021 38.1246C17.1416 36.0997 14.2517 31.7092 13.6966 26.3937C13.6918 26.3468 13.7013 26.3199 13.7109 26.3023C13.7223 26.2814 13.7442 26.2564 13.781 26.2355C13.8573 26.1921 13.964 26.1843 14.0633 26.2425C17.5275 28.2728 21.561 29.4364 25.8643 29.4364Z" fill="#FFDF6F" stroke="black" stroke-width="1.38839"/>
<path d="M25.9561 30.3159C32.7039 30.3159 38.174 28.4925 38.174 26.2432C38.174 23.994 32.7039 22.1706 25.9561 22.1706C19.2084 22.1706 13.7383 23.994 13.7383 26.2432C13.7383 28.4925 19.2084 30.3159 25.9561 30.3159Z" fill="black" stroke="black" stroke-width="1.38839"/>
<path d="M16.1445 33.0925C16.1445 33.0925 22.1709 35.1289 26.0484 35.1289C29.9259 35.1289 35.9523 33.0925 35.9523 33.0925" stroke="black" stroke-width="1.38839" stroke-linecap="round"/>
<path d="M11.6953 8.82791C11.6953 10.3537 12.9322 11.5906 14.458 11.5906C15.9838 11.5906 17.2207 10.3537 17.2207 8.82791C17.2207 7.30212 15.9838 6.06523 14.458 6.06523C12.9322 6.06523 11.6953 7.30212 11.6953 8.82791Z" fill="black"/>
<path d="M39.7872 8.82791C39.7872 10.3537 38.5501 11.5906 37.0244 11.5906C35.4986 11.5906 34.2617 10.3537 34.2617 8.82791C34.2617 7.30212 35.4986 6.06523 37.0244 6.06523C38.5501 6.06523 39.7872 7.30212 39.7872 8.82791Z" fill="black"/>
<path d="M37.5328 8.41353L32.3757 13.5705M14.0039 8.41353L19.1609 13.5705L14.0039 8.41353Z" stroke="black" stroke-width="1.38134"/>
<path d="M15.246 25.3137C13.757 24.6048 12.8905 23.013 13.1807 21.3896C14.4266 14.4221 19.6188 9.19626 25.8349 9.19626C32.066 9.19626 37.2684 14.4475 38.4979 21.4403C38.7841 23.0666 37.9105 24.6577 36.4163 25.3608C33.2193 26.8653 29.6483 27.7063 25.8809 27.7063C22.0744 27.7063 18.4684 26.8477 15.246 25.3137Z" fill="#FFDF6F" stroke="black" stroke-width="1.38134"/>
<path d="M17.9025 23.5814C16.7039 23.0933 15.993 21.818 16.4083 20.5924C17.6891 16.8124 21.4252 14.077 25.8346 14.077C30.2441 14.077 33.9802 16.8124 35.261 20.5924C35.6763 21.818 34.9653 23.0933 33.7668 23.5814C31.3188 24.5784 28.6409 25.1278 25.8346 25.1278C23.0284 25.1278 20.3505 24.5784 17.9025 23.5814Z" fill="black"/>
<path d="M31.3193 19.9707C31.3193 20.9879 30.2886 21.8125 29.0171 21.8125C27.7456 21.8125 26.7148 20.9879 26.7148 19.9707C26.7148 18.9536 27.7456 18.129 29.0171 18.129C30.2886 18.129 31.3193 18.9536 31.3193 19.9707Z" fill="white"/>
<path d="M24.7216 19.9719C24.7216 20.989 23.6909 21.8136 22.4194 21.8136C21.1479 21.8136 20.1172 20.989 20.1172 19.9719C20.1172 18.9546 21.1479 18.1301 22.4194 18.1301C23.6909 18.1301 24.7216 18.9546 24.7216 19.9719Z" fill="white"/>
<path d="M51.4086 8.90714H45.7688V10.2929H47.7069V15.4966H49.4705V10.2929H51.5734L51.4086 8.90714ZM54.2105 15.4966V8.90714H52.4469V15.4966H54.2105ZM57.5227 15.4966V13.5779H58.453C58.8083 13.5779 59.1507 13.5327 59.4801 13.4423C59.8161 13.3518 60.1165 13.2129 60.3814 13.0256C60.6462 12.8382 60.8562 12.5992 61.0112 12.3085C61.1663 12.0178 61.2438 11.6754 61.2438 11.2813C61.2438 10.7516 61.1178 10.3123 60.8659 9.9634C60.6204 9.60809 60.2909 9.34321 59.8775 9.16879C59.4705 8.99436 59.0215 8.90714 58.5305 8.90714H55.759V15.4966H57.5227ZM58.4723 10.2929C58.6726 10.2929 58.8406 10.3349 58.9762 10.4189C59.1184 10.5028 59.2282 10.6191 59.3057 10.7677C59.3832 10.9163 59.422 11.0875 59.422 11.2813C59.422 11.4493 59.38 11.6043 59.296 11.7464C59.2185 11.8821 59.1087 11.9919 58.9666 12.0759C58.8309 12.1534 58.6726 12.1922 58.4917 12.1922H57.5227V10.2929H58.4723ZM73.1605 8.90714L71.2709 15.4966H69.5073L68.4219 11.3588L67.4044 15.4966H65.6408L63.6639 8.98467L65.3985 8.81024L66.5517 13.3841L67.5401 8.90714H69.2941L70.4182 13.3841L71.4066 8.90714H73.1605ZM75.7963 15.4966V8.90714H74.0327V15.4966H75.7963ZM82.3064 8.90714H76.6665V10.2929H78.6046V15.4966H80.3683V10.2929H82.4711L82.3064 8.90714ZM89.1782 15.4966V8.90714H87.4146V11.5333H85.1083V8.849L83.3446 8.90714V15.4966H85.1083V12.919H87.4146V15.4966H89.1782Z" fill="black"/>
</svg>
