<svg width="122" height="56" viewBox="0 0 122 56" fill="none" xmlns="http://www.w3.org/2000/svg">
<mask id="path-1-outside-1_2006_16262" maskUnits="userSpaceOnUse" x="0.730469" y="0.65082" width="121" height="56" fill="black">
<rect fill="white" x="0.730469" y="0.65082" width="121" height="56"/>
<path d="M113.683 2.65082H8.3077C5.22748 2.65082 2.73047 5.14783 2.73047 8.22805V43.4692C2.73047 46.5494 5.22748 49.0464 8.3077 49.0464H92.9192L94.3065 52.2533C94.9071 53.6413 96.4123 54.4033 97.8868 54.0656C99.2319 53.7574 100.528 53.2823 101.771 52.6472C103.048 51.994 104.202 51.1821 105.209 50.204C105.585 49.8395 105.932 49.4537 106.248 49.0464H113.683C116.763 49.0464 119.26 46.5494 119.26 43.4692V8.22805C119.26 5.14783 116.763 2.65082 113.683 2.65082Z"/>
</mask>
<path d="M113.683 2.65082H8.3077C5.22748 2.65082 2.73047 5.14783 2.73047 8.22805V43.4692C2.73047 46.5494 5.22748 49.0464 8.3077 49.0464H92.9192L94.3065 52.2533C94.9071 53.6413 96.4123 54.4033 97.8868 54.0656C99.2319 53.7574 100.528 53.2823 101.771 52.6472C103.048 51.994 104.202 51.1821 105.209 50.204C105.585 49.8395 105.932 49.4537 106.248 49.0464H113.683C116.763 49.0464 119.26 46.5494 119.26 43.4692V8.22805C119.26 5.14783 116.763 2.65082 113.683 2.65082Z" fill="#F8C455"/>
<path d="M94.3065 52.2533L92.7069 52.9453L92.707 52.9454L94.3065 52.2533ZM97.8868 54.0656L98.2759 55.7644L98.2759 55.7644L97.8868 54.0656ZM101.771 52.6472L102.564 54.1992L102.564 54.1991L101.771 52.6472ZM105.209 50.204L106.423 51.4547L106.423 51.4546L105.209 50.204ZM106.248 49.0464V47.3035C105.708 47.3035 105.2 47.5531 104.87 47.9794L106.248 49.0464ZM92.9192 49.0464L94.5189 48.3544C94.2429 47.7165 93.6143 47.3035 92.9192 47.3035V49.0464ZM8.3077 4.3937H113.683V0.907935H8.3077V4.3937ZM117.517 8.22805V43.4692H121.003V8.22805H117.517ZM4.47335 43.4692V8.22805H0.987584V43.4692H4.47335ZM8.3077 47.3035C6.19005 47.3035 4.47335 45.5868 4.47335 43.4692H0.987584C0.987584 47.512 4.26492 50.7893 8.3077 50.7893V47.3035ZM117.517 43.4692C117.517 45.5868 115.8 47.3035 113.683 47.3035V50.7893C117.725 50.7893 121.003 47.512 121.003 43.4692H117.517ZM113.683 4.3937C115.8 4.3937 117.517 6.1104 117.517 8.22805H121.003C121.003 4.18526 117.725 0.907935 113.683 0.907935V4.3937ZM8.3077 0.907935C4.26491 0.907935 0.987584 4.18526 0.987584 8.22805H4.47335C4.47335 6.1104 6.19005 4.3937 8.3077 4.3937V0.907935ZM92.707 52.9454C93.6412 55.1046 95.9826 56.2898 98.2759 55.7644L97.4976 52.3667C96.842 52.5169 96.173 52.1781 95.9061 51.5612L92.707 52.9454ZM98.2759 55.7644C99.765 55.4233 101.196 54.898 102.564 54.1992L100.977 51.0953C99.8594 51.6666 98.6989 52.0915 97.4976 52.3667L98.2759 55.7644ZM102.564 54.1991C103.986 53.4722 105.283 52.5614 106.423 51.4547L103.995 48.9534C103.12 49.8029 102.111 50.5157 100.977 51.0953L102.564 54.1991ZM106.423 51.4546C106.854 51.0362 107.257 50.5894 107.626 50.1134L104.87 47.9794C104.607 48.3179 104.315 48.6427 103.995 48.9535L106.423 51.4546ZM113.683 47.3035H106.248V50.7893H113.683V47.3035ZM92.9192 47.3035H8.3077V50.7893H92.9192V47.3035ZM91.3196 49.7384L92.7069 52.9453L95.9061 51.5613L94.5189 48.3544L91.3196 49.7384Z" fill="black" mask="url(#path-1-outside-1_2006_16262)"/>
<path fill-rule="evenodd" clip-rule="evenodd" d="M50.0863 17.3539C48.7784 17.3539 47.6079 18.1651 47.1488 19.3895L38.4926 42.4723C38.1315 43.4357 38.2657 44.5149 38.8516 45.3606C39.4376 46.2066 40.4011 46.711 41.4301 46.711H47.5741C48.9067 46.711 50.0936 45.8695 50.5345 44.6122L51.3938 42.1624H54.9005L55.8402 44.9238C56.3105 46.3056 57.6716 47.1809 59.1238 47.0348L65.2002 46.4237C65.2183 46.4217 65.2368 46.4199 65.2549 46.4178C65.6579 46.6057 66.1076 46.711 66.5813 46.711H72.7594C73.3831 46.711 73.9641 46.529 74.4525 46.2153C74.9408 46.529 75.5223 46.711 76.1459 46.711H79.2688C79.7843 46.711 80.2866 46.5841 80.7342 46.3478C80.9416 46.4339 81.1521 46.5126 81.3655 46.5841C81.3752 46.5872 81.385 46.5904 81.3944 46.5935C82.4018 46.9184 83.4392 47.0843 84.4964 47.0843C86.6297 47.0843 88.649 46.682 90.4581 45.7635C91.2671 45.3581 92.0006 44.8625 92.6552 44.2824C92.4739 44.5132 92.3244 44.7697 92.2125 45.0465C91.8981 45.8249 91.9089 46.6967 92.2421 47.467L94.3127 52.2533C94.9133 53.6414 96.4184 54.4034 97.8929 54.0656C99.2381 53.7575 100.534 53.2823 101.777 52.6472C103.055 51.994 104.208 51.1822 105.215 50.2041C106.264 49.1859 107.094 48.0021 107.617 46.6468L107.622 46.635L114.844 28.2578C115.223 27.2921 115.101 26.2012 114.517 25.3437C113.932 24.4862 112.962 23.9732 111.924 23.9732H105.78C104.436 23.9732 103.241 24.8293 102.809 26.1021L102.625 26.6457L102.234 25.4921C101.697 23.9072 100.01 23.0232 98.4008 23.4829L92.6981 25.1122C92.4157 25.1929 92.1487 25.312 91.904 25.4641C91.4578 25.1486 90.9813 24.868 90.4752 24.624C88.9219 23.875 87.2341 23.4898 85.4609 23.4113V19.6085C85.4609 18.7436 85.104 17.9171 84.4741 17.3242C83.8442 16.7314 82.9979 16.4248 82.1344 16.477L75.9566 16.8504C75.5202 16.8768 75.1096 16.9913 74.7408 17.1762C74.1328 16.6808 73.3583 16.4294 72.5702 16.477L66.392 16.8504C64.7359 16.9505 63.4441 18.3228 63.4441 19.9819V30.6139L59.1988 19.3819C58.7376 18.1614 57.5688 17.3539 56.2641 17.3539H50.0863ZM95.1736 40.8967C95.0691 41.1156 94.9568 41.331 94.8369 41.543C94.3974 42.3363 93.8738 43.0537 93.2701 43.6888C93.4684 43.5438 93.6845 43.4215 93.9146 43.3256C94.4183 43.1158 94.9478 42.8829 95.5041 42.6263C95.5173 42.6201 95.5309 42.6138 95.5445 42.6079C95.6313 42.5692 95.7153 42.5305 95.7959 42.4921L95.1736 40.8967Z" fill="#F8C455"/>
<path d="M50.082 20.491H56.2598L64.8819 43.3022L58.8058 43.9133L57.1424 39.0252H49.1652L47.5698 43.5738H41.4258L50.082 20.491ZM55.3772 34.1709L53.0689 27.8911L50.8628 34.1709H55.3772Z" fill="black"/>
<path d="M72.7563 43.5738H66.5781V19.9819L72.7563 19.6085V43.5738Z" fill="black"/>
<path d="M79.2635 43.5738H76.1406V19.9819L82.3185 19.6085V26.9746C82.7033 26.8388 83.0993 26.737 83.5068 26.6691C83.9139 26.5786 84.3325 26.5333 84.7627 26.5333C86.3919 26.5333 87.8403 26.8388 89.1077 27.4498C90.3748 28.0608 91.3706 29 92.0946 30.2673C92.8416 31.5346 93.215 33.1526 93.215 35.1215C93.215 37.0676 92.8416 38.6968 92.0946 40.0096C91.3706 41.322 90.3521 42.3063 89.0397 42.9627C87.7496 43.6191 86.2337 43.9471 84.4911 43.9471C83.7668 43.9471 83.054 43.8342 82.3526 43.6076C81.6736 43.3814 80.9946 43.0192 80.3159 42.5214L79.2635 43.5738ZM83.8121 31.2856C83.3597 31.2856 82.8615 31.4554 82.3185 31.7948V38.7195C82.9295 39.0363 83.5179 39.1949 84.0837 39.1949C84.853 39.1949 85.4982 38.8439 86.0186 38.1426C86.5617 37.4183 86.8332 36.4227 86.8332 35.1553C86.8332 33.8882 86.5728 32.9263 86.0524 32.27C85.532 31.6137 84.7853 31.2856 83.8121 31.2856Z" fill="black"/>
<path d="M99.3254 43.6418L99.4613 43.2684L93.5547 28.1287L99.2578 26.4994L102.618 36.4112L105.775 27.1104H111.919L104.689 45.5087C104.349 46.3913 103.795 47.206 103.026 47.9526C102.256 48.6996 101.362 49.3333 100.344 49.8537C99.3254 50.3742 98.2734 50.759 97.1869 51.0079L95.1163 46.2216C95.6594 45.9953 96.2251 45.7461 96.8135 45.4746C97.4246 45.203 97.9677 44.9088 98.4428 44.592C98.9182 44.2755 99.2124 43.9586 99.3254 43.6418Z" fill="black"/>
<path d="M34.6152 42.7354C39.2997 42.7354 41.4316 32.3861 41.4316 28.462C41.4316 25.4033 39.3164 23.5497 36.5358 23.5497C33.7723 23.5497 31.5289 24.7353 31.5011 26.2036C31.501 30.0784 30.8175 42.7354 34.6152 42.7354Z" fill="white"/>
<path d="M17.5626 42.7354C12.8782 42.7354 10.7461 32.3861 10.7461 28.462C10.7461 25.4033 12.8613 23.5497 15.642 23.5497C18.4054 23.5497 20.6489 24.7353 20.6768 26.2036C20.6768 30.0784 21.3603 42.7354 17.5626 42.7354Z" fill="white"/>
<path d="M34.6152 42.7354C39.2997 42.7354 41.4316 32.3861 41.4316 28.462C41.4316 25.4033 39.3164 23.5497 36.5358 23.5497C33.7723 23.5497 31.5289 24.7353 31.5011 26.2036C31.501 30.0784 30.8175 42.7354 34.6152 42.7354Z" stroke="black" stroke-width="1.38839"/>
<path d="M17.5626 42.7354C12.8782 42.7354 10.7461 32.3861 10.7461 28.462C10.7461 25.4033 12.8613 23.5497 15.642 23.5497C18.4054 23.5497 20.6489 24.7353 20.6768 26.2036C20.6768 30.0784 21.3603 42.7354 17.5626 42.7354Z" stroke="black" stroke-width="1.38839"/>
<path d="M25.8643 30.3444C30.2081 30.3444 34.2771 29.1587 37.7631 27.0929C37.8621 27.0341 37.9687 27.0415 38.0454 27.0845C38.0824 27.1054 38.1043 27.1303 38.1158 27.1511C38.1256 27.1686 38.1354 27.1955 38.1305 27.2425C37.5909 32.5844 34.6939 37 30.8 39.0325C29.5126 39.7042 28.628 40.8713 27.8511 41.8961C27.837 41.9145 27.8231 41.933 27.8091 41.9515C27.1777 42.7839 26.6073 43.5288 25.9105 44.0778C25.2137 43.5288 24.6433 42.7839 24.0119 41.9515C23.998 41.933 23.984 41.9145 23.97 41.8961C23.1931 40.8713 22.3084 39.7042 21.021 39.0325C17.1416 37.0076 14.2517 32.6171 13.6966 27.3017C13.6918 27.2548 13.7013 27.2278 13.7109 27.2102C13.7223 27.1894 13.7442 27.1644 13.781 27.1434C13.8573 27.1001 13.964 27.0923 14.0633 27.1505C17.5275 29.1808 21.561 30.3444 25.8643 30.3444Z" fill="#FFDF6F" stroke="black" stroke-width="1.38839"/>
<path d="M25.9561 31.2238C32.7039 31.2238 38.174 29.4004 38.174 27.1512C38.174 24.9019 32.7039 23.0786 25.9561 23.0786C19.2084 23.0786 13.7383 24.9019 13.7383 27.1512C13.7383 29.4004 19.2084 31.2238 25.9561 31.2238Z" fill="black" stroke="black" stroke-width="1.38839"/>
<path d="M16.1445 34.0004C16.1445 34.0004 22.1709 36.0368 26.0484 36.0368C29.9259 36.0368 35.9523 34.0004 35.9523 34.0004" stroke="black" stroke-width="1.38839" stroke-linecap="round"/>
<path d="M11.6953 9.73586C11.6953 11.2617 12.9322 12.4985 14.458 12.4985C15.9838 12.4985 17.2207 11.2617 17.2207 9.73586C17.2207 8.21007 15.9838 6.97318 14.458 6.97318C12.9322 6.97318 11.6953 8.21007 11.6953 9.73586Z" fill="black"/>
<path d="M39.7872 9.73586C39.7872 11.2617 38.5501 12.4985 37.0244 12.4985C35.4986 12.4985 34.2617 11.2617 34.2617 9.73586C34.2617 8.21007 35.4986 6.97318 37.0244 6.97318C38.5501 6.97318 39.7872 8.21007 39.7872 9.73586Z" fill="black"/>
<path d="M37.5328 9.32149L32.3757 14.4785M14.0039 9.32149L19.1609 14.4785L14.0039 9.32149Z" stroke="black" stroke-width="1.38134"/>
<path d="M15.246 26.2216C13.757 25.5128 12.8905 23.9209 13.1807 22.2976C14.4266 15.33 19.6188 10.1042 25.8349 10.1042C32.066 10.1042 37.2684 15.3554 38.4979 22.3482C38.7841 23.9745 37.9105 25.5656 36.4163 26.2687C33.2193 27.7732 29.6483 28.6142 25.8809 28.6142C22.0744 28.6142 18.4684 27.7556 15.246 26.2216Z" fill="#FFDF6F" stroke="black" stroke-width="1.38134"/>
<path d="M17.9025 24.4894C16.7039 24.0012 15.993 22.726 16.4083 21.5003C17.6891 17.7204 21.4252 14.985 25.8346 14.985C30.2441 14.985 33.9802 17.7204 35.261 21.5003C35.6763 22.726 34.9653 24.0012 33.7668 24.4894C31.3188 25.4864 28.6409 26.0357 25.8346 26.0357C23.0284 26.0357 20.3505 25.4864 17.9025 24.4894Z" fill="black"/>
<path d="M31.3193 20.8787C31.3193 21.8959 30.2886 22.7205 29.0171 22.7205C27.7456 22.7205 26.7148 21.8959 26.7148 20.8787C26.7148 19.8615 27.7456 19.0369 29.0171 19.0369C30.2886 19.0369 31.3193 19.8615 31.3193 20.8787Z" fill="white"/>
<path d="M24.7216 20.8798C24.7216 21.897 23.6909 22.7216 22.4194 22.7216C21.1479 22.7216 20.1172 21.897 20.1172 20.8798C20.1172 19.8626 21.1479 19.038 22.4194 19.038C23.6909 19.038 24.7216 19.8626 24.7216 20.8798Z" fill="white"/>
<path d="M48.2108 16.4046V14.4859H49.1411C49.4964 14.4859 49.8388 14.4407 50.1682 14.3502C50.5042 14.2598 50.8046 14.1209 51.0695 13.9335C51.3343 13.7462 51.5443 13.5072 51.6993 13.2164C51.8544 12.9257 51.9319 12.5833 51.9319 12.1893C51.9319 11.6595 51.8059 11.2202 51.554 10.8714C51.3085 10.516 50.979 10.2512 50.5655 10.0767C50.1585 9.90231 49.7096 9.8151 49.2186 9.8151H46.4471V16.4046H48.2108ZM49.1604 11.2008C49.3607 11.2008 49.5287 11.2428 49.6643 11.3268C49.8065 11.4108 49.9163 11.5271 49.9938 11.6757C50.0713 11.8242 50.1101 11.9954 50.1101 12.1893C50.1101 12.3572 50.0681 12.5123 49.9841 12.6544C49.9066 12.7901 49.7968 12.8999 49.6546 12.9839C49.519 13.0614 49.3607 13.1002 49.1798 13.1002H48.2108V11.2008H49.1604ZM56.2055 13.7203H54.9167L55.5466 11.9276L56.2055 13.7203ZM54.6938 9.8151L52.2228 16.4046H53.9767L54.4322 15.1061H56.7094L57.1843 16.5015L58.9189 16.3271L56.4575 9.8151H54.6938ZM62.9689 16.4046V13.8269L65.2558 9.8151H63.4437L62.0773 12.1893L60.7982 9.67943L59.1121 10.1446L61.2052 13.8076V16.4046H62.9689ZM77.0784 9.8151L75.1887 16.4046H73.4251L72.3397 12.2668L71.3222 16.4046H69.5586L67.5817 9.89262L69.3163 9.71819L70.4695 14.2921L71.4579 9.8151H73.2119L74.336 14.2921L75.3244 9.8151H77.0784ZM79.7142 16.4046V9.8151H77.9505V16.4046H79.7142ZM86.2242 9.8151H80.5843V11.2008H82.5224V16.4046H84.2861V11.2008H86.3889L86.2242 9.8151ZM93.0961 16.4046V9.8151H91.3324V12.4412H89.0261V9.75695L87.2624 9.8151V16.4046H89.0261V13.8269H91.3324V16.4046H93.0961Z" fill="black"/>
</svg>
