<svg width="121" height="56" viewBox="0 0 121 56" fill="none" xmlns="http://www.w3.org/2000/svg">
<mask id="path-1-outside-1_2006_16238" maskUnits="userSpaceOnUse" x="-0.257812" y="0.65082" width="121" height="56" fill="black">
<rect fill="white" x="-0.257812" y="0.65082" width="121" height="56"/>
<path d="M112.694 2.65082H7.31942C4.2392 2.65082 1.74219 5.14783 1.74219 8.22805V43.4692C1.74219 46.5494 4.2392 49.0464 7.31942 49.0464H91.9309L93.3182 52.2533C93.9188 53.6413 95.424 54.4033 96.8985 54.0656C98.2436 53.7574 99.5396 53.2823 100.782 52.6472C102.06 51.994 103.213 51.1821 104.221 50.204C104.597 49.8395 104.944 49.4537 105.259 49.0464H112.694C115.774 49.0464 118.271 46.5494 118.271 43.4692V8.22805C118.271 5.14783 115.774 2.65082 112.694 2.65082Z"/>
</mask>
<path d="M112.694 2.65082H7.31942C4.2392 2.65082 1.74219 5.14783 1.74219 8.22805V43.4692C1.74219 46.5494 4.2392 49.0464 7.31942 49.0464H91.9309L93.3182 52.2533C93.9188 53.6413 95.424 54.4033 96.8985 54.0656C98.2436 53.7574 99.5396 53.2823 100.782 52.6472C102.06 51.994 103.213 51.1821 104.221 50.204C104.597 49.8395 104.944 49.4537 105.259 49.0464H112.694C115.774 49.0464 118.271 46.5494 118.271 43.4692V8.22805C118.271 5.14783 115.774 2.65082 112.694 2.65082Z" fill="white"/>
<path d="M93.3182 52.2533L91.7186 52.9453L91.7187 52.9454L93.3182 52.2533ZM96.8985 54.0656L97.2877 55.7644L97.2877 55.7644L96.8985 54.0656ZM100.782 52.6472L101.575 54.1992L101.576 54.1991L100.782 52.6472ZM104.221 50.204L105.435 51.4547L105.435 51.4546L104.221 50.204ZM105.259 49.0464V47.3035C104.72 47.3035 104.211 47.5531 103.881 47.9794L105.259 49.0464ZM91.9309 49.0464L93.5306 48.3544C93.2546 47.7165 92.626 47.3035 91.9309 47.3035V49.0464ZM7.31942 4.3937H112.694V0.907935H7.31942V4.3937ZM116.529 8.22805V43.4692H120.014V8.22805H116.529ZM3.48507 43.4692V8.22805H-0.000697374V43.4692H3.48507ZM7.31942 47.3035C5.20177 47.3035 3.48507 45.5868 3.48507 43.4692H-0.000697374C-0.000697374 47.512 3.27663 50.7893 7.31942 50.7893V47.3035ZM116.529 43.4692C116.529 45.5868 114.812 47.3035 112.694 47.3035V50.7893C116.737 50.7893 120.014 47.512 120.014 43.4692H116.529ZM112.694 4.3937C114.812 4.3937 116.529 6.1104 116.529 8.22805H120.014C120.014 4.18526 116.737 0.907935 112.694 0.907935V4.3937ZM7.31942 0.907935C3.27663 0.907935 -0.000697374 4.18526 -0.000697374 8.22805H3.48507C3.48507 6.1104 5.20177 4.3937 7.31942 4.3937V0.907935ZM91.7187 52.9454C92.6529 55.1046 94.9943 56.2898 97.2877 55.7644L96.5093 52.3667C95.8537 52.5169 95.1848 52.1781 94.9178 51.5612L91.7187 52.9454ZM97.2877 55.7644C98.7767 55.4233 100.208 54.898 101.575 54.1992L99.9892 51.0953C98.8712 51.6666 97.7106 52.0915 96.5093 52.3667L97.2877 55.7644ZM101.576 54.1991C102.998 53.4722 104.295 52.5614 105.435 51.4547L103.007 48.9534C102.132 49.8029 101.123 50.5157 99.989 51.0953L101.576 54.1991ZM105.435 51.4546C105.866 51.0362 106.269 50.5894 106.637 50.1134L103.881 47.9794C103.619 48.3179 103.327 48.6427 103.007 48.9535L105.435 51.4546ZM112.694 47.3035H105.259V50.7893H112.694V47.3035ZM91.9309 47.3035H7.31942V50.7893H91.9309V47.3035ZM90.3313 49.7384L91.7186 52.9453L94.9179 51.5613L93.5306 48.3544L90.3313 49.7384Z" fill="black" mask="url(#path-1-outside-1_2006_16238)"/>
<path fill-rule="evenodd" clip-rule="evenodd" d="M49.0941 17.3539C47.7862 17.3539 46.6157 18.1651 46.1566 19.3895L37.5004 42.4723C37.1393 43.4357 37.2735 44.5149 37.8594 45.3606C38.4454 46.2066 39.4089 46.711 40.4379 46.711H46.5819C47.9145 46.711 49.1014 45.8695 49.5423 44.6122L50.4016 42.1624H53.9083L54.848 44.9238C55.3183 46.3056 56.6795 47.1809 58.1316 47.0348L64.208 46.4237C64.2261 46.4217 64.2446 46.4199 64.2628 46.4178C64.6657 46.6057 65.1154 46.711 65.5891 46.711H71.7673C72.3909 46.711 72.9719 46.529 73.4603 46.2153C73.9487 46.529 74.5301 46.711 75.1537 46.711H78.2766C78.7921 46.711 79.2944 46.5841 79.742 46.3478C79.9494 46.4339 80.1599 46.5126 80.3733 46.5841C80.383 46.5872 80.3928 46.5904 80.4022 46.5935C81.4096 46.9184 82.447 47.0843 83.5042 47.0843C85.6375 47.0843 87.6568 46.682 89.4659 45.7635C90.275 45.3581 91.0084 44.8625 91.663 44.2824C91.4817 44.5132 91.3322 44.7697 91.2203 45.0465C90.9059 45.8249 90.9167 46.6967 91.2499 47.467L93.3205 52.2533C93.9211 53.6414 95.4262 54.4034 96.9007 54.0656C98.2459 53.7575 99.5419 53.2823 100.785 52.6472C102.062 51.994 103.216 51.1822 104.223 50.2041C105.272 49.1859 106.102 48.0021 106.625 46.6468L106.63 46.635L113.852 28.2578C114.231 27.2921 114.109 26.2012 113.524 25.3437C112.94 24.4862 111.97 23.9732 110.932 23.9732H104.788C103.444 23.9732 102.249 24.8293 101.817 26.1021L101.633 26.6457L101.242 25.4921C100.704 23.9072 99.0176 23.0232 97.4086 23.4829L91.7059 25.1122C91.4235 25.1929 91.1565 25.312 90.9118 25.4641C90.4656 25.1486 89.9891 24.868 89.483 24.624C87.9297 23.875 86.2419 23.4898 84.4687 23.4113V19.6085C84.4687 18.7436 84.1118 17.9171 83.4819 17.3242C82.852 16.7314 82.0057 16.4248 81.1422 16.477L74.9644 16.8504C74.528 16.8768 74.1174 16.9913 73.7486 17.1762C73.1407 16.6808 72.3661 16.4294 71.578 16.477L65.3998 16.8504C63.7437 16.9505 62.4519 18.3228 62.4519 19.9819V30.6139L58.2066 19.3819C57.7454 18.1614 56.5766 17.3539 55.2719 17.3539H49.0941ZM94.1815 40.8967C94.0769 41.1156 93.9646 41.331 93.8447 41.543C93.4052 42.3363 92.8816 43.0537 92.2779 43.6888C92.4762 43.5438 92.6923 43.4215 92.9224 43.3256C93.4261 43.1158 93.9556 42.8829 94.5119 42.6263C94.5252 42.6201 94.5387 42.6138 94.5523 42.6079C94.6391 42.5692 94.7231 42.5305 94.8037 42.4921L94.1815 40.8967Z" fill="white"/>
<path d="M49.0898 20.4911H55.2676L63.8897 43.3022L57.8136 43.9133L56.1502 39.0252H48.173L46.5776 43.5738H40.4336L49.0898 20.4911ZM54.385 34.1709L52.0768 27.8911L49.8706 34.1709H54.385Z" fill="black"/>
<path d="M71.7641 43.5738H65.5859V19.9819L71.7641 19.6085V43.5738Z" fill="black"/>
<path d="M78.2713 43.5738H75.1484V19.9819L81.3263 19.6085V26.9746C81.7111 26.8388 82.1071 26.737 82.5146 26.6691C82.9217 26.5786 83.3403 26.5333 83.7705 26.5333C85.3997 26.5333 86.8481 26.8388 88.1155 27.4498C89.3826 28.0608 90.3785 29 91.1025 30.2673C91.8495 31.5346 92.2228 33.1526 92.2228 35.1215C92.2228 37.0676 91.8495 38.6968 91.1025 40.0096C90.3785 41.322 89.3599 42.3063 88.0475 42.9627C86.7574 43.6191 85.2415 43.9471 83.4989 43.9471C82.7746 43.9471 82.0618 43.8342 81.3604 43.6076C80.6814 43.3814 80.0024 43.0192 79.3237 42.5214L78.2713 43.5738ZM82.8199 31.2856C82.3675 31.2856 81.8693 31.4554 81.3263 31.7948V38.7195C81.9373 39.0363 82.5257 39.1949 83.0915 39.1949C83.8608 39.1949 84.506 38.8439 85.0264 38.1426C85.5695 37.4183 85.841 36.4227 85.841 35.1553C85.841 33.8882 85.5807 32.9263 85.0602 32.27C84.5398 31.6137 83.7931 31.2856 82.8199 31.2856Z" fill="black"/>
<path d="M98.3332 43.6418L98.4691 43.2684L92.5625 28.1287L98.2656 26.4994L101.626 36.4112L104.783 27.1104H110.927L103.697 45.5087C103.357 46.3913 102.803 47.206 102.033 47.9526C101.264 48.6996 100.37 49.3333 99.3517 49.8537C98.3332 50.3742 97.2812 50.759 96.1947 51.0079L94.1241 46.2216C94.6672 45.9953 95.2329 45.7461 95.8213 45.4746C96.4324 45.203 96.9755 44.9088 97.4506 44.592C97.9261 44.2755 98.2203 43.9586 98.3332 43.6418Z" fill="black"/>
<path d="M33.623 42.7354C38.3075 42.7354 40.4394 32.3861 40.4394 28.462C40.4394 25.4033 38.3242 23.5497 35.5436 23.5497C32.7802 23.5497 30.5367 24.7353 30.5089 26.2036C30.5088 30.0784 29.8253 42.7354 33.623 42.7354Z" fill="white"/>
<path d="M16.5704 42.7354C11.886 42.7354 9.75391 32.3861 9.75391 28.462C9.75391 25.4033 11.8691 23.5497 14.6498 23.5497C17.4133 23.5497 19.6567 24.7353 19.6846 26.2036C19.6847 30.0784 20.3681 42.7354 16.5704 42.7354Z" fill="white"/>
<path d="M33.623 42.7354C38.3075 42.7354 40.4394 32.3861 40.4394 28.462C40.4394 25.4033 38.3242 23.5497 35.5436 23.5497C32.7802 23.5497 30.5367 24.7353 30.5089 26.2036C30.5088 30.0784 29.8253 42.7354 33.623 42.7354Z" stroke="black" stroke-width="1.38839"/>
<path d="M16.5704 42.7354C11.886 42.7354 9.75391 32.3861 9.75391 28.462C9.75391 25.4033 11.8691 23.5497 14.6498 23.5497C17.4133 23.5497 19.6567 24.7353 19.6846 26.2036C19.6847 30.0784 20.3681 42.7354 16.5704 42.7354Z" stroke="black" stroke-width="1.38839"/>
<path d="M24.8721 30.3444C29.2159 30.3444 33.2849 29.1587 36.7709 27.0929C36.8699 27.0341 36.9766 27.0415 37.0532 27.0845C37.0902 27.1054 37.1122 27.1303 37.1237 27.1511C37.1334 27.1686 37.1432 27.1955 37.1383 27.2425C36.5987 32.5844 33.7017 37 29.8078 39.0325C28.5204 39.7042 27.6358 40.8713 26.8589 41.8961C26.8449 41.9145 26.8309 41.933 26.8169 41.9515C26.1855 42.7839 25.6151 43.5288 24.9183 44.0778C24.2215 43.5288 23.6512 42.7839 23.0197 41.9515C23.0058 41.933 22.9918 41.9145 22.9778 41.8961C22.2009 40.8713 21.3162 39.7042 20.0288 39.0325C16.1494 37.0076 13.2596 32.6171 12.7044 27.3017C12.6996 27.2548 12.7091 27.2278 12.7187 27.2102C12.7301 27.1894 12.752 27.1644 12.7888 27.1434C12.8651 27.1001 12.9718 27.0923 13.0711 27.1505C16.5353 29.1808 20.5688 30.3444 24.8721 30.3444Z" fill="#FFDF6F" stroke="black" stroke-width="1.38839"/>
<path d="M24.964 31.2238C31.7117 31.2238 37.1818 29.4004 37.1818 27.1512C37.1818 24.9019 31.7117 23.0786 24.964 23.0786C18.2162 23.0786 12.7461 24.9019 12.7461 27.1512C12.7461 29.4004 18.2162 31.2238 24.964 31.2238Z" fill="black" stroke="black" stroke-width="1.38839"/>
<path d="M15.1523 34.0004C15.1523 34.0004 21.1787 36.0368 25.0562 36.0368C28.9337 36.0368 34.9601 34.0004 34.9601 34.0004" stroke="black" stroke-width="1.38839" stroke-linecap="round"/>
<path d="M10.7031 9.73586C10.7031 11.2617 11.94 12.4985 13.4658 12.4985C14.9916 12.4985 16.2285 11.2617 16.2285 9.73586C16.2285 8.21007 14.9916 6.97318 13.4658 6.97318C11.94 6.97318 10.7031 8.21007 10.7031 9.73586Z" fill="black"/>
<path d="M38.795 9.73586C38.795 11.2617 37.5579 12.4985 36.0322 12.4985C34.5064 12.4985 33.2695 11.2617 33.2695 9.73586C33.2695 8.21007 34.5064 6.97318 36.0322 6.97318C37.5579 6.97318 38.795 8.21007 38.795 9.73586Z" fill="black"/>
<path d="M36.5406 9.3215L31.3835 14.4785M13.0117 9.3215L18.1687 14.4785L13.0117 9.3215Z" stroke="black" stroke-width="1.38134"/>
<path d="M14.2538 26.2216C12.7648 25.5128 11.8983 23.9209 12.1885 22.2975C13.4345 15.33 18.6267 10.1042 24.8427 10.1042C31.0738 10.1042 36.2763 15.3554 37.5057 22.3482C37.7919 23.9745 36.9183 25.5656 35.4241 26.2687C32.2271 27.7732 28.6561 28.6142 24.8887 28.6142C21.0822 28.6142 17.4762 27.7556 14.2538 26.2216Z" fill="#FFDF6F" stroke="black" stroke-width="1.38134"/>
<path d="M16.9103 24.4894C15.7118 24.0012 15.0008 22.726 15.4161 21.5003C16.6969 17.7204 20.433 14.985 24.8425 14.985C29.2519 14.985 32.988 17.7204 34.2688 21.5003C34.6841 22.726 33.9731 24.0012 32.7746 24.4894C30.3266 25.4864 27.6487 26.0357 24.8425 26.0357C22.0362 26.0357 19.3583 25.4864 16.9103 24.4894Z" fill="black"/>
<path d="M30.3272 20.8787C30.3271 21.8959 29.2964 22.7205 28.0249 22.7205C26.7534 22.7205 25.7227 21.8959 25.7227 20.8787C25.7227 19.8615 26.7534 19.0369 28.0249 19.0369C29.2964 19.0369 30.3272 19.8615 30.3272 20.8787Z" fill="white"/>
<path d="M23.7295 20.8798C23.7295 21.897 22.6987 22.7216 21.4272 22.7216C20.1557 22.7216 19.125 21.897 19.125 20.8798C19.125 19.8626 20.1557 19.038 21.4272 19.038C22.6987 19.038 23.7295 19.8626 23.7295 20.8798Z" fill="white"/>
<path d="M47.2186 16.4046V14.4859H48.1489C48.5042 14.4859 48.8466 14.4407 49.1761 14.3502C49.512 14.2598 49.8124 14.1209 50.0773 13.9335C50.3421 13.7462 50.5521 13.5072 50.7071 13.2164C50.8622 12.9257 50.9397 12.5833 50.9397 12.1893C50.9397 11.6595 50.8137 11.2202 50.5618 10.8714C50.3163 10.516 49.9868 10.2512 49.5734 10.0767C49.1664 9.90231 48.7174 9.8151 48.2264 9.8151H45.4549V16.4046H47.2186ZM48.1682 11.2008C48.3685 11.2008 48.5365 11.2428 48.6721 11.3268C48.8143 11.4108 48.9241 11.5271 49.0016 11.6757C49.0791 11.8242 49.1179 11.9954 49.1179 12.1893C49.1179 12.3572 49.0759 12.5123 48.9919 12.6544C48.9144 12.7901 48.8046 12.8999 48.6625 12.9839C48.5268 13.0614 48.3685 13.1002 48.1876 13.1002H47.2186V11.2008H48.1682ZM55.2133 13.7203H53.9245L54.5544 11.9276L55.2133 13.7203ZM53.7016 9.8151L51.2306 16.4046H52.9845L53.44 15.1061H55.7172L56.1921 16.5015L57.9267 16.3271L55.4653 9.8151H53.7016ZM61.9767 16.4046V13.8269L64.2636 9.8151H62.4515L61.0851 12.1893L59.806 9.67943L58.1199 10.1446L60.213 13.8076V16.4046H61.9767ZM76.0862 9.8151L74.1965 16.4046H72.4329L71.3476 12.2668L70.3301 16.4046H68.5664L66.5895 9.89262L68.3241 9.71819L69.4773 14.2921L70.4657 9.8151H72.2197L73.3438 14.2921L74.3322 9.8151H76.0862ZM78.722 16.4046V9.8151H76.9583V16.4046H78.722ZM85.232 9.8151H79.5921V11.2008H81.5302V16.4046H83.2939V11.2008H85.3967L85.232 9.8151ZM92.1039 16.4046V9.8151H90.3402V12.4412H88.0339V9.75695L86.2702 9.8151V16.4046H88.0339V13.8269H90.3402V16.4046H92.1039Z" fill="black"/>
</svg>
