<svg width="122" height="56" viewBox="0 0 122 56" fill="none" xmlns="http://www.w3.org/2000/svg">
<mask id="path-1-outside-1_2006_16118" maskUnits="userSpaceOnUse" x="0.730469" y="0.719864" width="121" height="56" fill="black">
<rect fill="white" x="0.730469" y="0.719864" width="121" height="56"/>
<path d="M113.683 2.71986H8.3077C5.22748 2.71986 2.73047 5.21688 2.73047 8.29709V43.5382C2.73047 46.6184 5.22748 49.1154 8.3077 49.1154H92.9192L94.3065 52.3224C94.9071 53.7104 96.4123 54.4724 97.8868 54.1346C99.2319 53.8265 100.528 53.3514 101.771 52.7163C103.048 52.063 104.202 51.2512 105.209 50.2731C105.585 49.9085 105.932 49.5227 106.248 49.1154H113.683C116.763 49.1154 119.26 46.6184 119.26 43.5382V8.29709C119.26 5.21688 116.763 2.71986 113.683 2.71986Z"/>
</mask>
<path d="M113.683 2.71986H8.3077C5.22748 2.71986 2.73047 5.21688 2.73047 8.29709V43.5382C2.73047 46.6184 5.22748 49.1154 8.3077 49.1154H92.9192L94.3065 52.3224C94.9071 53.7104 96.4123 54.4724 97.8868 54.1346C99.2319 53.8265 100.528 53.3514 101.771 52.7163C103.048 52.063 104.202 51.2512 105.209 50.2731C105.585 49.9085 105.932 49.5227 106.248 49.1154H113.683C116.763 49.1154 119.26 46.6184 119.26 43.5382V8.29709C119.26 5.21688 116.763 2.71986 113.683 2.71986Z" fill="#F8C455"/>
<path d="M94.3065 52.3224L92.7069 53.0143L92.707 53.0145L94.3065 52.3224ZM97.8868 54.1346L98.2759 55.8335L98.2759 55.8335L97.8868 54.1346ZM101.771 52.7163L102.564 54.2682L102.564 54.2681L101.771 52.7163ZM105.209 50.2731L106.423 51.5237L106.423 51.5236L105.209 50.2731ZM106.248 49.1154V47.3726C105.708 47.3726 105.2 47.6221 104.87 48.0485L106.248 49.1154ZM92.9192 49.1154L94.5189 48.4235C94.2429 47.7855 93.6143 47.3726 92.9192 47.3726V49.1154ZM8.3077 4.46275H113.683V0.976979H8.3077V4.46275ZM117.517 8.29709V43.5382H121.003V8.29709H117.517ZM4.47335 43.5382V8.29709H0.987584V43.5382H4.47335ZM8.3077 47.3726C6.19005 47.3726 4.47335 45.6559 4.47335 43.5382H0.987584C0.987584 47.581 4.26492 50.8583 8.3077 50.8583V47.3726ZM117.517 43.5382C117.517 45.6559 115.8 47.3726 113.683 47.3726V50.8583C117.725 50.8583 121.003 47.581 121.003 43.5382H117.517ZM113.683 4.46275C115.8 4.46275 117.517 6.17944 117.517 8.29709H121.003C121.003 4.25431 117.725 0.976979 113.683 0.976979V4.46275ZM8.3077 0.976979C4.26491 0.976979 0.987584 4.25431 0.987584 8.29709H4.47335C4.47335 6.17944 6.19005 4.46275 8.3077 4.46275V0.976979ZM92.707 53.0145C93.6412 55.1736 95.9826 56.3588 98.2759 55.8335L97.4976 52.4357C96.842 52.5859 96.173 52.2472 95.9061 51.6302L92.707 53.0145ZM98.2759 55.8335C99.765 55.4924 101.196 54.967 102.564 54.2682L100.977 51.1643C99.8594 51.7357 98.6989 52.1605 97.4976 52.4357L98.2759 55.8335ZM102.564 54.2681C103.986 53.5413 105.283 52.6304 106.423 51.5237L103.995 49.0224C103.12 49.8719 102.111 50.5848 100.977 51.1644L102.564 54.2681ZM106.423 51.5236C106.854 51.1053 107.257 50.6585 107.626 50.1824L104.87 48.0485C104.607 48.387 104.315 48.7118 103.995 49.0225L106.423 51.5236ZM113.683 47.3726H106.248V50.8583H113.683V47.3726ZM92.9192 47.3726H8.3077V50.8583H92.9192V47.3726ZM91.3196 49.8074L92.7069 53.0143L95.9061 51.6304L94.5189 48.4235L91.3196 49.8074Z" fill="black" mask="url(#path-1-outside-1_2006_16118)"/>
<path fill-rule="evenodd" clip-rule="evenodd" d="M50.0863 17.4229C48.7784 17.4229 47.6079 18.2341 47.1488 19.4585L38.4926 42.5413C38.1315 43.5048 38.2657 44.584 38.8516 45.4296C39.4376 46.2756 40.4011 46.78 41.4301 46.78H47.5741C48.9067 46.78 50.0936 45.9385 50.5345 44.6812L51.3938 42.2314H54.9005L55.8402 44.9928C56.3105 46.3746 57.6716 47.2499 59.1238 47.1038L65.2002 46.4928C65.2183 46.4907 65.2368 46.4889 65.2549 46.4868C65.6579 46.6747 66.1076 46.78 66.5813 46.78H72.7594C73.3831 46.78 73.9641 46.598 74.4525 46.2843C74.9408 46.598 75.5223 46.78 76.1459 46.78H79.2688C79.7843 46.78 80.2866 46.6531 80.7342 46.4168C80.9416 46.5029 81.1521 46.5817 81.3655 46.6531C81.3752 46.6562 81.385 46.6594 81.3944 46.6625C82.4018 46.9874 83.4392 47.1533 84.4964 47.1533C86.6297 47.1533 88.649 46.7511 90.4581 45.8326C91.2671 45.4272 92.0006 44.9315 92.6552 44.3515C92.4739 44.5822 92.3244 44.8388 92.2125 45.1155C91.8981 45.8939 91.9089 46.7657 92.2421 47.5361L94.3127 52.3224C94.9133 53.7104 96.4184 54.4724 97.8929 54.1346C99.2381 53.8265 100.534 53.3514 101.777 52.7163C103.055 52.063 104.208 51.2512 105.215 50.2731C106.264 49.2549 107.094 48.0711 107.617 46.7159L107.622 46.704L114.844 28.3269C115.223 27.3611 115.101 26.2702 114.517 25.4127C113.932 24.5553 112.962 24.0422 111.924 24.0422H105.78C104.436 24.0422 103.241 24.8984 102.809 26.1711L102.625 26.7147L102.234 25.5611C101.697 23.9763 100.01 23.0922 98.4008 23.5519L92.6981 25.1813C92.4157 25.262 92.1487 25.381 91.904 25.5331C91.4578 25.2177 90.9813 24.937 90.4752 24.693C88.9219 23.944 87.2341 23.5588 85.4609 23.4803V19.6775C85.4609 18.8126 85.104 17.9861 84.4741 17.3933C83.8442 16.8004 82.9979 16.4939 82.1344 16.546L75.9566 16.9194C75.5202 16.9458 75.1096 17.0604 74.7408 17.2452C74.1328 16.7498 73.3583 16.4984 72.5702 16.546L66.392 16.9194C64.7359 17.0195 63.4441 18.3918 63.4441 20.0509V30.683L59.1988 19.4509C58.7376 18.2304 57.5688 17.4229 56.2641 17.4229H50.0863ZM95.1736 40.9657C95.0691 41.1846 94.9568 41.4001 94.8369 41.612C94.3974 42.4054 93.8738 43.1227 93.2701 43.7578C93.4684 43.6128 93.6845 43.4905 93.9146 43.3946C94.4183 43.1848 94.9478 42.9519 95.5041 42.6954C95.5173 42.6891 95.5309 42.6828 95.5445 42.6769C95.6313 42.6382 95.7153 42.5995 95.7959 42.5612L95.1736 40.9657Z" fill="#F8C455"/>
<path d="M50.082 20.5601H56.2598L64.8819 43.3712L58.8058 43.9823L57.1424 39.0942H49.1652L47.5698 43.6428H41.4258L50.082 20.5601ZM55.3772 34.2399L53.0689 27.9601L50.8628 34.2399H55.3772Z" fill="black"/>
<path d="M72.7563 43.6428H66.5781V20.0509L72.7563 19.6775V43.6428Z" fill="black"/>
<path d="M79.2635 43.6428H76.1406V20.0509L82.3185 19.6775V27.0436C82.7033 26.9078 83.0993 26.806 83.5068 26.7381C83.9139 26.6476 84.3325 26.6023 84.7627 26.6023C86.3919 26.6023 87.8403 26.9078 89.1077 27.5188C90.3748 28.1299 91.3706 29.069 92.0946 30.3363C92.8416 31.6036 93.215 33.2216 93.215 35.1905C93.215 37.1366 92.8416 38.7658 92.0946 40.0786C91.3706 41.391 90.3521 42.3754 89.0397 43.0317C87.7496 43.6881 86.2337 44.0161 84.4911 44.0161C83.7668 44.0161 83.054 43.9032 82.3526 43.6766C81.6736 43.4504 80.9946 43.0882 80.3159 42.5904L79.2635 43.6428ZM83.8121 31.3546C83.3597 31.3546 82.8615 31.5244 82.3185 31.8638V38.7885C82.9295 39.1054 83.5179 39.264 84.0837 39.264C84.853 39.264 85.4982 38.9129 86.0186 38.2116C86.5617 37.4873 86.8332 36.4917 86.8332 35.2243C86.8332 33.9572 86.5728 32.9953 86.0524 32.339C85.532 31.6828 84.7853 31.3546 83.8121 31.3546Z" fill="black"/>
<path d="M99.3254 43.7108L99.4613 43.3374L93.5547 28.1977L99.2578 26.5684L102.618 36.4802L105.775 27.1794H111.919L104.689 45.5777C104.349 46.4603 103.795 47.275 103.026 48.0216C102.256 48.7686 101.362 49.4023 100.344 49.9228C99.3254 50.4432 98.2734 50.828 97.1869 51.0769L95.1163 46.2906C95.6594 46.0644 96.2251 45.8151 96.8135 45.5436C97.4246 45.272 97.9677 44.9778 98.4428 44.661C98.9182 44.3445 99.2124 44.0276 99.3254 43.7108Z" fill="black"/>
<path d="M34.6152 42.8045C39.2997 42.8045 41.4316 32.4551 41.4316 28.531C41.4316 25.4723 39.3164 23.6187 36.5358 23.6187C33.7723 23.6187 31.5289 24.8043 31.5011 26.2726C31.501 30.1475 30.8175 42.8045 34.6152 42.8045Z" fill="white"/>
<path d="M17.5626 42.8045C12.8782 42.8045 10.7461 32.4551 10.7461 28.531C10.7461 25.4723 12.8613 23.6187 15.642 23.6187C18.4054 23.6187 20.6489 24.8043 20.6768 26.2726C20.6768 30.1475 21.3603 42.8045 17.5626 42.8045Z" fill="white"/>
<path d="M34.6152 42.8045C39.2997 42.8045 41.4316 32.4551 41.4316 28.531C41.4316 25.4723 39.3164 23.6187 36.5358 23.6187C33.7723 23.6187 31.5289 24.8043 31.5011 26.2726C31.501 30.1475 30.8175 42.8045 34.6152 42.8045Z" stroke="black" stroke-width="1.38839"/>
<path d="M17.5626 42.8045C12.8782 42.8045 10.7461 32.4551 10.7461 28.531C10.7461 25.4723 12.8613 23.6187 15.642 23.6187C18.4054 23.6187 20.6489 24.8043 20.6768 26.2726C20.6768 30.1475 21.3603 42.8045 17.5626 42.8045Z" stroke="black" stroke-width="1.38839"/>
<path d="M25.8643 30.4134C30.2081 30.4134 34.2771 29.2278 37.7631 27.1619C37.8621 27.1031 37.9687 27.1105 38.0454 27.1536C38.0824 27.1744 38.1043 27.1993 38.1158 27.2201C38.1256 27.2377 38.1354 27.2646 38.1305 27.3116C37.5909 32.6534 34.6939 37.069 30.8 39.1015C29.5126 39.7733 28.628 40.9403 27.8511 41.9651C27.837 41.9836 27.8231 42.0021 27.8091 42.0205C27.1777 42.8529 26.6073 43.5978 25.9105 44.1468C25.2137 43.5978 24.6433 42.8529 24.0119 42.0205C23.998 42.0021 23.984 41.9836 23.97 41.9651C23.1931 40.9403 22.3084 39.7733 21.021 39.1015C17.1416 37.0767 14.2517 32.6862 13.6966 27.3707C13.6918 27.3238 13.7013 27.2968 13.7109 27.2792C13.7223 27.2584 13.7442 27.2334 13.781 27.2125C13.8573 27.1691 13.964 27.1613 14.0633 27.2195C17.5275 29.2498 21.561 30.4134 25.8643 30.4134Z" fill="#FFDF6F" stroke="black" stroke-width="1.38839"/>
<path d="M25.9561 31.2929C32.7039 31.2929 38.174 29.4695 38.174 27.2202C38.174 24.971 32.7039 23.1476 25.9561 23.1476C19.2084 23.1476 13.7383 24.971 13.7383 27.2202C13.7383 29.4695 19.2084 31.2929 25.9561 31.2929Z" fill="black" stroke="black" stroke-width="1.38839"/>
<path d="M16.1445 34.0695C16.1445 34.0695 22.1709 36.1059 26.0484 36.1059C29.9259 36.1059 35.9523 34.0695 35.9523 34.0695" stroke="black" stroke-width="1.38839" stroke-linecap="round"/>
<path d="M11.6953 9.80489C11.6953 11.3307 12.9322 12.5676 14.458 12.5676C15.9838 12.5676 17.2207 11.3307 17.2207 9.80489C17.2207 8.2791 15.9838 7.04221 14.458 7.04221C12.9322 7.04221 11.6953 8.2791 11.6953 9.80489Z" fill="black"/>
<path d="M39.7872 9.80489C39.7872 11.3307 38.5501 12.5676 37.0244 12.5676C35.4986 12.5676 34.2617 11.3307 34.2617 9.80489C34.2617 8.2791 35.4986 7.04221 37.0244 7.04221C38.5501 7.04221 39.7872 8.2791 39.7872 9.80489Z" fill="black"/>
<path d="M37.5328 9.3905L32.3757 14.5475M14.0039 9.3905L19.1609 14.5475L14.0039 9.3905Z" stroke="black" stroke-width="1.38134"/>
<path d="M15.246 26.2906C13.757 25.5818 12.8905 23.9899 13.1807 22.3666C14.4266 15.399 19.6188 10.1732 25.8349 10.1732C32.066 10.1732 37.2684 15.4244 38.4979 22.4172C38.7841 24.0435 37.9105 25.6346 36.4163 26.3377C33.2193 27.8422 29.6483 28.6832 25.8809 28.6832C22.0744 28.6832 18.4684 27.8247 15.246 26.2906Z" fill="#FFDF6F" stroke="black" stroke-width="1.38134"/>
<path d="M17.9025 24.5584C16.7039 24.0703 15.993 22.795 16.4083 21.5694C17.6891 17.7894 21.4252 15.054 25.8346 15.054C30.2441 15.054 33.9802 17.7894 35.261 21.5694C35.6763 22.795 34.9653 24.0703 33.7668 24.5584C31.3188 25.5554 28.6409 26.1047 25.8346 26.1047C23.0284 26.1047 20.3505 25.5554 17.9025 24.5584Z" fill="black"/>
<path d="M31.3193 20.9477C31.3193 21.9649 30.2886 22.7895 29.0171 22.7895C27.7456 22.7895 26.7148 21.9649 26.7148 20.9477C26.7148 19.9305 27.7456 19.106 29.0171 19.106C30.2886 19.106 31.3193 19.9305 31.3193 20.9477Z" fill="white"/>
<path d="M24.7216 20.9488C24.7216 21.966 23.6909 22.7906 22.4194 22.7906C21.1479 22.7906 20.1172 21.966 20.1172 20.9488C20.1172 19.9316 21.1479 19.107 22.4194 19.107C23.6909 19.107 24.7216 19.9316 24.7216 20.9488Z" fill="white"/>
<path d="M48.2108 16.4736V14.5549H49.1411C49.4964 14.5549 49.8388 14.5097 50.1682 14.4192C50.5042 14.3288 50.8046 14.1899 51.0695 14.0026C51.3343 13.8152 51.5443 13.5762 51.6993 13.2855C51.8544 12.9947 51.9319 12.6524 51.9319 12.2583C51.9319 11.7285 51.8059 11.2892 51.554 10.9404C51.3085 10.5851 50.979 10.3202 50.5655 10.1458C50.1585 9.97133 49.7096 9.88412 49.2186 9.88412H46.4471V16.4736H48.2108ZM49.1604 11.2699C49.3607 11.2699 49.5287 11.3118 49.6643 11.3958C49.8065 11.4798 49.9163 11.5961 49.9938 11.7447C50.0713 11.8933 50.1101 12.0645 50.1101 12.2583C50.1101 12.4262 50.0681 12.5813 49.9841 12.7234C49.9066 12.8591 49.7968 12.9689 49.6546 13.0529C49.519 13.1304 49.3607 13.1692 49.1798 13.1692H48.2108V11.2699H49.1604ZM55.8179 16.6093C55.1202 16.6093 54.5162 16.4575 54.0058 16.1538C53.4954 15.8502 53.1014 15.44 52.8236 14.9231C52.5522 14.4063 52.4166 13.8346 52.4166 13.2079C52.4166 12.5296 52.5619 11.932 52.8526 11.4152C53.1434 10.8919 53.5439 10.4849 54.0543 10.1942C54.5711 9.89704 55.159 9.74845 55.8179 9.74845C56.535 9.74845 57.1455 9.90027 57.6494 10.2039C58.1598 10.5075 58.5506 10.9145 58.822 11.4249C59.0933 11.9353 59.229 12.507 59.229 13.1401C59.229 13.8184 59.0836 14.4192 58.7929 14.9425C58.5086 15.4658 58.1081 15.876 57.5913 16.1732C57.0809 16.4639 56.4898 16.6093 55.8179 16.6093ZM55.8082 15.1363C56.1119 15.1363 56.3832 15.062 56.6222 14.9135C56.8677 14.7649 57.0615 14.542 57.2036 14.2448C57.3458 13.9476 57.4168 13.5794 57.4168 13.1401C57.4168 12.7719 57.3522 12.4456 57.223 12.1614C57.1003 11.8707 56.9194 11.6413 56.6804 11.4734C56.4478 11.3054 56.1668 11.2214 55.8373 11.2214C55.5466 11.2214 55.2785 11.3054 55.033 11.4734C54.7875 11.6349 54.5905 11.8642 54.4419 12.1614C54.2997 12.4521 54.2287 12.7977 54.2287 13.1982C54.2287 13.5665 54.2901 13.8992 54.4128 14.1964C54.542 14.4871 54.7229 14.7164 54.9555 14.8844C55.1945 15.0524 55.4788 15.1363 55.8082 15.1363ZM69.1102 9.88412L67.2206 16.4736H65.457L64.3716 12.3358L63.3541 16.4736H61.5905L59.6136 9.96164L61.3482 9.78721L62.5014 14.3611L63.4898 9.88412H65.2438L66.3679 14.3611L67.3563 9.88412H69.1102ZM74.8082 16.4736L74.6435 15.0879H71.746V13.8572H73.9361L73.7713 12.4715H71.746V11.2699H74.5175L74.3528 9.88412H69.9824V16.4736H74.8082ZM78.4873 11.2699C78.6875 11.2699 78.8555 11.3022 78.9912 11.3668C79.1333 11.4249 79.2431 11.5186 79.3206 11.6478C79.3982 11.777 79.4369 11.9385 79.4369 12.1323C79.4369 12.3003 79.3949 12.4521 79.3109 12.5878C79.2334 12.7234 79.1236 12.83 78.9815 12.9075C78.8458 12.9786 78.6875 13.0141 78.5066 13.0141H77.5376V11.2699H78.4873ZM75.7739 9.88412V16.4736H77.5376V14.3999H78.1287C78.2256 14.3999 78.3225 14.3999 78.4194 14.3999C78.5163 14.3999 78.6132 14.3999 78.7101 14.3999L79.7761 16.4736H81.8208L80.3672 13.8766C80.6321 13.6957 80.8453 13.4599 81.0068 13.1692C81.1747 12.8785 81.2587 12.5328 81.2587 12.1323C81.2587 11.6026 81.1328 11.1729 80.8808 10.8435C80.6353 10.514 80.3058 10.2717 79.8924 10.1167C79.4854 9.96164 79.0364 9.88412 78.5454 9.88412H75.7739ZM87.5175 16.4736L87.3527 15.0879H84.4553V13.8572H86.6453L86.4806 12.4715H84.4553V11.2699H87.2268L87.062 9.88412H82.6916V16.4736H87.5175ZM91.4291 16.4736C92.0493 16.4736 92.5952 16.338 93.0668 16.0666C93.5384 15.7953 93.9066 15.4109 94.1715 14.9135C94.4428 14.416 94.5785 13.8249 94.5785 13.1401C94.5785 12.5135 94.4589 11.9579 94.2199 11.4734C93.9873 10.9824 93.6385 10.5948 93.1733 10.3105C92.7147 10.0262 92.1462 9.88412 91.4678 9.88412H88.4832V16.4736H91.4291ZM91.3806 11.2699C91.6778 11.2699 91.9265 11.3506 92.1268 11.5121C92.3335 11.6736 92.4886 11.8965 92.5919 12.1808C92.7017 12.4585 92.7567 12.7783 92.7567 13.1401C92.7567 13.5729 92.6921 13.9347 92.5628 14.2254C92.4336 14.5161 92.2592 14.7326 92.0396 14.8747C91.8264 15.0168 91.5841 15.0879 91.3128 15.0879H90.2468V11.2699H91.3806ZM100.267 16.4736C100.622 16.4736 100.964 16.4413 101.294 16.3767C101.63 16.3121 101.93 16.2055 102.195 16.0569C102.46 15.9083 102.67 15.7081 102.825 15.4561C102.98 15.1977 103.057 14.8812 103.057 14.5065C103.057 14.1899 102.973 13.9024 102.805 13.644C102.644 13.3791 102.434 13.1563 102.176 12.9754C102.324 12.8268 102.463 12.6556 102.592 12.4618C102.722 12.268 102.786 12.0419 102.786 11.7834C102.786 11.3312 102.66 10.9662 102.408 10.6884C102.156 10.4106 101.824 10.2071 101.41 10.0779C101.003 9.94872 100.557 9.88412 100.073 9.88412H97.7762V16.4736H100.267ZM100.015 11.2699C100.215 11.2699 100.383 11.2925 100.519 11.3377C100.661 11.3829 100.771 11.4507 100.848 11.5412C100.926 11.6252 100.964 11.735 100.964 11.8707C100.964 11.9869 100.916 12.0838 100.819 12.1614C100.722 12.2324 100.596 12.2873 100.441 12.3261C100.286 12.3649 100.118 12.3843 99.9371 12.3843H99.5398V11.2699H100.015ZM100.286 13.77C100.583 13.77 100.816 13.8314 100.984 13.9541C101.152 14.0768 101.236 14.248 101.236 14.4677C101.236 14.6034 101.194 14.7196 101.11 14.8166C101.032 14.907 100.922 14.9748 100.78 15.0201C100.645 15.0653 100.486 15.0879 100.305 15.0879H99.5398V13.77H100.286ZM107.2 16.4736V13.896L109.487 9.88412H107.675L106.309 12.2583L105.03 9.74845L103.344 10.2136L105.437 13.8766V16.4736H107.2Z" fill="black"/>
</svg>
