<svg width="121" height="56" viewBox="0 0 121 56" fill="none" xmlns="http://www.w3.org/2000/svg">
<mask id="path-1-outside-1_2006_16286" maskUnits="userSpaceOnUse" x="-0.257812" y="0.627831" width="121" height="56" fill="black">
<rect fill="white" x="-0.257812" y="0.627831" width="121" height="56"/>
<path d="M112.694 2.62783H7.31942C4.2392 2.62783 1.74219 5.12484 1.74219 8.20506V43.4462C1.74219 46.5264 4.2392 49.0234 7.31942 49.0234H91.9309L93.3182 52.2303C93.9188 53.6184 95.424 54.3803 96.8985 54.0426C98.2436 53.7344 99.5396 53.2593 100.782 52.6242C102.06 51.971 103.213 51.1591 104.221 50.181C104.597 49.8165 104.944 49.4307 105.259 49.0234H112.694C115.774 49.0234 118.271 46.5264 118.271 43.4462V8.20506C118.271 5.12484 115.774 2.62783 112.694 2.62783Z"/>
</mask>
<path d="M112.694 2.62783H7.31942C4.2392 2.62783 1.74219 5.12484 1.74219 8.20506V43.4462C1.74219 46.5264 4.2392 49.0234 7.31942 49.0234H91.9309L93.3182 52.2303C93.9188 53.6184 95.424 54.3803 96.8985 54.0426C98.2436 53.7344 99.5396 53.2593 100.782 52.6242C102.06 51.971 103.213 51.1591 104.221 50.181C104.597 49.8165 104.944 49.4307 105.259 49.0234H112.694C115.774 49.0234 118.271 46.5264 118.271 43.4462V8.20506C118.271 5.12484 115.774 2.62783 112.694 2.62783Z" fill="white"/>
<path d="M93.3182 52.2303L91.7186 52.9223L91.7187 52.9225L93.3182 52.2303ZM96.8985 54.0426L97.2877 55.7415L97.2877 55.7415L96.8985 54.0426ZM100.782 52.6242L101.575 54.1762L101.576 54.1761L100.782 52.6242ZM104.221 50.181L105.435 51.4317L105.435 51.4316L104.221 50.181ZM105.259 49.0234V47.2805C104.72 47.2805 104.211 47.5301 103.881 47.9564L105.259 49.0234ZM91.9309 49.0234L93.5306 48.3314C93.2546 47.6935 92.626 47.2805 91.9309 47.2805V49.0234ZM7.31942 4.37072H112.694V0.884946H7.31942V4.37072ZM116.529 8.20506V43.4462H120.014V8.20506H116.529ZM3.48507 43.4462V8.20506H-0.000697374V43.4462H3.48507ZM7.31942 47.2805C5.20177 47.2805 3.48507 45.5638 3.48507 43.4462H-0.000697374C-0.000697374 47.489 3.27663 50.7663 7.31942 50.7663V47.2805ZM116.529 43.4462C116.529 45.5638 114.812 47.2805 112.694 47.2805V50.7663C116.737 50.7663 120.014 47.489 120.014 43.4462H116.529ZM112.694 4.37072C114.812 4.37072 116.529 6.08741 116.529 8.20506H120.014C120.014 4.16227 116.737 0.884946 112.694 0.884946V4.37072ZM7.31942 0.884946C3.27663 0.884946 -0.000697374 4.16227 -0.000697374 8.20506H3.48507C3.48507 6.08741 5.20177 4.37072 7.31942 4.37072V0.884946ZM91.7187 52.9225C92.6529 55.0816 94.9943 56.2668 97.2877 55.7415L96.5093 52.3437C95.8537 52.4939 95.1848 52.1551 94.9178 51.5382L91.7187 52.9225ZM97.2877 55.7415C98.7767 55.4003 100.208 54.875 101.575 54.1762L99.9892 51.0723C98.8712 51.6437 97.7106 52.0685 96.5093 52.3437L97.2877 55.7415ZM101.576 54.1761C102.998 53.4492 104.295 52.5384 105.435 51.4317L103.007 48.9304C102.132 49.7799 101.123 50.4928 99.989 51.0723L101.576 54.1761ZM105.435 51.4316C105.866 51.0132 106.269 50.5665 106.637 50.0904L103.881 47.9564C103.619 48.2949 103.327 48.6197 103.007 48.9305L105.435 51.4316ZM112.694 47.2805H105.259V50.7663H112.694V47.2805ZM91.9309 47.2805H7.31942V50.7663H91.9309V47.2805ZM90.3313 49.7154L91.7186 52.9223L94.9179 51.5383L93.5306 48.3314L90.3313 49.7154Z" fill="black" mask="url(#path-1-outside-1_2006_16286)"/>
<path fill-rule="evenodd" clip-rule="evenodd" d="M49.0941 17.3308C47.7862 17.3308 46.6157 18.142 46.1566 19.3665L37.5004 42.4493C37.1393 43.4127 37.2735 44.4919 37.8594 45.3376C38.4454 46.1836 39.4089 46.6879 40.4379 46.6879H46.5819C47.9145 46.6879 49.1014 45.8465 49.5423 44.5892L50.4016 42.1394H53.9083L54.848 44.9008C55.3183 46.2825 56.6795 47.1578 58.1316 47.0118L64.208 46.4007C64.2261 46.3986 64.2446 46.3969 64.2628 46.3948C64.6657 46.5827 65.1154 46.6879 65.5891 46.6879H71.7673C72.3909 46.6879 72.9719 46.506 73.4603 46.1923C73.9487 46.506 74.5301 46.6879 75.1537 46.6879H78.2766C78.7921 46.6879 79.2944 46.5611 79.742 46.3247C79.9494 46.4108 80.1599 46.4896 80.3733 46.5611C80.383 46.5642 80.3928 46.5673 80.4022 46.5705C81.4096 46.8953 82.447 47.0613 83.5042 47.0613C85.6375 47.0613 87.6568 46.659 89.4659 45.7405C90.275 45.3351 91.0084 44.8394 91.663 44.2594C91.4817 44.4902 91.3322 44.7467 91.2203 45.0235C90.9059 45.8019 90.9167 46.6737 91.2499 47.444L93.3205 52.2303C93.9211 53.6184 95.4262 54.3803 96.9007 54.0426C98.2459 53.7344 99.5419 53.2593 100.785 52.6242C102.062 51.971 103.216 51.1591 104.223 50.181C105.272 49.1628 106.102 47.9791 106.625 46.6238L106.63 46.612L113.852 28.2348C114.231 27.2691 114.109 26.1781 113.524 25.3207C112.94 24.4632 111.97 23.9501 110.932 23.9501H104.788C103.444 23.9501 102.249 24.8063 101.817 26.079L101.633 26.6227L101.242 25.469C100.704 23.8842 99.0176 23.0001 97.4086 23.4599L91.7059 25.0892C91.4235 25.1699 91.1565 25.2889 90.9118 25.441C90.4656 25.1256 89.9891 24.8449 89.483 24.6009C87.9297 23.8519 86.2419 23.4668 84.4687 23.3883V19.5855C84.4687 18.7206 84.1118 17.894 83.4819 17.3012C82.852 16.7083 82.0057 16.4018 81.1422 16.454L74.9644 16.8274C74.528 16.8537 74.1174 16.9683 73.7486 17.1531C73.1407 16.6578 72.3661 16.4063 71.578 16.454L65.3998 16.8274C63.7437 16.9275 62.4519 18.2997 62.4519 19.9589V30.5909L58.2066 19.3589C57.7454 18.1384 56.5766 17.3308 55.2719 17.3308H49.0941ZM94.1815 40.8737C94.0769 41.0926 93.9646 41.308 93.8447 41.5199C93.4052 42.3133 92.8816 43.0307 92.2779 43.6658C92.4762 43.5208 92.6923 43.3984 92.9224 43.3026C93.4261 43.0927 93.9556 42.8599 94.5119 42.6033C94.5252 42.597 94.5387 42.5908 94.5523 42.5848C94.6391 42.5462 94.7231 42.5075 94.8037 42.4691L94.1815 40.8737Z" fill="white"/>
<path d="M49.0898 20.468H55.2676L63.8897 43.2792L57.8136 43.8903L56.1502 39.0022H48.173L46.5776 43.5508H40.4336L49.0898 20.468ZM54.385 34.1479L52.0768 27.8681L49.8706 34.1479H54.385Z" fill="black"/>
<path d="M71.7641 43.5508H65.5859V19.9589L71.7641 19.5855V43.5508Z" fill="black"/>
<path d="M78.2713 43.5508H75.1484V19.9589L81.3263 19.5855V26.9516C81.7111 26.8158 82.1071 26.714 82.5146 26.6461C82.9217 26.5556 83.3403 26.5103 83.7705 26.5103C85.3997 26.5103 86.8481 26.8158 88.1155 27.4268C89.3826 28.0379 90.3785 28.977 91.1025 30.2443C91.8495 31.5116 92.2228 33.1296 92.2228 35.0985C92.2228 37.0446 91.8495 38.6739 91.1025 39.9866C90.3785 41.299 89.3599 42.2834 88.0475 42.9397C86.7574 43.5961 85.2415 43.9241 83.4989 43.9241C82.7746 43.9241 82.0618 43.8112 81.3604 43.5846C80.6814 43.3584 80.0024 42.9962 79.3237 42.4984L78.2713 43.5508ZM82.8199 31.2627C82.3675 31.2627 81.8693 31.4324 81.3263 31.7718V38.6965C81.9373 39.0134 82.5257 39.172 83.0915 39.172C83.8608 39.172 84.506 38.821 85.0264 38.1196C85.5695 37.3953 85.841 36.3997 85.841 35.1323C85.841 33.8652 85.5807 32.9033 85.0602 32.247C84.5398 31.5908 83.7931 31.2627 82.8199 31.2627Z" fill="black"/>
<path d="M98.3332 43.6188L98.4691 43.2454L92.5625 28.1057L98.2656 26.4764L101.626 36.3882L104.783 27.0874H110.927L103.697 45.4857C103.357 46.3683 102.803 47.183 102.033 47.9296C101.264 48.6766 100.37 49.3103 99.3517 49.8307C98.3332 50.3512 97.2812 50.736 96.1947 50.9849L94.1241 46.1986C94.6672 45.9723 95.2329 45.7231 95.8213 45.4516C96.4324 45.18 96.9755 44.8858 97.4506 44.569C97.9261 44.2525 98.2203 43.9356 98.3332 43.6188Z" fill="black"/>
<path d="M33.623 42.7125C38.3075 42.7125 40.4394 32.3631 40.4394 28.439C40.4394 25.3803 38.3242 23.5267 35.5436 23.5267C32.7802 23.5267 30.5367 24.7123 30.5089 26.1806C30.5088 30.0554 29.8253 42.7125 33.623 42.7125Z" fill="white"/>
<path d="M16.5704 42.7125C11.886 42.7125 9.75391 32.3631 9.75391 28.439C9.75391 25.3803 11.8691 23.5267 14.6498 23.5267C17.4133 23.5267 19.6567 24.7123 19.6846 26.1806C19.6847 30.0554 20.3681 42.7125 16.5704 42.7125Z" fill="white"/>
<path d="M33.623 42.7125C38.3075 42.7125 40.4394 32.3631 40.4394 28.439C40.4394 25.3803 38.3242 23.5267 35.5436 23.5267C32.7802 23.5267 30.5367 24.7123 30.5089 26.1806C30.5088 30.0554 29.8253 42.7125 33.623 42.7125Z" stroke="black" stroke-width="1.38839"/>
<path d="M16.5704 42.7125C11.886 42.7125 9.75391 32.3631 9.75391 28.439C9.75391 25.3803 11.8691 23.5267 14.6498 23.5267C17.4133 23.5267 19.6567 24.7123 19.6846 26.1806C19.6847 30.0554 20.3681 42.7125 16.5704 42.7125Z" stroke="black" stroke-width="1.38839"/>
<path d="M24.8721 30.3214C29.2159 30.3214 33.2849 29.1357 36.7709 27.0699C36.8699 27.0111 36.9766 27.0184 37.0532 27.0615C37.0902 27.0823 37.1122 27.1073 37.1237 27.1281C37.1334 27.1456 37.1432 27.1725 37.1383 27.2195C36.5987 32.5614 33.7017 36.9769 29.8078 39.0095C28.5204 39.6812 27.6358 40.8482 26.8589 41.873C26.8449 41.8915 26.8309 41.91 26.8169 41.9285C26.1855 42.7609 25.6151 43.5058 24.9183 44.0548C24.2215 43.5058 23.6512 42.7609 23.0197 41.9285C23.0058 41.91 22.9918 41.8915 22.9778 41.873C22.2009 40.8482 21.3162 39.6812 20.0288 39.0095C16.1494 36.9846 13.2596 32.5941 12.7044 27.2787C12.6996 27.2317 12.7091 27.2048 12.7187 27.1872C12.7301 27.1663 12.752 27.1413 12.7888 27.1204C12.8651 27.077 12.9718 27.0692 13.0711 27.1275C16.5353 29.1577 20.5688 30.3214 24.8721 30.3214Z" fill="#FFDF6F" stroke="black" stroke-width="1.38839"/>
<path d="M24.964 31.2009C31.7117 31.2009 37.1818 29.3775 37.1818 27.1282C37.1818 24.879 31.7117 23.0556 24.964 23.0556C18.2162 23.0556 12.7461 24.879 12.7461 27.1282C12.7461 29.3775 18.2162 31.2009 24.964 31.2009Z" fill="black" stroke="black" stroke-width="1.38839"/>
<path d="M15.1523 33.9775C15.1523 33.9775 21.1787 36.0139 25.0562 36.0139C28.9337 36.0139 34.9601 33.9775 34.9601 33.9775" stroke="black" stroke-width="1.38839" stroke-linecap="round"/>
<path d="M10.7031 9.71289C10.7031 11.2387 11.94 12.4756 13.4658 12.4756C14.9916 12.4756 16.2285 11.2387 16.2285 9.71289C16.2285 8.18709 14.9916 6.9502 13.4658 6.9502C11.94 6.9502 10.7031 8.18709 10.7031 9.71289Z" fill="black"/>
<path d="M38.795 9.71289C38.795 11.2387 37.5579 12.4756 36.0322 12.4756C34.5064 12.4756 33.2695 11.2387 33.2695 9.71289C33.2695 8.18709 34.5064 6.9502 36.0322 6.9502C37.5579 6.9502 38.795 8.18709 38.795 9.71289Z" fill="black"/>
<path d="M36.5406 9.29852L31.3835 14.4555M13.0117 9.29852L18.1687 14.4555L13.0117 9.29852Z" stroke="black" stroke-width="1.38134"/>
<path d="M14.2538 26.1986C12.7648 25.4898 11.8983 23.898 12.1885 22.2746C13.4345 15.3071 18.6267 10.0812 24.8427 10.0812C31.0738 10.0812 36.2763 15.3325 37.5057 22.3253C37.7919 23.9516 36.9183 25.5427 35.4241 26.2458C32.2271 27.7503 28.6561 28.5912 24.8887 28.5912C21.0822 28.5912 17.4762 27.7327 14.2538 26.1986Z" fill="#FFDF6F" stroke="black" stroke-width="1.38134"/>
<path d="M16.9103 24.4664C15.7118 23.9782 15.0008 22.703 15.4161 21.4773C16.6969 17.6974 20.433 14.962 24.8425 14.962C29.2519 14.962 32.988 17.6974 34.2688 21.4773C34.6841 22.703 33.9731 23.9782 32.7746 24.4664C30.3266 25.4634 27.6487 26.0127 24.8425 26.0127C22.0362 26.0127 19.3583 25.4634 16.9103 24.4664Z" fill="black"/>
<path d="M30.3272 20.8557C30.3271 21.8729 29.2964 22.6975 28.0249 22.6975C26.7534 22.6975 25.7227 21.8729 25.7227 20.8557C25.7227 19.8385 26.7534 19.0139 28.0249 19.0139C29.2964 19.0139 30.3272 19.8385 30.3272 20.8557Z" fill="white"/>
<path d="M23.7295 20.8568C23.7295 21.874 22.6987 22.6986 21.4272 22.6986C20.1557 22.6986 19.125 21.874 19.125 20.8568C19.125 19.8396 20.1557 19.015 21.4272 19.015C22.6987 19.015 23.7295 19.8396 23.7295 20.8568Z" fill="white"/>
<path d="M44.9512 16.4413C45.0608 16.5071 45.1897 16.5674 45.3378 16.6222C45.4914 16.6771 45.6504 16.7264 45.8149 16.7703C45.9849 16.8087 46.1522 16.8389 46.3167 16.8608C46.4868 16.8827 46.6431 16.8937 46.7857 16.8937C47.2463 16.8937 47.6439 16.8224 47.9785 16.6798C48.313 16.5372 48.568 16.3425 48.7435 16.0958C48.9245 15.8435 49.015 15.561 49.015 15.2484C49.015 15.0181 48.9629 14.8124 48.8587 14.6315C48.76 14.445 48.6284 14.275 48.4638 14.1214C48.2993 13.9679 48.1156 13.828 47.9127 13.7019C47.7152 13.5757 47.5178 13.4551 47.3204 13.3399C47.1723 13.2522 47.0324 13.1781 46.9008 13.1178C46.7747 13.052 46.6705 12.9862 46.5882 12.9204C46.5114 12.8545 46.473 12.7833 46.473 12.7065C46.473 12.6023 46.5224 12.5118 46.6211 12.435C46.7198 12.3527 46.8542 12.3116 47.0242 12.3116C47.1504 12.3116 47.2655 12.3198 47.3697 12.3363C47.4739 12.3473 47.5891 12.3692 47.7152 12.4021C47.8469 12.435 48.0114 12.4871 48.2088 12.5584L48.653 11.5465C48.4337 11.3985 48.1732 11.286 47.8715 11.2093C47.5754 11.127 47.2875 11.0859 47.0078 11.0859C46.5855 11.0859 46.218 11.1572 45.9054 11.2998C45.5928 11.4369 45.3515 11.6261 45.1815 11.8674C45.017 12.1087 44.932 12.3829 44.9265 12.69C44.9265 12.9258 44.9786 13.1397 45.0828 13.3317C45.187 13.5181 45.3241 13.6854 45.4941 13.8335C45.6641 13.9816 45.8451 14.1159 46.037 14.2366C46.2345 14.3572 46.4237 14.4724 46.6047 14.5821C46.7473 14.6644 46.8844 14.7439 47.016 14.8207C47.1476 14.892 47.2546 14.9633 47.3368 15.0345C47.4246 15.1004 47.4684 15.1662 47.4684 15.232C47.4684 15.2978 47.441 15.3663 47.3862 15.4376C47.3313 15.5035 47.2491 15.5583 47.1394 15.6022C47.0352 15.646 46.9036 15.668 46.7445 15.668C46.6129 15.668 46.4621 15.6515 46.2921 15.6186C46.1275 15.5802 45.9685 15.5336 45.8149 15.4788C45.6669 15.4239 45.5435 15.3691 45.4447 15.3142L44.9512 16.4413ZM51.2516 11.1928H49.7544V14.6479C49.7544 15.1305 49.8586 15.5418 50.067 15.8819C50.2808 16.2164 50.577 16.4714 50.9554 16.6469C51.3338 16.8169 51.7698 16.9019 52.2634 16.9019C52.7625 16.9019 53.1985 16.8169 53.5714 16.6469C53.9498 16.4714 54.2432 16.2164 54.4516 15.8819C54.6655 15.5418 54.7725 15.1305 54.7725 14.6479V11.1928H53.2753V14.5739C53.2753 14.8042 53.2314 15.0016 53.1436 15.1662C53.0559 15.3252 52.9352 15.4459 52.7817 15.5281C52.6336 15.6104 52.4608 15.6515 52.2634 15.6515C52.066 15.6515 51.8905 15.6104 51.7369 15.5281C51.5834 15.4459 51.4627 15.3252 51.375 15.1662C51.2927 15.0016 51.2516 14.8042 51.2516 14.5739V11.1928ZM57.5036 16.7868V15.1579H58.2934C58.595 15.1579 58.8857 15.1196 59.1654 15.0428C59.4506 14.966 59.7056 14.8481 59.9304 14.689C60.1553 14.53 60.3335 14.3271 60.4652 14.0803C60.5968 13.8335 60.6626 13.5428 60.6626 13.2083C60.6626 12.7586 60.5556 12.3856 60.3418 12.0895C60.1334 11.7879 59.8537 11.563 59.5027 11.4149C59.1572 11.2668 58.776 11.1928 58.3592 11.1928H56.0064V16.7868H57.5036ZM58.3098 12.3692C58.4798 12.3692 58.6224 12.4048 58.7376 12.4761C58.8583 12.5474 58.9515 12.6461 59.0173 12.7723C59.0831 12.8984 59.116 13.0438 59.116 13.2083C59.116 13.3509 59.0804 13.4825 59.0091 13.6032C58.9433 13.7183 58.85 13.8116 58.7294 13.8828C58.6142 13.9487 58.4798 13.9816 58.3263 13.9816H57.5036V12.3692H58.3098ZM62.9826 16.7868V15.1579H63.7723C64.0739 15.1579 64.3646 15.1196 64.6443 15.0428C64.9295 14.966 65.1845 14.8481 65.4094 14.689C65.6342 14.53 65.8125 14.3271 65.9441 14.0803C66.0757 13.8335 66.1415 13.5428 66.1415 13.2083C66.1415 12.7586 66.0346 12.3856 65.8207 12.0895C65.6123 11.7879 65.3326 11.563 64.9816 11.4149C64.6361 11.2668 64.2549 11.1928 63.8381 11.1928H61.4854V16.7868H62.9826ZM63.7888 12.3692C63.9588 12.3692 64.1014 12.4048 64.2165 12.4761C64.3372 12.5474 64.4304 12.6461 64.4962 12.7723C64.562 12.8984 64.5949 13.0438 64.5949 13.2083C64.5949 13.3509 64.5593 13.4825 64.488 13.6032C64.4222 13.7183 64.329 13.8116 64.2083 13.8828C64.0931 13.9487 63.9588 13.9816 63.8052 13.9816H62.9826V12.3692H63.7888ZM69.4404 16.9019C68.8481 16.9019 68.3353 16.7731 67.9021 16.5153C67.4688 16.2575 67.1343 15.9093 66.8985 15.4705C66.6681 15.0318 66.553 14.5464 66.553 14.0145C66.553 13.4386 66.6764 12.9313 66.9231 12.4926C67.1699 12.0484 67.51 11.7028 67.9432 11.4561C68.382 11.2038 68.881 11.0776 69.4404 11.0776C70.0492 11.0776 70.5674 11.2065 70.9952 11.4643C71.4285 11.722 71.7603 12.0676 71.9906 12.5008C72.221 12.9341 72.3361 13.4194 72.3361 13.9569C72.3361 14.5327 72.2127 15.0428 71.9659 15.487C71.7246 15.9312 71.3846 16.2795 70.9459 16.5318C70.5126 16.7785 70.0108 16.9019 69.4404 16.9019ZM69.4322 15.6515C69.69 15.6515 69.9203 15.5885 70.1232 15.4623C70.3316 15.3362 70.4962 15.147 70.6168 14.8947C70.7375 14.6424 70.7978 14.3298 70.7978 13.9569C70.7978 13.6443 70.7429 13.3673 70.6333 13.126C70.5291 12.8792 70.3755 12.6845 70.1726 12.5419C69.9751 12.3994 69.7366 12.3281 69.4569 12.3281C69.2101 12.3281 68.9825 12.3994 68.7741 12.5419C68.5657 12.679 68.3984 12.8737 68.2723 13.126C68.1516 13.3728 68.0913 13.6662 68.0913 14.0062C68.0913 14.3188 68.1434 14.6013 68.2476 14.8536C68.3573 15.1004 68.5108 15.2951 68.7083 15.4376C68.9112 15.5802 69.1525 15.6515 69.4322 15.6515ZM75.5419 12.3692C75.7119 12.3692 75.8545 12.3966 75.9697 12.4515C76.0903 12.5008 76.1836 12.5803 76.2494 12.69C76.3152 12.7997 76.3481 12.9368 76.3481 13.1013C76.3481 13.2439 76.3125 13.3728 76.2412 13.488C76.1754 13.6032 76.0821 13.6936 75.9615 13.7595C75.8463 13.8198 75.7119 13.8499 75.5584 13.8499H74.7357V12.3692H75.5419ZM73.2385 11.1928V16.7868H74.7357V15.0263H75.2375C75.3198 15.0263 75.4021 15.0263 75.4843 15.0263C75.5666 15.0263 75.6489 15.0263 75.7311 15.0263L76.636 16.7868H78.3718L77.1378 14.5821C77.3627 14.4285 77.5437 14.2284 77.6808 13.9816C77.8234 13.7348 77.8947 13.4414 77.8947 13.1013C77.8947 12.6516 77.7877 12.2869 77.5738 12.0072C77.3654 11.7275 77.0857 11.5219 76.7348 11.3902C76.3892 11.2586 76.0081 11.1928 75.5913 11.1928H73.2385ZM83.323 11.1928H78.5352V12.3692H80.1805V16.7868H81.6777V12.3692H83.4629L83.323 11.1928ZM93.498 11.1928L91.8939 16.7868H90.3966L89.4753 13.2741L88.6115 16.7868H87.1143L85.4361 11.2586L86.9086 11.1105L87.8876 14.9934L88.7267 11.1928H90.2157L91.1699 14.9934L92.009 11.1928H93.498ZM95.7356 16.7868V11.1928H94.2384V16.7868H95.7356ZM101.262 11.1928H96.4743V12.3692H98.1196V16.7868H99.6168V12.3692H101.402L101.262 11.1928ZM107.096 16.7868V11.1928H105.599V13.4222H103.641V11.1435L102.143 11.1928V16.7868H103.641V14.5985H105.599V16.7868H107.096Z" fill="black"/>
</svg>
